<svg width="1518" height="388" viewBox="0 0 1518 388" fill="none" xmlns="http://www.w3.org/2000/svg">
<path d="M485.985 47.4751C499.535 47.5003 511.67 51.9009 518.069 64.7512C518.159 59.9398 518.553 54.9402 518.86 50.1236C523.221 49.8166 531.87 48.4553 535.109 51.6273C531.746 86.9803 535.653 122.926 532.693 157.836C530.664 181.77 508.565 196.409 485.95 195.512C474.5 195.057 460.006 195.248 450.708 186.235L455.429 173.292L456.24 173.173C475.659 183.43 502.694 187.245 513.139 162.43C517.005 153.245 516.143 145.478 515.773 135.754C515.479 136.129 515.179 136.498 514.872 136.861C507.768 145.243 500.007 150.218 488.865 151.217C441.371 155.476 429.938 90.6097 455.946 61.4072C464.861 51.3974 473.041 48.3011 485.985 47.4751ZM492.199 136.471C515.5 131.351 517.309 112.321 516.295 91.951C515.357 73.1275 503.785 60.6709 484.379 62.9628C473.826 67.333 469.869 69.4091 464.871 80.5169C454.94 102.591 462.45 138.212 492.199 136.471Z" fill="#8DD7F6"/>
<path d="M564.435 2.66298C571.409 2.40354 576.73 2.37818 583.695 2.68329C584.595 17.4336 584.058 51.2102 582.989 65.0111C589.717 56.0134 597.373 49.7451 608.759 47.8788C647.678 41.5008 662.392 79.6639 657.672 111.866C655.877 124.107 652.5 130.195 645.481 139.975C638.883 150.77 620.85 155.275 609.131 153.755C596.864 152.165 588.905 146.766 581.271 137.4C581.83 142.756 580.592 146.548 579.539 151.836L564.21 151.82C563.837 140.793 564.69 127.215 564.577 115.679C564.21 78.2151 565.249 40.0559 564.435 2.66298ZM614.208 139.057C623.911 135.917 630.575 132.254 635.448 122.873C646.713 101.188 639.62 61.0732 608.849 62.8542C579.985 69.3902 582.228 94.0157 584.511 117.752C585.768 130.819 602.025 139.718 614.208 139.057Z" fill="#8DD7F6"/>
<path d="M1026.48 2.61079C1033.11 2.34786 1039.03 2.46049 1045.66 2.62376C1046.28 51.3059 1046.14 103.177 1045.63 151.882L1029.39 151.865C1028.53 145.498 1027.9 141.324 1027.98 134.91C1016.8 153.672 993.867 159.901 974.996 148.864C934.837 129.024 948.535 38.4616 1002.58 47.6832C1014.74 49.7563 1019.34 53.2338 1026.76 62.5161C1025.53 55.4893 1026.26 46.832 1026.32 39.4841L1026.48 2.61079ZM1004.18 138.404C1013.98 134.117 1019.54 132.279 1023.84 121.138C1027.74 111.035 1027.72 87.9083 1023.43 78.29C1020.64 71.84 1015.39 66.7699 1008.85 64.2C1004.03 62.3619 999.804 62.3219 994.764 62.8713C985.692 65.7867 980.288 69.7009 975.893 78.4035C964.96 100.016 972.291 143.978 1004.18 138.404Z" fill="#8DD7F6"/>
<path d="M772.112 47.4688C805 45.5077 824.397 73.6529 822.47 104.904C822.092 111.073 819.861 116.576 819.364 123.2C816.577 126.504 813.227 132.552 810.359 136.319C801.145 148.415 791.777 151.688 777.619 153.882C747.6 155.208 727.86 137.808 725.408 107.693C722.805 75.7141 738.027 49.6347 772.112 47.4688ZM778.917 139.14C813.012 130.181 811.448 57.8923 769.37 62.1076C730.172 71.4352 737.861 145.521 778.917 139.14Z" fill="#8DD7F6"/>
<path d="M885.837 47.4489C914.099 45.5618 931.51 66.1211 935.313 92.4764C937.573 107.834 933.608 123.461 924.291 135.877C914.937 148.326 904.893 151.914 890.277 153.968C876.794 154.372 865.765 151.95 855.158 142.939C834.271 125.232 833.226 84.1009 850.696 63.7559C860.576 52.2469 871.339 48.4921 885.837 47.4489ZM892.241 139.4C929.494 126.571 922.09 57.7745 882.991 62.0683C845.559 70.3601 849.429 144.092 892.241 139.4Z" fill="#8DD7F6"/>
<path d="M147.982 47.4581C174.724 45.9218 193.781 65.2636 196.429 91.1406C199.861 124.663 185.756 150.47 150.426 154.039C138.713 154.25 126.606 151.592 117.694 143.785C88.875 118.542 95.8921 57.3892 136.918 48.6637C140.454 47.9118 144.387 47.699 147.982 47.4581ZM153.657 139.652C163.729 135.326 170.636 129.688 174.787 119.278C179.799 106.73 179.65 92.7096 174.371 80.2723C168.668 67.0275 157.825 60.6858 143.64 62.1746C132.708 66.7769 127.583 69.2467 122.755 80.8469C112.406 105.718 121.642 141.463 153.657 139.652Z" fill="#8DD7F6"/>
<path d="M1094.99 48.2639C1099.31 47.9332 1103.64 47.7456 1107.97 47.7019C1150.99 47.2318 1144.86 87.1477 1145.55 117.138C1145.82 128.822 1146.64 140.234 1146.65 152.076L1130.9 152.029C1129.56 147.535 1129.11 144.273 1128.41 139.694C1115.97 154.92 1094.98 158.812 1078.41 147.865C1073.07 143.086 1069.98 138.564 1068.69 131.547C1062.22 96.3204 1097.1 87.1714 1124.5 86.1712C1125.94 86.1178 1126.75 84.672 1127.44 83.6525C1127.89 81.1508 1127.67 79.6211 1126.79 77.3278C1117.32 52.6104 1096.09 62.1122 1078.49 68.6779L1075.27 55.9729C1081.27 52.442 1088.26 49.9641 1094.99 48.2639ZM1098.31 139.817C1125.84 140.97 1128.79 122.275 1127.5 99.8549C1124.71 99.9046 1120.76 99.846 1118.08 100.043C1103.3 101.588 1085.6 106.713 1085.96 124.992C1086.07 131.261 1092.91 137.506 1098.31 139.817Z" fill="#F8931F"/>
<path d="M265.661 263.68C274.12 263.004 276.419 263.14 284.334 265.565C289.758 270.815 293.993 277.331 293.32 285.308C292.215 298.42 282.056 302.326 273.406 309.691C280.228 318.277 287.686 326.099 294.245 334.809C299.932 327.737 301.6 317.266 303.534 308.329C305.393 308.08 311.699 307.22 312.524 308.094C318.485 314.411 304.541 339.107 302.065 343.16C304.224 345.713 306.747 348.39 309.007 350.891C310.76 353.157 314.489 356.997 316.539 359.244C311.525 359.339 306.51 359.333 301.495 359.227C299.452 357.467 296.379 354.034 294.427 351.972C282.77 358.752 273.927 362.867 259.913 360.444C236.841 356.457 231.38 329.476 246.811 313.846C249.779 310.838 252.687 308.971 256.174 306.664C246.378 289.616 244.485 272.059 265.661 263.68ZM275.712 350.703C280.056 348.525 283.667 346.864 287.569 343.9C283.673 339.556 264.318 315.914 261.43 314.617C259.616 316.245 256.204 319.137 254.95 321.07C243.862 338.159 255.924 355.422 275.712 350.703ZM272.352 298.505C284.758 289.864 285.123 270.329 267.517 272.594C263.649 275.379 261.389 277.544 260.715 282.47C259.786 289.254 260.498 297.057 266.955 300.713C269.765 300.608 269.77 300.084 272.352 298.505Z" fill="#A9A9AA"/>
<path d="M383.624 47.4536C422.817 48.8661 419.693 87.0329 419.59 115.59C419.473 127.689 419.507 139.789 419.694 151.887L401.345 151.869C400.549 137.627 401.385 123.074 401.16 108.786C400.965 96.3976 402.6 82.1104 394.729 71.5482C386.336 60.2854 371.229 61.4599 361.612 70.5406C360.998 71.0262 360.411 71.5475 359.858 72.1013C351.704 80.3131 353.392 98.5827 353.433 109.731L353.698 151.887L335.02 151.864C334.566 120.766 336.443 80.2604 333.568 50.2311C340.022 49.8018 344.278 49.5342 350.707 49.9056C350.727 55.5838 350.977 61.2589 351.455 66.917C358.454 52.3999 368.465 48.6444 383.624 47.4536Z" fill="#8DD7F6"/>
<path d="M285.341 50.1184C291.434 49.7158 296.674 49.7722 303.004 49.1567C303.858 61.4769 303.358 78.5832 303.337 91.2607C303.274 105.223 303.217 119.327 303.621 133.281C303.81 139.798 305.04 145.354 305.335 151.871L288.347 151.755C288.244 145.886 288.071 142.326 287.294 136.512C285.599 138.419 283.869 140.297 282.108 142.144C258.982 166.143 222.531 153.571 220.91 118.596C219.835 95.4033 219.996 73.4397 220.016 50.2348C223.683 49.8982 227.913 49.8396 231.637 49.7017C232.949 49.5853 237.443 49.4237 237.991 50.7961C246.106 71.1315 224.442 138.164 260.661 138.092C266.815 138.063 272.696 135.547 276.968 131.116C280.765 127.193 283.423 122.308 284.654 116.988C286.086 110.652 285.576 96.8833 285.54 89.9224L285.341 50.1184Z" fill="#8DD7F6"/>
<path d="M1188.97 289.802C1189.26 289.8 1189.56 289.805 1189.85 289.819C1212.41 290.819 1217.53 308.625 1218.09 328.255C1218.91 356.646 1187.49 373.41 1167.73 351.422C1167.45 358.548 1167.47 365.87 1167.4 373.017L1167.47 387.543L1154.69 387.508C1155.76 379.098 1155.43 358.464 1155.36 349.466C1155.22 331.468 1155.87 309.608 1154.24 291.782L1166.64 291.771L1166.71 302.199C1174.25 293.352 1177.71 291.488 1188.97 289.802ZM1191.32 350.329C1197.62 347.564 1201.68 344.513 1203.95 337.595C1209.68 320.117 1203.58 297.848 1181.23 300.931C1156.77 315.763 1165.95 357.636 1191.32 350.329Z" fill="#A9A9AA"/>
<path d="M821.062 260.151C824.805 259.774 829.141 259.781 832.943 259.698C834.448 289.234 830.957 324.662 834.07 354.522C834.27 356.428 834.893 356.367 834.492 358.807C832.662 359.808 825.25 359.45 822.707 359.44C822.5 356.229 822.114 353.162 821.729 349.97C812.857 360.905 799.633 364.457 786.803 358.201C750.165 332.887 781.911 265.281 821.158 299.123C820.713 295.716 820.439 263.325 821.062 260.151ZM802.917 350.955C830.312 347.41 825.872 299.999 802.991 300.193C776.567 303.45 777.997 349.575 802.917 350.955Z" fill="#A9A9AA"/>
<path d="M1108.33 289.804C1151.33 288.532 1154.12 358.196 1110.94 360.941C1087.25 361.189 1074.82 345.434 1076.58 322.084C1078.03 302.69 1089.53 292.41 1108.33 289.804ZM1112.61 351.275C1119.79 348.385 1123.3 345.616 1126.48 338.124C1129.79 330.23 1129.87 321.349 1126.7 313.397C1122.72 303.624 1115.82 299.279 1105.45 300.066C1080.27 306.906 1086.12 356.584 1112.61 351.275Z" fill="#A9A9AA"/>
<path d="M1211.45 0.00906849C1215.53 0.00936507 1225.01 -0.350246 1227.44 3.42981C1227.84 6.38884 1228.19 10.8161 1226.61 13.5489C1224.14 17.8479 1216.74 14.9719 1212.66 15.3937C1210.23 15.6449 1207.88 16.265 1205.5 16.8773C1204.99 17.3466 1204.49 17.8294 1204.01 18.3254C1196.66 25.8963 1194.74 38.7904 1194.91 49.0053C1202.55 50.1086 1211.86 49.907 1219.77 50.0738C1220.09 53.0723 1219.94 60.6804 1219.95 64.037C1211.73 64.4515 1203.62 63.9125 1194.88 64.4975V138.845L1194.91 151.94L1177.09 151.997L1177.09 64.1653L1164.34 64.1964C1164.09 59.7024 1164.28 54.4944 1164.34 49.9433L1177.18 49.4821L1177.15 48.1504C1176.58 25.0841 1184.07 0.678017 1211.45 0.00906849Z" fill="#F8931F"/>
<path d="M1390.36 48.1587C1397.96 47.8184 1420.75 46.7106 1425.04 53.6359C1425.61 56.8672 1423.04 63.7599 1422 67.2047C1402.01 60.3202 1381.05 60.4507 1370.54 81.945C1366.1 91.022 1364.96 106.912 1368.94 116.301C1379.39 140.909 1398.33 142.265 1420.66 134.183C1421.18 134.174 1421.67 134.482 1422.18 134.712C1425.6 143.337 1427.59 149.687 1415.24 152.105C1400.63 154.963 1382.62 154.848 1369.73 146.609C1341.02 128.263 1341.24 77.2975 1368.2 57.4545C1375.2 52.2879 1382.08 49.985 1390.36 48.1587Z" fill="#F8931F"/>
<path d="M1263.08 289.803C1273.65 289.999 1277.16 293.641 1282.64 301.906C1290.35 295.478 1294.03 289.769 1305.09 289.837C1323.93 289.953 1327.05 308.749 1326.84 323.837C1326.68 335.591 1326.82 347.671 1326.79 359.499L1314.39 359.434C1314.48 358.252 1314.55 357.068 1314.59 355.883C1314.87 344.562 1316.88 309.682 1310.09 305.041C1281.25 285.338 1285.92 336.338 1285.98 344.099L1286.03 359.353L1273.48 359.454C1273.62 344.11 1274.88 326.544 1272.38 311.614C1269.64 295.287 1247.3 299.315 1245.72 313.082C1244.03 327.866 1245.44 344.401 1245.1 359.546C1240.93 359.41 1236.39 359.476 1232.18 359.451C1232.2 337.265 1232.56 313.719 1231.66 291.703L1242.98 291.754L1243.22 302.368C1243.95 301.218 1244.72 300.091 1245.51 298.987C1250.21 292.55 1255.63 290.963 1263.08 289.803Z" fill="#A9A9AA"/>
<path d="M699.138 2.28804C699.413 2.26439 699.97 2.54244 700.27 2.66381C701.077 6.75536 700.417 33.8101 700.567 39.7121C701.49 76.1445 699.31 115.772 700.897 151.908L684.694 151.854L683.241 151.426C682.244 148.146 682.657 140.851 682.695 137.173C683.17 92.315 682.145 47.3164 682.885 2.47341L699.138 2.28804Z" fill="#8DD7F6"/>
<path d="M27.6354 289.853C63.7205 290.991 52.8876 333.657 54.833 359.46C51.4892 359.387 47.2286 360.217 44.3636 358.896C42.1833 356.357 42.7137 356.346 41.9544 352.745C30.2669 362.531 15.7271 365.772 4.81831 352.984C-12.2818 315.222 36.4224 319.022 40.9257 314.323C41.4131 312.501 41.3939 310.854 40.6223 309.1C34.1576 294.406 20.339 299.922 9.20633 304.259L6.38206 295.543C15.1007 291.451 18.1917 291.161 27.6354 289.853ZM25.0279 352.117C29.9849 351.123 32.4162 350.452 36.681 347.6C42.6062 338.711 42.013 335.566 41.7456 325.073C39.9378 325.117 33.8473 325.142 32.3914 325.386C15.4347 327.629 4.58675 346.659 25.0279 352.117Z" fill="#A9A9AA"/>
<path d="M1369.89 289.821C1387.07 290.27 1395.77 299.693 1399.39 316.362C1400.21 320.15 1400.04 323.305 1398.41 326.846C1391.93 331.412 1358.22 323.827 1352.52 330.758C1350.38 336.365 1358.28 345.303 1362.75 348.122C1370.03 352.717 1378.97 351.543 1386.98 349.643L1390.42 348.686C1392.71 349.334 1393 349.614 1394.63 351.408C1395.99 357.416 1390.87 359.007 1385.47 360.151C1347.25 368.242 1328.9 334.876 1346.66 303.054C1351 295.271 1360.67 291.334 1369.89 289.821ZM1352.71 318.535C1359.69 318.699 1366.67 318.761 1373.65 318.722C1377.07 318.753 1382.8 319.067 1385.89 318.151C1391.79 310.778 1377.96 298.325 1368.14 299.358C1358.15 302.226 1354.52 308.495 1352.71 318.535Z" fill="#A9A9AA"/>
<path d="M877.119 289.83C900.957 289.108 905.997 308.726 905.893 328.085C890.402 327.936 874.911 327.992 859.419 328.254C860.553 350.288 876.178 354.317 895.175 349.202C897.073 348.871 897.992 348.6 899.86 349.005C901.609 350.795 901.35 354.82 901.461 357.525C873.599 366.114 846.211 359.569 846.93 324.81C847.33 305.688 857.737 292.429 877.119 289.83ZM859.012 318.413C865.757 318.727 872.509 318.825 879.261 318.704C882.708 318.755 890.513 319.258 893.315 318.065C898.244 312.66 886.303 299.337 876.43 299.463C864.83 301.095 862.436 308.382 859.012 318.413Z" fill="#A9A9AA"/>
<path d="M705.59 289.863C706.105 289.828 706.621 289.815 707.137 289.822C729.853 290.146 734.238 309.409 733.719 328.045C727.331 328.142 690.078 326.559 687.837 329.766C686.869 351.324 708.692 353.371 724.735 349.002C726.434 348.216 725.691 348.322 727.552 348.615C730.247 351.64 730.617 352.288 729.517 355.926C726.555 359.117 723.975 359.822 719.725 360.447C699.669 363.685 679.835 357.645 676.324 334.988C672.848 312.548 681.68 292.591 705.59 289.863ZM704.705 318.728C708.331 318.763 718.293 319.181 721.191 318.11C726.644 311.985 714.839 299.07 704.831 299.414C693.675 301.153 690.151 308.374 687.071 318.474C693.082 318.67 698.692 318.805 704.705 318.728Z" fill="#A9A9AA"/>
<path d="M1007.56 289.824C1023.47 288.929 1034.06 300.155 1035.71 315.322C1036.15 319.361 1037.55 322.176 1035.97 326.344C1029.25 332.419 995.721 323.124 990.362 330.664C988.59 336.291 994.913 345.316 999.812 347.93C1007.62 352.095 1016.14 352.001 1024.52 349.666C1026.18 348.984 1027.28 348.321 1029.01 348.771C1031.2 349.928 1032.65 353.8 1033.79 356.188C1023.42 361.857 1006.37 362.991 995.483 358.19C971.424 347.58 972.528 304.317 995.38 293.118C999.605 291.05 1002.95 290.569 1007.56 289.824ZM990.288 318.521C996.328 318.614 1002.58 318.787 1008.6 318.747C1024.01 319.057 1028.08 319.809 1020.22 304.135C1015.25 300.812 1012.06 298.572 1005.84 299.347C995.676 302.156 991.785 308.314 990.288 318.521Z" fill="#A9A9AA"/>
<path d="M1273.37 48.1369C1277.83 47.7314 1281.55 47.7936 1285.99 47.8433L1286.04 65.7059L1284.96 65.6963C1252.44 65.4516 1255.34 90.9179 1255.53 115.319L1255.63 151.996C1251.09 151.855 1241.71 153.236 1237.97 151.106C1237.17 150.649 1237.2 148.639 1237.05 147.426C1237.06 115.411 1237.77 81.8913 1235.81 50.0966C1238.64 49.9127 1241.47 49.7637 1244.31 49.6503C1256.04 49.2973 1252.68 60.6944 1252.45 69.3843C1258.28 58.7762 1261.13 52.45 1273.37 48.1369Z" fill="#F8931F"/>
<path d="M1444.38 289.844C1450.5 289.729 1456.76 291.694 1461.19 296C1469.67 304.218 1469.25 315.972 1469.12 326.86C1468.99 337.734 1469.02 348.609 1469.15 359.482L1456.36 359.479C1456.81 344.8 1457.5 327.26 1455.37 312.856C1453.69 301.454 1441.68 297.886 1432.44 304.22C1421.48 312.781 1425.37 345.828 1425.61 359.398L1412.5 359.477C1412.7 336.901 1412.56 314.325 1412.09 291.753C1415.33 291.754 1418.94 291.55 1422.21 291.438C1422.71 294.845 1423 298.4 1423.33 301.839C1431.01 293.664 1433.53 291.675 1444.38 289.844Z" fill="#A9A9AA"/>
<path d="M457.362 291.726L469.924 291.702L469.87 311.475C469.834 327.438 469.881 343.402 470.013 359.364L458.972 359.564C458.78 356.416 458.74 352.951 458.634 349.772C450.964 358.498 448.656 360.722 436.952 361.018C414.673 361.581 413.526 341.103 413.824 324.088C414.009 313.478 413.89 302.358 413.941 291.683L426.764 291.722C426.88 301.01 423.945 343.038 431.325 347.028C464.564 364.997 457.448 308.581 457.362 291.726Z" fill="#A9A9AA"/>
<path d="M607.057 291.703L619.611 291.658L619.491 310.734C619.44 327.01 619.505 343.286 619.686 359.561C616.69 359.525 611.59 359.997 609.515 358.282C608.07 356.122 608.472 352.424 608.496 349.649C606.788 351.488 604.878 353.493 603.138 355.176C595.264 362.815 577.958 363.599 570.48 355.063C562.765 346.26 563.345 332.887 563.416 321.834C563.48 311.857 563.305 301.655 563.775 291.691L576.484 291.725C576.529 295.415 576.513 299.106 576.434 302.796C576.3 313.46 574.137 343.178 581.333 347.344C615.394 367.068 607.092 298.025 607.057 291.703Z" fill="#A9A9AA"/>
<path d="M1320.96 49.7637L1323.07 49.3389C1324.54 50.873 1324 143.348 1324.02 152.246C1319.41 151.81 1313.14 152.002 1308.4 152.013C1307.9 152.056 1307.07 151.834 1306.53 151.723C1305.08 149.089 1305.12 61.0659 1305.98 49.8698L1320.96 49.7637Z" fill="#F8931F"/>
<path d="M960.632 291.823C964.99 291.691 970.112 291.808 974.529 291.81L970.201 303.074C967.51 306.87 952.026 350.73 948.587 358.992C945.392 359.283 939.411 359.919 936.624 358.719C932.673 352.569 914.276 301.113 911 291.874C915.232 291.706 919.983 291.818 924.26 291.825C930.286 310.152 936.868 327.805 942.894 346.564C947.742 329.177 954.895 309.179 960.632 291.823Z" fill="#A9A9AA"/>
<path d="M132.051 271.949L132.779 272.098C134.15 274.771 133.906 287.833 133.936 291.497C138.683 291.887 146.102 291.699 151.059 291.698L151.135 301.332C145.577 300.979 139.513 301.299 133.914 301.464C133.724 313.807 133.061 327.66 133.862 339.948C134.826 354.723 145.194 348.062 149.601 351.589C151.324 354.285 151.378 358.293 148.812 360.413C120.778 364.063 120.845 349.006 121.21 325.717C121.333 317.888 121.242 309.291 120.939 301.442C118.14 301.225 114.155 301.344 111.256 301.348L111.164 291.745L120.846 291.701C122.457 279.019 116.624 275.516 132.051 271.949Z" fill="#A9A9AA"/>
<path d="M379.18 290.545C386.086 289.044 395.832 290.66 402.113 294.296C399.183 307.26 397.616 301.727 386.781 300.848C349.516 297.822 353.414 365.246 398.584 347.725C400.145 350.66 401.769 352.96 401.283 356.113C394.896 364.123 370.212 361.266 362.21 355.339C346.622 343.795 344.888 319.874 355.152 304.356C360.756 295.884 369.757 292.13 379.18 290.545Z" fill="#A9A9AA"/>
<path d="M182.806 289.855C186.75 290.077 205.661 290.951 196.823 301.374C194.842 303.71 187.32 299.855 183.551 299.738C175.194 299.478 168.356 307.788 175.558 314.615C182.859 319.782 189.828 320.901 196.553 327.313C205.278 335.631 203.771 346.74 195.86 355.147C190.072 361.297 180.634 360.879 172.678 360.792C166.402 360.306 163.134 358.832 157.555 356.294C159.27 353.086 160.25 350.176 161.484 346.766C169.39 350.642 181.182 355.511 188.154 347.003C194.477 339.523 185.711 333.302 178.79 330.31C164.991 324.345 154.193 313.754 163.653 298.362C167.039 292.85 176.447 290.713 182.806 289.855Z" fill="#A9A9AA"/>
<path d="M532.472 272.105L533.427 272.62C534.835 276.035 534.399 287.227 534.404 291.6C539.681 291.863 546.062 291.66 551.443 291.607C551.587 294.759 551.568 298.259 551.621 301.445C546.071 301.087 540.302 301.288 534.728 301.38C533.622 311.887 533.916 330.96 534.528 341.822C535.205 353.838 546.526 348.589 550.395 351.41C552.17 354.004 552.572 358.312 549.811 360.253C512.371 366.839 523.356 327.452 522.231 301.469C519.594 301.448 515.304 301.761 513.288 300.36C511.806 298.365 512.142 294.456 512.125 291.792L522.049 291.691C523.592 279.072 517.853 275.298 532.472 272.105Z" fill="#A9A9AA"/>
<path d="M1050.43 260.008C1054.52 259.789 1058.75 259.797 1062.85 259.751L1062.96 359.356L1050.33 359.493L1050.43 260.008Z" fill="#A9A9AA"/>
<path d="M498.289 259.544C498.641 259.45 499.557 259.506 499.975 259.514C500.911 261.65 500.543 350.163 500.626 359.514L490.496 359.373C490.136 359.385 489.166 359.133 488.757 359.043C487.823 356.919 488.312 270.927 488.291 260.126L498.289 259.544Z" fill="#A9A9AA"/>
<path d="M100.75 289.694C102.668 289.619 102.892 289.76 104.521 290.803C106.017 293.43 105.707 298.79 105.801 302.073C105.462 302.074 105.123 302.077 104.783 302.082C76.5303 302.518 86.1534 330.37 84.7288 349.761C84.5154 352.664 84.8356 356.415 84.8852 359.404C81.85 359.415 74.6439 359.908 72.3187 358.883L72.0429 357.261C72.0303 336.764 72.6633 311.857 71.5781 291.701L82.4125 291.718C82.3029 295.645 82.6453 300.049 82.8632 304.008C87.2415 294.403 90.7623 292.099 100.75 289.694Z" fill="#A9A9AA"/>
<path d="M667.138 289.729C669.356 289.812 668.592 289.513 670.278 290.817C671.628 293.736 671.37 298.474 671.415 301.841C642.482 303.758 649.936 337.334 650.089 359.541C645.728 359.279 641.214 360.975 638.048 357.851L638.045 354.295C638.1 333.901 638.492 311.899 637.398 291.691L648.303 291.65C648.533 295.095 648.45 299.552 648.483 303.082C655.073 294.627 656.602 291.76 667.138 289.729Z" fill="#A9A9AA"/>
<path d="M1310.23 10.5392C1314.14 8.84128 1318.67 9.4039 1322.06 12.0084C1325.44 14.613 1327.14 18.8489 1326.5 23.0706C1325.86 27.2922 1322.99 30.8341 1318.98 32.3203C1313.02 34.5348 1306.38 31.5958 1304 25.6924C1301.63 19.7889 1304.39 13.0694 1310.23 10.5392Z" fill="#F8931F"/>
<path d="M1447.44 55.7714C1453.84 52.4785 1459.64 49.6832 1466.93 48.5977C1536.7 38.2065 1511.32 102.794 1518 141.413V151.964L1503.15 151.978C1501.97 148.057 1501.32 143.652 1500.63 139.59L1500.17 140.101C1480.35 161.873 1443.81 159.761 1440.37 125.795C1436.24 84.8768 1495.36 88.5997 1498.85 84.8538C1499.35 81.988 1498.34 76.0697 1497.09 73.4619C1487.46 53.432 1465.48 62.9806 1451.12 68.618C1449.19 63.7473 1448.56 60.8148 1447.44 55.7714ZM1469.83 139.695C1496.33 141.619 1501.75 122.402 1499.87 99.9819C1497.12 99.9745 1492.64 99.8284 1490.04 100.048C1476.83 101.586 1456.89 106.712 1457.91 124.779C1458.28 131.314 1464.43 136.533 1469.83 139.695Z" fill="#F8931F"/>
<path d="M0 50.2124C6.22636 49.9077 12.4548 49.646 18.6848 49.4287C24.0005 59.8455 44.3048 119.767 45.6237 129.97C49.1902 121.915 51.2702 113.349 54.1982 105.069C60.2875 87.8499 65.5579 70.4225 71.3949 53.119C72.9608 48.4774 82.0269 49.8536 85.8441 49.7638C87.3184 49.7297 89.5064 49.8669 90.9881 49.9967C88.9801 60.1273 80.5763 83.06 76.3529 92.8851C61.49 127.457 50.667 187.118 9.32999 198.059C6.11195 190.953 6.38707 190.274 4.29305 182.842C18.4397 175.652 33.9303 163.663 36.1486 146.684C24.5141 115.538 10.8144 83.5642 0 52.6088L0 50.2124Z" fill="#8DD7F6"/>
<path d="M1489.01 291.685C1489.62 277.079 1485.52 276.039 1501.28 271.38C1501.86 276.784 1501.68 285.849 1501.72 291.542C1506.93 291.768 1512.74 291.732 1518 291.814V301.228C1512.6 301.239 1507.1 301.174 1501.71 301.508C1501.63 312.492 1499.34 338.845 1505.18 348.599C1506.87 351.429 1514.82 349.772 1518 351.098V359.471C1507.65 363.509 1498.29 361.198 1491.29 352.75C1488.23 336.265 1489.11 318.377 1489.05 301.445L1482.35 301.147C1479.98 299.963 1479.63 299.614 1478.32 297.3C1478.58 290.733 1484.15 291.556 1489.01 291.685Z" fill="#A9A9AA"/>
</svg>
