<svg width="1719" height="483" viewBox="0 0 1719 483" fill="none" xmlns="http://www.w3.org/2000/svg">
<path d="M178.504 263.704C185.144 262.245 233.356 272.008 243.034 273.787C253.429 296.698 255.585 322.503 249.135 346.823C239.938 381.975 217.983 406.346 187.262 424.377L184.389 425.531C182.942 425.503 180.933 425.171 179.649 424.483C153.364 410.39 132.424 386.843 121.93 359.509C111.017 331.637 111.822 300.534 124.16 273.264C142.315 270.311 160.431 267.124 178.504 263.704Z" fill="#741805"/>
<path d="M179.018 268.762C186.521 267.246 227.526 276.528 238.659 278.201C247.599 300.129 249.022 324.406 242.706 347.23C234.893 376.038 213.001 402.767 187.3 417.479C185.51 418.499 183.358 419.242 181.369 418.159C145.443 398.6 119.433 359.476 120.237 317.819C120.528 302.78 123.028 292.346 127.946 278.189L179.018 268.762Z" fill="#D9BE6C"/>
<path d="M146.602 305.691C144.898 308.588 143.025 311.738 141.784 314.876C139.582 320.447 138.914 334.059 133.99 337.026C133.239 336.139 132.396 335.015 133.153 333.936C138.166 326.8 132.754 309.049 141.531 304.197L141.774 303.186C139.751 301.136 139.614 301.694 139.611 299.519C144.152 295.825 151.041 295.109 151.516 291.899C149.671 288.785 147.769 286.999 148.164 284.019C150.629 281.883 156.665 280.345 159.313 282.784C160.271 285.92 157.923 290.466 156.497 293.32C160.54 294.451 163.758 294.587 164.074 299.299C165.981 301.815 167.572 299.542 170.24 302.673C169.912 304.133 169.659 305.363 169.427 306.844L170.2 307.868C172.509 305.656 174.426 303.019 177.145 302.25L178.788 303.36C179.197 307.663 175.644 311.82 171.701 313.194C167.135 312.819 165.79 310.485 162.547 306.921C163.357 315.719 164.002 328.962 161.46 337.523L159.274 338.675L150.903 332.987L152.696 331.097C151.367 323.814 149.354 312.542 146.602 305.691Z" fill="#741805"/>
<path d="M152.696 331.097C155.672 333.391 158.347 335.422 161.46 337.523L159.274 338.675L150.903 332.987L152.696 331.097Z" fill="#E1D3A5"/>
<path d="M203.981 306.969C200.781 310.745 199.813 312.644 195.133 313.328C191.519 312.153 187.12 306.844 187.558 302.978L188.969 301.933C191.894 302.23 194.339 305.546 196.71 307.949L197.792 306.921C197.239 304.962 197.054 304.303 196.941 302.28C199.732 299.606 200.636 301.939 202.769 299.592C202.428 298.173 202.502 297.982 202.987 296.598C205.662 295.219 208.362 293.889 211.085 292.608C208.519 291.35 208.67 291.892 207.342 289.784C208.096 286.134 208.299 285.257 210.085 281.988C212.57 281.171 214.185 280.363 216.668 281.249C220.463 286.041 216.577 290 213.394 293.47C230.437 297.069 229.343 308.203 231.457 323.536C232.302 329.669 229.3 328.186 233.89 333.689C234.213 336.078 234.247 335.233 232.827 337.672L232.027 337.734C227.976 334.543 226.538 321.024 226.531 315.904C224.31 312.807 222.256 309.158 220.301 305.851C216.325 314.816 216.468 324.268 212.998 332.175L213.947 333.793L207.507 338.817L205.489 337.272C202.67 332.4 203.731 313.415 203.981 306.969Z" fill="#741805"/>
<path d="M212.998 332.175L213.947 333.794L207.507 338.817L205.489 337.272C207.977 335.652 210.531 333.853 212.998 332.175Z" fill="#E1D3A5"/>
<path d="M154.552 353.498C153.63 356.803 152.587 363.102 150.45 365.06C148.065 364.836 148.899 365.105 146.908 363.355C144.577 358.132 148.956 345.879 148.235 345.277C142.376 340.388 145.308 336.486 150.903 332.987L159.274 338.675C160.415 344.949 168.268 359.73 165.808 365.81L164.277 366.008C159.089 362.831 157.347 358.742 154.552 353.498Z" fill="#741805"/>
<path d="M213.947 333.793C218.557 333.764 221.505 335.782 221.826 340.744C220.609 343.595 221.392 342.701 218.556 344.251L218.145 345.506C215.14 348.168 213.924 351.05 212.398 354.774L211.282 355.207C209.552 359.493 206.298 365.37 201.316 365.448L200.36 364.064C199.598 357.075 205.887 346.721 207.507 338.817L213.947 333.793Z" fill="#741805"/>
<path d="M211.282 355.208C212.552 350.246 213.587 346.563 218.556 344.251L218.145 345.506C215.14 348.169 213.924 351.051 212.398 354.774L211.282 355.208Z" fill="#964C34"/>
<path d="M146.819 367.042L151.081 367.653C155.522 370.605 158.187 381.515 160.844 387.713C164.76 389.311 166.776 390.012 170.148 392.533C156.06 395.627 147.79 378.656 146.819 367.042Z" fill="#741805"/>
<path d="M215.292 366.855L218.558 367.594L219.564 369.362C220.245 378.099 210.034 390.751 201.954 393.698C200.108 393.319 199.795 393.29 198.406 392.014C199.929 389.852 203.207 389.064 206.007 387.913C207.832 383.418 212.707 369.51 215.292 366.855Z" fill="#741805"/>
<path d="M160.396 367.827C170.421 368.821 169.451 370.631 172.265 379.921C172.91 382.049 173.748 384.551 174.444 386.701C176.632 388.022 178.587 389.426 180.671 390.895C177.157 391.229 174.468 389.98 171.144 388.79C165.714 382.217 162.461 376.123 160.396 367.827Z" fill="#741805"/>
<path d="M199.69 367.876C201.722 367.879 202.559 367.794 204.472 368.467L205.321 370.57C205.182 377.791 197.86 388.246 190.871 390.673C189.879 390.89 188.681 390.815 187.645 390.806C188.078 388.887 190.565 387.704 192.558 386.233C194.102 381.644 197.041 371.157 199.69 367.876Z" fill="#741805"/>
<path d="M218.145 345.506C219.794 350.552 222.371 359.48 218.341 364.147C214.086 364.277 213.569 358.445 212.398 354.775C213.924 351.051 215.14 348.169 218.145 345.506Z" fill="#741805"/>
<path d="M179.145 295.553C182.032 295.312 183.188 295.156 186.121 295.74C187.709 297.611 187.289 296.856 187.121 299.917C184.762 300.41 183.961 300.311 181.54 300.15C179.186 298.074 179.871 299.078 179.145 295.553Z" fill="#741805"/>
<path d="M1718.28 223.953L1718.2 233.176C1672.85 234.383 1622.96 233.298 1577.29 233.315L1297.62 233.355L462.274 233.346C462.649 230.134 462.405 227.253 462.235 224.035L1718.28 223.953Z" fill="#232022"/>
<path d="M183.991 0.422363C184.792 4.9143 192.912 32.5443 194.891 37.2984C201.286 30.4576 207.987 23.6665 214.478 16.8904L222.044 8.87171C218.999 21.4105 218.023 34.5524 215.26 46.4526C224.879 41.7594 234.622 37.3246 244.478 33.1531C249.339 30.8171 255.285 28.1269 259.925 25.5757C252.776 34.3666 238.053 51.2662 232.059 59.8889C242.475 59.9071 269.53 59.2721 278.642 60.3767L279.341 61.2445C277.165 62.6028 276.712 62.8291 274.165 63.0778C269.508 65.8574 240.337 75.9461 233.447 78.6641L233.434 79.7233L236.42 82.0699C230.99 81.8153 224.205 77.6016 218.676 76.3739C195.459 71.2192 170.466 70.5413 147.343 76.5156C143.688 77.4601 133.566 82.815 130.586 82.1583L133.227 79.9497L133.012 78.778C118.74 72.7174 97.6939 65.0858 83.0346 60.0397C100.421 60.0711 117.807 60.0021 135.193 59.8323L106.865 25.9827C121.624 33.0292 136.403 39.2017 151.171 46.0862L159.643 50.307C163.928 53.5961 164.193 52.7364 165.455 57.5482C167.443 50.694 169.978 44.2039 171.919 37.1296C174.59 28.0596 177.387 19.0275 180.311 10.0363C181.499 6.90507 182.716 3.49151 183.991 0.422363Z" fill="#F68221"/>
<path d="M222.044 8.87158C218.999 21.4103 218.023 34.5522 215.26 46.4524C224.879 41.7592 234.622 37.3245 244.478 33.153L245.332 34.7121C238.562 41.1085 211.408 62.3069 203.604 66.778C201.456 57.1383 198.097 46.6901 194.891 37.2982C201.286 30.4575 207.987 23.6663 214.478 16.8902L222.044 8.87158Z" fill="#F6A81D"/>
<path d="M222.044 8.87158C218.999 21.4103 218.023 34.5522 215.26 46.4524C211.053 48.5505 204.954 50.9381 200.491 52.8237C203.968 44.4851 216.894 24.1257 214.478 16.8902L222.044 8.87158Z" fill="#F68221"/>
<path d="M106.865 25.9824C121.624 33.0289 136.403 39.2013 151.171 46.0859L159.643 50.3067C163.928 53.5958 164.193 52.7361 165.455 57.5479C164.652 60.1158 163.392 63.1308 163.908 65.6822L164.84 66.3639C158.773 68.5894 154.373 69.0405 146.827 72.1284C143.456 69.2961 138.169 63.2489 135.193 59.8319L106.865 25.9824Z" fill="#F8981C"/>
<path d="M180.311 10.0361C185.846 16.0081 183.317 54.1674 183.229 64.1153C177.217 64.6579 170.703 65.0645 164.84 66.3641L163.908 65.6824C163.392 63.1309 164.652 60.116 165.455 57.548C167.442 50.6938 169.978 44.2037 171.919 37.1294C174.59 28.0594 177.387 19.0274 180.311 10.0361Z" fill="#F6A81D"/>
<path d="M232.059 59.8889C242.475 59.9071 269.53 59.2721 278.642 60.3768L279.342 61.2446C277.165 62.6029 276.712 62.8292 274.165 63.0778C269.6 62.4309 231.797 70.8074 222.686 71.7658C225.811 67.5322 228.505 63.8075 232.059 59.8889Z" fill="#F6A81D"/>
<path d="M356.269 127.497C345.655 155.467 317.913 135.754 312.726 143.862C319.604 145.714 337.676 146.222 345.126 146.329C344.692 146.905 344.25 147.476 343.802 148.042C339.06 154.008 337.621 155.164 330.191 156C322.907 154.991 315.997 152.344 308.939 152.03L308.597 152.629C312.955 155.261 319.631 156.658 324.687 157.481C328.389 158.452 329.766 158.129 331.997 160.569C331.109 165.896 321.656 165.74 317.526 165.202C313.023 163.615 308.506 162.071 303.975 160.567L302.483 162L302.097 161.72L302.396 160.276L301.135 160.683C304.461 164.14 313.561 166.756 318.323 168.346L321.132 169.277L321.353 170.8C317.677 175.336 310.645 175.298 305.52 173.62C301.346 171.69 296.124 168.972 291.692 168.254L292.658 169.529L292.956 168.703C293.705 171.559 300.76 174.472 303.48 175.781C306.47 176.915 307.321 176.598 308.504 178.938C304.475 187.131 289.894 181.928 284.079 177.766L280.399 176.117L279.447 176.647C280.929 179.131 282.103 179.666 284.515 181.149C287.589 182.82 291.87 184.711 293.655 187.58L293.559 189.314C290.634 191.25 282.088 190.982 278.641 190.4C275.466 188.442 270.024 184.633 266.611 184.111L266.058 184.69L266.449 185.461L266.241 184.179L267.588 184.053L267.299 186.358C269.436 187.808 274.465 190.919 276.894 191.457L279.1 194.039C277.59 198.444 269.798 197.805 265.869 197.355C261.426 195.013 255.511 191.15 251.091 189.832C254.32 193.485 260.24 197.35 264.476 199.693L264.041 200.989C248.829 212.125 220.227 187.916 207.52 178.649C215.994 176.866 227.516 176.061 234.718 171.87C237.538 170.229 237.425 167.478 237.991 164.362C239.994 161.518 245.968 159.598 249.089 157.389C252.823 154.746 251.468 151.168 254.526 149.22C261.589 144.722 269.313 139.038 277.44 136.831C279.285 136.33 281.455 134.943 283.1 133.928C307.677 137.162 332.25 132.648 356.269 127.497Z" fill="#9F5C09"/>
<path d="M10.0819 127.728C34.1824 132.217 58.9851 137.428 83.4321 133.864C87.8904 136.665 97.8998 139.125 99.8092 140.697C106.255 146.004 105.536 146.613 114.006 149.685C117.344 161.292 121.683 156.957 128.458 164.049C129.032 167.006 129.189 169.838 131.814 171.608L132.197 171.874C137.825 175.752 150.87 177.159 157.901 177.909C144.857 188.529 120.866 211.387 102.795 201.321L102.447 200.198C103.079 199.579 104.148 198.458 104.841 198.012C107.752 196.453 110.809 194.162 113.54 192.226L113.563 190.841L115.107 190.593L115.077 190.434C111.637 190.597 106.18 194.546 103.125 196.461C96.8823 199.098 91.8628 197.277 86.0789 194.691C89.972 192.084 98.4542 187.047 101.502 184.437L101.155 183.689C92.0012 183.715 90.9127 196.947 70.9956 187.471C77.8668 183.964 81.2807 182.407 87.0678 177.384C85.8241 176.221 62.8786 190.171 57.9231 178.904C59.1503 176.974 60.6082 176.916 63.0605 175.949C69.3413 172.961 74.5566 170.301 79.6952 165.58C74.6084 167.408 67.0904 171.068 61.8389 173.37C52.7928 176.048 51.2922 175.39 43.7166 169.881C47.8739 168.54 63.035 163.952 65.5799 160.647C58.4202 161.284 40.8743 169.973 34.5982 162.207L34.4368 159.985C38.1101 156.571 56.1869 156.624 59.4924 151.857C53.5463 147.812 35.4706 166.457 21.9336 146.293C32.9368 146.155 42.7249 146.112 53.6063 143.879L54.1672 143.078C40.3298 137.748 22.315 153.611 10.0819 127.728Z" fill="#9F5C09"/>
<path d="M1114.9 89.6445C1136.66 88.507 1152.24 100.762 1139.43 123.508C1136.82 128.14 1130.92 132.392 1126.65 135.717C1131.25 141.523 1134.99 146.076 1140.26 151.271C1144.55 145.745 1146.76 141.789 1150.24 135.688C1155.37 135.392 1158.67 135.569 1163.72 135.883C1160.52 144.978 1154.25 153.552 1148.5 161.148C1153.35 166.801 1162.3 176.618 1166.3 182.397L1165.77 183.265L1159.88 183.59C1156.43 183.798 1153.38 183.506 1149.93 183.254C1146.92 180.161 1141.94 173.836 1139.01 170.321C1136.83 172.358 1134.69 173.99 1132.23 176.102C1115.64 190.352 1082.05 186.835 1084.56 159.705C1085.67 147.761 1097.17 140.354 1106.68 133.433C1092.42 117.906 1091.15 95.2648 1114.9 89.6445ZM1115.03 171.171C1121.55 168.274 1125.36 165.955 1130.5 160.816C1128.13 158.033 1116.76 144.021 1114.53 143.315C1107.97 147.566 1100.77 152 1098.96 160.171C1096.53 171.027 1107.84 171.809 1115.03 171.171ZM1121.47 124.487C1126.47 120.491 1129.93 118.199 1130.76 111.332C1131.8 102.796 1123.33 100.454 1116.61 101.408C1105.87 107.3 1110.04 119.023 1117.68 125.37L1119.61 125.831L1121.47 124.487Z" fill="#F68221"/>
<path d="M520.334 120.209C535.042 120.042 559.249 118.023 569.154 129.549C587.976 151.449 575.181 184.592 545.044 184.683L532.842 182.668L532.915 215.785L520.289 215.721C519.625 185.193 519.925 150.759 520.334 120.209ZM559.616 167.499C566.27 158.309 567.753 143.433 557.648 135.745C552.274 131.657 539.882 132.136 532.847 131.907C532.845 141.603 532.314 159.979 533.391 169.981C534.055 170.677 534.625 171.275 535.101 171.774C544.377 175.697 552.245 173.685 559.616 167.499Z" fill="#F68221"/>
<path d="M617.602 119.391C635.803 117.323 652.25 130.37 654.394 148.577C656.537 166.784 643.571 183.298 625.388 185.522C607.095 187.758 590.471 174.685 588.314 156.369C586.158 138.053 599.291 121.471 617.602 119.391ZM627.806 172.249C638.764 168.672 644.792 156.925 641.315 145.928C637.839 134.931 626.156 128.793 615.137 132.173C603.977 135.597 597.748 147.471 601.269 158.608C604.79 169.746 616.71 175.873 627.806 172.249Z" fill="#F68221"/>
<path d="M60.0203 189.179C60.0909 189.94 55.624 200.285 55.0174 201.792C26.7559 272.053 36.0732 330.2 75.8199 392.594C70.9785 392.717 67.5026 392.617 62.69 392.345C59.1234 391.861 50.1558 391.025 48.1659 388.255C7.58973 331.765 20.8605 239.081 60.0203 189.179Z" fill="#D9BE6C"/>
<path d="M306.942 190.408C307.034 190.469 307.126 190.529 307.218 190.59C332.721 221.3 346.687 276.996 343.213 314.828C340.714 342.045 331.452 370.464 318.738 389.484C315.754 390.383 311.637 391.085 308.494 391.709C301.777 392.661 297.761 392.606 290.957 392.549C334.692 322.062 340.047 267.099 306.942 190.408Z" fill="#D9BE6C"/>
<path d="M90.0977 201.562L90.922 201.886C91.2317 203.735 87.5023 209.324 86.3447 211.36C79.0915 224.322 73.5012 238.15 69.7065 252.513C56.3174 301.746 62.8653 345.884 87.9731 389.792C85.2292 390.881 83.9113 391.436 80.9512 391.995C77.9278 390.554 78.3449 390.088 76.3072 386.846C62.4199 366.893 42.3496 323.388 44.5246 298.56C46.867 271.822 69.3324 218.492 90.0977 201.562Z" fill="#D9BE6C"/>
<path d="M275.465 200.965C278.981 202.919 283.813 209.162 286.334 212.477C302.018 233.301 313.216 257.155 319.22 282.531C323.728 301.38 323.757 308.717 318.38 327.363C312.071 349.238 303.715 365.437 292.005 384.552L287.057 392.621L278.984 390.014C284.013 380.362 290.01 369.287 293.627 358.93C308.195 317.223 306.954 278.869 292.358 237.423C288.716 227.083 276.897 206.18 275.52 201.171L275.465 200.965Z" fill="#D9BE6C"/>
<path d="M1570.56 119.174C1594.7 118.191 1602.29 130.027 1603.85 152.838C1594.78 153.042 1567.15 151.813 1560.16 153.402C1559.2 155.816 1560.11 159.386 1561.22 161.682C1568.24 176.114 1585.12 173.791 1596.57 169.001L1602.82 164.747L1602.51 177.936C1544.14 206.943 1527.3 131.76 1570.56 119.174ZM1559.63 145.381L1579.76 145.692C1584.04 145.521 1588.82 146.223 1591.34 143.789C1593.61 135.128 1580.31 129.542 1572.33 130.142C1563.75 133.472 1561.7 136.459 1559.63 145.381Z" fill="#F68221"/>
<path d="M165.317 177.377C170.945 172.918 176.625 168.525 182.355 164.199C185.833 166.794 196.918 174.751 199.31 177.426L199.708 177.862C206.044 182.388 211.4 186.828 217.402 191.807C223.428 196.455 229.391 201.184 235.289 205.992C224.672 206.03 211.047 206.453 200.669 205.998L200.001 205.939C190.406 206.49 174.299 206.232 164.58 205.944L163.944 206.021C153.049 206.45 139.383 206.058 128.273 206.053C134.395 201.399 140.474 196.689 146.508 191.923C152.592 187.102 158.56 182.323 164.866 177.784L165.317 177.377Z" fill="#F6A81D"/>
<path d="M217.402 191.807C223.428 196.455 229.391 201.184 235.289 205.992C224.672 206.03 211.047 206.453 200.669 205.999C206.276 201.303 211.854 196.572 217.402 191.807Z" fill="#026536"/>
<path d="M182.287 191.914C188.33 196.955 193.649 201.313 200.001 205.94C190.406 206.49 174.299 206.232 164.58 205.945C170.521 201.317 176.423 196.64 182.287 191.914Z" fill="#232022"/>
<path d="M146.508 191.923C152.539 197.201 157.536 201.198 163.944 206.022C153.049 206.45 139.383 206.058 128.273 206.053C134.395 201.399 140.474 196.689 146.508 191.923Z" fill="#026536"/>
<path d="M146.508 191.923C152.592 187.102 158.56 182.323 164.866 177.785C170.353 182.702 176.056 187.249 181.78 191.879C170.024 191.721 158.265 191.735 146.508 191.923Z" fill="#026536"/>
<path d="M199.708 177.862C206.044 182.388 211.4 186.828 217.402 191.807L182.606 191.78C188.444 187.241 194.234 182.849 199.708 177.862Z" fill="#026536"/>
<path d="M165.317 177.377C170.945 172.918 176.625 168.525 182.355 164.199C185.833 166.794 196.918 174.751 199.31 177.426C196.185 178.155 169.695 177.629 165.317 177.377Z" fill="#EB362D"/>
<path d="M841.039 119.216C890.465 116.427 860.748 167.746 872.796 175.285C875.041 174.548 876.382 173.897 878.475 172.884L879.572 173.824C880.171 180.586 878.812 179.778 875.058 183.472C869.455 188.974 858.714 180.252 857.862 180.348C846.606 181.611 847.467 186.309 834.51 183.633C813.764 169.923 830.159 153.808 847.29 149.277C850.606 148.4 854.951 146.546 858.225 145.27C857.904 122.104 838.451 131.182 827.161 140.427C826.875 134.977 826.967 131.405 827.221 126.002C831.899 122.43 835.564 121.02 841.039 119.216ZM841.237 174.604C847.45 176.329 849.779 176.338 855.567 173.062C856.31 172.64 857.044 172.209 857.769 171.767C857.896 168.205 858.841 154.369 857.381 151.936C848.328 155.973 830.457 161.715 841.237 174.604Z" fill="#F68221"/>
<path d="M1278.21 120.23L1290.22 119.957C1291.2 132.434 1287.04 161.947 1295.06 171.537C1301.18 178.852 1312.7 172.007 1318.45 165.839C1318.43 150.92 1318.18 135.163 1318.91 120.339L1331.1 119.983L1331.11 137.507C1331.36 152.905 1331.32 168.306 1330.99 183.701C1327.66 183.651 1322.15 183.848 1319.12 182.903C1318.38 182.673 1318.94 178.94 1317.92 176.638C1314.3 178.975 1307.18 183.956 1303.33 184.456C1277.25 187.797 1277.2 162.758 1277.85 144.069C1278.1 136.599 1278.02 127.849 1278.21 120.23Z" fill="#F68221"/>
<path d="M1466.93 120.302L1478.8 119.979L1479.06 141.227V183.754C1474.85 183.868 1471.83 184.031 1467.62 183.374C1466.13 181.785 1466.61 179.814 1466.53 177.154C1464.52 176.365 1456.79 183.193 1453.89 183.897C1418.36 192.497 1425.45 142.622 1426.22 120.144C1429.86 120.32 1434.73 120.08 1438.47 120.002C1438.62 133.346 1437.43 147.713 1438.63 160.898C1440.25 178.522 1457.38 177.866 1466.33 165.408C1466.94 150.733 1466.35 135.418 1466.93 120.302Z" fill="#F68221"/>
<path d="M969.22 392.827C974.477 392.53 979.269 392.36 984.096 394.759C989.462 397.423 993.368 402.07 995.216 407.751C997.359 414.344 997.123 422.426 993.883 428.63C990.837 434.472 985.952 437.497 979.843 439.442C974.3 439.957 969.06 440.211 963.997 437.564C958.64 434.758 954.91 430.138 953.147 424.353C951.122 417.695 951.544 409.684 954.893 403.515C958.15 397.505 962.85 394.716 969.22 392.827ZM976.974 432.087C981.227 430.306 983.952 428.166 985.724 423.794C987.681 418.953 987.833 413.358 985.724 408.533C984.399 405.522 982.028 402.473 978.898 401.238C976.721 400.381 973.726 400.258 971.422 400.392C966.925 402.462 964.132 404.733 962.369 409.483C960.673 414.065 960.656 419.332 962.757 423.795C964.208 426.882 966.824 430.159 970.165 431.274C972.232 431.965 974.797 431.961 976.974 432.087Z" fill="#232022"/>
<path d="M819.671 392.891C824.489 392.512 829.34 392.28 833.89 394.195C839.298 396.409 843.577 400.726 845.737 406.156C848.353 412.588 848.429 420.457 845.678 426.86C842.936 433.254 838.347 436.638 832.072 439.179C826.449 439.999 820.97 440.343 815.708 437.87C810.46 435.402 806.592 431.063 804.648 425.604C802.285 418.968 802.416 410.747 805.535 404.371C808.558 398.193 813.353 395.068 819.671 392.891ZM826.388 432.243C830.606 431.113 833.497 429.759 835.758 425.815C838.312 421.359 838.91 415.661 837.511 410.735C836.498 407.168 834.381 403.683 831.079 401.832C828.694 400.495 825.841 400.273 823.164 400.268C818.776 401.899 816.02 403.738 814.009 408.095C811.874 412.686 811.647 417.937 813.379 422.694C814.652 426.131 817.019 429.481 820.449 431.005C822.27 431.814 824.423 432.015 826.388 432.243Z" fill="#232022"/>
<path d="M268.512 105.82C274.913 108.267 280.324 117.557 282.473 124.039C287.212 138.342 268.18 132.119 262.429 141.013C259.74 145.171 255.152 146.44 250.612 147.862L247.921 154.9C238.431 162.351 236.379 157.456 233.78 169.136C232.89 173.137 214.416 176.251 210.062 176.168C204.801 176.066 204.136 176.942 199.492 172.945C198.486 172.153 197.665 171.214 196.786 170.282C195.952 165.983 200.417 155.581 200.761 147.138C202.191 151.574 204.008 158.92 206.591 162.35C212.668 165.908 219.971 159.834 224.896 156.35C241.291 144.752 254.193 128.737 264.416 111.594C265.588 109.629 267.111 107.631 268.512 105.82Z" fill="#D9BE6C"/>
<path d="M638.409 393.311C647.687 393.161 660.72 391.53 669.114 395.804C671.432 396.984 673.504 398.891 674.248 401.456C675.779 406.735 672.224 410.819 669.805 415.167C671.463 417.392 674.072 419.002 675.509 421.256C677.477 424.344 676.255 428.487 675.454 431.756C674.753 432.836 674.001 433.939 673.088 434.856C666.087 441.895 647.905 439.205 638.411 439.087L638.409 393.311ZM647.659 431.426C653.462 431.473 660.754 432.376 666.106 429.825C666.853 427.344 667.287 425.619 666.653 423.008C664.788 420.68 663.155 419.633 660.127 419.317C656.026 418.888 651.779 418.995 647.655 418.959L647.659 431.426ZM647.621 411.614C653.086 411.59 659.026 412.037 664.34 410.625C665.057 408.179 665.656 406.384 664.822 403.85C663.033 401.917 661.647 401.054 658.913 400.945C655.179 400.796 651.371 400.936 647.629 400.951L647.621 411.614Z" fill="#232022"/>
<path d="M479.303 119.178C488.97 118.459 494.193 120.243 502.814 123.69C503.157 127.751 503.213 132.734 503.372 136.877C497.704 133.442 483.185 125.826 477.71 133.112C476.198 138.835 481.835 143.011 486.431 144.879C509.523 154.266 517.096 180.025 485.755 184.912C476.304 184.781 471.556 183.22 463.619 178.866C463.588 174.327 463.315 169.758 463.087 165.222C470.561 170.464 486.292 178.196 493.988 169.856C494.375 160.262 467.205 152.238 464.695 139.325C462.311 127.067 468.718 122.171 479.303 119.178Z" fill="#F68221"/>
<path d="M1008.57 119.195C1018.98 118.642 1022.88 119.781 1032.24 124.008L1032.38 137.006C1024.9 132.485 1016.77 127.608 1008.07 131.725C1006.18 134.024 1006.62 132.979 1006.29 135.97C1010.06 146.498 1048.48 156.017 1032.36 176.129C1027.03 182.783 1023.23 183.908 1014.91 184.797C1005.95 184.615 1000.3 183.805 992.879 178.76L992.752 165.652C999.95 170.434 1015.64 178.792 1022.54 169.275C1022.94 159.923 995.815 151.91 993.588 139.088C991.411 126.585 997.815 122.061 1008.57 119.195Z" fill="#F68221"/>
<path d="M461.195 254.317C469.432 254.173 484.616 252.901 491.028 257.854C502.149 266.442 500.824 284.533 493.36 294.904C484.567 301.77 472.262 300.139 461.191 299.961L461.195 254.317ZM467.39 294.743C475.629 294.855 483.494 296.109 489.835 290.536C494.632 279.163 495.647 267.962 484.626 260.125L467.262 259.767L467.39 294.743Z" fill="#232022"/>
<path d="M1237.97 119.234C1241.59 118.999 1245.23 118.977 1248.85 119.173C1262.34 119.851 1263 125.403 1262.25 136.804L1262.04 136.687C1254.87 132.737 1246.98 129.404 1238.71 131.855C1234.26 133.187 1230.53 136.261 1228.37 140.38C1222.84 150.709 1225.58 165.19 1236.31 170.849C1243.07 174.408 1250.9 173.057 1257.85 170.9C1260.62 169.704 1260.28 169.393 1263.11 169.698C1264.68 172.677 1263.68 177.815 1263.43 181.651L1261.73 182.116C1250.31 185.188 1238.33 186.631 1227.6 180.359C1220.65 176.305 1215.63 169.616 1213.67 161.806C1208.53 142.151 1217.97 124.177 1237.97 119.234Z" fill="#F68221"/>
<path d="M97.6365 105.255C99.7527 106.857 103.572 113.303 105.149 115.775C117.348 134.889 139.256 162.127 163.599 164.54C162.508 168.374 160.895 172.897 159.639 176.751L149.252 175.039C145.149 174.426 140.078 173.565 136.119 172.15C132.654 170.91 134.591 167.087 131.519 163.685C124.105 155.474 120.328 159.942 116.332 148.194C104.911 144.068 108.734 143.922 100.906 137.701C99.0346 136.214 89.7644 136.363 84.0699 131.337C79.7357 123.552 92.1108 109.845 97.6365 105.255Z" fill="#D9BE6C"/>
<path d="M741.506 107.876C742.49 110.092 742.372 117.411 742.438 120.252L762.125 120.025C762.102 123.776 762.296 127.978 762.382 131.768L742.222 131.622C742.085 141.002 740.615 159.164 743.445 167.727C746.519 177.027 758.388 172.358 765.1 169.196C765.409 173.802 766.02 177.14 764.619 181.613C722.973 195.882 729.342 158.85 729.575 131.633L717.443 131.797C724.861 123.817 733.714 115.723 741.506 107.876Z" fill="#F68221"/>
<path d="M1392.41 107.837C1394.23 109.579 1393.63 117.618 1393.62 120.433C1400.14 120.04 1407.19 120.084 1413.77 120.017L1413.78 131.836C1407.32 131.564 1400.06 131.648 1393.54 131.579C1393.82 149.292 1386.57 187.011 1417.15 168.434L1417.02 181.32C1375.52 199.226 1380.98 156.52 1381.39 131.591L1368.67 131.775C1375.62 124.903 1386.52 115.015 1392.41 107.837Z" fill="#F68221"/>
<path d="M962.765 107.829C963.55 109.776 963.651 117.584 963.761 120.148C970.292 120.34 976.814 120.06 983.345 119.856C983.851 123.113 983.851 128.312 983.944 131.755L963.601 131.583C963.508 152.252 955.771 183.887 987.437 168.852C987.403 172.626 987.091 176.728 986.871 180.524C983.48 183.658 975.742 184.522 971.33 184.74C945.334 186.023 951.274 150.091 951.409 131.646L939.335 131.675C947.004 123.512 954.986 116.222 962.765 107.829Z" fill="#F68221"/>
<path d="M461.121 393.333C470.52 393.227 482.898 391.761 491.586 395.445C494.379 396.63 497.025 398.613 498.116 401.545C499.4 405.001 498.286 409.051 496.785 412.265C494.846 416.416 491.632 417.368 487.589 418.871C492.965 424.243 497.863 431.21 501.187 438.045L500.801 439.026L493.008 439.171C487.825 438.151 484.066 427.861 480.99 423.762C479.473 421.74 477.213 420.124 474.655 419.855C473.268 419.709 471.561 419.579 470.434 420.527C469.88 426.634 470.237 433.05 470.231 439.195L461.106 439.07L461.121 393.333ZM470.305 412.935C476.015 412.87 482.227 413.235 487.712 411.43C488.48 408.737 489.152 406.777 488.062 404.042C486.609 402.238 485.197 401.347 482.859 401.097C478.798 400.663 474.373 401.001 470.28 401.027L470.305 412.935Z" fill="#232022"/>
<path d="M1237.67 393.418C1245.65 393.278 1254.53 392.42 1262.41 393.577C1266.94 394.243 1270.29 395.559 1273.09 399.346C1274.78 401.64 1276.16 404.414 1275.64 407.351C1274.67 412.955 1269.16 415.945 1264.86 418.869C1264.92 422.803 1272.66 429.117 1275.26 432.232C1276.83 434.118 1277.5 435.552 1277.3 437.976C1274.61 439.626 1272.38 439.17 1269.26 439.195C1265.88 438.408 1260.03 427.429 1257.12 424.317C1254.87 421.907 1252.12 419.035 1248.62 418.911C1245.5 422.228 1246.75 434.256 1246.74 439.155C1243.84 439.201 1240.77 439.538 1238.09 438.268C1236.11 424.834 1237.71 407.399 1237.67 393.418ZM1246.81 412.925C1252.69 412.827 1258.73 412.99 1264.47 411.531C1265.06 408.728 1265.79 406.4 1264.5 403.681C1263.01 401.998 1261.37 401.156 1259.12 400.984C1255.07 400.672 1250.81 400.953 1246.75 401.042L1246.81 412.925Z" fill="#232022"/>
<path d="M1359.75 87.3633L1360.76 87.5431C1361.91 89.5807 1361.45 173.703 1361.46 183.324C1358.21 183.569 1353.73 183.515 1350.38 183.577L1349.27 182.894C1348.4 177.876 1348.76 158.621 1348.76 152.221C1348.72 130.767 1348.8 109.314 1348.99 87.8606L1359.75 87.3633Z" fill="#F68221"/>
<path d="M697.663 119.18C700.999 118.829 704.424 119.336 707.641 120.2C718.259 123.05 713.028 131.069 709.628 137.045C704.605 133.511 697.296 129.342 691.276 132.609C675.823 140.994 685.627 172.136 681.982 183.071L680.419 183.562L669.664 183.406C669.516 162.389 669.518 141.371 669.671 120.354L682.256 120.061C682.399 124.71 682.292 130.082 682.299 134.788C687.875 126.452 688.818 123.882 697.663 119.18Z" fill="#F68221"/>
<path d="M1525.29 119.138C1533.93 118.613 1537.17 120.627 1543.5 126.218C1541.39 129.854 1539.36 133.533 1537.4 137.25C1500.22 109.09 1513.48 177.502 1509.07 183.615L1497.35 183.416C1497.24 162.613 1496.86 141.083 1497.48 120.344C1501.42 120.151 1505.95 120.252 1509.95 120.244V134.945C1515.32 126.91 1516.76 123.737 1525.29 119.138Z" fill="#F68221"/>
<path d="M919.22 119.141C927.699 118.537 930.872 120.844 937.63 125.882L930.779 137.101C894.995 109.112 906.749 178.673 903.188 183.615L891.342 183.426L891.426 120.039L904.007 120.302L903.678 135.345C908.571 126.89 910.993 124.189 919.22 119.141Z" fill="#F68221"/>
<path d="M255.441 234.623C274.176 234.08 276.743 247.173 259.029 255.154C256.22 252.94 253.131 250.701 250.256 248.535C240.216 248.729 205.049 255.641 192.639 257.504C200.778 258.778 237.963 265.088 243.365 267.363L243.118 268.066C232.038 271.423 198.822 260.203 184.545 260.392C172.764 260.547 163.994 262.751 152.55 264.929C147.888 265.776 126.715 270.502 123.331 268.178L124.209 266.685C135.687 263.273 160.944 259.592 173.368 257.447C167.522 256.76 136.512 252.619 133.657 249.449C136.614 246.292 147.154 249.97 151.727 250.589C163.974 252.251 177.247 256.675 189.633 254.713C205.534 252.193 221.408 249.532 237.23 246.585C249.09 244.336 249.005 244.328 255.441 234.623Z" fill="#232022"/>
<path d="M549.823 393.307C558.878 393.211 573.499 391.225 580.834 397.319C583.182 399.268 584.687 401.941 584.954 405.006C585.341 409.454 583.492 413.815 580.619 417.142C576.972 421.366 572.835 421.476 567.603 421.81L558.851 421.977C558.835 425.913 559.528 430.901 558.977 434.677C558.631 437.043 557.948 437.569 556.17 438.9C554.168 439.039 552.128 439.363 550.28 438.409C547.791 426.079 549.689 406.457 549.823 393.307ZM558.791 414.047C563.825 414.068 569.662 414.707 574.15 412.068C574.862 409.501 575.435 407.571 574.702 404.91C572.948 402.671 571.731 401.619 568.802 401.263C565.526 400.865 562.155 400.989 558.862 401.043L558.791 414.047Z" fill="#232022"/>
<path d="M1165.51 393.387C1168.76 393.21 1172.09 393.399 1175.35 393.438L1193.52 439.073L1183.7 439.086C1182.68 435.925 1181.78 432.58 1180.1 429.701C1179.68 428.978 1178.51 428.915 1177.71 428.707L1161.32 428.776L1157.7 439.033L1147.79 439.05C1153.92 423.915 1159.82 408.692 1165.51 393.387ZM1173.49 421.137L1175.62 420.838C1176.67 417.7 1172.61 408.475 1170.98 405.246C1170.79 404.882 1170.58 404.607 1170.34 404.286C1168.78 408.352 1165.05 415.027 1165.55 419.184C1166.14 420.172 1166.24 420.746 1167.44 421.038C1169.37 421.509 1171.52 421.25 1173.49 421.137Z" fill="#232022"/>
<path d="M1360.75 393.344L1370.24 393.372C1376.57 408.503 1382.68 423.728 1388.57 439.043L1378.72 439.087C1378.2 437.621 1377.68 436.159 1377.14 434.702C1376.25 432.323 1375.75 429.807 1373.4 428.732L1356.29 428.756C1355.35 432.227 1353.89 435.658 1352.65 439.04L1343.23 439.162C1347.97 423.69 1354.89 408.459 1360.75 393.344ZM1368.4 421.181L1370.84 420.697C1371.42 417.194 1367.83 407.91 1365.66 404.838C1365.54 404.662 1365.31 404.432 1365.18 404.286C1363.68 408.399 1359.97 415.242 1360.63 419.393C1361.45 420.514 1361.62 420.962 1363.07 421.19C1364.76 421.459 1366.68 421.248 1368.4 421.181Z" fill="#232022"/>
<path d="M507.112 393.332C513.016 393.445 536.862 391.649 540.405 394.43C540.663 396.242 540.582 397.383 539.994 399.118C535.504 403.205 522.092 401.148 516.176 401.06L516.093 411.303L539.393 411.336C539.312 413.831 539.344 416.344 539.323 418.842L517.085 418.848C517.004 418.926 516.914 418.994 516.842 419.081C515.246 421.029 516.047 428.716 516.063 431.391C524.427 431.345 532.963 430.963 541.295 431.716C542.323 433.54 541.786 436.963 541.782 439.103L507.269 439.09C506.282 424.012 507.076 408.461 507.112 393.332Z" fill="#232022"/>
<path d="M921.759 392.816C925.877 392.552 930.332 392.33 934.34 393.453C937.791 394.42 941.376 396.479 943.106 399.748C944.211 401.822 944.701 403.175 944.043 405.432C943.663 405.683 943.292 405.923 942.887 406.125C935.732 409.706 933.487 401.406 928.037 399.559C925.531 399.383 922.848 400.191 920.924 401.878C919.675 402.97 919.785 403.675 919.65 405.23C922.873 411.771 935.428 411.248 941.393 415.277C943.781 416.893 945.418 419.024 945.924 421.913C946.549 425.515 945.688 430.962 943.503 433.92C940.372 438.166 935.386 439.091 930.484 439.82C926.349 439.796 922.071 439.842 918.232 438.095C914.765 436.522 911.516 432.983 910.284 429.365C909.533 427.139 909.753 426.292 910.774 424.327C919.616 419.77 919.65 431.476 925.961 432.557C928.94 433.068 932.897 431.443 935.31 429.724C937.023 428.505 937.445 428.041 937.782 426.018C935.605 421.834 927.666 419.975 923.573 418.399C918.756 416.549 913.474 414.119 911.347 409.038C910.175 406.235 910.554 403.352 911.769 400.649C913.744 396.273 917.549 394.482 921.759 392.816Z" fill="#232022"/>
<path d="M1088.95 393.285C1092.17 393.187 1094.83 392.731 1097.34 394.998C1099.26 399.122 1097.83 406.698 1097.82 411.428L1116.07 411.472L1116.06 410.684C1115.91 405.678 1114.38 397.32 1118 393.49C1120.25 393.363 1122.56 393.038 1124.68 393.978C1125.47 399.158 1126.02 436.006 1124.16 439.159C1121.91 439.26 1119.86 439.416 1117.69 438.693C1114.02 434.851 1116.01 424.1 1116.08 418.958L1097.85 418.949C1097.66 423.952 1099.23 430.483 1097.93 435.185C1097.26 437.563 1096.62 437.9 1094.6 439.024C1092.84 438.974 1090.64 439.37 1089.39 438.115C1087.02 425.247 1088.86 406.655 1088.95 393.285Z" fill="#232022"/>
<path d="M556.061 266.173C560.511 266.661 563.636 267.298 566.671 270.948C570.113 275.156 571.715 280.575 571.118 285.98C570.643 290.55 568.518 294.973 564.866 297.797C558.118 303.017 555.129 299.254 548.936 298.572C547.282 300.601 547.9 302.559 547.877 305.759C548.231 310.865 548.536 311.862 543.717 313.749L543.276 313.238L544.884 313.956C543.273 312.904 542.529 312.828 542.488 310.63C542.379 304.856 541.057 270.392 543.03 267.377C545.632 266.786 544.677 266.634 546.891 267.793L547.697 270.442C550.924 268.183 552.245 267.051 556.061 266.173ZM556.343 296.825C569.477 291.967 568.794 272.568 555.375 270.188C544.18 275.592 543.855 292.977 556.343 296.825Z" fill="#232022"/>
<path d="M1003.67 393.296C1005.45 393.227 1007.28 393.101 1009.06 393.218C1009.6 393.254 1012.15 393.416 1012.37 393.646C1015.32 396.773 1009.07 423.28 1016.26 431.238C1017.38 432.479 1018.73 433.124 1020.41 433.125C1022.66 433.125 1026.5 431.5 1028.06 429.898C1032.93 424.914 1030.52 407.295 1030.5 400.59C1030.49 398.156 1030.57 395.261 1032.38 393.435C1034.61 392.973 1036.49 393.248 1038.7 393.579C1040.44 395.712 1039.87 397.97 1039.88 400.671L1040.02 417.98C1040.06 423.993 1039.77 431.06 1035.23 435.582C1031.59 439.196 1026.29 440.063 1021.36 440.039C1016.71 440.017 1011.91 438.965 1008.55 435.524C1000.43 427.189 1003.54 404.461 1003.67 393.296Z" fill="#232022"/>
<path d="M592.179 393.316L601.317 393.212C601.394 401.124 601.018 409.041 601.146 416.955C601.213 421.052 601.381 427.185 604.62 430.193C606.365 431.815 608.697 431.995 610.996 431.868C628.165 430.919 613.545 401.733 621.364 392.898C623.468 392.623 625.688 392.731 627.431 394.206C628.975 395.512 628.531 398.16 628.586 400.037C628.683 405.438 628.751 410.84 628.792 416.241C628.83 422.703 628.944 430.583 624.007 435.489C620.365 439.109 615.096 440.02 610.146 440.004C605.36 439.988 600.557 438.99 597.095 435.452C588.717 426.888 591.999 404.431 592.179 393.316Z" fill="#232022"/>
<path d="M164.327 110.231C168.387 103.786 181.271 107.313 187.244 109.016C190.71 113.349 190.799 113.883 190.182 119.486L190.112 120.093L188.921 121.257C190.588 123.947 193.967 124.719 196.975 124.979C207.477 128.658 225.155 133.913 232.517 142.29C221.875 137.345 209.839 134.241 198.532 130.649C207.027 140.026 207.323 146.875 207.165 158.704C206.497 156.021 205.788 153.348 205.037 150.687C200.549 135.04 195.152 131.685 181.976 124.373C183.581 134.132 186.807 138.083 187.601 142.743C182.873 139.637 178.361 130.006 175.71 124.905C171.433 123.417 163.171 122.16 158.419 121.404C154.011 121.213 153.203 121.358 149.217 123.243L148.449 122.953C149.747 112.531 155.94 114.384 164.327 110.231Z" fill="#C58B12"/>
<path d="M158.419 121.404C154.011 121.213 153.203 121.358 149.217 123.243L148.449 122.953C149.747 112.532 155.94 114.384 164.327 110.231L166.082 111.713C163.988 113.172 161.539 114.494 160.626 116.806C162.822 118.833 167.165 118.518 170.477 118.685C167.401 119.579 159.425 120.616 158.419 121.404Z" fill="#BB8317"/>
<path d="M166.082 111.713C168.958 111.153 172.265 110.143 174.933 111.074C176.989 113.131 176.641 112.202 176.77 114.827C175.63 117.045 175.34 117.412 173.318 118.868C172.658 118.836 171.034 118.802 170.477 118.685C167.165 118.518 162.822 118.833 160.626 116.806C161.539 114.494 163.988 113.172 166.082 111.713Z" fill="#741805"/>
<path d="M756.465 392.841C758.922 392.67 761.855 392.487 764.274 392.926C767.957 393.594 776.421 397.66 778.42 400.83C779.506 402.553 779.269 403.258 778.849 405.104C777.243 406.88 776.963 407.259 774.681 407.871C771.371 407.344 768.433 404.504 765.697 402.646C763.506 401.159 760.616 399.703 757.899 400.287C754.989 400.913 752.838 403.168 751.32 405.612C748.556 410.063 748.196 415.594 749.363 420.612C750.305 424.661 752.581 428.806 756.235 431.001C758.274 432.226 760.687 432.642 762.994 432C765.6 431.276 767.278 429.206 768.518 426.928C769.052 425.608 769.675 424.459 770.425 423.251C773.844 422.699 776.652 424.308 779.862 425.489C779.56 426.039 779.279 426.597 778.991 427.154C776.041 432.854 772.275 437.503 765.898 439.469C761.113 440.945 755.856 440.27 751.463 437.918C746.193 435.096 742.449 430.182 740.737 424.488C738.742 417.851 738.925 409.472 742.285 403.291C745.413 397.537 750.378 394.672 756.465 392.841Z" fill="#232022"/>
<path d="M1316.93 392.801C1320.36 392.53 1324.41 392.544 1327.72 393.54C1333.99 395.426 1336.87 400.149 1339.85 405.613C1337.93 406.217 1335.96 406.92 1333.98 407.312C1330.49 408.007 1329.27 405.101 1326.62 403.297C1323.22 400.991 1320.31 399.551 1316.12 400.359C1314.68 401.102 1313.5 401.928 1312.6 403.314C1309.2 408.55 1308.55 417.213 1309.92 423.181C1310.62 426.266 1312.28 428.762 1315.04 430.42C1317.55 431.953 1320.58 432.375 1323.42 431.584C1326.13 430.85 1327.57 429.345 1328.92 426.964C1329.49 425.404 1330.01 424.336 1331.16 423.128C1333.84 422.291 1337.48 424.501 1339.97 425.613L1339.25 426.996C1336.23 432.794 1332.67 437.547 1326.16 439.546C1321.43 440.997 1316.14 440.273 1311.82 437.95C1306.45 435.072 1302.71 430.028 1301.02 424.229C1299.06 417.575 1299.3 409.234 1302.74 403.09C1305.92 397.417 1310.84 394.51 1316.93 392.801Z" fill="#232022"/>
<path d="M855.17 324.03C857.01 324.237 858.537 324.581 860.351 324.971C861.684 328.787 860.925 363.851 860.857 370.51C853.019 370.734 847.99 371.264 840.466 368.557C827.235 359.528 832.621 335.592 855.162 340.694L855.17 324.03ZM846.8 365.321C848.893 365.336 853.567 365.749 854.917 364.78C855.044 361.667 855.592 350.022 854.799 346.459C854.563 345.386 849.205 344.745 847.433 344.538C836.792 349.654 836.546 363.567 846.8 365.321Z" fill="#232022"/>
<path d="M492.508 340.359C500.099 340.113 511.356 339.402 516.283 345.791C526.932 359.601 515.896 371.349 500.983 370.733C500.115 370.092 500.404 370.29 499.042 370.376C497.093 375.512 500.897 382.789 496.413 386.238L493.757 385.789C493.458 385.456 493.099 385.056 492.679 384.588C492.817 371.456 492.619 352.924 492.508 340.359ZM511.461 363.093C518.613 349.628 511.078 346.186 498.614 345.766C498.42 351.511 497.077 361.049 500.774 365.211C504.768 366.741 508.001 365.596 511.461 363.093Z" fill="#232022"/>
<path d="M649.363 323.951C651.204 324.114 651.542 324.239 653.26 324.888C655.52 327.827 673.12 366.435 673.411 370.108L671.409 371.17C665.016 369.898 664.821 357.786 658.599 356.994C657.809 356.894 656.298 356.919 655.43 356.891C651.16 356.94 646.615 356.794 642.321 356.733C640.296 360.392 638.522 366.23 635.817 369.533C634.671 370.935 632.473 370.404 630.427 370.326C630.119 368.036 647.111 329.245 649.363 323.951ZM644.534 350.896L654.586 351.091L657.622 350.753C658.666 347.41 653.147 337.636 651.023 334.836L644.534 350.896Z" fill="#232022"/>
<path d="M536.318 340.437C544.61 338.111 553.226 342.901 555.633 351.176C558.041 359.45 553.341 368.121 545.097 370.613C539.691 372.248 533.824 370.851 529.732 366.955C525.64 363.059 523.954 357.264 525.317 351.778C526.678 346.292 530.879 341.962 536.318 340.437ZM543.072 365.257C548.448 363.891 551.704 358.426 550.349 353.043C548.994 347.66 543.54 344.392 538.158 345.738C532.763 347.087 529.486 352.563 530.845 357.96C532.203 363.358 537.682 366.627 543.072 365.257Z" fill="#232022"/>
<path d="M855.103 393.284C861.507 393.446 881.099 391.488 885.681 394.383C885.807 394.932 885.925 395.502 885.942 396.065C885.976 397.222 885.545 398.765 884.719 399.575C881.327 402.894 868.704 401.135 863.946 401.073L863.743 412.052C869.708 412.169 876.011 410.805 881.74 412.679C883.554 414.514 883.191 416.131 883.36 418.629C880.576 420.944 867.979 419.746 863.87 419.711L863.768 439.11L854.757 439.142C854.403 423.867 854.85 408.56 855.103 393.284Z" fill="#232022"/>
<path d="M1198.53 393.36C1208.1 393.28 1219.94 391.773 1229.15 393.876C1230.09 395.471 1229.76 397.304 1229.63 399.069C1225.31 402.998 1213.51 401.171 1207.82 401.086L1207.78 412.018C1212.65 412.192 1221.87 410.259 1225.96 412.949C1227.27 413.814 1227.37 416.126 1227.72 417.621L1226.24 419.279C1220.39 420.421 1213.82 419.819 1207.85 419.734L1207.82 439.071L1198.81 439.02C1198.86 423.8 1198.77 408.578 1198.53 393.36Z" fill="#232022"/>
<path d="M590.483 266.207C612.067 268.043 602.137 281.09 605.027 296.69C605.249 297.887 605.565 299.039 605.061 300.141C600.047 302.052 600.56 296.916 599.046 297.156C589 298.745 581.367 306.611 575.582 292.42C577.349 277.636 594.409 283.126 598.668 277.69C598.758 274.022 597.943 272.751 595.074 270.901C587.424 269.856 584.148 275.278 577.551 276.875L577.104 275.845C580.432 267.797 582.093 267.616 590.483 266.207ZM584.106 296.257C590.738 296.597 597.982 295.302 599.655 287.566C599.308 286.481 598.812 284.52 597.806 283.986C591.711 285.051 575.478 286.156 584.106 296.257Z" fill="#232022"/>
<path d="M666.632 266.062C670.322 266.493 676.732 270.476 677.208 270.367C682.422 269.169 690.117 262.114 694.556 269.094C696.851 272.703 697.178 278.148 697.274 282.325C697.139 287.169 698.071 293.553 697.025 298.164C695.181 300.228 696.107 299.758 693.251 299.927C688.335 294.684 694.547 281.174 690.138 273.17C675.707 261.648 677.216 289.704 677.307 295.753C677.387 296.999 677.109 297.856 676.834 299.067L674.186 300.614L672.796 300.006C669.658 293.687 676.187 276.146 667.796 270.592C653.608 269.36 658.839 289.423 658.103 297.138C657.911 299.14 656.356 299.983 654.876 300.99C650.042 299.394 651.655 272.572 653.193 267.601L654.372 266.98L657.371 269.963L659.438 269.751C662.19 267.124 662.917 266.898 666.632 266.062Z" fill="#232022"/>
<path d="M519.072 266.253C526.71 267.069 527.472 267.44 533.107 272.67C534.312 275.865 535.382 281.521 536.152 285.027C531.412 284.969 514.49 284.303 511.315 285.598C509.417 292.168 520.908 304.069 529.836 289.484C531.979 289.803 533.018 289.789 534.642 291.184L534.34 293.143C514.11 320.284 487.84 273.275 519.072 266.253ZM525.492 280.454L528.584 280.135C531.448 273.66 522.134 270.527 516.611 270.993C514.368 273.115 512.645 274.433 511.487 277.317L511.844 279.221C515.34 281.25 521.191 280.536 525.492 280.454Z" fill="#232022"/>
<path d="M718.139 266.159C719.603 266.332 721.06 266.561 722.506 266.847C728.075 267.986 735.749 275.782 734.194 281.876C731.825 291.166 711.896 278.816 709.686 287.953C712.788 298.922 722.249 298.971 728.377 290.161C730.207 289.465 731.128 289.914 732.589 290.779L732.493 292.815C725.908 306.035 711.916 302.496 704.366 291.409C703.551 284.989 703.673 282.435 704.357 276.214C704.667 275.694 704.985 275.178 705.309 274.667C709.094 268.722 711.482 267.652 718.139 266.159ZM725.461 280.455L727.758 280.098C729.923 273.416 720.91 270.616 715.348 271.068C712.93 273.244 711.591 274.211 710.282 277.219L710.565 279.042C714.055 281.386 721.027 280.58 725.461 280.455Z" fill="#232022"/>
<path d="M906.445 324.347C911.955 323.98 922.763 324.118 926.602 328.562C927.26 330.832 927.252 331.201 926.788 333.533C920.418 333.502 913.735 329.756 906.538 330.515C899.687 331.236 891.941 342.024 892.945 348.467C895.265 363.285 905.298 365.973 918.671 364.139C921.666 362.754 924.425 360.803 927.438 362.241C929.868 372.409 905.762 371.994 898.084 367.74C892.895 364.874 889.106 360.014 887.596 354.286C885.849 348.101 886.668 341.475 889.857 335.9C893.797 329.145 899.138 326.227 906.445 324.347Z" fill="#232022"/>
<path d="M1082.6 393.331L1082.43 401.078L1069.16 401.1C1068.79 408.282 1069.2 415.639 1069.28 422.836C1069.21 426.699 1069.63 430.813 1069.26 434.622C1069.04 436.808 1068.21 437.595 1066.59 438.851C1064.6 438.984 1062.56 439.295 1060.7 438.389C1058.25 427.134 1060.06 412.657 1060.17 401.044C1056.36 401 1051.45 402.225 1047.95 400.552C1046.21 398.076 1046.69 396.239 1046.69 393.272C1058.63 393.64 1070.66 393.347 1082.6 393.331Z" fill="#232022"/>
<path d="M684.835 393.508L693.808 393.443L693.785 431.42C700.768 431.555 708.836 429.671 715.435 432.167C717.295 434.527 716.757 436.207 716.73 439.14L684.873 439.106C684.622 423.92 684.835 408.698 684.835 393.508Z" fill="#232022"/>
<path d="M640.421 255.753C641.75 257.756 641.121 262.849 641.018 265.692C642.71 267.821 642.707 266.802 646.345 267.341L646.927 269.345C645.8 273.015 644.168 269.738 641.256 272.153C640.422 278.41 641.128 287.038 641.736 293.395C641.937 295.502 646.439 294.887 648.077 298.538L646.485 300.11C630.056 303.641 637.169 284.269 635.639 275.651C634.895 271.467 633.112 272.628 631.464 268.829C630.483 270.69 630.167 271 628.697 272.519L625.073 272.362L623.248 272.385C614.353 278.33 622.08 293.76 617.639 299.959L614.233 299.901L613.269 298.595C613.144 291.677 612.484 272.919 613.901 267.371C615.959 266.789 616.378 267.034 618.381 267.912L618.067 270.093L618.603 270.793C628.973 261.31 628.293 269.897 635.026 266.615C635.897 259.965 634.935 259.268 640.421 255.753Z" fill="#232022"/>
<path d="M145.129 9.89746C152.15 17.1235 164.809 30.933 171.919 37.1295C169.978 44.2038 167.443 50.6939 165.455 57.5481C164.193 52.7363 163.928 53.596 159.643 50.3069L151.171 46.0861C149.677 37.4518 148.267 28.8034 146.942 20.1419C146.281 16.7372 145.677 13.322 145.129 9.89746Z" fill="#F68221"/>
<path d="M146.942 20.1421C152.047 21.8909 165.033 47.65 165.153 51.8043C163.361 51.3303 161.398 50.8555 159.643 50.3071L151.171 46.0863C149.677 37.4521 148.267 28.8037 146.942 20.1421Z" fill="#F6A81D"/>
<path d="M183.188 127.38C187.464 129.901 191.094 131.889 194.877 135.178C196.189 139.871 197.235 143.885 196.916 148.819C196.555 157.281 195.992 159.585 192.482 167.159L182.307 158.894L162.678 174.531C170.627 157.717 177.226 157.459 179.129 137.207C184.752 143.378 185.668 144.854 193.778 147.266L194.222 145.33C187.56 137.005 186.727 138.592 183.188 127.38Z" fill="#9F5C09"/>
<path d="M1073.92 339.556C1074.46 339.539 1075 339.557 1075.54 339.609C1082.39 340.24 1083.72 341.747 1088.05 346.937C1088.61 349.591 1089.04 353.004 1089.46 355.748C1083.87 355.615 1070.09 353.812 1067.58 359.695C1069.65 364.435 1078.5 365.524 1083.23 364.427C1085.96 363.251 1086.14 362.588 1088.55 363.362L1088.9 365.155C1087.54 367.716 1085.6 368.947 1082.92 369.962C1078.91 371.526 1074.42 371.394 1070.5 369.594C1058.4 363.977 1059.27 344.664 1073.92 339.556ZM1075.57 352.299C1079.49 352.256 1079.73 352.885 1082.54 350.982C1083.21 346.61 1079.4 345.141 1075.63 344.404C1072.93 345.433 1069.16 347.078 1068.56 350.236L1069.49 351.852C1071.99 352.483 1073.07 352.38 1075.57 352.299Z" fill="#232022"/>
<path d="M469.677 324.397C476.693 323.954 477.745 323.64 483.956 326.744C485.195 328.81 484.708 329.505 484.577 332.186C478.85 331.579 470.275 327.776 467.201 333.854C468.246 342.128 483.698 346.97 486.516 356.27C489.159 364.992 482.62 368.831 475.761 371.087C469.976 370.907 467.357 370.245 462.311 367.429C460.684 364.768 461.191 364.756 461.205 361.367C463.931 359.519 472.903 369.807 481.427 362.057C483.996 351.695 443.402 340.063 469.677 324.397Z" fill="#232022"/>
<path d="M778.932 339.53C794.141 339.892 791.248 350.443 791.934 361.84C792.155 365.508 792.573 365.574 795.731 366.159C795.843 368.298 796.125 367.633 794.894 369.089C792.585 369.617 776.356 370.714 773.831 370.293C761.705 357.796 784.669 355.635 785.829 348.541C780.91 341.575 776.994 347.601 771.333 348.34C770.848 345.978 770.859 345.684 771.617 343.397C773.412 340.979 776.05 340.474 778.932 339.53ZM778.151 367.038C783.393 366.154 787.105 365.366 786.159 358.274C786.032 357.324 785.848 356.246 785.233 355.539C782.253 356.799 779.085 357.756 777.163 360.282C776.478 362.959 776.507 364.53 778.151 367.038Z" fill="#232022"/>
<path d="M723.241 393.351C726.111 393.223 729.036 392.906 731.835 393.689C732.769 399.39 733.589 435.702 731.162 439.165C728.719 439.219 726.526 439.219 724.128 438.63C721.248 434.585 723.165 400.454 723.241 393.351Z" fill="#232022"/>
<path d="M1292.13 393.196C1293.72 398.402 1292.82 431.296 1292.17 438.22C1289.78 439.63 1286.07 439.107 1283.35 439.076C1284.2 424.321 1281.78 408.982 1283.63 394.326C1286.06 392.744 1289.34 393.182 1292.13 393.196Z" fill="#232022"/>
<path d="M755.681 266.193C766.61 267.356 768.312 272.681 767.979 283.147C767.861 286.865 768.354 296.789 766.421 299.274C764.165 300.45 765.068 300.386 762.825 299.734C759.378 292.481 770.097 268.489 751.253 271.577C750.687 272.035 750.139 272.515 749.607 273.013C744.508 277.839 746.563 291.606 746.365 299.315C744.429 300.39 744.567 299.976 741.932 299.733C740.451 297.097 740.579 268.685 742.185 266.724C745.1 267.183 743.977 268.064 746.841 270.113C750.541 267.803 751.465 267.215 755.681 266.193Z" fill="#232022"/>
<path d="M935.15 340.197L940.457 340.581C943.005 345.297 937.36 363.641 946.321 367.279C961.584 364.147 949.662 348.133 956.252 339.378L957.948 339.531C960.546 342.816 959.905 341.605 960.116 345.995C960.091 351.661 961.804 367.942 958.235 371.345C954.159 370.014 956.691 366.003 951.527 368.851C931.488 379.912 934.981 348.756 935.15 340.197Z" fill="#232022"/>
<path d="M813.963 339.455C828.586 340.762 829.302 358.345 824.474 369.406C823.979 370.542 822.221 370.511 821.133 370.527C817.878 362.381 826.756 345.334 812.213 344.386C801.554 351.148 809.832 366.021 805.717 371.193L804.243 371.241C799.61 367.48 799.666 344.755 802.521 340.79C804.905 339.687 803.93 339.848 806.618 340.375L806.819 343.012L808.004 343.143C810.155 341.498 811.63 340.724 813.963 339.455Z" fill="#232022"/>
<path d="M1005.48 340.283C1007.17 340.303 1009.04 340.423 1010.75 340.497C1013.61 346.062 1007.6 360.713 1015.07 366.526C1030.51 368.344 1022.38 346.05 1025.27 340.423C1028.08 340.319 1028.28 339.882 1030.52 341.136L1030.56 348.317C1030.64 355.145 1030.88 362.81 1030.33 369.54C1026.82 373.421 1024.51 367.465 1023.52 367.938C1005.51 376.523 1005.03 365.367 1005.48 340.283Z" fill="#232022"/>
<path d="M776.595 165.38C796.255 164.466 791.205 189.6 776.336 198.673C775.65 198.932 774.465 199.022 773.69 199.123C773.036 197.198 778.647 187.445 777.948 185.383C774.992 176.656 764.124 176.317 776.595 165.38Z" fill="#F68221"/>
<path d="M187.245 109.016C197.536 109.214 204.925 107.541 214.807 110.583C211.51 110.501 201.758 110.166 199.552 112.266C202.891 112.316 205.346 112.351 208.672 112.025L223.177 114.063C213.566 114.224 206.931 114.798 197.396 116.359C209.078 117.307 216.415 117.365 227.376 122.317C216.394 120.347 211.393 120.221 200.221 120.881C214.45 123.7 217.82 124.46 230.366 131.789C222.194 128.864 205.526 125.109 196.975 124.979C193.967 124.719 190.588 123.947 188.921 121.256L190.112 120.093L190.182 119.486C190.799 113.883 190.71 113.349 187.245 109.016Z" fill="#741805"/>
<path d="M182.363 210.922C184.415 213.141 189.516 236.288 190.885 241.329L183.303 252.952C180.689 250.107 176.727 244.696 174.225 241.498C176.125 232.624 179.919 219.953 182.363 210.922Z" fill="#026536"/>
<path d="M734.588 339.496C739.274 339.572 743.04 339.713 745.853 343.593C745.78 345.756 746.171 345.841 745.016 346.977C741.107 345.834 736.958 343.696 733.681 346.399C734.567 351.167 746.016 355.351 747.678 363.434C746.481 369.139 741.992 370.261 736.678 371.173C733.112 370.523 731.502 370.349 728.271 368.68C726.526 366.227 727.039 366.598 727.12 363.228C729.924 361.666 736.536 368.536 740.954 363.95C739.033 357.122 715.436 348.129 734.588 339.496Z" fill="#232022"/>
<path d="M119.203 213.819C126.828 216.208 147.479 225.672 155.75 229.316C158.751 234.767 162.394 242.131 166.868 246.187C154.199 242.401 127.93 222.893 119.203 213.819Z" fill="#026536"/>
<path d="M82.7841 240.627C94.2025 239.762 105.719 239.96 117.158 240.124C121.528 243.783 124.462 244.493 129.739 246.224C127.222 246.548 124.685 246.397 123.053 247.802C125.057 248.802 125.951 249.172 128.093 249.821L129.118 250.309C107.257 252.784 103.22 249.115 82.7841 240.627Z" fill="#232022"/>
<path d="M596.887 335.091C597.947 336.231 597.742 337.634 597.928 339.468C600.706 341.612 604.619 338.941 607.513 341.117C607.651 344.108 608.055 343.487 606.709 345.585L597.904 345.507C597.847 350.39 597.115 358.38 598.998 362.61C601.46 368.143 604.959 363.361 608.872 364.819L609.957 367.846C607.863 370.067 600.711 372.748 597.768 370.94C589.442 365.821 593.599 352.246 591.522 345.805C590.143 345.588 588.761 345.386 587.378 345.201C587.863 343.578 595.175 336.778 596.887 335.091Z" fill="#232022"/>
<path d="M243.993 214.487L244.739 214.964C242.569 217.262 236.838 221.24 234.079 223.481C220.381 234.61 214.751 239.025 198.78 246.315L198.279 245.976C202.968 242.314 205.966 235.402 208.832 230.039C216.791 225.527 234.894 218.356 243.993 214.487Z" fill="#026536"/>
<path d="M782.315 255.858C784.553 259.752 781.914 263.515 783.87 266.945C785.891 266.939 786.347 266.929 788.289 267.455L788.622 269.307C786.682 273.631 785.632 270.01 784.29 272.578C782.314 277.411 782.603 284.917 783.323 290.015C783.929 294.319 786.412 295.383 789.43 297.523C789.191 299.86 789.384 299.097 787.342 301.007C769.955 299.271 780.607 281.965 777.079 271.463L773.591 270.694C772.835 268.819 773.011 269.454 773.763 267.169L776.886 266.617C778.455 263.469 777.944 263.947 777.681 260.085C779.117 257.123 779.119 257.774 782.315 255.858Z" fill="#232022"/>
<path d="M988.618 335.006L989.479 335.461C989.715 337.18 989.698 337.758 989.614 339.482C991.141 340.568 996.22 340.201 999.047 340.505C999.755 342.426 999.621 342.726 998.971 344.694C996.946 346.292 992.499 345.68 989.723 345.563C989.588 350.019 988.964 358.729 990.297 362.834C991.816 367.523 996.904 363.109 1001.25 365.07C1000.89 367.164 1000.84 367.784 999.747 369.583C977.945 378.209 986.196 350.682 983.176 345.71L979.328 345.328C979.716 343.554 986.787 336.891 988.618 335.006Z" fill="#232022"/>
<path d="M711.795 335.156C712.497 335.894 712.783 338.692 712.95 339.855C717.663 341.622 717.179 339.143 721.429 340.229C722.858 342.606 722.434 341.91 722.489 345.075C720.583 345.938 715.054 345.558 712.66 345.507C712.6 350.369 711.819 358.565 713.88 362.692C716.392 367.726 719.379 363.634 723.526 364.835L724.574 367.901C722.69 370.039 717.18 371.776 714.355 371.801C704.3 368.597 708.264 352.627 706.3 345.846C706.211 345.538 702.853 345.364 702.148 345.303C702.344 343.6 710.011 336.851 711.795 335.156Z" fill="#232022"/>
<path d="M149.744 210.625C156.761 214.073 166.863 221.992 173.434 226.911L169.861 240.564L174.318 246.743C174.506 246.929 174.541 247.405 174.618 247.753C161.797 236.512 158.369 226.053 149.744 210.625Z" fill="#026536"/>
<path d="M968.512 324.972C971.22 324.946 971.794 324.516 973.962 325.772C975.042 336.572 974.291 358.811 974.215 370.458C971.886 370.559 970.823 370.736 968.655 369.924C967.642 359.278 968.436 336.499 968.512 324.972Z" fill="#232022"/>
<path d="M692.485 339.194C695.588 340.014 696.315 340.385 699.078 341.893C700.077 344.248 699.966 343.297 698.973 346.075C695.998 347.577 694.253 345.82 689.461 345.854C679.799 351.188 687.743 364.02 683.262 371.245C680.527 370.658 680.271 371.05 678.488 369.265C678.464 360.03 678.26 350.149 678.792 340.982C681.299 340.121 681.824 340.164 684.444 340.607C684.488 342.211 684.35 344.68 685.216 345.907C688.004 342.499 688.758 341.477 692.485 339.194Z" fill="#232022"/>
<path d="M213.718 211.167L214.32 211.724C207.752 224.111 202.264 236.848 191.995 246.184L191.206 245.674C192.215 244.508 193.31 242.994 194.264 241.745C195.113 237.32 192.725 231.377 191.346 226.838L213.718 211.167Z" fill="#026536"/>
<path d="M1052.89 339.211C1056.42 340.125 1060.32 340.937 1060.55 344.969C1052.31 353.887 1044.67 330.628 1044.95 370.846L1039.88 370.449C1038.58 368.144 1039.01 344.989 1039.41 340.932C1041.23 340.053 1042.37 340.398 1044.41 340.673C1045.18 341.845 1045.3 343.547 1045.54 344.996C1046.75 345.168 1050.55 340.964 1052.89 339.211Z" fill="#232022"/>
<path d="M221.01 410.356C221.469 413.583 221.468 415.319 223.745 417.719C225.911 418.51 228.419 418.455 230.142 416.656C231.449 415.829 232.939 415.305 234.38 414.722C235.043 421.929 199.535 431.144 192.686 432.078C204.566 424.547 211.296 420.425 221.01 410.356Z" fill="#96733E"/>
<path d="M145.184 410.59C148.135 412.921 150.61 415.821 153.544 418.209C160.068 423.516 167.143 427.942 174.288 432.343C169.051 431.61 163.98 430.462 158.84 429.245C151.07 426.466 136.453 421.801 131.296 415.299C135.428 414.51 138.396 419.227 142.952 417.665C144.811 415.694 144.867 413.152 145.184 410.59Z" fill="#96733E"/>
<path d="M571.208 348.184C568.603 355.451 572.17 369.361 565.231 370.623L564.432 369.913C563.806 365.487 563.106 343.475 565.139 340.264L568.357 340.295L568.877 341.331C568.956 344.063 568.354 346.825 571.208 348.184Z" fill="#232022"/>
<path d="M220.202 210.303C226.492 210.042 236.427 209.741 242.419 210.625L235.695 213.873C230.44 215.178 217.811 221.305 212.402 223.845C214.939 219.294 217.539 214.78 220.202 210.303Z" fill="#C58B12"/>
<path d="M121.575 210.308L144.973 210.146L152.027 223.291C141.865 219.021 131.859 214.261 121.575 210.308Z" fill="#C58B12"/>
<path d="M156.976 210.255L178.431 210.061L175.152 221.533L175.04 222.053L174.058 222.507C168.191 218.819 162.534 214.427 156.976 210.255Z" fill="#C58B12"/>
<path d="M77.1879 307.937C79.2959 310.008 79.9241 315.056 80.7539 318.407C87.2652 323.782 94.0582 325.217 92.3193 334.5C80.7894 338.02 77.4955 315.633 77.1879 307.937Z" fill="#96733E"/>
<path d="M287.45 324.76C289.731 329.883 283.933 344.794 280.055 348.704C277.338 351.444 276.215 351.576 272.659 351.813C269.554 342.555 277.331 340.302 284.418 334.948L287.45 324.76Z" fill="#96733E"/>
<path d="M287.936 307.998L288.917 309.459C288.991 317.614 284.69 333.519 275.714 335.755C269.869 327.106 278.267 323.858 285.055 318.932C285.856 315.394 286.983 311.533 287.936 307.998Z" fill="#96733E"/>
<path d="M79.6464 288.422C80.811 290.397 80.9932 296.719 81.1962 299.354C86.7936 306.048 93.6178 307.894 90.2124 317.206L86.953 317.396C78.8854 314.051 78.4049 295.765 79.6464 288.422Z" fill="#96733E"/>
<path d="M82.5891 345.446L82.568 345.245C81.8924 339.406 76.7434 329.869 78.5112 325.549C80.7836 329.511 80.5994 333.532 82.5267 336.148C87.4263 339.239 94.95 342.971 94.1046 349.852C89.8192 353.469 85.5768 348.492 82.5891 345.446Z" fill="#96733E"/>
<path d="M187.077 210.159L208.29 210.206L200.859 215.556L190.308 223.13L187.077 210.159Z" fill="#C58B12"/>
<path d="M286.572 302.425C285.685 307.376 283.809 318.913 276.387 316.492L275.619 314.555C276.069 307.428 279.622 305.073 284.571 299.723L286.572 302.425Z" fill="#96733E"/>
<path d="M284.008 345.006L284.597 346.765C282.88 354.799 274.985 369.88 265.523 370.192C263.719 363.401 275.439 359.241 279.162 353.869C281.193 350.938 282.511 348.186 284.008 345.006Z" fill="#96733E"/>
<path d="M262.961 375.683C272.606 373.109 272.302 368.661 278.838 365.655C276.618 371.34 265.156 385.359 257.921 382.3L257.453 380.253C259.059 377.296 258.788 378.044 261.988 376.207L262.961 375.683Z" fill="#96733E"/>
<path d="M94.7231 380.559C98.4744 381.215 101.634 386.991 105.054 388.534C113.557 392.369 117.678 388.522 120.277 398.757C119.017 398.797 117.757 398.708 116.514 398.493C108.08 397.111 99.5223 387.285 94.7231 380.559Z" fill="#917745"/>
<path d="M99.4759 370.799C91.8872 368.138 82.0142 353.722 81.403 346.193L82.5891 345.445C85.7076 357.958 95.4369 358.083 101.058 367.611C101.298 368.016 99.8953 370.081 99.4759 370.799Z" fill="#917745"/>
<path d="M91.9007 372.399C90.3136 370.318 87.9461 367.526 87.8575 365.077C90.5794 366.346 92.2155 369.511 93.935 372.105C97.3092 373.56 100.672 375.04 104.025 376.545C106.643 377.042 107.426 377.881 108.617 379.903L108.168 381.519C101.17 385.365 95.517 377.288 91.9007 372.399Z" fill="#917745"/>
<path d="M270.325 379.82C270.286 387.203 254.666 397.882 247.241 399.183C245.578 393.359 250.243 392.193 254.834 390.407C262.973 387.24 264.656 386.26 270.325 379.82Z" fill="#96733E"/>
<path d="M106.404 396.718C109.485 396.951 112.313 400.438 115.132 401.701C119.907 403.838 125.409 404.542 130.117 406.796C132.641 408.004 132.78 409.438 133.562 411.852C132.077 412.053 130.534 412.132 129.039 412.032C121.002 411.491 111.537 402.501 106.404 396.718Z" fill="#96733E"/>
<path d="M257.61 396.833L258.202 397.484C258.087 398.032 257.92 398.58 257.551 399.014C252.398 405.086 242.38 411.711 234.506 412.609C234.199 412.142 233.809 411.567 233.69 411.008C233.522 410.211 233.549 408.899 233.999 408.238C236.507 404.557 246.251 403.954 250.391 403.112L257.61 396.833Z" fill="#96733E"/>
<path d="M104.494 330.677L105.299 331.344C108.151 336.868 104.224 355.976 97.5074 360.314C94.4624 353.907 104.03 342.737 104.494 330.677Z" fill="#96733E"/>
<path d="M106.996 282.563C111.04 286.231 100.507 306.084 94.0067 309.526L92.882 307.68C93.109 302.092 100.926 296.294 103.781 291.177C105.241 288.56 106.131 285.421 106.996 282.563Z" fill="#96733E"/>
<path d="M105.044 298.482C107.959 303.242 100.157 323.28 92.5057 325.85C91.3861 318.851 101.968 309.554 105.044 298.482Z" fill="#96733E"/>
<path d="M259.404 298.502L260.931 299.651C264.536 308.645 274.401 320.937 274.861 324.472C264.999 326.611 261.346 305.579 259.404 298.502Z" fill="#917745"/>
<path d="M104.091 312.774C107.324 317.933 102.039 338.476 95.1002 342.009C92.8559 335.378 102.351 324.213 104.091 312.774Z" fill="#96733E"/>
<path d="M260.084 330.565C261.172 331.995 262.277 337.717 263.001 340.121C264.876 346.347 270.378 353.235 269.801 359.661C260.089 358.298 260.479 338.501 260.084 330.565Z" fill="#96733E"/>
<path d="M257.885 284.19L259.239 283.913C259.765 285.454 261.657 291.17 262.415 292.309C266.266 298.096 273.545 301.587 273.396 308.93C264.88 309.236 259.38 291.055 257.885 284.19Z" fill="#917745"/>
<path d="M260.913 312.793C262.623 314.907 263.054 319.22 264.143 322.323C266.335 328.568 272.431 335.092 272.44 341.223C270.806 341.118 269.245 341.333 268.169 340.102C262.956 334.134 261.051 320.202 260.913 312.793Z" fill="#96733E"/>
<path d="M261.988 376.207C259.931 375.864 259.383 376.163 257.86 374.445C255.274 371.529 255.973 356.561 257.669 353.75L258.409 354.518C257.023 367.339 265.566 366.916 262.961 375.683L261.988 376.207Z" fill="#96733E"/>
<path d="M252.005 366.137C252.184 366.464 253.679 384.218 253.615 386.229C253.581 387.292 252.133 388.428 251.287 389.298C249.839 388.605 249.452 388.153 248.297 387.069C246.107 381.056 249.982 372.361 252.005 366.137Z" fill="#96733E"/>
<path d="M121.684 381.404C126.896 384.838 130.61 397.323 131.165 403.37L126.953 403.05C122.336 398.672 125.802 391.919 121.684 381.404Z" fill="#96733E"/>
<path d="M108.134 353.726C110.696 356.545 110.995 372.318 107.301 375.415C106.522 376.069 105.089 376.273 104.025 376.545C100.832 368.934 108.322 363.597 108.134 353.726Z" fill="#96733E"/>
<path d="M224.202 411.464C224.983 408.754 229.383 396.942 230.85 395.182L232.118 395.138C232.416 397.246 230.252 414.544 229.462 416.027C224.981 415.833 225.048 415.464 224.202 411.464Z" fill="#96733E"/>
<path d="M613.245 361.715C624.879 362.745 621.318 371.751 615.364 377.53C614.963 377.545 614.2 377.305 613.769 377.195C616.5 368.974 610.923 369.552 613.245 361.715Z" fill="#232022"/>
<path d="M113.386 365.302C116.619 369.042 119.811 383.869 117.514 388.808C116.118 388.649 115.223 388.335 113.903 387.929C111.257 384.594 114.765 373.91 113.386 365.302Z" fill="#917745" fill-opacity="0.988235"/>
<path d="M132.791 394.137C133.165 394.317 133.419 394.438 133.72 394.73C138.297 399.151 142.154 408.859 142.077 415.172C140.731 415.546 139.377 415.434 137.996 415.388C134.183 411.61 135.742 400.724 132.791 394.137Z" fill="#96733E"/>
<path d="M243.581 381.566C244.149 384.208 241.925 386.272 241.675 388.895C241.26 393.254 242.156 397.542 241.495 401.97C239.772 403.444 238.432 403.301 236.258 403.569C233.35 397.58 240.392 386.797 243.581 381.566Z" fill="#96733E"/>
<path d="M91.635 272.046C91.9758 271.908 92.1657 272.041 92.6568 272.134C92.0687 277.705 89.5956 296.235 87.6516 300.983C81.1127 294.376 88.0018 287.534 89.8293 280.241C90.5111 277.52 90.9617 274.798 91.635 272.046Z" fill="#96733E"/>
<path d="M272.867 270.644C275.428 272.013 275.567 276.55 276.187 279.391C277.946 287.456 283.452 291.53 280.244 299.829L278.9 300.233C276.897 298.465 273.605 274.999 272.867 270.644Z" fill="#96733E"/>
<path d="M269.988 271.358L270.974 271.259C271.997 275.835 275.457 296.908 274.896 300.671C267.77 295.249 270.404 280.843 269.988 271.358Z" fill="#96733E"/>
<path d="M568.877 341.331L569.893 345.69L570.549 346.012C573.269 341.924 577.427 338.846 582.573 340.212C585.049 342.766 584.566 344.065 583.126 347.298C576.81 347.833 578.478 342.527 571.208 348.184C568.354 346.825 568.956 344.063 568.877 341.331Z" fill="#232022"/>
<path d="M95.4631 270.095C95.6976 270.34 96.1474 271.471 96.3169 271.858C95.2268 280.705 95.9617 286.406 95.8909 295.164C95.8833 295.997 93.8945 298.526 93.2415 299.323L91.8754 299.763C90.4158 297.101 94.7037 274.693 95.4631 270.095Z" fill="#96733E"/>
<path d="M324.687 157.482C319.631 156.658 312.955 155.261 308.597 152.63L308.939 152.03C315.997 152.344 322.907 154.992 330.191 156.001C329.195 156.284 325.168 157.201 324.687 157.482Z" fill="#96733E" fill-opacity="0.0117647"/>
<path d="M318.323 168.346C313.561 166.757 304.461 164.141 301.135 160.683L302.396 160.276L302.097 161.721L302.483 162L303.975 160.567C308.506 162.071 313.023 163.616 317.526 165.202L318.323 168.346Z" fill="#96733E" fill-opacity="0.0117647"/>
<path d="M795.367 266.863C797.293 266.939 798.848 267.097 800.764 267.324C802.412 269.524 801.895 270.413 801.99 273.559C798.575 273.397 797.495 273.994 795.463 272.037L795.367 266.863Z" fill="#232022"/>
<path d="M795.102 293.769L800.518 293.947C802.419 295.613 801.913 296.808 802.186 299.895C800.426 299.912 798.576 299.856 796.808 299.831C794.834 297.953 795.381 297.066 795.102 293.769Z" fill="#232022"/>
<path d="M79.6952 165.581C74.5566 170.302 69.3412 172.962 63.0604 175.95L61.8389 173.37C67.0904 171.068 74.6084 167.409 79.6952 165.581Z" fill="#96733E" fill-opacity="0.0156863"/>
<path d="M303.48 175.781C300.76 174.472 293.706 171.56 292.956 168.703L292.658 169.53L291.692 168.254C296.124 168.972 301.347 171.691 305.521 173.62L303.48 175.781Z" fill="#96733E" fill-opacity="0.0313725"/>
<path d="M264.476 199.693C260.24 197.35 254.32 193.485 251.091 189.833C255.511 191.15 261.426 195.013 265.869 197.355L264.476 199.693Z" fill="#96733E" fill-opacity="0.0392157"/>
<path d="M221.01 410.356L224.202 411.465C225.048 415.465 224.981 415.834 229.462 416.028L230.142 416.656C228.419 418.455 225.911 418.51 223.745 417.719C221.468 415.319 221.469 413.583 221.01 410.356Z" fill="#917745" fill-opacity="0.0117647"/>
<path d="M276.894 191.457C274.465 190.919 269.436 187.808 267.299 186.358L267.588 184.053L266.241 184.179L266.449 185.461L266.058 184.69L266.611 184.111C270.024 184.633 275.466 188.442 278.641 190.4L276.894 191.457Z" fill="#96733E" fill-opacity="0.0666667"/>
<path d="M103.125 196.461C106.18 194.546 111.637 190.597 115.077 190.434L115.107 190.593L113.563 190.841L113.54 192.226C110.809 194.162 107.752 196.453 104.841 198.012L103.125 196.461Z" fill="#96733E" fill-opacity="0.0313725"/>
<path d="M208.672 112.026C205.346 112.351 202.891 112.316 199.552 112.266C201.758 110.166 211.51 110.501 214.807 110.583L208.672 112.026Z" fill="#964C34" fill-opacity="0.109804"/>
<path d="M242.419 210.625L244.903 210.802L245.414 211.942C242.427 213.846 239.193 215.002 235.695 213.873L242.419 210.625Z" fill="#BB8317" fill-opacity="0.0117647"/>
<path d="M284.571 299.723C284.833 297.166 285.049 292.257 286.312 290.33C287.02 294.465 286.734 298.259 286.572 302.425L284.571 299.723Z" fill="#917745" fill-opacity="0.929412"/>
<path d="M129.739 246.225L131.21 246.637C129.713 247.898 129.292 248.279 128.093 249.822C125.951 249.172 125.057 248.803 123.053 247.803C124.685 246.398 127.222 246.549 129.739 246.225Z" fill="#232022" fill-opacity="0.239216"/>
<path d="M284.515 181.149C282.103 179.666 280.929 179.131 279.447 176.647L280.399 176.117L284.079 177.766L284.515 181.149Z" fill="#96733E" fill-opacity="0.0352941"/>
<path d="M89.4539 393.755C108.235 420.121 132.364 438.531 164.905 444.02C193.811 448.924 223.477 442.057 247.295 424.947C257.774 417.464 270.299 405.036 277.168 394.099C292.603 398.877 301.709 399.386 317.516 395.816C295.285 436.692 269.273 463.027 223.416 477.677C213.279 480.915 206.51 480.911 197.663 483H170.256C125.879 476.183 92.8019 459.173 65.5948 422.146C59.5469 413.869 54.2101 405.096 49.6416 395.918C65.1817 398.851 74.247 398.934 89.4539 393.755ZM194.502 464.898C195.009 467.238 194.996 469.65 196.822 471.25C198.233 469.445 198.006 466.547 197.736 464.382C197.358 461.347 197.222 457.819 195.114 455.6L192.178 454.658C190.687 455.678 189.836 455.883 189.442 457.746C188.646 461.514 190.296 467.895 190.832 471.792L191.707 472.928C193.749 470.393 192.203 467.102 194.502 464.898ZM209.116 462.696C209.71 465.003 209.85 466.885 211.547 468.613C212.657 467.409 212.582 465.523 212.514 463.969C212.362 460.527 210.975 457.384 209.446 454.36C207.361 453.181 206.084 453.464 203.754 453.54C202.182 457.369 204.289 465.685 205.914 469.601C206.258 470.432 206.43 470.544 207.135 471.057L208.051 470.327C207.773 468.006 207.545 465.827 207.729 463.483L209.116 462.696ZM91.586 414.417C88.7063 416.975 84.6301 419.823 82.7064 423.157L83.1975 424.284L83.74 424.358C86.8163 421.997 90.7229 419.576 92.7656 416.242C92.461 415.565 92.2458 414.819 91.586 414.417ZM241.548 438.713C240.201 442.867 242.373 452.546 244.305 456.356C244.728 457.19 245.286 457.916 245.926 458.594C245.712 453.152 244.658 443.19 241.548 438.713ZM250.711 432.813C249.832 437.281 253.339 447.379 255.893 451.047C256.189 451.472 256.537 451.863 256.893 452.238C256.924 447.186 254.168 436.461 250.711 432.813ZM107.775 429.901C104.535 434.213 100.103 438.982 98.1065 443.978C99.6599 445.487 100.731 446.198 102.848 446.691L103.535 445.966C102.734 445.001 101.962 444.033 100.993 443.228L103.497 440.277C105.005 440.207 106.447 440.207 107.952 440.332C107.508 437.784 105.593 438.413 106.444 435.507C108.452 434.226 110.306 434.182 112.605 434.051C111.18 432.29 109.622 431.165 107.775 429.901ZM179.442 468.129C180.333 470.065 180.673 471.956 182.683 472.813C184.341 469.221 182.295 461.018 180.726 457.351C180.189 456.097 179.288 455.773 178.111 455.281C177.055 459.273 173.304 469.627 174.797 473.09C176.705 471.469 177.218 469.067 179.442 468.129ZM219.343 448.638C218.037 454.43 219.442 461.225 220.29 467.07L221.158 467.18C221.952 465.598 222.674 464.064 223.225 462.38L224.823 461.903L227.291 464.547L228.542 464.382C228.7 460.579 224.145 453.086 221.565 450.078C220.978 449.393 220.164 448.974 219.343 448.638Z" fill="#026536"/>
<path d="M219.343 448.638C220.164 448.974 220.978 449.393 221.565 450.077C224.145 453.086 228.7 460.578 228.542 464.382L227.291 464.547L224.823 461.902L223.225 462.38C222.674 464.064 221.952 465.598 221.158 467.18L220.29 467.07C219.442 461.224 218.037 454.429 219.343 448.638Z" fill="#186D40" fill-opacity="0.0235294"/>
<path d="M107.775 429.901C109.622 431.165 111.18 432.29 112.605 434.051C110.306 434.183 108.452 434.226 106.444 435.507C105.593 438.413 107.508 437.784 107.952 440.332C106.447 440.207 105.005 440.207 103.497 440.277L100.993 443.228C101.963 444.033 102.734 445.001 103.535 445.966L102.848 446.692C100.731 446.198 99.6599 445.487 98.1066 443.978C100.103 438.982 104.535 434.213 107.775 429.901Z" fill="#186D40" fill-opacity="0.0156863"/>
<path d="M241.548 438.712C244.658 443.189 245.712 453.152 245.926 458.594C245.286 457.916 244.728 457.19 244.305 456.355C242.373 452.545 240.201 442.867 241.548 438.712Z" fill="#186D40" fill-opacity="0.0156863"/>
<path d="M91.586 414.417C92.2459 414.819 92.461 415.565 92.7656 416.242C90.7229 419.576 86.8163 421.997 83.74 424.358L83.1975 424.284L82.7064 423.157C84.6302 419.823 88.7063 416.975 91.586 414.417Z" fill="#186D40" fill-opacity="0.0431373"/>
<path d="M300.927 0H303.754C329.383 23.905 304.808 48.0819 298.192 73.9706C307.303 64.0895 317.489 38.1932 321.287 24.7381C321.589 23.6683 321.43 18.5314 321.37 17.0051C321.282 14.6173 321.108 12.2333 320.848 9.85801C326.158 8.12839 335.202 15.0833 336.563 20.3264C338.312 27.0618 334.914 33.1118 331.918 38.9361C327.014 49.7282 311.275 69.454 309.414 79.7935C310.742 79.6242 312.664 76.9496 313.477 75.7279C322.841 61.664 338.744 41.6477 343.35 25.981C348.062 30.8409 350.355 33.6867 352.754 40.0753C348.258 50.1851 344.411 52.976 338.758 61.3181C331.662 70.619 323.793 80.1058 316.924 89.1946C325.78 81.6205 333.982 72.1042 341.552 63.2283C344.996 58.7446 350.58 50.5473 355.048 47.7349C362.653 46.9966 362.408 61.3352 356.443 67.3837C347.18 76.7768 335.807 85.3196 327.148 94.9281C337.672 88.1644 353.965 73.4977 362.803 68.5039C365.583 70.7388 365.759 75.8762 366.225 79.4546C361.392 83.953 350.582 91.0573 344.705 94.6038C340.324 97.2046 324.167 106.555 321.815 109.65C329.798 105.302 338.287 100.86 345.963 96.0646C350.812 93.4225 361.617 85.464 366.302 88.7597C366.8 90.8184 366.972 92.6229 366.473 94.7085C364.205 104.201 329.999 114.347 320.433 120.215L320.506 121.075C329.477 120.966 356.981 103.577 362.949 108.399C364.899 130.888 301.487 133.11 286.502 132.041C284.479 116.672 280.612 112.346 270.29 101.527C273.263 94.0491 277.642 86.2755 280.891 78.1094C290.755 52.997 297.485 26.7623 300.927 0Z" fill="#C58B12"/>
<path d="M64.2121 0H66.0395C69.2261 33.159 81.8648 71.9043 96.6856 101.489C86.0206 112.665 82.838 116.188 80.488 131.853C63.9627 133.032 8.1334 131.366 4.29547 110.939L4.94565 108.826C12.9696 105.116 35.705 119.096 45.5219 121.555L46.5679 120.831C44.0218 116.158 6.58748 105.048 1.79892 97.9612C0.277609 95.7092 -0.334785 91.6332 0.177818 88.9784C1.78692 87.0515 0.988569 87.5598 3.69971 87.1486C6.71371 88.2691 7.47924 88.7361 10.1279 90.4561C21.7412 96.7334 34.1076 104.892 45.998 110.38L45.766 109.512C40.5715 104.926 20.519 92.9429 13.8186 89.0924C8.62134 85.7671 -5.69853 77.7937 3.40726 70.1824C10.0448 69.3505 24.6069 84.2136 30.5107 89.0105C36.6789 93.9595 40.4127 97.3203 47.5476 101.052C46.6476 98.8723 35.334 89.3575 32.7657 87.3411C25.2801 80.6846 8.82308 69.4297 6.46936 60.422C4.97581 54.7062 8.29962 50.3793 11.1826 45.6376C15.4086 51.5502 22.2018 59.2847 26.9687 65.0379C34.923 74.4868 44.8717 87.2305 54.4903 94.5304C51.3927 88.7352 34.7724 69.1429 29.7964 64.049C19.5833 47.7999 7.27539 43.7882 23.3703 26.1631C27.01 37.5177 52.0074 77.459 60.6335 84.1954C55.3585 68.645 39.5854 50.7145 33.0055 34.8777C31.5372 31.3437 28.0569 23.619 30.1544 19.7409C32.4957 15.4121 40.341 7.77234 45.5913 9.85016C45.6052 12.8225 45.6224 19.8872 45.6306 22.4858C45.655 30.2857 61.5293 66.9422 65.2349 70.1838L66.6924 69.2456C66.8009 66.1963 64.6865 62.6096 63.4916 59.798C54.9656 39.7376 41.4116 15.8341 64.2121 0Z" fill="#C58B12"/>
<path d="M13.8186 89.0923C20.519 92.9428 40.5716 104.926 45.766 109.512L45.9981 110.38C34.1076 104.892 21.7413 96.7333 10.128 90.456L13.8186 89.0923Z" fill="#F6A81D" fill-opacity="0.0313725"/>
<path d="M29.7964 64.0488C34.7724 69.1427 51.3927 88.735 54.4903 94.5302C44.8717 87.2303 34.923 74.4866 26.9687 65.0377L29.7964 64.0488Z" fill="#F6A81D" fill-opacity="0.0156863"/>
<path d="M316.924 89.1948C323.793 80.106 331.662 70.6192 338.758 61.3184L341.552 63.2286C333.982 72.1045 325.78 81.6207 316.924 89.1948Z" fill="#F6A81D" fill-opacity="0.0313725"/>
<path d="M32.7657 87.3413C35.334 89.3577 46.6475 98.8725 47.5476 101.052C40.4127 97.3205 36.6789 93.9598 30.5107 89.0107L32.7657 87.3413Z" fill="#F6A81D" fill-opacity="0.0470588"/>
<path d="M344.705 94.604L345.963 96.0648C338.287 100.86 329.798 105.302 321.815 109.65C324.167 106.555 340.324 97.2048 344.705 94.604Z" fill="#E1D3A5" fill-opacity="0.133333"/>
</svg>
