<svg width="1041" height="439" viewBox="0 0 1041 439" fill="none" xmlns="http://www.w3.org/2000/svg">
<path d="M822.076 28.1484C823.565 26.3443 825.098 24.5726 826.668 22.8344C829.695 19.5316 832.993 16.7905 836.589 14.133C879.714 -17.7359 934.774 7.82718 951.393 55.5575C954.967 65.8085 955.503 74.5422 955.936 85.1962C957.458 84.9487 959.683 84.5621 961.194 84.5837C999.793 85.1242 1038.96 119.808 1040 159.223C1040.7 185.466 1029.17 201.903 1012.04 219.917C1013.49 221.041 1015.02 222.439 1016.37 223.686C1030.52 236.543 1038.99 254.485 1039.92 273.578C1040.78 295.683 1033.44 311.708 1018.4 327.529C1006.8 339.718 991.989 348.691 975.392 352.498C969.728 353.797 961.156 353.942 955.259 354.161C955.963 396.058 928.005 431.946 886.169 438.429C884.853 438.652 880.299 438.814 878.875 438.768C852.996 437.933 838.533 428.072 821.356 410.991C804.077 427.71 789.31 438.539 763.913 438.769C725.775 439.115 692.484 404.458 687.583 367.939C687.014 363.722 687.182 358.547 687.182 354.273C659.885 353.706 637.375 344.42 619.857 322.978C607.635 308.026 603.682 296.359 603.412 277.252C603.065 253.041 612.39 235.651 630.66 220.123C610.191 200.791 600.482 179.482 603.807 151.015C608.128 113.983 649.759 81.3313 686.657 85.2341C687.166 79.4939 687.161 71.9175 688.26 66.4064C694.893 33.0608 723.474 2.5922 758.423 0.241499C759.354 0.167581 760.28 0.127183 761.211 0.120252C787.826 -0.0607257 803.936 10.2284 822.076 28.1484Z" fill="#3E4456"/>
<path d="M760.258 32.054C761.942 31.8904 763.637 31.8205 765.327 31.8446C782.774 32.0039 794.086 44.1652 805.1 55.4203L821.356 72.0532C837.379 56.5114 854.843 32.347 878.203 31.9007C903.632 29.6037 934.644 71.5165 920.711 93.8441C911.154 109.161 885.725 131.471 872.425 145.54L840.688 177.015C834.076 183.635 827.973 190.246 820.825 196.305C814.744 189.008 802.181 177.013 795.321 170.158L751.112 126C732.593 107.582 708.425 89.9847 724.021 61.0283C732.425 45.4221 743.829 37.1909 760.258 32.054Z" fill="#F5BE32"/>
<path d="M766.778 59.4517C771.077 61.7277 780.711 72.6232 784.842 76.6413C797.048 88.5256 808.929 101.245 821.118 113.142C826.181 109.381 831.146 103.882 835.668 99.3382L859.873 75.1499C864.379 70.6217 870.996 63.577 875.783 59.7235C883.407 64.7288 887.717 71.9062 895.044 77.5223C888.909 83.4493 882.974 89.6833 876.817 95.6759C864.249 107.921 851.973 121.129 839.139 133.221C833.464 138.569 827.508 146.134 821.075 150.349C812.416 142.181 802.528 131.633 793.951 122.975C779.086 107.97 763.193 92.8117 748.6 77.6371C754.323 72.7856 760.897 65.0673 766.778 59.4517Z" fill="#C3355D"/>
<path d="M821.032 243.486C823.691 244.137 831.851 253.082 834.125 255.396L854.995 276.497L893.631 315.095C901.418 322.812 910.759 331.389 917.414 339.677C928.244 353.16 923.214 374.206 912.909 386.48C904.467 396.533 895.418 404.72 881.962 406.259C853.327 409.536 841.317 383.16 822.424 368.306L821.557 368.118C819.18 368.472 799.529 388.854 795.966 392.57C765.43 424.4 720.626 396.441 719.765 357.29C719.457 343.045 728.846 335.688 738.647 325.772L760.968 303.389C781.015 283.346 800.341 262.962 821.032 243.486Z" fill="#317FAF"/>
<path d="M821.259 288.455C825.949 291.061 845.053 311.305 850.397 316.65L894.763 360.489C888.308 367.754 883.332 373.137 876.195 379.734C866.394 370.983 857.269 361.166 847.782 352.067C845.621 349.995 843.547 347.644 841.143 345.871C835.392 343.637 827.719 333.841 822.656 329.934C821.189 328.801 807.202 342.204 805.29 343.994C798.798 350.072 789.408 361.964 781.513 365.983C780.473 366.544 769.345 378.106 767.298 380.07C760.654 373.717 754.703 366.913 747.988 360.595C766.421 344.036 784.15 323.676 802.442 306.629C807.879 301.562 815.649 292.594 821.259 288.455Z" fill="#F5BE32"/>
<path d="M821.324 325.517C825.337 328.593 836.735 341.406 841.143 345.871C835.392 343.637 827.719 333.841 822.656 329.934C821.189 328.801 807.202 342.204 805.29 343.994C798.798 350.072 789.408 361.964 781.513 365.983C783.321 363.603 790.269 357.221 792.846 354.64C802.675 344.802 811.896 335.791 821.324 325.517Z" fill="#347489"/>
<path d="M956.413 117.119C966.398 116.349 975.414 118.327 983.732 124.161C993.733 131.173 1004.82 142.417 1006.91 155.184C1011.19 181.343 994.167 191.948 978.295 209.239C975.057 212.766 971.277 215.595 968.586 219.507L968.456 219.699C980.559 231.115 1003.52 251.567 1006.99 268.147C1013.7 300.158 972.425 335.934 941.803 315.225C923.582 300.029 900.887 275.76 883.505 258.308L860.767 235.416C855.623 230.225 849.26 224.113 844.874 218.416L904.364 159.29C916.661 146.845 929.576 132.487 943.233 121.674C946.606 119.002 952.227 117.88 956.413 117.119Z" fill="#C3355D"/>
<path d="M962.965 146.999C967.433 149.985 972.073 155.269 976.313 159.092C978.604 161.462 979.324 162.297 981.106 165.059L976.687 169.352C960.371 185.745 942.805 202.813 926.982 219.495C932.83 225.909 941.803 234.186 948.128 240.377C959.18 251.207 970.091 262.177 980.867 273.285C978.192 277.276 966.398 288.309 962.478 291.373C954.556 284.912 947.234 276.8 939.897 269.552L889.943 219.673C896.994 211.251 912.302 197.062 920.37 188.956C933.951 175.303 948.74 159.772 962.965 146.999Z" fill="#CDC147"/>
<path d="M976.313 159.092C978.604 161.461 979.324 162.296 981.106 165.059L976.687 169.351C976.081 166.358 976.281 162.241 976.313 159.092Z" fill="#F5BE32"/>
<path d="M679.84 117.17C698.18 117.08 703.909 124.871 716.185 137.086C723.691 144.556 731.055 152.309 738.544 159.803L775.263 196.598C782.834 204.16 791.357 212.176 798.348 220.145C791.698 225.256 780.094 237.792 773.861 243.783C751.053 265.701 728.878 290.109 705.875 311.719C705.128 312.428 704.364 313.123 703.59 313.804C697.249 319.355 687.432 321.835 679.282 321.116C657.47 319.196 632.778 297.042 635.036 273.847C636.698 256.784 646.651 246.95 658.244 235.58C663.811 230.119 668.966 224.814 674.852 219.831C660.654 204.065 637.857 188.683 635.009 166.341C631.954 142.357 657.27 119.626 679.84 117.17Z" fill="#3AACDB"/>
<path d="M680.268 146.506C684.568 148.335 747.387 212.825 754.167 219.953C748.373 224.132 739.027 234.409 733.492 239.684C716.365 255.997 699.768 274.104 682.337 289.996L680.598 291.054C677.967 290.939 664.472 275.696 661.803 272.787C665.891 269.885 674.777 260.269 678.633 256.526C690.746 244.766 703.119 231.078 715.758 220.01C713.587 217.58 711.339 215.192 709 212.916C695.49 199.763 682.726 185.867 669.194 172.75C666.828 170.456 664.591 167.98 662.431 165.498C667.797 158.983 674.366 152.672 680.268 146.506Z" fill="#317FAF"/>
<path d="M462.909 23.9858C499.063 22.2373 487.711 46.8758 489.515 72.6415C489.751 76.0222 492.913 82.3749 491.332 85.4626C489.263 86.7 490.133 86.4986 487.82 86.4542C484.873 85.1821 483.35 82.0326 481.792 79.3098C469.657 87.4219 459.268 92.3898 446.946 80.6707C440.702 72.244 442.939 58.7027 452.022 53.1038C460.907 47.6285 471.123 48.9373 480.825 50.9648C480.895 45.9828 481.341 39.146 478.273 35.064C471.137 25.5689 455.42 36.4828 448.335 35.2492C446.905 34.3701 446.807 34.0438 446.07 32.5643C446.284 26.6185 458.004 25.1742 462.909 23.9858ZM452.911 73.0536C456.904 79.1587 460.713 82.1837 468.398 79.5654C473.223 77.3463 476.71 75.2062 479.903 70.7635C480.845 65.5161 481.038 62.4348 480.696 57.0781C475.158 56.4391 470.826 55.903 465.196 56.4884C454.95 58.6577 452.363 62.9444 452.911 73.0536Z" fill="#3E4456"/>
<path d="M383.174 23.9932C418.788 21.8771 406.88 48.0832 408.977 73.1634C409.286 76.8561 412.962 82.1386 411.235 85.7869C406.198 88.6131 403.304 82.8665 400.832 79.0774C390.468 86.9967 377.501 92.7411 366.825 81.0345C360.218 67.9913 363.825 53.3853 379.592 50.0176C386.76 48.4867 393.165 49.4452 400.308 50.6901C400.852 46.874 400.438 42.4395 400.21 38.5443C393.706 26.981 383.49 31.3253 373.352 34.6566C368.808 36.1502 364.794 33.3646 366.522 28.8584C369.953 26.3421 378.698 24.9573 383.174 23.9932ZM388.144 79.5539C394.248 76.7283 396.678 75.2163 400.245 69.4014C400.308 65.5702 400.52 60.8074 400.398 57.0482C394.335 56.3475 390.578 55.9067 384.417 56.4823C380.12 57.5323 377.014 58.676 374.542 62.7846C372.864 65.5907 372.376 68.9498 373.184 72.1177C374.969 79.2204 381.501 81.8327 388.144 79.5539Z" fill="#3E4456"/>
<path d="M245.076 368.891C256.141 368.234 265.244 371.75 267.922 383.762C270.744 396.422 269.818 414.835 254.339 418.562C244.583 419.759 234.099 416.272 231.713 405.475C228.823 392.394 229.546 373.479 245.076 368.891ZM251.665 412.833C262.045 411.198 262.583 396.13 261.216 387.945C259.928 380.232 256.952 375.542 248.871 374.801C237.151 377.942 236.422 391.876 238.551 401.958C240.008 408.859 244.739 412.53 251.665 412.833Z" fill="#C3355D"/>
<path d="M182.18 369.263C190.171 369.038 201.941 367.697 208.542 372.831C215.712 378.409 212.547 386.594 207.703 392.574C215.156 397.444 217.014 404.466 213.016 412.327C205.001 420.653 192.873 418.539 182.015 418.6C182.192 402.155 182.247 385.709 182.18 369.263ZM189.881 412.285C194.815 412.642 200.307 413.008 204.97 410.849C208.502 407.066 210.194 402.773 205.533 398.802C201.003 394.944 195.758 394.689 190.095 394.705L189.881 412.285ZM190.083 389.871C194.718 389.509 198.532 389.27 203.118 388.318C204.34 386.888 204.515 385.767 204.93 384.03C207.034 375.233 195.943 374.612 190.117 374.754C189.624 379.369 189.554 385.256 190.083 389.871Z" fill="#C3355D"/>
<path d="M484.164 369.055C484.813 369.053 485.463 369.067 486.111 369.096C498.42 369.662 500.456 375.709 499.925 386.382C498.806 388.381 496.913 390.717 495.497 392.584C506.335 400.64 505.51 412.058 493.01 417.755C488.075 418.83 476.364 418.637 470.688 418.673C470.289 413.678 470.495 405.424 470.492 400.149C470.406 389.833 470.497 379.516 470.764 369.203L484.164 369.055ZM493.666 410.441C496.77 407.245 497.151 402.017 493.428 399.062C488.633 395.255 484.035 394.638 478.088 395.124C477.623 398.26 477.144 409.819 478.689 412.257C481.415 413.492 488.898 412.659 491.564 411.632C492.321 411.345 493.03 410.943 493.666 410.441ZM477.943 389.573C481.274 389.437 488.167 389.414 490.892 388.074C494.579 383.263 493.082 379.976 489.84 375.51C486.117 375.187 481.593 374.643 477.945 375.001C477.55 378.926 477.65 385.524 477.943 389.573Z" fill="#C3355D"/>
<path d="M155.422 25.1262C158.235 24.9941 160.975 25.0983 163.787 25.1698C170.948 40.9016 174.721 65.6098 181.613 81.0459C184.846 73.4933 187.069 63.33 189.166 55.1984L197.117 25.0453C200.085 25.0243 203.302 25.2491 206.291 25.399C201.257 39.7856 197.437 57.0391 192.718 72.1709C189.779 83.0815 185.464 102.924 176.278 109.734C169.858 114.492 159.614 112.88 152.269 111.651C152.524 110.78 152.788 109.911 153.061 109.045C154.33 105.043 154.97 104.806 159.121 105.782C172.635 108.958 176.733 98.3336 179.912 87.7608C171.425 82.9142 172.602 79.9277 169.734 71.2297C165.717 59.1082 161.846 46.9391 158.124 34.7239C157.531 32.8127 154.996 26.466 155.422 25.1262Z" fill="#3E4456"/>
<path d="M55.1647 283.395C67.0253 282.873 78.8701 280.424 86.0916 291.928C86.8903 301.309 87.3739 304.071 79.1636 309.785C81.8923 314.923 86.9299 325.603 88.3475 331.059L81.8939 332.834L78.94 327.268C76.8157 321.769 75.5096 317.016 71.6329 312.583L63.0068 311.89C62.2443 317.75 62.2822 325.942 62.0992 332.083L54.9725 331.764C54.8523 329.516 54.8864 326.853 54.9551 324.599C55.3683 311.009 54.314 296.918 55.1647 283.395ZM76.6023 304.327C83.2455 296.204 78.1104 290.119 68.6584 289.612C66.7025 289.508 64.4694 289.693 62.4956 289.775C62.3402 293.856 60.3572 307.43 67.302 307.318C69.7967 307.278 74.4791 305.758 76.6023 304.327Z" fill="#C3355D"/>
<path d="M255.305 23.5498C258.939 23.6568 271.45 25.3831 272.836 28.6602C272.661 30.7565 271.382 32.7226 270.365 34.6028C262.957 32.7899 253.931 26.874 246.469 33.1497C243.069 35.6634 240.405 39.9761 243.919 43.7045C253.789 54.177 275.586 52.2784 274.101 71.5372C272.953 86.4102 258.352 88.4041 246.509 87.2246C240.775 86.5808 235.526 83.9955 230.375 81.5895C231.041 79.3384 232.314 76.445 233.218 74.2151C240.568 78.6003 251.434 83.584 260.059 79.0368C264.712 76.5842 267.785 70.8094 263.736 66.2C256.23 56.9778 233.252 56.2825 232.901 41.5384C232.56 27.1872 244.639 24.0447 255.305 23.5498Z" fill="#3E4456"/>
<path d="M17.2227 24.5687C21.0444 24.2835 25.1541 23.435 26.8035 27.9621C31.709 41.427 35.996 55.277 40.2506 68.9803C41.3559 72.5408 42.0701 75.3351 43.9015 78.6335C47.4315 71.6348 48.8097 62.58 51.2545 55.1329C54.7153 44.5916 57.8522 35.0965 60.5993 24.29C63.6057 24.4256 65.8432 24.8468 68.7966 25.3602C68.052 27.8016 67.3589 30.4607 66.6657 32.9349C62.4052 48.3162 53.9198 72.7482 48.2189 87.0179C44.0314 87.0829 41.8746 87.1408 37.7798 86.4721C35.2677 80.642 16.5908 26.6342 17.2227 24.5687Z" fill="#3E4456"/>
<path d="M310.934 6.00391L320.164 6.02871C320.018 12.7475 319.871 18.6076 320.267 25.307C325.032 25.1837 330.946 25.4024 335.776 25.4638L335.535 31.9033C330.084 31.9614 325.688 32.0002 320.237 31.59C319.999 41.037 318.552 68.3114 321.164 78.1103C321.487 79.3201 330.603 79.0856 333.981 79.7268C334.48 81.4353 334.252 84.6931 334.209 86.5906C328.33 86.3902 316.72 87.8047 312.517 82.9283C309.507 79.4365 310.907 40.0168 310.82 31.8603C308.115 31.8466 305.092 31.9869 302.363 32.0545C301.913 29.7611 301.841 27.4612 301.706 25.1295C304.755 25.1115 307.804 25.0493 310.852 24.943L310.934 6.00391Z" fill="#3E4456"/>
<path d="M189.687 196.782C191.567 196.653 195.863 196.226 197.247 197.324C202.246 201.288 213.384 232.122 217.018 233.52C218.447 231.567 217.406 203.161 217.761 197.378L224.3 197.532C224.37 212.978 224.231 229.648 224.709 244.984L224.203 245.561C222.102 246.386 219.548 246.358 217.263 246.478C209.925 239.472 200.691 216.814 196.746 207.188C195.116 215.952 197.024 233.455 196.142 243.02C195.973 244.853 195.834 244.998 194.665 245.895C192.729 246.161 192.033 246.346 190.163 245.837C189.976 245.543 189.751 245.189 189.488 244.777C189.639 235.87 188.221 203.419 189.687 196.782Z" fill="#C3355D"/>
<path d="M530.092 5.64463C532.291 5.38205 535.534 5.26259 537.814 5.11621C537.776 11.7097 537.852 18.3033 538.047 24.894C543.408 25.1597 548.769 25.3528 554.135 25.4735L553.929 31.9749C548.514 32.04 543.559 32.1671 538.155 31.6968C537.57 38.9549 537.505 72.537 538.648 78.679C542.531 79.3374 550.729 78.3383 553.155 80.2423C553.166 82.0359 553.464 84.3438 552.332 85.598C551.016 86.4228 549.879 87.0173 548.189 86.9735C526.285 86.3973 529.139 82.9824 529.128 61.7574L529.166 31.6398L520.567 32.016C520.258 30.077 520.107 27.5 519.934 25.497C522.999 25.4257 525.988 25.0704 529.031 24.7555C529.139 20.8529 528.414 8.14961 530.092 5.64463Z" fill="#3E4456"/>
<path d="M434.217 368.942C435.715 368.869 435.906 368.908 437.324 369.399C440.258 372.053 452.423 412.191 454.06 418.511C451.906 418.649 449.004 418.565 446.789 418.567C445.293 415.19 443.557 409.836 442.267 406.236L436.174 406.237L424.99 406.183C424.336 410.563 422.769 414.486 421.031 418.518L414.494 418.578C417.712 404.605 424.564 384.313 429.89 370.359C430.324 369.221 432.919 369.127 434.217 368.942ZM435.632 400.042C437.315 400.013 439.321 400.139 440.788 399.407C440.47 397.032 435.56 380.177 433.993 378.819C431.911 382.842 428.305 394.707 426.968 399.568C430.466 400.007 432.113 400.122 435.632 400.042Z" fill="#C3355D"/>
<path d="M533.033 368.979C536.564 368.894 540.143 368.318 541.421 372.104C543.744 378.962 556.366 413.68 555.614 418.189C553.946 418.8 550.838 418.475 548.942 418.395C547.242 414.665 546.403 410.171 545.591 406.152C543.457 405.992 540.538 406.055 538.345 406.035L528.03 406.034C526.297 409.826 525.566 414.476 523.048 417.597C521.542 419.464 518.456 419.345 517.048 417.322C517.833 411.92 530.515 372.129 533.033 368.979ZM538.518 400.013L543.381 399.483C542.266 396.383 536.889 379.435 535.806 378.351C534.598 381.954 529.318 397.048 529.974 399.706C532.6 400.193 535.811 400.036 538.518 400.013Z" fill="#C3355D"/>
<path d="M109.012 369.347C111.261 369.161 114.367 368.692 116.267 369.856C119.479 373.876 131.674 412.003 133.071 418.54L125.557 418.547C123.76 414.187 123.837 410.895 121.845 407.034C121.335 406.046 119.459 406.244 118.232 406.185L103.886 406.217C102.83 410.572 101.333 421.678 94.2311 417.975C93.4849 413.697 106.463 374.818 109.012 369.347ZM105.55 399.913C108.329 400.025 111.205 400.194 113.979 400.115L120.198 400.124C119.146 396.992 114.357 380.593 113.189 379.415C110.272 383.303 107.386 394.779 105.55 399.913Z" fill="#C3355D"/>
<path d="M489.127 282.753C491.795 282.667 495.744 282.236 496.742 285.465C498.97 292.679 512.321 327.367 510.891 331.591C509.752 332.103 509.673 331.939 508.649 331.999C501.164 332.434 504.264 324.864 500.203 320.788C498.499 319.078 496.638 319.438 494.036 319.463L483.296 319.59C481.316 323.46 480.307 333.042 474.896 332.579C473.217 331.599 472.142 330.557 472.946 328.615C475.477 322.503 484.799 285.668 489.127 282.753ZM485.444 313.773L491.734 314.079L498.984 314.033C498.05 311.061 492.515 292.627 491.408 291.724C490.065 295.847 485.772 309.846 485.444 313.773Z" fill="#C3355D"/>
<path d="M15.0881 282.678C21.043 281.876 23.2801 283.244 25.3248 288.947C28.0502 296.548 30.6592 304.531 32.9665 312.265C34.4427 317.212 38.2895 326.103 38.8944 330.868L38.0583 331.617C24.9257 334.538 35.1488 321.542 24.6306 319.57C19.6997 319.509 15.6488 319.475 10.6999 319.817C8.56523 323.747 8.19192 329.925 4.16676 331.7C2.37508 331.805 1.64492 331.958 0.0297239 331.168C-0.725187 328.445 13.1324 288.264 15.0881 282.678ZM12.4563 313.636L19.1031 314.061L26.3667 314.096C25.7667 312.172 19.8287 292.652 19.3593 292.294C16.6239 298.869 13.8746 306.605 12.4563 313.636Z" fill="#C3355D"/>
<path d="M133.321 196.782C135.485 196.669 138.093 196.691 140.299 196.655C141.271 208.291 139.14 220.841 141.357 232.537C143.542 244.065 160.301 243.013 160.86 231.728C161.426 220.283 161.05 208.446 161.059 196.928L168.649 196.759L168.644 203.895C168.652 213.521 169.779 228.987 167.23 237.195C162.411 252.713 132.69 248.842 133.05 231.587C133.217 223.549 131.148 202.89 133.321 196.782Z" fill="#C3355D"/>
<path d="M84.0642 196.722C92.914 195.904 91.988 200.358 91.7936 207.86C91.682 212.176 91.5293 215.395 91.91 219.734C99.9032 213.885 104.451 205.197 109.311 196.733C111.258 196.914 113.574 196.964 115.281 197.829C116.264 201.314 106.173 214.771 103.781 218.343C110.71 227.596 110.795 225.333 114.693 237.334C115.878 240.241 116.499 242.583 117.333 245.597C103.049 246.332 108.798 234.644 102.188 226.832C99.4012 223.537 95.6789 224.071 91.6079 224.002C91.6891 231.219 91.6647 238.436 91.5342 245.652C89.3205 245.874 86.3217 245.868 84.0403 245.93C84.0095 239.284 82.4489 200.557 84.0642 196.722Z" fill="#B3395D"/>
<path d="M364.17 369.063C365.73 369.182 368.844 369.027 370.521 368.995C370.864 374.564 370.516 383.42 370.625 389.485C375.922 390.175 385.059 390.096 390.544 390.189L390.447 369.212L397.581 368.984C397.758 374.432 398.11 416.865 396.917 418.827C394.64 418.822 393.749 418.766 391.513 418.38C389.949 416.719 390.543 400.432 390.06 395.763L370.705 395.905C370.411 403.303 370.646 411.068 370.761 418.501L364.046 418.819L363.606 389.692C363.532 384.287 363.147 373.965 364.17 369.063Z" fill="#C3355D"/>
<path d="M476.535 197.239C481.509 197.1 501.525 196.796 505.315 197.98C506.119 199.335 505.929 202.328 505.953 204.04C498.098 204.05 491.871 203.791 483.854 204.139C483.694 209.016 483.676 212.639 483.892 217.564C487.476 217.791 500.29 216.05 501.641 218.762C506.81 229.143 488.002 221.42 484.13 225.194C483.837 225.479 483.829 226.816 483.787 227.316C483.751 231.84 483.718 234.558 484.336 239.013C487.839 238.934 504.296 238.206 506.196 239.358C507.009 241.205 506.576 243.437 506.384 245.491C497.005 245.715 485.582 246.071 476.296 245.708C475.606 232.95 475.967 210.047 476.535 197.239Z" fill="#C3355D"/>
<path d="M342.878 197.361C345.473 197.349 362.142 196.986 363.683 197.734C364.324 199.325 364.272 202.421 363.38 203.894C360.179 204.437 346.973 204.153 342.662 204.231C342.387 208.068 342.752 213.704 342.897 217.679C347.365 217.611 357.735 216.584 360.764 219.902C361.417 221.947 361.263 221.268 360.807 223.497C358.849 225.152 346.772 224.362 342.729 224.46L342.61 235.439C342.625 236.239 342.862 237.451 342.992 238.279C348.072 241.983 362.773 234.737 366.564 241.148C366.433 242.268 366.406 242.614 365.516 243.415C361.399 247.118 341.812 245.569 335.679 245.349C334.834 230.862 335.631 212.65 335.324 197.665L342.878 197.361Z" fill="#C3355D"/>
<path d="M538.042 196.254C545.082 196.466 547.361 197.181 553.48 200.404C551.504 206.555 551.791 206.033 544.968 204.342C539.824 203.066 529.985 201.383 530.32 209.978C530.678 212.464 534.289 214.998 536.548 215.899C548.038 220.489 562.594 227.18 551.715 241.661C548.352 246.134 542.347 246.531 537.046 246.833C532.795 246.383 522.793 244.908 521.239 240.475C521.602 238.549 521.629 237.846 522.837 236.333C525.723 235.316 545.379 245.927 546.842 236.333C548.84 223.234 530.883 227.148 523.335 214.451C522.772 203.288 526.151 197.257 538.042 196.254Z" fill="#C3355D"/>
<path d="M323.237 282.172C326.772 281.94 342.487 282.489 339.888 289.636C336.825 291.523 327.355 289.115 324.296 289.298C318.934 289.618 315.507 295.157 319.451 299.012C325.872 305.291 342.557 306.908 342.272 318.91C341.99 330.814 332.245 332.709 322.679 332.5C319.191 331.896 311.459 330.485 309.236 327.781C308.553 326.145 309.009 325.065 309.438 323.33C313.315 321.173 325.089 328.916 331.237 325.325C332.338 324.682 334.26 322.825 334.32 321.612C334.933 309.358 315.818 311.25 311.36 302.259C308.904 297.306 310.679 292.062 311.924 287.843C315.924 284.615 318.467 283.855 323.237 282.172Z" fill="#C3355D"/>
<path d="M253.511 196.759C259.175 196.154 269.145 196.329 273.31 200.796C273.437 202.724 273.493 202.054 272.554 203.859C268.315 207.03 254.753 200.253 252.077 205.45C244.947 219.3 274.001 215.652 274.441 230.451C274.814 242.987 270.738 245.507 259.632 246.64C255.072 246.729 244.882 245.438 242.242 241.198C241.471 239.958 242.354 236.987 244.387 236.142C247.171 236.366 250.512 238.592 253.096 239.511C257.854 241.205 265.13 240.824 266.998 235.266C269.503 227.813 255.963 224.61 251.42 222.048C244.236 217.996 240.955 212.483 244.354 204.523C246.415 199.68 249.019 198.657 253.511 196.759Z" fill="#C3355D"/>
<path d="M122.431 24.5239C125.781 24.103 128.7 23.3947 130.649 26.354C130.951 28.5373 129.56 30.9273 128.622 33.014C122.926 33.2667 118.724 33.3916 114.182 37.6806C111.955 39.792 110.374 42.492 109.621 45.4671C108.463 49.9981 109.039 79.4202 108.923 86.7156C106.313 86.629 103.546 87.2858 101.235 86.5315C99.9302 85.1923 100.346 85.4181 100.269 82.9997C99.8885 68.4798 100.701 53.3393 100.066 38.7896C99.9438 35.9829 95.5782 28.459 96.1836 25.6304C97.7144 24.8326 100.94 25.1609 102.478 25.8507C105.581 27.242 107.184 31.9347 108.439 34.8538C113.503 28.3897 114.562 25.9777 122.431 24.5239Z" fill="#3E4456"/>
<path d="M264.161 283.481C273.591 283.865 283.327 283.178 292.863 283.541C292.788 285.342 292.974 288.07 293.041 289.941C286.077 290.321 278.747 290.254 271.741 290.288C271.43 294 270.169 301.058 273.309 303.736C277.542 307.346 284.492 301.676 288.589 304.763C289.436 306.619 289.311 307.155 289.113 309.221C285.929 312.165 276.745 309.178 272.378 310.715L272.007 311.821C271.936 316.289 271.979 320.854 271.973 325.33C277.556 325.619 287.308 325.003 292.32 325.745C293.222 327.192 293.065 329.69 292.069 331.061C286.791 331.824 270.786 331.353 264.368 331.423C264.118 325.014 263.234 287.121 264.161 283.481Z" fill="#C3355D"/>
<path d="M159.159 282.196C163.316 281.772 177.424 283.385 174.967 289.581C170.736 292.528 158.125 286.113 154.444 291.562C145.836 304.305 179.789 304.12 178.171 318.358C176.667 331.584 167.369 332.637 157.616 332.561C153.166 331.567 146.707 331.067 144.284 327.054C143.695 325.217 144.554 323.411 145.182 321.558C152.33 323.589 157.475 327.679 165.753 325.692C168.274 325.087 171.791 321.082 170.387 318.656C165.07 309.471 149.606 310.508 145.938 299.632C143.121 289.591 151.265 284.556 159.159 282.196Z" fill="#C3355D"/>
<path d="M59.6891 368.923C64.131 368.517 76.7064 368.784 78.3758 373.647C77.8067 375.258 77.6513 376.021 76.4048 377.198C75.234 377.384 66.8028 375.131 62.6712 374.924C57.2182 377.123 53.5197 380.785 58.8405 385.728C63.4542 390.192 70.4282 391.044 75.2757 395.138C81.6498 400.52 82.4458 407.822 76.8033 414.049C73.1395 418.093 69.421 418.45 64.4197 418.736C59.5802 418.569 49.785 418.412 47.2177 413.449C45.0187 401.658 62.1703 417.313 68.8134 411.702C84.38 398.556 51.9245 397.313 49.4054 387.42C46.7195 376.874 50.1326 372.657 59.6891 368.923Z" fill="#C3355D"/>
<path d="M427.523 283.436C429.805 283.188 430.637 283.074 432.894 283.341C437.308 286.79 442.575 321.206 446.839 323.124C449.16 321.515 454.674 288.123 458.092 283.793C458.687 283.039 462.883 283.417 463.982 283.938C464.225 285.849 462.988 288.986 462.365 290.948C460.793 299.372 453.613 323.407 450.414 331.971L442.056 332.539C437.595 324.813 429.254 293.396 426.899 284.284L427.523 283.436Z" fill="#C3355D"/>
<path d="M428.499 197.171C431.95 196.859 455.132 196.54 456.682 197.378C457.693 199.168 457.866 201.98 456.741 203.735C455.084 204.15 439.517 204.1 435.904 204.253C435.758 207.751 435.184 213.932 436.555 217.073C436.89 217.841 437.841 217.875 438.844 218.165C438.524 218.9 438.266 219.077 437.621 219.497C437.111 221.075 436.657 222.6 437.045 224.285L436.204 224.765C435.481 229.02 436.033 235.119 436.436 239.403C439.786 238.95 455.567 237.758 457.781 238.992C458.458 240.701 458.122 243.812 457 245.247C453.143 245.956 432.958 246.148 429.594 245.061C427.909 242.577 428.51 203.546 428.499 197.171Z" fill="#C3355D"/>
<path d="M223.815 283.508C228.536 283.68 244.256 282.57 247.272 284.276C249.662 293.252 232.565 290.407 226.985 290.296C226.899 294.956 226.914 299.617 227.033 304.276C231.241 304.511 241.096 303.121 243.899 305.987C244.498 307.449 244.379 307.735 243.99 309.223C242.471 310.551 242.581 310.142 240.144 310.363C234.894 310.763 232.378 310.751 227.074 310.428C226.811 317.258 227.108 324.775 226.913 331.869C224.561 332.084 221.412 332.071 218.985 332.129C219.057 319.628 218.797 307.084 218.699 294.582C218.672 291.116 218.495 287.705 218.808 284.244C219.945 283.275 222.236 283.51 223.815 283.508Z" fill="#C3355D"/>
<path d="M384.71 196.761C393.6 197.068 402.77 197.033 411.685 197.103C411.731 199.214 411.631 201.701 411.601 203.845C405.412 204.14 397.59 203.997 391.188 204.155C391.259 208.736 391.413 213.316 391.654 217.892C396.066 217.832 404.64 217.372 408.442 218.967C410.004 221.224 409.818 222.066 407.875 224.29C402.074 224.247 397.303 224.253 391.514 224.644C391.323 231.66 391.197 238.677 391.135 245.695L383.785 245.796C383.73 229.988 383.655 213.943 383.654 198.137C383.654 197.293 384.06 197.251 384.71 196.761Z" fill="#C3355D"/>
<path d="M280.997 369.56C285.738 369.195 306.679 368.535 311.837 370.081C312.261 370.309 312.592 371.466 312.687 371.822C314.092 377.102 305.699 376.137 300.812 376.313C300.545 387.068 300.505 397.828 300.692 408.586C300.752 411.888 300.777 415.191 300.767 418.494L292.696 418.635C293.373 406.22 293.095 388.68 292.819 376.058C288.911 376.244 282.204 377.549 280.227 373.806C280.273 371.801 280.366 371.472 280.997 369.56Z" fill="#C3355D"/>
<path d="M287.96 196.622C294.103 197.338 317.195 196.111 319.812 197.757C320.826 199.369 320.65 200.365 320.622 202.298C318.404 204.398 310.804 203.961 307.117 204.198C307.292 214.159 307.339 224.122 307.258 234.085C307.142 237.245 307.558 242.214 307.741 245.505C305.489 245.724 302.242 245.684 299.908 245.725C299.091 235.931 299.707 214.6 300.236 204.723C296.76 204.146 291.458 204.097 287.804 203.959C287.738 201.531 287.87 199.052 287.96 196.622Z" fill="#C3355D"/>
<path d="M2.37614 369.122C8.4993 369.334 30.5026 368.233 34.0651 370.236C35.0631 371.531 34.9099 372.557 34.931 374.205C32.8603 376.298 25.6897 376.126 22.2762 376.408C21.5793 383.96 21.916 396.159 21.9006 404.052L21.9255 418.481C19.589 418.579 17.1035 418.568 14.7529 418.6C14.266 405.285 14.6206 389.682 14.8072 376.273C10.546 376.072 5.90366 377.186 2.93329 374.877C1.82034 373.264 2.2393 371.129 2.37614 369.122Z" fill="#C3355D"/>
<path d="M354.348 283.62L387.095 283.443L387.042 289.663L374.483 289.958C374.557 296.394 375.497 324.458 374.342 329.215L374.121 331.062C371.698 333.406 368.127 332.903 367.714 328.783C367.518 316.209 367.592 302.905 367.149 290.419C362.914 290.366 358.466 290.385 354.252 290.247L354.348 283.62Z" fill="#C3355D"/>
<path d="M367.714 328.782C369.882 329.178 373.431 328.804 374.341 329.214L374.12 331.061C371.697 333.406 368.126 332.903 367.714 328.782Z" fill="#C3355D"/>
<path d="M100.16 283.488C110.717 283.974 121.875 282.874 132.591 283.538C132.585 285.465 132.426 287.779 132.346 289.739C128.25 289.789 124.046 290.071 119.946 290.295C119.662 299.993 119.83 309.963 119.88 319.684L119.713 331.884L112.88 332.096C112.731 318.205 112.651 304.313 112.642 290.421L99.3525 290.068C99.5144 287.616 99.5789 285.912 100.16 283.488Z" fill="#C3355D"/>
<path d="M528.089 283.473C530.358 283.625 533.737 283.513 536.103 283.499C535.399 289.227 535.459 320.023 536.315 325.27C541.957 325.706 549.289 325.038 554.72 325.897C555.554 327.171 555.294 329.604 555.273 331.261C551.206 331.714 533.553 331.366 528.295 331.501C527.824 316.524 527.959 298.496 528.089 283.473Z" fill="#C3355D"/>
<path d="M335.318 369.463L342.531 369.19C343.524 379.921 341.917 395.526 342.245 406.711C342.563 417.51 333.078 419.161 323.933 418.036C320.914 417.462 317.376 415.798 318.205 412.153C321.573 409.735 324.568 412.668 328.488 412.83C337.785 413.213 335.566 401.146 335.518 394.396L335.318 369.463Z" fill="#A9385E"/>
<path d="M402.602 283.255C405.209 283.236 407.917 283.332 410.532 283.385C411.097 297.726 410.309 316.636 410.204 331.342C408.207 331.766 405.772 331.888 403.706 332.053C403.469 315.467 403.45 299.843 402.602 283.255Z" fill="#C3355D"/>
<path d="M146.891 395.759C151.103 395.896 155.123 395.432 159.256 395.54C164.405 395.675 164.605 397.56 164.074 402.055C158.942 402.576 151.437 402.335 146.294 402.138L146.891 395.759Z" fill="#C3355D"/>
<path d="M438.845 218.165C444.02 216.507 451.2 216.635 454.774 221.285L454.827 222.759C451.762 225.638 441.55 224.193 437.046 224.285C436.658 222.6 437.112 221.076 437.622 219.497C438.267 219.077 438.525 218.9 438.845 218.165Z" fill="#C3355D"/>
</svg>
