<svg width="1069" height="583" viewBox="0 0 1069 583" fill="none" xmlns="http://www.w3.org/2000/svg">
<path d="M355.286 404.783C358.334 405.63 374.49 405.222 378.805 405.19C384.767 410.305 390.432 416.576 395.97 422.138L424.556 450.657L530.835 556.795C565.928 522.679 601.38 486.45 636.013 451.715L666.564 421.107C670.87 416.802 678.34 408.856 682.709 405.276C689.583 404.966 699.631 405.102 706.5 405.377C702.471 412.715 699.192 413.276 694.657 419.51C692.433 422.9 687.198 426.744 684.248 429.662L650.738 463.153L573.726 540.16C561.021 552.908 544.522 570.968 531.211 582.066C525.918 578.523 512.694 564.054 507.156 558.695C497.441 549.292 487.545 539.236 477.936 529.64L401.2 452.902C387.117 438.831 372.952 424.757 358.977 410.574C357.26 408.832 356.304 406.982 355.286 404.783Z" fill="#257FB8"/>
<path d="M530.648 0C533.905 1.55463 593.807 62.7166 601.052 69.963L669.086 138.013C680.459 149.395 691.938 160.807 703.275 172.238C704.569 173.546 705.493 174.984 706.454 176.551C701.667 176.403 684.452 177.394 682.542 175.782C673.016 167.759 655.071 149.166 646.547 140.645L573.601 67.7223C559.664 53.7613 545.274 38.8919 531.076 25.2987C527.213 27.8504 517.521 38.6967 513.699 42.5967C485.173 71.7017 455.452 100.218 426.899 129.223L397.482 158.704C390.554 165.582 386.817 169.949 379.143 176.56C371.481 176.8 362.641 176.017 355.196 176.654C360.129 168.829 361.462 168.878 367.826 162.567L383.82 146.764L414.587 115.945L491.481 39.0787C504.177 26.371 517.329 11.7674 530.648 0Z" fill="#F59A1E"/>
<path d="M488.494 220.651C494.269 219.925 502.222 220.585 505.39 226.108C513.389 240.058 503.97 250.477 493.306 257.745C498.362 264.795 506.834 274.234 512.786 280.684C513.829 272.648 513.397 267.547 512.482 259.551C513.565 259.551 519.033 259.532 519.658 260.008C525.522 264.489 520.667 280.215 518.402 285.324C522.077 287.425 525.814 289.287 529.432 291.461C528.951 292.864 528.743 294.469 527.359 294.94C522.766 296.504 516.235 293.236 512.184 291.399C505.696 294.824 502.333 296.495 494.692 296.902C485.203 297.407 473.576 295.048 468.532 286.028C466.326 281.994 465.856 277.236 467.231 272.849C469.448 265.609 475.51 261.591 481.74 258.189C478.444 253.682 475.046 248.918 473.969 243.354C471.622 231.229 476.285 222.986 488.494 220.651ZM498.975 290.751C502.683 290.15 503.316 289.775 506.749 288.29L507.082 288.143C506.371 287.191 482.956 261.66 483.984 262.1C480.1 266.199 475.53 270.938 476.004 276.951C476.966 289.141 489.465 291.352 498.975 290.751ZM491.445 252.971C501.641 245.168 505.413 227.579 489.854 225.128C485.922 227.581 483.386 228.727 482.265 233.639C481.045 238.985 483.544 244.867 486.474 249.218C487.549 250.815 488.679 253.018 490.476 253.6L491.445 252.971Z" fill="#2C3D51"/>
<path d="M418.783 217.557C420.162 216.919 421.633 217.749 422.707 218.594C423.927 221.951 423.144 283.292 423.093 290.967C425.931 290.861 427.935 290.335 429.75 292.732C429.781 293.867 429.192 294.391 428.494 295.33C425.534 297.234 419.551 297.214 416.112 296.79C413.702 296.493 414.217 294.836 412.625 292.58C408.96 293.095 403.884 296.639 399.613 296.98C393.882 297.437 390.371 295.972 386.01 292.639C372.001 281.938 373.47 256.574 387.007 245.997C395.179 239.613 403.173 239.491 412.908 240.569C413.069 235.684 412.945 230.633 412.886 225.731C409.761 225.004 404.53 224.563 402.884 221.618L403.237 220.726C406.402 218.494 414.371 218.163 418.783 217.557ZM397.688 289.236C403.24 289.725 412.853 290.07 412.955 282.182C413.1 270.923 413.197 259.471 412.89 248.213C408.43 245.767 407.535 245.261 402.546 245.114C398.77 245.933 396.615 246.412 393.622 248.937C383.463 257.508 383.346 280.347 395.016 287.649C395.894 288.199 396.785 288.728 397.688 289.236Z" fill="#2C3D51"/>
<path d="M175.356 239.95C210.02 238.493 209.248 293.339 177.598 296.556C164.074 297.35 160.339 291.709 152.689 281.872C151.738 270.568 149.405 261.255 156.459 250.557C161.072 243.562 167.377 241.467 175.356 239.95ZM178.982 290.728C182.371 289.988 185.344 288.627 187.027 285.499C193.462 273.541 192.969 244.548 174.252 245.122C160.14 248.915 160.957 266.539 163.453 278.284C165.216 286.578 170.571 290.586 178.982 290.728Z" fill="#2C3D51"/>
<path d="M759.486 239.958C794.448 238.578 792.866 293.507 761.913 296.599C748.071 296.834 738.398 289.907 735.976 275.655C732.98 257.993 740.632 242.737 759.486 239.958ZM763.114 290.738C774.086 288.261 774.649 277.092 774.681 267.696C774.717 257.291 771.027 244.663 758.385 245.104C754.078 246.249 751.552 247.357 749.391 251.438C745.622 258.562 745.335 269.979 747.47 277.68C749.856 286.296 754.105 291.066 763.114 290.738Z" fill="#2C3D51"/>
<path d="M590.085 220.533C592.663 220.598 595.518 220.527 598.123 220.521C601.385 227.621 603.463 235.563 606.093 242.967C611.616 258.485 617.363 273.831 622.008 289.638C624.013 289.985 627.077 290.388 628.956 291.138C630.172 291.623 630.125 293.013 630.454 294.515L629.786 295.088C624.874 295.966 608.093 296.229 603.635 294.095L603.452 292.256C605.864 290.547 608.928 290.14 611.778 289.639C610.619 284.758 608.578 279.464 606.835 274.756C604.538 274.596 602.179 274.499 599.877 274.376C580.063 274.59 580.569 269.75 573.246 289.517C576.294 290.04 580.825 290.297 582.479 293.263C579.76 296.508 562.545 296.084 558.463 295.267C557.947 294.112 558.187 292.861 558.281 291.57C559.998 289.828 563.782 290.351 564.393 289.067C574.775 267.283 580.585 242.591 590.085 220.533ZM580.585 268.527C584.886 268.468 589.322 268.355 593.613 268.416C597.241 268.451 601.082 268.424 604.689 268.536C604.037 265.857 592.987 232.117 593.18 232.318C588.482 243.531 584.954 256.845 580.585 268.527Z" fill="#2C3D51"/>
<path d="M342.63 240.493C356.129 239.721 363.026 246.883 363.253 260.109C363.431 270.406 363.312 280.668 363.24 290.965C365.083 290.912 367.399 290.572 368.861 291.448C369.315 293.321 368.815 293.709 368.163 295.79C364.619 296.304 359.766 297.261 356.407 296.365C354.282 295.799 355.193 293.776 353.931 291.754C350.228 292.159 345.861 296.573 340.524 296.947C335.105 297.328 331.814 296.311 327.559 293.059C323.146 287.937 319.98 280.57 324.334 274.399C330.836 265.184 343.544 264.612 353.62 262.482C353.014 258.027 352.029 251.495 348.184 248.563C342.149 243.96 332.913 249.719 326.768 250.225C325.232 248.725 324.907 247.546 325.819 245.752C329.442 242.862 337.993 241.177 342.63 240.493ZM337.817 289.553C344.813 290.583 347.841 290.708 353.054 285.738C353.184 281.861 353.938 271.85 352.297 268.918C351.238 268.349 350.708 268.552 349.507 268.708C342.779 269.337 331.281 272.612 332.475 282.238C332.776 284.662 335.744 288.197 337.817 289.553Z" fill="#2C3D51"/>
<path d="M897.898 240.486C918.897 240.312 919.179 251.95 918.646 268.99C918.422 276.06 918.537 283.787 918.604 290.909L922.394 290.949C924.179 291.949 923.642 291.362 924.498 293.109L923.96 294.353C920.51 297.263 915.405 297.818 911.37 295.747C909.888 294.987 909.413 292.638 908.964 291.109C900.44 297.291 891.316 299.99 882.614 292.388C880.088 289.792 879.185 288.113 878.564 284.529C875.505 266.756 896.139 264.222 909.251 262.88C909.084 255.569 907.586 251.973 901.802 247.342C891.712 246.564 891.232 247.573 881.983 250.569L881.31 250.052C880.814 247.53 880.469 247.786 881.247 245.704C884.233 243.029 893.743 241.201 897.898 240.486ZM893.576 289.514C899.949 290.688 907.481 290.835 908.906 282.645C909.287 280.487 909.559 270.283 908.739 268.673C907.142 268.487 906.991 268.453 905.425 268.714C901.797 269.064 899.229 269.262 895.904 270.831C886.952 275.052 884.133 283.75 893.576 289.514Z" fill="#2C3D51"/>
<path d="M997.798 240.006C999.009 239.899 1000.23 239.87 1001.44 239.917C1018.54 240.577 1018.94 256.528 1018.26 269.419C1012.1 268.726 988.288 268.922 982.353 269.439C982.88 272.637 983.287 275.225 984.415 278.301C988.872 290.463 1002.61 292.131 1013.44 287.366C1014.09 286.976 1014.41 287 1015.17 286.853L1016.21 287.684C1017.76 292.77 1010.92 294.765 1007.07 295.695C991.947 299.346 976.726 293.984 973.876 276.936C970.671 257.753 977.796 243.437 997.798 240.006ZM982.306 262.811C986.894 263.164 990.924 263.108 995.528 263.068C999.395 263.058 1005.13 263.213 1008.85 262.928C1008.82 254.549 1007.14 246.081 997.428 245.127C987.411 247.008 984.712 253.574 982.306 262.811Z" fill="#2C3D51"/>
<path d="M245.407 240.409C267.837 238.709 262.623 274.874 262.531 290.089C264.975 290.278 268.414 290.227 270.193 291.769L270.321 294.586L269.597 295.146C264.865 295.916 248.411 296.285 244.569 293.965L244.397 292.833C246.555 290.673 249.643 290.418 252.568 289.93C252.639 280.622 252.977 271.012 252.519 261.734C252.14 254.057 249.728 249.338 242.238 247.435C236.211 248.686 234.479 249.442 229.386 252.597L228.462 253.364C227.85 256.735 228.287 285.24 228.401 289.998C230.795 290.21 233.602 290.114 235.148 291.76L235.045 294.457C234.468 295.217 234.234 295.584 233.103 295.524C229.193 295.317 212.618 297.385 211.974 292.799C213.434 290.551 215.937 290.379 218.596 289.756C218.606 278.175 219.039 263.576 218.229 252.316C215.496 249.647 212.36 248.642 211.851 245.005C213.454 243.413 224.292 240.123 226.364 241.373C227.361 243.247 227.103 245.415 227.084 247.584C235.041 243.439 236.699 242.576 245.407 240.409Z" fill="#2C3D51"/>
<path d="M115.659 220.666C121.298 220.177 136.577 220.483 140.998 223.166C142.756 226.301 141.603 233.743 141.326 237.725C133.45 237.678 136.051 235.568 132.907 229.644L132.635 229.137C131.742 228.697 130.837 228.284 129.92 227.898C123.912 225.398 115.785 225.208 109.788 227.95C87.5823 238.103 88.4467 281.061 111.456 290.006C117.327 292.288 125.321 291.506 130.985 288.9C135.82 285.807 136.152 278.211 140.869 277.797C142.621 279.48 142.254 289.104 142.227 292.044C126.687 297.114 111.322 300.447 97.0989 290.225C79.9735 277.917 79.332 250.707 91.1761 234.933C97.1276 227.127 105.931 221.996 115.659 220.666Z" fill="#2C3D51"/>
<path d="M656.396 239.989C660.666 239.88 669.644 240.109 672.369 243.973C673.178 246.78 674.269 253.224 670.396 253.846C664.779 251.701 665.395 245.101 660.447 244.603C655.164 244.072 647.398 246.526 647.862 253.197C648.295 259.47 657.451 262.133 662.352 264.806C668.496 267.916 675.354 271.342 675.61 279.177C676.064 293.266 664.68 296.483 652.763 296.647C646.531 296.227 643.363 295.697 638.086 292.355C637.804 289.396 636.274 281.573 639.714 280.613C644.897 282.4 645.299 293.707 657.952 290.874C661.736 290.026 668.282 286.08 666.564 281.866C661.846 270.269 640.648 271.851 638.534 256.874C636.859 245.337 646.917 241.212 656.396 239.989Z" fill="#2C3D51"/>
<path d="M706.547 239.986C711.114 239.88 717.221 239.657 720.833 242.877C723.689 245.419 724.545 250.334 721.69 253.238C720.024 253.773 720.734 253.77 719.001 253.166C717.519 251.982 717.122 249.984 716.532 248.141C711.897 244.719 704.851 243.074 700.2 247.894C692.6 256.611 705.388 261.185 711.454 264.149C716.934 266.829 726.92 272.284 726.58 279.399C725.944 292.682 715.207 296.442 703.629 296.653C696.562 296.256 694.521 295.548 688.101 292.757C688.205 288.923 688.043 284.236 689.306 280.708L690.94 280.817C693.096 282.229 695.21 286.78 696.624 289.147C703.133 291.452 705.409 291.495 712.2 289.97C732.917 270.906 677.478 276.049 691.138 246.143C697.063 242.602 699.772 240.99 706.547 239.986Z" fill="#2C3D51"/>
<path d="M820.86 240.005C826.544 240.027 828.982 240.014 834.431 242.075C834.781 245.4 836.399 254.202 831.66 254.718C828.726 253.187 828.136 250.579 827.087 247.582C819.425 244.872 810.488 246.076 807.022 253.686C798.436 272.542 807.56 294.032 830.36 288.213C832.777 287.419 833.727 286.693 835.82 288.309C835.961 289.315 835.971 290.362 835.198 291.009C820.275 303.552 795.868 295.261 795.106 274.432C794.735 264.268 794.657 257.453 800.915 249.601C805.744 243.542 813.745 240.66 820.86 240.005Z" fill="#2C3D51"/>
<path d="M943.977 228.872C945.642 228.795 946.759 228.606 948.33 229.147C950.518 231.566 949.432 237.639 949.468 241.81L965.409 241.883C965.503 243.449 965.404 245.972 965.389 247.616L949.364 247.709C949.62 256.617 947.741 281.033 951.812 288.596C953.519 291.776 959.563 287.651 963.812 287.865C965.529 288.946 965.216 289.13 966.281 291.228C963.4 295.124 955.91 296.776 951.389 296.868C941.373 297.074 939.775 287.793 939.817 279.914C939.875 269.001 939.89 258.198 939.953 247.346C937.5 247.461 934.3 247.779 932.16 246.489L932.014 245.606C933.992 242.601 936.508 242.965 939.467 241.729C942.077 239.162 943.09 232.62 943.977 228.872Z" fill="#2C3D51"/>
<path d="M291.406 240.32L292.049 240.283C295.176 242.299 293.524 243.703 294.593 246.766C302.324 246.021 316.3 227.897 315.306 251.281C309.388 249.598 300.763 248.641 296.089 253.549C294.514 257.002 295.231 284.512 295.551 289.708C298.927 290.502 303.499 290.634 307.042 290.859L308.449 291.059C309.525 292.464 309.253 291.803 309.47 293.571C308.515 295.207 307.421 295.879 305.483 295.643C302.394 295.267 279.52 296.002 278.25 295.194C276.737 288.381 284.433 291.718 285.043 289.29C286.89 281.934 285.893 258.108 285.442 251.814C284.202 251.051 282.995 250.235 281.824 249.369C279.985 248.004 279.705 247.518 279.423 245.545C281.109 242.784 287.229 242.261 291.406 240.32Z" fill="#2C3D51"/>
<path d="M861.202 240.498C861.907 241.153 862.168 241.843 862.21 242.819C862.873 258.334 861.766 274.146 862.513 289.635C865.018 290.451 870.019 290.578 870.854 293.7C868.547 296.508 853.133 295.538 849.124 295.487C846.624 295.432 845.935 295.617 844.358 294.118L844.447 293.138C846.806 290.421 849.489 290.417 852.919 289.95C852.971 278.492 853.441 262.987 852.679 251.857C850.053 249.898 847.156 248.657 847.61 245.133C849.578 242.323 857.465 241.359 861.202 240.498Z" fill="#2C3D51"/>
<path d="M176.128 344.449C178.375 344.381 182.551 344.723 184.937 344.841C190.138 348.161 190.312 350.173 191.729 355.892C190.51 360.007 189.413 361.99 186.671 365.287C180.825 367.707 178.91 367.798 172.813 367.89C173.102 371.28 172.243 374.989 173.267 377.616C174.765 379.158 174.734 378.712 177.334 379.133C178.43 379.875 178.413 380.351 178.402 381.491C175.722 382.474 167.488 382.14 164.998 380.923C164.851 379.616 164.717 380.206 165.399 379.094C166.692 378.783 166.881 378.785 167.986 378.089C168.274 375.031 168.443 351.293 167.887 348.946C166.499 347.909 164.734 346.911 164.699 345.173C166.391 344.269 173.72 344.468 176.128 344.449ZM173.221 365.601C178.602 365.96 179.289 365.669 184.081 363.111C186.96 359.458 187.066 357.635 186.488 352.9C186.423 352.368 186.352 351.835 186.276 351.304L182.04 347.635C178.372 346.954 176.985 346.838 173.251 346.816C172.679 352.02 172.839 360.309 173.221 365.601Z" fill="#F59A1E"/>
<path d="M370.525 354.744C374.289 354.609 375.716 354.545 379.523 355.195C385.049 360.935 388.205 367.561 384.048 375.644C382.953 377.773 379.538 380.983 377.169 381.542C358.303 385.639 355.442 360.073 370.525 354.744ZM374.541 379.429C376.753 378.707 378.476 378.146 379.343 375.812C382.336 367.755 381.764 356.863 370.935 357.229C367.382 359.935 366.802 360.931 366.007 365.391C364.965 371.237 367.36 379.575 374.541 379.429Z" fill="#F59A1E"/>
<path d="M227.901 354.717C230.786 354.503 232.578 354.885 235.393 355.338C239.119 358.63 239.84 359.334 241.262 364.135C243.234 370.79 239.395 380.447 232.019 382.001C226.816 382.576 224.878 381.865 220.564 379.097C216.873 372.705 217.504 369.853 217.749 362.5C218.899 360.595 220.342 358.511 221.582 356.632C223.83 355.806 225.58 355.327 227.901 354.717ZM230.558 379.751C233.271 378.709 234.402 377.954 235.65 374.969C237.875 369.648 237.392 360.127 231.423 357.326C230.732 357.002 228.168 357.284 227.296 357.369C224.772 358.775 224.117 359.728 222.21 361.951C221.634 369.23 221.059 378.561 230.558 379.751Z" fill="#F59A1E"/>
<path d="M575.324 354.844C579.484 354.62 580.998 354.56 585.179 355.093C587.141 357.384 588.718 359.1 589.699 362.004C592.371 369.928 590.304 378.959 581.692 381.784C562.588 384.615 562.609 359.526 575.324 354.844ZM581.29 379.354C589.339 374.342 589.005 356.56 576.404 357.335C573.664 359.033 572.364 360.662 571.879 363.881C570.704 371.709 572.26 379.259 581.29 379.354Z" fill="#F59A1E"/>
<path d="M863.661 344.325C864.533 344.457 865.102 344.719 865.916 345.03C869.351 348.631 876.293 371.3 878.422 377.629C880.213 378.934 882.045 380.424 883.799 381.797C880.025 381.718 876.517 381.89 872.712 381.672C870.478 379.78 876.82 372.953 868.108 371.375C865.055 371.267 860.18 370.8 857.564 372.43C853.242 375.119 857.392 377.986 856.708 381.446C854.313 381.677 850.199 381.756 848.002 380.881L847.913 380.021C851.729 376.934 853.3 369.269 855.8 364.341C858.572 358.886 860.054 349.418 863.661 344.325ZM865.357 368.203C867.07 368.196 868.39 368.38 869.841 367.563C869.956 366.791 865.739 354.692 865.264 352.553L864.303 351.746C862.915 354.302 858.092 365.479 858.754 367.892C860.989 368.38 863.076 368.24 865.357 368.203Z" fill="#F59A1E"/>
<path d="M494.976 344.599C495.246 344.646 495.516 344.693 495.786 344.74C495.9 344.759 497.459 345.231 497.461 345.234C502.942 353.174 504.439 365.055 508.196 374.021C509.063 376.09 511.148 378.602 512.311 380.428L511.857 381.296C509.903 381.947 505.296 382.089 503.345 381.35C501.718 377.27 509.176 371.393 496.61 371.334C489.655 371.382 488.679 370.329 486.576 377.483C487.382 378.983 487.78 379.428 487.742 381.1C485.734 382.374 480.934 381.698 478.225 381.557L478.601 381.145C486.704 372.048 488.491 356.061 494.976 344.599ZM489.117 368.193L496.97 368.213C498.654 368.164 500.189 368.369 501.413 367.374C500.63 364.6 496.868 353.347 494.986 351.727C492.822 356.647 490.871 362.988 489.117 368.193Z" fill="#F59A1E"/>
<path d="M434.645 403.976C436.319 404.445 439.278 405.192 440.502 406.322C469.557 433.139 496.654 463.676 525.465 490.666L524.285 493.901C518.167 488.341 514.091 483.804 508.375 478.177C494.521 464.547 480.782 450.8 467.159 436.938C458.807 428.512 441.517 412.559 434.645 403.976Z" fill="#2C3D51" fill-opacity="0.988235"/>
<path d="M685.877 355.251C690.549 354.969 693.065 354.873 697.71 355.218L701.505 360.408C701.703 365.465 701.448 370.727 701.703 375.806C701.839 378.446 703.149 380.018 702.951 382.468C701.03 383.074 697.126 381.198 695.831 381.35C690.09 382.027 690.732 382.98 685.047 381.61C682.631 379.921 682.516 379.37 682.025 376.626C679.864 364.511 693.034 369.49 696.734 364.625C697.606 354.738 687.85 359.308 682.928 358.424C683.116 357.031 684.484 356.401 685.877 355.251ZM690.862 379.082C692.449 378.831 694.84 378.875 695.795 377.442C697.757 374.495 697.945 371.689 696.082 368.56C694.934 368.084 694.824 368.134 693.55 368.183C690.418 369.462 687.876 370.401 686.65 373.803C685.454 377.132 688.158 378.402 690.674 379.034L690.862 379.082Z" fill="#F59A1E"/>
<path d="M437.878 354.875C446.516 355.771 444.526 369.075 444.52 374.885C444.518 376.684 445.986 381.191 445.453 382.144C443.286 382.193 442.033 381.773 439.964 381.701C436.349 381.575 431.3 383.13 427.989 381.234C425.706 379.926 425.407 378.033 424.79 375.668C426.552 364.154 437.326 368.559 440.653 363.719C440.508 362.32 437.711 358.925 437.279 358.697C433.711 356.805 426.995 359.016 423.519 359.91L429.08 355.26C432.006 355.028 434.943 354.966 437.878 354.875ZM433.771 379.335C435.803 378.977 437.881 378.925 439.024 377.025C440.954 373.818 441.194 372.025 439.464 368.755C438.117 367.97 437.797 368.099 436.16 368.132C432.957 369.604 426.585 372.397 429.958 377.327C430.781 378.53 432.405 378.938 433.771 379.335Z" fill="#F59A1E"/>
<path d="M277.492 354.815C283.853 354.323 284.231 354.471 288.371 359.314C288.809 361.652 289.549 365.363 288.98 367.578C286.381 369.539 280.824 368.162 277.229 367.963C270.301 367.58 270.601 372.949 274.626 376.916C277.289 379.54 282.269 378.7 285.987 378.439C287.239 378.547 287.19 378.573 288.326 379.163L288.359 379.907C286.682 381.253 283.988 381.859 281.898 382.268C263.625 385.845 261.7 356.739 277.492 354.815ZM279.565 366.064C282.192 365.986 282.167 366.439 283.732 365.077C285.125 361.764 283.526 359.16 280.434 357.308C279.853 356.959 277.289 357.242 276.505 357.315C273.878 358.875 270.534 361.42 271.878 364.694C274.232 366.731 276.35 366.179 279.565 366.064Z" fill="#F59A1E"/>
<path d="M541.719 91.9458C544.078 94.6822 546.584 97.1368 549.178 99.6456C572.468 122.152 594.662 145.745 617.901 168.307C616.862 169.19 616.549 169.392 615.369 170.081C610.911 166.185 607.023 162.09 602.93 157.846C581.858 135.999 558.839 115.112 538.284 92.8381C540.821 92.9174 539.975 93.2295 541.719 91.9458Z" fill="#2C3D51" fill-opacity="0.988235"/>
<path d="M710.713 355.179C715.99 355.096 713.438 355.178 717.305 356.658C720.291 357.802 727.87 351.343 731.816 356.499C735.976 361.943 733.116 369.308 734.296 375.635C734.781 378.253 736.462 378.714 736.316 381.267L735.788 381.675C734.155 381.723 728.648 382.254 727.677 381.721L727.64 380.125C730.172 376.791 729.206 369.3 729.165 364.51C729.107 357.438 722.019 356.058 718.537 360.258C716.538 362.667 717.165 374.128 717.739 377.724C719.404 379.312 719.331 379.014 719.284 381.189L718.657 381.622C716.783 381.72 712.827 382.087 711.224 381.649C710.749 379.772 711.266 379.877 711.809 377.814C713.077 373.014 711.997 365.422 711.71 360.376C711.632 358.989 710.849 357.954 710.713 355.179Z" fill="#F59A1E"/>
<path d="M409.654 354.842C410.259 354.796 411.419 354.927 411.908 355.29C419.66 361.053 415.488 372.117 418.163 380.837L418.289 381.237C417.302 382.014 411.188 381.923 409.726 381.628C407.687 378.79 411.438 379.722 411.612 375.985C411.849 371.024 412.712 364.139 409.683 359.93C407.372 356.718 401.818 358.476 399.366 360.744C399.455 365.347 399.442 372.452 399.384 377.298C399.38 377.66 400.92 379.165 401.047 381.218C399.676 382.292 394.154 381.672 391.771 382.265L391.363 381.164C391.89 379.264 392.431 379.341 394.215 377.873C395.658 374.52 394.829 364.779 394.656 360.639C393.31 359.004 391.726 357.577 392.702 355.425C394.791 354.756 399.118 357.034 400.515 356.663C404.696 355.554 405.019 355.133 409.654 354.842Z" fill="#F59A1E"/>
<path d="M633.848 354.718C635.199 355.353 634.803 355.282 635.581 357.124C635.476 357.089 645.936 354.709 648.593 354.625C649.543 355.776 650.968 357.958 651.877 359.26C652.367 364.981 652.143 370.313 652.325 376.016C652.44 379.485 653.312 377.545 655.008 379.029C655.16 380.761 655.389 380.309 654.57 381.396C652.252 381.668 647.727 382.565 645.942 381.005L645.889 379.978C646.61 379.349 647.226 378.784 647.92 378.124C648.552 373.672 648.191 365.996 647.8 361.403C644.402 356.782 641.04 358.423 636.259 359.666C636.04 363.934 635.413 374.206 636.52 377.986C637.815 379.183 638.488 379.683 638.076 381.462C636.223 382.333 632.637 381.962 630.57 381.67C628.967 378.795 634.009 365.219 629.254 357.195L629.113 356.955L629.353 356.023C630.752 354.95 632.109 354.943 633.848 354.718Z" fill="#F59A1E"/>
<path d="M828.783 344.836C831.1 344.554 833.48 344.492 835.803 344.483C843.079 344.453 842.693 348.832 842.662 354.022C836.529 348.125 839.013 346.32 829.545 346.893C821.522 354.783 829.164 358.289 835.96 362.219C842.244 365.851 847.109 370.822 842.49 378.133C840.48 381.312 835.824 381.967 832.52 382.55C828.95 382.48 824.591 381.572 821.011 380.954C820.937 377.727 821.089 374.349 821.183 371.111C822.796 373.23 824.607 376.025 826.147 378.258C828.616 379.564 831.716 381.288 834.42 379.997C848.174 373.427 833.157 366.222 827.619 362.145C819.392 356.093 818.218 349.246 828.783 344.836Z" fill="#F59A1E"/>
<path d="M601.323 354.699L602.513 355.193C605.974 362.383 596.803 386.872 615.291 376.223C615.416 371.532 615.615 366.293 615.443 361.593C615.354 359.242 612.859 357.758 613.062 355.521C614.842 354.74 617.865 354.996 619.937 355.022L619.989 363.838C619.874 370.783 620.234 375.013 620.667 381.836L619.9 382.553C616.492 382.726 616.763 382.322 615.276 379.644C613.918 379.244 609.262 382.637 606.011 382.325C595.889 381.353 598.802 367.276 598.301 360.332C598.16 358.423 597.205 357.864 597.288 355.687C598.713 354.669 599.376 354.915 601.323 354.699Z" fill="#F59A1E"/>
<path d="M503.135 109.012L505.294 111.192C503.986 112.809 498.625 117.857 496.851 119.628L477.785 138.678L453.463 163.018C449.325 167.156 445.078 171.46 440.813 175.472C439.759 176.464 436.1 177.502 434.54 177.992C439.368 172.238 453.145 159.104 458.699 153.58L503.135 109.012Z" fill="#132538" fill-opacity="0.988235"/>
<path d="M259.082 342.223C261.066 342.143 263.358 341.825 264.867 342.981L264.905 344.199C262.565 347.144 259.173 344.633 256.955 346.739C256.195 349.164 256.379 352.301 256.382 354.896C258.66 355.028 260.907 354.847 262.575 356.277L262.438 357.111C260.875 358.282 258.568 358.197 256.56 358.341C256.804 364.514 256.076 370.961 256.73 377.003C256.927 378.82 258.187 379.17 259.731 380.12C258.718 382.67 251.4 382.007 248.887 381.598L248.401 380.639C248.853 379.057 249.042 379.347 250.688 378.258C252.305 375.416 251.498 364.358 251.094 360.746C250.837 358.452 250.403 358.52 248.821 357.312C248.234 355.331 250.122 355.496 250.826 353.818C253.231 348.083 252.694 345.036 259.082 342.223Z" fill="#F59A1E"/>
<path d="M327.382 354.709C330.821 354.523 334.862 353.764 337.242 356.483C337.554 358.185 337.814 358.942 337.267 360.625L336.571 360.804C335.705 359.362 335.438 358.753 334.172 357.6C330.834 356.595 326.719 356.483 325.544 360.552C327.78 367.634 346.599 367.173 336.543 380.956C333.5 381.875 332.186 382.11 329.023 382.514C325.635 382.067 322.081 381.865 320.276 378.549C320.087 376.904 320.231 376.694 321.045 375.231C324.307 375.7 329.964 384.816 334.813 376.839C335.401 370.352 323.244 369.082 321.19 362.803C319.795 358.539 324.096 355.993 327.382 354.709Z" fill="#F59A1E"/>
<path d="M770.645 354.668C773.328 354.474 777.791 354.178 780.067 355.693C780.693 357.401 780.699 357.774 780.808 359.603L780.291 359.849C779.07 358.971 777.332 357.554 775.865 357.089C772.096 355.89 766.349 359.475 770.677 363.18C775.646 367.437 787.046 369.862 781.33 378.931C779.55 381.752 775.755 381.987 772.78 382.458C769.163 382.162 767.79 381.709 764.371 380.696C764.324 379.055 764.147 376.762 765.008 375.498C766.062 376.384 767.19 377.178 768.375 377.871C771.011 379.427 773.438 380.484 776.486 379.688C777.676 378.684 779.237 375.349 778.397 374.442C774.362 370.083 766.976 368.543 764.465 362.619C762.925 358.985 767.644 355.496 770.645 354.668Z" fill="#F59A1E"/>
<path d="M302.611 354.632C305.539 354.542 309.647 354.037 311.813 355.984C312.314 357.589 312.418 357.805 312.468 359.458C310.747 359.678 308.967 356.928 306.913 356.909C304.018 356.881 301.091 357.389 300.675 360.623C302.633 365.693 313.455 367.559 314.137 373.645C314.921 380.642 308.5 382.021 303.486 382.478C299.959 382.021 298.311 382.279 296.178 379.738C295.814 378.2 295.596 377.863 296.093 376.449C300.13 376.384 304.031 383.603 310.114 377.357C311.321 371.259 297.977 369.209 296.542 363.106C295.34 357.988 298.316 355.864 302.611 354.632Z" fill="#F59A1E"/>
<path d="M197.45 355.19C202.325 354.745 200.489 354.765 203.623 356.494C205.504 357.532 208.831 353.722 212.774 355.416C213.916 357.005 213.722 356.301 213.69 358.07C211.681 359.991 207.896 358.123 205.113 359.857C203.604 362.447 204.608 373.807 204.284 378.323C206.157 378.87 206.736 378.944 208.18 380.357L208.027 381.08C205.598 382.234 199.066 382.26 196.634 381.292C196.713 379.318 196.686 379.908 198.312 378.123C199.313 373.216 199.012 362.659 197.178 357.816C196.824 356.882 197.173 356.367 197.45 355.19Z" fill="#F59A1E"/>
<path d="M668.177 348.611C669.664 350.117 669.393 352.653 669.497 354.938C671.747 355.02 674.837 354.864 676.648 355.993L676.601 356.811C674.561 358.084 671.925 358.035 669.492 358.209C669.513 364.934 669.586 371.658 669.706 378.381C672.911 378.549 675.375 378.389 678.22 379.797C677.614 380.084 676.998 380.356 676.377 380.612C660.713 387.185 665.155 371.328 664.607 362.307C664.544 361.222 663.067 357.33 662.623 356.106C664.278 353.198 666.068 351.17 668.177 348.611Z" fill="#F59A1E"/>
<path d="M886.675 339.945C888.225 340.206 889.697 341.435 890.736 342.553C904.041 356.836 901.682 374.922 890.303 387.121C889.514 388.229 889.525 388.171 888.361 388.921L887.776 388.34C888.272 384.748 892.991 379.053 893.842 374.387C896.023 362.48 895.287 355.482 888.878 345.391C888.001 344.011 886.79 341.668 886.675 339.945Z" fill="#F59A1E"/>
<path d="M811.97 340.316L812.743 340.618C813.364 342.207 805.597 353.545 805.728 358.794C805.916 366.275 804.339 373.38 809.079 380.45C810.222 382.156 812.973 387.13 813.489 388.825L811.83 389.48C804.449 382.6 802.11 377.849 801.187 367.381C800.591 360.616 802.084 351.5 806.448 346.11C807.565 344.731 810.405 342.092 811.97 340.316Z" fill="#F59A1E"/>
<path d="M553.532 354.745C555.896 354.436 557.807 354.642 560.067 355.292C561.064 356.465 561.899 358.602 561.377 360.117C554.962 360.559 550.368 350.059 545.483 367.088C548.166 376.199 548.589 379.07 559.164 378.546C560.792 378.526 561.058 378.404 562.332 379.274L561.951 380.122C540.795 392.282 533.175 356.7 553.532 354.745Z" fill="#F59A1E"/>
<path d="M458.42 343.284L458.718 343.311C461.564 345.686 459.153 370.702 459.987 376.007C460.329 378.182 461.626 378.434 462.927 380.141L462.529 381.299C460.575 381.949 456.412 381.798 454.171 381.822C453.658 381.417 453.299 380.858 452.888 380.326C453.268 378.825 454.88 379.305 455.436 377.803C455.993 376.294 455.743 347.703 455.25 346.925C454.826 346.253 452.685 346.128 451.85 345.969L451.479 345.224C452.604 344.169 456.647 343.633 458.42 343.284Z" fill="#F59A1E"/>
<path d="M526.426 354.761C530.314 354.298 532.804 354.715 536.573 355.31C536.599 357.717 536.51 360.316 536.479 362.741C530.868 355.92 527.261 354.962 521.537 362.332C521.018 367.304 521.131 367.902 521.605 372.921C523.711 375.543 525.335 378.08 528.691 378.76C531.082 378.59 534.323 377.801 535.753 379.901L534.996 380.936C527.897 384.522 521.042 381.325 517.325 374.737C516.712 363.377 516.512 360.723 526.426 354.761Z" fill="#F59A1E"/>
<path d="M749.083 348.148C751.076 349.755 750.586 352.557 750.581 354.95C753.091 354.989 756.364 354.635 758.165 356.295L757.794 357.121C755.701 358.269 753.008 358.092 750.575 358.147C750.617 363.843 750.299 373.19 751.014 378.487C753.545 378.511 757.21 378.277 759.392 379.299C756.756 382.849 747.042 384.036 746.462 377.325C745.951 371.368 746.332 365.423 746.306 359.409C741.874 355.057 746.535 354.191 749.083 348.148Z" fill="#F59A1E"/>
<path d="M854.235 216.46C863.928 215.55 866.449 223.991 858.614 229.353C847.929 230.078 846.515 221.266 854.235 216.46Z" fill="#2C3D51"/>
<path d="M347.595 355.007C348.935 354.902 349.788 355.02 351.13 355.143C356.113 358.679 351.517 370.252 352.967 376.303C353.769 379.652 355.062 377.972 355.806 380.579C354.973 381.679 355.302 381.329 353.507 381.641C351.227 381.751 348.826 382.015 346.718 381.177C347.842 377.886 348.545 375.726 349.115 372.259C349.705 368.665 346.828 356.821 347.595 355.007Z" fill="#F59A1E"/>
<path d="M594.479 432.718L615.447 411.825C618.746 408.56 620.604 403.957 625.432 405.547C617.07 414.944 606.271 424.802 597.345 433.926C596.045 433.822 595.633 433.425 594.479 432.718Z" fill="#050E18"/>
<path d="M577.417 449.923C579.108 450.452 579.416 450.424 581.201 450.358C576.06 455.361 563.736 466.942 559.45 472.044L555.604 471.741C557.143 469.459 574.859 451.955 577.417 449.923Z" fill="#2C3D51" fill-opacity="0.988235"/>
<path d="M577.417 449.923C581.582 445.04 589.762 437.236 594.48 432.718C595.634 433.425 596.046 433.822 597.346 433.926C592.492 439.599 586.238 444.557 581.201 450.358C579.416 450.424 579.108 450.452 577.417 449.923Z" fill="#050E18" fill-opacity="0.988235"/>
<path d="M531.055 496.411C533.78 493.056 536.599 490.64 539.793 487.752L542.899 488.564C538.921 492.545 534.996 496.578 531.118 500.659C527.908 498.076 526.942 496.985 524.285 493.901L525.465 490.666C527.328 492.508 529.218 494.517 531.055 496.411Z" fill="#050E18" fill-opacity="0.988235"/>
<path d="M555.604 471.741L559.45 472.044C554.299 477.65 547.67 483.157 542.899 488.564L539.793 487.752C543.687 481.568 551.49 476.995 555.604 471.741Z" fill="#050E18"/>
<path d="M519.207 92.9983C522.912 89.6858 527.15 83.7346 530.679 82.1279C532.501 82.2568 532.078 82.3549 533.602 83.8927C532.673 84.4281 532.02 84.6624 531.509 85.5959C529.953 86.1547 524.661 91.7517 523.11 93.2988C521.395 93.5952 520.722 93.8572 519.207 92.9983Z" fill="#050E18" fill-opacity="0.984314"/>
<path d="M515.328 96.5444C515.714 98.1673 515.907 98.7475 515.912 100.437L505.294 111.192L503.135 109.012C507.402 105.058 511.357 100.796 515.328 96.5444Z" fill="#050E18" fill-opacity="0.988235"/>
<path d="M533.602 83.8926C536.259 86.607 538.91 89.4018 541.719 91.9457C539.975 93.2293 540.821 92.9173 538.284 92.838C535.695 90.7559 533.409 88.318 531.509 85.5958C532.02 84.6623 532.673 84.428 533.602 83.8926Z" fill="#050E18" fill-opacity="0.984314"/>
<path d="M617.901 168.307C619.853 170.268 624.493 174.258 624.524 176.826C621.403 177.168 617.201 172.138 615.369 170.08C616.549 169.392 616.862 169.19 617.901 168.307Z" fill="#2C3D51" fill-opacity="0.988235"/>
<path d="M348.888 343.37C350.296 342.546 352.105 343.007 352.947 344.404C353.789 345.802 353.351 347.616 351.964 348.475C351.051 349.041 349.904 349.072 348.962 348.556C348.02 348.041 347.428 347.058 347.412 345.984C347.397 344.911 347.961 343.912 348.888 343.37Z" fill="#F59A1E"/>
<path d="M515.327 96.5443C516.79 95.0154 517.553 94.3177 519.207 92.998C520.722 93.8569 521.395 93.595 523.11 93.2986C520.697 95.7824 518.456 98.0726 515.911 100.436C515.907 98.7473 515.714 98.1671 515.327 96.5443Z" fill="#2C3D51" fill-opacity="0.988235"/>
<path d="M0 221.081C15.4744 219.761 34.9929 221.251 51.196 220.463C51.6053 223.721 53.7308 233.829 49.386 234.662C46.5851 233.185 45.9103 230.057 44.8504 227.096C36.1188 226.609 26.166 226.724 17.3326 226.647C17.2973 235.38 17.006 245.856 17.5401 254.428C23.8622 254.238 31.6697 254.573 37.7023 253.978C38.7214 251.017 39.1639 247.933 42.2386 246.68C45.8462 248.201 45.3759 264 44.3263 267.129C42.7842 267.701 42.0746 267.508 40.4434 267.368C37.74 265.533 38.5182 263.235 37.8999 260.156C31.1634 260.082 24.0436 259.887 17.3399 260.104C17.3039 266.603 16.8821 284.371 17.8545 289.766C20.655 289.937 29.8612 290.059 31.3939 291.676L31.2808 294.468C29.1489 296.36 4.84318 295.513 0 295.481V291.104C2.46009 290.622 5.33018 290.398 7.18219 288.883C8.78684 285.442 7.94301 233.466 7.79253 226.803L0 225.246V221.081Z" fill="#2C3D51"/>
<path d="M1039.17 288.145C1046.72 292.372 1060.23 292.495 1059.6 282.582C1058.84 270.424 1030.15 271.589 1032.18 254.046C1033.69 240.894 1045.67 240.271 1056.37 239.951C1065.93 239.665 1069.26 250.934 1064.74 254.117C1060.84 253.545 1060.1 248.402 1055.43 245.117C1052.71 244.944 1046.61 244.752 1044.89 246.418C1031.97 258.909 1058.24 263.755 1064.24 269.823C1067.01 272.623 1067.53 273.619 1069 275.769V285.736C1059.99 298.534 1045.55 299.64 1032.14 292.892C1031.7 289.965 1030.01 282.291 1033.85 281.597C1036.58 282.837 1037.62 285.478 1039.17 288.145Z" fill="#2C3D51"/>
</svg>
