<svg width="1342" height="492" viewBox="0 0 1342 492" fill="none" xmlns="http://www.w3.org/2000/svg">
<path d="M105.267 0.691906C130.754 -2.05825 182.032 3.35428 204.049 17.569C217.744 26.0032 237.616 53.8559 239.225 69.9853C242.932 111.121 248.424 161.478 216.662 193.499C210.01 200.204 192.248 213.018 188.581 219.13C188.544 222.421 188.366 225.939 188.478 229.337C188.658 236.086 187.147 248.054 192.224 253.265C198.332 259.532 215.553 257.475 223.885 257.574C236.3 257.723 251.857 259.239 261.463 250.396C265.403 246.769 265.649 241.988 265.69 236.99C265.684 196.532 265.584 156.05 265.717 115.592C265.043 102.328 267.743 90.7327 269.738 77.9187C274.251 48.9346 299.223 28.0059 326.786 20.8539C345.64 15.9617 369.214 16.8505 389.439 16.8453L445.249 16.858C499.05 16.8766 553.84 16.3123 607.537 17.0206L607.578 155.192C607.601 239.862 618.031 293.315 549.532 355.109C492.545 406.516 452.024 402.425 380.117 402.315L293.306 402.319L160.117 402.374C135.856 402.403 108.523 403.034 84.4687 402.208C84.4038 385.934 84.4392 369.661 84.5749 353.388L384.415 353.355C400.076 353.394 416.085 353.431 431.54 353.382C486.405 353.209 544.559 304.726 552.328 249.999C552.977 245.426 552.679 238.734 552.597 233.961C525.592 235.826 496.226 233.575 468.954 234.435C456.051 234.842 441.399 234.668 428.559 234.226L428.646 193.991C469.31 193.787 512.015 193.38 552.572 194.146C552.643 185.52 552.252 168.45 553.074 160.415L428.647 160.488C428.54 147.38 428.546 134.271 428.662 121.163C468.188 120.136 512.858 121.1 552.648 121.111C552.791 105.128 553.864 92.7351 542.292 79.9224C531.85 68.7217 511.21 64.4867 496.389 64.4302C455.044 64.3502 413.905 64.3404 372.544 64.324C337.331 64.3095 316.848 80.8337 315.732 117.071C314.761 157.191 315.746 196.886 315.391 237.088C315.152 264.224 292.415 288.916 267.185 296.573C259.817 298.495 252.093 298.535 244.528 298.427C210.136 297.938 175.341 299.267 140.991 298.314C141.86 287.721 141.263 268.505 141.244 257.252C141.13 230.949 141.149 204.646 141.3 178.344C156.545 178.338 166.393 179.134 178.568 167.785C184.685 162.381 189.299 152.06 188.776 143.638C187.674 125.924 190.795 95.4972 187.815 79.076C185.291 65.1677 160.809 49.8095 147.028 51.0839C134.798 50.9393 122.094 51.3643 109.925 51.1644C87.9574 50.8034 69.419 49.363 52.3344 66.3696C42.4765 76.1827 42.8489 81.2398 43.0042 94.6994C43.0579 100.645 43.0497 106.592 42.9795 112.537C32.646 112.6 9.26594 112.014 0.191701 113.017C0.0296692 80.0385 -2.97219 54.7925 22.0791 28.8892C26.7608 24.0482 31.5527 18.7673 37.5012 15.3284C56.8472 4.14394 83.5723 1.61648 105.267 0.691906Z" fill="black"/>
<path d="M995.907 16.2902C1013.45 15.686 1033.31 16.172 1051.1 16.1709L1156.11 16.1732L1239.58 16.1857C1264.89 16.1909 1294 14.4093 1318.61 21.2628C1324.11 23.3516 1331.43 28.1863 1333.37 34.033C1340.17 54.5275 1332.74 64.4711 1315.72 72.3533C1341.41 81.2695 1334.63 93.0744 1336.23 115.575C1336.37 117.523 1340.5 118.304 1339.51 121.35C1334.95 122.232 1303.37 121.733 1297.81 121.499C1293.71 96.0858 1304.29 83.7422 1268.3 84.6437C1257.28 84.9199 1243.82 84.8169 1232.65 84.7113L1232.75 52.3482C1246.51 52.234 1260.26 52.2027 1274.02 52.2541C1279.71 52.2512 1286.16 52.4217 1291.83 51.9813C1293.56 51.846 1293.49 51.3317 1294.55 49.8296C1291.27 46.0344 1279.83 47.3867 1274.76 47.3952L1243.86 47.4102L1144.76 47.4363C1103.7 47.4409 1060.81 46.7355 1019.88 47.4424L976.208 90.1876C965.466 100.716 953.931 112.403 942.829 122.411C915.497 122.463 889.883 124.496 862.289 123.48C859.344 116.26 848.596 96.9702 844.485 89.2415C831.507 65.4395 818.825 41.4788 806.438 17.3656C822.32 16.7035 840.465 17.1478 856.42 17.4042C861.017 24.7495 867.305 37.7364 871.574 45.9113C881.634 65.406 891.857 84.8136 902.251 104.132C910.192 97.6027 919.53 88.2889 927.078 81.0903L970.771 39.6335C978.391 32.4351 987.972 22.9316 995.907 16.2902Z" fill="black"/>
<path d="M946.758 299.797C961.866 299.691 979.159 299.271 994.077 300.339C998.458 307.338 1005.55 316.676 1010.47 323.557L1041.85 367.277C1042.62 360.891 1042.3 348.946 1042.3 342.214L1042.35 300.055C1052.74 299.551 1065.72 299.846 1076.27 299.846L1136.01 299.845L1184.27 299.851C1202.64 299.872 1222.14 298.98 1239.67 304.984C1256.56 310.769 1260.08 331.778 1252.11 346.099C1248.49 352.606 1242.81 355.414 1235.92 357.301C1245.69 362.686 1253.3 361.904 1258.07 374.119L1340.3 374.083C1340.65 385.533 1340.61 396.992 1340.19 408.439L1231.79 409.523L1219.8 409.392C1216.8 396.677 1220.7 386.752 1214.22 374.774C1202.88 368.858 1178.76 371.176 1164.62 370.849C1164.31 359.766 1164.55 347.495 1164.55 336.322C1171.82 336.285 1217.43 337.333 1220.4 334.95L1219.55 332.861C1215.74 330.179 1203.85 331.322 1198.87 331.338L1165.89 331.305C1138.08 331.263 1107.53 330.571 1080.01 331.489C1080.98 355.528 1080.11 384.124 1080.22 408.53C1063.38 408.611 1048.74 408.774 1031.95 407.685C1017 390.426 1000.35 361.533 985.12 344.562C984.221 364.577 985.021 388.027 984.759 408.505C972.07 408.633 959.388 408.637 946.705 408.519L946.758 299.797Z" fill="black"/>
<path d="M637.209 16.805C647.077 16.4707 657.246 16.5103 667.141 16.6206C690.886 16.8853 713.621 15.051 736.927 20.2334C766.069 26.7119 764.876 56.3184 741.321 69.515C755.531 75.1331 758.377 77.388 764.974 90.7249C776.037 71.2674 793.749 41.9411 803.264 22.2726C811.087 36.3098 818.701 50.4683 826.085 64.7426C820.97 73.382 815.212 85.822 810.497 94.9888C806.477 102.809 799.27 115.783 796.247 123.551C776.706 124.054 754.954 123.643 735.248 123.643L637.162 123.588L637.154 89.8011C660.085 88.9056 684.033 90.4297 707.038 89.9278C710.021 89.8628 721.399 91.2163 723.274 89.5295C723.7 87.785 724.061 86.9747 723.346 85.3358C721.766 84.0105 699.673 84.6017 695.313 84.6135L637.153 84.7512L637.131 54.8001C664.695 53.6567 693.201 55.2488 720.815 54.7418C722.304 54.7144 723.812 53.6326 724.638 52.4314L724.356 51.0818C721.674 49.0349 718.664 49.4195 715.346 49.5454C689.509 50.5267 662.865 48.6978 637.099 49.8385L637.209 16.805Z" fill="black"/>
<path d="M785.781 297.923C818.595 298.192 845.462 305.696 852.583 341.512C839.239 341.564 825.9 341.543 812.556 341.447C806.732 317.142 773.321 318.433 767.019 340.946C764.429 350.192 764.075 364.135 768.783 372.881C771.485 377.987 776.148 381.771 781.695 383.357C797.375 387.997 808.516 381.561 812.995 366.2C819.73 365.746 829.291 366.002 836.235 365.983L853.613 365.963C847.645 395.685 826.635 408.093 797.578 410.13C765.039 412.352 727.615 399.34 723.654 362.256C719.247 320.943 747.825 300.217 785.781 297.923Z" fill="black"/>
<path d="M994.884 162.203C997.395 164.146 1012.77 198.13 1015.53 203.819C1014.3 206.897 1012.85 210.105 1011.43 213.101C1003.57 229.649 996.7 246.908 988.746 263.374C954.148 264.248 916.186 263.466 881.319 263.473L872.053 263.386L871.987 229.467C880.643 228.68 893.634 229.118 902.559 229.151L955.243 229.436C955.144 233.98 955.321 238.377 955.472 242.912C968.45 216.244 982.431 189.016 994.884 162.203Z" fill="black"/>
<path d="M999.521 156.069C1012.2 155.999 1029.88 155.494 1042.14 156.401C1053.82 178.775 1064.47 205.763 1075.61 228.691C1077.69 232.965 1089.73 259.136 1090.59 262.648L1089.56 263.371C1075.54 263.534 1061.52 263.537 1047.49 263.382L1015.19 193.344C1010.64 183.693 1001.5 166.059 998.373 156.945L999.521 156.069Z" fill="black"/>
<path d="M635.751 155.578C643.765 155.387 652.039 155.366 660.052 155.46C701.011 155.941 742.403 154.599 783.309 155.732C783.414 164.154 783.978 178.016 783.244 186.009C782.031 187.123 780.962 186.807 778.942 186.94C747.8 187.556 715.569 186.893 684.342 187.016C668.118 187.081 649.163 187.337 633.206 186.721C633.253 180.928 632.421 160.161 633.881 156.105L635.751 155.578Z" fill="black"/>
<path d="M797.303 191.646C816.438 191.755 835.966 191.467 855.042 191.949C855.292 202.007 854.577 215.034 855.41 224.676L804.103 224.613L745.432 224.664C745.275 213.735 745.288 202.805 745.465 191.877C762.01 191.291 780.515 191.769 797.303 191.646Z" fill="black"/>
<path d="M1057.02 56.8697C1071.43 56.7136 1085.84 56.6955 1100.26 56.8155C1101.2 74.9794 1100.82 102.231 1100.3 120.63L1100.17 121.874C1098.15 122.944 1062.17 122.522 1056.97 122.522C1056.86 100.638 1056.88 78.7532 1057.02 56.8697Z" fill="black"/>
<path d="M860.604 373.96C867.863 374.648 890.191 374.255 898.284 374.148C910.75 373.984 931.504 374.875 943.295 373.918C943.413 385.367 943.433 396.817 943.361 408.267C941.098 408.694 922.422 408.526 919.163 408.526L860.636 408.412C860.367 397.174 860.571 385.259 860.604 373.96Z" fill="black"/>
<path d="M1104.97 336.577C1117.73 336.405 1130.5 336.385 1143.26 336.518L1143 408.421C1130.47 408.776 1117.5 408.582 1104.92 408.545C1104.46 385.331 1104.65 359.834 1104.97 336.577Z" fill="black"/>
<path d="M1126.5 52.2031C1152.58 53.0557 1183.15 52.1301 1209.67 52.32C1209.7 63.2164 1209.67 74.1126 1209.57 85.0082C1182.38 85.5554 1153.68 85.2706 1126.44 85.0082L1126.5 52.2031Z" fill="black"/>
<path d="M860.479 336.423C886.992 337.198 916.423 336.254 943.342 336.527C943.401 341.886 943.978 365.581 942.843 369.184L941.21 369.462L889.753 369.436C880.677 369.431 869.529 369.129 860.584 369.626C860.63 358.559 860.598 347.49 860.479 336.423Z" fill="black"/>
<path d="M676.545 191.614C689.234 191.507 701.923 191.468 714.612 191.497L714.572 263.114C705.077 264.061 686.466 263.454 676.492 263.418L676.545 191.614Z" fill="black"/>
<path d="M1109.33 191.548C1121.76 191.317 1134.71 191.477 1147.17 191.455C1146.76 197.67 1147.09 207.873 1147.09 214.326C1147.17 230.114 1147.11 245.902 1146.9 261.688L1146.84 262.629C1144.46 264.095 1114.36 263.457 1109.2 263.434C1108.89 240.381 1108.66 214.501 1109.33 191.548Z" fill="black"/>
<path d="M1257.14 336.636C1283.86 335.828 1313.34 336.404 1340.27 336.391C1340.44 345.143 1341.05 361.255 1340.02 369.421L1257.53 369.302C1257.57 362.129 1258 342.386 1257.14 336.636Z" fill="black"/>
<path d="M879.077 191.598C903.629 191.11 930.489 191.669 955.204 191.827C955.25 201.487 955.657 213.978 955.053 223.419C953.893 224.404 953.342 224.075 951.486 224.142C926.502 224.63 896.782 224.873 871.962 224.159C872.198 213.662 872.06 202.506 872.087 191.958L879.077 191.598Z" fill="black"/>
<path d="M1126.5 90.2407L1209.62 90.2899L1209.59 122.416C1182.24 122.85 1153.87 122.465 1126.46 122.429L1126.5 90.2407Z" fill="black"/>
<path d="M872.191 155.295C897.024 154.311 930.035 155.016 955.151 155.324C955.197 165.798 955.19 176.273 955.138 186.747C927.439 186.89 899.746 186.862 872.053 186.665C871.915 176.208 871.961 165.75 872.191 155.295Z" fill="black"/>
<path d="M860.656 300.817C869.312 300.241 882.028 300.564 890.939 300.558C908.435 300.505 925.931 300.549 943.426 300.691L943.374 331.557L860.427 331.636C861.017 325.527 860.617 308.035 860.656 300.817Z" fill="black"/>
<path d="M1257.61 300.831C1283.64 299.906 1314.12 300.644 1340.39 300.652C1340.77 311.238 1340.46 320.985 1340.32 331.545L1257.48 331.522C1256.84 323.605 1257.49 309.204 1257.61 300.831Z" fill="black"/>
<path d="M1172.35 438.256C1186.22 436.791 1200.79 446.675 1202.75 460.938C1203.7 468.082 1201.78 475.312 1197.4 481.037C1191.82 488.313 1185.05 490.543 1176.41 491.65C1139.83 494.488 1132.7 441.895 1172.35 438.256ZM1177.95 478.798C1182.96 477.457 1186.86 473.523 1188.16 468.502C1189.46 463.48 1187.96 458.146 1184.24 454.539C1180.5 450.931 1175.13 449.608 1170.16 451.075C1162.6 453.304 1158.23 461.197 1160.37 468.786C1162.5 476.374 1170.33 480.837 1177.95 478.798Z" fill="black"/>
<path d="M802.379 438.285C810.228 437.827 817.402 439.948 823.468 444.618C839.934 457.304 834.229 484.409 814.465 490.161C811.527 491.015 809.12 491.314 806.169 491.672C798.621 491.782 791.644 490.275 785.683 485.432C780.136 480.958 776.614 474.434 775.932 467.335C774.234 450.799 786.831 439.89 802.379 438.285ZM807.428 478.976C812.615 477.896 816.786 474.056 818.288 468.978C819.796 463.899 818.393 458.405 814.635 454.672C810.878 450.939 805.376 449.572 800.313 451.112C792.949 453.352 788.654 460.99 790.556 468.448C792.464 475.907 799.9 480.546 807.428 478.976Z" fill="black"/>
<path d="M1239.07 440.031C1242.39 439.904 1246.01 439.947 1249.36 439.919C1253.79 450.609 1256.01 461.778 1260.12 472.272C1263.14 465.007 1267.38 448.44 1270.07 440.003C1274.8 439.927 1279.53 439.948 1284.26 440.068C1282.56 444.425 1281.36 448.431 1280.02 452.885C1275.56 463.582 1271.32 479.023 1267.1 490.431L1254.03 490.411C1250.81 480.578 1247.67 470.717 1244.61 460.827C1241.02 470.662 1237.5 480.525 1234.06 490.412L1220.54 490.391C1215.59 474.351 1209.44 456.177 1205.3 440.118C1209.46 439.804 1214.64 439.969 1218.87 439.994C1222.29 449.5 1224.82 461.972 1227.99 472.006C1231.88 462.793 1235.52 449.891 1239.07 440.031Z" fill="black"/>
<path d="M733.504 439.971C738.724 439.796 743.695 439.934 748.908 440.058C744.416 447.942 735.976 457.926 730.573 466.28L730.416 490.354C726.553 490.549 719.845 491.553 717.195 489.176L717.071 486.725L716.894 466.317C711.457 457.696 703.693 447.707 697.542 439.371L697.522 450.928L686.211 450.979C686.217 463.625 686.493 477.93 685.902 490.425L672.833 490.371C672.249 478.37 672.676 462.796 672.663 450.525C668.905 450.765 665.6 450.741 661.836 450.705L661.895 440.104C676.741 439.224 698.441 439.934 713.753 439.986C716.763 443.456 720.769 449.505 723.523 453.405C726.691 449.771 730.606 444 733.504 439.971Z" fill="black"/>
<path d="M998.654 74.418C1005.65 80.1023 1013.64 89.0966 1020.08 95.5819C1029.25 104.804 1038.47 114.094 1047.39 123.546C1038.81 123.818 1029.32 123.633 1020.67 123.644C1011.82 123.727 1002.96 123.686 994.11 123.521C989.165 116.684 979.034 106.611 973.021 98.9897C981.401 90.3772 989.946 82.6636 998.654 74.418Z" fill="black"/>
<path d="M891.916 16.3745C902.822 15.7827 933.728 15.6509 943.748 16.5523C951.027 23.8689 958.286 31.7183 965.44 39.2016C961.099 42.5982 955.827 47.5527 951.617 51.2883C946.64 55.3912 941.971 59.6268 937.177 63.9374L911.504 37.7607C906.487 32.7398 895.569 22.1648 891.326 17.231L891.916 16.3745Z" fill="black"/>
<path d="M411.602 440.084C415.909 439.828 420.653 439.963 424.999 439.998C424.935 446.563 425.734 487.73 423.93 490.4L411.8 490.389C405.736 484.023 392.634 466.713 386.605 459.237C386.704 469.627 386.613 480.018 386.332 490.405L373.075 490.388C372.865 473.596 372.881 456.803 373.124 440.012L385.932 439.948C391.858 445.536 406.21 464.34 411.42 471.263C411.866 461.433 411.601 450.028 411.602 440.084Z" fill="black"/>
<path d="M1327.3 439.822L1340.12 439.974C1340.54 450.83 1340.88 480.73 1339.99 490.407L1327.39 490.329C1323.83 486.827 1305.59 463.342 1302.29 458.952C1301.96 469.04 1302.09 480.229 1302.03 490.398L1288.53 490.385C1288.47 473.57 1288.55 456.755 1288.74 439.942L1301.69 440.014C1305.3 443.119 1322.75 465.558 1326.86 470.73C1327.47 461.718 1327 449.374 1327.3 439.822Z" fill="black"/>
<path d="M550.833 440.055C563.598 439.74 574.79 437.834 585.512 444.707C591.199 454.752 590.388 465.542 578.116 469.582C582.373 475.385 589.603 484.984 594.23 490.149C591.346 490.357 587.79 490.362 584.845 490.444L577.807 490.37C574.35 486.474 567.82 475.62 564.583 470.648C564.189 476.781 564.237 484.104 564.137 490.335C559.811 490.491 555.131 490.354 550.776 490.309L550.833 440.055ZM573.79 460.096C577.759 451.643 571.339 450.198 564.451 449.732C564.082 457.637 562.235 466.844 573.79 460.096Z" fill="black"/>
<path d="M965.775 440.016C970.483 439.914 975.198 439.897 979.907 439.965C982.241 444.461 984.963 451.968 986.956 456.949C991.409 468.021 995.75 479.137 999.98 490.296C995.494 490.519 990.064 490.402 985.5 490.427C984.248 486.333 984.005 481.924 979.821 480.864L963.231 481.087C962.201 484.118 960.896 487.392 959.768 490.419C954.548 490.469 950.811 490.507 945.564 489.961C950.47 475.693 959.795 454.253 965.775 440.016ZM971.546 471.646C973.329 471.645 976.713 471.899 978.084 471.093C977.48 467.895 974.457 458.556 973.113 455.436C971.152 460.028 968.267 465.658 967.946 470.442C969.355 471.833 969.1 471.407 971.546 471.646Z" fill="black"/>
<path d="M349.817 439.998C353.959 439.806 358.93 439.963 363.137 439.988L363.221 449.267C363.309 460.225 365.531 478.313 357.321 486.015C349.685 493.179 328.839 493.342 322.542 484.935C316.012 476.214 317.53 451.039 318.442 440.039C322.625 439.921 327.138 439.998 331.349 439.988C331.884 450.114 330.562 467.327 332.686 476.301C354.373 494.195 349.81 450.402 349.817 439.998Z" fill="black"/>
<path d="M1005.02 440.074C1006.79 440.038 1011.12 440.145 1013.22 439.92C1032.37 437.864 1053.6 443.472 1041.23 467.291C1038.93 471.703 1033.33 472.653 1028.14 473.239L1018.6 473.382C1018.66 479.046 1018.58 484.71 1018.33 490.37C1013.93 490.448 1009.34 490.347 1004.92 490.316C1005.29 473.968 1005 456.512 1005.02 440.074ZM1018.68 462.966C1022.92 462.947 1025.76 463.297 1029.47 461.158C1033.8 450.923 1026.53 450.599 1018.8 450.019C1018.73 454.295 1018.6 458.701 1018.68 462.966Z" fill="black"/>
<path d="M817.409 229.366C830.098 229.19 842.78 229.178 855.469 229.329C855.587 239.932 855.968 253.059 855.364 263.401C842.623 263.513 829.888 263.5 817.146 263.364C817.802 255.925 817.304 237.876 817.409 229.366Z" fill="black"/>
<path d="M91.6558 455.15C100.063 454.394 99.6279 457.432 105.17 457.847L105.732 456.273C107.336 455.281 115.255 455.769 117.805 455.793C117.954 467.313 117.945 478.835 117.777 490.356C114.722 490.491 110.226 490.858 107.237 490.297C105.521 489.975 105.534 489.223 104.679 487.631C102.638 488.666 100.309 490.22 98.1492 490.713C88.5383 492.909 79.6704 486.854 77.4153 477.641C76.1661 472.689 76.9694 467.443 79.6442 463.093C82.7932 458.015 86.2897 456.439 91.6558 455.15ZM98.5328 480.95C102.795 480.497 105.946 476.771 105.688 472.492C105.43 468.212 101.853 464.892 97.5682 464.955C94.6172 464.999 91.9293 466.661 90.5705 469.282C89.2118 471.903 89.402 475.059 91.0663 477.497C92.7299 479.936 95.5982 481.262 98.5328 480.95Z" fill="black"/>
<path d="M745.445 229.343C758.114 229.153 770.79 229.16 783.459 229.366L783.315 263.14C774.128 264.069 755.117 263.449 745.425 263.387C745.307 252.039 745.32 240.691 745.445 229.343Z" fill="black"/>
<path d="M452.887 439.965C457.842 439.799 462.346 439.928 467.285 440.072C471.54 449.835 476.399 460.712 479.741 470.78C483.629 462.919 488.944 448.632 492.587 440.061C497.319 439.867 502.57 439.953 507.344 439.929C505.578 443.02 502.563 450.892 500.716 454.767C496.24 465.893 489.878 478.974 484.951 490.3C481.798 490.449 478.101 490.403 474.897 490.445C467.379 474.137 460.094 456.515 452.887 439.965Z" fill="black"/>
<path d="M611.828 438.789C621.203 438.136 624.081 439.038 632.72 442.675C630.444 446.607 629.491 448.277 627.985 452.526C627.201 452.158 626.408 451.811 625.606 451.487C621.584 449.819 615.154 447.319 612.936 452.98C614.747 459.897 624.602 458.003 632.798 465.77C638.087 480.63 631.12 490.371 615.362 491.266C607.188 491.266 603.485 489.761 596.5 485.829C597.65 483.101 600.341 478.393 601.815 475.628C606.289 477.901 615.836 483.743 619.764 478.003C620.756 476.554 620.743 475.363 620.427 473.696C613.152 465.621 591.459 470.617 600.403 447.215C602.049 442.909 607.75 440.137 611.828 438.789Z" fill="black"/>
<path d="M1051.79 440.06C1061.68 439.852 1071.58 439.847 1081.46 440.045L1081.35 450.871C1076 450.951 1070.66 450.885 1065.32 450.674V459.196C1070.34 459.171 1075.52 459.311 1080.56 459.379C1080.52 463.344 1080.45 466.115 1080.97 470.03C1077.42 470.134 1068.22 469.329 1065.57 470.699L1065.33 472.619C1065.27 475.147 1064.75 478.238 1067.48 478.886C1071.16 479.761 1077.46 479.076 1081.36 478.962C1081.49 482.634 1081.36 486.72 1081.31 490.427L1051.74 490.396L1051.79 440.06Z" fill="black"/>
<path d="M818.609 155.579C830.583 155.266 843.186 155.447 855.22 155.461C855.744 161.561 855.875 180.668 855.213 186.286L854.308 186.678C842.098 186.838 829.579 186.684 817.343 186.663C816.779 179.964 816.989 162.831 817.645 156.301L818.609 155.579Z" fill="black"/>
<path d="M511.943 439.97C521.71 439.896 531.477 439.905 541.243 439.999L541.27 450.964C536.146 450.99 530.682 451.16 525.623 450.518L525.432 459.211C530.341 459.22 535.251 459.194 540.161 459.132L540.123 470.152C535.25 470.276 530.313 469.001 526.432 470.892C525.001 473.017 525.483 474.016 525.464 476.882C525.423 477.842 525.628 477.996 526.167 478.782C529.943 479.484 537.228 479.063 541.321 478.958L541.159 490.377C531.422 490.44 521.685 490.424 511.948 490.33L511.943 439.97Z" fill="black"/>
<path d="M203.696 434.892C207.578 434.8 211.682 434.854 215.585 434.839L215.968 459.904C219.677 457.021 223.931 454.625 228.797 454.595C231.633 454.553 234.357 455.704 236.305 457.767C242.669 464.446 240.818 480.993 240.597 490.329C236.781 490.449 232.518 490.364 228.663 490.373L228.645 480.627C228.668 477.716 229.142 467.735 226.782 466.147C213.116 456.95 215.674 483.47 215.587 490.389C211.689 490.448 207.601 490.348 203.687 490.311L203.696 434.892Z" fill="black"/>
<path d="M923.478 438.809C931.361 438.358 933.308 438.357 940.666 441.002L940.712 455.259C933.544 450.728 924.292 448.776 918.121 456.363C915.655 459.404 914.495 463.295 914.881 467.19C915.845 476.463 925.984 480.232 933.984 477.604C936.095 476.911 938.463 475.159 940.541 474.902L940.758 477.212L940.633 489.454C931.452 491.61 924.272 492.499 915.413 488.031C902.488 481.508 897.248 465.952 903.956 453.036C907.871 445.492 915.504 441.214 923.478 438.809Z" fill="black"/>
<path d="M840.518 440.072C850.518 439.895 860.525 439.868 870.525 439.991L870.617 450.754L853.843 450.979C854.072 453.545 854.138 456.708 854.262 459.331L868.846 459.394C868.919 462.897 869.056 465.983 868.597 469.464L867.417 470.036C863.056 470.097 858.584 470.041 854.21 470.039C854.19 476.827 854.033 483.614 853.744 490.396L840.531 490.351L840.518 440.072Z" fill="black"/>
<path d="M262.864 455.206C278.519 453.451 285.302 459.7 286.72 474.899L259.501 474.825C262.362 481.587 261.755 481.226 268.949 482.966C275.191 479.262 275.958 479.308 283.264 479.385C285.039 479.561 284.542 479.256 285.458 480.306C285.27 484.64 279.091 489.043 275.219 489.994C268.817 491.568 262.301 491.916 256.432 488.495C252.382 486.094 249.485 482.146 248.409 477.56C245.696 466.454 251.746 457.539 262.864 455.206ZM270.805 468.39C273.359 468.349 273.147 468.785 274.6 467.44C273.773 463.82 269.899 462.35 266.465 462.283C264.258 463.267 262.387 463.834 261.124 465.902L261.347 467.079C264.336 468.853 267.248 468.404 270.805 468.39Z" fill="black"/>
<path d="M1111.4 440.004C1122.94 439.735 1135.28 439.942 1146.88 439.962C1147.15 443.716 1146.99 447.029 1146.87 450.789C1143.29 450.802 1139.71 450.781 1136.14 450.725C1136.46 460.005 1136.19 471.387 1136.18 480.82L1136.06 490.258C1131.74 490.484 1126.87 490.381 1122.5 490.384L1122.54 450.814C1119.12 450.669 1114.79 450.8 1111.29 450.807L1111.4 440.004Z" fill="black"/>
<path d="M90.2381 78.6937C97.8063 78.3244 108.667 78.161 110.786 87.1395C112.899 96.0944 111.169 105.856 101.478 108.611C92.1195 108.835 81.2529 110.354 79.7971 98.0161C78.7433 89.0868 79.9604 80.2126 90.2381 78.6937Z" fill="black"/>
<path d="M132.123 78.735C150.245 77.7043 157.964 84.2494 151.034 103.309C149.914 106.388 146.352 107.702 143.39 108.635C141.638 108.674 139.885 108.698 138.132 108.706C120.461 108.774 121.44 100.707 122.024 86.0904C124.96 80.7722 126.408 79.7559 132.123 78.735Z" fill="black"/>
<path d="M435.023 439.974L448.287 439.916C448.413 456.112 448.652 474.341 448.062 490.399C443.66 490.429 439.259 490.382 434.86 490.259C434.714 473.498 434.768 456.735 435.023 439.974Z" fill="black"/>
<path d="M642.547 440.034C646.798 439.905 651.274 439.958 655.547 439.941C655.697 456.766 655.651 473.593 655.415 490.417L642.519 490.351L642.547 440.034Z" fill="black"/>
<path d="M179.281 445.909L191.237 445.869L191.339 455.672L198.475 455.819L198.449 465.555L191.338 465.604L191.249 489.179L190.849 490.026C188.438 490.776 182.024 490.454 179.178 490.413C178.973 482.713 179.378 474.132 178.457 466.626C178.52 467.135 172.718 461.338 175.47 455.829L178.427 455.556C179.419 453.936 179.213 448.267 179.281 445.909Z" fill="black"/>
<path d="M128.959 445.951L140.818 445.981L140.897 455.67L148.038 455.86C148.061 457.957 148.341 462.656 147.373 464.257C145.593 467.198 144.636 464.621 141.954 465.586C140.182 468.097 140.894 484.353 140.851 488.693C140.805 489.012 140.458 489.778 140.318 490.121C137.318 490.812 132.131 490.451 128.875 490.354C128.849 483.545 129.524 472.538 128.044 466.115C128.115 466.421 118.964 461.092 127.963 454.697C129.48 452.215 129.029 448.955 128.959 445.951Z" fill="black"/>
<path d="M1066.03 153.943C1091.19 152.83 1124.39 153.742 1149.99 153.731L1190.12 153.725C1204.72 153.734 1219.53 153.274 1233.82 156.407C1246.85 159.264 1250.39 162.823 1257.21 173.441C1257.65 168.319 1257.55 160.582 1257.61 155.259C1278.89 154.783 1300.37 155.368 1321.66 155.057C1327.53 154.971 1333.9 154.895 1339.73 155.392C1341.13 156.725 1341 157.809 1341.5 159.936V169.597C1340.4 172.725 1340.37 182.968 1340.28 186.685C1314.83 186.691 1289.22 186.72 1263.76 186.589C1260.9 186.575 1258.69 187.089 1256.78 189.143L1256.96 190.22C1257.39 190.617 1257.9 191.088 1258.49 191.634C1279.1 191.878 1322.15 191.833 1340.4 191.739C1340.52 202.506 1340.48 213.275 1340.27 224.041C1315.07 224.793 1282.8 224.411 1257.53 223.997C1257.55 215.765 1257.86 203.495 1256.95 195.638C1251.78 205.155 1248.25 207.778 1238.37 211.778C1248.15 215.76 1254.89 217.965 1257.69 229.344C1282.69 229.522 1316.02 228.205 1340.23 229.696C1341.01 237.146 1340.37 255.613 1340.16 263.454C1301.3 263.474 1260.36 264.167 1221.67 263.322C1220.49 255.03 1221.13 234.055 1216.73 229.808C1209.57 222.892 1178.43 225.175 1166.98 225.198C1166.6 214.518 1166.76 202.689 1166.73 191.935C1173.93 191.834 1218.71 192.783 1221.51 190.907C1221.55 188.636 1221.77 189.469 1220.46 187.598C1218.41 186.278 1185.4 187.154 1180.52 187.068C1142.52 186.392 1103.94 187.875 1065.97 186.877C1065.86 176.004 1066.01 164.839 1066.03 153.943Z" fill="black"/>
</svg>
