<svg width="951" height="567" viewBox="0 0 951 567" fill="none" xmlns="http://www.w3.org/2000/svg">
<path d="M768.462 82.9053C784.714 82.5231 798.218 95.3417 798.682 111.588C799.142 127.835 786.395 141.404 770.152 141.949C753.793 142.499 740.104 129.638 739.639 113.275C739.17 96.9122 752.098 83.2903 768.462 82.9053Z" fill="#353437"/>
<path d="M205.055 433.922C237.502 431.749 238.023 485.312 207.947 486.236C200.752 486.496 195.396 486.246 189.659 481.175C179.536 472.226 179.19 451.454 187.997 441.55C192.732 436.225 198.164 434.256 205.055 433.922ZM220.907 451.01L219.581 448.014C217.29 443.991 213.711 441.147 209.229 439.93C205.532 438.887 201.569 439.423 198.281 441.409C188.454 447.319 187.05 465.363 193.034 473.889C202.64 487.569 219.245 480.901 221.861 465.497C222.678 460.66 222.351 455.699 220.907 451.01Z" fill="#353437"/>
<path d="M587.275 434.396C597.5 433.71 614.974 433.681 613.465 450.483C613.066 454.953 608.348 458.518 604.707 460.87C611.255 467.42 612.662 477.269 614.844 486.125L607.326 486.129C606.328 482.331 605.706 478.95 604.995 475.082C602.423 464.986 598.796 463.323 588.38 463.716C587.549 469.723 588.088 479.647 587.93 486.241L581.039 486.018C581.234 476.461 581.285 466.904 581.197 457.345C581.164 450.591 580.937 441.493 581.638 434.914C583.282 434.685 585.571 434.55 587.275 434.396ZM588.232 458.676C594.157 458.578 598.666 459.26 603.337 455.647C613.228 442.162 598.513 439.785 588.492 439.436C587.884 446.419 587.874 451.662 588.232 458.676Z" fill="#353437"/>
<path d="M278.631 434.313L285.065 434.303C285.358 439.484 285.498 444.672 285.484 449.862C285.546 456.017 285.911 468.855 285.234 474.813C285.302 478.542 285.153 482.647 285.089 486.408C282.684 486.301 280.279 486.185 277.876 486.055C269.847 471.349 260.57 459.93 252.495 443.591C251.862 449.775 252.33 456.584 252.422 462.849C252.462 470.643 252.448 478.435 252.379 486.227C250.436 486.246 248.668 486.413 246.861 485.716C245.364 482.93 245.996 440.33 246.185 434.419C248.441 434.356 250.783 434.402 253.047 434.413C258.278 439.524 275.643 468.925 279.178 476.141C278.499 461.542 278.532 448.997 278.631 434.313Z" fill="#353437"/>
<path d="M285.234 474.812C283.532 469.644 283.815 454.477 284.826 449.071L285.484 449.861C285.546 456.016 285.911 468.855 285.234 474.812Z" fill="#4D4C4F"/>
<path d="M849.431 436.814C849.775 434.853 849.394 435.427 850.671 434.392C852.556 433.97 854.302 434.168 856.229 434.27C856.308 451.46 856.011 469.152 856.29 486.236C854.321 486.227 851.906 486.274 849.979 486.144C846.9 483.028 845.076 480.223 842.856 476.494C838.291 468.818 833.244 461.403 828.749 453.693C826.775 450.312 825.317 446.428 823.553 442.928C822.619 455.905 823.311 472.844 823.135 486.246L817.312 486.144C817.21 469.417 816.875 451.179 817.284 434.578C818.993 434.487 824.04 434.011 825.067 435.464C834.423 448.707 842.977 462.668 850.857 476.861C850.016 470.643 850.16 463.881 849.38 458.304L849.431 436.814Z" fill="#353437"/>
<path d="M776.444 434.378C779.685 434.281 781.027 434.247 784.31 434.744C784.728 436.256 785.243 437.76 785.736 439.252C790.946 455.018 796.69 470.48 801.956 486.231C789.646 486.431 792.645 479.572 788.689 469.862L783.878 470.066L771.28 470.136C768.053 475.899 767.333 479.976 765.694 486.255L758.241 486.022C758.928 482.331 761.083 476.391 762.337 472.667C765.123 464.174 768.086 455.74 771.22 447.37C772.358 444.255 774.378 436.03 776.444 434.378ZM772.005 464.259L781.162 464.41C783.242 464.33 785.322 464.228 787.403 464.103C786.367 461.322 780.149 443.303 779.128 442.309C777.721 447.921 774.28 458.958 772.005 464.259Z" fill="#353437"/>
<path d="M72.6904 434.419C75.1004 434.43 77.5104 434.462 79.9195 434.515C82.0263 439.443 83.3966 445.255 85.3339 450.13C90.0684 462.043 93.6338 474.302 98.0753 486.231L90.7218 486.064C87.3928 479.888 86.6782 476.452 84.8551 469.765C83.1755 469.909 81.014 469.909 79.2889 469.951L67.3285 470.104C64.6213 475.644 63.1823 480.385 61.3467 486.222L54.2578 486.083L54.3493 485.614C57.6165 469.616 66.7388 452.542 70.6305 436.537C70.9096 435.389 71.7812 435.005 72.6904 434.419ZM68.0626 464.196L77.1993 464.457C79.1635 464.372 81.1714 464.307 83.1296 464.191C81.9938 460.179 77.138 444.945 75.3618 441.451C74.0417 447.031 70.168 458.463 68.0626 464.196Z" fill="#353437"/>
<path d="M318.469 434.334L326.802 434.467C327.684 436.712 328.406 439.131 329.129 441.442C333.821 456.429 340.253 470.977 344.435 486.129C342.085 486.199 339.582 486.143 337.218 486.125C334.99 481.486 332.954 474.887 331.257 469.885L326.736 470.081C322.305 470.206 318.002 470.039 313.579 469.895C311.558 474.933 309.585 480.961 307.761 486.134C305.386 486.129 302.929 486.046 300.547 485.995C303.515 474.65 309.217 461.672 312.867 450.408C314.404 445.666 316.227 438.525 318.469 434.334ZM314.559 464.158C317.891 464.285 321.224 464.371 324.557 464.415C326.38 464.337 328.461 464.294 330.255 464.136C328.637 459.742 323.701 444.461 321.285 442.322C321.039 447.889 316.604 458.547 314.559 464.158Z" fill="#353437"/>
<path d="M496.688 434.332C499.781 434.245 502.079 433.697 503.472 437.051C509.096 450.625 512.648 465.042 517.979 478.699C518.722 480.603 520.482 483.747 519.804 485.707C517.905 486.445 515.211 486.232 513.103 486.204C511.343 480.107 509.165 475.802 507.081 469.979L501.155 470.127L489.607 469.983C488.246 473.536 487.28 476.995 485.994 480.552C483.937 486.246 481.82 486.366 476.479 485.986C477.287 482.911 478.356 480.181 479.414 477.186C484.262 463.455 488.813 449.597 493.675 435.878C494.032 434.869 495.718 434.618 496.688 434.332ZM490.949 464.12C493.512 464.22 496.284 464.387 498.834 464.411C501.736 464.397 503.24 464.406 506.147 463.891C503.672 459.035 501.801 453.893 500.58 448.58C500.176 446.76 499.734 443.48 499.303 441.929C496.674 446.193 492.625 458.827 490.949 464.12Z" fill="#353437"/>
<path d="M725.597 434.396C726.256 434.367 728.128 434.276 728.304 434.633C733.143 444.189 744.264 477.868 746.316 486.19L739.727 486.125C736.899 481.086 735.553 475.611 733.913 470.081L725.903 470.09C722.328 470.146 719.235 470.076 715.66 469.927C713.723 474.042 712.033 481.23 710.008 486.162C707.738 486.153 705.29 486.032 703.006 485.962C704.831 478.704 708.462 469.454 711.067 462.309C713.621 455.296 717.28 441.538 720.586 435.203C722.007 434.338 723.851 434.474 725.597 434.396ZM727.296 464.35C729.103 464.324 730.635 464.42 732.339 463.813L732.544 463.104C727.57 455.385 728.281 446.552 723.628 441.928C722.458 448.867 720.127 457.27 717.09 463.658C718.59 464.698 725.142 464.367 727.296 464.35Z" fill="#353437"/>
<path d="M657.741 434.303C659.696 434.217 661.298 433.947 662.877 435.012C663.522 440.007 663.207 453.379 663.207 459.018C668.273 451.797 677.615 441.332 683.531 434.492C686.243 434.485 689.169 434.615 691.899 434.683C686.656 442.437 678.86 449.032 673.617 456.526C677.615 462.826 683.378 471.232 687.91 477.06C689.717 479.572 691.997 483.441 693.696 486.143C691.476 486.199 685.918 486.654 684.52 484.834C678.614 477.144 673.659 468.715 667.985 460.82C661.391 470.373 662.965 474.413 663.169 486.208L656.603 486.125C656.812 474.543 656.371 462.479 656.571 450.869C656.645 446.722 656.288 438.794 656.826 434.96L657.741 434.303Z" fill="#353437"/>
<path d="M123.491 434.274C127.405 433.941 134.435 433.646 138.026 435.279C139.381 435.896 140.299 438.805 139.259 440.381C136.322 441.986 131.001 439.359 127.817 439.326C125.413 439.442 122.462 440.815 120.843 442.541C111.35 452.662 132.751 456.44 137.656 461.78C140.354 464.717 141.946 467.02 141.969 471.344C142.022 481.55 135.842 486.055 126.138 486.241C118.938 486.398 116.658 486.473 110.086 483.598C110.403 481.866 110.487 481.462 111.2 479.786C112.677 478.676 113.699 478.815 115.882 479.475C124.042 482.516 137.002 481.773 134.153 469.704C132.285 461.794 113.629 461.799 111.782 450.813C110.174 441.249 115.108 436.581 123.491 434.274Z" fill="#353437"/>
<path d="M404.354 434.64C409.272 434.561 427.889 434.002 431.393 434.796C432.095 436.089 432.057 438.426 431.584 439.794C427.82 441.404 417.794 439.63 413.064 440.471C412.024 440.511 411.649 440.536 410.722 440.048C409.253 445.549 410.712 452.003 410.059 456.136L410.213 457.355C412.75 458.757 426.299 457.419 431.139 458.356C430.782 460.267 431.061 460.609 429.877 461.777C424.065 462.497 416.694 461.635 410.373 462.144C409.69 464.387 410.139 477.552 410.451 480.153C416.217 479.944 421.987 479.818 427.757 479.777C428.457 479.976 432.918 480.129 433.93 480.181C434.109 481.792 434.067 484.425 434.09 486.129L404.07 486.143C405.107 470.647 403.751 450.787 404.354 434.64Z" fill="#353437"/>
<path d="M884.43 434.347C891.233 433.735 896.986 433.395 902.948 436.898C901.908 438.337 901.216 439.786 900.404 441.361C895.755 439.996 885.377 437.563 882.131 443.422C876.55 453.5 893.081 456.034 898.449 460.331C901.258 462.579 903.998 464.847 904.527 468.855C905.837 479.642 899.851 485.145 889.853 486.492C885.377 486.631 876.327 487.314 873.833 483.051C872.942 481.528 874.061 479.252 874.618 477.687C881.063 481.528 893.903 483.882 896.949 475.077C901.272 462.579 878.207 462.767 874.934 452.819C871.795 443.283 876.238 438.04 884.43 434.347Z" fill="#353437"/>
<path d="M535.894 434.477C540.695 434.528 559.794 433.239 562.664 435.11C562.631 437.462 562.993 437.602 561.953 439.361C560.175 440.459 556.585 439.718 553.702 440.167C550.256 440.113 546.774 439.887 543.333 439.703C542.794 446.135 542.831 450.982 543.351 457.397C546.992 457.367 550.841 457.395 554.463 457.195C557.059 457.052 565.348 456.74 561.062 461.684C557.653 463.267 547.308 462.582 543.3 462.168C542.678 470.043 542.91 478.291 542.989 486.218L535.81 486.092C535.652 483.566 535.583 480.808 535.61 478.281C535.768 463.739 535.253 448.99 535.894 434.477Z" fill="#353437"/>
<path d="M359.494 434.444C361.706 434.29 364.557 434.352 366.82 434.336C367.281 449.695 366.835 464.912 367.161 480.236C371.235 479.837 385.158 479.141 388.604 480.464C389.328 482.001 389.166 483.854 389.194 485.614C387.37 486.608 363.499 486.18 359.48 486.167C359.365 468.924 359.37 451.684 359.494 434.444Z" fill="#353437"/>
<path d="M632.494 434.385C634.216 434.287 634.973 434.301 636.668 434.418C637.142 435.124 637.592 483.599 636.873 485.99L635.345 486.283C633.557 486.227 632.248 486.301 630.576 485.646C629.735 484.207 630.288 463.036 630.256 459.737C630.418 452.994 629.921 446.227 630.037 439.491C630.084 436.662 629.712 435.008 632.494 434.385Z" fill="#353437"/>
<path d="M159.344 434.197C161.108 434.204 165.319 433.777 165.726 436.08C163.746 439.274 164.632 461.902 164.56 467.202C164.504 471.348 164.254 482.094 164.72 485.92L164.223 486.245C162.056 486.496 160.595 486.942 159.557 484.806C158.48 469.054 159.76 450.249 159.344 434.197Z" fill="#353437"/>
<path d="M285.669 543.991C289.022 543.679 299.683 543.094 302.656 544.571C303.445 544.966 303.453 545.565 303.628 546.308C303.045 548.175 303.457 547.868 302.163 548.755C298.383 549.363 286.672 550.859 284.226 547.566C283.917 546.15 284.04 545.867 284.413 544.45L285.669 543.991Z" fill="#353437"/>
<path d="M165.727 436.08C166.543 442.882 167.115 480.938 164.721 485.92C164.255 482.094 164.504 471.348 164.561 467.201C164.633 461.902 163.746 439.274 165.727 436.08Z" fill="#4D4C4F" fill-opacity="0.988235"/>
<path d="M430.088 455.633C430.483 456.582 430.812 457.383 431.14 458.356C426.299 457.419 412.75 458.757 410.213 457.355L410.06 456.136C416.135 455.454 424.204 456.59 430.088 455.633Z" fill="#4D4C4F" fill-opacity="0.984314"/>
<path d="M640.968 0H653.747C663.192 6.15225 663.123 6.92176 664.743 17.9375C665.872 25.5843 663.652 81.4869 665.765 83.9522C667 84.1069 667.163 84.0994 668.402 83.9601C677.508 82.8934 697.583 83.2227 706.647 84.1691C724.608 89.2582 718.446 111.187 718.943 125.203C719.18 131.726 710.171 138.439 704.283 138.194C693.575 137.748 675.066 139.871 665.133 137.937C663.35 181.067 666.095 225.614 665.421 268.899C665.013 295.468 702.5 302.353 722.3 293.921C746.293 283.703 742.165 258.716 742.156 237.617C742.189 224.004 742.151 210.391 742.045 196.779C741.868 186.418 739.695 171.495 752.688 168.429C760.405 166.608 774.368 166.605 782.439 167.436C799.499 169.194 797.442 187.322 797.419 199.928L797.349 242.133C797.335 250.396 796.467 268.788 798.631 275.349C806 297.726 836.717 303.906 852.38 285.884C866.092 270.11 857.716 263.518 863.757 246.897C866.371 239.7 877.256 234.685 884.026 232.736C908.242 224.923 916.229 231.212 915.277 256.381C914.683 272.101 915.825 287.88 907.824 302.889C895.635 325.751 875.756 340.482 851.266 347.99C829.422 354.852 805.698 352.186 785.926 340.648C782.875 338.858 780.02 337.035 777.131 335.008C774.438 333.119 771.629 330.432 768.726 328.996C757.34 338.744 737.977 346.822 723.466 349.795C695.539 355.517 656.654 348.235 635.823 327.647C632.266 330.224 628.974 333.231 625.361 335.941C605.988 350.485 583.727 353.77 560.129 350.42C544.071 348.141 523.802 337.37 514.153 323.868C482.939 343.417 438.804 352.844 402.02 351.269C385.871 350.578 370.584 344.988 357.106 336.142C352.799 338.421 348.735 341.527 344.338 343.849C302.158 366.122 230.597 337.266 224.024 287.563C222.495 276.008 223.452 261.426 223.261 249.461C222.915 227.843 223.88 205.914 222.725 184.292C222.259 170.44 223.802 161.445 214.025 150.116C201.149 135.198 187.969 132.108 169.098 135.107C150.008 138.14 135.1 146.376 119.368 157.237C114.575 160.546 108.992 165.857 104.577 169.629C103.633 199.116 104.889 229.387 104.418 258.955C104.222 271.226 103.987 284.999 104.661 297.17C115.573 297.313 128.251 296.562 139.067 297.506C141.552 297.723 144.557 299.666 146.399 301.304C149.644 304.191 152.251 311.001 151.896 315.498C151.14 325.055 154.261 339.353 147.181 346.857C145.416 348.728 141.571 350.738 139.23 350.978C127.915 352.138 115.406 351.725 104.061 351.713L41.7523 351.739C34.445 351.72 18.3269 352.233 11.8416 350.75C-3.12473 345.781 1.74742 327.625 0.980625 316.087C-0.501788 293.783 20.3473 297.231 35.5329 297.133C39.9517 297.105 44.1797 297.206 48.4275 297.262C49.092 291.047 48.7414 277.188 48.7428 270.431L48.7424 219.989L48.7642 168.115C48.766 160.671 49.1436 147.142 48.3746 140.169C47.8671 140.186 47.3595 140.199 46.8515 140.21C37.2968 140.383 27.5953 140.563 18.1073 140.273C-3.64274 139.61 2.1335 121.033 0.904619 107.404C-1.63071 79.2862 20.0005 83.6044 39.5519 83.6471L85.9233 83.8988L87.4353 84.1714C101.849 85.6244 102.63 95.9985 103.82 107.915C113.315 99.0049 128.761 90.1395 141.275 86.6335C153.693 83.1549 169.857 82.5192 182.819 82.6589C203.501 82.887 223.652 89.234 240.731 100.9C260.646 114.639 276.328 136.225 279.058 160.592C280.113 170.018 279.692 182.831 279.696 192.576L279.708 242.253C279.688 256.74 276.873 274.693 288.049 285.605C296.216 293.579 306.461 294.931 317.273 294.904C316.488 291.103 314.623 287.102 313.626 283.311C310.578 271.721 308.787 262.008 310.192 250.143C313.18 225.151 322.924 206.746 342.599 190.473C379.065 160.311 429.805 168.601 473.401 171.342C477.701 171.612 483.018 172.972 487.517 173.537C487.55 170.498 487.712 167.336 487.197 164.332C485.679 155.485 480.705 148.649 473.485 143.509C454.322 129.865 414.192 134.998 392.647 140.194C381.942 142.776 371.323 147.088 360.47 148.862C356.048 149.584 351.595 149.431 347.863 146.681C342.387 142.647 334.174 120.102 333.167 112.922C332.637 109.151 333.145 105.508 335.529 102.429C343.442 92.2125 398.628 85.5181 413.313 83.7321C424.311 83.0425 441.619 84.1793 450.73 83.0676C457.752 83.7354 465.061 83.8171 471.948 85.2845C491.743 89.5006 514.362 99.3114 527.429 115.121C534.264 123.269 539.098 132.906 541.536 143.258C544.489 155.348 544.489 181.324 544.512 194.091L544.489 245.832C544.475 253.017 543.681 268.547 545.604 274.624C549.583 287.221 559.195 295.268 572.402 296.646C579.729 297.416 587.066 295.259 592.81 290.644C605.236 280.475 607.6 272.325 608.979 257.004C608.997 256.789 609.016 256.572 609.035 256.356C609.889 236.919 609.039 212.677 609.188 192.941C609.299 177.798 609.889 152.776 608.802 138.148C603.62 138.573 596.177 138.431 590.827 138.488C583.416 137.79 573.669 140.342 566.996 134.818C563.834 132.135 561.22 125.342 561.35 121.21C561.703 110.091 557.909 92.5185 569.574 85.988C572.564 84.314 578.977 83.8296 582.464 83.5942C590.883 83.988 598.939 83.362 607.479 84.1059C607.655 84.1607 608.315 84.1426 608.533 84.1449C610.915 78.3997 608.027 41.9267 609.169 32.5282C611.059 17.0113 616.093 8.33058 632.29 3.43309C634.309 2.82252 639.436 1.00274 640.968 0ZM439.975 297.556C458.496 293.922 470.74 288.947 487.485 280.663L487.633 247.097C487.633 241.104 487.884 232.222 486.974 226.584C481.29 223.944 474.585 222.882 468.488 221.553C449.67 217.452 432.51 216.017 413.291 216.602C399.292 217.523 386.832 221.97 377.342 232.781C370.288 240.715 366.717 251.151 367.433 261.744C368.388 275.965 378.616 288.494 391.363 294.108C402.203 298.881 417.397 299.913 429.052 298.976C432.71 298.649 436.354 298.175 439.975 297.556Z" fill="#353437"/>
<path d="M238.372 567C238.344 559.658 237.401 520.024 239.641 516.23C245.176 514.526 258.331 514.758 263.308 517.749C274.478 524.468 271.645 535.938 262.28 542.542C268.197 548.411 270.106 558.734 271.593 567H263.924C263.218 562.384 262.035 553.32 259.555 549.614C256.408 544.91 250.675 545.068 245.757 544.209C245.447 551.801 245.37 559.403 245.528 567H238.372ZM245.944 539.579C251.922 539.672 255.217 540.215 260.324 536.932C262.375 534.787 263.147 533.119 263.071 529.994C263.005 527.301 261.854 524.747 259.878 522.917C259.569 522.629 259.254 522.355 258.93 522.086C254.267 520.893 250.577 520.911 245.81 520.563C245.589 526.632 245.226 533.602 245.944 539.579Z" fill="#353437"/>
<path d="M345.601 515.078L352.619 515.807C356.928 521.403 359.295 525.879 363.044 531.54C368.815 540.256 373.413 546.795 377.313 556.76C379.401 545.885 376.481 527.969 378.091 515.44L383.997 515.45C384.647 520.901 384.404 529.135 384.402 534.8L384.403 567H376.914C375.415 563.429 368.218 553.268 365.796 549.312C360.872 541.273 355.917 533.147 351.049 525.058C352.682 534.661 352.064 556.073 352.063 567H345.433C345.241 550.519 344.887 531.405 345.601 515.078Z" fill="#353437"/>
<path d="M515.634 515.529C518.165 515.51 520.867 515.44 523.379 515.501C526.133 519.127 529.207 530.268 530.73 535.181C533.748 544.909 539.924 557.271 541.703 567H534.022C532.407 561.827 530.637 556.709 529.031 551.508C522.901 551.545 517.468 551.517 511.334 551.244C508.237 556.835 507.814 561.627 505.163 567H498.03C501.253 556.788 504.736 546.66 508.474 536.63C510.656 530.639 514.195 521.733 515.634 515.529ZM512.741 545.063L521.123 545.202L527.93 545.225C525.78 540.331 523.732 535.72 522.167 530.574C521.722 529.116 520.872 524.194 520.394 523.688C517.347 528.814 514.088 539.128 512.741 545.063Z" fill="#353437"/>
<path d="M110.709 515.691C113.81 515.519 116.722 515.371 119.833 515.338C120.983 521.027 124.233 529.785 126.212 535.497L133.303 556.626C134.129 559.055 136.339 564.794 136.851 567H129.668C128.063 561.938 125.893 556.473 124.017 551.457C104.598 551.402 106.578 547.598 100.689 567H93.1592C94.9567 560.606 97.2181 555.219 99.4238 549.019C103.328 538.042 106.872 526.651 110.709 515.691ZM107.386 545.17L117.134 545.328L123.004 545.179C120.263 540.684 118.976 534.777 117.346 529.804C116.127 526.089 117.666 525.699 114.116 523.994C113.47 528.94 109.489 540.354 107.386 545.17Z" fill="#353437"/>
<path d="M32.0534 434.709C34.0667 434.491 36.1426 434.217 38.1608 434.226C39.1798 449.156 38.5049 470.963 38.4784 486.227C36.3954 486.232 33.9187 486.297 31.8788 486.153C26.6825 480.445 9.53916 451.511 6.7619 444.026C5.3367 452.676 6.01484 476.238 6.06374 486.176L0 486.125V434.4C2.2443 434.463 4.72732 434.475 6.94569 434.602C16.6563 448.83 24.4154 463.135 33.5009 476.577C30.9019 467.239 32.111 445.509 32.0534 434.709Z" fill="#353437"/>
<path d="M192.247 515.566C201.6 515.543 210.953 515.464 220.305 515.334L220.625 521.208C213.637 521.547 205.951 521.12 199.321 521.571C199.298 526.823 199.182 532.349 199.271 537.577C202.59 537.619 217.248 537.559 219.235 538.019C220.041 539.389 219.882 540.661 219.913 542.291L219.502 543.066C214.399 544.051 205.683 543.048 199.196 543.86L199.258 560.81C205.672 560.866 215.871 560.541 221.859 561.028L221.964 567H192.169C192.174 550.608 191.725 531.754 192.247 515.566Z" fill="#353437"/>
<path d="M623.611 515.394C633.052 515.733 642.483 515.399 651.946 515.431L652.123 521.259C644.646 521.422 638.178 521.496 630.734 520.878C630.544 526.892 630.511 531.763 630.693 537.8C634.579 537.73 648.064 536.987 650.414 538.599C650.674 540.284 650.836 541.831 649.801 543.243C646.764 543.712 634.732 543.428 630.59 543.493C630.623 547.896 630.094 557.188 631.004 561.098C635.638 560.879 647.2 560.503 651.668 561.088L652.28 561.432C652.522 563.559 652.559 564.85 652.554 567H623.295C623.263 551.137 622.812 530.913 623.611 515.394Z" fill="#353437"/>
<path d="M631.003 561.098C635.638 560.88 647.2 560.504 651.667 561.089C649.234 561.957 632.647 563.192 630.748 561.73L631.003 561.098Z" fill="#4D4C4F"/>
<path d="M921.318 434.293C930.749 434.807 940.241 434.242 949.737 434.586C949.686 436.525 949.616 438.463 949.523 440.4C942.488 440.231 935.449 440.182 928.414 440.252C928.284 443.252 927.685 453.612 928.706 456.132L928.377 457.13C930.183 458.531 945.795 458.081 948.251 457.431C949.147 458.974 948.952 458.267 948.855 460.191C948.167 461.218 947.982 461.615 946.38 461.796C940.496 462.46 934.204 461.851 928.247 462.085C928.247 467.986 928.135 474.274 928.395 480.143C936.048 479.972 943.352 479.781 951 480.013V485.837C944.819 486.584 928.112 486.148 921.072 486.12C921.356 468.845 920.947 451.532 921.318 434.293Z" fill="#353437"/>
<path d="M78.5854 515.12C79.9348 516.286 79.3335 517.377 79.7444 519.662L79.4598 520.781C77.62 521.816 61.4089 521.338 57.6838 521.584C57.7767 526.897 57.9425 532.367 57.8895 537.665C62.3153 537.647 75.2917 536.922 78.2743 539.031C78.8166 540.215 78.6248 540.865 78.5004 542.193L77.9747 543.006C73.724 543.86 63.1632 543.377 57.5519 543.837C57.8189 549.702 57.8389 554.87 57.7957 560.722C65.4938 561.297 73.4394 560.471 80.8329 561.047L80.9308 567H52.9409H51.5641C51.3616 552.391 51.2116 535.07 51.6644 520.581C51.5362 519.286 51.8896 516.899 52.0479 515.501C59.2812 515.561 71.7459 515.817 78.5854 515.12Z" fill="#353437"/>
<path d="M51.6644 520.581C53.0946 522.336 52.5281 525.545 52.5327 527.746C52.562 540.716 53.3829 554.035 52.9409 567H51.5641C51.3616 552.391 51.2116 535.07 51.6644 520.581Z" fill="#4D4C4F"/>
<path d="M428.632 533.393C428.505 528.127 427.993 524.333 431.941 520.172C437.421 514.391 446.697 514.372 454.01 515.798C455.507 517.326 456.196 517.53 456.673 519.323C456.096 520.725 455.7 521.222 454.862 522.452C448.843 520.804 439.021 518.245 436.097 526.056C434.907 529.232 437.133 534.015 440.001 535.218C456.58 542.184 468.516 550.176 451.089 567H430.153C428.929 565.899 427.782 565.124 427.545 563.494C427.919 561.427 427.545 562.115 428.804 560.689C434.863 558.534 449.586 568.704 452.292 552.753C447.686 541.339 435.285 545.592 428.632 533.393Z" fill="#353437"/>
<path d="M669.187 515.575C678.465 515.575 687.748 515.524 697.025 515.417L697.42 521.403C691.068 521.413 682.486 521.213 676.329 521.626C676.236 527.115 676.185 532.609 676.181 538.097C680.234 538.172 692.373 537.48 695.052 538.757C695.772 540.104 695.563 542.695 695.47 544.306C689.141 544.339 682.811 544.315 676.482 544.236C675.934 549.567 676.106 561.4 676.362 567H669.132C669.294 550.362 668.667 531.94 669.187 515.575Z" fill="#353437"/>
<path d="M0 515.524C12.6814 515.599 25.3631 515.575 38.0442 515.455C38.0972 517.433 38.2441 520.173 38.0877 522.072C32.828 522.007 27.568 521.974 22.3079 521.97L22.4118 549.549C22.4113 554.926 22.2247 561.794 22.6127 567H14.9146C14.8807 555.841 14.1814 532.544 15.4155 522.118C10.5835 521.812 4.90373 521.97 0 521.993V515.524Z" fill="#353437"/>
<path d="M545.228 515.589C558.007 515.603 570.79 515.534 583.569 515.38L583.992 522.002C578.494 521.909 572.991 521.961 567.493 522.16C568.023 525.239 567.944 528.244 567.999 531.355C568.199 543.21 567.767 555.154 568.065 567H561.406C561.336 553.069 560.858 535.822 561.429 522.128C556.042 521.919 550.651 521.858 545.26 521.937C545.237 519.82 545.228 517.702 545.228 515.589Z" fill="#353437"/>
<path d="M140.379 515.594L178.718 515.524C178.751 517.531 178.86 519.982 178.792 521.947L162.474 522.105C162.448 536.463 162.067 552.837 162.529 567H155.972C155.795 558.261 155.732 549.517 155.784 540.772C155.786 535.302 155.604 527.463 156.382 522.211C150.949 521.886 145.661 521.821 140.229 521.696C140.253 519.741 140.229 517.517 140.379 515.594Z" fill="#353437"/>
<path d="M597.045 515.571L604.136 515.157C605.483 530.421 604.099 551.095 604.596 567H596.938C596.873 549.855 596.906 532.715 597.045 515.571Z" fill="#353437"/>
<path d="M475.695 515.515L482.795 515.362C483.227 532.335 482.795 549.953 482.944 567H475.653L475.598 533.259C475.602 527.956 475.361 520.595 475.695 515.515Z" fill="#353437"/>
<path d="M318.589 520.015C320.564 520.038 324.179 519.931 325.943 520.451L326.374 521.069L326.45 567H318.722C318.277 551.75 318.504 535.32 318.589 520.015Z" fill="#353437"/>
<path d="M404.265 515.58L409.908 515.445C410.298 532.604 409.916 549.846 410.085 567H404.333C404.209 556.106 404.164 545.216 404.198 534.322C404.194 528.699 403.973 521.018 404.265 515.58Z" fill="#353437"/>
<path d="M318.588 520.015C318.575 517.642 318.2 517.577 319.254 515.84C320.945 514.902 323.765 515.32 325.943 515.129C326.06 516.485 326.431 519.88 326.373 521.069L325.942 520.451C324.178 519.931 320.563 520.038 318.588 520.015Z" fill="#0F0F12" fill-opacity="0.988235"/>
<path d="M928.707 456.132C931.4 456.078 946.705 455.635 948.028 456.423L948.251 457.432C945.795 458.081 930.183 458.531 928.377 457.13L928.707 456.132Z" fill="#4D4C4F" fill-opacity="0.980392"/>
</svg>
