<svg width="1147" height="829" viewBox="0 0 1147 829" fill="none" xmlns="http://www.w3.org/2000/svg">
<path d="M663.361 133.424C692.511 76.0068 751.487 30.3565 812.701 11.3099C904.819 -17.3517 1011.52 9.42645 1077.25 80.7004C1082.59 86.4819 1088.46 92.4443 1092.71 99.0918L1092.21 99.7079C1081.71 112.373 1044.71 140.228 1030.06 152.166C1019.83 160.547 1009.53 168.844 999.155 177.055C995.585 179.926 986.347 187.711 982.784 189.741C979.088 188.649 974.856 181.618 971.737 178.557C939.327 146.71 894.06 135.116 850.807 150.513C746.023 187.811 749.001 339.606 857.257 370.518C887.033 379.237 919.063 375.701 946.227 360.696C979.454 342.125 1001.84 305.624 1004.31 267.784L1082.05 273.125C1091.09 273.662 1142.62 275.901 1145.85 278.837C1146.89 284.032 1144.95 294.262 1144.13 299.649C1138.72 335.128 1126.27 369.523 1106.21 399.419C1079.23 439.421 1041.91 471.352 998.218 491.808C986.903 497.042 976.25 499.766 965.569 504.387C923.4 517.203 878.697 519.31 835.514 510.516C825.931 508.587 816.891 505.787 807.435 503.358C802.999 501.304 797.169 499.373 792.501 497.756C754.303 484.525 717.852 458.829 691.99 427.338C686.632 419.241 679.112 411.719 673.564 403.349C620.665 323.584 614.074 216.678 663.361 133.424Z" fill="#FBC24E"/>
<path d="M329.266 198.047C338.356 178.394 352.953 159.542 367.929 144.081C406.963 104.177 460.077 81.1543 515.885 79.9468C560.182 79.2934 601.717 90.5514 638.76 114.902C647.504 120.653 655.82 126.108 663.361 133.423C614.074 216.677 620.664 323.583 673.563 403.349C679.112 411.719 686.631 419.241 691.99 427.338C660.002 463.969 632.845 485.29 585.255 500.868C572.011 505.202 561.632 506.175 549.615 509.425L549.854 509.92C549.08 510.324 547.243 510.775 546.551 510.681C538.894 509.638 491.93 511.283 487.59 509.921L487.89 509.321C485.792 508.217 461.03 502.902 455.678 501.248C415.102 488.699 387.301 469.977 359.535 438.447C317.86 391.753 298.957 327.376 307.947 265.789C311.599 240.774 318.657 220.792 329.266 198.047Z" fill="#15549B"/>
<path d="M485.671 246.185C495.432 246.077 505.661 246.294 515.458 246.368L515.343 352.943C532.51 352.463 551.047 352.779 568.321 352.753L568.49 377.939C543.137 378.062 510.671 378.974 485.891 377.67C485.224 362.648 485.722 344.356 485.746 328.992L485.671 246.185Z" fill="#FBC24E"/>
<path d="M187.279 515.037C178.386 512.623 168.457 511.291 158.96 508.674C130.555 500.604 104.656 485.473 83.6784 464.692C49.0768 430.457 29.7097 383.737 29.9435 335.062C29.802 287.709 48.4297 242.23 81.7471 208.582C118.201 172.142 158.322 155.321 210.459 154.225C248.381 153.428 302.075 170.737 329.266 198.047C318.658 220.792 311.599 240.775 307.947 265.789C298.957 327.376 317.86 391.753 359.536 438.447C338.232 471.949 293.868 501.447 255.129 510.83C248.371 512.467 238.749 513.459 232.508 515.191C228 516.871 193.622 516.131 187.279 515.037Z" fill="#DE3734"/>
<path d="M157.201 273.11L191.309 272.979C194.787 277.469 200.825 288.816 203.935 294.077C213.348 309.994 222.479 325.979 230.788 342.508C233.801 348.501 237.717 360.939 240.989 365.772C238.216 337.111 239.897 302.359 239.231 273.215L266.533 273.173L266.671 405.053L261.215 405.12C252.721 405.231 244.226 405.229 235.732 405.116C221.876 380.859 208.033 356.292 194.918 331.624C190.575 323.455 187.016 314.348 182.863 305.911C184.745 338.178 184.223 372.521 184.239 405.006C175.434 405.413 165.799 405.234 156.926 405.236C156.544 362.371 156.156 315.861 157.201 273.11Z" fill="#FBC24E"/>
<path d="M549.855 509.92C567.266 511.187 586.516 510.982 604.097 511.754C612.293 511.219 624.214 513.856 631.987 512.871C690.357 505.47 748.91 505.623 807.435 503.358C816.891 505.786 825.932 508.587 835.514 510.516C878.697 519.31 923.4 517.203 965.569 504.387C994.275 506.362 1086.86 507.694 1117.61 521.053C1118.34 521.372 1118.11 522.406 1118.12 523.428C1108.58 537.359 971.012 541.3 948.445 541.815C879.021 543.905 809.547 543.713 740.137 541.238C725.59 540.827 709.445 540.334 694.983 538.877C668.171 536.176 643.196 539.594 616.412 540.803C576.919 542.332 537.412 543.221 497.896 543.472C459.15 543.295 420.411 542.464 381.694 540.979C372.956 540.636 363.043 540.003 354.332 539.047C332.197 536.615 310.303 540.474 288.143 541.24C261.503 542.286 234.852 543.02 208.195 543.442C178.975 543.706 29.2239 543.169 13.7682 531.364C13.2359 530.958 12.9352 530.518 12.5684 529.966C13.057 528.231 13.5076 527.926 15.1172 527.043C31.0926 518.272 121.867 516.572 145.226 516.211C158.07 516.014 175.126 517.126 187.28 515.037C193.623 516.131 228 516.871 232.509 515.191C237.428 516.33 261.021 516.813 267.35 516.641C279.908 515.43 297.725 519.928 309.551 518.66C343.495 515.017 377.401 512.823 411.505 511.393C436.871 510.328 462.332 511.069 487.591 509.921C491.931 511.283 538.895 509.638 546.552 510.681C547.243 510.775 549.08 510.324 549.855 509.92Z" fill="#232121"/>
<path d="M880.505 182.57C907.38 178.65 930.144 189.907 948.035 209.032C940.642 214.601 933.453 220.447 926.497 226.557C910.147 212.5 894.101 205.327 872.316 213.226C860.044 217.803 850.123 227.122 844.793 239.088C839.322 251.136 838.935 264.88 843.722 277.217C860.959 321.57 922.617 317.843 935.995 273.499C937.044 270.021 937.192 266.176 938.523 263.039L939.882 262.586C948.197 263.657 958.04 264.14 966.504 264.756C965.462 281.566 959.949 295.466 949.352 308.569C936.495 324.399 917.907 334.516 897.629 336.724C876.259 338.952 854.89 332.482 838.343 318.773C823.627 306.531 813.904 285.83 812.122 266.894C810.214 245.995 816.699 225.194 830.161 209.09C842.152 194.77 861.804 184.134 880.505 182.57Z" fill="#232121"/>
<path d="M931.004 752.145C932.862 752.025 934.728 751.941 936.594 751.905C960.336 751.518 969.229 764.46 969.61 787.801C969.828 801.355 967.582 812.199 957.865 822.148C948.029 829.555 935.235 828.407 923.723 827.576C923.026 815.811 923.674 800.193 923.449 788.167C923.294 779.542 922.984 761.995 923.85 753.919C925.66 752.426 928.511 752.441 931.004 752.145ZM948.923 812.698C950.204 810.142 952.282 805.685 952.873 802.242C954.774 791.209 956.844 771.064 945.149 764.34C944.382 763.904 940.354 763.354 939.242 763.228L937.777 764.284C937.277 773.409 937.629 784.126 937.559 793.356C937.51 799.151 937.291 810.192 937.96 815.564C941.481 817.888 946.093 815.114 948.923 812.698Z" fill="#15549B"/>
<path d="M786.643 752.138C819.236 750.427 827.023 764.34 825.319 795.983C824.756 806.502 822.158 814.945 814.068 822.176C803.344 829.47 792.36 828.745 780.01 827.358L779.855 780.711C779.848 773.494 779.468 760.756 780.243 753.912C782.482 752.222 783.545 752.574 786.643 752.138ZM794.374 816.346C798.373 816.268 800.802 816.557 803.929 813.909C811.216 803.989 811.603 790.695 810.082 778.95C808.85 769.459 804.83 764.298 795.346 762.868C793.437 767.121 794.409 807.967 794.374 816.346Z" fill="#15549B"/>
<path d="M458.884 750.666C489.216 749.737 488.811 800.257 477.661 818.373C473.857 824.555 469.242 826.865 462.407 828.273C449.071 828.027 441.233 821.584 438.291 808.558C433.508 787.385 433.999 757.475 458.884 750.666ZM460.897 816.275C463.7 814.374 465.287 813.107 466.413 809.72C470.102 798.637 472.602 769.29 460.532 763.354L459.796 762.988C451.398 768.755 451.374 779.718 451.134 789.096C450.925 797.222 451.214 813.515 460.897 816.275Z" fill="#15549B"/>
<path d="M250.651 750.624C280.942 750.131 279.917 797.94 270.494 816.958C267.255 823.492 261.939 826.443 255.152 828.203C241.791 828.034 234.354 822.669 230.513 809.283C226.692 795.969 227.079 775.965 233.607 763.559C237.704 755.771 242.467 753.067 250.651 750.624ZM254.426 815.797C257.085 812.867 257.88 811.692 258.943 807.861C261.499 798.637 265.175 762.537 249.815 763.833C246.084 767.931 244.808 771.318 244.136 776.866C243.057 785.787 240.183 816.733 254.426 815.797Z" fill="#15549B"/>
<path d="M391.15 613.465C399.825 613.078 415.53 611.134 416.48 623.236C418.091 643.756 417.633 665.208 416.731 685.796C416.404 693.253 412.402 695.668 405.746 696.463C394.046 696.914 380.975 699.78 380.017 683.754C379.028 667.215 379.642 650.444 379.57 633.852C379.527 624.137 379.476 614.986 391.15 613.465ZM403.45 686.381C404.845 685.36 405.811 684.663 405.859 682.543C406.059 673.671 407.254 630.741 405.007 625.283C402.017 622.763 397.655 623.554 393.748 623.776C392.027 625.202 390.863 625.705 390.807 628.335C390.611 637.54 389.573 679.283 391.675 685.423C394.676 686.831 399.963 686.444 403.45 686.381Z" fill="#232121"/>
<path d="M760.864 613.474C767.201 613.143 773.552 613.321 779.861 614.005C783.029 616.091 785.705 618.038 786.444 621.983C787.937 629.943 788.289 687.486 784.839 692.26C782.719 695.203 779.776 695.942 776.389 696.428C769.672 696.759 759.554 698.006 753.689 694.239C751.239 692.668 750.802 690.288 750.331 687.62C748.732 678.614 748.049 622.944 752.288 617.401C754.379 614.668 757.667 613.971 760.864 613.474ZM774.594 686.317C777.22 681.846 775.657 648.106 775.988 640.342C776.65 624.627 777.164 622.971 762.596 623.811C758.893 628.922 761.632 669.588 760.843 678.424C760.695 680.058 761.209 683.719 761.984 685.346C765.399 687.247 770.679 686.55 774.594 686.317Z" fill="#232121"/>
<path d="M1056.12 613.43C1062.8 613.273 1072.35 611.895 1078.05 616.2C1080.46 618.009 1081.02 621.062 1081.5 623.865C1083.08 632.867 1083.76 687.261 1079.48 692.816C1077.46 695.443 1074.7 696.041 1071.6 696.351C1064.95 696.872 1058.27 696.78 1051.64 696.069C1051.14 695.745 1050.65 695.4 1050.16 695.069C1047.82 693.478 1046.43 692.373 1045.65 689.563C1043.58 682.247 1043.65 622.948 1047.11 617.658C1048.88 614.958 1053.15 613.925 1056.12 613.43ZM1069.56 686.289C1072.73 681.586 1070.63 635.384 1070.64 626.844C1070.65 622.346 1060.12 623.764 1057.23 623.975C1054.24 628.964 1056.12 675.242 1056.46 684.113C1056.59 687.571 1067.04 686.43 1069.56 686.289Z" fill="#232121"/>
<path d="M162.368 613.441C168.782 613.158 175.207 613.354 181.591 614.029C181.694 614.11 181.798 614.191 181.9 614.271L182.407 614.685C184.783 616.593 186.449 617.831 187.242 620.944C189.325 629.114 189.632 687.268 185.809 692.943C184.18 695.365 180.768 695.977 178.096 696.322C171.903 696.618 160.583 698.343 155.192 694.513C152.969 692.936 152.144 689.042 151.672 686.493C150.117 678.114 149.652 622.917 153.579 617.619C155.847 614.56 158.848 613.936 162.368 613.441ZM162.647 686.303C166.612 686.387 171.445 686.627 175.34 686.486C178.932 682.325 176.556 638.172 177.087 629.663C177.164 628.433 176.741 626.118 176.153 624.917C172.773 622.844 167.824 623.554 163.901 623.995C160.587 628.015 161.576 676.157 162.381 684.092C162.451 684.831 162.54 685.571 162.647 686.303Z" fill="#232121"/>
<path d="M855.574 613.399L868.276 613.294C868.804 620.164 876.514 655.505 878.605 663.166C880.133 648.733 885.892 628.831 888.315 613.484C892.525 613.419 896.877 613.29 901.073 613.323L901.129 666.926C901.143 674.615 901.566 689.232 900.756 696.407C899.489 696.562 895.961 696.971 894.821 697.407C892.222 696.872 892.103 697.287 890.497 695.759C889.498 683.698 890.849 656.808 891.173 643.545C888.948 649.365 887.639 656.639 886.533 662.758C885.118 669.158 883.766 675.566 882.492 681.994C879.542 681.825 877 681.649 874.043 681.79C871.219 669.454 868.931 656.766 865.84 644.559C864.826 655.365 866.1 685.001 866.459 696.809L855.482 696.9L855.574 613.399Z" fill="#232121"/>
<path d="M830.971 613.507C835.048 613.458 839.238 613.356 843.307 613.375L843.329 696.858C839.843 696.816 836.217 696.717 832.753 696.914C832.788 691.943 833.281 673.714 832.83 669.799C833.626 662.173 833.429 651.591 833.464 643.737L831.69 651.267C828.789 660.92 827.458 671.82 824.775 681.91C822.079 681.811 819.107 681.635 816.439 681.635C813.784 669.116 811.292 654.266 808.222 642.177C807.877 659.702 808.757 679.016 809.06 696.731C805.525 696.738 801.188 696.865 797.717 696.689L797.773 613.509C801.991 613.452 806.405 613.321 810.609 613.421C813.376 628.639 817.291 647.371 820.91 662.462C824.177 646.755 828.331 629.139 830.971 613.507Z" fill="#232121"/>
<path d="M700.248 751.968L712.739 751.947C718.625 761.347 727.919 790.857 733.51 803.319C733.573 800.249 733.425 797.116 733.179 794.053C732.045 779.992 732.003 766.142 732.031 752.046L744.846 751.954C744.98 777.014 744.944 802.073 744.733 827.132L731.186 827.287C727.933 817.88 723.103 807.72 719.653 798.285C717.111 791.328 715.006 784.653 712.295 777.732C711.971 793.976 712.88 810.734 712.549 827.273L699.438 827.175C699.417 814.198 699.797 800.517 700.002 787.512C700.142 778.908 698.96 759.256 700.248 751.968Z" fill="#15549B"/>
<path d="M255.823 613.469C262.442 613.253 266.542 613.394 273.069 614.093C277.043 617.012 279.001 618.622 279.541 623.884C280.394 632.193 280.077 640.846 280.07 649.196L280.01 696.893L269.187 696.886C268.899 688.317 268.734 674.812 269.318 666.426L256.011 666.292L255.913 696.71L244.865 696.759L244.748 651.348C244.733 642.924 244.445 634.361 245.079 625.976C245.659 618.316 248.173 614.802 255.823 613.469ZM268.544 656.048C270.005 653.977 268.891 630.847 268.709 627.119C268.498 622.768 261.322 623.573 258.241 623.788C257.781 624.306 257.219 624.939 256.555 625.686C255.178 633.786 256.008 648.166 255.974 656.069L268.544 656.048Z" fill="#232121"/>
<path d="M58.5584 613.45C64.6665 613.32 67.8336 613.439 73.9057 614.072C77.7515 616.875 79.6681 618.723 80.2166 623.655C81.2044 632.543 80.8475 641.643 80.8334 650.596L80.7137 696.893C77.2009 696.893 73.5481 696.759 70.0233 696.682C69.7346 691.401 70.5767 669.08 68.6524 666.377L56.7461 666.278L56.6074 696.956L45.7029 696.583L45.6008 651.302C45.5875 641.749 45.0855 628.559 46.7485 619.409C51.3942 614.409 51.8469 613.831 58.5584 613.45ZM56.6813 656.012L68.7545 656.097C70.807 653.78 69.4072 633.612 69.6438 629.104C69.7389 627.305 69.4889 626.287 68.5222 624.814C65.5255 623.238 62.2191 623.491 58.8795 623.819C58.4317 624.314 57.8867 624.918 57.2453 625.628C55.9272 633.618 56.7228 648.221 56.6813 656.012Z" fill="#232121"/>
<path d="M538.258 613.333C546.988 613.272 557.486 612.965 565.969 614.102C568.01 615.636 569.834 617.678 571.623 619.526C572.848 625.979 572.524 639.674 572.545 646.797C572.573 654.083 571.278 657.885 566.088 662.716C568.658 673.96 571.123 685.226 573.495 696.513C570.116 696.647 566.729 696.731 563.349 696.781C561.568 691.176 561.138 689.211 560.244 683.431C559.207 678.115 557.867 668.398 555.046 664.117C552.672 662.786 552.917 663.216 549.997 663.314C548.258 665.736 548.934 691.767 548.9 696.71L538.396 696.605C537.978 669.081 538.252 640.89 538.258 613.333ZM549.13 653.386C552.246 653.309 557.533 653.337 560.343 652.626C561.498 647.559 561.899 630.029 560.174 625.227C557.673 622.991 552.517 623.5 549.103 623.535C548.953 633.485 548.962 643.437 549.13 653.386Z" fill="#232121"/>
<path d="M621.643 751.955L635.556 751.997C636.239 764.002 631.374 813.191 643.034 815.705C652.933 813.938 650.575 794.736 650.554 786.696C650.413 775.106 650.469 763.509 650.73 751.919L664.53 751.955C664.734 755.496 664.671 759.376 664.685 762.953C664.453 778.302 668.135 812.494 656.975 823.295C646.421 833.505 624.509 828.132 622.601 810.868C620.46 791.498 621.495 771.627 621.643 751.955Z" fill="#15549B"/>
<path d="M23.2114 613.286L34.3397 613.284L34.3454 696.829C30.7749 696.717 26.9798 696.738 23.3867 696.696C23.4163 674.734 19.1727 666.933 12.7161 646.27L11.9606 643.767L11.3417 644.139C11.1297 645.706 10.9284 646.973 10.9044 648.57C11.1079 664.644 11.141 680.719 11.0023 696.787L0.0760442 696.808C0.53019 688.669 0.228129 676.734 0.244323 668.221C0.303468 649.966 0.222496 631.71 0 613.457C3.67119 613.333 7.65711 613.437 11.3543 613.459C14.3411 625.837 19.5346 641.6 23.1642 654.315C24.0592 645.812 23.2882 622.56 23.2114 613.286Z" fill="#232121"/>
<path d="M199.378 613.402L210.438 613.29C212.166 619.004 220.662 649.483 222.586 652.376C223.319 650.824 222.973 618.033 222.979 613.289L233.648 613.359C233.803 641.189 233.763 669.017 233.525 696.851C230.127 696.626 227.326 697.456 224.173 696.464C222.584 694.732 223.093 695.253 222.97 692.225C223.275 676.84 215.508 657.745 210.545 642.45C209.559 657.533 210.254 681.17 210.246 696.858C206.688 696.858 202.885 696.682 199.307 696.583C199.714 688.099 199.38 677.129 199.381 668.363L199.378 613.402Z" fill="#232121"/>
<path d="M1116.43 613.4L1127.26 613.312C1127.24 640.954 1127 669.207 1127.4 696.802L1116.53 696.675C1116.62 676.396 1111.32 661.652 1104.47 642.456C1104.23 660.519 1104.13 678.586 1104.18 696.647L1093.31 696.809L1093.4 613.312L1104.3 613.35C1107.82 625.145 1111.58 637.259 1114.82 649.104C1115.06 650.415 1115.21 650.438 1115.84 651.68C1117.16 649.473 1116.41 629.321 1116.36 625.444C1116.42 621.43 1116.44 617.415 1116.43 613.4Z" fill="#232121"/>
<path d="M857.91 752.06C868.331 751.651 879.857 751.905 890.355 751.933C890.412 756.038 890.271 760.432 890.222 764.558C884.265 764.614 878.097 764.459 872.126 764.375C871.697 769.494 871.922 777.147 871.95 782.47C877.393 782.654 883.399 782.583 888.891 782.618L888.975 794.159L872.119 794.173L871.887 812.628L872.021 813.67C874.154 815.662 887.518 814.796 891.116 814.74L891.165 827.308C880.491 827.005 868.627 827.231 857.861 827.217C857.263 819.225 857.615 807.128 857.615 798.89C857.488 783.28 857.586 767.67 857.91 752.06Z" fill="#15549B"/>
<path d="M654.369 613.416C660.016 613.228 663.114 613.512 668.67 614.06C670.606 615.416 672.479 617.095 674.288 618.632C675.943 624.976 675.725 629.344 675.647 635.799L664.6 635.791C664.635 632.301 664.79 629.034 664.206 625.588C661.586 622.767 657.735 623.262 654.602 624.963C651.996 627.914 653.109 640.273 653.236 644.883C658.291 648.694 674.45 655.076 675.035 660.378C676.161 670.58 679.696 692.753 666.811 696.231C648.87 697.632 642.547 697.9 642.202 677.734C644.477 677.607 646.807 677.565 649.053 677.502C654.693 677.333 652.665 679.987 653.89 684.55C655.2 686.134 656.749 686.817 658.833 686.986C667.163 687.641 664.635 670.799 664.459 665.539C656.608 658.871 641.505 656.329 641.963 644.593C642.421 632.886 638.175 614.709 654.369 613.416Z" fill="#232121"/>
<path d="M988.937 613.459C995.26 613.285 998.52 613.423 1004.82 614.059C1013.35 620.15 1011.72 626.352 1011.57 635.778L1000.6 635.856C1000.6 630.304 1001.34 624.775 994.57 622.893C986.389 624.085 988.945 638.271 989.085 644.949C993.866 648.16 1010.26 655.273 1010.8 659.821C1012.02 669.911 1015.67 693.119 1002.53 696.238C999.203 696.47 995.873 696.611 992.535 696.654C978.432 696.78 978.249 688.627 978.263 677.614L988.923 677.579C989.022 681.783 989.001 685.015 993.113 687.38C1000.39 687.092 1001.29 678.185 1001.25 672.474C1001.17 660.547 987.381 659.23 979.376 651.892L978.756 651.317C978.123 646.895 977.989 641.617 977.939 637.128C977.834 627.572 976.686 615.134 988.937 613.459Z" fill="#232121"/>
<path d="M946.845 613.439C948.141 613.376 949.436 613.35 950.732 613.361C968.863 613.395 968.328 620.532 968.039 635.78L957.428 635.797C957.189 628.911 957.787 619.98 946.944 624.719C944.233 628.008 945.31 639.734 945.416 644.749C950.007 647.799 967.011 655.738 967.468 660.188C968.496 670.271 972.08 692.718 959.428 696.252C941.339 697.329 934.876 698.189 934.552 677.755C937.981 677.565 941.748 677.551 945.212 677.467C945.261 680.213 945.162 681.6 945.874 684.282C948.704 686.951 952.013 687.331 955.365 685.127C958.674 681.043 957.266 671.777 957.111 665.898L956.463 665.356C949.655 659.554 934.453 655.752 934.643 645.96C934.876 634.021 930.074 614.894 946.845 613.439Z" fill="#232121"/>
<path d="M718.147 613.437C739.256 612.804 740.34 616.746 739.981 637.003L729.117 636.948C729.201 633.346 729.835 627.596 727.73 624.791C723.871 623.248 720.47 622.739 717.584 625.963C715.915 643.449 717.232 667.567 718.26 685.162C718.358 686.768 727.399 690.838 729.497 678.741L729.828 678.086C732.123 677.361 737.629 677.544 740.319 677.523C739.96 686.472 740.798 695.217 729.208 696.372C708.55 698.421 705.607 694.182 705.818 673.805C705.98 658.308 705.191 640.631 706.424 624.926C707.036 617.169 710.634 614.334 718.147 613.437Z" fill="#232121"/>
<path d="M555.813 751.905L588.022 751.941C588.304 756.813 588.297 759.629 587.994 764.502L569.772 764.551C570.159 770.001 570.011 777.964 570.082 783.618L586.889 783.604L586.973 795.926C581.664 796.123 574.919 794.927 571.053 796.476C569.244 798.694 569.779 799.461 569.518 802.806C570.251 806.657 569.92 822.408 569.863 827.203C565.808 827.273 559.858 827.999 556.491 826.611C555.112 824.64 555.564 824.527 555.56 821.802C556.706 802.827 555.7 771.888 555.813 751.905Z" fill="#15549B"/>
<path d="M569.518 802.806C570.251 806.657 569.92 822.408 569.863 827.203C565.808 827.273 559.858 827.999 556.491 826.612C555.112 824.64 555.564 824.527 555.56 821.803C555.976 823.309 555.983 823.415 556.763 824.858C570.856 829.541 568.3 810.987 569.518 802.806Z" fill="#1C548A"/>
<path d="M369.661 752.067C382.773 751.631 397.5 751.941 410.734 751.941L410.847 765.115L397.56 765.178L397.535 814.212L397.483 827.238L382.924 827.203C383.024 806.544 382.987 785.886 382.812 765.227L369.514 765.164C369.538 760.798 369.587 756.433 369.661 752.067Z" fill="#15549B"/>
<path d="M606.286 613.446C615.102 613.212 624.445 613.373 633.296 613.38L633.197 623.678C627.592 623.645 622.805 623.606 617.207 623.163C617.059 631.825 617.073 640.49 617.263 649.151L631.669 649.14L631.486 658.935L617.158 658.871C617.045 668.123 617.08 677.382 617.256 686.634L633.099 686.627L633.148 696.696C625.325 696.295 613.525 696.774 605.406 696.837C605.864 687.36 604.949 615.568 606.286 613.446Z" fill="#232121"/>
<path d="M500.354 613.313L528.227 613.391L528.315 623.683C522.826 623.652 517.339 623.542 511.854 623.353C511.547 631.886 511.71 640.559 511.78 649.108L526.35 649.108L526.455 658.892L511.718 658.913L511.657 681.839C511.784 684.677 511.293 684.494 512.744 686.148C517.12 687.317 523.147 686.557 528.101 686.486L527.99 696.485C518.785 696.731 509.577 696.787 500.37 696.647L500.354 613.313Z" fill="#232121"/>
<path d="M302.137 751.997C315.348 751.687 329.432 751.948 342.709 751.99L342.863 765.143L329.298 765.227L329.285 814.212L329.091 827.259L315.332 827.168L315.373 765.227C311.144 765.058 306.329 765.157 302.052 765.15C301.845 760.326 301.933 756.764 302.137 751.997Z" fill="#15549B"/>
<path d="M169.876 751.891L184.116 751.877C184.809 771.754 184.283 795.215 184.288 815.324L195.8 815.493C198.48 815.324 200.418 814.839 202.525 816.289C204.058 818.676 203.456 823.964 203.455 827.238C197.149 827.203 188.515 827.414 182.399 827.013C179.86 827.365 172.577 827.245 169.671 827.273C169.309 820.641 169.851 809.509 169.888 802.439C169.98 785.59 169.976 768.74 169.876 751.891Z" fill="#15549B"/>
<path d="M195.8 815.494C198.479 815.325 200.418 814.839 202.524 816.289C204.058 818.676 203.456 823.964 203.455 827.238C197.149 827.203 188.515 827.414 182.398 827.013C187.618 825.309 191.112 826.9 196.319 826.358C200.118 825.957 202.032 820.028 201.168 816.951C199.235 816.085 197.837 815.902 195.8 815.494Z" fill="#1C548A"/>
<path d="M88.4132 613.333L120.643 613.328L120.795 623.689L110.318 623.268C109.743 643.073 110.16 665.377 110.152 685.36L110.001 696.851L99.0578 696.766C99.4324 672.686 99.1029 647.719 99.1092 623.568L88.3984 623.633L88.4132 613.333Z" fill="#232121"/>
<path d="M423.793 613.456C433.54 612.995 446.4 613.326 456.383 613.294L456.526 623.637L445.855 623.637C446.585 641.442 445.853 665.511 445.831 683.776C445.779 688.148 445.763 692.521 445.785 696.893C442.276 696.682 438.499 696.823 434.962 696.879L434.9 623.718L423.864 623.359L423.793 613.456Z" fill="#232121"/>
<path d="M460.873 613.357L493.273 613.256L493.329 623.691L482.526 623.545C481.698 642.113 482.321 666.743 482.311 685.712L482.122 696.97L471.545 696.724L471.475 623.698L460.941 623.539L460.873 613.357Z" fill="#232121"/>
<path d="M346.295 613.521L356.52 613.328L356.716 686.514C361.673 686.493 366.914 686.648 371.893 686.718L371.925 696.851C363.303 696.632 354.3 696.78 345.648 696.801C345.533 688.113 345.06 615.969 346.295 613.521Z" fill="#232121"/>
<path d="M291.823 613.356L302.522 613.353L302.617 686.81C307.555 686.486 312.928 686.648 317.908 686.69L317.93 696.823C310.43 696.337 299.455 696.752 291.705 696.816C292.247 669.278 291.307 641.082 291.823 613.356Z" fill="#232121"/>
<path d="M912.705 613.441L924.118 613.335C924.16 638.695 925.111 672.087 924.005 696.963C920.464 696.816 916.486 696.893 912.902 696.879C911.832 670.904 912.634 639.672 912.705 613.441Z" fill="#232121"/>
<path d="M583.262 613.463L594.049 613.283C594.387 634.066 593.971 654.963 594.169 675.755C594.239 682.754 594.225 689.901 593.838 696.886C590.155 696.914 586.48 696.752 582.797 696.625C582.783 685.86 581.593 618.796 583.262 613.463Z" fill="#232121"/>
<path d="M128.719 613.245L139.921 613.349L139.93 696.787L128.774 696.703C128.381 669.151 128.712 640.854 128.719 613.245Z" fill="#232121"/>
<path d="M1021.58 613.485L1032.53 613.333C1033.12 640.492 1032.6 669.559 1032.63 696.872L1021.76 696.703C1021.42 669.165 1021.65 641.059 1021.58 613.485Z" fill="#232121"/>
<path d="M886.533 662.758C887.639 656.639 888.948 649.365 891.173 643.544C890.849 656.808 889.497 683.698 890.497 695.759C892.103 697.287 892.222 696.872 894.82 697.407C892.441 699.167 893.553 698.71 890.575 699.118C884.027 695.231 890.047 671.869 886.533 662.758Z" fill="#232121" fill-opacity="0.0235294"/>
<path d="M1114.82 649.103C1117.63 645.633 1114.24 632.498 1116.37 625.444C1116.42 629.321 1117.16 649.473 1115.84 651.68C1115.21 650.438 1115.06 650.415 1114.82 649.103Z" fill="#110F11" fill-opacity="0.0666667"/>
<path d="M831.689 651.267L833.464 643.737C833.429 651.591 833.626 662.173 832.83 669.799C831.858 664.032 833.774 654.506 831.689 651.267Z" fill="#110F11" fill-opacity="0.0509804"/>
<path d="M10.9043 648.57C10.9282 646.974 11.1296 645.706 11.3415 644.14L11.9604 643.767L12.7159 646.27L10.9043 648.57Z" fill="#110F11" fill-opacity="0.121569"/>
</svg>
