<svg width="988" height="754" viewBox="0 0 988 754" fill="none" xmlns="http://www.w3.org/2000/svg">
<path d="M0 0H988V754H0V0Z" fill="black"/>
<path d="M206.883 256.145C224.645 255.67 247.851 255.037 265.275 257.901C272.32 259.059 278.316 263.317 282.142 269.465C284.306 272.973 285.851 276.826 286.712 280.857C288.889 291.038 288.655 313.324 286.405 323.849C284.655 332.037 278.114 339.639 270.99 343.974C273.159 345.438 276.232 347.489 278.117 349.218C281.911 352.703 284.653 357.182 286.03 362.146C288.398 370.401 288.138 387.823 288.347 397.02C288.578 407.705 288.972 418.385 289.53 429.058C280.521 428.955 271.51 428.915 262.5 428.939C261.585 420.016 261.079 411.055 260.985 402.085L260.786 379.457C260.531 358.683 251.664 358.059 233.579 358.302C233.434 381.869 233.532 405.437 233.874 429.002C225.301 428.612 214.931 428.959 206.335 429.22L206.36 328.066C206.4 304.553 206.006 279.508 206.883 256.145Z" fill="#FC11E9"/>
<path d="M233.676 279.73C255.654 279.49 261.696 280.044 260.684 304.962C260.339 313.451 261.872 321.926 256.25 329.268C250.429 334.324 241.437 333.339 233.784 333.474C233.1 316.852 233.433 296.463 233.676 279.73Z" fill="black"/>
<path d="M569.74 362.916C571.68 362.67 571.409 362.407 572.929 363.08C573.561 367.358 573.228 385.405 573.238 390.666C564.815 390.809 549.314 393.273 540.761 394.671C540.751 405.71 540.833 416.749 541.017 427.786C551.558 429.76 562.113 431.626 572.688 433.384C572.596 441.916 572.736 450.702 572.765 459.254C568.804 458.033 564.67 457.347 560.593 456.617C525.184 450.265 489.591 444.389 454.075 438.684C441.725 436.623 429.413 434.244 417.059 432.181C410.816 431.14 404.6 429.433 398.322 428.283C398.409 415.032 398.394 401.781 398.275 388.53C406.33 388.116 415.905 386.351 424.007 385.078L464.835 378.644C499.721 373.313 534.895 369.06 569.74 362.916Z" fill="#FC11E9"/>
<path d="M510.513 399.134L517.238 398.741C517.325 407.324 517.349 415.909 517.296 424.492C496.176 421.934 471.881 417.204 450.472 413.931C443.059 412.291 436.001 411.235 428.517 410.143C433.34 409.409 438.636 409.161 443.563 408.552C465.634 405.82 488.491 401.417 510.513 399.134Z" fill="black"/>
<path d="M616.231 164.1C629.126 163.79 643.006 164.039 655.978 164.029C656.784 175.742 660.431 188.015 661.791 199.752C662.761 208.157 664.618 216.608 665.988 224.962L683.828 338.703C674.734 338.623 665.641 338.614 656.547 338.674C655.713 330.551 653.334 318.337 652.056 309.823C651.877 308.527 651.882 308.498 651.395 307.288C649.842 306.767 622.126 307.145 617.592 307.088C616.443 316.705 615.059 329.644 612.98 338.791C605.092 338.54 596.293 338.676 588.333 338.642C589.331 329.488 591.497 319.85 592.921 310.669L604.827 236.857L612.039 190.649C613.322 182.152 614.572 172.455 616.231 164.1Z" fill="#E6F534"/>
<path d="M634.013 196.658C636.155 198.571 646.503 274.273 648.148 283.248L636.194 283.398C631.384 283.499 626.492 283.503 621.673 283.554C626.623 254.927 629.387 225.311 634.013 196.658Z" fill="black"/>
<path d="M401.359 134.015C422.482 136.924 443.095 140.845 464.097 144.261C501.169 149.929 538.156 156.099 575.061 162.769C574.96 176.261 575.023 189.753 575.24 203.242C563.223 204.25 552.117 206.503 540.231 208.18L455.501 220.583C447.539 221.729 439.866 223.148 431.846 224.164C421.661 225.413 411.202 227.393 400.809 228.743C400.268 220.558 400.457 209.803 400.355 201.402C444.464 194.629 488.775 189.399 532.97 183.268C536.014 182.845 539.078 182.467 542.131 182.114C533.728 179.297 509.433 176.159 500.392 174.766L441.381 165.231C426.926 163.018 415.876 162.047 401.201 159.086C400.667 151.243 400.972 141.825 401.359 134.015Z" fill="#FC11E9"/>
<path d="M145.626 253.446C156.956 251.96 169.828 255.071 178.054 263.21C191.109 276.128 189.941 296.679 189.883 313.598C181.227 313.553 172.451 313.686 163.785 313.753C163.967 301.078 167.893 277.657 149.175 277.29C145.621 277.194 142.181 278.554 139.654 281.055C137.576 283.164 136.199 285.864 135.713 288.785C134.781 294.074 135.187 311.975 135.206 318.6C135.329 337.385 135.312 356.171 135.155 374.957C135.105 381.979 134.069 399.964 139.669 402.804C170.017 418.197 163.91 375.387 163.834 365.543L164.224 364.622C166.401 364.068 186.304 364.241 189.974 364.235C189.291 381.358 192.2 402.449 181.456 416.88C168.93 433.705 138.313 435.52 122.226 423.034C106.838 411.091 107.714 391.176 107.717 373.71L107.749 340.653L107.717 309.366C107.717 304.239 107.757 299.12 107.872 294.003C108.408 270.043 122.192 256.24 145.626 253.446Z" fill="#E6F534"/>
<path d="M779.965 164.255C803.609 164.474 827.334 164.161 850.958 164.511C850.278 171.948 850.601 181.905 850.669 189.525L803.266 189.53C803.136 205.568 803.155 221.607 803.324 237.644C815.693 237.907 828.449 237.756 840.847 237.751C840.885 244.612 841.223 256.182 840.586 262.492C828.145 262.756 815.698 262.838 803.257 262.736C802.75 276.325 803.175 292.187 803.203 305.945L803.261 314.04C817.589 314.039 836.703 313.523 850.568 314.522C850.447 322.748 850.447 330.975 850.572 339.2C825.733 338.924 800.888 338.876 776.043 339.058C775.532 320.791 775.841 301.003 775.836 282.612L775.99 196.473C776.038 191.368 775.401 168.129 776.318 164.824C777.592 163.993 778.243 164.277 779.965 164.255Z" fill="#FC11E9"/>
<path d="M361.286 254.469C367.927 254.354 374.571 254.361 381.212 254.488L381.037 279.716L333.901 279.383L333.867 328.081L371.181 328.053C371.214 336.449 371.193 344.846 371.119 353.242L333.866 353.138C334.195 369.903 334.032 387.576 333.945 404.367L375.188 404.341L381.261 404.435C381.042 412.478 381.101 420.968 381.044 429.049L306.42 428.929L306.452 254.665L361.286 254.469Z" fill="#E6F534"/>
<path d="M679.318 164.184C690.326 163.822 702.43 164.042 713.531 164.033C730.348 163.963 747.165 163.988 763.987 164.11L763.679 189.883C754.498 189.533 744.449 189.613 735.23 189.537L735.254 309.463C735.264 319.227 735.225 328.991 735.139 338.754C726.214 338.579 716.966 338.665 708.017 338.634C707.53 320.003 707.805 300.28 707.795 281.585L707.834 189.399C698.282 189.615 688.725 189.682 679.173 189.601L679.318 164.184Z" fill="#E6F534"/>
<path d="M401.436 281.019C408.839 280.664 416.998 280.763 424.458 280.708L424.447 309.849C473.979 309.358 524.098 310.899 573.744 310.771C573.571 319.831 573.653 329.165 573.633 338.247L542.845 338.129C504.15 338.048 462.533 338.049 424.116 336.848C424.09 346.465 423.991 356.08 423.819 365.695L399.252 365.544C399.179 357.366 399.143 283.139 399.923 281.288L401.436 281.019Z" fill="#E6F534"/>
<path d="M399.998 241.596C440.166 241.009 480.834 242.838 521.069 242.582C538.552 242.471 556.773 242.47 574.212 243.05C574.063 252.026 574.149 261.25 574.13 270.246C516.042 270.12 457.953 269.67 399.868 268.896C399.714 260.009 399.932 250.529 399.998 241.596Z" fill="#E6F534"/>
<path d="M597.407 361.545C604.957 361.418 613.945 360.684 619.039 367.355C620.597 369.375 621.673 371.726 622.175 374.226C623.747 382.226 622.672 411.257 622.295 420.787C622.093 425.98 618.465 430.662 614.268 433.825C608.744 436.389 596.862 435.679 590.33 435.612C589.785 426.578 590.074 415.816 590.089 406.609L590.07 361.759L597.407 361.545Z" fill="#E6F534"/>
<path d="M595.304 366.23C602.588 366.082 614.822 364.424 616.873 374.052C618.86 383.385 617.886 394.182 617.992 403.807C618.079 411.405 618.918 421.554 614.07 427.635C608.266 432.063 602.656 431.095 595.347 431.106C595.212 409.67 595.096 387.633 595.304 366.23Z" fill="black"/>
<path d="M636.498 445.535C659.794 443.455 671.136 447.782 667.132 473.089C666.345 478.052 664.141 480.38 660.952 483.935C661.936 484.813 662.896 485.715 663.832 486.641C669.766 492.594 668.058 510.858 668.053 519.473L656.62 519.232C656.176 513.4 656.113 508.407 656.079 502.546C656.161 492.541 656.253 488.826 645.027 489.232C644.414 499.179 644.439 509.478 644.323 519.469C640.594 519.522 636.672 519.734 632.928 519.874C633.068 504.34 633.073 488.807 632.952 473.271C632.904 465.649 632.465 453.64 633.02 446.317C634.028 445.434 634.911 445.661 636.498 445.535Z" fill="#FC11E9"/>
<path d="M644.704 455.432C647.338 455.291 649.624 454.955 652.027 456.384C658.038 459.956 657.85 471.707 654.294 476.917C652.012 478.418 648.206 480.128 645.558 478.784C643.922 476.201 644.617 459.183 644.704 455.432Z" fill="black"/>
<path d="M604.643 445.531L615.435 445.024C618.373 463.011 621.572 480.984 624.177 499.02C625.17 505.894 626.28 512.672 627.79 519.454C624.408 519.353 619.922 519.527 616.463 519.57C615.734 516.044 615.483 509.951 613.583 506.989C613.004 506.092 611.6 506.26 610.384 506.159L600.316 506.246C599.462 510.631 598.584 515.011 597.672 519.387L586.799 518.948C591.218 494.847 594.281 469.468 599.279 445.746L604.643 445.531Z" fill="#FC11E9"/>
<path d="M607.128 459.113C608.561 460.445 612.02 491.697 612.309 495.981L606.732 496.067L601.508 496.323C602.434 483.023 604.914 472.219 607.128 459.113Z" fill="black"/>
<path d="M725.379 444.365C739.89 443.193 744.56 452.835 745.597 465.475L735.221 465.573C734.893 462.085 734.883 457.637 731.757 455.595C726.108 451.904 722.552 458.109 722.687 463.064C722.986 474 733.793 478.463 739.823 485.966C742.505 489.357 744.29 493.361 745.028 497.616C747.185 510.578 740.971 518.596 728.201 520.506C713.314 519.966 710.935 509.546 710.689 497.032L720.502 496.878C721.168 505.629 726.252 517.322 734.222 505.161C733.764 487.302 717.289 486.183 712.716 471.66C708.769 459.112 712.31 448.032 725.379 444.365Z" fill="#FC11E9"/>
<path d="M746.866 361.575L752.665 361.309C756.751 378.74 760.741 396.34 764.378 413.866C765.444 419.014 768.788 430.871 768.792 435.4L768.238 435.921C766.308 436.006 766.11 436.338 764.692 435.555C763.587 432.551 762.053 423.569 760.847 419.243L751.314 419.049L737.869 419.152C737.054 423.24 735.761 434.422 732.148 436.104C730.589 435.33 731.207 435.873 730.252 434.387C730.609 429.574 745.033 363.214 746.866 361.575Z" fill="#E6F534"/>
<path d="M748.41 367.964C752.043 371.758 758.42 407.613 760.017 414.894L750.045 414.789L739.181 414.512C741.531 401.81 744.623 389.344 746.813 376.638C747.325 373.673 747.735 370.908 748.41 367.964Z" fill="black"/>
<path d="M811.255 528.196L817.401 528.35C819.64 535.615 833.736 599.066 833.258 601.435C833.196 601.748 832.983 602.014 832.843 602.308C828.125 603.181 826.654 590.277 825.472 586.051C822.915 585.781 819.615 585.8 816.981 585.742C812.34 585.665 807.531 585.742 802.875 585.766C801.906 590.306 801.129 602.988 795.263 602.182L794.602 601.261C797.882 587.117 801.042 572.939 804.072 558.737C806.17 549.012 808.404 537.603 811.255 528.196Z" fill="#E6F534"/>
<path d="M813.604 534.824C815.568 536.56 823.716 575.298 825.048 581.511L815.172 581.477L803.932 581.231C805.91 566.17 811.318 551.062 813.604 534.824Z" fill="black"/>
<path d="M692.599 445.505C697.727 445.35 702.643 445.398 707.771 445.453L707.843 455.925C703.858 455.728 699.69 455.798 695.686 455.801C694.75 476.254 695.44 498.639 695.016 519.459L686.366 519.556L684.841 519.435C683.505 517.264 684.118 463.933 684.122 456.388L672.096 456.182C672.376 452.784 672.419 449.044 672.53 445.614L692.599 445.505Z" fill="#FC11E9"/>
<path d="M659.09 361.039C665.067 361.267 669.24 362.679 672.294 368.122C674.382 371.843 677.933 382.278 673.278 384.977C668.661 383.953 671.179 372.172 667.575 369.132C658.66 360.505 647.917 367.891 648.496 378.789C649.036 389.025 645.514 421.319 651.868 428.234C653.812 430.373 656.557 431.605 659.447 431.636C662.259 431.657 664.961 430.536 666.934 428.529C671.343 424.065 670.581 415.505 670.629 409.509V401.729C667.971 401.628 662.51 402.182 661.217 399.842L661.579 398.68C664.155 396.518 671.502 397.426 675.313 397.529C675.217 407.668 676.905 422.897 670.75 431.22C666.437 437.043 655.018 437.701 649.644 432.737C643.377 426.956 643.29 417.413 643.387 409.481C643.425 402.051 643.691 394.438 643.45 387.019C643.064 375.217 644.39 362.215 659.09 361.039Z" fill="#E6F534"/>
<path d="M676.384 527.901C688.484 528.442 692.304 533.734 693.342 545.374C693.477 546.903 693.472 547.217 692.56 548.346C686.028 548.929 689.743 537.738 684.894 535.06C674.667 529.411 667.802 532.967 667.136 544.511C666.027 563.865 691.885 564.796 693.597 582.278C694.798 594.493 689.67 601.782 677.127 602.901C666.601 601.922 662.751 596.47 662.134 586.142C662.018 584.208 661.704 582.968 662.153 580.923C663.267 579.837 662.616 580.131 664.174 580.006C664.681 580.257 666.032 580.787 666.119 581.468C666.75 586.798 666.673 595.433 672.665 597.966C681.339 601.295 688.812 594.69 688.657 585.915C688.358 568.525 664.83 565.886 662.303 549.407C660.749 539.272 665.684 529.585 676.384 527.901Z" fill="#E6F534"/>
<path d="M751.83 528.355C753.606 528.297 754.817 528.085 756.423 528.784C757.46 531.457 759.096 540.516 759.824 543.83L766.92 576.209C768.363 582.799 769.612 590.194 771.88 596.446C773.385 590.812 774.519 583.793 775.734 577.946C777.997 567.14 780.337 556.349 782.763 545.577C783.627 541.679 785.151 530.106 787.8 528.268C789.416 528.278 788.668 528.032 790.014 529.286C790.878 531.153 790.226 532.764 789.773 534.882C785.494 555.543 780.206 581.796 775.117 602.018L768.209 602.086C765.184 593.151 763.896 583.527 761.865 574.338C758.507 559.137 755.53 543.454 751.83 528.355Z" fill="#E6F534"/>
<path d="M626.251 528.475C631.895 528.152 649.219 527.916 653.783 528.606C655.028 529.932 654.724 529.189 654.96 530.801L654.338 531.626C650.483 533.743 635.533 533 630.106 532.981C630.101 542.832 630.159 552.687 630.279 562.538C633.854 562.794 648.828 562.287 650.647 563.493C650.666 565.191 650.753 565.442 650.126 566.971C647.738 567.849 633.748 567.43 630.149 567.396V582.717L630.231 598.135C633.705 598.077 652.808 597.31 654.68 598.641C654.97 599.732 655.153 599.92 654.748 600.962C651.216 602.887 630.549 602.153 625.296 602.153C625.479 587.532 625.561 572.905 625.542 558.278C625.537 549.441 625.233 536.966 626.251 528.475Z" fill="#E6F534"/>
<path d="M590.537 528.495C595.058 528.34 614.422 527.554 617.548 528.852C618.06 530.26 617.982 530.405 617.833 531.944C615.319 533.695 599.491 533.02 595.173 532.996L595.323 564.448C599.993 564.501 609.989 563.826 613.94 564.728C614.673 565.838 614.432 566.556 614.302 567.907C612.338 569.586 606.728 569.017 603.872 568.988L595.304 569.176V587.985C595.338 592.013 596.51 599.857 593.147 602.332C591.502 602.602 592.245 602.732 590.817 602.004C590.118 600.802 590.021 599.572 590.012 598.197C589.915 577.869 590.079 557.535 590.123 537.207C590.127 534.269 590.065 531.408 590.537 528.495Z" fill="#E6F534"/>
<path d="M702.151 528.495C706.377 528.374 731.366 527.279 733.469 529.324C733.86 530.882 733.894 530.94 733.421 532.431C731.984 533.502 721.409 533.048 718.712 533.044C717.988 550.656 718.693 573.083 718.712 591.067C718.722 594.459 719.759 599.196 717.323 601.613C715.682 602.225 715.779 602.206 714.042 601.979C712.933 600.658 713.516 591.96 713.521 589.615L713.531 533.126C709.199 532.928 703.029 533.806 699.463 531.871C698.614 530.41 698.793 531.066 699.01 529.228C700.177 528.282 700.264 528.606 702.151 528.495Z" fill="#E6F534"/>
<path d="M711.066 361.563C714.848 361.532 726.088 360.891 728.78 362.332C728.896 364.175 729.079 363.494 728.269 365.091C725.505 367.036 717.824 366.228 713.854 366.203C713.893 374.972 715.19 432.76 712.291 435.98C711.22 435.686 710.477 435.409 709.45 435.023C708.461 433.082 708.769 373.407 708.731 366.239C704.65 366.086 697.978 366.852 694.514 365.17C693.515 363.767 693.718 364.451 693.896 362.584C695.484 361.02 708.022 361.57 711.066 361.563Z" fill="#E6F534"/>
<path d="M841.387 528.389L846.515 528.461C846.525 551.486 846.284 574.854 846.597 597.841C853.954 598.149 861.895 597.431 869.006 597.913C869.807 599.283 869.45 600.19 869.368 602.004C865.942 602.602 845.758 602.105 841.416 602.057C841.228 577.502 841.218 552.943 841.387 528.389Z" fill="#E6F534"/>
<path d="M776.661 361.86C778.561 361.78 779.401 361.617 781.219 362.217C782.319 365.69 781.451 423.455 781.528 431.111C785.802 431.118 800.391 430.893 803.98 431.578C804.781 432.826 804.434 434.174 804.284 435.698C795.137 435.504 785.991 435.502 776.839 435.692C776.096 412.463 776.68 385.298 776.661 361.86Z" fill="#E6F534"/>
<path d="M683.201 361.727C684.832 361.76 686.766 361.488 687.987 362.4C688.503 364.852 688.71 386.028 688.45 388.403C687.523 396.754 690.191 429.251 687.504 435.56C686.399 436.011 686.211 435.966 685.044 436.073C684.04 435.018 683.775 434.03 683.77 432.543C683.645 409.068 683.056 385.166 683.201 361.727Z" fill="#E6F534"/>
<path d="M739.818 528.297L744.473 528.485C744.092 545.823 744.715 563.58 744.56 580.922C744.527 584.806 744.922 598.911 744.324 602.057C742.365 602.09 741.289 602.177 739.345 601.724C738.926 600.166 739.35 592.51 739.389 590.214C739.717 569.591 739.278 548.905 739.818 528.297Z" fill="#E6F534"/>
<path d="M630.487 361.772C632.518 361.623 632.966 361.482 634.872 362.013C635.716 363.821 635.412 431.001 634.872 435.985C633.347 436.224 633.434 436.223 632.016 435.589C629.401 432.864 630.424 371.423 630.487 361.772Z" fill="#E6F534"/>
</svg>
