<svg width="524" height="659" viewBox="0 0 524 659" fill="none" xmlns="http://www.w3.org/2000/svg">
<path d="M260.964 0.0223411C271.953 -0.52815 284.518 9.17498 286.014 20.2312C286.957 27.2076 286.564 35.2468 286.546 42.365L286.535 78.039L286.528 191.081L286.564 226.782C286.549 233.433 286.276 241.114 286.588 247.681L286.904 247.962C289.24 247.014 296.648 241.996 299.505 240.254L327.01 223.753L426.036 163.793L465.44 139.923C477.906 132.446 487.405 123.539 502.856 128.921C519.171 134.271 523.028 156.537 512.132 168.581C508.367 172.738 495.526 179.663 490.106 182.928L472.465 193.727L378.309 250.826C362.444 260.259 346.646 269.808 330.919 279.472C328.314 281.06 311.839 290.569 311.279 292.003C313.803 293.997 320.857 297.786 324.171 299.785C337.569 307.769 351.07 315.574 364.674 323.197C401.94 344.307 438.973 365.825 475.772 387.743C487.685 394.837 500.339 401.274 511.979 408.584C531.073 420.736 525.87 450.655 502.866 454.065C491.209 455.792 482.525 448.907 472.933 443.207L454.477 432.473L373.535 385.57L316.578 352.592L296.924 341.45C293.578 339.518 289.449 337.288 286.422 335.005C287.053 349.696 286.532 368.37 286.532 383.425L286.521 476.969L286.542 533.124C286.546 543.014 286.847 553.015 286.156 562.979C285.646 574.071 273.236 584.54 262.416 584.625C250.409 584.717 238.589 575.585 237.586 563.132C236.917 554.812 237.013 547.835 237.019 539.71L237.044 500.376L237.04 365.63C237 356.399 236.813 345.927 237.231 336.788C233.784 338.068 222.334 345.201 218.723 347.381L178.605 371.791C174.365 374.322 165.264 380.068 161.146 382.015C162.082 387.102 161.697 402.231 161.688 408.428L161.684 457.121L161.698 571.884C161.701 591.924 161.732 611.984 161.666 632.024C161.662 639.606 159.727 646.53 154.082 651.886C138.967 666.236 114.198 656.633 112.546 635.93C111.73 625.707 112.049 615.685 112.049 605.447L112.054 550.505L112.059 460.935C112.056 445.731 111.584 427.18 112.241 412.168C107.653 413.933 100.361 419.396 95.5823 422.186C78.4968 432.289 62.5434 441.885 45.5879 452.413C22.4863 467.227 -3.63268 446.5 8.29879 420.828C11.5087 413.919 18.5087 410.441 24.7187 406.755L40.481 397.361L94.6689 364.598L176.455 315.024C187.947 308.089 201.498 299.007 213.089 292.845L66.7518 208.068L31.2703 187.499C23.4161 182.993 13.2104 177.995 6.50067 172.07C1.93146 167.515 0.441718 161.478 0.0486331 155.407C-0.956231 139.885 13.7786 127.887 28.702 130.587C34.8903 131.707 44.3126 138.005 50.3461 141.452L73.9226 155.013L176.237 214.165C192.991 224.121 209.89 233.832 226.929 243.294C229.16 244.531 234.387 248.643 236.513 248.616C237.493 246.97 236.976 232.694 236.979 229.55L237.017 189.393L237.008 68.8683L237.007 40.7333C237.007 28.2839 235.328 12.8996 247.06 5.02033C251.256 2.20158 255.958 0.561169 260.964 0.0223411Z" fill="black"/>
</svg>
