<svg width="765" height="728" viewBox="0 0 765 728" fill="none" xmlns="http://www.w3.org/2000/svg">
<path d="M327.421 172.541C368.577 165.176 410.776 165.92 451.645 174.73C457.965 176.091 464.55 178.142 470.878 179.797C470.31 176.73 469.802 175.476 468.293 172.897C467.012 172.349 465.376 171.781 464.046 171.276C467.27 167.385 468.136 167.925 473.037 168.154C475.719 170.373 476.466 171.487 478.685 174.288C479.499 174.486 480.31 174.69 481.117 174.901C488.841 176.936 485.536 180.474 488.408 184.768C494.407 193.73 512.875 198.702 522.56 200.982C518.422 203.582 512.288 209.085 509.748 213.346C508.702 215.097 507.731 217.793 506.431 219.98C502.812 220.162 489.406 204.196 484.195 205.153C482.656 206.102 482.641 207.333 481.524 208.794L480.773 208.816C473.104 203.493 483.16 196.18 473.754 192.804C471.341 193.793 472.436 200.74 472.44 203.312L472.369 235.639C472.369 241.511 471.674 272.581 472.921 276.566C477.897 278.04 502.972 254.554 511.552 252.806C529.792 249.09 539.736 264.7 557.606 267.112C569.712 268.746 576.914 263.405 586.338 263.682C595.717 271.598 602.684 287.603 606.113 299.234C607.383 303.54 607.981 308.517 609.329 313.043L609.486 313.566C620.89 316.883 641.139 320.294 640.515 301.952C639.649 289.186 628.275 279.389 620.535 269.913C609.602 256.535 612.231 232.693 630.523 227.444C640.975 224.445 653.66 226.037 664.597 225.664C673.577 225.359 674.066 222.345 679.938 216.163L680.435 216.485C681.32 219.034 681.638 222.467 681.888 225.19C683.255 240.205 667.642 242.494 657.142 238.188L656.682 237.994C658.404 241.446 662.476 251.095 659.555 254.515C657.78 254.427 652.685 245.526 650.179 243.265C642.925 235.779 625.036 234.169 622.451 247.112C618.604 266.358 647.508 279.113 651.243 296.8C653.675 308.327 652.244 320.226 641.498 326.447C633.172 331.267 621.514 333.449 612.239 330.933C613.229 341.062 617.584 349.43 627.505 353.296C632.253 355.144 638.435 354.797 639.922 348.844C640.303 347.323 640.725 345.91 641.225 344.423C647.624 352.691 644.269 361.43 634.035 363.649C647.728 380.069 635.129 396.953 640.19 412.887C643.679 414.941 647.112 415.166 651.001 414.803L647.967 418.994C635.219 424.575 633.355 413.257 628.159 421.247C630.262 425.964 631.812 425.804 634.382 429.315L634.035 429.752C627.464 431.096 622.616 428.556 618.85 423.204C615.832 424.915 614.402 425.721 610.719 425.71C603.315 425.688 596.173 419.857 592.004 429.031C590.122 428.975 590.256 428.807 588.557 430.293C588.179 429.558 587.783 428.807 587.511 428.052C584.183 418.751 592.046 416.372 593.26 413.716C591.612 411.942 587.137 413.347 585.131 413.888C584.082 414.807 582.666 416.439 581.68 417.511C581.665 412.977 582.102 410.086 583.958 406.033C592.441 400.247 596.692 407.815 598.825 404.871C598.638 402.675 596.651 400.916 595.116 399.552C593.562 399.44 591.437 399.504 589.838 399.504C597.395 389.419 602.912 394.689 609.706 401.364C613.554 402.059 616.008 401.961 619.896 401.722C618.492 394.401 618.186 388.436 614.346 381.817C605.896 367.243 588.235 367.698 575.875 358.507C574.826 357.728 572.61 353.465 571.277 351.956C568.023 354.881 568.662 354.805 564.24 354.77C555.902 354.704 556.646 350.519 552.933 346.81C553.224 346.053 553.041 346.451 553.964 346.541C556.011 346.739 559.787 347.634 561.744 346.718C577.635 339.287 575.89 317.828 568.233 306.65C550.804 281.201 519.318 269.807 492.364 287.345C490.657 288.456 488.965 289.473 488.513 291.545C489.002 292.877 490.418 293.749 491.527 295.08L491.142 295.614C487.534 297.124 486.503 295.078 483.44 295.11C475.133 295.197 483.265 304.666 483.358 306.51C482.349 307.026 481.983 306.784 480.713 306.418C475.398 304.884 475.084 303.132 472.589 298.457C471.648 310.752 474.087 325.594 469.982 337.202C464.457 352.823 448.996 360.034 435.676 367.687C425.531 373.518 415.038 378.553 404.538 383.7C397.378 387.211 390.486 392.511 383.236 395.836C376.478 393.322 369.183 387.349 362.626 384.036C348.918 377.313 335.464 370.435 322.24 362.81C312.404 357.138 302.811 351.295 297.814 340.407C292.451 328.724 294.638 311.764 294.206 298.696C290.054 305.325 289.261 305.936 281.604 306.799C285.075 301.605 289.383 300.915 284.554 294.513C280.806 296.076 279.849 295.998 275.748 296.244L275.213 295.147C279.636 290.19 276.302 288.729 271.858 286.041C270.065 284.957 268.208 283.961 266.285 283.113C254.259 277.791 240.607 277.488 228.356 282.27C177.399 302.655 189.704 355.634 213.231 345.514C211.962 350.483 211.13 351.085 207.293 354.384C201.435 354.853 199.875 355.427 195.09 352.197C194.113 353.67 192.43 356.276 191.249 357.478C183.18 365.694 167.83 366.675 159.03 374.007C149.685 381.795 148.041 389.938 146.834 401.439C160.983 404.535 158.629 391.742 172.597 394.696C173.945 396.161 175.271 397.644 176.576 399.149C174.602 399.474 172.518 399.743 170.529 400.03C169.392 401.289 167.212 403.672 167.561 405.461C168.854 405.775 172.611 404.21 174.511 403.964C183.388 402.813 184.214 409.824 185.29 416.817C180.032 413.107 177.96 412.723 171.682 413.261C176.237 416.548 182.281 421.071 179.422 427.761C178.757 429.318 177.544 431.13 175.882 431.72L175.383 431.365C174.231 427.499 173.273 426.095 169.74 423.865L169.297 423.589C161.365 424.003 155.157 428.639 147.916 423.223C144.602 427.518 142.953 428.635 137.598 429.811C136.364 430.084 133.468 430.185 132.39 429.445C133.323 425.654 141.162 424.62 135.346 417.164C129.95 421.433 119.515 423.48 116.405 415.576C118.099 414.247 123.807 415.405 125.787 412.704C128.557 408.771 126.955 402.369 126.689 397.879C125.91 384.749 123.154 374.821 132.038 363.963C122.006 361.257 120.07 353.026 124.792 344.463C128.138 356.613 135.045 356.794 144.439 349.894C150.681 345.309 153.172 338.865 154.202 331.385C138.124 332.517 117.87 330.746 114.279 310.737C110.648 290.504 126.782 279.93 137.725 266.142C141.625 261.228 145.681 254.841 144.207 248.436C142.725 238.447 133.982 236.097 125.155 237.998C116.429 239.877 112.434 247.655 108.05 254.836L107.347 254.776C104.393 250.338 107.27 242.819 109.476 238.548C106.197 239.456 102.816 239.948 99.4135 240.012C90.2884 240.11 84.5378 235.788 84.617 226.246C84.6368 223.871 85.239 217.648 86.8735 216.026C88.2127 217.78 93.1022 224.224 94.6606 224.602C108.997 228.085 127.745 222.051 141.476 229.865C146.925 232.967 150.23 239.008 151.663 245.074C157.013 265.275 138.446 275.687 129.278 290.669C125.371 297.053 123.025 309.411 131.043 313.79C139.086 318.183 148.858 315.902 157.177 313.527C159.081 301.113 163.006 289.095 168.795 277.95C171.419 272.892 176.33 266.699 181.127 263.564C183.316 262.93 188.144 264.878 190.007 265.486C205.302 270.478 218.712 265.027 232.045 257.832C240.222 253.318 245.252 251.006 254.53 252.559C262.236 253.849 288.935 278.271 293.783 276.714C294.663 273.411 294.478 251.961 294.404 246.93C294.138 228.964 294.877 209.821 294.107 192.008L293.824 192.135C293.254 192.392 289.439 194.091 289.3 194.532C288.248 197.851 289.813 207.359 286.122 208.937C284.793 208.49 283.353 206.019 282.188 204.567C275.678 207.038 266.262 215.812 260.612 220.559C257.38 214.886 254.797 209.087 249.469 205.117C248.072 204.075 245.557 203.095 244.826 201.593C245.911 199.877 251.95 199.065 254.212 198.223C261.318 195.582 268.516 193.512 274.567 188.714C278.881 185.294 278.164 180.308 281.232 176.247C282.059 175.163 285.371 175.202 286.591 174.536C291.35 170.679 296.481 162.889 302.132 171.307C296.991 173.083 296.88 174.521 295.66 179.533C302.616 178.339 308.155 175.681 315.674 174.939C316.192 182.538 315.899 193.696 315.966 201.713C319.686 201.731 323.795 201.855 327.467 201.503L327.421 172.541ZM402.801 264.647C400.243 265.046 397.508 265.799 394.793 266.217C386.407 267.504 380.867 263.732 373.625 260.228C362.429 254.813 356.418 262.042 348.278 268.374C343.102 272.402 339.391 274.91 333.211 277.239C333.879 270.735 335.252 265.877 335.945 259.849C334.314 261.966 333.243 263.384 331.865 265.654C331.374 263.772 330.597 261.923 329.894 260.101C329.445 261.813 329.077 263.927 328.072 265.297L327.482 265.195C326.677 263.792 325.501 261.598 323.813 261.149C323.273 262.925 323.263 263.918 322.124 265.282C321.018 264.105 320.942 263.904 319.474 263.396L318.695 262.328L318.494 262.627C319.004 264.068 320.872 268.839 320.8 270.034L320.234 270.248C318.803 269.421 316.678 267.637 315.408 267.633L315.021 268.189C315.508 270.208 317.521 270.757 317.842 272.232C316.143 273.156 315.286 272.175 313.642 271.785C312.513 271.47 312.342 271.18 311.602 271.589C312.432 272.859 313.441 273.196 313.929 274.281C314.662 274.906 314.823 274.941 315.277 275.769C314.238 277.323 312.951 276.821 311.419 278.232C312.354 278.719 319.976 280.021 322.163 280.664L322.816 280.859C322.749 282.354 322.556 283.243 323.107 284.579C324.923 284.932 326.17 282.953 328.468 282.877C328.171 285.269 324.19 287.452 325.796 290.873C328.257 290.49 329.71 286.658 332.069 288.723C332.713 291.546 330.602 294.31 332.263 296.526C339.609 298.526 343.459 292.883 345.371 286.728C342.516 285.694 340.673 284.982 337.957 283.661C341.121 282.373 344.891 280.218 348.161 278.713C355.727 275.231 366.03 272.823 374.297 274.632C382.649 276.702 387.333 281.516 392.036 288.637C396.683 295.675 400.071 309.951 391.27 315.41C391.057 315.541 388.82 315.286 387.763 315.883C389.612 320.839 393.287 319.314 396.963 317.616C397.766 318.138 400.351 321.711 401.262 322.822C410.037 325.83 419.233 322.444 425.759 330.066C426.696 331.162 427.783 332.945 427.656 334.441C425.217 337.199 418.333 334.049 414.082 334.473C413.193 335.042 412.562 335.572 412.902 336.646C414.631 337.743 416.589 337.156 418.893 338.177L419.054 338.83C417.422 341.291 410.933 340.128 411.994 346.495C414.093 346.599 416.884 343.602 418.643 344.462C418.621 347.139 414.538 350.333 417.791 352.799C418.423 353.275 418.904 353.853 419.401 354.455L419.599 354.695C420.062 353.956 419.596 352.438 420.014 350.584C421.138 348.887 428.213 346.96 431.239 345.565C433.73 346.711 435.912 347.615 438.691 346.842C438.519 345.104 435.146 344.406 435.06 341.415C436.509 338.831 438.608 340.481 441.287 339.772C442.221 339.525 445.157 337.433 446.072 336.801C443.207 337.11 441.029 337.583 438.295 336.656C436.954 335.458 433.528 323.494 432.296 320.288C433.457 318.573 435.321 316.23 434.451 314.141C432.049 313.399 431.638 315.907 429.946 315.98C418.931 316.459 413.709 309.917 412.173 300.073C414.594 300.662 416.678 301.052 419.106 301.313C434.395 302.957 445.765 291.873 437.331 276.866C434.735 272.243 430.865 269.096 428.194 264.574C426.42 261.566 427.122 259.943 427.97 256.827C430.054 255.518 430.238 255.436 432.576 254.712C441.791 256.502 441.272 259.624 446.752 266.039L447.136 265.812C447.898 262.921 447.648 261.16 447.11 258.296C451.746 257.807 458.316 256.671 459.101 251.004C459.287 249.666 459.037 247.065 458.144 246.021C457.356 246.949 454.771 250.12 453.793 250.329C443.621 252.514 427.873 243.217 421.568 255.45C415.348 267.514 428.112 271.285 431.298 281.334C434.32 290.857 429.644 293.343 420.735 292.878C417.179 292.692 414.975 291.255 412.013 289.465C410.694 285.867 409.962 281.382 408.696 277.559C407.071 272.675 405.08 269.211 402.801 264.647ZM387.27 299.993C383.598 295.747 382.851 294.435 385.223 289.035C381.316 287.376 379.616 286.661 375.444 286.184C362.164 288.524 358.452 296.153 349.123 304.32C348.133 305.186 345.801 305.455 344.465 305.278C344.168 306.525 344.203 305.877 344.649 307.293C346.421 309.146 348.412 309.155 350.976 309.579C351.549 314.946 352.782 319.845 353.561 325.072C354.023 328.171 344.511 333.452 342.109 330.863C340.198 328.802 337.711 324.366 334.197 327.291C335.425 329.016 337.471 330.821 338.05 332.435L337.809 333.134C331.335 332.508 331.289 330.328 327.898 337.038C329.721 336.788 331.949 336.288 333.653 336.726L333.862 337.324C332.241 340.572 331.592 340.052 331.311 343.792L331.791 344.912L332.442 344.978C333.885 343.569 334.946 341.86 337.035 342.173C340.964 342.763 343.249 343.144 347.203 343.015C348.524 344.191 349.526 345.335 351.179 345.834L351.738 345.561C352.054 342.455 351.612 339.334 354.333 337.193C355.835 336.012 358.539 334.667 360.46 335.144C364.572 336.165 366.211 336.52 370.46 336.279C366.582 332.873 364.511 331.374 364.091 325.855C362.587 306.081 374.364 306.821 387.27 299.993ZM318.522 229.263C317.621 230.724 317.098 230.495 316.87 231.903C319.094 231.611 321.212 231.1 322.355 233.386C322.166 236.021 319.934 237.548 317.946 239.458C319.463 241.649 320.267 242.104 322.378 243.633C324.205 240.557 326.331 236.694 329.66 235.223C332.839 234.988 350.945 245.929 355.182 248.348C355.452 244.031 356.047 240.939 358.861 237.408C352.806 235.74 347.168 233.83 341.232 231.787C337.653 232.864 333.916 234.437 331.353 230.743L330.051 228.836L330.208 228.508C335.756 228.877 332.71 226.9 336.728 225.504C338.209 224.989 340.128 227.213 342.442 227.01C343.437 226.467 344.411 225.55 344.152 224.354C343.524 224.028 342.845 223.711 342.264 223.306C341.448 222.737 341.189 222.18 341.131 221.183C340.997 218.825 360.263 193.262 363.302 189.738C363.752 187.008 363.702 185.99 363.626 183.202C355.653 184.821 356.628 185.555 351.855 191.939C345.957 199.827 340.758 208.446 333.985 215.608C333.356 216.273 332.784 216.199 332.021 216.066C331.176 215.199 331.002 214.925 329.878 214.406C328.509 214.978 328.779 215.096 327.763 216.563C329.299 218.302 331.532 220.326 330.724 222.761C328.265 224.608 326.641 223.433 323.189 223.782L322.758 223.829C321.294 224.448 319.601 225.577 320.234 227.445C321.284 227.659 320.786 227.732 321.757 227.13C321.652 225.344 321.366 226.046 322.401 224.861C322.861 225.809 324.026 227.736 324.207 228.19C323.557 228.919 320.129 229.022 318.522 229.263ZM449.064 197.773C445.164 197.51 441.365 197.658 437.675 197.424C437.757 206.76 438.194 220.555 437.622 229.636C440.454 229.634 446.475 229.832 449.015 229.305C449.516 219.175 449.329 207.929 449.064 197.773ZM385.383 257.15C391.861 259.903 399.092 258.064 405.27 255.37C404.415 252 402.906 244.391 407.217 243.017C409.364 243.358 409.955 244.138 411.396 245.802C413.145 245.763 414.893 245.703 416.637 245.622C414.818 242.821 411.856 238.119 412.476 234.615C415.248 231.263 418.116 235.746 423.196 230.078C421.553 229.505 419.723 229.065 418.497 227.919C416.533 223.38 417.825 216.567 417.321 211.494C417.052 208.776 415.46 206.906 415.587 204.616C417.642 200.273 423.958 201.144 425.355 198.187C424.735 197.492 416.17 197.575 414.291 197.363C413.47 193.477 413.264 189.813 412.506 186.19C408.77 188.321 406.1 189.685 401.983 190.919C400.437 188.867 396.81 183.223 394.882 182.45C395.54 185.043 397.628 191.383 396.717 193.498C394.718 195.631 390.837 195.283 387.808 195.938C383.684 200.085 380.154 201.568 375.858 205.228C375.69 205.41 375.522 205.592 375.358 205.774C376.004 208.242 376.407 210.086 377.498 212.401C381.461 211.002 387.117 208.374 389.07 214.448C389.433 215.568 389.156 215.991 388.704 216.976C385.522 219.556 381.555 216.898 381.607 220.071C381.644 222.445 381.891 221.995 381.346 224.953C383.964 223.517 388.633 220.98 390.893 223.884C392.197 230.006 384.86 231.677 380.259 232.49C369.007 234.478 364.161 237.933 362.252 249.56C373.811 249.512 375.455 252.801 385.383 257.15ZM376.964 215.743C373.684 215.998 369.529 216.818 366.469 216.248C365.424 216.053 363.02 213.927 362.017 213.931C361.543 216.763 364.236 220.558 367.042 220.806C370.096 221.075 373.823 218.221 376.852 217.435C378.107 217.261 378.936 217.233 380.083 216.679C379.078 215.935 378.305 215.989 376.964 215.743ZM394.875 374.631C394.864 364.59 395.192 352.338 394.774 342.485L389.066 342.327L383.568 342.506C383.564 352.868 383.325 364.268 383.65 374.549L390.811 374.642L394.875 374.631Z" fill="#164171"/>
<path d="M387.218 202.55C388.895 202.431 391.533 201.787 391.94 203.774C391.267 205.085 390.423 205.443 389.146 206.306C387.132 206.877 385.567 206.931 384.196 205.203L384.346 204.236C385.115 203.118 385.915 203.011 387.218 202.55Z" fill="#164171"/>
<path d="M322.124 265.281C323.263 263.918 323.274 262.925 323.814 261.148C324.037 263.078 324.61 265.29 324.344 267.025L323.808 267.187C322.849 266.402 322.817 266.267 322.124 265.281Z" fill="#164171" fill-opacity="0.968627"/>
<path d="M313.929 274.281C313.44 273.196 312.432 272.859 311.602 271.589C312.342 271.18 312.513 271.47 313.642 271.785L315.202 273.509L315.041 274.139C314.674 274.157 314.262 274.11 313.929 274.281Z" fill="#154270" fill-opacity="0.0156863"/>
<path d="M322.401 224.86C321.366 226.046 321.652 225.344 321.758 227.13C320.787 227.731 321.284 227.658 320.234 227.445C319.602 225.577 321.294 224.448 322.759 223.829L322.401 224.86Z" fill="#164171" fill-opacity="0.180392"/>
<path d="M376.965 215.742C378.306 215.989 379.079 215.934 380.084 216.678C378.937 217.232 378.108 217.261 376.853 217.434L376.965 215.742Z" fill="#164171" fill-opacity="0.129412"/>
<path d="M355.086 408.427C376.919 407.385 399.428 408.408 421.317 408.782C449.049 409.256 476.952 411.251 504.459 414.863C511.377 415.771 518.018 418.12 524.746 419.696L526.206 421.172C526.647 421.616 527.203 422.079 527.543 422.61C529.019 424.888 528.784 456.843 527.827 460.164C526.879 460.545 525.239 458.961 523.823 458.356C518.706 456.167 511.952 454.404 506.506 453.508C475.383 448.398 442.982 447.569 411.542 446.956C370.049 445.865 327.497 447.083 286.128 450.034C274.643 450.856 262.556 452.884 251.331 455.383C248.45 456.022 240.393 460.071 238.537 459.645C237.989 458.778 237.9 458.016 237.824 457.019C237.539 453.258 237.927 449.164 237.896 445.365C237.847 439.082 237.103 432.191 237.888 426.005C238.076 424.522 238.367 423.125 239.418 422.001C249.958 410.743 336.571 409.223 355.086 408.427Z" fill="#164171"/>
<path d="M398.424 63.6522C410.728 61.1589 406.582 57.0128 415.532 52.3068C419.282 50.9445 427.866 51.008 431.146 52.9686C448.19 63.1532 439.251 81.2176 430.937 93.5245C425.475 101.607 418.838 109.856 422.188 119.35L422.375 119.868C426.469 122.757 428.348 122.717 432.561 120.45C432.341 109.927 435.471 102.751 446.845 109.113C452.646 101.982 457.263 95.5236 458.13 86.0913C458.014 83.9805 458.044 81.8481 456.819 80.1209C452.639 78.3698 451.137 86.6546 443.42 82.1032C442.837 80.4216 442.158 78.6903 442.378 76.9385C443.689 76.0413 448.803 75.4702 449.333 74.9745C455.881 68.8513 466.366 70.3118 469.878 79.3787C472.373 86.7226 469.9 97.182 464.674 102.782C458.406 109.495 455.086 113.504 450.962 121.588C451.089 123.491 451.485 125.966 451.742 127.91C444.081 128.842 442.893 129.204 441.978 137.636C441.369 143.281 441.448 149.087 441.339 154.771C435.759 153.932 429.827 152.357 424.037 151.386C389.638 145.618 359.367 148.048 325.377 154.709C325.361 146.242 325.418 137.585 322.241 129.667C319.414 128.505 318.169 128.308 315.253 128.165C315.585 107.967 294.483 105.167 295.809 84.6764C296.68 71.2153 307.079 68.0867 317.312 74.7373C319.465 76.1365 321.533 76.1421 324.006 76.2575C322.038 88.2567 317.26 82.436 310.899 79.9689C308.385 80.1994 308.23 82.7438 308.218 84.9177C308.178 92.2481 312.896 101.506 317.658 106.786C322.544 112.206 324.755 101.668 332.625 110.122L332.985 110.515C333.538 112.912 333.624 120.327 334.68 120.825C342.498 124.596 346.424 119.189 344.546 111.128C341.391 97.5851 326.479 85.4873 325.81 71.2979C325.19 58.1453 331.627 52.1465 344.602 51.3281C347.98 51.528 349.627 51.8395 352.972 52.532C353.726 53.7191 354.553 54.8591 355.447 55.9453C359.638 61.082 361.38 62.6239 367.8 63.2525C367.038 66.6337 366.492 69.3798 362.65 71.6669C355.159 76.1257 346.243 52.0139 341.937 64.3963C339.249 72.126 344.657 85.7421 348.002 92.3774C350.909 90.6211 352.972 89.5816 356.433 90.8071C361.009 92.4271 363.238 98.7441 362.14 103.159C361.585 105.391 360.186 107.461 359.331 109.65C359.92 113.767 364.076 115.64 367.581 116.85C375.257 115.792 376.879 114.83 379.493 107.458C377.039 102.815 373.681 100.8 371.038 96.8123C368.211 92.5455 368.665 85.4769 374.365 83.9746C378.081 82.9944 380.117 83.9622 383.505 85.0537C389.799 82.5989 395.604 82.2123 397.337 91.3076C397.759 96.8093 391.876 100.287 389.164 103.823C383.06 111.78 393.049 118.219 400.508 116.173C406.638 114.493 407.736 110.973 405.163 105.542C403.116 101.216 404.606 96.8014 406.646 92.665C409.488 91.0308 413.231 88.6167 416.227 91.3375C416.865 91.9202 417.164 92.1342 418.016 92.3412C420.59 91.2699 422.356 82.2227 423.294 79.5199C425.072 74.3925 425.647 69.7918 424.613 64.5236C422.782 62.4009 422.218 61.9321 419.667 60.7421C411.561 66.2299 414.176 73.3022 402.432 71.1563C401.45 70.2808 400.348 69.1643 399.384 68.2376C399.018 66.8481 398.715 65.0877 398.424 63.6522Z" fill="#164171"/>
<path d="M182.244 130.651C182.858 131.169 182.655 131.026 183.025 131.847C182.313 135.26 182.828 135.004 185.277 136.908C190.52 137.683 196.407 137.033 201.525 136.965C211.143 136.837 213.202 140.317 219.558 146.208C222.266 148.718 234.847 152.156 234.203 157.508C233.808 160.784 231.575 167.64 229.166 169.666C224.011 170.826 211.507 159.321 207.843 171.809C205.113 181.113 219.782 176.551 222.321 179.94C222.577 181.61 222.074 182.916 221.651 184.58C222.38 186.731 223.254 188.474 222.058 190.538C219.263 190.933 208.515 184.586 204.823 188.027C201.034 197.628 225.151 201.764 230.797 203.76C247.287 209.59 256.574 226.917 256.718 243.9C235.691 241.177 225.277 259.82 199.295 258.347C199.511 256.952 199.865 255.385 200.146 253.985C200.324 251.743 200.233 249.426 200.197 247.172C197.467 249.842 191.528 256.799 187.977 256.52C182.146 256.061 175.773 251.952 171.888 247.825C177.332 239.201 178.935 236.008 175.518 225.8C170.756 230.588 161.791 232.632 155.977 228.964C155.899 228.732 155.822 228.499 155.744 228.266C168.454 222.22 166.538 217.653 161.983 206.737C157.577 207.583 150.202 208.944 147.404 203.955C146.762 202.811 146.256 201.051 146.646 199.758C148.785 198.688 151.168 200.895 153.367 198.854C161.222 191.568 154.302 183.25 155.374 174.076C156.047 168.325 156.316 164.255 161.101 159.956C165.144 160.456 167.162 160.791 171.261 160.604C173.755 158.868 177.633 155.938 177.358 152.624L176.845 152.358C175.264 152.949 174.95 154.419 173.87 155.632C169.499 160.54 162.62 153.943 159.118 150.894C158.48 149.127 157.725 147.433 158.307 145.617C159.961 143.439 163.011 142.742 165.787 142.271C174.93 140.718 181.911 142.212 187.849 149.66C189.139 151.279 189.631 153.53 191.111 154.568C191.949 154.18 191.619 154.478 191.984 153.518C191.014 145.651 185.59 144.176 180.707 139.272C178.23 136.784 179.71 132.59 182.244 130.651ZM215.587 156.779C216.608 155.751 216.572 155.822 216.962 154.429C216.242 150.437 206.701 151.059 203.562 151.406C206.838 157.324 208.579 160.121 215.587 156.779Z" fill="#164171"/>
<path d="M584.175 130.532C585.143 131.282 586.966 134.128 587.037 135.387C587.324 140.541 579.73 143.044 577.022 147.191C575.207 149.972 574.008 151.019 574.407 154.441L574.919 154.542C576.761 153.492 578.561 149.73 580.448 147.563C583.974 143.51 587.728 142.347 592.98 141.92C595.893 141.663 605.482 142.115 607.223 144.565C611.638 150.781 596.013 162.256 591.635 154.369C591.175 153.535 590.716 152.936 590.103 152.16L589.674 152.319C589.577 153.267 589.521 154.177 589.674 155.123C591.142 164.25 602.916 158.365 606.173 160.979C607.533 162.07 608.347 163.792 609.045 165.351C613.834 176.009 608.616 182.887 609.58 192.459C609.789 194.532 610.495 197.492 612.332 198.77C614.282 200.131 616.826 199.449 619 199.114L619.452 199.592C619.575 200.526 619.684 201.057 619.478 201.988C619.09 203.814 617.962 205.397 616.363 206.358C612.874 208.417 608.504 207.726 604.839 206.71C603.117 210.954 599.804 215.51 601.534 220.405C603.073 224.747 607.742 226.799 611.552 228.637C603.812 231.792 597.925 232.112 591.452 226.033C584.373 238.937 593.966 242.647 593.984 247.693C593.988 248.696 593.286 249.488 592.584 250.12C589.285 253.083 581.142 256.84 576.675 256.381C573.003 256.003 568.722 249.735 566.63 247.01L565.917 251.251C565.928 253.042 566.541 256.506 566.825 258.416C552.451 259.094 544.315 254.887 531.866 248.379C523.297 243.902 519.546 243.348 510.152 243.797C509.988 236.328 511.47 229.477 514.761 222.732C527.129 197.383 551.551 204.442 560.329 193.502C561.192 192.425 562.507 190.418 562.122 188.953C560.504 182.795 547.599 191.535 544.398 190.212C543.766 187.198 544.076 182.783 544.024 179.484C543.994 177.699 554.364 179.358 557.034 176.695C560.415 173.323 558.872 171.254 556.694 168.14C547.67 163.034 543.273 170.3 537.259 169.46C535.216 168.427 531.35 157.792 532.153 156.227C534.846 150.969 543.568 148.677 548.118 145.348C551.805 142.649 553.12 138.483 558.155 137.661C566.186 135.403 574.863 139.266 582.633 135.931C584.411 135.167 583.26 132.754 584.175 130.532ZM557.968 157.859C561.169 155.898 561.502 154.634 563.28 151.332C559.996 151.155 558.207 151.152 554.931 151.387C552.257 151.706 550.326 151.672 549.993 154.829C551.372 158.462 554.737 158.382 557.968 157.859Z" fill="#164171"/>
<path d="M537.484 301.151L537.906 301.113C547.468 300.306 556.299 304.068 563.497 310.176C560.52 316.996 558.902 321.428 567.426 324.283C558.966 330.651 534.066 336.148 529.583 343.93C526.091 349.986 528.724 360.723 530.543 366.923C531.623 370.603 533.005 374.478 537.054 375.557C538.369 375.908 539.874 376.069 541.073 376.722C541.133 378.489 539.198 380.092 537.659 380.622C532.217 382.501 526.86 380.263 521.933 378.048C518.968 378.84 513.368 381.421 510.97 383.382C504.194 388.933 507.739 393.837 511.99 398.839C498.195 399.403 500.38 393.52 496.858 392.84C495.939 392.661 493.365 394.147 492.032 394.125C489.914 394.095 487.277 393.034 485.2 392.53C471.465 389.194 476.093 396.415 471.006 399.508C463.987 386.714 468.791 389.691 474.737 381.959C474.592 380.88 474.786 381.388 473.859 380.529C470.58 379.737 466.523 381.87 463.628 383.319L463.236 383.17C462.75 364.278 477.852 374.537 479.888 372.865C479.926 368.688 474.446 367.325 471.271 366.055C476.276 362.792 476.597 361.588 482.51 362.63C485.969 365.378 488.199 369.214 491.531 371.452C498.214 369.773 505.386 366.427 509.114 360.374C502.741 353.496 499.469 347.016 498.558 337.781C495.752 337.941 492.245 338.215 489.705 336.777C487.37 335.457 486.279 330.505 487.662 328.388C489.137 328.4 489.533 329.577 490.28 329.84C496.608 330.863 506.368 319.169 510.541 315.87C519.614 308.697 526.005 303.168 537.484 301.151Z" fill="#164171"/>
<path d="M221.636 301.181C247.716 298.57 262.826 328.402 274.213 329.972C276.233 330.25 277.612 328.757 279.071 327.589C279.068 331.119 278.922 333.245 278.06 336.632C273.88 338.214 271.769 338.007 267.48 337.566L267.471 337.74C266.916 347.509 264.344 353.574 256.805 360.271C260.229 364.741 264.867 367.792 269.917 370.103C277.935 373.999 279.061 363.39 285.841 362.278C289.943 361.604 292.018 364.18 295.345 366.095C291.921 367.164 286.201 368.812 286.207 373.18L286.728 373.57C288.662 373.685 294.46 369.165 298.75 372.394C302.548 375.254 302.892 380.207 303.766 384.447C298.946 379.968 296.154 380.319 289.891 381.122C295.977 385.597 299.631 386.434 297.914 395.032C297.385 396.519 297.057 398.11 295.561 398.768C293.63 397.763 292.369 393.232 289.283 391.857C285.04 389.964 279.889 393.482 275.4 393.99C272.857 394.278 270.127 392.459 268.351 393.015C265.063 399.137 260.735 398.551 254.458 399.085C257.17 395.051 258.029 395.137 259.523 390.214C257.432 382.198 251.446 380.461 244.469 378.272C239.765 380.33 227.591 384.29 224.927 377.439C225.948 375.923 229.389 375.583 231.053 374.567C234.517 372.461 236.225 365.697 237.114 361.946C238.244 357.176 239.64 350.88 237.872 346.12C237.064 343.946 235.627 342.079 233.82 340.637C228.788 336.621 201.376 327.16 200.325 324.994C199.802 323.918 204.901 320.599 205.372 318.754C206.13 315.787 204.207 312.916 202.812 310.447C207.553 305.448 215.051 302.688 221.636 301.181Z" fill="#164171"/>
<path d="M181.725 441.305C194.558 440.819 210.101 442.672 222.514 445.638C223.713 445.892 230.171 447.229 230.616 448.271C234.561 457.508 227.256 465.255 235.82 473.932C243.144 462.708 262 462.349 274.093 462.315C274.261 474.059 277.352 491.051 260.691 489.781C255.552 489.388 251.173 489.146 246.062 488.1C242.163 486.916 237.814 486.288 233.824 485.216C210.471 478.93 185.314 474.085 161.149 477.955C156.187 478.747 150.441 479.625 146.422 482.725L146.016 482.471C145.303 479.236 150.075 452.951 150.981 447.991C157.873 441.723 172.807 441.559 181.725 441.305Z" fill="#164171"/>
<path d="M581.617 441.316C588.512 441.357 614.674 441.137 615.944 450.501C617.267 460.242 619.246 470.795 620.98 480.603C621.122 481.425 621.264 482.187 620.856 482.908C599.841 472.412 568.752 476.73 546.579 481.892C539.321 483.584 532.187 485.597 524.779 486.983C521.354 487.954 517.862 488.675 514.328 489.138C486.477 492.926 493.966 481.249 492.013 462.932L491.953 462.39C494.362 462.368 496.768 462.375 499.177 462.42C507.212 462.588 519.793 464.471 526.554 469.2C527.891 470.137 529.927 472.304 531.111 473.536C536.617 467.056 535.313 462.144 535.022 454.008C534.753 446.351 537.939 447.199 544.054 445.589C556.556 442.295 568.797 441.555 581.617 441.316Z" fill="#164171"/>
<path d="M283.37 550.337C291.544 550.027 291.044 552.017 298.366 553.172C301.201 553.616 310.158 551.595 313.171 552.227L313.486 552.989C313.148 554.699 311.408 556.66 310.15 557.803C308.404 559.383 304.592 558.913 302.294 558.801C311.267 578.146 298.329 592.209 277.925 589.153C276.639 590.752 274.879 592.653 274.983 594.857C275.352 602.626 300.404 595.126 308.2 602.806C310.811 605.379 311.623 608.887 311.697 612.439C311.84 619.3 309.807 624.272 305.106 629.195C294.391 638.746 275.849 643.299 264.201 631.847C261.828 629.513 260.339 625.527 260.678 622.188C261.318 615.868 268.39 611.468 272.915 607.762C264.548 603.134 259.045 595.626 269.269 591.196C269.971 590.89 272.933 588.526 273.61 588.021C272.469 587.323 271.285 586.55 270.24 585.721C266.583 582.747 264.231 578.467 263.685 573.786C262.104 560.414 270.466 551.7 283.37 550.337ZM289.956 631.53C294.093 630.936 297.84 629.763 300.545 626.278C302.664 623.495 303.549 619.969 302.992 616.518C301.549 607.934 290.793 607.762 284.029 608.244C279.823 608.64 276.321 609.839 273.639 613.242C269.623 618.341 270.361 624.563 275.584 628.411C280.435 631.982 284.415 631.944 289.956 631.53ZM287.357 585.411C296.271 580.431 296.283 568.116 292.085 560.026C289.809 555.641 286.792 554.449 282.11 554.737C271.543 557.93 272.368 579.871 281.517 584.581C283.317 585.508 285.417 585.53 287.357 585.411Z" fill="#164171"/>
<path d="M365.216 517.799L366.232 517.776C367.32 519.446 366.793 534.805 366.793 538.216L366.797 577.2C366.792 581.903 366.416 593.875 367.507 597.729C368.906 599.702 373.513 599.104 376.262 600.31C376.736 601.36 376.688 600.826 376.333 601.98C373.286 604.542 365.038 605.424 361.007 606.907C359.403 607.497 357.85 607.669 356.599 606.388C356.217 604.759 356.781 601.752 357.016 599.937C348.099 605.29 341.289 611.639 330.705 605.233C302.645 586.21 324.454 542.212 356.871 551.506C356.335 542.395 358.271 533.823 354.565 525.531C352.23 525.269 349.129 525.359 347.665 523.353L347.879 522.576C350.138 520.836 361.562 518.624 365.216 517.799ZM342.7 599.369C349.599 599.978 356.793 599.347 356.743 590.614C356.706 584.421 356.764 577.694 356.807 571.504C356.878 561.251 356.518 555.984 344.411 555.177C339.984 555.906 336.72 557.09 334.113 561.008C330.022 567.149 328.291 576.334 329.871 583.543C331.506 591.002 335.059 597.15 342.7 599.369Z" fill="#164171"/>
<path d="M404.942 550.336C419.656 549.922 429.767 556.447 433.032 571.347C434.777 579.296 433.585 589.717 429.039 596.635C424.635 603.332 418.117 606.242 410.493 607.796C403.504 608.55 396.586 606.746 391.092 602.365C372.75 587.752 380.696 552.817 404.942 550.336ZM409.574 603.549C413.235 602.981 416.238 601.506 418.431 598.368C423.07 591.719 422.543 578.762 421.273 571.239C420.433 566.267 417.418 559.353 413.044 556.713C410.09 554.931 408.846 554.972 405.57 554.77C389.329 557.284 390.924 587.469 398.596 597.584C401.368 601.233 404.991 603.257 409.574 603.549Z" fill="#164171"/>
<path d="M592.479 550.348C627.745 548.23 630.632 604.382 595.464 607.916C568.435 608.842 560.221 577.888 574.923 558.965C579.312 553.314 585.558 551.065 592.479 550.348ZM596.674 603.478C599.991 602.959 602.968 601.159 604.966 598.462C609.213 592.724 609.008 578.306 607.731 571.549C606.08 562.831 601.903 555.219 592.109 554.804C588.729 555.208 586.921 555.734 584.683 558.614C575.651 570.227 577.773 603.086 596.674 603.478Z" fill="#164171"/>
<path d="M104.951 563.399C114.649 556.246 122.583 547.509 130.215 538.242C131.723 536.415 134.497 533.315 135.087 531.197C134.285 528.276 130.369 530.416 128.278 527.966C127.96 526.793 128.083 526.648 128.303 525.464C130.213 523.854 151.5 525.325 155.208 524.784C157.528 524.448 157.515 527.794 156.945 528.201C154.567 529.501 150.36 529.882 148.038 531.078C135.397 537.588 127.746 550.576 116.696 558.995C118.885 562.562 120.928 564.796 123.451 568.034C129.459 575.684 135.731 583.121 142.258 590.33C144.542 593.001 149.331 599.078 152.628 600.449C157.795 602.593 157.7 600.195 159.642 606.119C155.69 606.496 143.894 607.392 140.515 605.925C136.077 603.997 115.503 575.004 108.97 568.878C107.774 567.754 106.401 566.843 105.043 565.931C104.797 571.355 103.82 596.347 106.372 599.743C108.065 601.995 112.113 601.976 114.643 602.253C115.357 603.485 116.182 604.471 116.13 605.753C113.359 606.772 88.9708 606.567 84.8421 606.249C84.1567 605.79 84.2064 606.029 84.0801 605.342C83.1578 600.329 90.3181 603.605 92.7958 599.399C93.5365 597.812 93.9332 594.637 93.9201 592.896C93.7752 573.275 94.6799 553.328 93.4181 533.782C93.1174 529.128 87.0198 529.725 84.4454 528.243C83.6207 526.857 83.9064 526.506 83.9105 524.728C90.0578 525.333 99.4511 524.455 105.826 524.75C108.677 524.885 111.645 524.403 114.49 525.124C115.296 526.36 115.036 525.68 115.121 527.294C113.551 530.319 109.121 528.601 106.941 531.066C103.622 534.817 104.916 557.299 104.951 563.399Z" fill="#164171"/>
<path d="M457.853 550.18C458.522 550.243 459.011 550.135 459.343 550.527C460.46 551.853 460.217 557.329 460.266 559.219C474.643 549.22 479.884 544.341 492.517 559.865C497.96 554.927 506.984 548.391 514.742 550.662C533.199 556.063 522.949 585.31 526.759 599.145C527.506 601.872 534.91 602.772 533.595 605.667C531.32 607.004 512.759 606.474 509.091 606.171C507.922 606.074 507.836 605.962 507.331 605.245C508.209 601.767 516.016 601.409 515.983 597.419C515.9 587.682 518.609 569.48 512.927 561.318C507.653 553.747 497.978 560.123 492.917 564.303C493.361 571.317 493.204 579.165 493.189 586.247C493.145 589.609 492.857 594.991 493.556 598.11C494.385 601.834 499.7 601.509 500.884 605.166L500.548 605.719C497.739 606.866 477.594 606.787 474.599 605.801L474.36 605.062C475.361 602.025 482.428 601.282 482.559 598.996C483.171 588.134 484.154 575.064 481.58 564.426C480.556 560.198 477.142 559.141 473.624 557.546C467.15 558.662 464.857 559.966 460.15 564.448C459.788 572.472 459.937 589.885 460.285 598.585C460.352 600.281 465.862 602.869 466.837 605.002L466.556 605.741C463.859 606.817 443.379 606.87 441.044 605.671L440.98 604.834C442.194 601.767 448.227 601.136 449.146 599.119C450.916 595.219 449.979 586.415 450.031 582.068C450.113 575.62 450.334 569.868 449.803 563.552C449.34 558.065 442.945 559.641 442.654 556.066C443.681 554.864 454.581 551.655 457.853 550.18Z" fill="#164171"/>
<path d="M53.9181 638.115L54.4952 638.201C54.6323 638.429 54.769 638.661 54.9061 638.888C54.1168 649.269 55.5067 669.271 54.4522 678.74C62.0077 674.949 66.5357 668.042 77.4004 671.605C96.6456 677.918 83.0744 709.922 90.3187 721.987C92.4378 722.558 95.7055 723.156 96.3931 725.404C94.6838 727.373 72.5997 727.388 71.1915 726.555C69.5625 720.59 77.4523 723.768 77.9603 719.432C79.0678 709.985 78.6121 699.295 78.1134 689.759C77.9898 687.398 76.0474 683.562 75.04 681.594C67.2219 674.907 61.0377 678.392 54.8893 684.918C54.1456 692.997 55.2748 704.618 54.6917 712.133C53.6192 725.961 62.2315 720.534 62.4982 726.151C60.4751 727.601 40.5784 726.7 37.1228 726.54C36.7162 726.521 36.5367 725.707 36.4014 725.359C37.5236 721.725 44.1815 723.469 44.4572 718.289C44.6451 714.766 44.5535 711.21 44.5577 707.684L44.5733 687.816L44.5704 665.211C44.5655 658.984 44.7452 652.996 43.9114 646.811C41.4711 646.004 37.564 646.045 36.5509 643.916L36.9152 643.102C39.3554 641.193 50.6747 638.459 53.9181 638.115Z" fill="#164171"/>
<path d="M371.877 638.055C372.339 637.984 372.032 637.999 372.788 638.19C373.707 640.36 373.453 674.082 373.621 679.162C379.321 673.843 386.306 669.398 394.561 671.164C411.352 674.758 406.75 698.133 407.388 710.661C407.553 713.851 406.947 717.022 408.161 720.063C409.458 723.312 413.35 722.102 415.061 724.59C415.229 725.998 415.3 725.314 414.728 726.708C411.479 727.175 389.47 727.765 388.902 725.243C390.587 721.071 396.571 723.723 396.72 718.576C396.982 709.533 399.017 689.986 394.247 682.587C391.412 677.641 383.082 677.227 378.858 680.278C376.545 681.944 375.963 682.441 374.118 684.552C372.659 690.125 373.475 708.491 373.492 715.334C373.512 723.249 377.203 721.344 380.651 724.302C381.177 725.531 381.076 724.892 380.856 726.293C378.91 727.257 356.791 727.421 354.778 725.722C354.463 722.752 359.774 722.113 361.79 721.643C363.615 720.163 363.632 716.04 363.563 713.81C362.944 693.568 364.495 672.016 363.564 651.909C363.52 650.86 363.27 649.825 362.828 648.873C360.951 644.924 356.434 645.862 354.961 644.043L355.098 643.042C356.307 641.996 369.392 638.664 371.877 638.055Z" fill="#164171"/>
<path d="M617.674 679.931C624.409 674.526 632.503 668.232 641.506 671.803C651.042 675.647 650.497 682.99 651.147 691.824C651.912 701.192 649.888 711.266 651.811 720.384C652.428 723.298 660.814 722.371 658.838 726.256C656.69 727.298 636.19 727.04 633.448 726.469L633.101 725.591C633.99 722.222 639.907 721.717 640.198 719.357C641.409 709.63 642.144 691.511 638.779 682.692C637.591 680.734 634.958 679.042 632.698 678.691C626.74 677.757 621.974 681.373 617.465 684.675C617.502 692.407 617.499 700.143 617.45 707.875C617.443 711.087 617.349 715.241 617.528 718.389C617.73 721.893 622.784 722.196 625.313 724.295C625.847 725.643 625.791 724.967 625.477 726.394C625.324 726.446 625.171 726.502 625.018 726.551C622.545 727.332 600.469 727.19 598.953 726.215C598.474 725.908 598.564 725.524 598.471 725.016C600.619 720.25 608.1 727.048 607.727 712.275C607.458 701.562 608.519 691.339 606.662 680.323C604.787 679.752 601.074 679.322 600.148 677.75L600.402 676.917C602.468 674.732 612.863 671.934 616.393 670.877L617.2 671.18C617.614 672.648 617.577 677.948 617.674 679.931Z" fill="#164171"/>
<path d="M212.971 550.18C213.365 550.251 213.096 550.176 213.698 550.591C214.017 552.261 213.99 557.326 214.023 559.268C225.242 550.61 233.417 545.074 245.24 556.847C248.351 569.659 246.218 582.893 247.209 596.034C247.924 605.525 255.307 599.754 255.389 605.241L254.636 605.973C252.168 606.847 230.259 606.941 229.283 605.316C229.691 602.742 236.803 600.169 236.824 598.667C236.961 588.956 238.927 570.982 234.939 562.529C230.682 552.955 219.434 559.929 213.957 564.008C213.917 568.894 213.001 597.169 214.708 599.885C216.111 602.119 220.573 602.253 222.24 604.797C222.168 605.316 222.232 605.779 221.793 605.906C218.398 606.892 197.811 606.575 195.363 606.018L194.854 605.118C195.575 602.145 203.526 601.215 203.551 598.551C203.645 588.485 205.6 568.901 202.321 559.985L202.131 559.473C200.046 558.973 196.572 558.666 197.194 555.843C198.875 554.102 209.592 551.349 212.971 550.18Z" fill="#164171"/>
<path d="M659.167 517.425C663.216 516.959 668.501 518.053 670.511 522.016C671.766 524.493 670.948 526.136 670.089 528.549C668.987 528.979 667.743 529.55 666.637 530.021C663.705 527.996 658.984 524.209 655.435 524.22C645.118 524.25 646.571 545.238 646.616 552.036C650.131 551.801 658.745 550.58 660.829 553.344C660.911 554.681 660.863 554.64 660.362 555.813C658.778 557.094 649.317 556.578 646.575 556.567C646.765 567.272 646.433 578.052 646.545 588.761C646.582 592.444 646.422 595.664 647.247 599.295L649.881 601.827C652.63 602.133 654.139 602.077 656.414 603.691L657.321 604.976L657.131 605.715C656.974 605.783 656.821 605.857 656.66 605.921C654.187 606.896 630.345 606.802 628.287 605.693C627.715 605.383 627.827 605.305 627.655 604.733C629.344 602.006 633.008 602.462 634.663 600.494C636.799 597.617 636.844 592.575 636.84 589.172C636.826 578.407 637.012 567.608 636.493 556.866C634.121 556.556 629.19 557.191 627.752 555.656C627.988 551.36 632.941 551.779 636.217 551.599C637.315 543.901 637.18 536.259 641.805 529.348C645.323 524.093 653 518.688 659.167 517.425Z" fill="#164171"/>
<path d="M531.828 638.04C533.031 638.264 533.001 638.436 533.005 640.277L532.941 693.96C532.945 701.39 532.938 708.939 532.863 716.383C532.852 717.384 533.266 718.635 533.666 719.539C535.242 723.095 539.867 722.662 541.514 724.511C541.529 725.523 541.275 725.538 540.64 726.565C539.142 727.208 518.572 726.827 515.46 726.834C514.679 726.659 515.053 726.812 514.422 726.155C514.026 720.716 519.281 724.575 521.866 719.913C522.236 719.252 522.468 718.643 522.486 717.836C522.695 708.771 522.621 699.533 522.609 690.464C522.594 677.783 522.673 665.109 522.486 652.436C522.46 650.594 522.146 648.805 521.758 647.012C519.121 645.608 516.932 645.88 514.967 644.495C514.418 643.277 514.384 643.83 514.713 642.784C516.394 641.977 528.956 638.836 531.828 638.04Z" fill="#164171"/>
<path d="M490.212 684.1C492.801 679.027 496.603 672.957 502.33 671.176C503.839 670.705 505.957 670.806 507.563 670.828C512.135 674.519 514.227 680.196 507.753 683.539C504.485 685.228 500.705 678.967 496.529 681.985C490.044 686.662 489.656 694.984 489.992 702.264C490.489 709.171 488.363 715.958 492.241 721.915C494.725 722.733 499.427 722.375 499.932 725.292L499.375 726.054C497.406 726.939 495.789 726.999 493.649 726.95C486.772 726.782 479.671 727.223 472.865 726.431C472.402 726.375 472.35 725.89 472.182 725.497C472.66 723.469 477.06 722.184 479.671 719.491L480.015 719.132C480.34 707.848 480.116 695.821 480.033 684.496C479.996 679.602 475.174 679.838 472.51 677.458L472.566 676.864C474.27 675.262 485.842 671.848 488.838 670.881L489.659 671.303C490.339 672.927 489.984 681.123 490.212 684.1Z" fill="#164171"/>
<path d="M180.53 550.187L181.151 550.325C182.549 552.742 180.651 591.611 182.23 599.421L184.569 601.763C186.65 602.055 188.631 602.096 190.091 603.586C190.503 605.006 190.599 604.617 190.303 605.902C187.536 606.955 169.547 606.373 165.834 606.257C164.539 606.081 163.692 606.074 162.925 605.02C163.598 602.865 165.886 602.97 167.662 602.062C172.534 599.548 171.968 591.473 171.876 586.725C171.697 577.454 172.66 568.303 170.189 559.305C168.162 558.879 164.131 558.621 164.47 555.939C166.279 553.971 176.73 551.513 180.53 550.187Z" fill="#164171"/>
<path d="M380.909 60.5805C384.162 59.7531 387.614 60.7374 389.941 63.1589C392.268 65.5801 393.12 69.0651 392.163 72.2856C391.211 75.5062 388.6 77.9662 385.328 78.7282C380.341 79.8899 375.347 76.818 374.133 71.8419C372.923 66.8658 375.945 61.8419 380.909 60.5805Z" fill="#164171"/>
<path d="M509.464 167.9C511.044 169.504 509.718 170.534 513.151 172.705C523.427 179.208 534.402 169.857 545.828 174.36L545.865 174.798C543.942 175.56 541.902 175.772 539.848 176.105C530.689 177.612 523.143 185.323 513.827 182.012C507.929 179.914 506.98 172.937 509.464 167.9Z" fill="#164171"/>
<path d="M257.243 168.732L257.584 169.076C258.028 170.234 258.138 174.428 257.806 175.625C253.704 190.4 235.481 177.909 226.591 176.057C225.014 175.76 220.768 175.683 220.007 174.651C224.694 167.429 244.457 183.1 257.243 168.732Z" fill="#164171"/>
<path d="M174.216 524.563C184.027 523.757 184.952 535.9 176.911 537.868C173.81 537.835 171.627 537.315 170.239 534.23C169.437 532.419 169.405 530.36 170.15 528.526C170.993 526.401 172.209 525.441 174.216 524.563Z" fill="#164171"/>
<path d="M588.557 430.293C590.256 428.806 590.122 428.975 592.004 429.031C591.452 430.375 591.354 431.223 590.331 432.037C589.117 431.634 589.449 431.653 588.557 430.293Z" fill="#0B355B" fill-opacity="0.988235"/>
<path d="M704.483 671.799C704.431 667.944 705.141 651.293 703.482 647.789C702.784 646.31 695.399 645.376 694.629 643.225C695.653 642.048 712.253 638.253 714.561 637.977L714.546 691.14L714.539 706.772C714.535 710.75 713.702 715.737 716.47 718.871C719.107 721.852 725.341 718.001 722.824 723.488C719.383 725.21 711.539 726.121 707.393 728H704.502C704.393 725.568 704.375 723.129 704.442 720.694C700.326 723.312 696.093 725.747 691.768 728H682.123C675.486 724.836 669.793 720.656 667.462 713.444C659.218 687.924 678.739 666.723 704.483 671.799ZM690.771 719.988C696.12 720.287 699.732 719.532 704.304 716.495C704.752 707.138 704.322 697.468 704.427 688.081C704.446 686.243 704.412 683.801 704.24 681.996C700.199 677.723 697.36 675.523 691.155 675.811C672.445 679.546 671.997 715.476 690.771 719.988Z" fill="#164171"/>
<path d="M198.988 719.248C203.082 722.632 208.42 722.247 209.738 724.84L209.66 725.912C207.759 727.443 182.18 727.264 180.707 726.117C180.152 724.896 180.191 725.501 180.537 724.238C184.564 720.38 189.12 723.94 190.49 716.73C191.766 710.022 192.923 658.875 190.029 654.912C187.287 651.154 180.176 650.176 178.525 647.012L178.671 646.299C181.066 645.036 193.089 645.059 196.26 645.253C199.304 647.737 204.973 655.312 207.693 658.722L227.238 683.341C233.344 691.103 241.633 700.273 246.857 708.457C246.432 691.103 247.597 672.867 245.644 655.543C244.884 648.801 236.647 651.468 233.936 647.311L233.897 646.414C235.944 644.48 253.098 645.626 256.977 645.279C258.281 645.163 262.261 645.503 263.488 646.127C263.75 647.359 263.782 646.762 263.341 647.976C262.318 648.928 260.175 649.683 258.822 650.101C252.518 652.062 252.754 658.304 252.619 664.232C252.142 685.354 252.915 706.888 252.443 728H248.18C243.299 723.596 235.355 712.046 230.982 706.417L210.304 679.666C208.288 677.107 205.974 674.589 203.896 671.971C202.748 670.525 198.576 663.682 197.756 663.507C195.947 668.101 197.467 713.44 198.988 719.248Z" fill="#164171"/>
<path d="M572.51 679.131C558.382 670.514 562.476 684.454 554.737 689.471C552.622 690.841 548.693 688.171 548.36 685.937C547.785 679.214 557.837 675.691 562.349 673.529C568.55 670.473 576.144 669.278 581.317 674.982C584.817 678.844 584.832 683.11 585.18 687.909C585.819 696.706 583.719 710.422 586.442 718.576C589.035 720.365 593.868 718.688 595.568 720.992C595.168 722.815 588.407 726.58 586.435 728H581.284C577.627 725.452 577.492 724.608 575.304 720.768C571.662 723.984 569.798 725.725 565.532 728H556.978C548.514 723.301 544.98 715.602 549.22 706.47C554.315 695.492 578.867 700.975 575.139 685.986C574.549 683.603 573.667 681.298 572.51 679.131ZM561.423 718.729C566.13 721.381 572.102 721.721 574.878 715.92C575.98 713.623 576.391 698.723 574.687 697.767C566.13 702.077 551.995 706.933 561.423 718.729Z" fill="#164171"/>
<path d="M119.257 728C113.756 725.639 106.94 720.72 105.035 714.744C99.9456 698.775 103.944 678.799 121.157 672.278C126.001 670.44 131.416 670.119 135.991 672.337C140.753 674.698 144.35 678.896 145.953 683.965C146.958 687.069 148.781 693.415 144.099 693.901C133.943 694.954 122.87 695.791 112.69 696.179C113.425 703.994 114.184 710.556 120.595 716.014C125.302 720.018 131.186 720.511 136.842 718.449C139.038 717.65 145.464 711.083 146.041 716.249C144.573 720.298 135.647 726.267 131.748 728H119.257ZM113.492 690.618C117.436 690.166 121.397 690.233 125.369 690.207C127.932 690.169 134.112 690.584 135.688 689.023C136.459 687.435 136.39 686.117 135.728 684.484C133.373 678.665 130.518 675.527 124.186 675.781C116.802 678.168 114.83 683.539 113.492 690.618Z" fill="#164171"/>
<path d="M286.261 728C261.919 717.568 265.667 681.153 288.922 672.053C298.545 668.285 309.65 673.126 312.644 683.166C313.913 687.301 315.664 693.471 309.669 694.091C299.624 695.134 289.5 695.5 279.452 696.288C279.954 700.311 280.385 704.113 282.028 707.848C283.536 711.277 285.526 714.206 288.428 716.578C291.93 719.439 296.189 720.066 300.537 719.42C305.273 718.856 306.969 716.029 311.026 714.366C311.019 714.37 312.62 715.08 312.709 715.244C312.784 715.3 312.858 715.36 312.933 715.416C313.19 719.906 302.68 726.293 298.895 728H286.261ZM279.935 690.27C284.519 690.267 289.103 690.24 293.687 690.188C295.487 690.162 300.754 690.364 301.964 689.404C304.303 687.547 302.386 682.71 301.138 680.641C298.534 676.323 294.845 675.438 290.2 675.766C284.085 679.36 282.582 684.044 279.935 690.27Z" fill="#164171"/>
<path d="M437.488 728C421.105 719.868 417.881 703.183 424.594 686.602C427.283 679.957 435.083 673.772 441.533 671.721C454.021 666.727 468.6 680.17 464.711 692.56C463.777 693.759 461.293 694.2 459.867 694.293C450.341 694.913 440.641 695.813 431.13 696.232C432.819 708.786 436.498 721.306 452.564 719.36C457.218 718.796 459.997 714.284 463.845 714.355L464.461 714.848C464.629 719.626 454.824 726.203 450.633 727.776L450.046 728H437.488ZM431.87 690.591C435.975 690.184 440.174 690.233 444.305 690.195L453.939 690.009C454.783 684.746 453.92 683.603 451.608 678.698C448.044 676.106 446.808 675.639 442.224 675.748C436.072 678.146 433.256 684.559 431.87 690.591Z" fill="#164171"/>
<path d="M731.385 724.758C730.485 722.487 728.569 711.311 729.286 709.649C730.616 708.734 729.884 709.047 731.639 708.864C733.167 709.529 733.993 711.233 734.613 712.745C736.081 717.153 741.097 723.951 746.331 724.014C755.325 724.127 759.188 713.089 751.048 707.785C742.498 702.212 731.18 699.224 731.087 687.405C730.993 675.475 741.392 670.317 751.907 670.735C759.535 671.019 761.369 673.245 762.139 680.574C762.329 682.228 762.893 684.01 762.706 685.706C761.817 686.8 761.829 686.759 760.63 687.529C759.688 686.894 757.488 682.497 756.659 681.007C752.068 672.767 741.202 673.174 739.79 682.945C738.632 690.973 754.773 695.354 759.46 698.813C761.272 700.154 763.031 703.934 764.75 706.175L765 706.492V716.671C762.019 720.604 760.32 723.992 755.643 726.244C753.992 727.04 752.427 727.365 751.026 728H738.49C735.89 726.678 734.411 726.614 731.385 724.758Z" fill="#164171"/>
<path d="M380.412 0H386.063C390.725 6.44428 384.61 10.3717 386.429 14.1627C389.392 14.3371 394.094 10.7256 397.867 12.1861C401.218 13.484 401.55 19.7147 398.076 20.9034C394.315 22.1914 389.84 20.4269 386.351 18.8961C385.611 23.524 386.515 28.0429 387.363 32.6202C392.227 34.9139 397.729 38.9004 395.955 45.1465C394.255 51.1225 388.312 54.1465 383.292 56.9887C382.25 56.4209 381.211 55.8371 380.184 55.2376C374.095 51.6518 371.703 49.4666 369.962 42.6988C371.611 35.7054 374.204 36.0709 379.306 32.0307L379.627 31.7724C380.371 26.7894 380.74 23.7971 380.531 18.7945C376.818 19.8834 370.735 23.0574 367.128 20.67C365.122 19.3051 365.618 14.105 367.276 12.8152C370.946 9.96079 376.437 14.049 380.057 14.4254C382.679 11.4819 374.812 6.11184 380.412 0Z" fill="#164171"/>
<path d="M8.09081 671.811C8.34672 662.659 8.41276 662.842 15.4298 655.727C15.701 655.45 16.2181 655.26 16.5773 655.11C19.0109 655.786 18.4146 660.482 18.4606 662.629C18.5292 665.838 18.4483 669.136 18.4341 672.356C23.1809 672.352 27.9276 672.382 32.6739 672.442C32.6674 673.996 32.7018 675.748 32.6135 677.279C28.4191 677.694 22.7615 677.496 18.4187 677.455L18.4443 699.381C18.4451 704.584 17.5991 714.938 21.0913 719.286C23.1162 721.807 29.1014 720.287 31.9067 719.469C32.9312 720.134 33.9518 720.806 34.9684 721.482L24.2686 728H15.4028C15.3104 727.944 15.2179 727.884 15.1255 727.828L14.6687 727.533C11.6578 725.621 9.2305 722.827 8.85476 719.222C7.43985 705.656 8.99615 691.249 7.96556 677.645C5.34275 677.522 2.62835 677.305 0 677.13V675.116C1.0422 674.332 1.97789 673.693 2.87969 672.741L8.09081 671.811Z" fill="#164171"/>
<path d="M327.739 662.958C329.486 660.848 333.336 655.562 335.742 655.054C337.18 655.887 337.084 657.617 337.071 659.185C337.036 663.507 336.941 667.702 337.175 672.027C340.82 672.483 349.902 671.874 351.66 673.185C351.851 674.634 351.736 674.821 351.374 676.278C349.26 678.37 340.289 677.443 336.953 677.511C336.954 684.48 335.481 714.56 339.589 718.695C341.076 720.193 343.247 720.559 345.271 720.481C347.329 720.402 350.149 719.484 352.065 720.029C353.232 723.749 345.504 726.442 342.789 728H334.053C332.35 726.853 330.031 725.441 329.216 723.51C326.579 717.269 327.166 709.507 327.177 702.873C327.231 694.42 327.235 685.967 327.187 677.518C324.195 677.511 321.506 677.963 319.258 676.181C318.453 673.432 323.333 672.404 325.342 672.221L327.293 672.035C327.191 668.759 327.09 666.193 327.739 662.958Z" fill="#164171"/>
</svg>
