<svg width="728" height="704" viewBox="0 0 728 704" fill="none" xmlns="http://www.w3.org/2000/svg">
<path d="M349.381 59.9063C351.186 58.9082 353.175 57.8259 354.897 56.9513C365.188 51.7264 375.023 53.3001 385.428 53.1394C387.706 53.1042 401.221 48.1068 404.797 47.0355C423.403 41.4668 442.296 36.4499 461.879 39.9251C466.222 40.6882 473.673 43.4562 477.917 44.9321C478.778 51.6706 479.161 59.7132 479.691 66.5623C488.091 69.1095 496.018 73.3036 503.785 77.1564C516.009 83.2197 517.815 74.5612 527.505 69.9827C531.941 67.8871 536.598 69.7374 540.825 71.4796C549.175 83.3996 548.08 95.933 548.414 110.094C572.696 117.328 595.357 126.284 612.789 145.62C615.967 149.145 619.017 153.727 621.765 157.661C629.546 157.721 644.405 161.295 652.253 162.995C647.099 165.194 642.435 167.852 637.477 170.356C628.369 174.956 624.463 181.339 625.369 191.578C629.486 192.985 633.666 196.041 637.125 198.521C657.12 212.855 668.9 238.763 666.294 263.277C665.996 266.096 664.937 271.977 665.377 274.56C666.6 281.738 668.74 289.049 670.24 296.203C671.392 302.107 672.089 308.735 673.006 314.769C674.115 316.128 675.729 317.973 676.621 319.354C680.89 325.958 677.371 332.712 677.858 339.628C678.256 342.082 679.233 344.624 679.735 347.043C685.888 376.86 690.505 408.014 683.759 438.101C678.672 462.389 666.056 485.763 645.891 500.739C640.704 504.59 635.703 506.816 630.463 510.208L630.097 510.446C629.678 526.617 627.403 539.9 609.615 544.839C607.617 545.394 600.273 546.087 599.121 547.246C595.176 551.214 591.532 554.45 587.22 558.019C587.075 560.569 587.053 563.115 587.217 565.664C588.095 579.321 587.366 592.857 587.188 606.507C570.609 608.377 555.218 605.305 539.289 601.781C531.728 606.393 529.848 607.47 520.428 607.755C517.616 610.051 512.76 612.014 509.543 614.048C495.584 622.89 480.814 630.3 466.357 638.222C464.292 639.356 462.497 641.952 461.164 643.843C461.331 645.355 461.672 646.727 461.999 648.21C462.039 649.166 462.042 650.464 462.216 651.363C459.277 662.361 455.512 666.258 443.849 665.938C442.26 663.143 435.268 650.656 433.153 649.522C432.094 648.953 417.047 650.318 414.495 650.35C407.588 650.439 400.72 649.468 393.835 649.077C389.718 648.842 385.538 649.067 381.415 649.127C378.834 649.163 376.125 649.031 373.569 649.355C367.658 650.101 361.843 652.466 356.009 653.735C352.608 654.471 348.986 654.624 345.528 655.022C341.879 655.445 338.271 656.078 334.637 656.59C321.487 658.446 308.053 659.275 294.797 659.925C253.119 661.966 222.25 658.631 187.932 632.768C176.29 623.993 158.902 611.05 149.028 600.526C142.179 593.223 136.696 585.266 131.959 576.466C130.9 574.499 129.267 572.59 128.469 570.521C126.054 564.249 124.178 550.944 123.226 544.131C109.026 530.574 102.281 520.206 95.6288 501.824C93.2859 499.986 90.3003 498.332 88.0914 495.964C79.5769 486.837 71.4121 474.613 67.7113 462.666C66.5244 458.834 65.8867 448.803 65.0482 444.626C64.3177 440.985 64.7396 431.114 63.5516 428.003C61.8241 423.481 57.3956 416.924 54.8679 412.284C57.375 410.649 59.6977 409.155 62.0811 407.324C58.4699 388.903 50.5721 361.98 67.3086 347.823C65.5401 345.116 61.6662 340.969 59.494 338.052C47.9132 322.502 47.2403 314.622 47.6274 296.29C54.3926 297.045 69.4112 298.737 75.1837 301.449C76.506 290.111 81.4417 275.446 84.6594 264.522C87.0812 256.3 90.4948 250.456 90.1624 241.174C89.9914 236.398 86.8395 232.747 91.4115 229.972C93.1114 224.113 93.9968 216.124 95.498 210.319C100.058 192.682 110.873 159.336 125.768 148.609C128.494 146.635 131.551 145.164 134.794 144.266C137.21 143.59 147.874 142.542 148.849 141.427C152.12 137.686 155.638 134.2 159.223 130.622C161.162 127.993 168.9 123.606 170.119 121.101C181.159 98.4169 200.116 74.819 225.874 69.1426C228.601 68.5417 232.805 68.6007 236.113 68.6231C236.147 68.5975 236.183 68.5722 236.218 68.5466C257.941 54.7468 287.392 51.7609 311.939 58.7056C316.069 59.8739 319.827 61.4508 323.989 62.0073C326.433 62.334 329.957 60.5317 332.472 60.3333C338.135 59.7925 343.714 59.7122 349.381 59.9063ZM180.059 272.54L180.203 274.096C185.145 272.648 190.709 270.196 195.726 268.694C197.482 268.168 198.52 267.165 199.502 265.641L198.366 265.131C193.406 267.964 185.611 269.956 180.059 272.54ZM264.739 304.671C262.799 302.567 262.556 302.115 261.312 299.432C257.611 300.403 255.639 301.436 252.268 302.551C253.789 304.173 254.738 305.227 256.099 306.963C258.024 309.416 259.297 313.109 261.639 314.74C260.708 319.652 258.322 326.649 256.762 331.522L248.093 358.14C246.801 362.094 244.153 369.575 243.574 373.461C249.147 374.076 254.71 374.773 260.263 375.548C260.156 378.585 258.567 387.747 259.12 389.482L259.867 389.554C261.802 388.608 270.603 376.434 271.749 374.314C274.022 370.567 275.3 363.346 276.575 358.762C277.763 354.559 279.047 350.383 280.426 346.238C294.886 346.45 308.794 346.563 323.31 345.947C326.066 354.155 328.235 368.786 335.867 373.305C343.288 377.703 355.228 374.57 363.04 372.487C360.965 365.344 358.27 358.066 356.155 350.903C355.275 347.914 353.507 342.975 353.227 339.974C353.745 339.71 354.74 339.268 354.666 338.653C353.998 333.103 349.683 317.507 348.007 313.296L347.622 313.192C346.568 314.762 348.495 321.234 347.983 324.019C345 319.356 343.72 312.388 342.024 307.109C339.538 299.372 322.817 244.567 320.998 242.621C319.245 240.744 290.729 241.734 286.56 241.802C284.533 245.879 281.948 254.652 280.47 259.251L270.873 288.805C269.047 294.344 267.607 299.554 264.739 304.671ZM318.722 645.131C319.56 645.01 319.336 645.056 320.121 644.743C319.232 644.138 319.039 644.284 317.864 644.174C253.319 642.674 189.919 631.751 149.324 577.049C147.864 575.079 145.42 572.007 143.673 570.389C153.123 588.743 171 602.542 186.975 614.983C199.436 624.686 211.307 633.49 226.305 638.955C253.873 649.003 283.959 647.21 312.732 645.294C314.584 645.17 316.901 644.875 318.722 645.131ZM516.621 549.696C504.727 557.76 504.865 561.273 497.877 572.199C499.26 575.061 500.411 577.088 502.043 579.829C503.337 579.1 504.723 578.368 505.921 577.511C506.33 575.594 506.597 573.738 507.46 572L508.143 571.769C509.707 572.714 511.562 574.119 513.283 574.268C516.845 573.13 521.356 570.514 524.821 568.842C529.19 566.734 535.389 564.814 538.83 561.479C535.116 556.643 529.951 549.433 523.24 549.148L516.621 549.696ZM150.5 155.935C147.181 155.982 138.712 156.742 135.698 158.521C123.925 165.469 116.803 188.499 112.301 200.887C111.183 203.961 110.211 208.424 109.168 211.605C108.829 212.931 108.498 213.179 108.926 214.161C109.776 213.593 109.874 213.173 110.319 212.255C115.191 202.162 129.25 186.403 136.058 177.252C141.076 170.507 145.486 162.778 150.5 155.935ZM257.997 549.696C262.129 546.979 266.607 545.674 269.476 541.735C272.738 538.592 275.432 533.667 276.508 529.305C275.343 527.011 274.799 525.838 273.222 523.804C265.84 521.347 253.039 518.151 245.531 516.65C248.51 523.634 256.233 542.499 257.997 549.696ZM327.855 527.495C333.445 529.173 340.564 532.231 346.031 534.574C336.538 526.204 330.425 517.283 322.179 508.626L318.218 508.917C313.059 509.696 297.483 511.2 294.523 514.179C293.548 517.593 300.315 517.084 302.539 518.062C305.025 519.154 307.76 520.263 310.308 521.198L327.855 527.495ZM225.528 542.058C223.266 536.003 221.366 518.489 220.986 511.427C213.369 510.194 205.091 508.252 197.056 506.898C197.301 508.579 198.22 515.637 199.055 516.377C203.108 519.961 222.622 540.988 225.528 542.058ZM439.669 558.25C442.424 556.281 445.676 554.186 447.926 551.719C448.396 551.058 453.049 546.876 454.243 545.543C450.44 541.685 443.931 539.868 438.958 536.736C437.266 535.673 429.207 529.948 428.123 529.525C427.682 532.842 427.441 549.248 428.916 552.714C429.481 554.048 437.664 557.532 439.669 558.25ZM635.266 401.01C642.094 405.87 647.654 413.767 648.183 422.318L648.521 423.982L648.944 424.263C650.227 422.425 652.211 410.88 651.916 408.661C651.23 403.502 645.094 381.287 642.766 377.358L642.222 377.098C639.19 380.402 637.437 382.194 636.837 386.958C636.257 391.591 636.282 396.466 635.266 401.01ZM375.827 542.613C376.772 541.251 377.689 539.875 378.582 538.478C380.075 535.886 380.857 534.275 382.058 531.527C380.099 522.595 377.789 510.279 367.686 506.93C366.073 506.393 363.918 506.282 362.194 506.133C362.905 509.426 363.883 514.51 364.978 517.582C368.024 526.112 372.524 534.151 375.827 542.613ZM438.688 519.9C440.49 521.909 445.118 524.473 447.688 526.197L448.712 526.816C449.281 526.656 449.48 526.777 449.672 526.169C453.852 512.988 462.789 505.767 474.604 498.787C471.963 495.833 470.659 494.592 466.859 493.002L448.705 510.197C445.882 512.867 441.141 517.127 438.688 519.9ZM574.036 593.45C573.645 586.805 574.022 574.883 573.958 567.747C570.432 572.018 557.453 581.87 552.591 585.536C551.3 586.77 549.864 588.074 549.622 589.866C550.372 591.1 551.147 590.876 552.537 590.89C555.481 591.321 558.467 592.16 561.655 592.547C565.938 593.07 569.742 593.251 574.036 593.45ZM591.884 348.372C597.401 350.998 593.612 361.952 591.347 366.058C588.61 371.022 587.213 371.122 582.464 373.646C585.894 375.186 593.48 384.782 596.079 387.943C594.785 379.072 594.611 370.076 595.56 361.166C596.783 350.438 605.36 335.519 614.08 328.627C613.692 325.071 617.236 315.125 615.882 313.388C613.923 313.722 610.991 317.586 609.562 319.236C607.87 330.29 607.333 335.841 598.197 343.757C596.342 345.364 593.238 346.626 591.884 348.372ZM489.886 492.32C496.437 490.254 497.351 490.012 504.083 489.443C508.68 489.166 510.684 489.184 515.224 489.742C515.409 488.391 515.579 486.834 515.832 485.507L515.789 485.465C514.079 482.304 511.147 475.808 509.451 473.586C506.351 473.575 502.413 473.667 499.384 473.422C494.831 481.404 491.663 482.688 489.886 492.32ZM185.192 570.826C185.953 568.889 186.676 566.336 187.649 564.7C184.567 561.692 181.042 558.691 178.182 555.818C171.767 549.372 166.631 544.288 157.877 541.344C156.094 540.746 153.877 539.36 151.959 538.951C155.961 545.685 177.788 568.167 183.959 572.366L184.508 572.256L185.192 570.826ZM397.5 542.883C398.296 542.055 401.165 538.823 401.687 538.453C404.932 534.012 411.349 528.672 414.31 524.739C414.413 522.062 414.537 519.388 414.683 516.718C412.319 513.216 410.392 509.642 405.874 509.408C404.442 513.625 403.034 517.774 401.502 521.98C400.127 525.76 397.226 530.848 396.753 534.659C396.579 536.064 397.293 541.237 397.5 542.883ZM576.176 208.478C582.973 207.299 589.606 207.299 596.342 208.995C596.089 206.593 592.19 194.696 589.925 193.206C586.335 190.845 579.944 190.551 575.451 188.597C575.536 193.87 575.632 203.352 576.176 208.478ZM193.349 362.578C195.703 363.53 196.761 364.206 198.921 365.532C200.415 366.347 202.307 367.317 203.729 368.185C205.816 360.167 210.243 355.266 214.151 348.332C214.397 347.894 212.773 334.901 212.381 333.719L211.961 333.332C206.691 342.926 199.069 353.006 193.349 362.578ZM85.3156 400.782C88.5919 401.568 90.6878 402.688 93.6158 404.352C95.5421 405.408 97.4004 406.346 99.1373 407.698C98.6019 397.337 99.1362 386.329 99.6072 375.954C99.6659 374.659 96.8502 373.308 95.868 372.761C92.1114 382.24 87.8483 390.851 85.3156 400.782ZM487.803 535.858C490.298 534.13 490.839 534.208 493.839 533.699C495.876 533.333 498.101 533.017 500.02 532.288C503.173 527.499 503.938 521.198 506.312 516.345C503.451 516.266 500.458 516.096 497.628 516.409C494.191 516.778 491.087 516.775 488.617 519.666C485.706 523.068 487.287 531.509 487.803 535.858ZM648.158 342.31C652.385 341.486 654.795 341.195 658.712 339.276C659.946 338.26 660.323 338.214 660.525 336.367C660.941 332.601 659.953 328.534 660.145 324.805C654.329 325.16 647.241 326.371 641.799 324.876C642.794 334.183 643.843 334.791 648.158 342.31ZM429.129 628.067L428.169 628.633C428.948 629.273 428.6 629.059 429.702 629.237C445.89 629.063 454.343 635.914 463.382 617.248C461.16 616.526 459.717 616.035 457.414 615.609C448.385 619.694 438.183 624.21 429.129 628.067ZM425.99 285.64C426.876 290.754 427.746 295.873 428.788 300.959C429.14 302.672 428.756 304.491 429.271 305.82C430.995 304.595 433.27 302.895 435.083 301.885C436.686 295.695 438.713 288.074 440.149 281.899C439.669 280.26 439.072 277.312 437.66 276.526L437.277 276.577C431.664 278.977 429.478 280.575 425.99 285.64ZM484.326 133.836C491.603 134.988 497.091 136.617 503.792 139.817C505.559 140.66 510.588 143.312 512.103 143.8C510.13 138.698 509.561 136.883 508.772 131.522C500.486 127.4 491.859 127.383 483.765 125.457C483.868 128.473 484.003 130.842 484.326 133.836ZM666.657 440.842C665.48 453.493 655.982 470.595 647.43 479.758C644.376 483.029 641.294 485.852 638.056 488.938C636.112 490.314 635.17 491.175 633.417 492.803C635.87 491.655 636.769 491.083 638.913 489.355C654.4 476.366 661.961 463.861 668.232 444.722C673.048 430.496 671.936 420.732 672.842 406.418C673.308 399.129 673.34 394.368 672.807 387.04L672.259 381.706L671.996 380.679C671.434 381.436 671.427 382.755 671.353 383.751L671.211 385.5C670.4 390.538 669.536 395.566 668.616 400.586C668.068 403.481 667.03 407.502 666.842 410.318C666.533 414.99 667.588 420.227 667.752 424.967C667.937 430.339 667.343 435.523 666.657 440.842ZM99.1895 439.936C101.196 434.556 100.168 431.85 99.786 426.247C96.2566 421.219 89.0821 417.159 83.5855 414.624C83.1604 424.839 84.9502 426.382 91.6643 434.435C92.5483 435.498 97.2874 440.416 98.2813 440.853C98.967 440.391 98.7686 440.622 99.1895 439.936ZM358.924 398.361C360.648 399.374 360.801 400.018 361.651 401.895C365.891 401.628 370.136 401.454 374.383 401.376C373.74 395.555 372.276 389.859 370.036 384.451C359.902 385.049 358.334 384.718 356.902 395.257L358.924 398.361ZM402.942 160.679C398.25 167.293 394.99 173.082 392.15 180.816C395.054 181.409 396.565 182.409 399.177 183.843C399.764 179.08 399.693 178.525 401.989 174.358C405.665 168.657 408.853 166.045 415.483 164.172C419.293 163.094 423.932 164.127 425.009 163.791L425.201 163.206C424.405 161.907 423.09 161.653 421.632 161.314C416.709 160.19 411.647 159.791 406.61 160.131L402.942 160.679ZM438.027 131.46C440.33 132.315 444.329 133.645 446.291 134.881L450.813 136.898C457.787 135.123 461.057 134.18 468.416 132.77C468.689 130.087 468.995 127.407 469.326 124.731C467.982 124.782 465.753 124.794 464.488 124.94C456.045 125.965 445.641 127.566 438.027 131.46ZM476.332 434.418C479.154 434.247 482.314 434.172 484.945 435.36C485.926 435.762 486.971 436.384 487.92 436.146C487.746 433.408 478.724 407.402 477.988 406.691C476.208 408.131 474.494 409.205 474.434 411.609C474.245 419.001 475.71 427.015 476.332 434.418ZM108.514 289.852C111.296 289.147 114.629 289.324 117.573 289.186C118.094 288.929 118.563 288.901 118.62 288.342C119.051 284.136 120.533 279.043 117.96 275.325C116.418 273.097 115.217 270.519 113.851 268.19C113.03 266.758 110.689 261.361 110.303 260.899C108.117 271.656 107.998 278.907 108.514 289.852ZM331.206 117.44C334.534 117.954 343.115 121.432 344.697 120.96L344.916 120.744C347.147 114.228 347.607 112.267 347.743 105.305C343.923 105.162 336.785 105.029 333.069 105.288C332.07 109.272 331.446 113.34 331.206 117.44ZM441.062 200.333C439.854 206.795 439.886 210.087 440.255 216.621C442.26 214.46 445.317 212.402 447.745 210.63C449.796 209.234 452.899 207.379 454.591 205.81C454.051 204.692 452.935 202.442 452.26 201.558C450.528 199.29 441.482 189.707 439.523 188.602C439.438 193.009 438.972 196.367 441.062 200.333ZM326.619 567.836L327.126 568.018C327.662 566.272 327.465 556.245 327.309 553.938C326.306 552.522 325.6 551.513 324.729 549.984C319.221 549.973 313.655 549.692 308.19 549.845L307.073 550.105C307.158 553.39 323.266 565.934 326.619 567.836ZM117.303 302.479L110.058 302.998C111.298 304.516 112.819 306.492 114.104 307.912C114.947 308.755 116.207 309.939 116.927 310.833C117.004 309.698 117.605 302.854 117.303 302.479ZM196.034 332.666L192.973 332.678L190.118 335.575C189.395 338.55 189.148 341.607 188.82 344.653C191.133 341.226 194.196 336.386 196.034 332.666ZM585.873 446.012C584.977 448.266 584.554 455.321 584.295 458.24C584.085 459.658 583.897 460.277 584.156 461.653C584.547 461.056 584.512 461.234 584.682 460.576C585.909 457.081 588.852 446.229 588.13 442.549C587.526 443.523 586.57 445.187 585.873 446.012ZM164.494 430.226C163.729 430.528 163.412 430.45 163.263 431.004C162.615 433.404 162.804 436.754 162.748 439.242C164.459 439.303 164.799 439.367 166.432 438.994C167.836 437.145 166.329 432.007 164.494 430.226ZM532.741 384.882L532.926 385.82L533.324 385.866L534.209 384.448C534.593 382.41 536.552 376.313 537.206 374.4L533.985 374.514L532.93 374.894C532.432 376.778 532.684 382.602 532.741 384.882ZM452.949 340.774C456.237 343.136 457.919 334.67 458.363 332.787L458.157 332.105C454.961 334.469 453.845 335.23 450.408 337.136L452.949 340.774ZM516.795 458.841C521.242 458.869 524.214 459.612 525.881 454.862L525.163 454.293C522.984 454.912 520.001 454.937 518.252 453.326L516.059 453.219C514.406 453.276 512.753 453.298 511.1 453.29C512.963 456.234 514.015 456.988 516.795 458.841ZM137.496 519.623C138.86 522.048 143.333 528.135 145.243 530.162L145.914 530.275C146.258 528.974 146.705 527.943 146.27 526.706C144.957 525.223 139.194 520.092 137.496 519.623ZM627.442 470.57L627.964 476.416C629.713 472.988 632.148 468.43 633.638 464.953C634.562 463.061 635.198 461.703 635.959 459.726C634.594 461.362 633.392 462.958 632.113 464.661C630.428 466.514 629.048 467.882 627.765 470.034L627.442 470.57ZM299.532 413.589C297.423 413.639 295.165 413.753 293.074 413.6C289.991 418.496 285.562 421.849 279.914 423.143C278.473 423.459 277.031 423.765 275.586 424.06C275.6 424.86 275.535 425.049 275.736 425.802C281.479 427.367 290.99 424.611 296.421 422.531C297.558 419.754 298.572 416.466 299.532 413.589ZM450.784 471.424L454.495 471.779C452.953 468.931 452.739 467.584 451.581 464.974C450.404 466.286 447.617 468.96 447.368 470.425C448.019 471.662 449.434 471.388 450.784 471.424ZM221.186 129.035C223.281 127.769 224.171 127.598 226.515 126.924C227.895 126.328 228.069 126.539 228.678 125.51C227.368 124.292 222.268 124.049 220.173 123.822C220.479 125.566 220.817 127.304 221.186 129.035ZM178.058 588.078L177.221 587.434C176.293 586.677 175.924 586.087 174.948 585.991C175.579 587.2 175.812 587.317 176.852 588.256L177.713 588.85L178.689 589.603C182.403 592.835 185.803 595.491 189.613 598.556C191.568 599.79 193.588 601.013 195.443 602.389L197.263 603.694L197.567 603.786L198.843 604.718L201.16 605.934C202.164 606.61 203.182 607.296 204.345 607.168C203.755 606.272 202.829 606.016 201.814 605.554L198.929 603.779L198.465 603.509L197.948 603.022L196.233 601.952C194.266 600.512 192.033 599.054 190.005 597.667C186.756 594.855 182.487 591.779 179.005 588.938L178.058 588.078ZM597.732 270.659C598.798 268.365 599.246 263.627 598.368 261.048C598.023 260.782 597.849 260.589 597.465 260.439C596.281 261.101 595.901 261.014 595.535 262.368C594.813 265.054 596.32 268.44 597.732 270.659ZM454.641 311.075C453.568 309.894 451.982 307.981 450.717 307.147C449.59 307.919 448.186 308.82 447.137 309.653C446.579 311.533 446.117 313.171 445.659 315.085C446.696 314.608 447.919 314.003 448.968 313.592C450.962 312.762 452.697 312.027 454.641 311.075ZM498.129 192.183L498.133 192.59C498.133 194.133 497.61 196.947 497.944 197.826L498.627 197.529L499.114 197.046C500.699 195.489 505.786 191.813 506.099 191.126L505.011 191.058C502.512 191.587 500.685 192.021 498.129 192.183ZM449.231 64.0215C454.748 63.2731 460.126 62.9893 465.654 63.9898C465.565 61.2723 465.945 56.4222 464.21 54.5754C463.094 54.2195 463.144 54.2629 461.96 54.3298C455.541 58.0222 449.963 61.4732 443.334 65.096C445.264 64.7458 447.319 64.4112 449.231 64.0215ZM459.085 227.126C457.645 227.943 451.797 230.941 451.037 231.731L451.321 232.081L452.324 232.068C455.086 231.655 457.951 231.183 460.716 230.859C460.482 229.71 460.311 228.169 459.639 227.293L459.085 227.126ZM198.05 581.824C196.798 581.187 197.303 581.134 196.301 581.358C196.718 582.3 196.439 581.863 197.533 582.496C199.123 583.09 203.853 585.795 205.641 586.706C210.062 588.903 214.512 591.04 218.992 593.113C213.184 587.338 205.716 584.85 198.05 581.824ZM424.188 123.407C426.62 121.376 434.842 118.035 438.169 116.568C441.24 115.834 444.29 115.006 447.311 114.083C439.257 113.068 432.378 112.158 424.345 110.791C421.974 114.813 423.257 118.868 424.188 123.407ZM129.961 486.994C131.095 483.594 130.708 482.624 127.763 480.441L127.327 480.114C126.592 479.57 126.233 479.239 125.337 479.04C125.664 481.379 127.25 486.069 129.26 487.349C129.894 487.129 129.7 487.303 129.961 486.994ZM243.556 548.604C242.532 544.473 239.454 537.369 237.79 533.088L237.561 532.224L236.962 530.965L236.664 531.125C236.723 531.978 236.768 532.764 236.89 533.618L237.365 535.157C237.89 540.131 240.433 544.796 243.556 548.604ZM509.145 117.056C509.454 115.362 510.677 110.519 509.511 109.396C505.715 105.743 496.892 103.235 491.798 102.9C489.001 104.857 487.661 109.086 486.342 112.272C493.469 112.94 499.395 114.406 506.294 116.183L509.145 117.056ZM314.855 111.471C316.056 111.849 317.262 112.213 318.471 112.563C318.635 111.069 319.215 108.321 318.512 107.346L317.994 107.367C315.738 108.141 313.363 109 311.099 109.706L314.855 111.471ZM229.965 575.57L227.297 574.343C219.95 571.011 213.821 567.996 207.067 563.602L206.06 562.901L205.635 563.029C205.988 563.879 205.993 563.811 206.732 564.384C214.588 571.392 216.721 574.098 227.271 576.69C229.95 577.347 233.234 578.46 236.061 578.898C234.042 577.692 232.135 576.476 229.965 575.57ZM240.785 422.03C242.738 421.746 244.516 421.159 246.411 420.608C244.808 418.371 243.597 415.399 240.771 416.786C240.988 418.922 240.635 420.53 240.785 422.03ZM288.055 568.86C294.665 569.063 300.815 570.418 307.324 571.25L307.786 571.061C307.15 569.795 302.619 566.201 301.206 565.106C298.242 562.809 291.726 552.274 289.184 551.207C286.79 555.776 287.636 563.797 288.055 568.86ZM386.672 377.813C388.844 371.303 387.98 370.023 386.285 363.484L385.915 361.824L385.567 361.632C385.208 363.815 385.296 365.994 385.655 368.17C385.698 371.879 385.858 374.226 386.672 377.813ZM321.965 85.8284C322.781 85.6969 323.476 85.7609 324.299 85.7907C325.364 85.2802 325.831 85.2937 326.344 84.4592C325.162 84.1132 324.412 84.4489 323.204 84.7554L320.709 85.176L318.414 85.8025L317.757 86.0617C318.624 86.5207 319.39 86.4147 320.391 86.2199L321.965 85.8284ZM392.36 506.57C389.494 504.807 384.646 500.128 382.634 500.142C384.689 502.578 386.53 504.896 388.204 507.612C388.705 508.426 390.17 511.182 390.923 511.424L391.066 510.837C391.482 509.166 391.716 508.181 392.36 506.57ZM528.646 185.344C530.072 185.46 530.15 185.74 530.939 185.074C530.477 184.006 530.367 184.215 529.169 183.447L528.522 183.451C527.498 184.123 526.741 184.331 526.403 185.243C527.402 185.545 527.612 185.445 528.646 185.344ZM325.037 224.457C324.947 224.341 321.035 221.438 320.629 221.12L318.613 219.118C316.047 215.779 315.177 214.526 314.477 210.254C311.862 211.155 310.166 211.832 307.646 212.974C311.172 215.762 314.574 216.61 317.766 219.381C318.477 220.05 319.523 220.978 320.147 221.675C320.981 222.813 321.795 223.966 322.589 225.133C323.803 228.079 326.823 229.487 329.556 230.922L328.589 226.153C327.099 225.56 326.424 225.253 325.037 224.457ZM239.999 102.27C241.183 102.34 243.089 102.389 244.205 102.536L249.954 103.201C251.53 101.666 254.557 99.2485 254.685 97.1607C254.142 96.1964 253.662 95.6446 252.469 95.4903C248.009 98.568 244.135 99.326 239.999 102.27ZM359.966 470.076L356.315 471.356C359.194 472.69 360.047 472.857 363.094 473.646C364.565 473.148 364.793 473.376 365.408 472.373C364.512 470.606 361.832 469.994 359.966 470.076ZM436.16 399.452L437.764 399.914C438.858 398.041 441.787 393.525 440.92 391.431C439.879 391.058 440.394 391.075 439.321 391.399C438.4 392.821 437.003 397.379 436.16 399.452ZM82.6862 370.044C83.4184 368.131 84.3764 365.397 85.2356 363.616C84.4582 363.015 83.0694 361.866 82.2632 361.422C82.0335 363.349 81.0329 369.674 81.8462 370.994C82.6314 370.606 82.3225 370.883 82.6862 370.044ZM72.6641 314.123C68.5808 313.484 65.2974 312.698 61.2827 311.73C63.0718 317.107 66.4267 325.795 70.2856 329.933L70.741 329.953C70.8398 329.605 70.9564 329.315 70.971 328.969C71.6254 324.031 72.1899 319.082 72.6641 314.123ZM527.306 202.53C528.625 201.451 529.222 200.855 530.797 200.149L532.094 199.178L532.098 198.703C530.555 198.057 525.593 198.404 523.695 198.456C524.878 199.828 526.083 201.187 527.306 202.53ZM402.37 61.5127C400.763 62.1307 395.548 63.7659 394.77 64.4659L395.043 64.8347C397.372 64.2903 400.482 63.3115 402.53 62.0827C402.483 61.5643 402.604 61.7196 402.37 61.5127ZM556.199 140.208C556.981 140.959 557.077 140.989 558.019 141.55L558.189 141.217L557.24 139.942C555.353 137.826 550.22 133.025 547.952 130.973L549.015 135.254C551.389 136.975 553.87 138.516 556.199 140.208ZM237.589 88.1381C239.266 87.1952 241.05 86.5196 242.137 85.0921L241.819 84.7635C239.875 84.8215 237.895 85.5333 235.997 86.0837C233.686 87.0298 232.866 87.5447 230.912 89.2194C228.868 91.3765 226.578 93.6681 224.816 96.0322C226.098 95.1536 230.577 92.5164 231.129 91.9088C233.246 90.7525 235.494 89.3712 237.589 88.1381ZM216.565 161.502L216.635 161.81L216.815 161.845L216.882 161.462L216.565 161.502ZM136.987 403.018C137.382 404.256 137.773 405.671 138.36 406.812C140.515 407.587 145.566 409.614 147.533 409.984C146.176 408.658 138.713 403.769 136.987 403.018ZM356.098 277.078L356.749 276.202C356.447 274.222 354.104 272.549 352.376 271.841C352.524 273.786 352.413 276.841 353.664 278.135C355.015 278.104 354.756 277.972 356.098 277.078ZM370.495 572.64C372.915 572.38 373.637 572.547 375.279 570.752C375.585 569.283 375.07 568.103 373.722 567.363C372.78 568.437 369.883 571.445 369.666 572.526L370.495 572.64ZM511.793 176.309L517.787 174.441C516.841 173.728 515.021 172.266 514.061 171.764C513.151 172.823 510.133 175.724 509.796 176.516C510.684 176.81 510.709 176.604 511.793 176.309ZM142.433 374.137C143.787 376.018 144.862 377.138 146.444 378.826C145.389 376.636 144.676 375.335 143.398 373.266C142.602 371.623 141.674 369.731 140.673 368.231C140.221 366.954 139.699 366.051 139.065 364.853L138.697 363.939L138.318 364.206C138.172 366.275 138.321 368.355 138.76 370.382C139.974 371.641 141.199 372.896 142.433 374.137ZM168.835 463.065C167.453 459.907 166.155 456.32 164.805 453.326L163.961 453.166C161.887 453.262 158.898 453.319 157.224 453.113C152.306 452.498 151.329 458.855 154.998 460.519C158.188 461.962 165.683 462.336 168.835 463.065ZM365.945 453.33C368.017 452.483 370.061 451.57 372.073 450.595L370.751 447.946C365.376 445.678 364.573 444.281 361.441 449.461C362.913 450.702 364.548 452.021 365.945 453.33ZM318.323 151.205C319.054 149.974 318.917 150.605 318.883 149.279C317.213 148.141 315.528 148.722 313.411 148.632C313.686 149.906 313.807 151.24 314.67 152.157C316.177 152.545 316.883 151.988 318.323 151.205ZM121.969 407.932L127.344 403.491C128.99 401.927 130.576 401.098 132.574 400.039C129.893 397.646 126.194 395.15 123.188 393.077C122.555 397.827 122.374 403.111 121.969 407.932ZM416.578 182.02L417.527 182.141C418.696 180.69 418.97 179.135 419.19 177.344C418.664 176.906 418.959 177.016 418.323 176.972C416.93 177.882 415.163 178.813 414.313 180.153C414.352 181.719 415.138 181.637 416.578 182.02ZM196.697 493.461C204.948 494.695 212.097 495.747 220.31 497.386C223.12 494.492 215.179 490.037 212.907 489.194C207.519 487.196 202.181 484.117 197.187 481.29C196.918 485.333 196.977 489.689 196.697 493.461ZM334.404 483.726C334.076 482.243 333.659 479.363 332.993 478.29C332.157 478.073 332.218 478.076 331.398 478.357C326.98 478.93 323.041 479.463 318.694 480.608C320.205 482.691 320.426 483.047 322.846 483.676C328.322 484.537 329.024 484.647 334.404 483.726ZM192.66 109.911C198.641 107.974 204.793 107.039 204.761 99.3079C204.755 97.7353 205.944 96.1257 205.53 94.8414C203.114 97.4441 193.795 107.162 192.607 109.632L192.66 109.911ZM486.363 587.036C487.515 586.364 488.478 586.03 488.969 584.846C488.855 583.523 488.059 582.947 486.957 582.247C485.247 583.399 483.992 585.401 484.906 587.463C485.88 587.584 485.393 587.63 486.363 587.036ZM483.189 604.921C486.985 603.285 489.125 602.19 492.264 599.488L492.236 599.164L492.012 599.065C489.978 599.911 483.519 602.46 482.588 604.316C482.958 604.874 482.73 604.704 483.189 604.921ZM426.801 421.834C428.525 419.726 430.825 413.973 431.984 411.271L431.713 411.068C431.841 410.887 431.973 410.709 432.101 410.528C430.992 411.868 426.62 419.619 425.265 421.845L426.801 421.834ZM600.159 419.648C602.808 435.751 603.074 448.946 597.081 464.473L596.544 465.87L596.775 466.247C597.319 465.546 597.341 465.543 597.685 464.729C600.639 460.309 606.945 447.235 608.63 442.357C606.782 433.415 605.47 427.203 600.159 419.648ZM539.015 577.376C536.769 578.414 530.047 581.379 528.412 582.535C528.924 583.591 529.169 583.555 530.2 584.302C532.368 583.598 538.507 579.723 539.748 577.838L539.556 577.34L539.015 577.376ZM335.413 134.284L335.541 133.169C334.429 131.934 332.552 131.74 330.878 131.344C330.876 132.625 330.713 133.833 331.376 134.887C332.934 135.593 333.916 134.971 335.413 134.284ZM312.051 192.372C313.665 192.79 316.347 192.788 318.004 192.562L317.936 192.241L316.679 191.858C313.634 190.721 310.739 190.079 307.549 191.385L307.52 191.857C309.069 192.474 310.369 192.347 312.051 192.372ZM177.297 522.656C178.477 524.53 182.023 527.033 184.187 527.513C181.76 523.865 182.155 522.286 177.297 522.656ZM287.378 488.153L287.347 487.538C283.242 484.003 276.096 484.953 270.782 485.134L270.526 485.842C271.853 487.659 283.806 487.278 287.378 488.153ZM305.325 132.271C307.985 132.798 311.308 132.988 313.255 133.41L317.502 134.057C316.9 130.885 316.826 130.591 317.158 127.32C312.658 124.736 307.347 122.935 302.594 120.736C300.496 119.766 295.038 116.632 293.276 116.586L287.21 118.851C295.058 122.017 299.599 126.023 305.325 132.271ZM582.372 176.703C580.271 174.04 578.017 173.021 574.662 173.209C575.653 175.606 579.997 176.153 582.372 176.703ZM172.051 476.814C167.921 476.565 166.456 476.327 162.46 475.669C164.009 478.115 171.666 488.217 173.848 488.8C173.321 484.889 173.051 480.522 172.051 476.814ZM530.253 142.797C531.405 142.315 531.479 142.52 531.998 141.652C531.398 140.639 529.787 140.061 528.657 139.505C528.319 140.655 527.352 142.95 527.676 143.751C528.863 143.632 529.215 143.351 530.253 142.797ZM491.468 372.437C491.023 371.598 490.412 370.09 489.534 369.795C485.883 371.381 481.117 374.087 478.028 375.31C478.753 376.843 479.499 378.652 480.498 379.989C484.518 376.768 486.793 374.642 491.468 372.437ZM464.601 595.755C462.703 596.8 461.921 597.824 460.471 599.406L465.348 596.789C467.307 595.811 469.944 594.958 470.854 592.864L470.31 592.668C468.213 593.134 466.443 594.542 464.601 595.755ZM335.45 176.021L335.885 175.319C334.994 173.441 317.64 167.553 314.882 167.441L314.356 168.389C314.985 169.373 333.176 175.521 335.45 176.021ZM153.675 191.499C152.598 192.073 150.719 192.878 150.138 193.827L150.367 194.428L151.57 194.88C153.392 194.75 154.952 194.612 154.595 192.082C154.152 191.722 154.158 191.616 153.675 191.499ZM583.662 514.112C580.296 517.664 575.383 523.776 571.811 527.776C573.112 527.978 574.683 528.27 575.966 528.409C584.679 531.086 587.444 531.872 589.798 521.244C590.373 518.645 590.843 515.815 590.249 513.177L589.741 512.672L589.236 512.764C587.427 513.212 585.475 513.738 583.662 514.112ZM397.19 607.63C397.827 605.753 400.052 598.713 398.459 597.45C397.379 599.922 397.162 604.213 396.785 607.111L397.19 607.63ZM216.976 387.402L217.887 386.962C218.447 385.33 218.166 382.514 217.577 381.006C216.519 382.937 215.6 384.117 215.975 386.322L216.976 387.402ZM611.702 528.967C613.056 527.975 616.874 523.417 615.573 521.92C613.87 523.744 612.327 526.044 611.442 528.377C611.606 528.935 611.446 528.793 611.702 528.967ZM631.505 418.826C630.794 425.763 625.867 434.695 625.11 441.482C624.872 443.591 625.817 448.814 626.205 451.171C631.867 441.909 636.901 433.18 634.188 421.916C633.989 421.095 633.51 419.783 633.52 418.994C633.09 418.162 632.991 418.062 632.393 417.326L631.956 417.529L631.505 418.826ZM313.262 383.815C312.206 381.55 311.547 379.843 309.376 378.478C309.798 380.284 309.987 381.938 311.105 383.36C312.089 383.957 312.083 383.858 313.262 383.815ZM201.919 467.452L202.35 467.922L202.964 467.648L202.53 467.168L201.919 467.452ZM230.74 141.871L234.203 148.172C235.442 149.183 235.118 149.242 236.436 149.362C237.716 148.272 237.815 141.889 237.074 140.859L236.575 140.861C234.635 141.214 232.69 141.588 230.74 141.871ZM187.121 440.572C185.853 440.149 182.109 438.499 181.339 438.556C181.092 440.195 183.735 440.601 185.051 440.981C186.275 441.248 186.671 441.322 187.913 441.383L187.853 440.946L187.121 440.572ZM385.876 109.731C393.764 111.142 397.059 111.363 404.957 109.332C406.315 108.763 406.454 108.981 407.069 107.979C405.092 105.124 390.575 105.925 386.608 105.224C386.309 106.74 385.972 108.189 385.876 109.731ZM276.73 130.612C278.684 130.869 279.039 130.991 280.933 130.679L280.914 130.354L280.041 130.033C278.022 129.186 276.021 128.056 273.936 128.67L273.97 129.245L273.751 128.876L274.124 128.678L274.459 129.636C275.111 129.932 276.078 130.415 276.73 130.612ZM240.719 440.466C242.494 441.799 244.396 444.501 246.582 445.298C246.918 444.746 246.808 436.373 246.869 434.656C245.095 434.986 242.334 435.42 240.713 435.946L240.719 440.466ZM434.411 463.41L433.91 463.989C434.607 464.366 434.355 464.277 435.151 464.444L435.385 463.25L435.037 462.976L434.411 463.41ZM88.3779 469.561C88.9463 471.619 90.1496 476.931 91.7297 478.009C91.6212 474.894 91.2636 471.442 88.3779 469.561ZM468.483 101.448C468.156 98.4272 468.092 96.5242 468.089 93.4722C463.165 92.3177 449.746 88.5708 445.513 88.9481C443.558 89.4423 440.671 90.046 438.961 90.9367L438.809 91.4711C443.59 94.7287 457.414 100.225 463.485 100.705C465.099 100.93 466.898 101.139 468.483 101.448ZM359.113 122.395C361.164 118.014 363.471 113.517 365.621 109.169C364.718 107.808 363.36 104.983 361.643 105.369C360.84 112.776 360.691 115.146 358.526 122.174C358.103 123.127 357.442 124.172 357.655 125.098C358.519 124.3 358.693 123.501 359.113 122.395ZM468.704 199.502C471.291 198.639 471.732 198.536 474.402 198.185L475.159 198.08C476.723 196.089 474.889 189.854 474.391 187.273C472.301 186.163 460.446 180.204 458.758 179.79C463.627 187.198 462.341 193.39 468.704 199.502ZM466.429 465.61L466.667 464.682C466.137 464.469 466.382 464.476 465.942 464.562L465.86 465.283L466.429 465.61ZM249.45 497.913C244.4 497.219 240.591 496.551 235.562 495.502L238.322 500.842C240.968 501.354 248.126 503.641 249.829 503.388L249.45 497.913ZM429.776 509.159L429.911 509.5L430.125 509.276L429.933 509.095L429.776 509.159ZM89.6676 322.105C88.4096 330.131 86.2153 337.981 85.0298 346.049L89.5798 347.35C90.2584 340.468 91.0237 333.682 91.0681 326.762C91.0767 325.374 91.0632 323.353 91.2917 322.033C91.1879 321.485 91.0418 321.058 90.8826 320.524L90.494 320.558L89.6676 322.105ZM611.687 185.413C612.725 178.748 613.461 176.859 616.806 170.964L611.179 171.25C606.881 171.59 602.047 172.066 597.792 172.188C600.334 174.492 604.923 178.428 606.992 180.928C608.47 182.322 610.312 183.974 611.687 185.413ZM276.799 500.64C278.536 504.003 280.499 502.681 283.87 501.877L283.826 501.18C282.184 500.65 278.727 500.771 276.799 500.64ZM181.874 168.408C184.918 167.842 187.359 167.547 190.447 167.219C193.374 166.946 196.477 166.59 199.401 166.573C198.948 163.322 198.645 161.816 197.815 158.683C193.68 158.2 189.904 157.536 185.743 157.591C183.365 158.755 180.903 159.919 178.592 161.196C179.669 163.69 180.667 165.975 181.874 168.408ZM177.73 212.959C178.505 212.162 178.993 211.796 179.38 210.746C178.35 210.948 178.228 211.347 177.309 212.177C175.814 213.704 174.046 215.24 173.075 217.064C174.589 217.548 176.982 213.972 177.73 212.959ZM545.033 209.5L544.603 209.169L544.34 209.336L544.728 209.579L545.033 209.5ZM339.516 149.949L339.912 150.405L340.496 150.137L340.01 149.733L339.516 149.949ZM489.395 273.433L489.111 273.158L489.356 273.433H489.395ZM463.987 576.27L464.001 576.697L464.793 576.59L464.833 576.071L463.987 576.27ZM369.286 186.908C369.61 188.321 370.061 190.934 370.775 192.056L371.209 191.857C371.454 190.536 371.949 189.06 371.362 187.945C370.441 187.359 370.306 187.308 369.286 186.908ZM535.663 469.429C534.025 474.464 532.172 480.558 530.342 485.465C530.815 486.969 531.86 491.296 533.068 491.961C536.63 484.672 541.966 477.266 544.792 469.792C545.037 469.138 544.841 468.313 544.632 467.658C543.796 467.004 544.276 467.218 543.053 467.271C540.007 467.954 538.528 468.284 535.663 469.429ZM371.593 414.659C373.338 416.028 374.291 416.583 376.474 416.821C375.194 414.172 374.412 414.457 371.593 414.659ZM658.503 381.308C658.851 377.706 661.197 354.545 660.266 353.334L659.594 353.388C657.479 354.103 652.371 355.442 650.903 356.27C649.957 358.723 655.424 371.737 656.437 376.046L658.503 381.308ZM470.019 161.075C465.128 160.552 458.303 160.059 453.66 159.3C456.241 162.605 468.842 169.856 472.884 171.727C472.091 168.208 470.627 164.361 470.019 161.075ZM562.174 268.013C562.234 269.203 562.103 270.254 562.828 271.114L563.191 270.782C563.248 269.414 563.248 269.474 562.825 268.166L562.174 268.013ZM288.36 438.866L286.957 439.282C282.795 439.815 279.979 439.918 275.806 439.666C275.791 441.166 275.614 445.632 275.728 446.88C281.148 443.701 281.257 442.794 287.749 439.85L288.955 439.712L289.882 439.036L289.6 438.745L288.36 438.866ZM305.117 229.463C302.779 226.92 302.143 226.396 298.722 226.45C300.386 228.865 302.285 229.193 305.117 229.463ZM648.201 232.326C647.163 230.612 645.332 227.008 644.209 225.774C644.078 227.871 646.285 230.62 647.487 232.397C647.959 233.696 647.543 233.297 648.521 233.86L648.727 233.297L648.201 232.326ZM581.867 148.636C587.135 148.197 591.163 148.17 596.391 148.859C594.728 144.743 572.028 131.71 567.183 131.126C572.511 136.869 577.537 142.033 581.867 148.636ZM539.797 405.287C538.909 406.499 538.475 406.869 538.233 408.295L538.432 409.017C539.122 407.747 539.844 406.73 539.797 405.287ZM517.712 593.863C516.909 592 516.248 591.904 514.381 591.673C515.007 593.162 516.226 593.386 517.712 593.863ZM354.404 158.87C355.661 160.12 356.315 161.103 358.035 161.327C357.371 159.405 356.294 159.366 354.404 158.87ZM366.993 594.723C368.131 596.533 369.414 598.133 371.547 598.741C370.708 597.202 368.81 595.018 366.993 594.723ZM216.99 371.09C216.491 372.014 215.883 372.778 216.056 373.742L216.35 373.909L217.093 373.906C217.501 372.882 217.218 372.192 216.99 371.09ZM214.49 455.502C213.416 454.528 212.304 454.439 210.871 454.467C212.144 456.149 212.414 455.815 214.49 455.502ZM578.742 492.761L577.779 493.55L577.825 493.955C578.696 493.984 579.276 493.998 580.161 493.955L581.021 493.493L580.95 493.059C580.051 492.885 579.656 492.818 578.742 492.761ZM474.551 318.006C473.954 320.074 472.699 328.048 472.617 330.226L473.104 330.306C474.519 327.423 477.509 320.583 474.551 318.006ZM233.187 365.305C233.256 366.503 233.239 368.892 233.776 369.82L234.079 369.877C234.111 368.494 234.26 367.111 233.831 365.813L233.187 365.305ZM565.707 476.853C567.968 470.663 571.331 459.769 571.363 453.198L568.551 453.386C568.206 453.575 567.862 453.76 567.513 453.948C565.668 457.642 561.04 468.071 559.977 471.42C561.904 473.806 562.995 475.257 565.707 476.853ZM609.27 387.367C610.951 385.991 618.064 381.511 618.406 380.49C617.773 380.142 617.119 379.922 616.429 379.701C613.152 374.802 613.518 359.957 613.458 353.793C613.383 352.565 613.607 352.525 612.946 351.872C612.196 352.469 612.149 353.106 611.89 354.052C607.695 362.876 608.474 377.746 609.27 387.367ZM417.438 83.6574C419.613 84.4702 420.921 85.0604 423.275 85.2492C421.75 83.3218 419.713 83.262 417.438 83.6574ZM342.434 216.328C343.834 214.327 345.266 212.346 346.727 210.387L345.691 216.931L348.888 218.423C350.626 218.194 352.257 215.633 353.385 214.174C345.172 210.452 336.937 207.831 327.788 208.026C329.793 214.311 337.243 214.22 342.434 216.328ZM412.355 548.7L414.061 548.842C415.309 547.733 414.928 546.425 414.697 544.914L414.093 544.519C413.041 545.71 412.326 546.496 411.423 547.833L411.505 548.444L412.355 548.7ZM608.47 506.119C607.436 507.207 606.824 508.224 607.304 509.781C607.919 509.589 607.699 509.763 608.026 509.33C608.79 508.362 609.874 507.363 609.924 506.339C609.224 506.186 609.181 506.151 608.47 506.119ZM271.106 156.749C275.519 157.484 280.155 159.297 284.537 160.063C287.035 160.499 296.19 163.925 297.777 163.272C298.52 162.577 299.23 162.11 299.441 161.159C297.537 160.096 289.953 157.514 287.346 156.621C282.768 155.052 276.862 152.496 272.369 151.159C271.874 153.091 271.499 154.796 271.106 156.749ZM228.502 205.807C231.313 206.241 232.829 206.629 235.58 207.419C237.925 208.13 240.133 208.716 242.507 209.323L242.349 204.133L239.037 203.9C234.083 203.938 233.053 203.876 228.502 205.807ZM465.583 523.719C463.891 525.753 462.934 527.9 462.358 530.478L462.561 531.182L462.821 531.218C463.77 529.163 465.305 526.119 465.806 524.032L465.583 523.719ZM255.464 185.594C255.411 186.949 255.372 188.121 255.22 189.468C259.789 189.591 264.353 189.832 268.909 190.189C266.149 186.398 259.644 186.559 255.464 185.594ZM338.332 506.322C340.714 509.792 344.987 514.339 347.916 517.45C349.388 519.026 351.314 521.205 352.836 522.642C351.594 519.474 350.774 517.39 349.91 514.048C349.37 511.961 349.23 507.392 348.517 506.332L348.054 506.186C344.202 506.681 342.032 506.314 338.332 506.322ZM478.419 558.979C474.807 560.778 471.633 561.351 468.057 562.855C469.418 563.125 470.947 563.388 472.276 563.747C474.754 564.899 477.196 566.371 479.638 564.142C480.374 562.46 479.588 560.274 478.419 558.979ZM120.117 238.08C120.304 242.76 120.465 247.425 121.976 251.909C123.447 252.983 125.374 254.706 127.041 254.903L127.474 254.594L127.382 252.85C128.596 246.496 128.599 245.738 130.731 239.302C127.189 238.771 123.341 238.592 120.117 238.08ZM236.333 249.733C234.861 249.997 235.028 249.749 234.013 250.572C234.545 252.381 243.319 255.469 245.523 256.415L246.626 256.845C249.937 253.329 238.671 250.072 236.333 249.733ZM421.671 600.874C425.034 599.431 431.401 597.123 434.998 595.84C437.728 594.816 439.864 594.165 442.196 592.348L442.537 591.559C440.44 588.633 429.158 589.888 425.237 589.138C424.697 593.628 423.307 596.7 421.671 600.874ZM339.382 605.209C342.875 604.313 345.358 604.096 348.965 603.925L349.534 603.577C348.089 601.735 342.552 599.374 339.705 596.775C339.457 599.691 339.423 602.297 339.382 605.209ZM525.443 97.5778C528.365 99.5173 531.415 101.821 534.639 103.085C534.792 97.5212 534.622 87.9671 531.6 83.1091C525.603 87.7904 523.197 90.1623 515.928 92.2604C518.686 93.9138 522.564 96.4098 525.443 97.5778ZM584.099 220.962L578.369 221.229C579.795 225.315 579.844 226.791 584.675 225.733C587.274 224.811 588.425 223.121 590.196 221.045C588.664 220.989 585.461 220.796 584.099 220.962ZM201.079 222.174C199.414 223.289 193.33 227.533 192.653 229.101C193.47 230.001 193.554 229.986 194.579 230.561C195.947 231.306 196.251 231.638 197.711 231.485C201.116 229.952 201.174 225.865 201.409 222.606L201.079 222.174ZM444.372 435.491C444.215 440.558 444.496 445.685 444.254 450.642C445.186 450.546 448.076 450.403 448.2 449.376C448.701 445.226 446.945 440.032 445.634 436.082C445.484 435.641 444.795 435.605 444.372 435.491ZM552.612 484.003C550.753 487.786 548.88 490.94 547.028 494.553C548.691 493.867 550.344 493.159 551.993 492.437C554.983 491.42 556.458 490.88 559.192 489.266C557.752 487.872 554.389 484.796 552.612 484.003ZM283.958 187.009L286.026 190.11C286.336 185.594 286.798 182.841 287.994 178.473L284.82 178.638C281.827 178.843 279.642 178.844 276.632 178.782C280.377 182.111 281.4 182.873 283.958 187.009ZM556.917 182.314C557.002 187.512 557.052 194.6 562 197.804L562.238 197.73C561.975 193.679 561.069 188.357 561.787 184.605C559.778 183.825 558.779 183.477 556.917 182.314ZM630.712 241.19C632.809 246.873 636.033 250.45 639.286 255.471C641.081 258.237 643.207 264.277 646.086 265.705C646.772 266.234 647.746 267.228 648.382 267.181C648.564 265.577 636.855 239.177 634.622 237.444C633.257 238.863 632.166 239.883 630.712 241.19ZM453.123 484.53C446.853 484.793 444.88 484.394 438.816 483.299C437.159 485.13 434.12 491.381 434.835 493.824C436.868 495.154 441.3 491.292 443.366 490.218C446.487 488.949 450.209 486.386 453.123 484.53ZM274.082 556.825C270.571 559.456 267.89 560.981 263.928 562.915L266.556 564.597C269.592 566.226 271.225 566.265 274.564 566.553C274.131 563.054 273.983 560.857 274.379 557.312L274.082 556.825ZM315.939 446.727C312.541 447.111 303.418 447.826 300.953 449.283L300.739 449.934C301.573 450.887 301.523 450.631 302.949 451.079C305.893 451.804 307.078 452.067 309.639 453.884C310.562 452.846 316.193 447.477 316.248 446.876L315.939 446.727ZM365.674 241.602C363.599 241.801 361.516 241.965 359.461 242.302C362.585 245.837 364.061 249.042 366.894 252.651L369.841 256.336C369.4 253.586 367.868 242.897 366.474 241.491L365.674 241.602ZM294.892 593.394L297.112 598.218C300.809 596.946 304.266 596.306 307.959 595.175C312.002 593.785 322.677 590.126 325.778 587.534L326.1 586.773C324.66 585.422 314.044 585.123 311.733 585.209L311.191 585.23C305.163 587.509 300.283 589.728 294.892 593.394ZM268.344 453.322L267.82 453.347C266.143 453.422 264.704 453.699 263.447 452.558C262.836 450.044 262.769 438.467 262.688 435.047C261.553 434.716 261.262 434.403 260.362 434.716C259.671 437.795 261.492 456.931 263.058 459.072C264.422 458.645 267.551 454.592 268.344 453.322ZM144.558 318.516C140.445 326.895 140.941 331.834 149.544 335.997L148.975 328.9C146.965 325.691 145.788 322.083 144.558 318.516ZM339.866 546.574C341.357 550.72 342.486 553.902 345.632 557.106C348.057 556.21 350.357 555.353 352.739 554.346C353.648 553.962 354.914 553.642 355.274 552.938C353.542 551.818 341.975 547.139 339.866 546.574ZM420.367 227.114C418.639 224.307 406.497 217.752 403.226 217.456C405.164 220.332 405.483 222.3 406.834 225.422C411.949 228.49 414.498 227.627 420.367 227.114ZM494.621 338.971C493.48 339.223 492.282 339.316 491.471 340.016C492.154 342.386 495.321 351.565 496.395 353.389C497.518 353.593 497.383 353.415 498.645 352.926C499.804 352.573 500.529 352.373 501.716 352.135C500.724 349.825 496.793 339.185 494.621 338.971ZM482.105 249.349C481.696 252.384 483.381 267.674 485.347 269.561C486.182 268.962 485.812 269.24 486.274 267.989C487.17 265.553 488.386 262.514 488.919 260.043L488.638 259.589C486.857 256.644 485.446 250.976 483.779 249.578L482.105 249.349ZM325.499 609.376C325.677 607.42 325.979 605.18 325.816 603.25L325.296 603.058C318.136 606.076 313.734 607.139 306.779 609.511C307.063 610.496 307.185 610.268 308.405 610.965C314.189 612.373 319.827 610.624 325.499 609.376ZM103.982 335.427C103.844 337.914 103.666 340.417 103.484 342.892C103.354 344.645 102.005 349.726 103.127 350.922C105.397 353.342 109.742 354.369 112.533 356.163L112.962 356.067C112.95 355.957 104.031 335.483 103.982 335.427ZM400.119 560.448C399.103 561.906 399.476 566.787 399.519 568.718C402.714 567.758 407.712 566.578 411.082 566.208C412.589 565.881 413.535 565.842 414.637 564.828L414.96 564.067C413.457 561.027 403.194 560.551 400.119 560.448ZM181.943 415.513C181.637 417.159 181.279 419.811 180.592 421.234L180.651 422.965C184.097 424.149 194.938 430.709 197.21 430.258L197.421 429.564C196.544 428.554 195.37 426.517 194.42 425.703C190.425 422.272 185.721 419.178 181.943 415.513ZM570.033 528.942C567.439 531.715 566.45 532.618 563.44 534.922C564.037 538.709 564.495 541.237 566.596 544.54C568.089 544.938 568.644 544.547 570.186 544.089L572.099 543.531C571.846 541.383 570.961 529.774 570.033 528.942ZM120.87 429.721C122.26 433.529 125.287 438.066 127.296 441.76C128.064 443.573 128.873 445.593 129.697 447.356C129.571 444.096 128.29 422.894 127.084 421.589C124.367 424.412 122.681 426.265 120.87 429.721ZM286.993 455.794C284.488 457.159 276.005 463.95 275.469 466.517C276.522 467.637 280.656 467.299 282.307 467.296C285.888 467.043 289.387 466.158 292.829 465.166C291.84 463.338 288.459 456.412 286.993 455.794ZM648.702 290.335C647.327 293.94 644.927 308.384 646.182 311.635C647.245 311.916 650.775 311.463 652.907 311.663C653.935 311.55 655.545 311.508 656.313 310.965C656.292 306.893 651.173 293.895 648.702 290.335ZM608.364 201.85C609.131 204.385 612.583 215.915 613.998 217.537C616.98 220.96 620.652 225.013 623.645 228.788C624.744 228.755 624.975 228.317 625.938 227.351C626.876 226.22 627.175 226.257 627.307 225.059C625.039 221.402 611.431 203.951 608.364 201.85ZM380.384 239.299C380.874 241.884 383.903 259.081 384.443 259.856C385.631 260.297 385.99 260.174 387.23 260.052L389.91 256.641C390.493 248.075 390.867 248.672 388.599 240.124L380.384 239.299Z" fill="#434757"/>
<path d="M149.718 241.902C159.735 241.88 169.751 241.778 179.766 241.596C198.054 241.337 216.724 239.715 230.702 253.954C246.715 270.266 246.543 303.893 230.326 319.966C221.379 328.834 208.313 332.367 196.034 332.666L192.973 332.678C189.339 332.363 183.703 332.585 179.909 332.608C179.842 345.024 179.343 361.898 180.098 374.058C168.878 374.716 161.02 374.691 149.835 374.553C149.704 362.805 150.311 347.224 149.544 335.997L148.976 328.9C150.165 326.191 149.877 301.004 149.758 296.417C149.295 278.534 150.579 259.658 149.718 241.902ZM180.059 272.54L180.204 274.096C185.146 272.648 190.709 270.196 195.726 268.694C197.482 268.168 198.52 267.165 199.502 265.641L198.367 265.131C193.406 267.964 185.612 269.956 180.059 272.54Z" fill="#FC0100"/>
<path d="M199.502 265.642C202.509 266.769 204.57 267.96 206.594 270.407C214.251 279.662 213.645 303.083 200.99 307.835C196.043 309.693 185.551 309.288 180.039 309.243C180 305.038 179.549 276.834 180.203 274.096C185.146 272.649 190.709 270.196 195.726 268.694C197.482 268.168 198.52 267.166 199.502 265.642Z" fill="#444050"/>
<path d="M180.062 264.293C185.799 264.273 193.014 263.73 198.367 265.132C193.406 267.964 185.612 269.956 180.059 272.54C179.809 270.191 179.999 266.751 180.062 264.293Z" fill="#533F52"/>
<path d="M286.559 241.802C290.728 241.734 319.245 240.744 320.998 242.621C322.816 244.568 339.538 299.372 342.024 307.109C343.719 312.388 345 319.356 347.982 324.019C349.952 328.325 351.758 335.381 353.227 339.974C353.506 342.976 355.274 347.914 356.154 350.903C358.269 358.066 360.964 365.344 363.04 372.487C355.228 374.571 343.287 377.703 335.866 373.305C328.235 368.786 326.065 354.155 323.31 345.947C308.793 346.563 294.886 346.45 280.425 346.238C279.046 350.383 277.762 354.56 276.574 358.763C275.299 363.346 274.022 370.567 271.749 374.315C269.007 375.303 263.267 375.435 260.262 375.549C254.709 374.773 249.146 374.077 243.573 373.461C244.153 369.575 246.801 362.094 248.092 358.141L256.761 331.522C258.321 326.65 260.707 319.653 261.639 314.741C263.106 311.233 264.244 308.449 264.738 304.671C267.607 299.554 269.046 294.344 270.873 288.805L280.47 259.252C281.948 254.652 284.533 245.879 286.559 241.802ZM309.18 322.21L310.012 322.115C310.502 321.142 311.915 319.428 312.635 318.487C312.601 315.81 312.708 312.913 312.76 310.222L312.478 307.897C308.175 313.512 308.456 314.86 309.18 322.21ZM307.394 289.697C306.952 287.571 304.648 278.4 303.933 276.954C303.333 279.82 302.45 288.117 303.836 290.544C305.043 290.92 306.228 290.25 307.394 289.697Z" fill="#FC0100"/>
<path d="M302.37 268.151L303.933 276.954C303.334 279.82 302.451 288.117 303.836 290.544C305.044 290.92 306.228 290.25 307.395 289.698C308.912 295.114 311.849 302.527 312.479 307.897C308.176 313.512 308.456 314.86 309.181 322.21C301.987 322.251 294.96 322.346 287.76 322.165C290.476 312.446 293.502 302.029 295.983 292.299C298.286 283.267 299.291 277.322 302.37 268.151Z" fill="#444050"/>
<path d="M312.76 310.222C314.535 314.155 315.301 318.202 317.147 322.365C315.481 322.342 311.452 322.374 310.013 322.114C310.503 321.142 311.915 319.428 312.635 318.487C312.602 315.81 312.709 312.913 312.76 310.222Z" fill="#533F52"/>
<path d="M504.58 242.424C515.955 242.048 528.02 242.241 539.448 242.227L588.997 242.211C589.832 251.358 590.607 259.645 587.191 268.416C578.927 268.218 571.089 268.02 562.824 268.166L562.173 268.013C553.607 268.373 543.295 268.083 534.646 267.961C534.674 277.056 534.518 286.87 534.76 295.901C546.693 295.654 566.364 295.174 578.024 295.82C578.863 304.628 578.738 311.218 578.681 320.013C564.033 320.136 549.38 320.138 534.728 320.018C534.902 329.783 534.646 339.653 534.728 349.431C541.052 349.096 590.725 349.259 591.884 348.372C597.4 350.998 593.611 361.952 591.347 366.059C588.61 371.022 587.213 371.122 582.464 373.646C578.017 374.251 573.431 374.041 568.966 374.172C558.711 374.471 547.329 373.707 537.205 374.4L533.985 374.514C525.781 373.834 515.326 375.993 509.109 369.323C503.407 363.207 504.452 352.145 504.442 344.369L504.417 320.541L504.58 242.424Z" fill="#FC0100"/>
<path d="M389.91 256.641L390.432 256.246C393.685 253.743 396.237 250.873 399.874 248.376C428.88 228.462 484.042 241.599 479.829 283.804C479.456 287.542 477.572 290.759 474.579 292.93C468.941 297.329 459.262 295.996 452.209 295.499C450.773 279.753 448.505 261.687 427.373 263.829C403.773 266.22 406.436 305.025 407.694 321.824C408.945 338.554 420.374 352.764 438.119 349.271C446.277 348.035 452.078 346.288 459.109 341.564C461.167 340.266 464.693 337.862 466.883 337.064C471.785 340.882 474.924 345.147 478.319 350.248C483.107 357.451 477.892 359.303 472.396 362.688C447.012 379.424 408.142 385.163 387.841 357.479C371.745 334.884 371.468 296.333 381.624 271.019C383.113 267.3 385.598 263.682 387.23 260.052L389.91 256.641Z" fill="#FC0100"/>
<path d="M547.479 398.539C554.023 398.02 572.144 397.618 577.793 399.794C582.627 401.646 586.505 405.383 588.542 410.144C592.57 419.353 591.734 433.245 588.13 442.549C587.526 443.524 586.569 445.188 585.873 446.013C582.595 449.156 580.523 450.66 576.09 451.851C575.184 452.092 572.081 452.86 571.362 453.198L568.551 453.387C561.53 453.22 554.51 453.102 547.489 453.028C546.967 435.684 547.375 416.014 547.479 398.539Z" fill="#FBFAFA"/>
<path d="M559.934 407.79C563.702 407.694 569.774 407.207 572.856 409.401C580.424 414.791 579.336 433.223 574.903 439.954C574.733 440.139 574.558 440.316 574.381 440.494C570.655 444.16 564.726 443.314 559.615 443.264C559.583 432.405 559.412 418.539 559.934 407.79Z" fill="#434757"/>
<path d="M358.924 398.361C360.648 399.374 360.801 400.018 361.65 401.895C363.118 406.855 367.324 415.897 369.588 420.9C372.35 427.008 374.867 433.547 377.561 439.513C377.106 432.782 374.692 403.904 378.45 399.815C380.099 398.02 383.039 398.155 385.257 398.18C386.242 398.19 387.223 398.208 388.204 398.237C388.399 405.01 388.453 411.986 388.357 418.766C388.193 430.102 388.606 441.654 388.193 452.96C383.32 453.166 378.578 453.326 373.697 453.166C373.196 452.366 372.599 451.353 372.073 450.596L370.75 447.947C369.403 442.354 363.435 430.969 361.124 425.142C360.118 422.596 356.997 415.108 355.838 412.971C357.107 423.033 356.61 442.745 356.574 453.184C352.757 453.245 348.938 453.223 345.121 453.12C344.649 435.787 344.945 415.99 345.152 398.585C349.704 398.215 354.352 398.333 358.924 398.361Z" fill="#FBFAFA"/>
<path d="M229.314 401.881C232.319 397.149 235.51 398.112 240.554 398.222C240.541 403.374 240.291 411.819 240.771 416.786C240.989 418.923 240.635 420.53 240.785 422.03C240.654 425.54 240.321 432.526 240.713 435.947L240.719 440.466C240.41 443.805 240.504 449.469 240.467 453.003C235.749 453.181 231.026 453.223 226.305 453.134C223.698 448.978 221.246 442.727 219.219 438.073C216.142 431.097 213.106 424.107 210.11 417.095L209.091 417.501C209.156 429.429 209.548 441.159 209.31 453.131C205.288 453.209 201.719 453.266 197.693 453.106C197.674 451.029 197.734 430.254 197.421 429.565C198.108 420.338 197.504 408.167 197.757 398.596C202.577 398.261 207.413 398.212 212.239 398.446C217.534 410.532 224.314 424.957 228.967 437.131L229.421 434.624C229.12 424.448 228.946 411.961 229.314 401.881Z" fill="#FBFAFA"/>
<path d="M209.091 417.5C208.873 416.448 208.38 414.855 208.749 413.959C209.506 414.741 209.771 416.018 210.11 417.095L209.091 417.5Z" fill="#444050"/>
<path d="M229.42 434.624L229.807 437.938L229.544 438.236L228.967 437.131L229.42 434.624Z" fill="#6D726D"/>
<path d="M444.254 450.642C441.101 451.179 437.586 452.352 434.369 452.956C418.195 455.982 403.471 452.782 400.031 434.478C397.02 418.471 402.768 400.882 420.623 397.732C424.035 397.127 433.615 397.646 436.16 399.452L437.764 399.915C440.437 401.028 442.601 401.468 443.842 403.986C444.041 406.372 440.725 410.066 439.153 412.217C433.811 409.54 427.071 406.3 421.017 408.398C417.843 409.479 415.284 411.865 413.986 414.955C411.007 421.895 410.933 439.904 419.912 442.852C423.491 444.028 428.624 443.737 432.435 443.509L432.549 432.302C430.164 432.284 427.547 432.324 425.183 432.231C424.11 431.026 423.381 430.208 422.461 428.889C422.461 426.059 421.796 422.524 425.265 421.845L426.801 421.835C440.899 421.806 444.08 420.092 444.372 435.491C444.215 440.558 444.496 445.685 444.254 450.642Z" fill="#FBFAFA"/>
<path d="M304.518 398.606C307.814 398.322 316.163 397.668 319.004 398.855C320.724 402.315 324.91 415.737 326.201 419.993C329.434 430.645 333.245 441.397 336.48 451.982C331.997 453.358 331.088 453.504 326.43 453.401C322.097 450.158 321.414 446.02 319.938 440.889C314.177 440.932 308.416 440.932 302.655 440.882C300.777 445.166 300.484 448.853 298.329 453.287C294.623 453.269 290.758 453.358 287.165 452.416C289.441 443.214 294.665 431.371 296.421 422.532C297.558 419.755 298.572 416.466 299.532 413.589C301.357 408.69 303.195 403.666 304.518 398.606Z" fill="#FBFAFA"/>
<path d="M311.428 409.675C313.051 416.91 315.623 424.302 317.383 431.481L312.604 431.25C311.34 431.339 310.073 431.41 308.806 431.463C307.69 431.499 306.663 431.534 305.832 430.749L305.901 429.451C308.034 422.674 309.461 416.345 311.428 409.675Z" fill="#434757"/>
<path d="M305.901 429.451C309.087 431.271 310.891 429.07 312.604 431.25C311.34 431.339 310.073 431.41 308.806 431.463C307.69 431.499 306.663 431.534 305.832 430.748L305.901 429.451Z" fill="#444050"/>
<path d="M499.512 398.581C511.096 398.503 523.15 398.368 534.714 398.596C534.721 402.148 534.849 405.717 533.967 409.173H512.184L512.195 420.459C518.124 420.427 524.067 420.349 529.993 420.573C530.132 424.274 530.132 426.546 529.911 430.265C524 430.368 518.088 430.365 512.177 430.254C512.188 434.286 512.241 438.404 512.198 442.429C520.182 442.432 528.674 442.308 536.616 442.503C536.235 446.443 536.175 447.549 534.145 451.022C528.792 453.909 528.639 452.331 525.447 453.245L525.461 453.984L525.162 454.293C522.983 454.912 520.001 454.937 518.252 453.326L516.059 453.22C509.266 451.787 504.741 456.082 499.686 448.103C499.206 443.481 499.448 435.165 499.455 430.219L499.512 398.581Z" fill="#FBFAFA"/>
<path d="M518.252 453.326L525.447 453.245L525.461 453.984L525.162 454.294C522.983 454.912 520.001 454.937 518.252 453.326Z" fill="#181922"/>
<path d="M150.029 398.556C161.403 398.428 173.881 398.4 185.216 398.663C185.24 401.582 185.613 406.25 184.2 408.633C182.115 409.685 166.006 409.202 162.616 409.18C162.662 412.914 162.642 416.647 162.555 420.38C166.609 420.43 176.564 420.092 180.211 420.65L180.592 421.234L180.65 422.965C180.585 425.191 180.579 428.263 180.308 430.393C175.772 430.41 169.001 430.489 164.494 430.226C163.728 430.528 163.412 430.45 163.263 431.004C162.615 433.404 162.804 436.754 162.747 439.242C162.635 440.519 162.393 441.155 162.828 442.24C165.307 442.688 183.355 442.467 187.102 442.485C186.962 443.754 186.72 446.585 186.287 447.673C182.981 455.986 171.993 452.046 164.804 453.326L163.961 453.166C162.341 452.874 157.361 453.081 155.476 453.116C152.518 451.434 151.89 450.926 150.06 448.231C149.702 443.075 149.932 435.641 149.944 430.389L150.029 398.556Z" fill="#FBFAFA"/>
<path d="M249.23 398.659C261.434 398.247 277.088 398.414 289.351 398.652C289.449 401.383 289.436 403.509 289.33 406.243C288.34 407.122 287.149 407.996 286.093 408.818C282.747 409.351 278.979 409.17 275.565 409.123C275.643 414.162 275.729 419.026 275.585 424.06C275.6 424.86 275.535 425.049 275.736 425.802C275.672 430.425 275.695 435.043 275.806 439.666C275.791 441.166 275.614 445.632 275.728 446.88C275.714 448.938 275.638 450.997 275.5 453.052L268.344 453.322L267.82 453.347C266.142 453.422 264.704 453.699 263.447 452.558C262.836 450.044 262.769 438.467 262.688 435.047L262.82 409.138C258.294 409.209 253.768 409.187 249.243 409.074C249.066 405.628 249.176 402.115 249.23 398.659Z" fill="#FBFAFA"/>
<path d="M456.468 398.205C457.503 398.18 458.537 398.165 459.571 398.155C465.063 398.109 468.231 398.368 468.75 404.921C469.073 408.981 468.878 413.202 468.878 417.287L468.885 442.322C475.998 442.251 483.111 442.247 490.224 442.304C490.216 444.402 489.982 446.052 489.726 448.128L487.963 450.386C482.755 454.581 476.879 452.736 470.669 453.049C467.495 453.202 460.14 453.632 458.082 450.653C455.441 446.83 456.401 433.269 456.415 428.91L456.468 398.205Z" fill="#FBFAFA"/>
<path d="M143.673 570.389C145.42 572.007 147.863 575.079 149.324 577.049C189.918 631.751 253.319 642.674 317.864 644.174L318.722 645.131C316.901 644.875 314.584 645.17 312.732 645.294C283.958 647.211 253.872 649.003 226.304 638.955C211.306 633.49 199.436 624.686 186.975 614.983C171 602.542 153.123 588.743 143.673 570.389Z" fill="#605E66" fill-opacity="0.01"/>
<path d="M151.959 538.951C153.877 539.36 156.094 540.747 157.877 541.344C166.631 544.288 171.767 549.372 178.182 555.819C181.042 558.692 184.567 561.692 187.648 564.7C186.676 566.336 185.952 568.889 185.192 570.827L184.508 572.256L183.959 572.366C177.788 568.167 155.961 545.685 151.959 538.951Z" fill="#444050" fill-opacity="0.01"/>
<path d="M608.363 201.851C611.431 203.951 625.038 221.402 627.306 225.059C627.175 226.257 626.876 226.22 625.938 227.351C624.974 228.317 624.743 228.755 623.645 228.788C620.652 225.014 616.98 220.96 613.997 217.537C612.583 215.915 609.131 204.385 608.363 201.851Z" fill="#444050" fill-opacity="0.01"/>
<path d="M103.982 335.428C104.031 335.483 112.95 355.958 112.962 356.068L112.533 356.164C109.742 354.37 105.398 353.342 103.127 350.923C102.005 349.726 103.354 344.645 103.484 342.892C103.666 340.417 103.844 337.915 103.982 335.428Z" fill="#444050" fill-opacity="0.0117647"/>
<path d="M348.054 506.187L348.518 506.332C349.23 507.392 349.37 511.961 349.91 514.048C350.774 517.39 351.594 519.474 352.836 522.642C351.314 521.205 349.388 519.026 347.917 517.45C344.987 514.339 340.714 509.792 338.332 506.322C342.032 506.315 344.203 506.681 348.054 506.187Z" fill="#605E66" fill-opacity="0.01"/>
<path d="M666.657 440.843C667.339 442.123 667.268 442.51 667.385 444.007C667.677 444.235 667.951 444.48 668.231 444.722C661.961 463.861 654.4 476.366 638.912 489.355L638.056 488.939C641.294 485.853 644.376 483.029 647.429 479.758C655.982 470.596 665.48 453.493 666.657 440.843Z" fill="#333545" fill-opacity="0.0392157"/>
<path d="M207.067 563.602C213.821 567.996 219.95 571.011 227.296 574.343L226.665 575.154C227.328 576.238 228.975 576.156 229.965 575.57C232.135 576.476 234.041 577.692 236.061 578.898C233.233 578.46 229.95 577.347 227.271 576.69C216.721 574.098 214.588 571.392 206.731 564.384L207.067 563.602ZM222.44 573.845L222.054 572.914C221.399 572.672 221.082 572.544 220.405 572.377L220.603 573.514C221.634 574.066 221.076 573.866 222.44 573.845Z" fill="#444050" fill-opacity="0.0352941"/>
<path d="M314.477 210.254C315.177 214.526 316.048 215.78 318.613 219.119L317.766 219.382C314.574 216.611 311.172 215.763 307.646 212.974C310.166 211.832 311.862 211.155 314.477 210.254Z" fill="#444050" fill-opacity="0.0235294"/>
<path d="M198.05 581.824C205.716 584.85 213.184 587.339 218.992 593.113C214.513 591.04 210.062 588.903 205.641 586.706C203.853 585.796 199.123 583.09 197.533 582.496L198.05 581.824Z" fill="#181922" fill-opacity="0.0196078"/>
<path d="M588.13 442.549C588.852 446.229 585.908 457.081 584.682 460.576L584.294 458.24C584.554 455.321 584.977 448.267 585.873 446.012C586.569 445.188 587.526 443.524 588.13 442.549Z" fill="#333545" fill-opacity="0.0156863"/>
<path d="M382.634 500.142C384.646 500.128 389.494 504.807 392.359 506.571C391.716 508.181 391.481 509.166 391.065 510.837L390.923 511.424C390.17 511.182 388.705 508.427 388.204 507.612C386.53 504.896 384.688 502.578 382.634 500.142Z" fill="#333545" fill-opacity="0.0117647"/>
<path d="M137.496 519.623C139.194 520.092 144.957 525.223 146.27 526.706C146.706 527.943 146.258 528.974 145.914 530.276L145.243 530.162C143.333 528.135 138.86 522.048 137.496 519.623Z" fill="#333545" fill-opacity="0.01"/>
<path d="M597.465 260.439C597.849 260.589 598.023 260.782 598.368 261.048C599.246 263.628 598.798 268.366 597.732 270.659C596.32 268.44 594.813 265.054 595.535 262.368C595.901 261.014 596.281 261.102 597.465 260.439Z" fill="#605E66" fill-opacity="0.01"/>
<path d="M505.011 191.059L506.099 191.127C505.786 191.813 500.699 195.489 499.114 197.047L498.627 197.53L497.945 197.827C497.61 196.947 498.133 194.133 498.133 192.59L498.129 192.183C500.685 192.021 502.512 191.587 505.011 191.059Z" fill="#605E66" fill-opacity="0.0235294"/>
<path d="M237.789 533.088C239.453 537.369 242.531 544.473 243.555 548.604C240.432 544.796 237.889 540.131 237.364 535.157L237.789 533.088Z" fill="#333545" fill-opacity="0.027451"/>
<path d="M385.655 368.171L385.797 363.74L386.284 363.484C387.98 370.023 388.844 371.303 386.672 377.813C385.858 374.226 385.698 371.879 385.655 368.171Z" fill="#444050" fill-opacity="0.01"/>
<path d="M547.952 130.974C550.22 133.026 555.353 137.827 557.24 139.942L556.199 140.208C553.87 138.516 551.389 136.975 549.015 135.255L547.952 130.974Z" fill="#333545" fill-opacity="0.0588235"/>
<path d="M136.986 403.019C138.712 403.769 146.176 408.658 147.533 409.984C145.565 409.614 140.514 407.587 138.36 406.812C137.773 405.671 137.382 404.256 136.986 403.019Z" fill="#444050" fill-opacity="0.0235294"/>
<path d="M138.76 370.382C138.321 368.355 138.172 366.275 138.318 364.206L138.697 363.939L139.066 364.853C138.473 365.973 138.628 366.322 138.782 367.577L139.386 368.448C140.173 368.494 139.901 368.533 140.673 368.231C141.675 369.731 142.602 371.623 143.399 373.266L142.433 374.137C141.199 372.896 139.974 371.641 138.76 370.382Z" fill="#605E66" fill-opacity="0.0470588"/>
<path d="M492.011 599.065L492.235 599.165L492.264 599.488C489.125 602.19 486.985 603.285 483.189 604.921C482.73 604.704 482.958 604.875 482.588 604.317C483.519 602.461 489.978 599.911 492.011 599.065Z" fill="#444050" fill-opacity="0.027451"/>
<path d="M425.265 421.845C426.619 419.619 430.991 411.868 432.1 410.528C431.972 410.709 431.841 410.887 431.713 411.068L431.983 411.271C430.824 413.973 428.524 419.726 426.8 421.835L425.265 421.845Z" fill="#444050" fill-opacity="0.0823529"/>
<path d="M312.051 192.373C310.368 192.347 309.069 192.474 307.52 191.858L307.549 191.386C310.739 190.08 313.634 190.721 316.679 191.858C315.287 192.675 313.708 192.26 312.051 192.373Z" fill="#444050" fill-opacity="0.0235294"/>
<path d="M179.004 588.938C182.486 591.779 186.755 594.855 190.005 597.667L189.612 598.556C185.802 595.491 182.402 592.835 178.688 589.603L179.004 588.938Z" fill="#444050" fill-opacity="0.27451"/>
<path d="M235.997 86.0838C237.895 85.5334 239.875 84.8216 241.819 84.7637L242.137 85.0922C241.05 86.5198 239.265 87.1953 237.589 88.1383C236.646 86.5084 237.889 87.1768 235.997 86.0838Z" fill="#605E66" fill-opacity="0.0117647"/>
<path d="M230.911 89.2197L231.51 90.4219L230.957 91.5241L231.129 91.9091C230.576 92.5168 226.097 95.154 224.815 96.0325C226.578 93.6684 228.867 91.3769 230.911 89.2197Z" fill="#333545" fill-opacity="0.0117647"/>
<path d="M88.3779 469.561C91.2636 471.442 91.6212 474.894 91.7296 478.009C90.1496 476.932 88.9463 471.62 88.3779 469.561Z" fill="#444050" fill-opacity="0.0235294"/>
<path d="M398.459 597.451C400.052 598.713 397.827 605.753 397.19 607.63L396.785 607.111C397.162 604.213 397.379 599.922 398.459 597.451Z" fill="#444050" fill-opacity="0.0901961"/>
<path d="M615.572 521.92C616.873 523.417 613.056 527.975 611.701 528.967C611.445 528.793 611.605 528.935 611.442 528.377C612.327 526.044 613.87 523.744 615.572 521.92Z" fill="#333545" fill-opacity="0.0156863"/>
<path d="M298.722 226.45C302.142 226.396 302.778 226.92 305.117 229.463C302.285 229.193 300.386 228.865 298.722 226.45Z" fill="#444050" fill-opacity="0.01"/>
<path d="M309.375 378.478C311.546 379.843 312.205 381.55 313.261 383.815C312.082 383.858 312.088 383.957 311.104 383.36C309.986 381.938 309.797 380.284 309.375 378.478Z" fill="#333545" fill-opacity="0.0117647"/>
<path d="M276.73 130.613C276.078 130.416 275.111 129.932 274.459 129.636L274.124 128.678L273.751 128.876L273.97 129.246L273.936 128.671C276.021 128.056 278.022 129.186 280.041 130.033C278.712 130.626 278.229 130.546 276.73 130.613Z" fill="#333545" fill-opacity="0.0117647"/>
<path d="M320.629 221.12C321.035 221.438 324.946 224.342 325.036 224.457L324.65 225.26C322.788 225.651 323.865 224.528 322.589 225.133C321.795 223.966 320.981 222.813 320.146 221.675L320.629 221.12Z" fill="#444050" fill-opacity="0.0352941"/>
<path d="M465.583 523.719L465.806 524.032C465.305 526.119 463.77 529.163 462.821 531.218L462.561 531.182L462.358 530.478C462.934 527.901 463.89 525.753 465.583 523.719Z" fill="#333545" fill-opacity="0.0666667"/>
<path d="M369.286 186.908C370.306 187.307 370.441 187.359 371.362 187.945C371.949 189.06 371.455 190.536 371.209 191.856L370.776 192.056C370.061 190.934 369.61 188.321 369.286 186.908Z" fill="#333545" fill-opacity="0.027451"/>
<path d="M177.309 212.177L177.73 212.96C176.983 213.972 174.589 217.548 173.075 217.064C174.046 215.24 175.814 213.704 177.309 212.177Z" fill="#333545" fill-opacity="0.0666667"/>
<path d="M528.521 183.451L529.168 183.447C530.366 184.215 530.477 184.006 530.939 185.074C530.149 185.74 530.071 185.461 528.646 185.344C527.611 185.445 527.402 185.546 526.403 185.243C526.741 184.331 527.498 184.123 528.521 183.451Z" fill="#333545" fill-opacity="0.0392157"/>
<path d="M402.369 61.5127C402.604 61.7196 402.483 61.5642 402.529 62.0826C400.482 63.3114 397.372 64.2903 395.043 64.8347L394.77 64.4659C395.548 63.7659 400.763 62.1307 402.369 61.5127Z" fill="#444050" fill-opacity="0.8"/>
<path d="M190.005 597.667C192.033 599.054 194.265 600.512 196.233 601.952L195.442 602.389C193.587 601.013 191.567 599.79 189.612 598.556L190.005 597.667Z" fill="#444050" fill-opacity="0.168627"/>
<path d="M647.486 232.397C646.285 230.62 644.077 227.871 644.209 225.774C645.332 227.009 647.163 230.612 648.201 232.326L647.486 232.397Z" fill="#444050" fill-opacity="0.513725"/>
<path d="M185.051 440.982C183.735 440.601 181.092 440.196 181.34 438.557C182.109 438.5 185.853 440.15 187.121 440.573L185.051 440.982Z" fill="#444050" fill-opacity="0.0745098"/>
<path d="M608.47 506.119C609.181 506.151 609.223 506.187 609.924 506.34C609.874 507.364 608.79 508.363 608.026 509.33C607.698 509.764 607.919 509.589 607.304 509.781C606.824 508.224 607.435 507.207 608.47 506.119Z" fill="#333545" fill-opacity="0.0196078"/>
<path d="M371.593 414.66C374.412 414.457 375.194 414.172 376.473 416.821C374.291 416.583 373.338 416.028 371.593 414.66Z" fill="#434757" fill-opacity="0.0235294"/>
<path d="M366.993 594.724C368.81 595.019 370.708 597.202 371.547 598.741C369.414 598.133 368.131 596.533 366.993 594.724Z" fill="#333545" fill-opacity="0.121569"/>
<path d="M143.398 373.266C144.676 375.335 145.389 376.636 146.444 378.826C144.862 377.138 143.787 376.018 142.433 374.137L143.398 373.266Z" fill="#333545" fill-opacity="0.117647"/>
<path d="M417.438 83.6577C419.713 83.2624 421.749 83.3221 423.274 85.2496C420.921 85.0608 419.613 84.4705 417.438 83.6577Z" fill="#444050" fill-opacity="0.133333"/>
<path d="M671.353 383.751L672.259 381.707L672.807 387.04C671.904 386.414 671.928 386.329 671.21 385.5L671.353 383.751Z" fill="#333545" fill-opacity="0.0196078"/>
<path d="M611.89 354.052C612.149 353.107 612.195 352.47 612.945 351.873C613.607 352.525 613.383 352.566 613.457 353.794L612.06 356.26L611.89 354.052Z" fill="#333545" fill-opacity="0.0196078"/>
<path d="M635.958 459.726C635.198 461.703 634.561 463.061 633.637 464.953C632.727 465.091 633.136 465.042 632.112 464.661C633.392 462.958 634.593 461.362 635.958 459.726Z" fill="#333545" fill-opacity="0.101961"/>
<path d="M140.673 368.231C139.901 368.534 140.173 368.494 139.386 368.448L138.782 367.577C138.628 366.322 138.473 365.974 139.065 364.854C139.699 366.052 140.221 366.955 140.673 368.231Z" fill="#333545" fill-opacity="0.0117647"/>
<path d="M638.056 488.938L638.913 489.354C636.769 491.082 635.87 491.655 633.417 492.803C635.169 491.175 636.111 490.314 638.056 488.938Z" fill="#333545" fill-opacity="0.278431"/>
<path d="M460.471 599.406C461.921 597.824 462.703 596.8 464.601 595.755L465.348 596.79L460.471 599.406Z" fill="#333545" fill-opacity="0.101961"/>
<path d="M354.404 158.87C356.294 159.366 357.371 159.405 358.035 161.328C356.315 161.104 355.661 160.12 354.404 158.87Z" fill="#444050" fill-opacity="0.0823529"/>
<path d="M233.187 365.305L233.831 365.813C234.26 367.111 234.11 368.494 234.079 369.877L233.776 369.82C233.239 368.892 233.256 366.503 233.187 365.305Z" fill="#444050" fill-opacity="0.839216"/>
<path d="M514.381 591.673C516.247 591.904 516.908 592 517.712 593.863C516.226 593.387 515.006 593.163 514.381 591.673Z" fill="#444050" fill-opacity="0.101961"/>
<path d="M385.655 368.17C385.296 365.994 385.207 363.815 385.566 361.632L385.914 361.824L386.284 363.484L385.797 363.74L385.655 368.17Z" fill="#444050" fill-opacity="0.219608"/>
<path d="M578.742 492.761C579.656 492.818 580.05 492.885 580.95 493.059L581.021 493.493L580.16 493.955C579.275 493.998 578.696 493.984 577.825 493.955L577.779 493.55L578.742 492.761Z" fill="#444050" fill-opacity="0.262745"/>
<path d="M210.87 454.468C212.304 454.439 213.416 454.528 214.489 455.502C212.413 455.815 212.144 456.149 210.87 454.468Z" fill="#444050" fill-opacity="0.0627451"/>
<path d="M216.99 371.09C217.218 372.192 217.5 372.882 217.092 373.906L216.35 373.909L216.055 373.742C215.883 372.779 216.491 372.014 216.99 371.09Z" fill="#444050" fill-opacity="0.133333"/>
<path d="M316.679 191.858L317.935 192.241L318.003 192.562C316.346 192.788 313.665 192.79 312.051 192.372C313.707 192.26 315.287 192.674 316.679 191.858Z" fill="#444050" fill-opacity="0.172549"/>
<path d="M109.168 211.605L110.318 212.255C109.874 213.173 109.776 213.594 108.926 214.162C108.497 213.18 108.829 212.932 109.168 211.605Z" fill="#444050" fill-opacity="0.0705882"/>
<path d="M201.813 605.554C202.828 606.016 203.754 606.272 204.344 607.168C203.182 607.296 202.163 606.61 201.159 605.934L201.813 605.554Z" fill="#444050" fill-opacity="0.729412"/>
<path d="M323.204 84.7557C324.412 84.4492 325.162 84.1136 326.344 84.4595C325.831 85.294 325.364 85.2805 324.299 85.7911C323.269 85.2897 323.561 85.6801 323.204 84.7557Z" fill="#444050" fill-opacity="0.109804"/>
<path d="M562.174 268.013L562.824 268.166C563.247 269.474 563.247 269.414 563.19 270.782L562.828 271.114C562.103 270.254 562.234 269.203 562.174 268.013Z" fill="#444050" fill-opacity="0.160784"/>
<path d="M359.112 122.395C358.693 123.501 358.518 124.301 357.655 125.098C357.441 124.172 358.102 123.127 358.525 122.174L359.112 122.395Z" fill="#333545" fill-opacity="0.478431"/>
<path d="M539.797 405.287C539.843 406.731 539.122 407.748 538.432 409.017L538.233 408.295C538.475 406.869 538.908 406.5 539.797 405.287Z" fill="#444050" fill-opacity="0.635294"/>
<path d="M198.929 603.779L201.814 605.554L201.16 605.934L198.843 604.718L198.929 603.779Z" fill="#444050" fill-opacity="0.521569"/>
<path d="M318.612 219.119L320.629 221.12L320.147 221.675C319.522 220.978 318.477 220.051 317.766 219.382L318.612 219.119Z" fill="#444050" fill-opacity="0.278431"/>
<path d="M320.709 85.176L323.204 84.7554C323.561 85.6798 323.269 85.2894 324.299 85.7907C323.476 85.7609 322.781 85.6969 321.965 85.8284L320.709 85.176Z" fill="#444050" fill-opacity="0.34902"/>
<path d="M176.852 588.256C175.812 587.317 175.579 587.2 174.948 585.991C175.924 586.087 176.293 586.677 177.221 587.435L176.852 588.256Z" fill="#444050" fill-opacity="0.678431"/>
<path d="M280.041 130.033L280.914 130.354L280.932 130.68C279.038 130.991 278.683 130.87 276.729 130.613C278.228 130.546 278.711 130.626 280.041 130.033Z" fill="#444050" fill-opacity="0.219608"/>
<path d="M177.309 212.177C178.228 211.347 178.349 210.948 179.38 210.747C178.992 211.796 178.505 212.162 177.729 212.96L177.309 212.177Z" fill="#333545" fill-opacity="0.364706"/>
<path d="M631.504 418.827L631.956 417.529L632.393 417.326C632.99 418.062 633.09 418.162 633.52 418.994L631.504 418.827Z" fill="#444050" fill-opacity="0.0117647"/>
<path d="M320.709 85.1763L321.965 85.8287L320.391 86.2202L318.414 85.8028L320.709 85.1763Z" fill="#444050" fill-opacity="0.541176"/>
<path d="M196.233 601.952L197.948 603.022L197.263 603.694L195.442 602.389L196.233 601.952Z" fill="#444050" fill-opacity="0.458824"/>
<path d="M557.24 139.942L558.189 141.217L558.018 141.55C557.076 140.989 556.98 140.959 556.198 140.208L557.24 139.942Z" fill="#444050" fill-opacity="0.376471"/>
<path d="M584.295 458.24L584.682 460.576C584.511 461.234 584.547 461.056 584.156 461.654C583.896 460.278 584.085 459.659 584.295 458.24Z" fill="#444050" fill-opacity="0.368627"/>
<path d="M89.667 322.105L90.4935 320.559L90.882 320.524C91.0412 321.059 91.1873 321.485 91.2911 322.034L89.667 322.105Z" fill="#444050" fill-opacity="0.0627451"/>
<path d="M187.12 440.572L187.853 440.946L187.913 441.383C186.671 441.322 186.275 441.248 185.051 440.981L187.12 440.572Z" fill="#444050" fill-opacity="0.478431"/>
<path d="M647.486 232.397L648.201 232.326L648.727 233.297L648.521 233.86C647.543 233.297 647.959 233.696 647.486 232.397Z" fill="#444050" fill-opacity="0.764706"/>
<path d="M236.89 533.618C236.768 532.764 236.723 531.979 236.664 531.125L236.963 530.965L237.561 532.224L236.89 533.618Z" fill="#444050" fill-opacity="0.364706"/>
<path d="M197.533 582.496C196.439 581.863 196.718 582.3 196.301 581.358C197.303 581.134 196.798 581.187 198.05 581.824L197.533 582.496Z" fill="#444050" fill-opacity="0.478431"/>
<path d="M206.732 564.384C205.993 563.812 205.988 563.879 205.635 563.029L206.061 562.901L207.067 563.602L206.732 564.384Z" fill="#444050" fill-opacity="0.298039"/>
<path d="M434.411 463.41L435.037 462.976L435.385 463.25L435.151 464.445C434.354 464.277 434.607 464.366 433.91 463.989L434.411 463.41Z" fill="#333545" fill-opacity="0.054902"/>
<path d="M597.081 464.473L597.685 464.729C597.34 465.543 597.319 465.546 596.775 466.247L596.544 465.87L597.081 464.473Z" fill="#333545" fill-opacity="0.513725"/>
<path d="M236.89 533.618L237.561 532.224L237.789 533.088L237.365 535.157L236.89 533.618Z" fill="#444050" fill-opacity="0.188235"/>
<path d="M320.391 86.2202C319.39 86.415 318.624 86.521 317.757 86.0619L318.414 85.8027L320.391 86.2202Z" fill="#444050" fill-opacity="0.776471"/>
<path d="M317.863 644.174C319.038 644.285 319.231 644.139 320.12 644.743C319.335 645.056 319.559 645.01 318.721 645.131L317.863 644.174Z" fill="#444050" fill-opacity="0.403922"/>
<path d="M671.353 383.751C671.427 382.756 671.434 381.437 671.996 380.679L672.259 381.707L671.353 383.751Z" fill="#444050" fill-opacity="0.32549"/>
<path d="M465.941 464.562C466.382 464.476 466.137 464.469 466.666 464.683L466.428 465.611L465.859 465.283L465.941 464.562Z" fill="#333545" fill-opacity="0.631373"/>
<path d="M288.359 438.866L288.954 439.712L287.748 439.851L286.957 439.282L288.359 438.866Z" fill="#444050" fill-opacity="0.329412"/>
<path d="M532.741 384.882L534.209 384.448L533.324 385.867L532.926 385.821L532.741 384.882Z" fill="#333545" fill-opacity="0.0862745"/>
<path d="M429.701 629.237C428.599 629.059 428.947 629.273 428.169 628.633L429.129 628.067L429.701 629.237Z" fill="#444050" fill-opacity="0.168627"/>
<path d="M178.058 588.078L179.004 588.939L178.689 589.603L177.713 588.85L178.058 588.078Z" fill="#444050" fill-opacity="0.45098"/>
<path d="M177.221 587.435L178.058 588.078L177.713 588.85L176.853 588.256L177.221 587.435Z" fill="#444050" fill-opacity="0.572549"/>
<path d="M198.465 603.509L198.929 603.78L198.843 604.718L197.567 603.787L198.465 603.509Z" fill="#444050" fill-opacity="0.278431"/>
<path d="M288.359 438.866L289.6 438.745L289.882 439.037L288.954 439.712L288.359 438.866Z" fill="#434757" fill-opacity="0.494118"/>
<path d="M711.997 690.507C711.99 682.596 711.051 647.278 712.814 642.603C713.461 640.892 715.064 639.502 716.728 638.816C718.05 638.272 719.444 638.123 720.784 638.688C722.476 639.403 725.288 641.401 725.984 643.15C727.676 656.974 726.468 671.605 726.859 685.532C726.973 689.589 726.638 694.034 725.956 698.027C725.377 700.875 724.459 701.76 722.007 703.406C721.708 703.609 721.406 703.804 721.104 704H661.339C660.073 703.129 658.723 701.877 657.542 700.853L656.604 698.048C657.18 695.289 657.24 695.026 658.349 692.494C663.82 689.458 673.009 690.492 679.404 690.496L711.997 690.507ZM725.693 647.879L725.089 648.092C724.783 650.251 725.014 651.876 724.986 654.052L724.818 668.811C724.815 673.23 724.179 692.071 725.586 695.236C725.32 681.095 725.163 661.906 725.693 647.879Z" fill="#FC0100"/>
<path d="M725.586 695.235C724.178 692.071 724.815 673.23 724.818 668.81L724.985 654.051C725.014 651.875 724.783 650.25 725.089 648.092L725.693 647.879C725.163 661.906 725.32 681.095 725.586 695.235Z" fill="#FC0100" fill-opacity="0.988235"/>
<path d="M725.984 643.15C727.677 656.974 726.468 671.606 726.859 685.533C726.973 689.59 726.639 694.034 725.956 698.027C725.874 696.967 725.761 696.263 725.586 695.236C725.32 681.095 725.163 661.906 725.693 647.879C725.881 646.443 725.913 644.626 725.984 643.15Z" fill="#3A0000"/>
<path d="M6.77999 0H66.6583C72.4006 4.05159 73.2626 11.1253 65.3907 13.2607C62.8367 13.9535 56.0102 13.5152 53.0627 13.5069L30.5224 13.4621C26.4424 13.4577 20.2776 13.312 16.3526 13.7511L15.8908 13.8052C17.1387 27.8483 16.1087 44.0974 15.9547 58.278C15.859 67.0901 2.67612 68.7356 2.29045 57.7376C1.83818 44.8402 2.44881 31.9133 1.82371 19.024C1.61 14.4887 1.30658 10.277 2.30637 5.77024C2.98606 2.61505 4.25627 1.68523 6.77999 0Z" fill="#FC0100"/>
<path d="M714.993 16.9642C703.22 16.8663 691.447 16.8582 679.67 16.9402C674.644 16.928 669.845 17.0265 664.62 16.7016C658.808 16.34 658.229 7.34161 662.16 4.44258C662.91 3.89108 666.767 3.50044 667.933 3.49493C684.249 3.41782 700.586 3.62893 716.902 3.41578C722.469 3.34856 724.904 2.73441 728 7.94669V64.5729C723.542 71.9973 715.281 68.4503 715.221 64.3617C715.029 51.3776 714.649 29.2062 714.993 16.9642Z" fill="#FC0100"/>
<path d="M0 639.659C1.12735 637.696 2.27067 635.837 4.61612 635.239C6.59323 634.734 8.89141 635.392 10.562 636.48C11.805 637.287 12.37 638.073 12.6277 639.545C13.3142 643.467 13.4458 683.559 12.7488 687.076C23.1156 686.962 33.4831 686.941 43.8503 687.015C49.9313 687.005 56.2096 686.791 62.2525 687.239C69.1262 687.748 69.3338 693.38 66.8619 698.432C66.2398 698.805 63.9328 700.224 63.3154 700.235C45.3788 700.558 27.4017 700.189 9.45426 700.434C4.92907 700.498 2.88623 700.445 0 696.519V639.659Z" fill="#FC0100"/>
</svg>
