<svg width="1486" height="462" viewBox="0 0 1486 462" fill="none" xmlns="http://www.w3.org/2000/svg">
<path d="M213.743 0.542038C220.192 -0.302871 245.039 0.0917504 252.541 0.0939122L332.008 0.123793L604.349 0.129736L1485.13 0.193744C1484.75 19.1149 1484.82 38.5066 1484.97 57.4477C1486.08 191.86 1483.4 326.726 1485.17 461.094C1461.49 461.552 1436.47 461.153 1412.7 461.159L1272.78 461.189L532.507 461.198L318.42 461.225L256.845 461.223C233.36 461.22 216.593 461.819 193.254 458.098C152.298 451.574 113.92 433.941 82.2991 407.119C-12.9911 327.777 -27.3617 185.656 48.7712 88.744C90.3041 35.876 147.248 6.55607 213.743 0.542038Z" fill="#1D3B8F"/>
<path d="M222.491 11.3873C247.107 10.4779 275.709 11.2139 300.695 11.2125L450.157 11.2554L450.192 151.402L450.231 206.794C450.233 219.245 450.475 231.786 449.593 244.203C446.035 294.319 426.55 341.623 392.291 378.71C352.519 422.213 296.899 447.88 237.975 449.923L237.588 449.947C182.442 453.237 124.412 430.003 83.5489 393.41C40.6564 354.94 14.8043 301.018 11.6775 243.5C8.01486 185.476 27.7444 128.402 66.4628 85.0154C108.176 38.6369 160.558 14.6704 222.491 11.3873Z" fill="#FDFCFE"/>
<path d="M357.141 111.611L359.159 110.38C360.844 101.35 372.815 85.9364 378.871 78.2339C376.961 87.1161 375.256 91.8344 372.141 100.389C381.743 94.5769 385.02 91.9201 392.922 83.8061C391.872 86.456 390.349 90.3806 388.9 92.7571C385.031 99.0999 379.462 103.78 377.208 110.999C384.384 109.309 388 108.282 394.871 105.642C399.845 112.889 384.928 125.225 379.475 128.074C379.584 145.583 377.716 150.231 368.235 165.219C372.352 176.88 374.623 185.05 374.933 197.785C382.078 206.566 386.799 214.126 391.827 224.243C392.413 225.422 394.029 225.568 395.207 225.838C403.668 221.777 389.882 199.687 388.311 190.772C391.698 183.06 395.787 178.472 396.901 170.333C399.797 170.843 405.561 185.216 401.579 188.09L399.322 188.17C400.274 193.647 404.273 195.794 402.712 201.811C401.151 202.286 400.364 201.746 398.809 201.124C397.533 204.456 401.028 210.326 402.263 213.551C406.567 224.791 405.219 235.127 390.888 232.3C389.864 240.165 388.217 245.581 384.507 252.711C384.189 253.534 383.885 254.364 383.594 255.198C380.701 263.572 387.444 263.882 390.685 270.308C394.06 276.997 384.89 286.78 383.099 293.921C380.976 300.352 381.528 307.347 380.452 313.93C379.907 317.264 375.582 318.309 377.642 322.587C380.702 324.046 386.795 324.24 390.412 324.548C371.696 341.714 355.658 349.276 331.885 356.393C328.788 361.813 326.747 364.739 323.104 369.69C314.736 369.228 310.046 367.943 302.267 365.444C261.494 394.751 200.474 394.506 159.549 365.592C151.979 367.97 146.551 369.079 138.746 369.727C134.478 364.339 132.919 361.882 129.536 356.051C109.127 351.221 86.3034 339.486 71.5556 324.52C80.4389 323.829 83.9621 323.447 92.1926 320.142C88.1048 314.308 87.4976 307.679 80.7625 306.229C78.8337 305.813 77.9021 302.946 78.2281 301.008C79.8951 291.085 74.6408 284.745 71.2976 275.906C68.7021 268.873 77.9299 263.522 81.6555 256.342C81.8092 250.193 73.883 246.399 73.2805 243.849C69.1131 226.195 65.2229 241.153 58.5551 229.293C52.9115 219.255 65.026 207.694 62.7418 201.243L59.5801 202.302L58.5002 201.736C58.1835 198.493 60.6863 197.375 60.5017 194.705C59.8203 184.879 55.3764 177.881 64.3501 170.209L65.0623 170.523C65.6957 180.496 72.953 183.663 72.9329 192.941C72.9143 201.305 57.7834 218.094 68.5615 223.655C71.5803 222.735 73.2017 219.026 73.7494 216.481C75.533 208.19 88.1025 198.972 90.4399 193.843C93.5491 181.057 80.995 163.024 77.872 150.888C71.9526 127.892 77.8009 104.961 102.513 97.941C104.058 95.4656 104.714 94.0774 107.156 93.0821L108.643 93.9461L109.283 96.8191C110.548 98.1494 115.529 98.5741 117.94 99.1068C119.087 100.795 117.968 102.308 117.926 104.271C117.819 109.194 143.88 129.236 148.219 133.898C147.597 137.663 146.385 142.617 145.574 146.449C142.851 149.243 143.126 150.165 139.994 150.856C136.836 150.354 133.936 147.467 131.35 145.368C128.688 144.907 125.011 144.885 122.241 144.78C119.483 144.216 116.623 143.743 113.846 143.246C117.037 149.752 121.993 149.364 123.869 151.8C130.677 155.944 134.159 158.871 138.906 165.432C147.102 157.756 148.119 154.549 154.567 146.421C159.077 145.876 162.962 144.766 166.818 146.892C168.808 149.21 169.062 149.831 170.122 152.708C185.108 155.967 192.39 149.521 178.526 137.855L180.919 136.751C212.572 125.117 243.112 122.493 275.335 134.807C276.815 135.373 279.918 136.652 281.37 136.258L284.515 136.327C280.112 140.726 277.109 142.511 275.969 149.011C278.078 155.177 289.129 153.135 294.828 153.134C300.862 139.142 312.301 152.548 320.088 157.142C322.525 158.579 324.938 160.225 327.361 161.716C329.894 159.258 350.062 142.235 350.07 142.212C346.433 140.491 341.405 143.875 338.925 143.158C337.476 141.487 335.738 141.761 333.294 139.536C333.063 136.341 332.993 135.518 333.765 132.426C338.466 128.319 343.162 124.232 347.741 119.991C351.45 116.556 352.387 113.365 357.141 111.611Z" fill="#1D3B8F"/>
<path d="M323.25 196.169C332.26 193.708 335.247 189.22 346.446 187.783L345.887 189.535C346.96 192.445 348.088 195.794 349.971 198.565C355.897 207.286 374.8 218.185 365.857 230.21C364.725 231.732 364.121 232.64 362.386 233.439L361.066 235.333C356.67 241.373 350.985 243.326 344.166 244.409C342.295 244.703 340.42 244.969 338.541 245.206C335.356 250.613 341.805 258.839 332.268 261.494L331.323 261.34C330.318 261.807 330.067 261.685 329.777 262.439C330.081 266.713 330.254 268.597 328.913 272.807L330.233 273.548C331.669 270.803 330.845 271.526 333.453 270.227C335.846 270.616 335.069 270.154 336.666 271.917L336.954 273.644L337.849 275.406C332.854 281.458 330.208 285.433 328.073 293.052C327.859 293.816 325.41 295.986 324.855 296.77L323.996 296.509C321.551 297.289 320.9 297.523 318.357 297.593L316.296 296.159C313.497 298.298 287.662 297.392 282.763 297.373C268.301 317.114 251.371 329.841 230.936 342.513C214.048 332.845 189.502 313.742 179.078 297.303C174.889 297.367 156.866 298.35 154.385 296.145C150.554 297.966 148.371 298.034 144.269 297.254L141.045 296.906C140.892 293.501 140.2 285.138 137.34 283.202L134.494 286.2C129.375 287.026 126.407 278.693 121.725 275.643C116.828 272.452 103.558 271.128 101.444 265.948C101.875 260.656 109.102 255.974 107.019 250.106L104.608 249.553C109.703 237.82 106.859 230.736 103.719 218.756C104.893 218.392 104.974 218.138 105.795 217.146C106.867 221.516 107.573 226.839 109.85 230.381C111.199 231.11 112.366 230.822 113.881 230.664C111.495 214.956 128.732 210.798 137.811 195.465L139.521 196.2C142.343 195.747 144.983 195.049 147.665 196.005L148.613 197.004L150.088 195.826L150.12 191.309C150.476 193.07 150.968 195.178 151.092 196.933C151.199 199.989 151.768 207.961 151.372 210.373L152.639 213.476L150.211 215.589C150.771 216.631 151.113 217.578 152.082 218.19C153.829 220.448 154.585 236.388 155.86 241.5C166.448 283.936 193.376 316.765 230.871 338.882C280.896 308.579 308.579 266.35 308.529 207.447C313.993 214.169 319.437 223.203 325.644 228.814C326.414 229.51 331.127 231.072 332.416 231.489C332.151 228.555 332.002 225.164 331.083 222.408C326.221 219.899 326.354 222.114 325.856 215.902C325.76 214.706 320.355 212.028 319.187 210.637C317.063 208.109 315.604 205.117 314.009 202.15L323.566 198.512L323.25 196.169Z" fill="#FDFCFE"/>
<path d="M103.719 218.756C104.893 218.393 104.974 218.138 105.795 217.146C106.867 221.517 107.573 226.839 109.85 230.382C111.199 231.11 112.366 230.822 113.881 230.664L115.48 231.255L116.447 230.583C116.243 228.257 115.54 224.376 116.633 222.54C121.641 221.367 131.545 222.878 133.353 229.99C136.244 241.357 120.074 256.602 119.78 264.26C119.382 274.638 146.817 274.263 145.98 286.92C146.327 290.27 148.872 293.222 150.448 295.941C149.163 297.115 146.141 297.097 144.269 297.254L141.045 296.907C140.892 293.502 140.2 285.138 137.34 283.202L134.494 286.2C129.375 287.026 126.407 278.693 121.725 275.643C116.828 272.452 103.558 271.129 101.444 265.949C101.875 260.657 109.102 255.975 107.019 250.106L104.608 249.554C109.703 237.82 106.859 230.736 103.719 218.756Z" fill="#FDFCFE"/>
<path d="M103.719 218.756C104.893 218.393 104.974 218.138 105.795 217.146C106.867 221.517 107.573 226.839 109.85 230.382C111.199 231.11 112.366 230.822 113.881 230.664L115.48 231.255L113.006 232.808C113.803 234.43 115.718 238.073 115.89 240.186C116.412 247.59 106.838 261.015 112.283 267.275C114.236 269.52 122.145 273.45 125.147 275.387C127.907 277.168 131.041 282.604 133.222 283.15L136.555 279.877C141.958 280.209 143.843 292.794 144.269 297.254L141.045 296.907C140.892 293.502 140.2 285.138 137.34 283.202L134.494 286.2C129.375 287.026 126.407 278.693 121.725 275.643C116.828 272.452 103.558 271.129 101.444 265.949C101.875 260.657 109.102 255.975 107.019 250.106L104.608 249.554C109.703 237.82 106.859 230.736 103.719 218.756Z" fill="#2D489F"/>
<path d="M331.323 261.341C323.132 243.041 333.171 239.828 344.476 227.504C347.683 224.008 349.627 220.877 351.949 216.771C356.235 219.747 353.722 223.362 354.803 227.72C355.145 229.101 359.891 234.042 361.066 235.333C356.67 241.373 350.985 243.326 344.166 244.409C342.295 244.704 340.42 244.969 338.541 245.206C335.356 250.613 341.805 258.839 332.268 261.494L331.323 261.341Z" fill="#FDFCFE"/>
<path d="M345.887 189.535C346.96 192.445 348.088 195.794 349.971 198.565C355.897 207.286 374.8 218.185 365.857 230.21C364.725 231.732 364.121 232.64 362.386 233.439C353.291 224.004 360.202 224.766 353.758 215.66C347.985 207.501 337.862 203.126 329.928 195.964C336.062 192.404 339.016 191.232 345.887 189.535Z" fill="#FDFCFE"/>
<path d="M137.811 195.465L139.521 196.2C137.565 204.901 124.587 213.351 118.487 219.764C152.307 226.229 128.359 249.088 120.99 264.02C133.722 279.289 144.087 268.828 148.508 289.68C150.584 291.562 153.294 293.65 154.385 296.145C150.554 297.966 148.371 298.034 144.269 297.254C146.141 297.096 149.163 297.115 150.448 295.94C148.872 293.222 146.327 290.27 145.98 286.92C146.816 274.263 119.382 274.637 119.78 264.26C120.074 256.602 136.244 241.357 133.353 229.989C131.545 222.877 121.641 221.366 116.633 222.539C115.54 224.375 116.243 228.257 116.447 230.583L115.48 231.255L113.881 230.664C111.495 214.956 128.732 210.798 137.811 195.465Z" fill="#2D489F"/>
<path d="M323.25 196.169C332.26 193.708 335.247 189.22 346.446 187.783L345.887 189.535C339.016 191.232 336.063 192.404 329.928 195.964C337.862 203.126 347.985 207.501 353.758 215.66C360.202 224.766 353.291 224.004 362.386 233.439L361.066 235.333C359.891 234.042 355.145 229.101 354.803 227.72C353.723 223.362 356.235 219.747 351.949 216.77C349.627 220.877 347.683 224.008 344.476 227.504C333.171 239.828 323.132 243.041 331.323 261.34C330.318 261.807 330.067 261.685 329.777 262.439C328.76 261.074 326.577 255.133 326.181 253.402C323.371 238.784 341.328 231.083 347.826 220.345C350.899 215.265 348.122 212.108 343.859 209.135C338.915 205.686 333.631 201.757 328.856 198.01C327.231 196.735 324.951 198.04 323.566 198.512L323.25 196.169Z" fill="#2D489F"/>
<path d="M150.119 191.31C150.476 193.07 150.968 195.178 151.092 196.934C151.199 199.99 151.768 207.961 151.372 210.373L152.639 213.476L150.211 215.589C150.771 216.631 151.113 217.578 152.082 218.19L149.036 225.121C143.448 228.488 142.152 229.729 137.44 234.3C136.752 228.912 136.394 223.056 135.961 217.61C147.554 215.732 149.692 207.538 148.613 197.005L150.088 195.826L150.119 191.31Z" fill="#2D489F"/>
<path d="M151.372 210.374L152.639 213.476L150.211 215.589C149 216.336 148.852 220.903 147.828 221.679C144.175 224.448 141.904 225.95 138.529 229.203C138.16 225.933 136.437 220.052 139.641 218.793L142.614 220.185C147.124 219.91 146.447 216.36 148.253 212.887C148.256 212.883 151.167 210.539 151.372 210.374Z" fill="#FDFCFE"/>
<path d="M330.234 273.548C331.67 270.804 330.845 271.526 333.453 270.228C335.846 270.617 335.069 270.154 336.666 271.917L336.954 273.644L337.849 275.407C332.854 281.459 330.208 285.433 328.073 293.052C327.859 293.817 325.41 295.986 324.855 296.77L323.996 296.509C321.551 297.289 320.9 297.524 318.357 297.594L316.296 296.159C316.671 295.159 318.366 292.581 319.01 291.556C322.84 285.46 325.923 279.355 328.913 272.807L330.234 273.548Z" fill="#FDFCFE"/>
<path d="M336.954 273.644L337.849 275.407C332.854 281.458 330.208 285.433 328.073 293.052C327.859 293.817 325.41 295.986 324.855 296.77L323.996 296.509C324.365 290.56 332.751 278.553 336.954 273.644Z" fill="#4B61B0"/>
<path d="M316.296 296.159C316.671 295.159 318.366 292.581 319.01 291.556C322.84 285.46 325.923 279.355 328.913 272.807L330.234 273.548C328.749 277.739 318.375 296.922 318.357 297.594L316.296 296.159Z" fill="#4B61B0"/>
<path d="M337.849 275.406C343.258 269.999 350.343 266.459 350.825 260.964C349.333 253.523 338.643 255.302 354.277 247.222C355.116 256.6 355.929 261.32 363.287 267.815C366.457 270.612 374.848 275.331 376.457 277.124C377.149 294.81 376.698 302.482 367.263 318.099C359.754 314.925 354.468 304.059 350.528 297.109C347.758 302.432 340.906 312.459 337.297 318.727C334.25 313.083 325.398 301.776 324.855 296.77C325.41 295.986 327.859 293.816 328.073 293.052C330.208 285.433 332.854 281.458 337.849 275.406Z" fill="#FDFCFE"/>
<path d="M107.019 250.105C109.102 255.974 101.875 260.656 101.444 265.948C103.558 271.128 116.828 272.452 121.725 275.643C126.407 278.692 129.375 287.026 134.494 286.2L137.34 283.202C140.2 285.138 140.892 293.501 141.045 296.906C139.348 297.281 138.363 297.112 137.287 298.451C132.354 304.588 128.974 312.363 124.282 318.607C119.868 310.958 115.973 304.396 111.087 297.056C109.701 299.518 105.093 307.918 103.42 309.535C94.1154 307.228 93.6017 306.911 86.6464 300.234C85.0428 290.015 84.9702 283.571 85.1394 273.365C94.5093 267.784 101.841 259.605 107.019 250.105Z" fill="#FDFCFE"/>
<path d="M75.6234 275.161C79.2463 258.282 92.6523 256.321 99.0931 241.213C101.631 235.26 100.773 225.009 102.449 217.045L103.719 218.756C106.859 230.736 109.703 237.82 104.608 249.553L107.019 250.105C101.841 259.605 94.5093 267.784 85.1394 273.365C84.9702 283.571 85.0428 290.015 86.6464 300.234C93.6017 306.911 94.1154 307.228 103.42 309.535L102.215 311.049C99.7651 314.678 97.491 315.94 93.9006 318.466C88.7684 310.369 89.272 306.029 80.8707 301.971C80.4845 289.151 79.6997 287.075 75.6234 275.161Z" fill="#FDFCFE"/>
<path d="M82.6018 271.648C92.6283 264.29 98.0039 260.103 104.608 249.554L107.019 250.106C101.841 259.605 94.5093 267.785 85.1393 273.365C84.9701 283.572 85.0428 290.016 86.6464 300.234C93.6016 306.911 94.1153 307.228 103.42 309.535L102.215 311.049C99.7558 310.103 95.2694 309.192 92.5379 308.558C90.8872 306.654 86.6255 303.096 84.5553 301.28C82.4936 292.952 81.8602 280.067 82.6018 271.648Z" fill="#2D489F"/>
<path d="M154.567 146.421C159.077 145.876 162.962 144.767 166.818 146.892C168.808 149.21 169.062 149.832 170.122 152.708L167.979 153.066L152.839 153.037C152.92 158.894 153.737 165.947 151.057 170.949L152.724 173.289C153.001 176.074 153.499 181.829 152.719 184.528L152.441 186.268C139.786 183.409 137.984 180.153 128.183 171.47L130.869 170.26C130.606 162.654 130.007 161.724 125.318 155.62L124.309 155.593L123.28 154.462L123.869 151.8C130.677 155.944 134.159 158.871 138.906 165.432C147.102 157.756 148.119 154.549 154.567 146.421Z" fill="#2D489F"/>
<path d="M139.826 167.701C146.634 161.217 154.81 145.084 164.673 147.939C166.82 149.428 167.037 150.568 167.979 153.066L152.839 153.038C152.92 158.895 153.737 165.947 151.056 170.949C149.529 172.421 144.743 179.788 142.865 182.174C142.458 175.924 141.902 173.597 139.826 167.701Z" fill="#FDFCFE"/>
<path d="M125.318 155.62C135.17 159.536 138.798 169.872 140.75 179.466C137.74 177.02 132.993 173.331 130.869 170.26C130.606 162.654 130.007 161.724 125.318 155.62Z" fill="#FDFCFE"/>
<path d="M152.724 173.289C153.001 176.074 153.499 181.829 152.719 184.528C149.728 183.663 149.195 184.067 147.592 181.874C147.582 178.981 150.787 175.735 152.724 173.289Z" fill="#FDFCFE"/>
<path d="M105.795 217.146C109.906 204.651 121.475 198.261 117.053 186.484L116.881 186.033C118.013 186.277 121.551 191.612 122.557 192.985C127.632 193.868 132.717 194.695 137.811 195.465C128.732 210.798 111.495 214.956 113.881 230.664C112.366 230.822 111.199 231.11 109.85 230.382C107.573 226.839 106.867 221.517 105.795 217.146Z" fill="#FDFCFE"/>
<path d="M108.216 111.992L108.858 110.502C110.194 111.284 110.58 112.237 111.334 113.563C114.068 115.652 114.738 116.637 116.727 119.304L117.352 117.542L119.016 121.31C120.99 125.646 123.867 127.106 128.616 126.53C129.528 127.337 130.373 128.061 131.215 128.949C131.847 130.149 132.707 131.445 132.756 132.74L137.09 136.209L135.043 137.171L134.556 138.074L133.651 138.903C127.669 139.265 125.297 137.874 122.582 143.484L122.241 144.78C119.483 144.216 116.623 143.743 113.846 143.246C114.158 142.383 113.903 141.851 113.682 140.929L113.583 140.527L114.853 139.977C117.179 125.932 109.29 128.699 108.216 111.992Z" fill="#2D489F"/>
<path d="M108.216 111.992C108.641 117.012 113.795 121.902 116.121 126.369C117.689 129.38 120.601 130.822 123.504 132.528L123.188 132.647C118.504 134.447 117.983 135.764 114.853 139.977C117.179 125.932 109.29 128.698 108.216 111.992Z" fill="#FDFCFE"/>
<path d="M117.352 117.542L119.016 121.31C120.99 125.646 123.867 127.106 128.616 126.53C129.528 127.337 130.373 128.061 131.215 128.948C131.847 130.148 132.707 131.445 132.756 132.74C123.433 124.364 119.627 132.856 116.727 119.304L117.352 117.542Z" fill="#DFDCEB"/>
<path d="M134.556 138.074C125.05 134.364 126.046 136.229 119.601 142.067L118.779 141.424L118.708 138.483C122.567 132.476 129.761 134.013 135.043 137.171L134.556 138.074Z" fill="#DFDCEB"/>
<path d="M377.593 276.508C377.85 273.379 377.3 274.009 379.204 272.379C382.361 272.012 381.337 271.724 383.912 273.066C387.437 278.126 383.146 290.136 381.435 295.662C379.075 303.283 378.373 314.516 374.318 321.109C371.634 321.399 371.323 320.72 368.663 319.422L367.263 318.099C376.698 302.482 377.149 294.81 376.457 277.124L377.593 276.508Z" fill="#FDFCFE"/>
<path d="M376.457 277.124L377.593 276.508C382.453 288.433 376.266 309.631 368.663 319.422L367.263 318.099C376.698 302.482 377.149 294.81 376.457 277.124Z" fill="#2D489F"/>
<path d="M338.925 143.159C337.476 141.487 335.738 141.761 333.294 139.537C333.063 136.341 332.993 135.519 333.765 132.426C338.466 128.32 343.162 124.233 347.741 119.992C351.45 116.557 352.387 113.366 357.141 111.611L358.022 112.937C357.745 115.09 357.279 120.07 355.901 121.271C351.224 125.349 344.773 138.314 340.643 141.291C340.475 141.411 340.304 141.529 340.131 141.642L338.925 143.159Z" fill="#FDFCFE"/>
<path d="M338.925 143.159C337.476 141.487 335.738 141.761 333.294 139.537C333.063 136.341 332.993 135.519 333.765 132.426C338.466 128.32 343.162 124.233 347.741 119.992C351.45 116.557 352.387 113.366 357.141 111.611L358.022 112.937C352.802 115.181 346.864 126.133 341.169 129.059C339.526 129.903 336.708 132.27 335.338 133.526C334.777 135.556 335.063 136.187 335.562 138.219L336.734 139.003C338.578 138.273 339.533 137.833 341.268 136.874L342.17 137.455L339.493 139.7C339.669 140.31 339.85 141.099 340.131 141.642L338.925 143.159Z" fill="#2D489F"/>
<path d="M150.12 191.309C141.844 188.657 122.496 191.689 117.744 182.412C121.17 181.055 124.04 186.039 128.362 182.064C129.301 178.96 127.979 174.515 127.312 171.154L128.183 171.47C137.984 180.153 139.786 183.409 152.441 186.268L152.377 186.901C152.254 189.772 152.374 194.626 151.092 196.933C150.968 195.178 150.476 193.07 150.12 191.309Z" fill="#FDFCFE"/>
<path d="M344.095 182.745C348.651 178.754 351.007 172.932 356.452 167.727C354.804 176.054 357.271 186.353 346.446 187.783C335.247 189.22 332.26 193.708 323.25 196.169C328.21 185.578 333.326 184.616 344.095 182.745Z" fill="#FDFCFE"/>
<path d="M382.188 252.352C380.039 250.113 378.427 247.202 378.905 244.036C379.646 239.134 383.685 224.103 387.097 221.189L387.984 221.757C389.057 225.476 388.665 230.283 388.542 234.227L390.888 232.3C389.864 240.165 388.217 245.581 384.507 252.711L382.188 252.352Z" fill="#FDFCFE"/>
<path d="M388.542 234.227L390.888 232.3C389.864 240.165 388.217 245.581 384.507 252.712L382.188 252.352C386.235 245.201 387.023 242.342 388.542 234.227Z" fill="#2D489F"/>
<path d="M119.016 121.31C121 119.795 121.398 119.418 123.841 119.426C127.347 121.112 127.946 122.663 128.616 126.53C123.867 127.106 120.99 125.646 119.016 121.31Z" fill="#2D489F"/>
<path d="M152.377 186.901C153.348 190.22 153.724 210.966 152.639 213.476L151.372 210.373C151.768 207.961 151.199 199.989 151.092 196.934C152.374 194.626 152.254 189.772 152.377 186.901Z" fill="#DFDCEB"/>
<path d="M122.582 143.484C125.297 137.874 127.669 139.264 133.651 138.902L139.707 140.609C133.293 140.572 127.273 139.512 122.582 143.484Z" fill="#9D9FCC"/>
<path d="M111.334 113.563L110.086 103.656C111.908 108.483 113.637 113.872 117.352 117.542L116.727 119.304C114.738 116.637 114.068 115.652 111.334 113.563Z" fill="#9D9FCC"/>
<path d="M131.215 128.949C132.624 130.268 139.012 135.577 139.06 136.543L137.09 136.209L132.756 132.741C132.707 131.445 131.847 130.149 131.215 128.949Z" fill="#9D9FCC"/>
<path d="M233.198 157.47L304.378 157.519C304.467 197.718 308.492 229.541 292.486 266.814C289.96 272.679 288.096 275.425 284.641 280.694C251.649 247.001 235.081 204.359 233.198 157.47Z" fill="#FDFCFE"/>
<path d="M249.379 198.631L245.83 198.584C239.143 193.76 247.267 187.567 246.181 182.969L243.215 182.226L242.952 180.838C244.659 175.351 249.173 176.762 252.392 174.305C250.383 173.286 250.499 173.761 249.928 172.125C255.166 165.925 263.483 168.374 268.008 174.142L270.559 174.858L271.365 173.88C276.283 169.754 286.361 164.739 290.082 172.87C288.716 173.753 288.382 173.937 286.848 174.476C290.538 175.938 292.73 173.868 295.793 178.118C295.985 182.063 293.708 182.541 293.773 183.581C294.105 188.856 298.04 191.924 295.5 197.639C293.366 198.857 292.823 198.892 289.86 198.172L289.088 200.657C280.978 205.553 275.451 229.908 267.402 228.775C264.96 226.61 263.889 221.122 262.069 217.86C259.344 212.976 252.091 203.388 250.092 198.862L249.379 198.631Z" fill="#2D489F"/>
<path d="M249.379 198.631L245.83 198.584C239.143 193.76 247.267 187.567 246.181 182.969L243.215 182.226L242.952 180.838C244.659 175.351 249.173 176.762 252.392 174.305C250.383 173.286 250.499 173.761 249.928 172.125C255.166 165.925 263.483 168.374 268.008 174.142L270.559 174.858L271.365 173.88C276.283 169.754 286.361 164.739 290.082 172.87C288.716 173.753 288.382 173.937 286.848 174.476C290.538 175.938 292.73 173.868 295.793 178.118C295.985 182.063 293.708 182.541 293.773 183.581C294.105 188.856 298.04 191.924 295.5 197.639C293.366 198.857 292.823 198.892 289.86 198.172L289.088 200.657C288.684 199.338 280.705 188.553 279.84 185.731C278.732 182.114 268.093 184.616 265.376 184.503C264.263 184.456 263.022 183.464 261.176 183.193C255.941 186.504 256.087 193.871 250.092 198.862L249.379 198.631Z" fill="#1D3B8F"/>
<path d="M249.379 198.632C257.545 174.063 279.447 174.869 289.86 198.172L289.088 200.657C288.684 199.338 280.705 188.553 279.84 185.731C278.732 182.114 268.093 184.616 265.376 184.503C264.263 184.457 263.022 183.464 261.176 183.193C255.941 186.504 256.087 193.872 250.092 198.862L249.379 198.632Z" fill="#DFDCEB"/>
<path d="M268.008 174.142C269.198 170.062 271.343 163.727 276.567 163.496C276.186 168.573 272.602 167.806 271.365 173.88L270.559 174.858L268.008 174.142Z" fill="#2D489F"/>
<path d="M157.756 157.512C181.121 157.233 205.137 157.494 228.549 157.509C226.933 188.833 218.376 224.344 200.864 250.801C192.896 263.412 187.313 270.136 177.022 280.747C152.348 243.961 157.674 200.277 157.756 157.512Z" fill="#FDFCFE"/>
<path d="M186.105 162.98C189.461 162.736 191.585 162.917 194.317 164.826C197.114 170.295 192.98 172.117 192.112 177.016C191.32 181.485 202.563 178.07 205.452 181.278C205.618 183.915 205.915 183.04 204.602 185.174C200.306 185.787 196.189 186.113 191.866 186.472C192.267 196.277 192.106 207.171 192.398 217.196C196.247 214.851 198.959 213.273 202.379 210.358L201.908 207.665C208.311 204.258 211.05 202.748 216.838 198.305C215.413 202.507 211.392 215.969 207.372 217.045L207.147 214.143C205.224 214.298 192.581 225.907 190.118 228.203L188.93 228.488C184.388 224.97 174.633 215.549 172.039 213.856C171.682 215.698 171.643 216.165 170.71 217.833C166.53 215.035 163.292 203.818 161.734 198.886C167.268 202.946 172.378 204.863 176.729 208.008L176.247 210.54C178.725 213.051 183.229 215.611 186.354 217.552L186.557 186.462C183.6 186.167 176.202 185.919 174.024 185.026C172.589 182.797 172.857 183.772 172.946 181.126C174.391 179.782 181.872 179.682 185.396 178.92C190.092 173.388 176.455 172.588 186.105 162.98Z" fill="#1D3B8F"/>
<path d="M310.092 312.649L309.636 311.644C317.918 305.576 336.031 318.593 326.248 333.168L327.857 334.746C330.001 332.483 333.228 327.801 334.935 327.057C338.461 330.721 335.596 337.361 332.607 340.601L335.256 341.617C348.79 338.46 363.181 335.342 376.575 331.876C361.641 341.552 348.118 349.405 330.278 352.807C327.467 358.319 325.834 361.208 322.008 366.106C314.253 365.087 309.445 364.332 301.975 361.392C262.652 390.513 198.852 391.27 159.708 361.475C152.737 364.087 147.131 365.328 139.718 366.116C135.889 361.204 134.202 358.386 131.302 352.812C114.438 348.565 99.5806 342.541 85.5704 331.911C98.7865 335.32 123.608 338.916 133.729 346.333C141.395 350.386 144.989 348.589 151.895 354.108C154.161 355.918 156.275 359.302 157.957 359.417C158.483 357.071 158.579 355.494 158.756 353.089L159.843 352.407C161.078 353.149 162.036 353.613 163.017 354.68C161.056 357.221 160.878 356.631 160.762 359.32C162.344 360.997 164.474 361.615 166.587 362.442C185.873 369.993 205.441 374.723 226.169 375.342C251.755 376.085 277.156 370.804 300.323 359.926L301.14 358.657C300.394 356.657 300.044 356.364 298.594 354.792L297.035 352.713C296.706 352.318 296.386 351.914 296.077 351.502C293.834 348.47 289.063 342.416 289.574 338.965C291.028 337.886 292.357 336.619 294.112 336.49L293.997 341.261C299.815 336.387 297.052 324.129 306.526 313.73L310.092 312.649Z" fill="#FDFCFE"/>
<path d="M310.092 312.649L309.636 311.644C317.918 305.576 336.031 318.593 326.248 333.168L327.857 334.746C330.001 332.483 333.228 327.801 334.935 327.057C338.461 330.721 335.596 337.361 332.607 340.601L335.256 341.617C327.592 346.681 324.394 347.619 315.762 350.327C313.955 350.894 306.586 357.6 304.371 359.411C302.885 356.947 304.812 355.384 302.818 352.22C300.347 352.728 300.759 352.919 298.594 354.792L297.035 352.713C296.706 352.318 296.386 351.914 296.077 351.502C293.834 348.47 289.063 342.416 289.574 338.965C291.028 337.886 292.357 336.619 294.112 336.49L293.997 341.261C299.815 336.387 297.052 324.129 306.526 313.73L310.092 312.649Z" fill="#2D489F"/>
<path d="M310.091 312.649L309.636 311.644C317.918 305.576 336.031 318.593 326.248 333.168C316.453 342.257 314.637 342.462 304.867 354.052C306.984 344.13 307.925 341.648 313.035 333.062C308.666 336.529 306.877 338.267 303.084 342.375C306.246 332.742 309.827 328.9 316.13 321.107C312.39 323.205 307.816 326.225 304.091 328.529C307.524 322.578 312.456 319.429 310.091 312.649Z" fill="#FDFCFE"/>
<path d="M306.526 313.729L308.504 315.146C309.026 320.644 299.363 329.974 301.93 332.358L304.509 331.679C304.551 336.222 298.81 342.025 300.797 346.739C302.429 347.052 302.633 347.057 304.243 346.65C303.56 349.099 302.341 349.81 300.015 351.112C299.029 351.66 298.036 352.193 297.035 352.713C296.706 352.317 296.386 351.914 296.077 351.501C293.834 348.47 289.063 342.415 289.574 338.965C291.028 337.885 292.357 336.619 294.112 336.489L293.997 341.261C299.815 336.387 297.052 324.129 306.526 313.729Z" fill="#FDFCFE"/>
<path d="M327.857 334.746C330.001 332.483 333.228 327.801 334.935 327.057C338.461 330.721 335.596 337.362 332.607 340.601C331.74 341.052 326.777 345.084 325.709 345.932L330.715 335.261C322.469 343.433 319.72 345.458 309.899 351.382C315.255 344.744 321.163 339.899 327.857 334.746Z" fill="#FDFCFE"/>
<path d="M177.121 339.476C179.132 340.291 181.149 341.087 183.174 341.866C214.368 353.822 253.641 353.045 284.239 339.417C287.001 345.581 292.347 352.419 296.406 357.965C293.849 359.168 289.803 360.574 287.049 361.611C246.279 376.953 205.045 373.36 165.13 357.982C170.506 351.256 173.816 347.6 177.121 339.476Z" fill="#FDFCFE"/>
<path d="M212.007 365.1C201.111 364.568 204.707 354.98 210.104 353.87C213.038 354.825 212.354 354.188 214.127 356.29L214.999 357.945L215.518 357.508C218.142 355.135 216.97 355.696 220.239 354.924L222.117 355.921L222.691 357.795L222.161 358.399L219.066 358.079C220.846 360.676 222.67 360.542 223.199 363.59C221.07 366.65 218.865 365.962 215.484 365.24C213.777 364.813 214.213 366.168 212.007 365.1Z" fill="#2D489F"/>
<path d="M215.518 357.509C218.142 355.135 216.97 355.696 220.239 354.924L222.117 355.921L222.691 357.795L222.161 358.399L219.066 358.079C220.846 360.676 222.67 360.542 223.199 363.59C221.07 366.65 218.865 365.962 215.484 365.24C215.552 364.078 215.684 364.027 216.479 363.1L219.733 363.114L219.771 362.472C217.185 360.924 216.649 360.551 215.603 357.743L215.518 357.509Z" fill="#2D489F"/>
<path d="M214.127 356.29L214.998 357.945L215.518 357.508L215.603 357.743C216.648 360.551 217.185 360.924 219.771 362.472L219.733 363.114L216.479 363.1C215.684 364.027 215.552 364.077 215.484 365.239C213.777 364.812 214.213 366.168 212.007 365.1C212.882 364.419 212.569 364.87 212.751 363.579C211.272 363.061 209.807 362.642 208.544 361.713C210.176 361.239 211.58 361.046 212.697 359.841L209.168 357.076C211.085 356.645 212.171 356.484 214.127 356.29Z" fill="#FDFCFE"/>
<path d="M244.262 354.917C247.13 353.78 250.377 355.169 251.535 358.027C252.694 360.885 251.328 364.141 248.477 365.32C245.596 366.51 242.297 365.128 241.127 362.24C239.957 359.352 241.364 356.065 244.262 354.917Z" fill="#2D489F"/>
<path d="M230.393 355.389C232.608 355.329 234.743 355.069 236.707 356.075C239.187 359.215 238.783 360.842 239.345 365.245C236.172 366.224 234.137 367.167 231.247 365.33C229.844 362.756 230.325 358.477 230.393 355.389Z" fill="#2D489F"/>
<path d="M260.72 351.934C263.62 353.683 264.217 361.505 264.791 364.878C262.856 363.255 260.017 360.553 257.742 359.822L256.761 360.65L256.891 364.222C255.794 364.328 256.158 364.313 255.014 363.581C253.665 360.339 253.212 355.062 252.742 351.417C254.78 353.15 257.112 356.01 259.471 356.895L260.512 356.038L260.72 351.934Z" fill="#2D489F"/>
<path d="M196.783 351.584C200.652 352.225 204.895 352.83 204.613 357.64C203.192 359.851 202.247 360.025 199.728 360.976C196.808 359.796 199.141 361.684 195.378 361.235L195.392 358.634L195.43 361.046C194.986 359.421 196.385 353.584 196.783 351.584Z" fill="#2D489F"/>
<path d="M267.808 350.098C271.099 350.581 276.199 356.099 275.8 359.393L274.847 358.71C269.27 358.621 269.5 360.878 267.018 360.755C266.282 358.346 267.395 352.872 267.808 350.098Z" fill="#2D489F"/>
<path d="M187.268 349.767C190.362 349.747 192.63 349.37 194.131 352.271L193.562 352.982L190.569 352.471L190.201 352.98C191.65 354.73 192.386 355.55 193.437 357.561C193.054 359.679 191.944 360.292 190.257 361.666C187.412 359.853 186.709 360.051 185.468 357.296L185.892 356.542C187.365 357.257 188.264 357.614 189.781 358.162C191.117 354.238 187.078 356.956 187.268 349.767Z" fill="#2D489F"/>
<path d="M213.797 262.013L247.736 261.991C253.004 270.114 253.751 263.771 260.275 268.268C261.393 269.049 263.937 273.069 263.086 274.45C258.629 281.677 261.997 280.864 262.163 285.56C259.792 290.3 244.903 306.992 240.844 311.118C237.041 315.428 235.048 317.606 230.663 321.297C222.967 314.365 205.139 294.682 199.78 285.092C199.401 284.413 200.414 283.156 201.068 282.294C203.56 279.529 197.841 277.245 198.12 274.449C198.664 268.985 203.62 266.787 208.411 266.513C211.441 266.34 212.317 264.138 213.797 262.013Z" fill="#FDFCFE"/>
<path d="M230.833 128.483C233.304 132.433 235.508 135.887 237.578 140.091L239.23 140.288C242.195 136.567 244.952 133.182 248.102 129.617L253.031 142.477L254.202 142.558C258.395 139.131 260.801 136.933 264.577 133.054L267.85 146.187C269.659 145.739 271.227 145.351 273.065 145.041C274.466 146.94 274.075 148.849 274.202 151.538L273.995 152.496L272.514 153.223C269.238 153.169 267.167 151.934 264.214 150.552L262.807 152.863C253.534 153.502 240.91 153.155 231.438 153.152C221.958 153.148 209.418 153.472 200.143 152.865L200.411 152.267L199.837 149.862C195.791 151.546 191.348 154.346 187.211 152.286C187.281 149.76 187.168 146.952 188.081 144.633C191.194 144.34 191.242 147.034 193.531 146.794C194.693 143.388 196.069 136.894 196.969 133.191C199.949 135.565 204.081 139.604 207.018 142.276L208.828 141.585L213.484 129.434C216.326 132.148 219.901 137.021 222.423 140.256L223.852 140.184C225.716 136.934 228.732 131.323 230.833 128.483Z" fill="#2D489F"/>
<path d="M187.211 152.286C189.793 150.111 193.646 148.771 196.83 147.701C219.782 139.989 252.392 140.833 274.202 151.538L273.995 152.496L272.514 153.223C269.238 153.169 267.167 151.934 264.214 150.552L262.807 152.863C253.534 153.502 240.91 153.156 231.438 153.152C221.958 153.149 209.418 153.472 200.143 152.865L200.411 152.268L199.837 149.862C195.791 151.546 191.348 154.346 187.211 152.286Z" fill="#FDFCFE"/>
<path d="M200.411 152.267C213.269 146.835 251.02 145.041 262.807 152.863C253.534 153.502 240.91 153.155 231.438 153.152C221.958 153.148 209.417 153.472 200.143 152.865L200.411 152.267Z" fill="#FDFCFE"/>
<path d="M199.837 149.862C224.075 143.852 240.108 143.723 264.214 150.552L262.807 152.863C251.02 145.041 213.269 146.835 200.411 152.268L199.837 149.862Z" fill="#2D489F"/>
<path d="M230.833 128.483C233.304 132.433 235.508 135.887 237.578 140.091C235.128 141.115 226.528 140.721 223.852 140.184C225.716 136.934 228.732 131.323 230.833 128.483Z" fill="#FDFCFE"/>
<path d="M213.484 129.434C216.326 132.148 219.901 137.021 222.423 140.256C219.062 141.327 212.126 142.786 208.828 141.585L213.484 129.434Z" fill="#FDFCFE"/>
<path d="M239.23 140.288C242.195 136.567 244.952 133.182 248.102 129.617L253.031 142.477C248.779 142.017 243.165 141.614 239.23 140.288Z" fill="#FDFCFE"/>
<path d="M196.969 133.191C199.949 135.566 204.081 139.604 207.018 142.276C203.616 144.583 197.625 145.234 193.531 146.794C194.693 143.389 196.069 136.894 196.969 133.191Z" fill="#FDFCFE"/>
<path d="M254.202 142.558C258.395 139.131 260.801 136.933 264.577 133.054L267.85 146.187C265.481 146.03 256.572 143.375 254.202 142.558Z" fill="#FDFCFE"/>
<path d="M137.192 335.021C132.318 329.933 131.276 322.879 135.039 316.812C136.968 313.659 140.122 311.451 143.744 310.718C146.082 310.239 149.818 310.268 151.883 311.622L151.401 313.191L151.702 314.68C165.137 313.778 160.42 336.453 167.442 341.32C167.847 339.314 167.725 338.467 167.586 336.449C170.027 336.977 170.683 337.642 172.688 339.186C173.019 342.063 166.473 350.428 164.397 352.853L163.017 354.679C162.036 353.613 161.078 353.149 159.843 352.407L158.756 353.089C158.579 355.494 158.483 357.071 157.957 359.417C156.275 359.302 154.161 355.918 151.895 354.107C144.989 348.588 141.395 350.386 133.729 346.333L134.973 344.832C128.651 341.01 122.774 334.808 126.51 327.004L127.786 326.662C131.43 331.49 130.853 332.596 135.889 336.337L137.192 335.021Z" fill="#2D489F"/>
<path d="M137.192 335.021C132.318 329.933 131.276 322.879 135.039 316.812C136.968 313.659 140.122 311.451 143.744 310.718C146.082 310.239 149.817 310.268 151.883 311.622L151.401 313.191C149.915 319.544 153.965 322.857 157.517 328.254L145.689 321.383C148.508 324.892 156.352 334.702 157.914 338.499L157.446 339.563C154.492 338.591 151.701 335.883 149.25 333.837C153.935 342.213 154.971 345.358 157.117 354.781C150.94 347.111 145.523 340.579 137.192 335.021Z" fill="#FDFCFE"/>
<path d="M151.702 314.68C165.137 313.777 160.419 336.452 167.442 341.32C167.847 339.314 167.725 338.467 167.586 336.449C170.027 336.977 170.683 337.641 172.688 339.186C173.019 342.063 166.473 350.428 164.397 352.853C160.858 350.734 158.858 350.102 157.89 346.282L160.485 347.429C162.789 343.28 157.647 336.984 157.541 331.604L159.594 332.397L160.256 331.939C159.309 323.568 153.646 321.062 151.702 314.68Z" fill="#FDFCFE"/>
<path d="M134.973 344.832C128.651 341.01 122.774 334.808 126.51 327.004L127.786 326.662C131.43 331.49 130.853 332.596 135.889 336.338C142.774 341.576 146.584 345.056 152.388 351.837C142.881 345.923 139.63 343.867 131.437 335.884C132.151 337.52 134.943 343.505 134.973 344.832Z" fill="#FDFCFE"/>
<path d="M308.557 161.27C309.483 161.831 319.265 173.212 321.202 175.12C319.716 181.922 323.252 182.185 317.136 187.676C314.75 189.613 311.132 192.018 308.541 193.846L308.557 161.27Z" fill="#FDFCFE"/>
<path d="M214.392 255.421C220.595 255.344 243.542 254.645 248.069 256.033L248.487 257.297L247.152 258.722C241.22 258.674 213.534 260.931 212.85 255.994L214.392 255.421Z" fill="#FDFCFE"/>
<path d="M89.9271 155.633C86.7824 153.387 79.5221 149.104 79.0632 145.335L80.0095 144.364C83.3913 144.685 87.4545 149.303 89.7564 150.803C92.6446 152.685 101.271 149.562 104.374 151.703L108.401 154.887C106.231 155.398 94.4329 155.145 89.9271 155.633Z" fill="#FDFCFE"/>
<path d="M79.3374 128.178C90.4716 136.867 89.5856 144.754 109.815 146.425L110.205 146.455L109.683 147.726C98.4859 149.175 86.308 141.306 79.4857 132.691C78.1493 131.005 78.8453 130.102 79.3374 128.178Z" fill="#FDFCFE"/>
<path d="M83.9359 159.314C97.4277 165.094 105.017 158.559 110.821 162.656C102.707 164.578 87.9071 169.366 83.9359 159.314Z" fill="#FDFCFE"/>
<path d="M82.6088 116.204C86.7638 117.102 86.0254 123.264 89.262 127.047C92.6029 130.952 101.643 135.077 102.167 139.983C94.4869 136.882 87.3177 128.552 83.2229 121.463C81.4848 118.454 81.7397 119.107 82.6088 116.204Z" fill="#FDFCFE"/>
<path d="M98.3191 101.812C100.893 104.472 98.9773 109.074 100.083 113.267C102.673 123.1 106.154 125.457 106.835 136.196C101.556 130.504 96.1717 110.239 98.3191 101.812Z" fill="#FDFCFE"/>
<path d="M89.9943 106.314L91.2287 106.907C93.0749 109.036 98.15 126.178 98.7046 129.169C96.7642 127.163 89.7842 112.907 88.3281 109.607L89.9943 106.314Z" fill="#FDFCFE"/>
<path d="M104.815 169.108L105.263 170.177C99.2391 173.272 96.3447 173.478 89.6969 172.933L88.9437 171.173L88.8641 171.216C91.3321 169.959 100.09 170.323 104.588 169.169L104.815 169.108Z" fill="#FDFCFE"/>
<path d="M104.374 151.703C107.118 151.596 111.68 150.557 113.079 151.108C111.249 153.132 110.746 153.454 108.4 154.887L104.374 151.703Z" fill="#DFDCEB"/>
<path d="M104.815 169.109C108.044 167.807 108.814 167.651 112.219 167.199L113.082 167.967L113.031 167.092L114.029 167.589C110.08 169.59 108.635 169.078 105.263 170.177L104.815 169.109Z" fill="#4B61B0"/>
<path d="M250.83 85.2934L253.007 82.2691L254.032 82.5324C256.311 89.2049 262.886 95.9352 262.92 97.7118C259.458 105.826 252.989 109.074 252.459 111.174L254.333 112.25C257.441 111.146 257.383 109.465 260.213 106.931L261.479 108.312C264.204 104.242 265.531 99.1711 269.971 98.2709C274.56 98.5921 279.741 103.008 278.549 108.03C277.406 112.847 279.089 114.598 281.596 118.601L282.943 119.277C284.691 114.379 278.894 106.806 284.162 101.314C291.038 100.029 293.903 97.349 299.692 93.1928C297.479 98.7858 295.191 104.349 292.83 109.881C291.073 114.08 286.488 123.723 285.279 127.275C283.331 131.459 283.34 131.834 284.515 136.327L281.37 136.258C279.918 136.652 276.816 135.373 275.335 134.807C243.112 122.493 212.572 125.117 180.919 136.752L178.526 137.855C176.681 135.451 179.351 133.442 176.232 126.839L178.204 125.895L180.544 126.587C182.091 126.089 181.557 126.467 182.538 125.118C188.822 124.369 189.369 122.631 192.05 117.293C188.254 115.442 186.972 114.68 183.589 112.162C181.273 101.113 190.482 93.995 198.333 103.067C199.097 103.949 197.905 105.878 199.861 108.165C203.432 107.929 204.137 112.174 208.723 111.292L209.232 110.267C205.32 107.571 202.741 104.453 200.323 100.445L199.349 97.5289C199.832 95.8534 204.904 88.7362 206.599 85.5096C207.219 83.1987 206.757 83.6504 208.339 82.1826C210.073 84.3468 213.821 89.2288 216.234 90.1739C227.468 94.574 214.465 105.263 215.986 110.368L217.607 110.319C221.994 107.187 224.803 85.9759 236.315 96.1437C239.01 98.5241 239.173 100.918 239.207 104.274L240.833 104.916C241.613 106.574 241.893 107.538 242.417 109.274C244.694 111.037 243.663 110.665 246.529 110.776C248.703 108.067 236.78 98.7457 242.297 93.2684C245.065 90.5197 248.13 88.1648 250.83 85.2934Z" fill="#1D3B8F"/>
<path d="M219.008 116.854C224.399 116.88 226.113 116.089 228.671 111.301C229.184 112.528 229.234 113.016 230.298 113.693L232.716 112.419C235.654 115.238 237.089 116.877 241.411 116.741L241.882 116.722L243.133 119.113C245.797 117.463 247.956 115.113 250.005 115.424L251.577 118.425L254.963 117.984C259.7 120.409 262.082 118.964 265.803 116.044L267.565 117.754L268.203 118.007L269.126 118.139L269.689 117.265C271.272 121.036 272.245 122.969 276.23 124.578C277.098 124.937 278.002 125.204 278.927 125.374C280.102 126.515 279.493 126.223 281.32 126.343L282.213 126.103L283.88 125.963L285.279 127.274C283.331 131.458 283.34 131.834 284.515 136.327L281.37 136.258C279.918 136.652 276.816 135.373 275.335 134.807C243.112 122.493 212.572 125.116 180.919 136.751L178.526 137.855C176.681 135.451 179.351 133.441 176.232 126.839L178.204 125.895L180.544 126.587C182.091 126.089 181.557 126.467 182.538 125.117C188.822 124.369 189.369 122.631 192.05 117.293L192.415 117.578C193.558 117.115 194.313 116.546 195.331 115.868C198.172 118.027 199.81 119.408 203.526 118.935C204.74 118.792 205.934 118.508 207.083 118.088L209.243 119.282C210.708 116.968 210.601 116.276 212.782 115.31C214.938 116.398 216.611 117.63 218.571 119.004L219.008 116.854Z" fill="#FDFCFE"/>
<path d="M180.919 136.752L180.106 134.957C183.133 130.325 198.802 128.553 203.883 126.49C216.635 121.31 276.723 123.701 281.37 136.258C279.918 136.652 276.815 135.373 275.335 134.807C243.112 122.493 212.572 125.117 180.919 136.752Z" fill="#FDFCFE"/>
<path d="M178.204 125.895C179.407 128.295 179.642 129.849 181.707 130.951C187.231 129.654 192.143 127.36 197.466 125.866C223.286 118.615 250.652 119.876 275.593 129.77C277.943 130.702 279.679 131.246 281.753 129.708C282.003 128.615 282.492 127.121 282.213 126.103L283.88 125.964L285.279 127.275C283.331 131.459 283.34 131.834 284.515 136.327L281.37 136.258C276.723 123.701 216.635 121.309 203.883 126.489C198.802 128.553 183.133 130.324 180.106 134.957L180.919 136.751L178.526 137.855C176.681 135.451 179.351 133.441 176.232 126.839L178.204 125.895Z" fill="#2D489F"/>
<path d="M195.331 115.869C198.172 118.027 199.81 119.409 203.526 118.935C204.74 118.793 205.934 118.508 207.083 118.088L209.243 119.283C201.583 123.333 201.002 121.91 194.334 118.332C189.568 121.866 191.506 130.048 180.544 126.587C182.091 126.089 181.557 126.467 182.538 125.118C188.822 124.369 189.369 122.631 192.049 117.293L192.415 117.578C193.558 117.116 194.313 116.547 195.331 115.869Z" fill="#2D489F"/>
<path d="M268.203 118.007L269.126 118.139L269.689 117.265C271.272 121.036 272.245 122.969 276.23 124.578C277.098 124.937 278.002 125.204 278.927 125.374C280.101 126.515 279.493 126.223 281.32 126.343C275.134 129.426 268.97 124.778 268.203 118.007Z" fill="#2D489F"/>
<path d="M254.963 117.984C259.7 120.409 262.082 118.964 265.803 116.044L267.565 117.754C261.919 122.291 257.742 123.285 251.577 118.425L254.963 117.984Z" fill="#2D489F"/>
<path d="M219.008 116.854C224.399 116.88 226.113 116.089 228.671 111.301C229.184 112.528 229.234 113.016 230.298 113.693C226.803 118.452 224.603 119.514 218.571 119.004L219.008 116.854Z" fill="#2D489F"/>
<path d="M230.298 113.693L232.716 112.419C235.654 115.238 237.089 116.877 241.411 116.741L241.882 116.722L243.133 119.113C236.416 119.278 235.466 118.212 230.298 113.693Z" fill="#2D489F"/>
<path d="M250.83 85.2934L253.008 82.269L254.032 82.5323C256.311 89.2048 262.886 95.9352 262.92 97.7118L260.087 98.3364L258.228 98.6661L256.567 97.0424L254.303 98.4422C251.737 97.6609 254.206 97.2122 251.607 94.7933L249.619 97.5914L248.544 97.5203L246.881 95.3994C245.659 95.8178 245.976 95.7762 244.999 96.8795L244.196 96.1197C244.827 93.8003 250.28 89.2342 252.384 87.1595L250.83 85.2934Z" fill="#FDFCFE"/>
<path d="M250.83 85.2934L253.008 82.269L254.032 82.5323C256.311 89.2048 262.886 95.9352 262.92 97.7118L260.087 98.3364C258.27 95.8719 254.179 87.8799 252.384 87.1595L250.83 85.2934Z" fill="#2D489F"/>
<path d="M206.599 85.5093L208.745 86.6373C211.208 89.1914 216.927 93.7213 217.676 95.8956L216.766 96.8753C215.434 95.6176 215.93 95.6917 214.508 95.6547L212.899 97.5355L211.875 97.476L209.98 94.6224C207.282 97.1973 209.848 97.7779 207.129 98.3547L205.205 96.995C203.756 98.2713 203.852 98.6326 202.218 98.7886C200.864 99.5723 200.764 99.3167 200.323 100.445L199.349 97.5285C199.832 95.8531 204.904 88.7359 206.599 85.5093Z" fill="#FDFCFE"/>
<path d="M206.599 85.5093L208.745 86.6373C207.348 89.0231 202.618 96.6105 202.218 98.7886C200.864 99.5723 200.764 99.3167 200.323 100.445L199.349 97.5285C199.832 95.8531 204.904 88.7359 206.599 85.5093Z" fill="#2D489F"/>
<path d="M284.162 101.315C291.038 100.029 293.903 97.3491 299.692 93.1929C297.479 98.786 295.191 104.349 292.83 109.881L292.005 108.527L289.904 108.208L287.954 104.071L286.476 105.512C283.546 104.597 287.111 105.306 284.162 101.315Z" fill="#2D489F"/>
<path d="M269.689 117.265L273.834 115.238L275.121 115.702C276.306 120.885 275.729 121.089 278.927 125.374C278.002 125.204 277.098 124.937 276.23 124.578C272.245 122.969 271.271 121.036 269.689 117.265Z" fill="#FDFCFE"/>
<path d="M195.331 115.868L198.753 111.4L199.58 111.383C202.169 115.94 201.997 116.543 207.083 118.088C205.935 118.508 204.74 118.792 203.526 118.935C199.81 119.409 198.172 118.027 195.331 115.868Z" fill="#FDFCFE"/>
<path d="M254.963 117.984C259.699 116.436 259.501 115.839 262.83 111.877C264.491 112.762 264.985 114.323 265.803 116.044C262.082 118.964 259.7 120.409 254.963 117.984Z" fill="#FDFCFE"/>
<path d="M219.008 116.854C224.749 112.213 222.626 109.897 225.012 108.579L228.671 111.302C226.113 116.089 224.399 116.88 219.008 116.854Z" fill="#FDFCFE"/>
<path d="M232.716 112.42C233.847 110.679 234.121 110.02 235.965 109.037C237.578 109.968 239.716 114.128 241.882 116.723L241.411 116.741C237.089 116.877 235.654 115.239 232.716 112.42Z" fill="#FDFCFE"/>
<path d="M268.141 104.133C270.058 102.875 272.63 103.388 273.916 105.286C275.203 107.183 274.726 109.762 272.847 111.074C271.606 111.941 269.995 112.072 268.631 111.419C267.267 110.765 266.36 109.427 266.259 107.919C266.157 106.41 266.876 104.963 268.141 104.133Z" fill="#FDFCFE"/>
<path d="M228.863 98.6598C230.801 97.619 233.215 98.2938 234.333 100.188C235.451 102.083 234.873 104.521 233.024 105.712C231.76 106.527 230.152 106.585 228.833 105.863C227.515 105.141 226.697 103.756 226.704 102.252C226.71 100.75 227.538 99.3709 228.863 98.6598Z" fill="#FDFCFE"/>
<path d="M189.252 104.16C190.573 103.352 192.237 103.36 193.551 104.179C194.865 104.997 195.604 106.488 195.46 108.029C195.316 109.57 194.314 110.898 192.871 111.459C190.896 112.228 188.661 111.362 187.721 109.464C186.78 107.566 187.444 105.264 189.252 104.16Z" fill="#FDFCFE"/>
<path d="M161.943 93.2476C168.604 98.1334 171.141 98.1187 177.092 102.178C183.722 106.701 176.724 116.556 178.089 119.799L179.34 119.645C182.429 116.479 180.84 117.681 182.088 112.747L183.589 112.162C186.972 114.68 188.254 115.442 192.05 117.293C189.369 122.631 188.822 124.369 182.538 125.118C181.557 126.467 182.091 126.089 180.544 126.587L178.204 125.895L176.232 126.839C172.879 117.508 165.985 103.347 161.943 93.2476Z" fill="#1D3B8F"/>
<path d="M183.589 112.162C186.972 114.68 188.254 115.442 192.05 117.293C189.369 122.631 188.822 124.369 182.538 125.117C184.735 122.706 186.111 121.588 186.648 118.416C186.29 115.313 185.498 114.547 183.589 112.162Z" fill="#FDFCFE"/>
<path d="M557.756 52.6296L568.659 52.6265C574.064 70.0489 579.766 87.3779 585.764 104.607C590.933 91.0484 598.026 67.1103 602.558 52.7624L615.799 52.801L610.47 67.8855C609.542 69.964 608.756 72.0733 608.055 74.2368C602.633 90.9944 596.603 107.537 590.845 124.18L580.174 124.219C574.631 107.063 568.786 90.0077 562.643 73.0578C557.714 90.1876 550.778 107.107 545.463 124.179L534.673 124.211L510.147 52.7886L523.885 52.794C529.023 70.3014 534.608 87.6751 540.634 104.898C546.135 87.2366 552.005 70.1786 557.756 52.6296Z" fill="#FDFCFE"/>
<path d="M1145.07 69.1581C1178.58 67.6402 1183.93 108.758 1159.4 122.319C1143.92 130.874 1136.18 116.848 1131.51 117.478L1131.28 120.5L1131.25 139.838L1118.77 139.833L1118.78 69.9966C1121.78 69.8546 1127.58 69.1882 1129.94 70.5132C1131.58 72.316 1131.34 74.2084 1131.39 76.6483L1132.14 77.2621C1136.89 72.2921 1138.55 71.3347 1145.07 69.1581Z" fill="#FDFCFE"/>
<path d="M1143.67 79.8121C1151.83 79.5588 1158.09 82.1485 1160.92 90.501C1162.6 95.4873 1162.21 100.941 1159.82 105.632C1157.26 110.632 1154.5 112.195 1149.59 113.824C1143.31 114.192 1141.52 113.224 1136.12 110.419C1127.93 98.1456 1128.33 86.08 1143.67 79.8121Z" fill="#1D3B8F"/>
<path d="M616.784 177.082C632.172 175.085 646.305 185.829 648.49 201.184C650.673 216.54 640.096 230.796 624.76 233.164C614.674 234.721 604.53 230.738 598.202 222.735C591.873 214.731 590.339 203.946 594.185 194.497C598.031 185.048 606.663 178.396 616.784 177.082Z" fill="#FDFCFE"/>
<path d="M618.386 187.951C641.46 189.161 642.75 217.384 622.537 222.359C618.936 222.29 616.314 222.075 612.988 220.335C609.132 218.284 606.263 214.77 605.026 210.583C603.542 205.832 604.046 200.681 606.425 196.308C609.403 190.865 612.928 189.577 618.386 187.951Z" fill="#1D3B8F"/>
<path d="M917.437 177.213C926.939 176.444 930.948 179.238 936.625 186.433C941.669 181.22 946.258 177.023 954.137 176.921C979.682 176.588 973.464 213.515 973.325 231.893L960.827 231.906C960.657 223.185 962.626 194.586 957.574 191.452C934.864 177.362 938.696 213.767 938.781 219.907L938.757 231.896L926.413 231.905C926.328 224.528 928.731 194.781 922.675 191.15C899.215 177.088 904.522 219.935 904.638 231.896L892.132 231.899L892.139 178.217C895.152 178.152 902.22 177.65 904.476 178.907L904.939 184.621C907.496 184.323 909.357 179.347 917.437 177.213Z" fill="#FDFCFE"/>
<path d="M542.533 160.229C542.906 160.185 543.28 160.145 543.654 160.109C557.334 158.797 565.871 161.008 576.291 169.583L568.608 178.581C560.332 173 546.465 167.709 537.993 173.886C511.069 193.518 531.69 237.068 566.772 216.333L566.808 203.29C562.281 203.188 553.218 204.437 549.187 202.534C548.394 202.161 548.398 200.434 548.221 199.304C548.275 197.114 548.077 194.394 549.208 192.609C555.309 191.72 571.622 192.189 578.502 192.225L578.528 221.884C564.974 233.672 544.741 237.64 528.98 227.772C521.051 222.769 515.451 214.805 513.426 205.654C508.375 183.539 520.679 165.192 542.533 160.229Z" fill="#FDFCFE"/>
<path d="M1077.67 69.2808C1110.48 69.9031 1103.23 98.8306 1102.99 123.763L1091.85 123.742C1089.43 122.311 1091.84 121.696 1090.11 118.584C1080.57 119.477 1074.13 134.221 1057.34 117.682C1053.85 112.218 1052.19 101.771 1057.69 96.8393C1067.94 87.6398 1078.49 91.2192 1090.26 91.4369C1090.76 90.2494 1090.99 90.3869 1090.64 89.1739C1086.61 75.6699 1071.33 80.6955 1062.13 83.5577L1058.98 73.4092C1066.01 70.7586 1070.21 69.8205 1077.67 69.2808Z" fill="#FDFCFE"/>
<path d="M1073.74 99.2407C1079.6 98.8878 1087.52 98.22 1091.16 103.778C1091.94 108.997 1087.76 111.947 1083.62 114.358C1067.51 117.5 1059.43 105.943 1073.74 99.2407Z" fill="#1D3B8F"/>
<path d="M1207.09 69.1609C1208.15 69.0983 1209.21 69.0644 1210.27 69.0582C1230.79 68.8003 1236.84 82.8811 1236.87 101.02L1197.11 101.021C1204 117.963 1214.16 118.156 1227.68 108.526L1234.73 114.779C1230.21 119.087 1226.32 122.137 1220.18 123.938C1213.28 125.966 1205.86 125.102 1199.61 121.543C1178.34 109.654 1180.26 76.3537 1207.09 69.1609Z" fill="#FDFCFE"/>
<path d="M1209.12 79.1567C1219.99 79.1992 1222.02 83.4311 1225.26 92.826L1213.31 92.8383L1197.45 92.8337C1199.37 85.2772 1201.42 81.5912 1209.12 79.1567Z" fill="#1D3B8F"/>
<path d="M1010.13 177.228C1030.93 175.991 1038.39 190.959 1038.49 209.414C1033.61 209.393 1001.62 208.739 999.45 210.229C999.426 211.799 999.697 212.682 1000.34 214.082C1006.29 227.054 1020.32 223.938 1028.84 216.626C1030.93 218.715 1033.82 220.983 1036.13 222.904C1031.41 228.131 1026.31 231.603 1019.24 232.907C1012.08 234.266 1004.68 232.722 998.654 228.614C992.513 224.307 988.326 217.741 987.013 210.355C984.078 193.848 993.563 180.044 1010.13 177.228Z" fill="#FDFCFE"/>
<path d="M1011.62 187.25C1022.18 188.427 1023.86 191.746 1026.73 201.315L1014.01 201.415L998.631 201.403C1000.79 192.706 1002.6 189.529 1011.62 187.25Z" fill="#1D3B8F"/>
<path d="M741.023 177.223C741.293 177.208 741.564 177.195 741.834 177.183C762.883 176.304 768.661 191.289 769.164 209.391C760.906 209.497 737.493 208.616 731.135 209.837L730.548 210.756C733.028 227.34 749.922 224.127 760.041 216.735L767.055 223.021C762.536 228.159 757.484 231.444 750.679 232.822C743.417 234.31 735.871 232.831 729.714 228.714C723.62 224.5 719.465 218.02 718.181 210.722C715.084 194.022 724.157 180.131 741.023 177.223Z" fill="#FDFCFE"/>
<path d="M741.741 187.292C752.702 187.954 754.27 191.45 757.538 201.308L745.966 201.416L729.691 201.409C731.745 193.56 733.422 189.625 741.741 187.292Z" fill="#1D3B8F"/>
<path d="M640.845 69.2011C662.942 67.6499 670.664 80.6783 671.126 101.019C657.856 101.208 644.125 101.017 630.819 100.998C636.87 116.857 648.81 119.076 661.185 108.581C661.943 108.989 667.398 113.921 668.41 114.818C658.62 124.776 645.387 128.63 632.83 121.18C626.4 117.426 621.764 111.234 619.973 104.011C615.924 87.5809 624.362 73.216 640.845 69.2011Z" fill="#FDFCFE"/>
<path d="M644.136 79.1489C653.701 79.0917 657.093 84.5505 658.97 92.8475L647.092 92.8382L631.171 92.832C633.236 84.4285 635.624 80.9162 644.136 79.1489Z" fill="#1D3B8F"/>
<path d="M798.401 69.1818C799.676 69.1193 800.95 69.0783 802.225 69.0583C822.502 68.7425 828.226 83.2996 828.458 101.018C815.241 101.082 802.024 101.066 788.799 100.97C794.84 117.67 805.268 117.882 818.663 109.194C821.088 109.573 824.085 112.863 826.256 114.77C821.922 119.028 817.836 122.085 811.942 123.874C805.06 125.954 797.636 125.149 791.364 121.641C769.874 109.854 771.743 76.631 798.401 69.1818Z" fill="#FDFCFE"/>
<path d="M801.383 79.1079C811.772 79.6824 813.773 83.7528 816.963 92.8428L805.446 92.8366L788.49 92.7594C791.457 85.0847 792.77 81.2327 801.383 79.1079Z" fill="#1D3B8F"/>
<path d="M1009.89 52.1001C1024.95 50.752 1032.94 52.5108 1044.54 62.1181C1042.52 65.025 1039.11 68.979 1036.8 71.818C1027.17 64.5185 1018.17 59.2768 1006.18 65.5068C993.571 72.0488 990.118 89.5971 996.8 101.533C999.859 107 1005.02 110.985 1011.08 112.566C1017.49 114.284 1024.04 113.019 1029.7 109.754C1032.19 107.777 1034.87 105.798 1037.42 103.861L1044.99 112.331C1005.42 151.586 954.338 92.379 994.668 58.4058C998.461 55.2086 1005.1 53.1579 1009.89 52.1001Z" fill="#FDFCFE"/>
<path d="M911.072 69.1154C911.991 69.0498 912.911 69.0135 913.838 69.0058C940.673 68.7973 934.13 104.975 933.983 123.758L921.539 123.76C921.547 118.265 921.416 112.311 921.64 106.856C922.188 93.2173 923.015 74.7085 902.668 82.2488C895.476 89.4548 898.064 113.511 898.11 123.765L885.473 123.753V70.018C889.351 69.8999 893.236 69.8929 897.114 69.9972C899.146 72.0818 897.091 73.6129 898.891 76.0597C904.244 72.4022 904.784 71.1244 911.072 69.1154Z" fill="#FDFCFE"/>
<path d="M854.297 177.147C854.752 177.111 855.208 177.092 855.664 177.091C882.623 177.088 876.173 213.073 876.003 231.896L863.52 231.908C863.288 217.151 869.993 179.367 844.324 190.799C837.519 197.509 839.906 222.38 839.967 231.895L827.5 231.905L827.492 178.266C829.81 178.226 834.931 177.606 837.04 178.017C840.925 178.774 839.21 183.183 840.601 185.574C846.031 180.26 846.649 179.086 854.297 177.147Z" fill="#FDFCFE"/>
<path d="M1078.15 177.202C1078.62 177.16 1079.08 177.133 1079.55 177.119C1107.16 176.334 1100.31 212.776 1100.18 231.893L1087.81 231.9C1087.96 217.989 1093.76 179.16 1069.23 190.559C1062.44 198.405 1064.85 220.633 1064.9 231.891L1052.33 231.902L1052.32 178.247C1054.89 178.186 1062.65 177.686 1064.51 178.625C1065.08 180.749 1065.07 182.242 1065.16 184.436C1067.14 184.907 1070.19 179.265 1078.15 177.202Z" fill="#FDFCFE"/>
<path d="M699.769 69.1805C708.287 68.8501 714.221 71.015 721.601 74.8192C720.487 77.6605 718.522 81.1535 717.075 83.9184C712.181 81.6314 694.28 74.2416 694.584 84.8109C699.869 92.8315 722.592 92.8585 723.125 107.533C723.57 119.795 713.165 123.901 702.927 124.786C693.833 124.421 687.605 120.858 679.909 116.484C681.695 113.918 684.2 110.859 686.164 108.335C691.484 112.097 697.295 114.935 703.952 114.642C708.06 114.461 711.928 112.598 711.278 108.008C705.77 100.231 684.061 100.218 682.619 87.3449C681.403 76.4838 689.936 70.8351 699.769 69.1805Z" fill="#FDFCFE"/>
<path d="M696.923 178.154L709.926 178.272C708.705 182.172 706.427 187.6 704.913 191.533C699.584 205.141 693.765 218.62 688.387 232.434L677.272 232.381C674.459 225.165 655.661 182.123 656.5 178.206L668.818 178.283C673.031 191.292 678.104 204.96 682.694 217.915C686.759 208.843 693.876 187.936 696.923 178.154Z" fill="#FDFCFE"/>
<path d="M1118.92 163.688L1131.26 163.726L1131.28 178.243L1145.71 178.214L1145.69 188.869L1131.28 188.816C1131.26 196.03 1129.47 216.745 1134.72 221.416C1138.51 223.044 1142.47 219.056 1145.54 221.324C1145.7 223.986 1146.21 227.239 1145.11 229.57C1142.83 231.881 1136.35 233.445 1133.07 233.48C1110.27 233.728 1123.35 194.857 1116.81 188.242C1115.16 188.097 1114.33 188.148 1112.92 187.198C1111.84 184.757 1112.13 182.342 1112.2 179.681C1113.74 177.511 1114.54 178.461 1118.13 177.635C1119.53 175.498 1118.93 166.99 1118.92 163.688Z" fill="#FDFCFE"/>
<path d="M739.362 55.3929L751.652 55.3813L751.636 70.0427L765.896 69.9733L765.873 80.7047L751.644 80.6815C751.706 87.5964 750.385 105.07 752.919 111.283C754.494 115.153 761.308 112.096 765.34 112.884L766.104 115.204C766.043 124.71 759.585 125.424 751.281 124.429C730.463 121.936 743.695 89.0943 738.342 80.856C736.342 80.7734 735.144 80.6931 733.175 80.3765C731.884 78.2077 732.054 74.0662 732.827 71.7066C734.797 69.6729 735.106 70.1524 738.226 69.6073C740.018 67.6817 739.354 58.8033 739.362 55.3929Z" fill="#FDFCFE"/>
<path d="M1139.43 350.463C1141.47 350.575 1142.2 350.515 1144.08 351.37C1144.96 358.951 1144.45 388.889 1144.04 397.189C1142.57 398.669 1143.32 398.306 1141.19 398.51C1139.87 397.598 1139.36 395.171 1138.82 393.517C1130.45 394.543 1132.24 403.886 1117.11 396.018C1100.41 379.944 1117.84 351.582 1139.41 370.165L1139.43 350.463Z" fill="#FDFCFE"/>
<path d="M1123.07 368.61C1140.18 366.969 1146.15 384.187 1131.24 393.971C1113.79 396.655 1110.17 376.308 1123.07 368.61Z" fill="#1D3B8F"/>
<path d="M1233.78 364.003C1251.74 362.708 1258.81 381.262 1250 392.752C1247.65 395.853 1244.13 397.865 1240.26 398.326C1233.29 399.188 1229.61 396.731 1224.42 392.724C1224.45 397.212 1224.64 402.783 1224.24 407.165C1222.59 408.869 1223.44 408.47 1221.05 408.646L1219.96 407.662C1219.1 400.784 1219.45 373.204 1219.96 365.77C1220.9 364.371 1220.47 364.844 1222.42 364.082C1224.66 365.82 1223.64 366.483 1224.98 369.773C1228.37 367.162 1229.96 365.883 1233.78 364.003Z" fill="#FDFCFE"/>
<path d="M1232.93 368.499C1239.24 368.137 1243.53 368.634 1246.95 374.91C1248.73 378.181 1249.1 382.039 1247.97 385.59C1246.48 390.311 1244.3 392.052 1240.23 394.153C1223.13 395.679 1218.38 377.684 1232.93 368.499Z" fill="#1D3B8F"/>
<path d="M1275.35 364.169C1284.87 362.081 1294.26 368.105 1296.33 377.614C1298.4 387.123 1292.35 396.506 1282.83 398.555C1273.35 400.599 1263.99 394.576 1261.93 385.095C1259.86 375.613 1265.87 366.251 1275.35 364.169Z" fill="#FDFCFE"/>
<path d="M1274.97 369.243C1281.64 366.937 1288.92 370.445 1291.26 377.096C1293.61 383.746 1290.15 391.044 1283.51 393.431C1276.81 395.839 1269.43 392.339 1267.07 385.63C1264.7 378.922 1268.24 371.569 1274.97 369.243Z" fill="#1D3B8F"/>
<path d="M869.838 68.9578C871.322 68.9184 871.607 69.0628 873.013 69.5662C874.504 72.5874 873.824 78.2523 873.724 81.9175C850.148 84.1589 854.459 106.127 854.613 123.759C851.377 123.702 845.521 124.835 843.073 123.046C842.184 122.401 842.385 120.73 842.285 119.341L842.292 69.9947L854.629 69.9831L854.698 81.0033C859.086 73.9973 861.836 71.2417 869.838 68.9578Z" fill="#FDFCFE"/>
<path d="M811.595 177.045C812.784 177.06 812.9 177.266 813.904 178.009C814.77 181.055 814.36 186.343 814.252 189.703C790.684 194.577 795.319 212.304 795.535 231.89C791.727 231.833 788.236 232.746 784.636 231.614C782.658 229.767 783.276 230.191 783.099 226.663V178.226L795.535 178.168L795.582 188.947C800.718 181.784 802.99 179.032 811.595 177.045Z" fill="#FDFCFE"/>
<path d="M810.328 351.988C812.483 352.042 813.572 351.896 815.357 353.104C817.72 356.674 835 395.197 834.73 397.395C832.05 397.896 833.092 397.946 830.435 397.009C827.863 394.686 826.094 389.352 824.703 385.955L816.361 385.951L800.294 385.925C798.741 389.501 796.98 395.01 794.299 397.368C791.974 398.057 792.693 398.203 790.677 397.469C792.044 390.691 806.481 361.233 810.328 351.988Z" fill="#FDFCFE"/>
<path d="M812.321 359.054C815.125 362.736 820.756 376.185 822.973 381.297L815.295 381.451L802.673 381.472C805.539 374.229 809.192 366.264 812.321 359.054Z" fill="#1D3B8F"/>
<path d="M904.475 364.106C916.588 363.285 921.856 368.883 922.435 381.005C922.636 385.228 923.099 394.349 920.937 397.685C919.198 398.064 918.465 398.376 916.804 397.624L916.07 394.932C907.666 395.317 907.001 404.46 894.294 394.897C892.788 392.322 892.046 389.372 892.155 386.391C892.525 374.511 911.914 380.258 916.912 375.642C915.437 364.821 899.431 371.853 895.345 368.218L895.986 367.028C898.365 364.916 901.324 364.7 904.475 364.106Z" fill="#FDFCFE"/>
<path d="M901.347 381.757C907.581 381.323 910.725 380.5 915.962 383.63C918.65 388.152 915.166 390.981 911.667 393.752C901.293 396.824 891.189 390.282 901.347 381.757Z" fill="#1D3B8F"/>
<path d="M725.363 364.076C734.364 363.512 740.405 366.289 742.46 376.017C743.425 380.58 744.144 393.879 741.695 397.66C740.019 398.056 739.215 398.417 737.632 397.659L736.875 394.915C728.678 395.278 727.761 404.479 715.227 394.921C713.658 392.578 712.437 388.711 712.774 386.032C714.236 374.412 732.325 380.523 737.423 375.769L737.338 374.056C731.931 364.49 721.131 372.261 716.306 368.293L716.896 366.913C719.193 364.958 722.357 364.665 725.363 364.076Z" fill="#FDFCFE"/>
<path d="M722.157 381.77C727.814 381.368 731.452 380.553 736.45 383.265C739.671 387.569 736.257 390.635 732.897 393.583C722.554 397.039 711.801 390.475 722.157 381.77Z" fill="#1D3B8F"/>
<path d="M1041.84 364.159C1052.1 363.197 1058.98 366.869 1059.93 378.292C1060.33 383.197 1060.6 393.459 1058.7 397.695C1056.43 398.227 1057.38 398.287 1055.16 397.418L1054.42 394.957C1046.28 394.872 1045.16 404.923 1031.67 394.499C1021.54 372.025 1052.62 381.322 1055.28 375.01C1052.57 365.422 1037.61 371.346 1033.24 368.575L1033.55 367.134C1035.42 365.335 1039.18 364.796 1041.84 364.159Z" fill="#FDFCFE"/>
<path d="M1039.56 381.758C1045.26 381.218 1049.54 380.622 1054.35 383.744C1056.7 388.31 1053.62 390.848 1049.9 393.624C1039.6 396.668 1029.18 390.752 1039.56 381.758Z" fill="#1D3B8F"/>
<path d="M1190.83 351.787C1195.04 351.95 1205.88 353.42 1207.13 357.912C1203.07 364.733 1199.73 357.157 1193.1 356.37C1187.92 355.757 1182.55 359.017 1181.68 364.196C1183.19 374.004 1208.56 372.233 1209.01 385.117C1209.4 396.18 1201.09 398.278 1192.12 398.855C1187.81 398.414 1176.1 395.623 1175.37 390.75C1180.17 387.652 1190.22 395.767 1196.16 394.313C1201.09 393.109 1205.16 389.912 1204 384.517C1199.01 377.606 1187.37 378.386 1181.71 373.734C1169.48 363.682 1178.79 354.089 1190.83 351.787Z" fill="#FDFCFE"/>
<path d="M531.377 351.773C536.178 351.651 552.779 354.429 550.319 360.866C549.501 361.379 548.546 361.977 547.455 362.661C542.909 359.368 539.405 356.249 533.266 356.607C516.096 357.616 509.998 379.055 522.229 390.235C526.923 394.526 533.426 394.29 539.234 393.757C543.216 391.736 545.909 388.239 550.683 389.677L550.726 390.96C548.247 394.692 543.447 397.214 539.017 398.174C516.58 403.037 503.399 380.254 514.836 361.777C518.873 355.256 523.986 353.277 531.377 351.773Z" fill="#FDFCFE"/>
<path d="M1084 364.037C1086.27 363.903 1089.22 363.717 1091.38 364.24C1103.7 367.219 1102.06 388.511 1099.69 397.568L1097.88 397.812C1091.15 391.506 1103.73 368.939 1084.39 368.301C1070.07 373.615 1079.1 389.523 1075.71 397.3C1073.17 398.085 1073.91 398.285 1072.01 397.296C1070.7 394.595 1070.07 366.114 1074.18 364.057L1075.27 364.67C1076.22 366.099 1076.23 366.633 1076.43 368.326L1076.49 368.845C1079.35 366.575 1080.84 365.769 1084 364.037Z" fill="#FDFCFE"/>
<path d="M646.583 364.296C651.683 364.854 651.409 364.529 651.451 369.336C651.502 375.38 649.984 395.191 659.185 395.271C676.644 395.423 668.082 368.625 673.812 363.445C676.92 365.939 676.1 367.662 675.988 371.432C676.051 378.685 676.149 386.058 676.069 393.312C676.033 396.603 675.905 396.746 673.992 398.479C672.092 397.987 672.196 397.147 670.82 394.874C667.555 394.649 665.609 398.527 659.857 398.78C642.468 399.543 646.454 376.508 646.583 364.296Z" fill="#FDFCFE"/>
<path d="M560.138 364.288L563.728 364.701C566.01 366.397 563.35 385.187 567.215 390.33C570.664 394.922 571.265 397.06 577.229 394.305C590.322 388.258 582.063 375.052 585.186 365.178C587.072 364.366 586.473 364.583 588.69 364.89C590.085 366.597 589.597 369.542 589.506 371.873C589.566 377.789 589.919 390.366 589.258 396.771C588.635 397.429 588.106 397.987 587.672 398.444C585.462 398.052 585.79 396.905 583.944 394.293C580.577 395.975 579.824 397.919 575.644 398.505C560.876 400.574 559.417 388.629 559.976 377.406C560.174 373.418 560.082 368.316 560.138 364.288Z" fill="#FDFCFE"/>
<path d="M985.638 364.044C985.847 364.027 986.055 364.011 986.271 363.997C991.578 363.658 996.893 364.773 1000.96 368.38C996.476 374.338 986.673 361.628 982.347 372.663C984.703 378.006 992.111 378.295 996.607 381.519C1007.34 389.22 1001.22 397.226 990.242 398.953C986.48 398.645 977.867 396.907 976.183 393.358C979.899 387.986 993.401 400.881 997.619 390.056C995.402 383.59 981.227 382.293 977.558 375.488C974.661 370.101 981.405 365.836 985.638 364.044Z" fill="#FDFCFE"/>
<path d="M877.509 350.876C881.58 350.463 885.133 349.407 887.79 353.104C885.844 357.55 881.626 353.765 878.119 356.354C876.706 358.567 876.821 359.434 876.744 362.109C879.293 364.579 885.697 365.154 888.099 367.582C885.821 369.221 879.834 368.75 876.906 368.723L876.922 387.453C877.03 390.542 877.517 394.644 876.242 397.317C874.079 398.542 874.998 398.329 872.248 397.69C870.194 393.661 872.82 374.46 871.036 369.353C870.928 369.036 867.923 368.391 867.104 368.1L866.795 366.128C868.409 362.816 870.541 365.487 871.182 363.383C873.546 355.602 870.603 356.111 877.509 350.876Z" fill="#FDFCFE"/>
<path d="M621.395 353.97C622.778 354.028 624.118 354.179 625.494 354.318C627.975 357.147 627.106 360.484 626.915 364.594C630.653 364.441 634.239 363.593 636.761 366.647L635.94 367.846C633.338 369.335 629.975 368.842 626.901 368.725C627.022 375.426 624.707 388.522 629.366 393.204C631.491 394.583 633.915 394.057 636.472 393.837C637.031 394.614 636.881 395.735 636.877 396.744C633.284 399.976 624.781 398.782 622.762 394.831C619.121 387.702 622.721 376.644 620.993 369.386C619.818 368.936 618.636 368.504 617.448 368.092C616.783 365.896 616.72 366.728 617.415 364.832L620.705 364.319C621.696 362.297 621.4 356.504 621.395 353.97Z" fill="#FDFCFE"/>
<path d="M852.651 350.839C857.803 350.397 859.928 349.712 864.153 352.684C861.743 354.588 849.067 355.337 851.963 363.623C853.632 365.127 859.201 364.72 861.805 364.78L862.793 365.838L862.67 367.72C860.731 369.37 855.146 368.722 851.987 368.716L852.018 385.909C852.157 390.029 853.362 395.702 849.847 398.076C849.268 397.964 848.572 397.828 847.746 397.67C845.405 392.733 848.804 372.3 846.278 369.006C844.718 368.932 843.536 369.038 842.254 368.112C841.968 365.776 841.651 366.233 842.725 364.7L846.101 364.321C850.094 359.054 844.162 357.16 852.651 350.839Z" fill="#FDFCFE"/>
<path d="M1335.98 353.622L1339.56 354.363C1341.63 356.837 1340.86 361.141 1340.73 364.596C1344.39 364.45 1348.32 363.59 1350.86 366.494L1350.07 367.83C1347.46 369.335 1343.81 368.836 1340.7 368.732C1340.82 375.716 1338.34 388.484 1343.47 393.251C1346.1 394.517 1348.03 394.079 1350.9 393.795C1351.25 394.572 1351.21 395.801 1351.27 396.719C1349.74 398.728 1342.8 399.837 1340.75 398.515C1332.09 392.928 1337.6 376.66 1335.29 369.197C1333.96 368.892 1333.01 368.645 1331.72 368.218C1331.15 365.947 1330.98 366.682 1331.88 364.809L1334.83 364.404C1336.16 362.428 1335.89 356.468 1335.98 353.622Z" fill="#FDFCFE"/>
<path d="M754.294 350.376C756.503 350.649 757.793 350.44 759.369 351.672C760.435 362.301 759.662 386.917 759.616 398.574C757.283 398.276 756.82 398.257 754.742 397.196C753.645 391.953 754.255 358.178 754.294 350.376Z" fill="#FDFCFE"/>
<path d="M1322.59 363.671L1324.74 364.292L1325.58 365.935C1324.25 369.699 1313.07 373.856 1312.24 378.582C1311.18 384.611 1312.19 391.039 1311.28 397.266C1308.96 398.342 1309.9 398.174 1307.29 397.622L1306.6 396.245C1306.64 387.557 1305.94 373.329 1306.97 365.503C1308.87 364.127 1307.99 364.368 1310.28 364.573C1313.12 367.463 1310.6 367.157 1312.26 370.971C1315.97 367.6 1317.93 365.477 1322.59 363.671Z" fill="#FDFCFE"/>
<path d="M967.987 363.815L969.725 364.345L970.498 365.955C968.768 370.958 957.513 371.568 957.026 379.916C956.702 385.547 956.447 391.911 955.991 397.524C953.62 398.314 954.562 398.26 952.16 397.529L951.627 395.753C951.688 390.519 948.946 364.68 955.481 364.66C957.381 366.976 955.327 367.479 956.833 371.195C960.865 366.358 962.132 365.897 967.987 363.815Z" fill="#FDFCFE"/>
<path d="M704.604 363.834L706.258 364.375C707.197 367.07 707.343 366.237 706.572 368.637C683.879 375.168 698.654 393.106 691.485 398.138L688.943 397.626L688.279 396.406C688.332 390.727 685.662 365.237 692.082 364.624C693.324 366.318 692.967 368.101 693.068 370.502L693.689 370.939C698.003 366.03 698.459 366.04 704.604 363.834Z" fill="#FDFCFE"/>
<path d="M602.183 350.303L606.19 351.032C608.1 353.448 607.175 392.176 607.136 398.432C605.21 398.213 604.636 398.056 602.797 397.477C601.56 395.277 602.156 356.251 602.183 350.303Z" fill="#FDFCFE"/>
<path d="M934.084 364.314C935.776 364.422 937.313 364.308 938.51 365.505C939.36 373.285 938.796 389.854 938.75 398.266C933.659 397.859 934.022 397.359 933.991 392.338C933.93 383.002 934.03 373.651 934.084 364.314Z" fill="#FDFCFE"/>
</svg>
