<svg width="1536" height="347" viewBox="0 0 1536 347" fill="none" xmlns="http://www.w3.org/2000/svg">
<path d="M1380.67 10.7897C1383.1 10.6621 1385.52 10.5844 1387.94 10.5542L1456.72 10.528C1472.39 10.4887 1495.93 8.71626 1510.09 14.1678C1538.86 25.2434 1534.71 56.7394 1534.67 81.7804C1522.72 81.5432 1510.78 81.5301 1498.84 81.7428C1500.01 37.0085 1500.83 45.8152 1457.38 46.0622L1457.42 192.496C1466.27 192.393 1477.59 191.79 1486.32 192.962C1503.31 195.242 1499.24 174.926 1498.99 162.634C1498.82 160.398 1498.44 158.708 1499.58 156.801C1503.61 155.914 1528.58 156.354 1534.62 156.368C1534.43 172.31 1537.81 193.297 1529.63 207.471C1524.3 216.726 1514.16 223.817 1503.93 226.548C1493.67 229.283 1394.94 229.401 1381.66 227.629C1375.86 226.857 1369.85 224.652 1364.83 221.681C1355.26 216.05 1348.41 206.761 1345.86 195.964C1344.56 190.605 1344.89 174.172 1344.88 167.87L1344.86 122.859L1344.89 75.1314C1344.92 43.992 1343.27 19.3739 1380.67 10.7897ZM1417.61 192.437L1420.71 192.385C1422.84 189.028 1421.35 61.4589 1421.6 46.0025C1410.16 46.0172 1397.11 45.7579 1385.8 46.0965C1383.39 47.0625 1381.41 47.4142 1380.9 50.3604C1380.12 54.9433 1380.67 59.8132 1380.67 64.4534C1380.66 103.009 1380.49 141.57 1380.67 180.124C1380.68 183.263 1380.93 186.934 1381.94 189.913C1388.61 194.267 1408.84 192.36 1417.61 192.437Z" fill="#ED9F36"/>
<path d="M1004.75 10.5205L1040.36 10.4951C1039.79 35.1132 1040.24 61.5136 1040.24 86.2421L1040.25 228.216C1028.57 228.023 1016.52 228.188 1004.8 228.204C1004.1 193.205 1004.51 170.957 987.894 138.375C965.062 93.6288 932.376 68.605 885.615 53.0872L885.607 96.7852C901.892 102.678 912.556 107.79 925.887 119.12C949.578 139.272 964.349 167.958 966.985 198.939C967.345 203.546 968.728 225.579 966.485 228.192C955.143 228.06 943.481 228.191 932.114 228.196C931.255 212.643 932.393 200.312 927.753 185.014C920.805 162.114 906.164 146.376 885.599 135.122L885.591 228.218C873.921 228.005 861.76 228.183 850.041 228.189C848.511 157.008 850.655 82.7544 849.861 11.0652C858.896 12.1163 870.394 13.209 879.257 14.9087C929.749 24.5979 975.471 54.364 1004.74 96.3451C1004.33 68.1224 1004.65 38.798 1004.75 10.5205Z" fill="#0EB0BD"/>
<path d="M1181.66 10.5647L1213.11 10.5459C1218.02 18.9346 1223.5 31.1659 1227.76 40.0634L1251.58 89.8206L1318.13 228.165L1278.89 228.183C1268.96 212.48 1258.18 184.198 1248.23 166.429C1238.72 180.133 1220.28 203.414 1209.54 216.188C1194.97 226.534 1186.31 217.666 1177.59 206.174C1167.54 192.945 1157.19 179.782 1146.99 166.664C1136.34 186.724 1127.42 208.035 1116.92 228.21L1077.28 228.179C1100.84 177.51 1126.44 127.01 1150.2 76.382C1160.25 54.9596 1172.43 32.0313 1181.66 10.5647ZM1164.14 130.123C1174.21 143.001 1187.54 161.334 1197.92 173.339C1204.2 164.701 1224.38 137.603 1231.34 130.52C1227.54 122.961 1199.37 62.6088 1197.54 61.0744C1186.79 83.0465 1175.34 108.855 1164.14 130.123Z" fill="#EA553B"/>
<path d="M266.485 11.0725L267.339 11.0234C271.356 12.7894 301.893 59.9038 306.987 67.4026L307.024 11.9853L320.723 11.9739L320.759 96.3467C315.863 97.0575 303.225 98.9797 298.827 98.1822C285.338 78.4193 272.029 58.0193 258.207 38.5485L258.207 97.5352L245.136 97.5548C244.42 70.4846 245.032 40.581 245.045 13.2981C251.569 12.3256 259.793 11.7236 266.485 11.0725Z" fill="#292929"/>
<path d="M54.7788 138.68C56.4417 140.394 81.4704 216.671 85.0802 226.579L59.5416 226.623C58.2421 221.732 54.8467 212.739 53.1069 207.661L30.0872 207.662L21.1434 207.669C18.3413 214.151 16.5949 219.901 14.4778 226.616L0 226.573C10.0572 203.724 17.6113 175.785 26.7058 152.245C27.4726 150.261 27.7214 145.303 27.8441 143.02C36.6177 141.857 45.8267 139.974 54.7788 138.68ZM25.5265 194.483L38.0662 194.516L48.8874 194.55C47.2351 189.616 39.2627 164.964 36.9917 162.46C33.2207 172.939 29.0356 183.969 25.5265 194.483Z" fill="#292929"/>
<path d="M543.266 32.9815C561.208 31.4275 577.466 35.949 582.997 55.0812C585.594 64.1275 584.516 73.8323 579.995 82.0877C574.603 91.7965 566.376 96.2706 556.07 99.1996C524.34 104.734 503.333 78.7718 518.456 48.941C523.408 39.1741 533.105 35.4901 543.266 32.9815ZM552.057 86.7744C553.077 85.8371 555.606 83.4642 556.328 82.3797C562.188 73.5877 563.342 47.2332 549.235 45.6881C548.423 45.5998 545.356 45.8664 544.476 45.9523C534.302 56.421 533.133 88.2328 552.057 86.7744Z" fill="#292929"/>
<path d="M430.188 161.446C475.204 158.102 481.093 221.693 434.706 228.478C383.515 231.282 383.144 165.973 430.188 161.446ZM433.026 216.028C438.226 212.759 440.933 209.831 442.041 203.581C443.965 192.731 444.201 174.875 429.397 174.32C425.263 176.403 422.656 178.494 421.554 183.142C418.77 194.881 417.442 214.025 433.026 216.028Z" fill="#292929"/>
<path d="M347.493 138.576C362.177 137.159 373.216 141.915 385.866 148.11L377.655 164.9C361.494 148.064 337.619 144.932 330.469 169.174C321.341 200.127 339.399 226.556 372.076 209.818C374.381 207.877 373.698 207.888 376.322 207.504C379.325 209.186 381.82 214.388 383.671 217.576C376.152 223.425 367.179 227.114 357.719 228.245C288.568 236.42 282.137 145.21 347.493 138.576Z" fill="#292929"/>
<path d="M522.089 163.564L544.699 163.476L544.763 191.004L544.766 226.602H522.142C522.179 223.54 522.187 221.78 521.815 218.686C512.722 226.691 496.628 233.796 487.136 224.389C476.998 214.341 480.434 177.509 480.537 163.551L503.243 163.498C503.111 175.577 502.533 187.29 503.581 199.365C504.892 214.46 520.674 208.522 521.56 200.992C522.89 189.681 522.159 175.28 522.089 163.564Z" fill="#292929"/>
<path d="M703.757 32.9474C748.662 29.5056 739.962 64.3233 739.743 97.5492C735.757 97.4805 720.116 98.4212 717.906 97.0012L717.431 91.4745C711.966 91.3469 699.896 109.871 683.114 94.5057C678.549 89.7249 676.041 79.7543 679.776 73.8841C687.988 60.9779 702.913 59.2603 716.313 55.5346L716.953 54.342C716.155 48.2926 714.243 45.8298 707.685 45.5943C700.001 45.3178 694.953 50.4037 689.727 55.2614C686.822 50.6769 684.343 46.8122 681.892 41.9234C689.2 36.332 694.922 34.8319 703.757 32.9474ZM703.368 83.1594C709.559 83.9168 712.661 81.2577 717.674 77.6097C717.64 75.0586 718.078 69.7175 716.777 68.2109C710.552 69.0959 701.083 71.0417 700.923 78.8374C701.747 80.8553 701.921 81.4884 703.368 83.1594Z" fill="#292929"/>
<path d="M362.324 32.9294C407.425 29.9775 398.482 63.6574 398.212 97.5484C393.499 97.6122 379.881 98.2019 376.342 96.6339C376.22 94.5261 376.104 93.8219 375.601 91.7697C368.017 92.3807 358.807 109.785 341.8 94.6194C322.892 73.8129 355.138 57.7029 371.85 56.4318C373.098 56.3361 374.724 55.7717 375.509 54.7551C375.692 49.1056 372.625 45.9868 367.202 45.7292C358.556 45.3186 354 50.065 348.124 55.2499C345.499 50.564 343.111 46.7042 340.183 42.1974C348.687 36.0784 352.26 35.1223 362.324 32.9294ZM362.883 83.4808C369.163 83.3524 371.299 81.1808 376.183 77.4576C376.129 75.3547 376.301 69.652 375.441 68.2313C369.282 68.9928 359.522 71.1088 359.546 78.8546C360.454 81.3313 360.905 81.6814 362.883 83.4808Z" fill="#292929"/>
<path d="M605.617 161.39C624.724 161.359 627.197 174.228 626.989 189.987C626.83 202.117 626.835 214.46 626.768 226.605L604.691 226.612C604.769 215.468 605.652 199.769 603.538 189.002C601.268 177.444 591.365 179.347 585.837 188.985L585.773 226.609L563.085 226.614L563.037 165.531C570.651 164.288 578.233 162.853 585.774 161.229C585.704 163.722 585.221 167.454 586.521 169.381C590.227 169.596 593.786 162.959 605.617 161.39Z" fill="#292929"/>
<path d="M622.154 42.9107C629.132 36.7762 634.942 32.5663 644.555 32.5533C665.265 32.5254 663.518 51.7386 663.338 66.369C663.209 76.7567 663.195 87.2 663.112 97.5387L641.074 97.5567C640.879 86.423 641.011 74.783 640.986 63.6117C641.41 48.8824 630.466 50.8798 622.287 59.1303C621.65 69.6113 622.119 86.6463 622.111 97.5411L599.704 97.5559C599.497 77.1845 599.669 56.6045 599.695 36.2168C607.17 35.425 613.362 34.3372 620.754 32.9892L621.455 33.0195C622.674 34.9498 622.194 40.3293 622.154 42.9107Z" fill="#292929"/>
<path d="M239.132 161.425C251.57 161.286 257.535 162.153 269.085 166.559C267.077 173.481 266.124 175.512 263.084 182.025C261.812 181.001 260.51 180.011 259.183 179.059C253.409 174.955 240.538 169.273 235.533 176.812L235.969 178.592C247.608 191.213 283.722 185.609 266.525 220.434C257.975 226.094 254.178 227.671 244.007 228.525C231.188 228.954 225.247 227.68 213.686 222.68C215.382 217.804 218.262 211.404 220.288 206.517C228.496 215.811 238.663 220.034 250.231 213.325L250.559 211.346C243.448 203.164 215.911 203.043 214.145 185.393C212.439 168.353 224.949 163.216 239.132 161.425Z" fill="#292929"/>
<path d="M183.195 142.617C184.559 142.226 184.621 142.284 186.018 142.729C187.38 146.473 186.773 158.793 186.678 163.502L205.594 163.472L205.643 176.648L186.651 176.707C186.751 183.604 186.487 190.988 186.333 197.884C186.038 211.044 188.369 217.59 201.835 210.12C203.474 213.785 205.052 217.6 206.637 221.3L198.46 226.25C183.948 231.833 166.704 229.566 164.56 211.864C163.223 200.833 163.926 187.824 164.039 176.666L154.636 176.626L154.635 163.565L164.011 163.509L164.027 145.9C169.889 145.125 177.255 143.644 183.195 142.617Z" fill="#292929"/>
<path d="M441.835 13.623C442.407 15.9092 442.179 31.5709 442.172 34.9678L461.22 35.016L461.202 47.5566L442.13 47.6662C442.259 57.3308 439.979 76.306 444.808 83.4637C450.114 86.7804 453.071 83.9602 457.228 80.3163L462.252 92.0397C459.671 93.9504 456.174 95.9936 453.396 97.7227C413.523 111.87 419.452 71.7632 419.669 47.7087L410.668 47.541L410.654 35.0397L419.642 34.9498L419.68 16.6829C427.467 15.2622 433.905 13.933 441.835 13.623Z" fill="#292929"/>
<path d="M674.128 161.453C686.994 161.26 691.036 163.124 702.208 168.919C699.264 173.239 695.911 179.403 693.222 184.028C691.976 182.023 690.448 180.207 688.683 178.638C669.215 161.009 655.355 200.235 671.247 212.605C681.261 220.401 690.848 208.66 695.3 212.094C696.201 214.432 698.233 218.444 699.37 220.85C685.76 229.723 664.129 233.034 652.243 221.526C628.814 198.842 642.342 164.436 674.128 161.453Z" fill="#292929"/>
<path d="M780.481 2.06152C780.882 4.00411 780.801 25.802 780.801 28.8308L780.719 97.546L758.05 97.5591C757.567 67.3087 757.985 35.8944 757.968 5.55001C765.293 4.08428 773.059 3.1142 780.481 2.06152Z" fill="#292929"/>
<path d="M777.986 131.122L779.402 131.083C780.613 132.866 780.114 216.899 780.114 226.6L760.064 226.601C759.303 226.668 758.591 226.358 757.854 226.121C757.224 217.738 757.641 203.33 757.641 194.484L757.65 134.542C762.56 134.135 772.797 132.046 777.986 131.122Z" fill="#292929"/>
<path d="M134.577 161.32C137.421 161.486 142.427 161.315 144.014 163.59C146.871 167.683 142.78 179.498 141.676 184.201C132.917 175.749 125.091 179.519 121.892 190.364C118.542 201.712 119.537 214.765 119.635 226.598L102.101 226.599C99.9744 226.717 99.6626 226.677 97.5905 226.165C95.8597 220.115 97.0643 174.823 97.0897 165.549C104.637 164.364 112.149 162.967 119.617 161.359L119.698 171.986C124.431 165.643 126.655 162.975 134.577 161.32Z" fill="#292929"/>
<path d="M496.292 32.9678C496.848 32.9841 496.93 33.1862 497.547 33.5657C498.262 53.8536 497.707 77.0003 497.65 97.5418L476.22 97.541C474.037 94.4934 475.017 44.0565 475.039 36.2886C482.441 35.4028 488.958 34.2871 496.292 32.9678Z" fill="#292929"/>
<path d="M735.336 162.235C736.931 161.803 737.181 161.87 738.814 162.177C739.523 165.835 739.267 179.431 739.256 183.84L739.112 226.6H720.782C719.234 226.711 718.559 226.514 717.084 226.209C715.451 220.783 716.625 174.208 716.658 165.518L735.336 162.235Z" fill="#292929"/>
<path d="M496.679 296.488C501.996 296.395 509.576 295.817 514.658 296.436C536.442 299.09 531.256 320.407 518.547 330.233C513.514 331.912 493.582 333.992 489.98 330.82C489.887 328.997 491.712 326.613 493.06 325.449C497.165 321.9 498.659 308.292 498.387 303.187C495.19 300.282 495.571 300.293 496.679 296.488ZM514.438 324.342C523.795 314.691 523.366 302.813 507.957 301.639C506.946 307.982 503.29 320.353 505.261 324.948C508.915 327.355 510.701 326.027 514.438 324.342Z" fill="#292929"/>
<path d="M1274.71 295.407C1289.44 294.676 1296.02 307.133 1279.47 312.879C1281.42 314.973 1284.63 319.194 1286.87 319.604C1289.75 316.68 1286.77 311.209 1291.36 307.673C1294.75 307.215 1298.24 310.124 1298.71 313.634C1296.89 318.297 1292.42 320.067 1288.18 322.059L1293.15 328.61L1293.83 329.716C1292.74 331.723 1288.62 332.745 1286.24 333.603L1281.21 326.575C1275.62 333.571 1264.87 335.829 1260.38 327.341C1259.13 325.001 1258.94 322.249 1259.84 319.758C1261.16 315.97 1263.11 315.389 1266.67 313.662C1267.95 310.256 1262.55 306.828 1264.36 301.39C1266.91 297.504 1270.46 296.44 1274.71 295.407ZM1277.87 325.957L1278.65 323.881C1277.23 320.846 1272.99 316.581 1270.11 315.282C1268.39 318.056 1267.73 318.816 1267.72 322.021C1270.03 326.439 1273.21 326.127 1277.87 325.957ZM1278.57 310.331C1279.8 308.132 1281.11 306.345 1280.79 303.845C1278.77 301.031 1277.07 300.907 1273.65 300.693C1272.07 305.557 1271.54 308.599 1277.05 310.625L1278.57 310.331Z" fill="#292929"/>
<path d="M141.488 304.449C145.759 304.127 155.705 305.545 159.884 306.725L160.356 308.398C160.007 310.173 159.95 311.533 158.496 312.63L155.705 311.684C154.698 313.295 154.744 312.849 154.872 314.993C155.556 326.516 142.177 322.495 138.819 325.866L139.373 327.522C145.331 332.32 159.703 324.761 154.521 341.949C146.532 346.25 131.868 348.918 125.214 341.29C123.459 335.141 127.329 334.088 132.003 332.215C132.459 329.84 132.085 330.195 130.756 327.525C131.807 323.825 133.105 326.619 135.209 322.459C129.966 312.974 130.26 308.474 141.488 304.449ZM146.426 341.432L147.984 339.414C147.219 334.837 139.888 334.348 135.656 333.439C133.566 335.99 133.495 335.347 133.001 338.235C135.68 342.263 141.88 341.589 146.426 341.432ZM145.634 320.29C146.857 317.62 148.662 314.619 148.172 311.838C145.901 309.446 144.887 309.717 141.446 308.671C139.96 312.931 136.846 318.578 141.903 320.927L145.634 320.29Z" fill="#292929"/>
<path d="M576.123 315.673C578.485 312.474 584.585 303.607 589.346 304.912C606.653 309.654 586.377 344.857 573.791 328.473C570.874 336.414 576.105 339.52 573.649 343.606C570.225 345.103 562.697 344.937 559.061 344.149L558.344 342.339C559.045 339.309 560.485 339.096 563.576 337.15C564.821 333.777 570.193 314.509 568.554 312.454C566.42 312.99 565.689 313.179 563.489 313.287C563.547 309.572 567.633 306.613 570.275 304.291C572.878 304.254 575.574 304.224 577.479 306.131C578.538 308.862 576.973 312.685 576.123 315.673ZM580.019 328.421C585.967 326.725 588.158 317.354 587.142 311.933C586.292 310.956 585.876 310.321 584.723 309.743C579.55 315.492 571.155 322.263 580.019 328.421Z" fill="#292929"/>
<path d="M1147.78 295.698L1149.03 296.045C1149.89 303.312 1151.49 318.547 1153.23 324.989C1157.26 326.814 1156.72 326.885 1156.19 330.88C1153.48 332.807 1143.66 332.171 1139.85 331.976L1138.97 330.929C1140.2 325.762 1143.56 326.577 1144.09 322.586C1140.85 319.91 1133.77 320.712 1130.32 322.984C1130.82 325.485 1135.13 327.199 1133.42 331.501C1129.67 332.537 1122.85 331.967 1118.72 331.812C1117.98 330.238 1118.1 330.964 1119.05 329.58C1125.61 320.023 1133.54 308.19 1137.12 297.213C1140.46 296.445 1144.36 296.102 1147.78 295.698ZM1136.2 315.757C1139.61 315.619 1139.88 316.199 1142.08 314.24C1143.4 310.927 1142.24 306.1 1141.69 302.409C1140 305.634 1135.68 312.665 1136.2 315.757Z" fill="#292929"/>
<path d="M117.934 295.715C121.762 297.312 119.955 319.905 123.186 324.621C123.875 325.627 125.449 326.795 126.358 327.669C126.692 330.086 126.718 329.232 125.534 331.602C122.414 332.351 112.361 332.694 109.57 331.078C109.198 327.105 114.011 326.197 113.467 322.027C110.087 319.891 103.668 320.74 100.535 323.314L100.76 324.451C103.646 327.522 103.781 327.926 102.893 331.816C99.1396 332.247 92.6361 333.128 89.3643 331.106C88.5411 328.322 94.6992 321.415 96.6919 318.056C100.758 311.201 103.984 304.418 107.401 297.202C110.66 296.359 114.551 296.076 117.934 295.715ZM106.666 315.762L111.079 315.528C114.191 311.866 112.278 307.078 111.776 302.437C110.333 305.165 106.11 312.441 105.952 315.022L106.666 315.762Z" fill="#292929"/>
<path d="M614.253 304.253C621.703 305.55 618.737 308.058 623.679 308.849C625.926 305.748 626.892 303.476 630.914 303.364C631.393 303.698 631.923 304.067 632.504 304.473C631.91 309.395 626.119 320.014 627.395 324.587C629.738 324.006 630.992 323.268 633.012 323.957C633.38 330.799 626.008 332.668 620.515 332.504L619.014 331.541C618.263 328.641 619.205 324.726 619.703 321.664C617.448 325.041 614.251 330.393 610.357 331.6C599.551 334.953 598.707 320.688 602.606 313.998C605.733 308.635 608.189 306.153 614.253 304.253ZM614.22 324.243C617.356 320.389 622.59 315.749 618.606 311.368C616.127 310.688 615.412 310.482 612.861 310.434C610.824 314.204 607.273 322.426 610.195 326.344L611.433 326.768C612.664 325.933 613.498 325.539 614.22 324.243Z" fill="#292929"/>
<path d="M14.2811 304.338C21.387 305.656 18.8378 306.052 23.063 309.473C25.2717 305.966 26.077 303.178 30.474 303.374C30.9896 303.778 31.5903 304.248 32.276 304.786C31.8955 310.651 25.6457 318.512 27.0688 324.536C29.0894 324.163 30.7277 323.925 32.7703 323.696L33.2 324.574C31.853 328.062 30.3946 329.127 27.699 331.663C25.0303 332.856 22.5998 332.475 19.6946 332.313C19.0505 331.981 18.7248 331.446 18.2265 330.861C18.1659 327.71 19.711 322.637 20.5498 319.413C16.7649 325.662 12.3924 334.966 3.66211 331.275C-4.39677 322.927 3.28059 307.614 14.2811 304.338ZM13.8589 325.133C16.0341 321.908 20.0686 316.961 20.1676 313.394C18.1389 310.413 16.6306 310.57 13.0495 310.394C10.3335 315.516 9.09062 318.453 8.65206 324.3L9.43031 326.252C11.3225 326.766 12.2532 326.521 13.8589 325.133Z" fill="#292929"/>
<path d="M991.774 308.717C993.738 306.474 994.344 305.481 997.175 304.772C1019.36 306.454 993.574 347.907 983.41 328.405C978.574 336.981 985.399 338.339 984.147 343.601C981.152 345.797 972.747 345.179 968.786 345.099L968.246 344.474C970.038 340.156 972.772 336.333 974.261 333.292C975.759 330.24 979.376 316.16 979.286 313.056C975.89 312.245 975.857 314.612 973.164 312.909C974.498 307.405 982.739 301.216 987.846 307.303C988.124 310.174 986.79 313.499 985.898 316.322L986.086 317.717L988.509 317.624C986.078 321.074 984.073 323.839 987.404 327.381C996.414 327.982 1000.21 316.684 995.031 309.452C994.106 309.403 992.715 308.966 991.774 308.717Z" fill="#292929"/>
<path d="M422.745 292.9L423.903 292.858C425.524 296.325 419.651 313.709 418.126 318.162C422.179 311.022 428.592 298.278 438.02 307.495C440.225 311.746 435.949 318.142 434.645 323.937C436.748 325.753 437.264 322.928 440.81 324.188C440.442 327.319 436.596 330.484 434.134 332.123C429.93 332.766 426.204 333.003 425.487 328.149C427.178 323.111 430.726 317.408 428.263 312.412C421.541 311.499 417.815 327.582 416.639 332.131L407.389 332.047C410.095 324.228 412.603 313.085 414.113 304.787C414.661 301.778 412.909 301.437 410.503 298.666L410.773 296.953C412.328 295.416 420.153 293.614 422.745 292.9Z" fill="#292929"/>
<path d="M955.536 295.481C959.726 295.638 976.551 297.174 970.127 307.548C966.51 313.392 959.775 300.214 954.423 300.681C953.858 301.318 951.87 303.857 952.41 304.437C960.511 313.049 979.563 323.379 955.773 330.593C950.036 330.691 943.138 330.765 938.661 326.653C936.951 322.854 937.442 319.994 941.313 317.969C947.262 318.57 949.545 327.253 956.223 324.498C956.657 323.826 957.14 323.063 957.688 322.208C953.613 316.439 944.684 312.833 942.966 305.363C941.534 299.159 951.067 296.39 955.536 295.481Z" fill="#292929"/>
<path d="M1332.53 296.116C1342.37 295.616 1347.06 298.6 1355.79 296.014L1353.05 308.07C1349.81 308.758 1349.15 308.783 1345.87 308.29C1345.43 306.566 1345.33 305.528 1345.14 303.778C1333.21 293.91 1323.96 316.723 1330.43 324.137C1332.72 326.747 1337.87 326.486 1341.2 326.437C1342.85 323.193 1344.44 319.203 1348.58 319.297C1351.69 323.175 1349.4 327.669 1348.05 332.003C1341.86 331.991 1333.82 333.414 1327.95 331.512C1315.9 327.601 1318.31 311.974 1323.36 303.421C1325.91 299.116 1328.22 298.187 1332.53 296.116Z" fill="#292929"/>
<path d="M866.482 304.351C888.79 304.576 885.721 324.545 871.335 332.251C868.757 332.596 864.207 332.699 861.727 331.894C858.871 330.975 856.506 328.952 855.164 326.278C850.843 317.604 858.65 307.798 866.482 304.351ZM868.56 328.777C873.225 321.874 878.299 312.428 867.75 308.599C863.086 315.476 857.635 324.963 868.56 328.777Z" fill="#292929"/>
<path d="M1020.65 305.172C1042.92 303.093 1042.31 323.759 1027.63 332.36C1005.95 336.881 1004.48 315.021 1020.65 305.172ZM1024.2 329.571C1027.6 322.514 1034.77 312.308 1023.55 309.236C1017.88 316.686 1013.97 324.466 1024.2 329.571Z" fill="#292929"/>
<path d="M323.33 304.435C346 304.208 341.675 326.377 327.799 332.568C318.286 332.468 308.516 330.933 311.57 317.174C312.896 311.199 318.036 307.253 323.33 304.435ZM325.515 328.385C330.23 320.977 335.958 312.385 324.343 308.673C322.137 312.997 314.343 329.269 325.515 328.385Z" fill="#292929"/>
<path d="M199.563 304.115C202.352 304.403 203.067 304.607 205.729 305.533C207.815 308.425 204.664 310.102 205.647 313.35C209.125 308.107 214.371 303.629 221.035 304.974C228.598 310.55 219.624 319.027 220.639 324.788C222.959 324.128 223.489 323.942 225.903 323.945L225.815 325.57C222.872 330.516 217.596 334.731 212.032 331.067C210.867 328.009 211.146 329.057 212.048 325.362C213.446 320.997 215.489 316.743 213.6 312.606L212.064 312.249C205.688 316.092 203.314 325.51 201.67 332.123L192.363 332.066C194.11 326.928 197.061 319.064 197.842 313.932C196.739 310.79 195.072 314.538 191.59 312.84C192.177 309.631 196.96 305.883 199.563 304.115Z" fill="#292929"/>
<path d="M49.3526 315.761C53.0639 310.678 57.4764 303.757 64.6608 304.07C71.3542 307.933 67.7837 317.14 65.8802 323.123C67.3074 323.879 68.7199 324.661 70.1185 325.468L70.5211 327.143C67.5848 332.181 60.4659 334.893 56.2096 329.819L56.4723 327.353C58.0689 322.969 61.4872 316.299 58.0526 312.557C50.7127 314.021 48.3403 325.871 47.7732 332.108L37.5682 332.066C38.8203 328.32 43.7018 315.345 42.8123 312.297C40.8392 312.878 39.3449 313.468 37.2924 313.286L37.1836 311.644C38.9275 308.396 41.3089 306.635 44.0717 304.216C47.2969 304.295 49.0236 304.446 51.1587 306.555C51.8936 309.299 50.2839 312.921 49.3526 315.761Z" fill="#292929"/>
<path d="M1365.1 304.031C1367.45 304.58 1369.44 304.81 1371.14 306.522C1374.32 313.241 1365.71 319.883 1369 325.038C1370.05 325.238 1371.54 325.745 1372.25 325.259C1377.33 321.808 1379.95 310.454 1381.52 305.057L1390.67 305.01C1389.65 308.101 1385.52 321.861 1385.64 324.513L1391.09 323.711L1390.98 325.87C1386.91 331.98 1385.4 333.467 1377.74 332.093C1376.38 330.225 1377.12 328.323 1377.38 325.516L1376.56 324.971C1371.52 329.868 1368.24 337.756 1360.12 329.985C1357.52 324.953 1361.89 319.384 1363.41 312.851C1361.24 311.289 1360.62 313.978 1357.24 312.764C1358.08 309.025 1362.04 306.331 1365.1 304.031Z" fill="#292929"/>
<path d="M786.316 316.494C791.128 309.707 794.803 301.91 803.985 305.488C810.147 311.855 801.947 320.767 803.24 324.732C805.36 324.03 805.851 323.917 808.068 323.727C809.68 328.473 801.538 334.198 795.523 331.824C793.444 329.533 793.886 330.648 793.968 327.345C795.245 322.149 798.453 316.68 795.948 311.567L794.614 311.474C788.616 315.898 785.973 325.352 784.27 332.127L774.949 332.001C776.349 327.936 780.841 316.26 780.26 312.743C778.378 312.846 776.488 312.974 774.614 313.127L774.131 312.049C776.169 308.726 778.599 306.814 781.488 304.229C782.184 304.246 782.879 304.281 783.575 304.335C786.447 304.58 787.143 304.935 788.739 306.835C789.271 309.753 787.413 313.572 786.316 316.494Z" fill="#292929"/>
<path d="M358.013 292.986C359.182 292.873 360.353 292.772 361.525 292.684C365.689 292.367 367 292.199 370.048 294.816C370.797 297.029 371.292 297.913 370.511 300.104C365.647 301.734 363.903 297.822 358.488 299.805C357.091 301.85 357.551 303.428 357.829 305.947C359.691 307.043 362.929 306.58 365.457 306.57C367.131 307.819 366.658 307.091 367.057 309.47C364.822 312.98 360.068 312.23 356.446 312.034C355.594 322.035 352.665 332.808 348.085 341.721C344.596 344.666 337.634 346.662 334.065 343.007C333.484 339.907 332.96 337.938 335.869 336.276C340.263 336.831 339.193 336.96 343.089 339.702C344.813 337.502 348.876 314.899 348.251 312.537L345.011 311.433L344.593 310.064C348.394 305.372 354.676 295.75 358.013 292.986Z" fill="#292929"/>
<path d="M1445.97 304.032C1448.74 304.514 1450.87 304.603 1452.87 306.593C1456.18 314.025 1446.95 319.358 1450.58 324.865C1452.19 325.335 1453.12 326.077 1454.4 324.676C1459.32 319.32 1461.22 311.845 1463.1 305.092L1472.61 305.078C1470.93 309.26 1466.63 320.211 1466.8 324.448L1473.8 323.513C1471.18 328.496 1468.7 332.397 1462.47 332.725C1459.7 331.54 1460.62 332.247 1458.84 329.689C1458.16 326.814 1459.74 323.407 1460.75 320.501C1457.06 326.41 1452.18 334.629 1443.68 332.296C1436.41 326.181 1445.84 318.313 1443.87 312.47C1442.21 312.838 1440.89 313.031 1439.22 313.262L1438.82 312.079C1440.42 308.845 1443.31 306.52 1445.97 304.032Z" fill="#292929"/>
<path d="M901.517 292.969C906.82 292.458 912.434 291.777 915.257 297.638L914.324 299.764C906.828 303.2 907.131 297.63 903.023 298.526C901.82 300.932 901.705 301.274 901.452 303.949C903.047 306.846 906.681 306.719 909.971 309.348L909.079 310.968C906.665 312.847 903.244 312.179 900.069 311.997C897.982 321.155 895.486 336.057 889.962 343.158C884.79 344.972 879.839 346.705 876.328 341.507C876.042 338.414 875.722 339.471 877.326 337.125C882.04 335.082 882.408 337.161 885.674 339.862C887.818 338.212 892.523 315.238 891.443 312.398L887.58 311.282L886.942 309.978C888.882 305.983 892.114 307.688 893.743 303.319C895.666 298.139 897.131 296.113 901.517 292.969Z" fill="#292929"/>
<path d="M718.727 317.063C722.108 312.037 728.945 301.886 736.491 305.092C742.149 312.59 733.907 320.766 734.981 324.573C736.826 324.401 738.012 324.112 739.804 323.701L740.536 324.697C739.142 329.647 734.903 332.596 729.922 333.245C721.59 330.527 732.066 314.615 728.04 311.574C721.412 313.686 718.437 326.021 717.772 332.111L707.71 332.085C709.523 326.656 715.644 314.598 711.144 310.416L707.029 310.458C710.234 306.094 712.594 303.208 718.418 304.921C722.905 308.97 720.773 312.311 718.727 317.063Z" fill="#292929"/>
<path d="M266.33 304.157C268.893 304.607 270.646 304.704 272.652 306.399C275.957 311.13 273.656 321.045 273.75 328.21C277.857 320.389 281.225 312.401 285.536 304.277C287.481 305.158 290.375 306.85 292.336 307.914C287.898 315.591 281.149 324.383 276.075 332.587C273.099 338.237 267.142 346.644 259.774 346.003C256.874 343.882 255.684 339.675 257.561 336.536C259.993 336.109 262.28 337.428 264.888 338.371C267.71 337.905 266.751 338.457 268.592 336.027L268.375 336.505C265.468 327.928 265.975 320.889 266.004 311.916C263.167 312.785 259.992 313.388 257.072 314.013C260.508 309.872 262.361 307.751 266.33 304.157Z" fill="#292929"/>
<path d="M722.732 129.832C729.046 127.328 736.227 130.089 739.234 136.177C740.891 139.529 741.026 143.429 739.608 146.888C738.191 150.347 735.355 153.031 731.822 154.258C725.123 156.585 717.792 153.134 715.319 146.491C712.847 139.847 716.14 132.447 722.732 129.832Z" fill="#292929"/>
<path d="M482.989 0.431076C489.726 -1.34302 496.663 2.51271 498.711 9.16903C500.758 15.8254 497.186 22.9103 490.615 25.2258C486.121 26.8094 481.118 25.8057 477.583 22.6101C474.049 19.4136 472.55 14.5396 473.678 9.91172C474.806 5.28305 478.38 1.64407 482.989 0.431076Z" fill="#292929"/>
<path d="M546.408 304.398C548.656 304.357 553.585 304.384 555.441 305.363C572.294 314.255 544.314 318.955 542.154 323.554C543.008 326.201 542.419 325.307 544.64 327.103C548.551 327.219 551.951 323.568 556.569 322.412C547.516 348.628 515.736 318.961 546.408 304.398ZM545.575 317.427C547.975 316.07 550.938 314.819 552.078 312.421C551.037 310.323 549.145 309.896 546.761 309.605C544.817 312.538 543.642 314.025 542.723 317.494L543.376 318.49L545.575 317.427Z" fill="#292929"/>
<path d="M457.186 304.42C461.778 304.119 466.348 305.13 470.642 306.705C477.579 314.009 453.091 319.75 453.656 326.037L455.611 326.939C458.996 326.903 463.608 324 466.79 322.305C469.691 332.103 450.151 336.991 444.863 325.626C440.35 315.927 449.943 308.321 457.186 304.42ZM457.92 316.718C459.884 315.461 462.575 314.17 463.16 312.049C461.965 310.504 459.666 309.912 457.626 309.518C456.103 312.043 454.543 314.329 453.767 317.183L454.372 318.413C455.955 317.824 456.458 317.652 457.92 316.718Z" fill="#292929"/>
<path d="M757.755 304.445C763.409 304.13 770.423 304.37 771.789 310.924C769.531 317.742 756.38 319.295 753.09 324.127C753.712 326.253 753.63 325.645 756.167 327.064C758.835 327.073 764.498 323.516 767.919 322.065C767.804 322.48 767.673 322.89 767.518 323.292C765.079 329.906 759.514 334.756 752.206 331.836C749.276 330.671 746.944 328.381 745.722 325.48C741.764 316.08 749.465 307.662 757.755 304.445ZM755.545 318.256C757.935 316.862 761.863 315.044 762.935 312.715C762.01 310.371 760.84 310.25 758.385 309.289C755.807 312.843 755.103 313.888 753.434 317.929L753.687 319.198L755.545 318.256Z" fill="#292929"/>
<path d="M1519.62 304.464C1525.11 304.265 1531.27 304.222 1533.48 310.333C1531.34 319.142 1517 319.194 1514.62 323.514C1515.34 325.717 1514.99 325.012 1517.16 326.522C1521.58 326.995 1525.3 324.19 1529.91 321.976C1529.81 322.334 1529.7 322.691 1529.58 323.045C1527.38 329.812 1521.46 334.688 1514.21 331.883C1511.28 330.753 1508.93 328.488 1507.68 325.6C1503.43 315.772 1511.29 308.019 1519.62 304.464ZM1518.63 317.425C1520.87 316.063 1524.17 314.546 1524.91 312.222C1523.46 310.187 1522.68 310.435 1519.96 309.445C1518.2 312.353 1516.4 314.906 1515.71 318.233L1516.46 318.843L1518.63 317.425Z" fill="#292929"/>
<path d="M175.003 304.475C180.066 304.11 187.673 304.621 189.386 310.407C187.686 317.726 175.98 318.691 170.371 322.819L170.349 324.39C171.638 326.258 171.814 326.537 173.946 327.327C176.486 326.683 182.344 323.345 185.311 321.957C184.721 325.871 181.241 329.047 178.584 331.856C155.595 335.911 158.622 311.225 175.003 304.475ZM174.511 317.379C176.749 316.024 179.477 314.791 180.414 312.439C179.449 310.35 177.71 309.859 175.368 309.542C173.847 312.038 171.399 315.398 171.215 318.169C172.932 318.658 172.462 318.474 174.511 317.379Z" fill="#292929"/>
<path d="M1224.94 304.449C1230.55 304.173 1238.48 305.291 1241.08 311.067C1237.76 319.855 1230.46 309.379 1225 308.963C1222.57 314.288 1250.78 328.623 1227.67 332.479C1222.49 332.613 1214.78 333.504 1212.47 327.842C1212.4 326.037 1212.22 325.211 1213.27 323.69C1217.8 323.809 1225.9 328.823 1228.7 326.813C1225.28 319.363 1205.6 312.852 1224.94 304.449Z" fill="#292929"/>
<path d="M244 304.447C250.217 304.084 255.817 304.351 257.434 311.275C256.736 314.164 257.337 313.196 255.001 315.097C247.697 316.105 251.527 312.287 247.041 309.549C240.517 309.648 239.146 317.939 238.318 323.474C239.59 326.286 238.833 325.373 241.426 327.117C244.006 327.377 246.841 325.225 249.184 323.828C250.497 323.179 250.757 323.172 252.22 323.029C253.012 330.577 242.521 332.479 237.029 332.781C224.177 323.097 231.071 309.145 244 304.447Z" fill="#292929"/>
<path d="M647.944 321.227C650.768 315.421 655.754 302.132 664.073 305.609C666.377 309.37 666.14 311.822 662.367 314.275C659.887 314.192 658.467 313.744 656.065 313.12L654.424 314.809C652.093 319.111 650.761 322.475 649.091 327.062C646.916 333.035 643.383 332.294 638.074 332.081C639.356 327.878 643.361 316.244 642.762 312.622C640.994 312.59 639.281 312.846 637.525 313.056L637.193 312.211C639.589 308.601 640.721 307.391 643.761 304.288C647.461 304.35 649.265 303.88 651.468 306.917C651.922 309.739 648.911 317.529 647.944 321.227Z" fill="#292929"/>
<path d="M1050.99 304.469C1053.22 304.789 1053.85 304.891 1055.97 305.685C1058.43 310.016 1055.19 315.326 1053.61 321.421C1055.85 316.916 1062.9 301.84 1069.06 304.055C1071.04 306.509 1071.08 311.748 1069.12 314.345C1066.79 314.346 1064.48 314.301 1062.16 314.21C1059.43 315.654 1059.68 316.388 1058.09 319.426C1054.95 324.375 1055.25 327.179 1052.34 330.92C1050.15 332.747 1046.66 332.227 1043.67 332.174C1045.28 327.305 1048.78 317.486 1048.74 312.698C1046.97 313.137 1045.2 313.54 1043.42 313.907L1042.72 312.873C1043.61 309.859 1048.02 305.493 1050.99 304.469Z" fill="#292929"/>
<path d="M1170.75 322.31C1174.29 315.624 1178.2 303.917 1186.57 304.721C1190.27 307.512 1190.55 309.742 1187.92 313.596C1184.64 314.725 1183.8 314.004 1180.09 313.369L1178.88 314.431C1174.24 321.693 1172.77 323.752 1170.76 332.136L1161.48 332.08C1163.17 327.076 1166.42 318.513 1166.92 313.561C1165.53 311.243 1163.69 314.388 1160.67 312.872C1161.2 309.539 1165.85 305.987 1168.51 304.128C1171.66 304.33 1173.05 304.372 1174.85 306.926C1175.35 311.04 1172.28 317.936 1170.75 322.31Z" fill="#292929"/>
<path d="M1410.49 292.898C1410.81 292.893 1411.62 293.21 1411.98 293.332C1411.06 300.443 1404.71 320.52 1405.05 324.535C1406.81 324.141 1408.78 323.497 1410.48 323.974C1411.04 328.16 1406.22 331.434 1402.93 332.867C1399.13 332.042 1398.6 332.123 1396.41 329.612C1394.53 321.46 1400.53 314.058 1401.94 306.074C1402.52 302.816 1400.38 301.454 1398.3 298.745L1398.69 296.986C1400.63 295.24 1407.59 293.692 1410.49 292.898Z" fill="#292929"/>
<path d="M1487.28 320.588C1489.97 315.729 1495.94 303.797 1502.03 303.626C1505.41 306.063 1506.26 310.146 1503.81 313.62C1498.62 315.699 1497.45 310.459 1493.73 316.178C1489.17 322.785 1488.44 324.24 1486.64 332.124L1477.35 332.061C1478.48 328.664 1483.62 315.206 1482.21 312.61C1479.88 313.012 1478.84 313.174 1476.48 313.179L1476.55 311.741C1479.12 308.034 1480.28 307.117 1483.73 304.196C1486.82 304.326 1488.71 304.311 1490.57 306.89C1491.1 310.207 1488.4 316.769 1487.28 320.588Z" fill="#292929"/>
<path d="M1201.57 298.277C1202.94 298.357 1204.11 298.562 1205.46 298.775L1206.34 300.135C1205.93 302.252 1205.61 303.231 1204.9 305.269C1206.3 307.105 1208.57 306.159 1212.34 306.81C1212.85 309.127 1212.63 308.585 1211.82 311.119C1208.99 312.846 1207.08 312.173 1203.3 312.145C1202.35 316.177 1201.62 321.165 1200.9 325.315C1203.42 324.461 1205.46 323.55 1208.12 323.858C1208.47 326.129 1207.86 326.028 1206.16 328.557C1203.46 331.241 1200.91 332.824 1197.12 333.344C1190.77 330.807 1194.32 318.718 1195.19 313.073C1193.66 312.344 1192.54 311.967 1190.96 311.428L1190.71 310.001C1191.8 307.914 1195.25 306.984 1197.59 306.046L1201.57 298.277Z" fill="#292929"/>
<path d="M1084.71 298.765C1086.28 298.819 1087.53 299.003 1089.07 299.217C1090.73 302.38 1088.94 302.24 1089.1 306.547C1090.9 306.779 1092.57 306.929 1094.37 307.079L1095.51 308.502C1095.45 310.929 1095.82 310.744 1094.67 312.484C1092.33 312.648 1089.98 312.729 1087.64 312.727C1086.23 314.157 1084.49 323.282 1083.89 325.888C1086.43 325.031 1088.9 323.917 1091.52 324.362C1092.03 326.557 1091.74 326.058 1090.16 328.606C1086.91 331.76 1082.12 335.31 1078.15 331.854C1075.46 326.442 1078.96 319.006 1078.76 313.179C1077.02 312.704 1076.53 312.549 1074.86 311.72C1074.89 311.253 1074.91 310.721 1074.94 310.12C1080.11 305.936 1081.91 304.673 1084.71 298.765Z" fill="#292929"/>
<path d="M677.514 298.388C679.722 298.341 680.424 298.228 682.524 298.991C683.805 302.423 681.671 300.731 681.423 305.475C683.049 307.059 685.165 306.44 688.319 306.8C688.981 308.233 688.315 309.832 687.911 311.49C686.146 312.794 682.408 312.126 680.016 311.96L676.685 325.402C679.515 324.542 680.943 324.156 683.865 323.74L684.918 324.689L684.145 326.937C679.612 331.51 677.624 333.931 670.998 331.432C665.75 325.848 672.97 319.228 671.736 312.759L667.734 311.485C667.639 311.012 667.545 310.539 667.451 310.066C673.278 304.992 674.19 305.562 677.514 298.388Z" fill="#292929"/>
<path d="M395.174 298.18C397.207 298.267 397.799 298.197 399.633 299.135C399.814 301.285 399.486 303.376 399.237 305.519C401.574 307.892 403.417 305.207 406.055 307.214C405.957 309.159 406.095 310.179 404.785 311.67C395.5 311.559 395.779 317.74 394.262 325.386C396.443 324.762 399.787 323.435 401.744 324.178C401.718 326.539 400.853 326.988 399.325 329.245C396.756 331.733 392.731 333.824 389.175 333.076C384.41 329.064 389.275 317.825 388.62 312.788C388.548 312.235 385.822 312.879 384.58 310.418C385.913 307.992 388.174 307.429 390.962 305.955L395.174 298.18Z" fill="#292929"/>
<path d="M1425.39 298.328C1427.59 298.356 1428.25 298.492 1430.39 298.954C1431.92 301.348 1429.93 300.445 1429.33 305.115C1431.65 308.268 1433.44 305.064 1436.66 307.447C1436.96 309.218 1436.25 310.115 1435.38 311.668C1433.87 312.572 1429.86 312.065 1427.84 311.968L1424.6 325.433C1427.42 324.515 1428.54 324.154 1431.47 323.799L1432.38 324.708L1431.44 327.837C1428.38 330.775 1425.22 332.297 1421.19 333.578C1414.24 332.263 1418.65 318.652 1419.73 313.319C1418.55 312.071 1417.16 311.881 1415.46 311.39L1414.98 309.995C1416.33 307.902 1418.56 307.43 1421.13 306.253L1425.39 298.328Z" fill="#292929"/>
<path d="M823.567 298.296C825.449 298.339 825.826 298.345 827.7 298.908C829.05 301.384 828.15 302.023 827.266 305.404C829.459 307.802 830.016 305.348 834.525 306.921C834.82 308.64 834.312 309.482 833.69 311.126C830.99 312.745 829.328 312.128 825.826 312.07L822.544 325.476C825.384 324.554 826.587 324.132 829.533 323.813L830.319 324.966L829.05 327.936C827.446 329.552 825.58 331.541 823.363 332.143C821.022 332.766 818.526 332.455 816.415 331.275C812.806 326.033 817.659 320.502 817.479 314.553C817.43 312.712 815.531 312.401 813.428 310.925C814.295 307.408 819.565 306.069 821.251 302.742C821.996 301.262 822.831 299.82 823.567 298.296Z" fill="#292929"/>
<path d="M691.376 332.039C693.407 325.646 695.653 319.973 696.432 313.299C695.024 311.968 694.184 313.427 690.948 313.257C690.78 307.183 699.324 302.424 705.092 305.754C705.88 308.615 704.87 310.159 703.972 313.325L704.674 313.707L706.432 315.945C703.327 322.419 702.477 325.156 700.616 332.132L691.376 332.039Z" fill="#292929"/>
<path d="M1102.96 327.988C1103.8 337.934 1097.23 345.062 1086.74 341.051C1087.06 338.268 1087.18 336.742 1089.74 335.449C1091.35 336.088 1092.94 336.779 1094.51 337.52C1098.55 334.232 1094.22 332.628 1102.96 327.988Z" fill="#292929"/>
<path d="M985.898 316.322L991.774 308.717C992.715 308.966 994.107 309.403 995.031 309.452C992.216 312.097 990.71 314.474 988.509 317.624L986.087 317.717L985.898 316.322Z" fill="#292929" fill-opacity="0.972549"/>
<path d="M704.674 313.707L707.029 310.458L711.144 310.416C708.773 312.582 708 313.183 706.432 315.945L704.674 313.707Z" fill="#292929" fill-opacity="0.964706"/>
</svg>
