<svg width="534" height="589" viewBox="0 0 534 589" fill="none" xmlns="http://www.w3.org/2000/svg">
<path d="M395.448 104.242C422.878 102.938 447.062 106.432 469.57 123.608C531.858 171.14 526.017 286.847 452.946 321.283C440.903 326.962 432.847 328.465 419.876 330.279C274.319 343.963 263.024 118.681 395.448 104.242ZM413.626 323.601C440.624 321.338 461.758 312.137 479.495 291.176C527.414 234.545 506.355 126.603 426.409 112.92C419.427 111.724 409.336 110.41 402.284 111.32C378.23 112.036 355.451 122.282 338.953 139.801C315.713 164.87 309.011 195.765 311.274 229.168C314.517 277.035 347.587 318.52 396.955 323.38C402.406 323.92 408.1 323.715 413.626 323.601Z" fill="#EC2223"/>
<path d="M399.395 78.6555C443.717 77.3068 477.527 93.5598 503.219 129.835C502.593 124.951 502.794 118.286 502.746 113.336C502.648 102.983 503.077 92.3886 502.782 82.0558L510.133 82.0566C510.196 108.026 510.676 132.658 509.874 158.732C499.771 134.776 485.922 114.872 463.19 101.416C445.504 90.945 427.562 86.0339 407.014 85.9721C375.42 85.7119 345.073 98.2903 322.927 120.826C293.647 150.055 284.383 191.253 287.181 231.638C291.073 287.74 329.244 337.713 386.207 347.828C394.33 349.268 404.118 348.906 412.363 348.878C442.576 348.827 473.147 331.719 491.298 307.929C497.465 299.845 505.623 288.31 509.897 279.013C510.023 285.642 510.515 292.675 510.472 299.263C510.362 317.004 510.362 334.758 510.255 352.499C507.831 352.759 505.206 352.657 502.754 352.641C503.404 338.496 502.86 320.086 502.86 305.635C500.157 309.224 497.551 312.545 494.718 316.024C453.438 366.683 373.298 369.694 324.989 326.344C302.899 306.367 287.858 279.783 282.116 250.558C279.007 234.785 278.629 220.599 279.526 204.676C282.32 155.043 309.81 108.736 356.415 88.7514C368.918 83.3904 385.837 79.3442 399.395 78.6555Z" fill="#EC2223"/>
<path d="M180.276 79.3936C182.048 79.1339 189.67 79.0607 191.684 79.1661C217.314 80.4224 242.552 88.3415 263.213 103.827C266.562 106.339 281.883 117.882 281.541 121.484C280.51 123.068 278.688 124.2 277.125 125.362C271.021 120.516 266.157 115.323 259.368 110.169C239.435 95.222 215.26 87.0105 190.347 86.7236C157.245 86.3831 125.67 98.0753 102.367 121.626C78.3251 145.924 66.0804 182.414 66.337 216.214C66.3886 223.039 66.0895 231.56 66.9278 238.115C70.4938 266.004 82.0158 295.635 102.119 315.682C121.987 335.781 148.327 348.21 176.476 350.756C183.106 351.401 188.771 351.327 195.419 351.283C220.204 349.973 243.922 340.775 263.115 325.037C267.774 321.267 272.135 316.733 276.559 312.62C278.731 313.955 280.27 314.643 281.407 316.914C281.317 320.366 269.372 329.972 266.393 332.231C248.005 346.427 226.124 355.392 203.061 358.182C171.214 362.259 136.132 351.874 110.331 332.849C49.8372 288.244 42.3798 184.919 87.541 126.771C102.907 107.075 124.009 92.6336 147.932 85.4425C158.373 82.383 169.507 80.7427 180.276 79.3936Z" fill="#EC2223"/>
<path d="M178.323 104.693C182.542 104.112 194.779 104.28 199.015 104.632C223.333 106.655 250.557 119.032 266.456 137.723C264.185 139.446 263.272 140.291 261.265 142.328C260.533 141.663 259.805 140.992 259.085 140.316C237.112 119.874 214.741 110.942 184.712 111.743C131.585 113.161 93.1106 154.823 91.2168 206.96C91.0334 212.007 90.525 216.65 90.5399 221.899C90.6218 251.358 99.9624 280.962 122.084 301.333C140.989 319.067 167.686 327.768 193.991 326.336C216.058 326.174 239.456 314.222 255.57 299.582C256.816 298.448 257.841 296.894 259.345 295.442C262.544 294.643 266.503 299.232 263.524 302.372C225.842 342.039 158.809 344.211 118.172 307.941C72.9583 267.581 71.3152 182.762 110.362 137.569C125.635 119.927 154.986 105.828 178.323 104.693Z" fill="#EC2223"/>
<path d="M0.583015 83.3248C3.02896 83.3181 5.21476 82.4034 7.07784 84.0599C8.23096 87.1627 7.60363 147.211 7.60363 153.852L7.61584 352.708C6.12544 353.853 2.55983 353.322 0.359863 353.243C-0.365852 333.935 0.230385 311.101 0.231172 291.502L0.235111 174.209L0.21228 112.902C0.210312 106.769 -0.176546 88.2446 0.583015 83.3248Z" fill="#EC2223"/>
<path d="M153.646 538.698C164.235 537.273 168.892 540.54 175.222 548.257L175.16 545.361C175.114 543.066 174.673 540.492 176.175 538.926C177.894 538.91 178.802 538.847 180.034 540.13C180.973 545.518 180.306 556.132 180.348 562.032C180.403 569.777 180.664 578.187 180.144 585.889C180.053 587.235 180.092 586.995 179.384 587.55C178.102 587.711 177.29 587.959 176.107 587.471C173.921 585.122 175.799 581.859 174.747 579.222C173.665 579.399 173.465 580.037 172.514 581.084C166.13 590.006 151.52 590.36 143.211 583.894C127.687 571.812 131.794 540.654 153.646 538.698ZM161.177 583.004C166.336 581.654 169.868 578.844 172.522 574.232C175.485 569.092 176.283 562.984 174.741 557.258C171.89 546.852 164.039 542.405 153.472 543.381C130.341 549.686 135.576 586.743 161.177 583.004Z" fill="#EC2223"/>
<path d="M383.149 538.686C394.338 537.615 398.903 539.595 405.472 548.434C405.664 545.915 405.428 543.479 405.582 540.949C405.767 537.97 408.746 538.166 410.363 539.867C411.08 544.231 410.639 556.577 410.733 561.666C410.639 569.446 410.989 577.278 410.481 585.043C410.332 587.349 409.147 588.774 406.778 588.089C404.948 586.011 406.089 582.367 405.346 579.285L404.779 579.08L403.74 580.21C390.961 596.389 366.388 586.885 364.569 567.545C363.892 560.316 364.605 552.74 369.304 546.829C373.09 542.07 377.084 539.461 383.149 538.686ZM391.429 582.929C396.121 581.788 400.162 578.824 402.665 574.7C405.688 569.639 406.593 563.59 405.184 557.868C402.5 547.242 394.641 542.291 383.917 543.377C360.508 549.698 366.368 587.054 391.429 582.929Z" fill="#EC2223"/>
<path d="M24.1934 83.4152L31.0168 83.0972C31.4816 103.68 31.1235 125.542 31.1243 146.218L31.1231 263.759L31.1227 323.868C31.1254 330.555 31.5611 347.867 30.8606 353.598C28.003 353.263 26.966 353.259 24.0828 353.405C23.6849 347.277 23.9128 338.552 23.9112 332.283L23.9143 294.179L23.9199 177.302L23.899 112.201L23.8994 93.6637C23.9045 90.8167 23.7561 86.0835 24.1934 83.4152Z" fill="#EC2223"/>
<path d="M526.879 82.0391L533.829 81.8486L533.884 272.726C533.888 299.098 533.483 326.505 533.975 352.795C531.684 352.901 529.051 352.857 526.729 352.869L526.753 171.534C526.757 142.243 526.155 111.107 526.879 82.0391Z" fill="#EC2223"/>
<path d="M444.013 447.763C468.015 446.193 475.784 472.384 464.312 489.905C461.51 494.183 454.06 497.355 449.003 497.997C428.778 498.933 419.805 482.01 424.689 464.131C427.448 454.021 434.02 449.168 444.013 447.763ZM450.943 492.601C456.449 490.145 461.372 487.209 463.297 481.152C468.204 465.682 459.979 450.809 442.497 452.824C437.33 454.163 433.89 456.725 431.171 461.502C428.089 466.922 427.326 473.352 429.057 479.342C432.08 489.567 440.652 494.447 450.943 492.601Z" fill="#EC2223"/>
<path d="M102.877 537.923C115.862 537.069 124.896 546.927 126.216 559.155C126.449 561.312 126.877 562.878 125.517 564.736C123.24 565.873 90.1428 565.468 85.1749 565.59C85.7672 568.714 86.4138 571.642 88.0664 574.397C93.3892 583.268 104.053 586.05 112.908 580.757C116.449 579.033 117.923 576.105 121.205 576.105C121.691 576.404 122.254 576.566 122.261 577.184C122.25 583.248 112.157 587.318 107.125 588.014C93.403 589.876 81.7545 581.292 80.4731 567.274C79.0292 551.469 86.2438 539.316 102.877 537.923ZM85.2891 561.009C92.623 561.052 99.2673 561.43 106.632 561.02C112.163 561.316 116.267 561.024 121.613 561.044C119.624 548.726 114.904 541.965 101.232 542.988C90.0633 544.645 87.1498 551.075 85.2891 561.009Z" fill="#EC2223"/>
<path d="M307.422 537.883C319.271 537.348 328.15 544.68 330.441 556.077C331.031 558.994 331.881 561.552 330.775 564.472C329.917 565.228 329.76 565.405 328.52 565.428C315.678 565.684 302.789 565.204 289.948 565.617C290.451 568.038 291.105 572.115 292.285 574.114C296.988 582.099 308.527 586.149 316.847 581.34C320.838 579.262 322.388 576.393 325.584 576.133C326.021 576.338 326.658 576.479 326.718 576.944C327.328 582.863 317.725 587.062 312.935 587.865C299.354 590.147 287.126 582.335 285.465 568.144C284.221 557.545 286.732 547.356 296.225 541.229C300.066 538.753 303.073 538.493 307.422 537.883ZM290.058 561.253C294.981 560.702 304.793 561.115 310.283 561.123C314.494 561.095 322.085 560.835 326.08 561.162C325.474 548.808 318.469 541.878 305.906 542.98C294.662 544.83 291.833 551.189 290.058 561.253Z" fill="#EC2223"/>
<path d="M332.818 448.098C338.079 447.72 343.266 447.897 348.091 450.357C354.432 453.592 357.832 460.4 358.56 467.252C358.8 469.503 359.276 472.455 358.17 474.497C355.368 475.678 322.963 475.111 318.043 475.107C320.574 488.591 330.437 496.977 344.258 491.428C346.033 490.613 347.245 490.082 348.792 488.846C350.472 487.5 353.2 484.462 355.042 487.158C355.073 488.24 354.935 489.263 354.27 490.121C347.509 499.039 332.707 500.322 323.604 494.384C309.511 485.186 310.149 460.573 323.892 451.293C327.107 449.121 329.146 448.806 332.818 448.098ZM318.028 470.337C324.38 470.558 330.732 470.648 337.088 470.601C342.975 470.613 349.04 470.361 354.798 470.4C351.83 458.346 349.103 452.753 335.781 452.505C323.876 453.741 320.763 459.637 318.028 470.337Z" fill="#EC2223"/>
<path d="M230.997 448.07C231.857 448.074 235.19 448.015 235.289 448.972C236.39 459.594 234.682 470.877 236.121 481.475C237.07 488.465 243.089 493.187 249.874 493.093C265.964 492.861 267.263 478.307 266.661 465.95C266.476 460.168 266.661 453.879 266.645 448.279C268.42 448.149 270.214 448.228 271.997 448.255L271.863 460.908C271.942 472.49 272.194 485.667 271.804 497.143C269.644 497.465 268.408 498.119 266.802 496.442C266.192 494.667 266.621 491.841 266.767 489.85C261.95 495.482 257.07 498.591 249.282 498.032C243.842 497.642 238.862 495.923 235.222 491.653C233.312 489.39 231.985 486.694 231.356 483.801C230.451 479.641 230.594 453.104 230.997 448.07Z" fill="#EC2223"/>
<path d="M65.4453 447.791C91.4667 445.788 87.6268 471.089 87.8047 488.339C87.837 491.448 88.7374 496.533 85.5917 498.182C83.9915 498.02 82.7951 495.978 82.7459 494.561C82.5019 487.311 82.9108 479.995 82.79 472.726C82.6417 463.781 82.1993 460.314 75.6828 453.966C70.8692 452.864 67.7708 452.328 62.8679 453.23C57.5935 454.576 53.0219 460.062 52.2061 465.15C50.5418 475.536 51.8826 487.331 51.3481 497.871C49.8581 497.788 48.2536 497.634 46.7542 497.516C46.1398 487.012 46.289 476.674 46.2811 466.126C46.2776 461.144 46.1146 455.064 46.7475 450.101C46.8663 449.172 46.9116 449.4 47.7877 448.861C49.5213 448.794 49.7794 448.483 51.0038 449.208C51.5973 450.904 51.4914 453.576 51.5359 455.461C56.7324 450.388 58.0952 448.747 65.4453 447.791Z" fill="#EC2223"/>
<path d="M511.649 537.895C517.202 537.529 525.891 539.351 529.004 544.416C529.044 545.876 529.233 545.223 528.383 546.439C525.278 547.604 519.579 542.889 515.163 542.81C511.271 542.744 505.675 543.047 502.499 545.62C501.196 546.679 499.193 550.284 499.397 551.768C500.893 562.524 523.231 558.411 529.355 566.546C531.72 569.297 532.24 572.453 531.85 576.093C530.701 586.818 517.816 589.293 509.13 588.042C504.691 587.361 500.125 585.712 496.599 582.878C494.789 581.422 492.758 577.699 495.123 575.936C497.556 575.889 499.323 577.569 501.16 579.191C505.293 583.071 510.252 584.248 515.864 583.421C524.793 582.111 528.068 578.435 526.557 570.009C524.506 568.805 520.728 566.518 518.567 565.928C512.113 564.208 505.97 564.452 499.956 561.103C493.337 557.411 494.065 548.962 497.63 543.334C500.192 539.288 507.131 538.493 511.649 537.895Z" fill="#EC2223"/>
<path d="M114.364 447.787C118.176 447.657 122.156 448.204 125.775 449.471C128.32 450.361 133.192 453.237 131.754 456.583C128.209 457.83 125.928 453.584 120.676 452.915C116.505 452.383 109.993 452.356 106.262 454.532C104.346 455.65 101.93 459.294 102.05 461.274C102.696 471.896 126.533 468.078 132.205 476.43C134.382 479.177 134.995 482.357 134.564 485.91C133.143 497.611 119.492 498.858 110.486 497.504C106.203 496.737 93.7513 492.026 97.2988 486.076C100.825 484.257 104.235 490.302 107.993 491.841C111.09 493.659 114.082 492.967 117.208 493.309C121.877 494.065 131.47 488.512 130.059 483.23C126.387 469.472 99.2776 479.165 97.847 462.998C96.847 451.691 104.908 448.625 114.364 447.787Z" fill="#EC2223"/>
<path d="M278.499 538.698C279.786 538.654 280.656 538.446 281.663 539.178C282.34 541.248 266.382 579.324 264.843 584.319C264.611 585.086 263.662 586.79 263.064 587.376C260.797 588.077 258.392 588.109 257.377 585.613C255.326 580.556 253.366 575.475 251.42 570.379L242.141 546.514C241.247 543.586 240.607 541.669 239.426 538.855C241.215 538.843 244.601 538.328 245.354 540.362C246.358 543.074 247.362 545.786 248.397 548.485L255.338 566.55C257.271 571.674 258.554 576.188 261.269 580.958C262.603 574.429 267.515 564.047 269.845 557.478C271.848 551.827 274.107 545.923 276.374 540.362C276.948 538.961 277.287 539.099 278.499 538.698Z" fill="#EC2223"/>
<path d="M21.3362 538.702C28.2494 537.726 35.3798 539.552 39.6574 545.058C40.3544 545.955 40.0438 546.144 39.8376 547.139C37.3755 549.615 34.011 545.546 31.4321 544.581C27.9633 543.287 23.5889 542.787 19.9934 543.499C8.25328 545.565 3.79903 558.427 6.23395 568.962C8.8566 580.308 18.8962 585.047 29.6099 582.418C33.3636 580.596 34.4377 579.993 37.2717 576.971C38.7144 578.195 39.5767 578.616 39.9667 580.415C39.3048 584.523 29.8248 587.624 26.2171 587.841C20.2197 588.286 13.2959 586.833 8.74208 582.646C-5.88556 569.194 -0.569822 540.193 21.3362 538.702Z" fill="#EC2223"/>
<path d="M412.28 428.129C415.149 428.16 421.336 428.904 422.741 431.891C421.705 436.571 414.763 433.052 411.804 432.942C404.133 432.659 404.409 443.627 404.334 449.023C407.754 448.94 416.424 448.263 418.844 450.231C419.187 451.545 419.226 450.904 418.592 452.21C415.865 454.064 408.116 453.316 404.35 453.246L404.428 483.746C404.468 486.772 404.775 494.892 404.129 497.324C402.882 497.816 401.26 497.603 400.198 496.777C399.478 493.975 399.749 484.033 399.753 480.428C399.812 471.341 399.788 462.25 399.678 453.163C396.652 453.257 392.338 453.911 390.103 451.541C390.473 448.322 397.404 449.05 399.69 449.105C399.851 438.723 399.304 428.987 412.28 428.129Z" fill="#EC2223"/>
<path d="M203.617 433.823C204.86 433.855 205.423 433.737 206.422 434.465C206.821 436.047 206.483 446.464 206.446 448.782C209.904 448.873 219.676 448.046 221.715 449.987C221.885 451.167 221.909 451.199 221.783 452.375C220.092 453.473 209.787 452.808 206.815 452.938L206.428 452.958C206.542 463.627 205.728 476.835 207.223 487.37C208.168 494.033 215.735 494.793 220.485 491.825C221.28 491.329 222.34 492.727 222.85 493.258C222.351 500.059 210.121 498.402 206.398 495.812C201.942 492.711 201.406 484.859 201.533 479.944C201.767 470.967 201.263 461.711 201.772 452.777C198.853 452.946 193.404 453.832 191.689 450.982L192.186 450.136C195.446 448.263 198.001 448.755 201.805 448.822C201.443 446.035 201.21 437.759 202 434.787C202.141 434.256 202.915 434.122 203.617 433.823Z" fill="#EC2223"/>
<path d="M467.339 523.987C468.732 524.05 470.015 523.924 471.16 524.624C471.585 527.198 471.731 535.986 471.333 538.588C476.5 538.934 481.558 538.867 486.737 538.859C486.579 540.359 486.572 541.681 486.54 543.188C482.408 542.811 475.737 543.082 471.27 542.992C472.049 552.543 470.928 562.968 471.506 572.658C472.211 584.437 476.453 585.846 486.796 581.485C487.162 582.737 487.319 583.339 487.524 584.622C486.41 587.715 482.959 588.392 480.046 588.396C464.273 588.424 466.65 574.873 466.673 564.161C466.744 557.053 466.721 549.95 466.61 542.842C463.765 543.011 457.24 543.909 455.973 540.855C457.567 538.115 463.895 538.792 466.752 538.859C466.756 535.632 466.146 526.403 467.339 523.987Z" fill="#EC2223"/>
<path d="M152.701 433.93L154.127 434.26C155.387 435.996 154.664 445.929 154.571 448.775C158.635 448.936 165.983 448.165 169.283 449.475C170.29 450.577 169.959 450.38 170.086 452.289C168.85 453.293 157.19 452.954 154.531 452.974C154.825 462.706 152.759 484.34 157.33 491.924C165.235 495.568 166.276 490.924 170.494 491.9C170.616 492.353 170.836 492.979 170.862 493.463C170.918 494.513 170.724 495.19 170.007 495.962C168.516 497.571 165.838 498.032 163.763 498.099C160.085 498.217 156.084 497.347 153.391 494.675C148.079 489.405 149.674 461.105 149.891 453.064C146.65 452.982 142.946 453.918 140.531 452.147C140.023 450.782 140.088 451.478 140.442 449.979C142.191 448.141 147.126 448.771 150.209 448.664C149.651 445.185 149.47 438.574 149.867 435.11C150.801 434.075 151.026 434.331 152.701 433.93Z" fill="#EC2223"/>
<path d="M291.467 433.819L292.612 434.288C293.541 435.543 293.261 446.287 293.312 448.798C296.374 448.794 306.575 448.412 308.866 449.577C308.937 451.029 308.893 451.026 308.551 452.364C306.984 453.363 296.158 452.907 293.265 453.056C293.242 463.789 291.754 479.472 295.009 489.787C296.457 494.372 303.808 493.931 307.425 491.755C308.996 491.825 308.283 491.581 309.586 492.624C309.846 501.806 293.23 497.587 291.522 493.939C287.909 486.225 287.968 461.191 289.07 452.981C285.996 452.926 282.686 453.017 279.593 453.044C279.337 451.797 279.152 450.25 278.959 448.971C282.34 448.908 285.721 448.786 289.094 448.605C288.727 445.783 288.2 437.334 289.404 434.693C289.629 434.197 290.794 434.02 291.467 433.819Z" fill="#EC2223"/>
<path d="M198.643 523.88C199.666 523.916 200.191 523.794 200.99 524.384C202.222 527.241 201.751 535.152 201.809 538.863C204.662 538.902 215.357 538.229 216.886 539.426C217.066 540.673 216.928 541.102 216.726 542.322C215.264 543.653 204.542 543.003 201.774 542.956C201.685 549.623 201.633 556.294 201.617 562.96C201.599 566.774 201.362 571.253 201.824 574.657C202.982 583.185 207.712 585.236 215.357 582.65C216.564 582.241 217.42 583.091 218.337 583.764C218.785 585.11 218.812 584.468 218.3 585.755C215.126 588.585 208.025 588.872 204.303 587.408C195.411 583.905 197.388 569.064 197.289 561.662C197.202 555.223 197.228 548.981 197.494 542.909C194.605 543.046 188.509 543.912 187.021 540.886L187.585 540.103C190.948 538.34 193.719 538.78 197.527 538.828C197.382 535.423 197.179 531.799 197.291 528.41C197.371 526.029 197.076 525.368 198.643 523.88Z" fill="#EC2223"/>
<path d="M497.177 448.125C500.07 447.637 505.769 448.523 507.973 450.632C509.358 454.812 505.273 454.005 502.782 453.521C498.744 452.734 496.634 453.005 492.656 453.871C480.203 464.93 485.941 480.782 484.308 496.438L484.206 496.768C483.013 497.851 480.813 498.075 479.641 496.827C479.208 492.337 479.157 451.75 479.826 449.195C481.014 448.554 482.62 448.81 483.749 449.467C484.438 450.423 484.407 450.526 484.434 451.726L484.536 455.772C488.999 449.735 490.2 449.479 497.177 448.125Z" fill="#EC2223"/>
<path d="M53.4226 546.258C59.7505 538.497 63.8659 537.813 73.6131 538.859C75.6489 539.076 78.5503 541.524 77.7324 543.814C73.5246 546.679 57.7816 535.805 53.8952 557.73C53.0192 563.26 54.7544 583.815 53.6008 586.916C52.0329 588.262 50.2938 588.223 48.9085 586.747C48.6184 583.819 48.6539 580.93 48.6582 577.991C48.6767 565.413 48.5031 552.823 48.7054 540.253C48.7255 539.005 48.9549 539.155 49.8436 538.462C54.7138 539.005 53.5886 542.216 53.4226 546.258Z" fill="#EC2223"/>
<path d="M427.086 546.069C430.596 541.846 433.217 539.044 439.172 538.56C442.678 538.277 451.687 538.021 451.986 543.121C447.948 548.596 434.945 534.428 427.46 555.735C426.267 565.932 428.381 577.341 426.645 587.388C426.519 588.105 423.705 587.947 422.666 586.896C422.001 584.96 422.099 542.531 422.599 538.588C424.323 538.56 424.768 538.493 426.011 539.398C426.865 541.071 426.838 544.038 427.086 546.069Z" fill="#EC2223"/>
<path d="M30.2427 448.121C31.0727 448.157 34.6399 448.129 34.7533 449.085C34.9288 451.392 35.237 456.614 34.9874 458.747C34.3243 464.418 36.0308 494.395 34.2554 497.536C32.7717 497.611 30.9523 497.847 29.5776 497.418C29.5639 497.339 29.4485 496.69 29.447 496.579C29.1939 480.81 29.2211 464.776 29.5828 449.003C29.8027 448.711 30.0227 448.416 30.2427 448.121Z" fill="#EC2223"/>
<path d="M179.595 448.365C180.426 448.361 181.465 448.255 182.271 448.424C182.738 448.519 183.4 448.747 183.674 449.184C184.747 450.908 184.505 492.856 183.952 497.465C182.404 497.556 181.257 497.819 179.922 497.115C179.055 495.607 179.495 453.946 179.595 448.365Z" fill="#EC2223"/>
<path d="M227.159 538.639C228.604 538.599 229.552 538.458 230.912 538.95C231.85 540.559 232.002 583.433 231.133 587.853C229.788 588.156 228.839 588.018 227.538 587.597C226.529 585.342 226.843 543.59 227.159 538.639Z" fill="#EC2223"/>
<path d="M0.681113 0.172773C9.67266 0.0251897 21.3368 -0.155845 30.2083 0.237316C30.5145 3.04533 30.644 4.32753 30.5334 7.1379C26.4857 7.85811 5.78866 7.55271 0.62207 7.55467L0.681113 0.172773Z" fill="#EC2223"/>
<path d="M0.715047 28.119C5.83441 28.5641 24.0186 27.363 29.5933 28.8691C30.72 29.1737 30.2734 33.9751 30.1553 35.7984C21.4038 36.1428 10.0899 35.4623 0.675293 35.6882L0.715047 28.119Z" fill="#EC2223"/>
<path d="M30.2673 428.719C36.4468 428.538 38.6704 433.371 33.1925 436.878C28.6005 437.834 26.3585 431.482 30.2673 428.719Z" fill="#EC2223"/>
<path d="M180.628 428.924C182.685 428.219 184.929 429.282 185.686 431.321C186.443 433.359 185.436 435.63 183.417 436.437C182.065 436.98 180.527 436.744 179.398 435.823C178.269 434.906 177.727 433.446 177.983 432.013C178.239 430.581 179.251 429.396 180.628 428.924Z" fill="#EC2223"/>
<path d="M228.304 518.89C233.801 519.28 234.238 524.66 230.394 527.462C225.22 526.58 223.721 521.669 228.304 518.89Z" fill="#EC2223"/>
</svg>
