<svg width="828" height="704" viewBox="0 0 828 704" fill="none" xmlns="http://www.w3.org/2000/svg">
<path d="M88.8192 96.1499C89.2688 97.8455 89.2865 98.0331 90.1813 99.5044L91.7451 100.35L92.0584 100.086C92.9705 100.748 92.62 100.361 93.0501 101.324C115.599 102.023 137.382 101.85 159.944 101.852L251.264 101.856L533.757 101.852L732.178 101.853L796.044 101.852C804.955 101.852 819.449 102.327 828 101.771V104.277V702.966C794.702 702.194 758.125 702.845 724.605 702.93L557.081 703.237L512.038 703.209C508.565 703.197 491.459 702.813 489.025 703.56C486.304 703.965 477.988 703.779 474.762 703.775L447.524 703.746H350.609L165.11 703.758H104.685C92.9867 703.758 80.2351 704.025 68.6435 703.532C63.83 702.978 56.3764 703.197 51.3392 703.201L23.6189 703.217C19.9711 703.217 2.46595 702.885 0 703.354V609.975C0.806968 610.901 0.737284 610.961 1.85468 611.398C0.47859 612.558 24.5713 547.744 25.6141 543.759C26.1807 539.458 28.0741 536.447 29.5777 532.34L35.2008 516.564C45.4842 487.708 56.0546 459.013 66.2064 430.125C68.7879 422.781 72.0999 419.066 72.8515 411.067L72.6974 410.489C68.4968 411.823 8.60857 411.071 0 410.881V408.213V339.565C3.01886 339.085 2.62144 336.624 3.30539 333.879C5.40379 325.458 9.12506 315.196 12.6229 307.29C14.0549 301.455 15.4367 298.284 17.4727 292.743C21.2433 281.224 25.3577 270.604 29.4294 259.369L45.5816 214.61L55.7109 186.568C56.8449 183.411 58.1258 179.038 59.3112 176.154C61.8914 171.196 63.5247 165.647 65.5903 160.496C71.5234 145.701 75.9795 130.546 82.1406 115.813C83.9239 111.548 84.5979 106.917 86.6404 102.377C87.2715 100.27 88.0611 98.217 88.8192 96.1499Z" fill="#0502FD"/>
<path d="M234.062 408.237C240.19 407.955 245.887 407.672 252.032 408.193C264.419 409.426 271.729 412.93 280.17 422.692C282.436 425.315 283.766 427.474 286.317 429.963C285.587 424.022 285.712 417.13 285.736 411.095C288.804 411.047 294.941 410.776 297.771 411.022C304.814 410.481 314.004 410.63 321.22 410.655C328.724 410.683 337.416 410.424 344.827 410.723C345.085 418.363 344.08 453.892 346.292 458.035C355.659 430.824 381.884 410.634 410.523 408.242C419.725 407.813 426.962 407.959 436.083 408.205C464.359 410.133 490.267 424.883 501.28 451.847C505.153 436.807 507.878 428.339 522.57 419.571C534 412.858 546.864 408.969 560.101 408.233C571.017 407.849 579.992 408.254 590.524 408.197C607.86 409.531 628.168 415.485 639.772 429.187C647.227 437.995 648.375 445.145 649.374 456.127C632.236 456.374 613.282 456.552 596.168 456.196C592.724 441.794 579.641 438.116 567.419 441.144C556.333 443.892 554.469 455.905 564.888 460.17C570.414 462.433 574.021 462.558 579.709 463.621C586.797 466.596 592.699 465.756 599.738 467.453C614.948 471.123 632.025 475.295 643.111 487.081C647.166 491.394 648.897 496.01 652.556 500.214C652.167 483.597 652.03 466.972 652.147 450.351C652.228 437.995 652.547 423.351 652.143 411.047C665.036 410.748 677.937 410.63 690.834 410.691C696.923 410.699 705.381 410.521 711.352 410.881C711.858 427.158 712.02 444.741 711.631 461.051C710.815 495.667 713.014 531.806 711.158 566.22L652.224 566.224C652.155 554.826 652.252 543.427 652.511 532.033C649.204 536.051 647.619 540.97 644.575 545.137C634.977 558.262 614.851 566.705 598.934 567.894C583.684 567.882 569.004 568.148 553.689 567.878C539.082 567.793 516.558 556.261 507.89 544.519C505.63 541.455 503.071 536.806 500.952 533.46C499.113 535.784 497.398 538.407 495.551 540.764C484.324 555.085 464.873 565.634 446.878 567.833C433.342 568.144 419.802 568.161 406.262 567.89C395.019 566.673 381.67 561.091 372.345 554.688C362.388 547.853 348.487 532.906 346.424 520.513C343.856 526.338 345.31 548.811 344.764 556.851C344.495 561.059 343.699 565.218 342.396 569.228C339.985 583.795 331.936 596.827 319.989 605.509C309.5 613.011 290.744 619.062 277.913 619.26C270.628 620.881 254.968 620.679 247.679 619.256C243.891 619.187 240.071 618.1 236.363 617.554C212.713 614.078 186.465 598.88 184.484 572.506C184.755 571.629 184.749 571.653 185.264 570.889C189.182 570.493 199.985 570.861 204.44 570.873C217.226 570.913 230.012 570.881 242.798 570.772C247.252 577.692 253.001 584.62 262.039 585.036C266.653 585.25 272.738 582.93 275.925 579.583C287.045 567.906 285.603 549.992 285.914 535.117C282.743 537.607 280.592 540.869 277.711 543.359C269.717 550.262 261.136 555.691 250.478 556.212C241.93 555.404 235.759 554.155 227.155 555.412C209.675 552.009 192.655 538.516 185.635 522.259C184.302 519.171 182.687 515.986 181.019 513.068C181.489 528.613 182.066 550.873 181.286 566.038C170.823 566.245 160.357 566.309 149.892 566.228C141.552 566.232 132.337 566.41 124.047 566.091C124.017 559.757 124.105 552.405 123.697 546.103C114.824 556.714 105.02 566.301 90.2659 567.878C83.352 568.039 76.4365 568.116 69.521 568.104C66.3295 568.092 62.1693 567.805 59.1856 567.991C50.306 566.964 41.654 561.843 35.0779 555.917C32.9616 554.013 26.3079 546.479 25.6143 543.759C26.1809 539.458 28.0743 536.447 29.5778 532.34L35.201 516.564C45.4844 487.708 56.0547 459.014 66.2066 430.125C68.788 422.781 72.1 419.066 72.8516 411.067C74.747 410.582 77.1267 410.703 79.1304 410.691C79.8585 432.663 79.5977 455.578 79.5832 477.647C79.5933 482.433 79.5557 487.219 79.4704 492.001C79.2286 502.368 78.6662 516.398 90.0403 521.346C96.0106 521.37 101.875 521.406 107.835 521.022C114.911 518.819 120.092 510.06 121.121 503.116C122.702 492.437 122.137 479.887 122.138 469.026L122.11 411.055C141.796 410.752 161.485 410.739 181.171 411.014C181.21 423.585 181.724 440.073 180.549 452.199C183.422 447.967 184.59 444.418 186.892 439.919C188.512 436.754 191.138 433.076 193.375 430.311C203.429 417.797 218.088 409.846 234.062 408.237Z" fill="#FEFEFE"/>
<path d="M297.771 411.022C304.813 410.48 314.003 410.63 321.22 410.654C328.724 410.682 337.416 410.424 344.827 410.723C345.084 418.362 344.08 453.892 346.292 458.035L346.067 458.657C345.044 458.872 344.398 459.114 343.389 458.851C341.544 456.099 342.261 419.361 342.406 413.532C330.783 413.536 315.276 414.017 304.108 412.869C309.132 412.505 338.116 413.229 340.132 412.154C336.583 411.511 328.847 411.665 325.068 411.685C315.51 411.733 307.277 411.891 297.771 411.022Z" fill="#CCCCFF"/>
<path d="M342.395 569.227C342.677 561.467 340.943 525.626 343.687 521.62C344.31 520.711 345.426 520.658 346.424 520.513C343.856 526.337 345.31 548.811 344.763 556.851C344.495 561.058 343.699 565.218 342.395 569.227Z" fill="#CCCCFF"/>
<path d="M247.679 619.256L248.214 619.227C251.148 619.07 251.923 618.565 254.497 618.209C257.914 617.76 261.361 617.582 264.807 617.675C269.628 617.784 275.214 619.272 277.913 619.26C270.628 620.881 254.968 620.679 247.679 619.256Z" fill="#CCCCFF"/>
<path d="M90.04 521.345C96.0103 521.37 101.875 521.406 107.835 521.022L107.249 521.349C106.279 521.903 106.71 521.653 106.118 522.247C104.668 523.698 99.0073 524.32 97.0481 524.118C93.897 523.795 92.273 523.451 90.04 521.345Z" fill="#9393FF"/>
<path d="M508.751 480.958C514.856 487.097 517.634 489.47 525.344 493.67C546.318 505.105 571.163 503.358 592.509 512.667C597.519 514.85 596.852 521.345 596.314 525.642C593.649 529.426 591.482 530.812 586.873 531.924C586.643 532.202 585.507 533.666 585.345 533.738C580.579 535.828 570.39 535.986 566.808 531.891C558.969 529.474 555.439 522.793 554.186 515.234C551.736 515.654 534.351 515.44 531.032 515.44L509.386 515.444C506.22 515.436 500.576 515.578 497.661 515.141C497.637 517.008 497.661 519.126 497.572 520.97L468.944 520.945C464.529 520.937 456.136 520.719 452.036 521.309C443.122 529.692 437.393 531.794 425.102 531.77C408.376 531.734 398.155 519.595 396.682 503.69C396.617 502.902 396.824 502.845 397.214 502.227C406.347 501.483 424.993 502.029 435.06 502.029L509.726 502.061C509.604 495.02 509.281 487.983 508.751 480.958Z" fill="#110CFE"/>
<path d="M566.808 531.891C573.697 532.627 580.012 532.121 586.873 531.923C586.643 532.202 585.507 533.666 585.345 533.738C580.578 535.828 570.39 535.986 566.808 531.891Z" fill="#9393FF"/>
<path d="M257.58 450.824C264.707 450.327 269.83 450.493 276.054 454.664C280.864 457.983 285.524 465.287 286.047 471.224C287.618 489.09 288.985 515.117 266.089 518.941C246.726 519.656 239.122 507.946 236.781 490.109C234.707 474.3 238.44 453.157 257.58 450.824Z" fill="#110CFE"/>
<path d="M420.986 445.541C421.443 445.501 421.9 445.46 422.357 445.428C440.582 444.062 451.676 452.716 452.731 471.406L429.565 471.426C418.637 471.459 407.709 471.422 396.779 471.313C399.042 456.778 406.189 448.063 420.986 445.541Z" fill="#110CFE"/>
<path d="M59.3113 176.154C68.0162 175.979 75.7609 175.236 84.6639 175.294C94.1823 175.357 103.623 176.165 112.936 176.236L112.789 219.002C101.526 216.345 80.7322 212.912 79.1982 229.472C79.2435 230.868 79.1485 232.818 79.719 234.016C85.2983 235.243 107.624 232.837 111.597 234.891C112.58 237.204 111.876 244.047 111.555 246.756C111.528 250.143 111.593 254.081 111.341 257.418C115.682 254.274 123.277 248.766 128.298 246.917C151.708 238.295 182.096 237.773 206.575 241.219C220.358 243.159 236.376 248.493 244.214 260.098C249.555 268.005 250.097 272.802 251.022 281.975C252.685 284.991 251.48 285.779 252.732 287.936L252.881 287.799C252.549 286.791 252.49 287.276 252.969 286.306L253.553 286.177C254.832 287.751 253.972 303.188 253.97 306.642L254.013 356.309C254.016 361.783 253.519 375.743 254.877 379.828L254.324 381.69C254.756 380.668 255.957 377.902 256.032 376.926C256.564 370.05 256.26 362.584 256.259 355.655L256.26 310.636C256.259 306.863 256.052 296.723 256.725 293.641C256.782 290.686 256.94 288.014 258.041 285.258C257.718 283.111 257.691 279.331 257.66 277.096C257.231 246.595 257.839 216.015 257.447 185.518C272.971 184.677 293.616 185.087 309.387 185.251C311.94 185.28 314.493 185.274 317.046 185.234C318.105 213.391 317.043 241.881 317.432 270.074C317.467 272.608 317.46 276.266 317.141 278.733L316.586 287.645C318.065 286.427 319.341 285.121 320.555 283.64C330.255 271.803 340.032 260.063 349.991 248.441C351.403 246.793 352.979 245.065 354.742 243.797C360.301 243.142 367.4 243.344 373.112 243.354L401.99 243.414C407.645 243.424 414.934 243.605 420.509 243.202C416.333 248.93 410.774 254.138 405.837 259.297C397.882 267.613 389.96 276.102 382.212 284.608C377.989 289.246 369.907 296.968 366.347 301.663C370.833 309.433 378.762 320.622 383.933 328.401L411.667 370.318C415.803 376.437 427.006 392.19 429.586 397.81L383.815 397.888C376.249 397.879 366.587 398.148 359.244 397.7C357.012 394.832 354.919 390.721 353.14 387.498C344.609 372.041 335.342 356.924 326.992 341.373C323.904 345.882 319.925 349.479 316.979 353.807C312.911 361.763 314.974 387.106 314.623 397.773L251.523 397.887C233.706 397.994 215.889 397.929 198.074 397.693C197.206 393.041 196.961 388.335 196.849 383.614C193.051 386.004 189.495 389.408 185.739 392.021C176.38 398.533 160.782 401.378 149.704 401.831C134.609 402.448 115.778 398.658 104.576 387.729C99.2065 382.491 94.0068 375.228 93.7242 367.438C94.0234 365.597 93.8742 344.904 93.7449 342.322L93.6438 341.494C98.7177 318.028 126.42 310.185 146.897 306.834C151.551 306.072 157.815 306.637 162.084 305.376C162.358 304.883 162.588 304.42 162.81 303.896C167.774 302.616 175.983 303.247 181.75 301.812C189.213 299.955 191.173 298.643 195.359 292.414C195.327 289.2 195.54 285.316 193.87 282.523C189.914 276.042 182.465 274.063 175.349 274.088C163.589 274.129 155.966 278.378 153.187 290.194C135.696 289.479 116.742 290.658 98.8568 289.932C99.124 285.82 100.462 278.5 101.071 274.082C96.957 274.05 92.8433 274.052 88.7296 274.088C86.5997 274.306 83.0892 274.173 81.5298 274.933L81.2096 275.38C81.4461 276.616 81.8642 276.973 82.6356 277.958C83.1264 282.969 82.8341 291.136 82.8357 296.5L82.8547 330.218L82.8584 372.81C82.8503 376.488 83.1179 395.142 82.019 397.273C81.0819 397.761 81.1522 397.741 80.0978 397.803C74.5222 397.516 66.0885 397.811 60.2719 397.82C46.3362 397.885 32.4004 397.864 18.4651 397.759C17.6396 395.494 18.1188 317.959 18.1415 309.662C15.45 307.069 16.353 306.459 12.623 307.289C14.055 301.455 15.4368 298.284 17.4729 292.742C21.2435 281.223 25.3578 270.604 29.4295 259.369L45.5818 214.61L55.711 186.568C56.8451 183.411 58.1259 179.038 59.3113 176.154Z" fill="#FEFEFE"/>
<path d="M251.022 281.975C252.685 284.992 251.479 285.779 252.732 287.936L252.88 287.799C252.549 286.792 252.49 287.277 252.969 286.306L253.553 286.177C254.832 287.751 253.972 303.188 253.97 306.642L254.013 356.309C254.016 361.783 253.519 375.743 254.876 379.828L254.324 381.69C254.755 380.668 255.957 377.903 256.032 376.927C256.564 370.05 256.26 362.584 256.259 355.656L256.259 310.636C256.259 306.864 256.052 296.723 256.724 293.641C257.209 311.978 256.721 332.31 256.723 350.81C256.705 357.953 256.736 365.096 256.817 372.238C256.861 375.756 257.798 387.156 255.512 389.363C254.571 389.206 254.988 389.415 254.286 388.688C253.631 384.963 251.773 379.304 251.517 375.77C250.75 365.218 251.062 353.79 251.064 343.176L251.022 281.975Z" fill="#4F4BFF"/>
<path d="M80.0733 274.017C82.9588 274.001 85.8442 274.025 88.7293 274.088C86.5994 274.306 83.0889 274.173 81.5296 274.933L81.2094 275.38C81.4459 276.616 81.8639 276.973 82.6353 277.958C83.1261 282.969 82.8338 291.136 82.8354 296.5L82.8544 330.218L82.8581 372.81C82.85 376.488 83.1176 395.142 82.0188 397.273C81.0816 397.761 81.1519 397.741 80.0975 397.803C79.5073 357.037 79.948 314.877 80.0733 274.017Z" fill="#110CFE"/>
<path d="M258.041 285.258C259.411 299.075 259.176 310.145 259.179 324.03L259.149 366.095C259.099 376.266 258.46 384.242 259.306 394.469C257.884 393.864 256.401 393.2 254.96 392.663L254.286 388.688C254.988 389.415 254.571 389.206 255.512 389.363C257.798 387.156 256.861 375.756 256.817 372.238C256.736 365.096 256.705 357.953 256.723 350.81C256.721 332.31 257.209 311.978 256.724 293.641C256.781 290.686 256.94 288.014 258.041 285.258Z" fill="#9393FF"/>
<path d="M309.387 185.252C311.94 185.28 314.493 185.274 317.046 185.234C318.104 213.391 317.043 241.881 317.432 270.074C317.467 272.608 317.46 276.267 317.14 278.733C316.829 277.322 316.466 277.16 315.433 276.269C313.577 269.644 314.481 244.592 314.511 235.912C314.565 221.015 313.296 199.532 316.729 185.696C315.093 185.673 310.534 185.904 309.387 185.252Z" fill="#CCCCFF"/>
<path d="M17.4729 292.743C18.7139 294.635 19.2355 296.872 19.1603 299.11C18.6909 313.072 18.5206 327.014 18.5724 340.974L18.65 379.368C18.6494 383.011 18.8835 394.627 18.4651 397.759C17.6396 395.494 18.1188 317.96 18.1415 309.662C15.45 307.069 16.353 306.459 12.623 307.29C14.055 301.455 15.4368 298.284 17.4729 292.743Z" fill="#4F4BFF"/>
<path d="M79.198 229.472C79.2433 230.868 79.1483 232.818 79.7187 234.016C85.298 235.243 107.624 232.838 111.596 234.891C112.58 237.204 111.875 244.047 111.554 246.756C111.154 244.597 110.963 239.302 110.812 236.899C100.435 237.076 89.6947 236.953 79.2885 236.969C78.9558 233.905 78.6809 232.508 79.198 229.472Z" fill="#4F4BFF"/>
<path d="M192.398 329.478L195.708 328.342C195.88 333.923 196.456 344.315 194.936 349.43L193.819 350.018C193.634 350.736 193.453 351.457 193.278 352.178C191.072 357.996 187.738 361.686 182.084 364.325C175.599 367.279 168.207 367.541 161.529 365.056C154.584 362.415 151.542 357.092 152.394 349.863C153.045 344.335 155.806 341.514 160.724 339.238C167.096 336.288 173.855 335.535 180.559 333.721C184.548 332.637 188.539 331.007 192.398 329.478Z" fill="#110CFE"/>
<path d="M192.397 329.478L195.708 328.342C195.88 333.923 196.455 344.315 194.936 349.43L193.819 350.018C193.634 350.736 193.453 351.457 193.278 352.178C192.912 347.613 194.112 332.651 192.397 329.478Z" fill="#4F4BFF"/>
<path d="M88.8194 96.1499C89.269 97.8455 89.2868 98.0331 90.1815 99.5044L91.7453 100.35L92.0586 100.086C92.9707 100.748 92.6202 100.361 93.0503 101.324C115.599 102.023 137.382 101.85 159.944 101.852L251.265 101.856L533.757 101.852L732.178 101.853L796.045 101.852C804.955 101.852 819.449 102.327 828 101.771V104.277L252.576 104.315L129.049 104.311C124.089 104.31 95.3011 104.795 93.1995 104.13C91.4121 103.566 90.5118 102.555 89.6959 100.916C89.6377 100.799 89.5827 100.68 89.5261 100.562C89.1998 101.311 89.385 100.921 88.9617 101.727L86.6406 102.377C87.2717 100.27 88.0613 98.217 88.8194 96.1499Z" fill="#110CFE"/>
<path d="M68.6436 703.532C69.0042 701.729 68.6844 701.6 69.7732 700.816C74.1634 700.355 79.9861 700.5 84.4916 700.496H107.607L181.543 700.504L424.479 700.521C433.148 700.521 487.016 699.821 488.738 701.099L489.025 703.56C486.304 703.964 477.988 703.778 474.762 703.774L447.524 703.746H350.609L165.11 703.758H104.685C92.9867 703.758 80.2352 704.025 68.6436 703.532Z" fill="#4F4BFF"/>
<path d="M0 408.213L44.7209 408.286C50.7482 408.286 68.4256 407.566 73.1438 409.858L72.6974 410.489C68.4968 411.823 8.60857 411.071 0 410.881V408.213Z" fill="#110CFE"/>
<path d="M184.484 572.506C184.344 571.968 184.23 570.654 184.158 570.044C183.131 571.067 184.319 572.138 183.44 574.195C182.73 572.712 182.413 570.222 182.494 568.565L183.009 568.205C189.944 567.958 238.941 567.328 242.294 568.763L242.798 570.772C230.012 570.881 217.226 570.913 204.44 570.873C199.985 570.861 189.182 570.493 185.263 570.889C184.749 571.653 184.755 571.629 184.484 572.506Z" fill="#CCCCFF"/>
<path d="M553.688 567.877C569.003 568.148 583.683 567.881 598.933 567.894C595.703 568.488 595.816 569.551 594.983 569.809C588.79 571.729 561.225 571.382 556.438 570.016C556.122 569.502 555.876 569.001 555.633 568.447L553.688 567.877Z" fill="#9393FF"/>
<path d="M316.979 353.807C317.357 359.454 318.127 395.994 316.753 397.643C316.041 397.697 315.335 397.766 314.623 397.773C314.975 387.106 312.911 361.763 316.979 353.807Z" fill="#CCCCFF"/>
<path d="M406.262 567.89C419.802 568.16 433.342 568.144 446.877 567.833C444.536 568.447 444.201 569.838 443.461 569.959C433.552 571.6 421.01 571.249 411.032 570.464C408.348 570.25 410.576 569.114 406.262 567.89Z" fill="#9393FF"/>
<path d="M59.1856 567.991C62.1693 567.805 66.3295 568.092 69.521 568.104C76.4365 568.116 83.352 568.039 90.2659 567.877C88.4223 568.581 89.3077 569.624 86.7809 570.092C81.7708 571.03 63.1501 572.025 59.1436 569.611L59.501 568.67L59.1856 567.991Z" fill="#9393FF"/>
<path d="M91.7844 341.066L92.0108 340.361C92.6205 341.014 92.7814 341.238 93.6438 341.495L93.7449 342.322C93.8743 344.905 94.0234 365.597 93.7243 367.438C92.8388 367.641 93.271 367.637 92.4293 367.482C90.1588 363.403 91.1153 346.358 91.7844 341.066Z" fill="#CCCCFF"/>
<path d="M91.7842 341.066L92.0106 340.361C92.6203 341.014 92.7812 341.238 93.6435 341.495L93.7446 342.322C93.6419 343.38 93.4859 344.61 93.4539 345.656L92.6126 345.653C92.4945 343.504 92.4529 343.103 91.7842 341.066Z" fill="#110CFE"/>
<path d="M92.6127 345.653L93.454 345.656C93.4657 346.974 93.661 348.386 93.0541 349.479C92.4182 348.363 92.6078 347.001 92.6127 345.653Z" fill="#4F4BFF"/>
<path d="M560.101 408.233L560.994 408.076L561.33 407.478L562.045 407.575L560.76 407.199L560.869 406.75C565.106 404.389 581.739 404.838 586.671 405.715C585.001 405.828 581.52 405.659 580.425 406.144L580.574 406.677C584.597 407.146 586.263 406.871 590.524 408.197C579.992 408.254 571.017 407.849 560.101 408.233Z" fill="#110CFE"/>
<path d="M410.523 408.241C411.404 407.465 411.526 407.077 412.011 406.043C414.566 404.596 429.699 405.141 432.897 405.691L433.685 407.591L436.083 408.205C426.962 407.959 419.725 407.813 410.523 408.241Z" fill="#110CFE"/>
<path d="M234.062 408.237C234.453 407.509 234.791 406.77 235.106 406.006C237.018 404.797 247.199 405.173 249.929 405.505C251.104 405.65 251.394 406.952 252.032 408.193C245.887 407.671 240.19 407.954 234.062 408.237Z" fill="#110CFE"/>
<path d="M227.155 555.412C235.758 554.155 241.929 555.404 250.478 556.212C243.481 557.651 234.086 556.746 227.155 555.412Z" fill="#E8E8FF"/>
<path d="M424.556 184.565C441.201 184.603 463.486 185.22 479.819 184.473C479.411 196.69 479.674 209.8 479.666 222.308C479.654 243.673 481.299 265.335 464.67 281.846C455.214 291.232 437.764 297.146 424.548 297.739C424.455 288.941 424.447 280.142 424.516 271.344C434.587 270.62 444.116 265.523 447.043 255.192C447.221 251.736 447.472 248.284 447.803 244.84C444.569 244.855 426.614 245.45 424.653 243.911L424.475 242.112L424.556 184.565Z" fill="#FE3D6B"/>
<path d="M424.476 242.112C426.748 243.391 445.378 242.44 449.801 242.757C450.047 246.517 450.355 250.255 448.054 253.464C447.662 254.006 447.326 254.585 447.043 255.192C447.221 251.736 447.472 248.284 447.803 244.839C444.569 244.855 426.614 245.45 424.653 243.911L424.476 242.112Z" fill="#A538AF"/>
<path d="M652.511 353.193C665.335 353.082 678.156 353.047 690.976 353.086C694.368 353.091 706.748 353.345 709.513 352.991C711.102 353.26 710.9 352.959 711.712 353.907C712.185 362.058 711.708 371.406 711.878 379.666C711.923 381.996 711.963 392.186 711.676 393.925C711.757 394.835 711.749 395.343 711.728 396.26C710.026 397.578 658.919 396.888 651.86 396.677C651.662 393.413 651.322 388.525 652.054 385.379C652.095 383.41 652.115 381.442 652.111 379.473C652.095 370.909 652.095 362.345 651.986 353.783C652.159 353.586 652.337 353.39 652.511 353.193Z" fill="#FEFEFE"/>
<path d="M651.86 396.678C651.662 393.413 651.322 388.525 652.054 385.379C652.111 388.228 652.107 391.077 652.054 393.925C656.793 394.463 670.842 394.233 676.247 394.151C687.341 393.984 700.788 394.561 711.676 393.925C711.757 394.835 711.749 395.343 711.728 396.26C710.026 397.578 658.919 396.888 651.86 396.678Z" fill="#110CFE"/>
<path d="M652.511 353.193C665.335 353.082 678.155 353.047 690.976 353.086C694.368 353.091 706.747 353.345 709.513 352.991L709.496 355.295C703.197 356.404 657.827 356.224 654.322 354.015C653.57 353.54 654.294 353.866 653.162 353.431C652.947 353.348 652.729 353.273 652.511 353.193Z" fill="#E8E8FF"/>
<path d="M709.513 352.991C711.102 353.26 710.9 352.959 711.712 353.907C712.185 362.058 711.708 371.406 711.878 379.666C711.922 381.996 711.963 392.186 711.676 393.925C700.788 394.561 687.341 393.984 676.247 394.151C670.842 394.232 656.793 394.463 652.054 393.925C656.004 393.473 666.722 393.732 671.173 393.734L709.505 393.744L709.497 355.295L709.513 352.991Z" fill="#CCCCFF"/>
<path d="M124.018 0H127.889C127.833 7.34021 117.221 32.8313 114.363 40.698L96.7104 89.5646C95.4591 92.9304 94.042 98.9441 93.0503 101.324C92.6201 100.361 92.9707 100.748 92.0586 100.086L91.7452 100.35L90.1814 99.5043C89.2867 98.033 89.2689 97.8455 88.8193 96.1499C91.837 88.8455 93.6022 83.0893 96.1193 75.8564L106.912 45.4587C111.016 34.1066 115.788 23.2183 119.05 11.521C120.014 8.06256 122.798 3.90013 124.018 0Z" fill="#110CFE"/>
</svg>
