<svg width="1365" height="510" viewBox="0 0 1365 510" fill="none" xmlns="http://www.w3.org/2000/svg">
<path d="M1127.21 34C1132.82 35.9655 1136.09 64.2719 1139.89 69.2075C1141.61 69.4961 1145.93 65.7008 1147.77 64.8852C1150.26 63.5812 1153.68 62.4204 1155.98 60.8314C1161.2 57.2282 1166.64 54.201 1172.03 50.8831C1172.7 50.4706 1172.86 50.4836 1173.52 50.6825C1174.35 52.4587 1170.94 56.8611 1169.98 58.6274C1165.53 66.8282 1159.96 74.7587 1156.72 83.5329C1155.91 85.6994 1161.6 86.6329 1163.05 86.8989C1171.34 88.4221 1179.19 91.6903 1187.38 93.4623C1188.68 93.7441 1189.49 93.5269 1190.97 94.0654L1190.95 94.4531C1190.26 94.6544 1190.2 94.6536 1189.58 95.0072L1189.4 95.975C1187.84 97.2302 1181.22 98.0933 1179.02 98.8325C1176.22 99.773 1173.58 100.848 1170.76 101.738C1167.38 102.803 1160.19 104.028 1157.36 105.555C1155.67 107.999 1164.38 121.391 1166.07 124.123C1169.15 129.117 1172.34 136.139 1176.27 140.29C1168.89 138.412 1163.64 133.851 1157.07 130.348C1151.39 127.32 1145.08 124.528 1139.84 120.701C1136.95 131.809 1133.84 142.858 1130.51 153.842C1130.42 156.09 1130.87 157.433 1130.61 160.26C1126.57 152.306 1123.99 143.367 1121.5 134.829C1120.74 132.253 1119.75 124.17 1117.53 122.949C1116.2 122.895 1106.41 128.77 1103.89 129.99C1097.4 133.141 1092.84 137.649 1085.45 139.971C1087.09 137.195 1088.42 133.997 1089.95 131.121C1091.34 128.489 1093.36 125.87 1094.69 123.283C1097.61 117.58 1100.11 112.23 1103.43 106.714C1099.32 105.054 1094.45 104.218 1090.1 103.031C1085.18 101.688 1080.52 100.031 1075.68 98.5705C1073.16 97.8086 1069.6 97.1682 1066.87 96.4691L1066.76 96.1745C1070.62 93.5097 1085.87 89.5795 1090.98 87.9989C1094.46 86.9236 1099.96 86.2679 1102.89 83.9032L1103.19 83.6599C1100.04 78.6964 1097.86 74.2628 1095.13 69.1457C1093.54 66.1615 1090.83 62.9142 1089.22 59.9483C1087.36 56.5229 1086.67 54.1775 1084.39 50.9344C1091.47 52.5547 1112.14 67.5627 1117.48 67.7768C1118.89 66.4647 1120.08 60.8619 1120.5 58.8785C1122.17 51.1902 1124.75 43.7374 1126.7 36.1462C1126.9 35.3446 1126.9 34.8894 1127.21 34ZM1118.98 95.6994C1116.32 95.3054 1108.35 95.4123 1105.84 95.974C1103.17 95.835 1100.14 95.4165 1097.84 96.5411C1093.79 96.3648 1091.39 95.0001 1086.68 96.181L1086.45 96.4717C1087.33 97.2292 1088.79 97.3997 1089.88 97.0748C1091.4 97.5867 1096.42 98.9848 1097.86 98.5976C1102.31 99.5229 1107.8 101.298 1112.41 102.208C1117.59 103.17 1123.21 103.784 1128.22 105.355C1129.61 105.792 1127.97 111.585 1130.16 113.496C1130.99 116.789 1130.35 121.562 1129.94 124.931C1130.82 125.176 1131.46 125.491 1132.29 125.861C1133.34 121.877 1137.57 96.7622 1138.36 95.8676C1138.94 95.2134 1140.21 95.2642 1141 95.2442C1144.14 95.2856 1152.2 95.6504 1154.86 95.1798C1160.46 94.1905 1164.6 94.7907 1170.11 94.4072C1171.2 94.5 1171.32 94.5626 1172.31 94.185C1171.33 93.3971 1167.16 93.5118 1165.66 93.4831C1163.84 92.5898 1162.64 92.8993 1160.71 92.3989C1160.03 92.2211 1159.45 91.8806 1158.71 91.6697L1158.33 91.5638C1152.97 90.3667 1147.59 89.293 1142.19 88.3431C1140.14 87.9765 1130.71 86.4864 1129.16 85.7954C1128.35 84.6322 1128.49 83.5958 1128.54 82.1899C1128.78 79.6833 1127.63 78.8479 1127.66 77.3552C1127.71 74.5306 1128.29 71.1164 1128.33 68.2777C1128.35 67.4034 1126.4 63.7937 1126.46 63.0876C1126.62 61.0491 1127.31 59.6247 1127.19 57.4246C1127.45 55.9063 1128.25 51.9537 1127.43 50.7C1126.88 52.4214 1126.86 55.5975 1126.18 58.1155L1125.98 59.6364C1125.76 61.3701 1124.17 67.6949 1124.31 68.4696C1122.78 73.8769 1122.05 79.7845 1120.94 85.3326C1120.3 88.5335 1120.12 92.6868 1118.98 95.6994ZM1150.38 70.4374C1147.73 71.6603 1143.43 73.6302 1142.25 76.5036C1141.82 77.5421 1142.26 79.8622 1143.2 80.4987C1144.35 80.2249 1150.87 73.431 1151.78 72.2084C1152.85 71.1805 1153.62 69.8763 1154.82 69.1371C1155.72 68.6287 1157.35 66.9164 1158.16 66.1169C1158.95 65.6533 1160.91 63.2326 1161.53 62.4441C1160.51 63.029 1156.7 65.6651 1155.89 66.4757C1155.09 66.865 1154.44 67.1158 1153.78 67.7163C1152.78 68.4229 1151.13 69.5321 1150.38 70.4374ZM1129.93 137.47C1130.16 136.506 1130.46 134.021 1129.25 133.623C1128.79 134.337 1128.97 135.13 1129.01 136.024C1128.93 138.086 1129 139.109 1129.21 141.177L1129.93 137.47ZM1104.04 124.013C1106.47 121.766 1115.19 118.751 1115.51 114.35C1115.57 113.644 1115.06 112.15 1114.48 111.627C1112.75 112.486 1104.55 121.462 1103.05 123.294C1102.1 123.617 1100.16 125.653 1099.56 126.52L1099.67 126.745C1100.69 126.295 1103.35 124.785 1104.04 124.013ZM1103.8 73.4036C1105.87 75.9362 1107.12 81.0893 1110.74 81.8199C1111.51 81.9742 1113.29 81.7943 1113.94 81.3005L1113.95 80.7834C1112.41 77.66 1108.89 75.2051 1106.43 72.7322C1106.13 72.3914 1105.75 71.9938 1105.32 71.8243C1103.89 71.2616 1098.51 64.3694 1097.75 64.213C1098.16 66.4598 1102.37 70.8335 1103.8 73.4036ZM1153.55 118.298C1154.46 119.205 1160.25 125.562 1160.79 125.564C1160.85 124.729 1155.29 116.257 1154.4 115.332C1153.07 112.649 1149.62 107.419 1145.96 108.881C1144.73 111.086 1151.9 116.881 1153.55 118.298Z" fill="#090909"/>
<path d="M1116.32 99.0256L1116.66 98.9792C1117.79 98.8326 1118.86 98.5602 1119.73 99.2295L1119.57 99.6824C1118.61 99.7898 1116.98 99.8837 1116.16 99.3779L1116.32 99.0256Z" fill="#090909"/>
<path d="M1126.18 58.1158C1126.26 58.7197 1126.33 58.8884 1126.52 59.4732L1126.66 59.4109C1126.81 58.7403 1126.97 58.0777 1127.19 57.4248C1127.31 59.6249 1126.62 61.0494 1126.46 63.0879C1126.4 63.794 1128.35 67.4037 1128.33 68.2779C1128.29 71.1166 1127.71 74.5308 1127.66 77.3554C1127.63 78.8482 1128.78 79.6836 1128.54 82.1901L1128.17 81.2963C1121.87 76.4566 1128.54 72.2118 1126.11 68.9879C1125.23 68.5509 1125.29 68.5658 1124.31 68.4698C1124.17 67.6952 1125.77 61.3704 1125.98 59.6367L1126.18 58.1158Z" fill="#090909"/>
<path d="M1158.33 91.564L1158.71 91.6698C1159.45 91.8808 1160.03 92.2213 1160.71 92.3991C1162.64 92.8995 1163.84 92.59 1165.66 93.4833C1164.57 93.3939 1163.72 93.2238 1162.72 93.633C1163.4 94.3315 1168.77 94.2022 1170.11 94.4074C1164.6 94.7909 1160.46 94.1907 1154.86 95.1799C1152.2 95.6506 1144.14 95.2858 1141 95.2443C1145.84 93.5234 1149.91 95.9147 1154.4 93.9266C1154.99 93.6676 1158.05 92.3089 1158.44 92.0925L1158.33 91.564Z" fill="#090909"/>
<path d="M1086.68 96.181C1091.39 95.0001 1093.79 96.3648 1097.84 96.541C1100.14 95.4165 1103.17 95.835 1105.84 95.9739C1103.87 96.2378 1102.21 96.292 1100.23 96.3708C1099.44 97.1744 1098.76 97.9086 1097.86 98.5975C1096.42 98.9847 1091.4 97.5866 1089.88 97.0748L1089.76 96.5231C1088.9 96.0803 1087.69 96.1906 1086.68 96.181Z" fill="#090909"/>
<path d="M1154.4 115.332C1155.29 116.257 1160.85 124.729 1160.79 125.564C1160.25 125.562 1154.46 119.205 1153.55 118.298C1154.5 118.57 1154.57 118.557 1155.11 117.83C1155.16 116.712 1154.89 116.388 1154.4 115.332Z" fill="#090909"/>
<path d="M1103.8 73.4035C1102.37 70.8334 1098.16 66.4597 1097.75 64.2129C1098.52 64.3693 1103.89 71.2615 1105.32 71.8242C1105.75 71.9937 1106.13 72.3913 1106.43 72.7321C1105.25 72.5347 1104.95 72.2576 1104.1 72.6787L1103.8 73.4035Z" fill="#090909"/>
<path d="M1153.78 67.7161C1154.87 67.3858 1154.83 67.2077 1155.76 67.4382C1155.71 68.2953 1155.46 68.3112 1154.82 69.1369C1153.62 69.8761 1152.85 71.1804 1151.78 72.2082C1151.85 71.7146 1152.07 70.923 1152.19 70.412L1152.04 70.1796C1151.35 70.3948 1151.1 70.4529 1150.38 70.4373C1151.13 69.532 1152.78 68.4228 1153.78 67.7161Z" fill="#090909"/>
<path d="M1170.11 94.4074C1168.77 94.2022 1163.4 94.3315 1162.72 93.633C1163.72 93.2238 1164.57 93.3939 1165.66 93.4833C1167.16 93.512 1171.33 93.3972 1172.31 94.1852C1171.32 94.5628 1171.2 94.5002 1170.11 94.4074Z" fill="#090909"/>
<path d="M1126.18 58.1157C1126.86 55.5977 1126.88 52.4216 1127.43 50.7002C1128.25 51.9538 1127.45 55.9064 1127.19 57.4247C1126.97 58.0776 1126.81 58.7402 1126.66 59.4108L1126.52 59.4731C1126.33 58.8883 1126.26 58.7196 1126.18 58.1157Z" fill="#090909"/>
<path d="M1104.04 124.013C1103.35 124.785 1100.69 126.295 1099.67 126.745L1099.56 126.52C1100.16 125.653 1102.1 123.616 1103.05 123.294L1103.21 123.91C1103.55 123.971 1103.7 124.028 1104.04 124.013Z" fill="#090909"/>
<path d="M1155.89 66.4756C1156.79 66.0062 1157.27 65.5544 1158.14 65.6456L1158.16 66.1168C1157.35 66.9162 1155.72 68.6285 1154.82 69.137C1155.46 68.3112 1155.71 68.2953 1155.76 67.4382C1154.83 67.2077 1154.87 67.3858 1153.79 67.7162C1154.44 67.1157 1155.09 66.8649 1155.89 66.4756Z" fill="#090909"/>
<path d="M1129.01 136.025C1128.97 135.13 1128.79 134.337 1129.25 133.624C1130.46 134.022 1130.16 136.506 1129.93 137.47C1129.61 136.72 1129.5 136.673 1129.01 136.025Z" fill="#090909"/>
<path d="M1155.89 66.4759C1156.7 65.6653 1160.51 63.0292 1161.53 62.4443C1160.91 63.2328 1158.96 65.6536 1158.16 66.1172L1158.14 65.646C1157.27 65.5547 1156.79 66.0066 1155.89 66.4759Z" fill="#090909"/>
<path d="M1086.68 96.1809C1087.69 96.1905 1088.9 96.0802 1089.76 96.5229L1089.88 97.0747C1088.79 97.3996 1087.33 97.229 1086.45 96.4716L1086.68 96.1809Z" fill="#090909"/>
<path d="M1129.01 136.024C1129.5 136.673 1129.61 136.72 1129.93 137.47L1129.22 141.177C1129 139.109 1128.93 138.086 1129.01 136.024Z" fill="#090909"/>
<path d="M1157.32 413.262C1174.44 412.102 1189.23 425.071 1190.32 442.189C1191.41 459.304 1178.38 474.046 1161.26 475.063C1144.24 476.078 1129.6 463.139 1128.52 446.123C1127.43 429.107 1140.31 414.417 1157.32 413.262ZM1158.95 464.102C1165.07 464.448 1168.04 464.295 1172.67 459.784C1183.93 448.791 1178.82 424.106 1161.16 423.827C1160.81 423.822 1160.47 423.827 1160.13 423.843C1153.49 424.714 1149.76 423.966 1144.89 430.13C1139.95 436.382 1140.19 442.048 1140.89 449.643C1141.26 453.643 1144.79 459.533 1148.2 461.703C1151.97 464.099 1154.6 464.589 1158.95 464.102Z" fill="#090909"/>
<path d="M1307.24 178.204C1311.36 178.224 1315.49 178.172 1319.61 178.048C1334.03 177.71 1347.8 177.971 1347.64 196.81C1347.57 204.324 1344.05 211.591 1337.2 215.109C1346.56 222.497 1348.94 237.42 1357.49 247.693C1360.08 248.666 1363.59 248.523 1364.67 250.144C1364.44 250.674 1364.35 250.742 1363.79 250.974C1360.69 252.254 1351.22 252.296 1348.15 250.961C1341.4 248.022 1336.39 223.075 1328.51 219.654C1324.94 218.102 1320.16 220.069 1316.23 219.264C1316.46 224.526 1316.53 229.793 1316.44 235.058C1316.37 238.333 1315.86 242.135 1316 245.381C1316.03 246.028 1316.96 247 1317.44 247.532C1319.64 247.967 1324.51 248.559 1326.12 249.678L1326.28 250.071C1324.14 252.217 1297.36 252.397 1293.29 249.928C1294.07 248.713 1301.98 247.777 1303.92 247.245L1303.98 247.023C1304.74 243.892 1306.6 238.942 1305.34 235.882C1302.85 229.84 1303.65 222.985 1303.55 216.357C1303.43 208.304 1302.91 199.305 1304.88 191.479C1306.18 186.47 1301.7 183.953 1297.73 182.853C1295.58 182.661 1293.25 182.626 1291.08 182.553C1291.14 181.139 1291.18 179.725 1291.22 178.311C1296.54 177.941 1301.92 178.011 1307.24 178.204ZM1315.39 214.45C1316.91 214.482 1318.56 214.559 1320.07 214.473C1325.45 214.165 1329.44 215.518 1333.63 211.497C1338.8 202.94 1340.62 191.658 1332 184.578C1329.83 182.795 1319.08 183.582 1316 183.423C1316.67 191.697 1317.01 206.555 1315.39 214.45Z" fill="#090909"/>
<path d="M1291.22 178.311C1296.54 177.941 1301.92 178.011 1307.24 178.204C1309.82 178.507 1311.94 179.229 1314.32 179.376L1314.5 179.814L1314.35 180.058C1312.26 180.208 1311.14 181.027 1308.48 180.721C1306.37 180.478 1303.37 180.721 1301.21 180.74C1299.94 180.874 1298.89 182.486 1297.73 182.854C1295.58 182.662 1293.25 182.626 1291.08 182.553C1291.14 181.139 1291.18 179.725 1291.22 178.311Z" fill="#090909"/>
<path d="M1304.89 199.602L1305.53 199.825C1305.7 200.315 1305.87 200.807 1305.88 201.633C1305.95 206.646 1306.24 212.292 1305.56 217.23C1305.35 217.475 1305.14 217.719 1304.93 217.964C1302.94 216.047 1303.22 201.8 1304.89 199.602Z" fill="#090909"/>
<path d="M1227.55 270.472C1222.69 262.42 1214.99 264.978 1213.59 262.478C1215.28 260.41 1229.19 261.534 1232.77 261.367C1240.28 260.913 1247.53 260.697 1255.03 260.991C1265.29 261.398 1269.43 267.51 1269.83 277.225C1270.2 286.051 1267.1 292.76 1259.03 296.82C1270.63 304.806 1272.02 325.488 1282.24 330.881L1285.88 330.291C1285.48 331.353 1284.75 333.48 1283.53 333.731C1280.08 334.435 1274.03 334.338 1270.75 332.779C1269.72 332.291 1268.41 331.473 1267.88 330.656C1264.17 324.949 1261.85 318.621 1258.76 312.532C1257 309.062 1253.96 304.676 1252.8 301.419C1249.54 300.58 1241.53 300.249 1238.37 300.658C1237.87 301.461 1237.95 302.621 1237.91 303.615C1237.52 304.514 1237.63 320.203 1237.92 321.437C1238.16 324.12 1238.24 326.279 1238.29 328.949L1238.74 329.071C1241.51 329.804 1246.89 329.879 1248.2 331.282L1248.16 331.775C1245.88 333.647 1230.3 333.441 1226.89 333.019C1225.32 332.761 1222.6 332.748 1220.92 332.693C1219.51 332.492 1214.99 331.937 1214.59 330.388C1217.16 329.131 1223.47 331.055 1226.44 328.362C1227.29 327.595 1227.65 324.31 1227.7 323.079C1228.01 315.851 1227.88 308.358 1227.81 301.12L1227.55 270.472ZM1237.93 296.025C1240.24 295.759 1241.77 295.928 1243.81 295.764C1247.6 295.735 1253.17 296.186 1255.78 293.175C1259.95 288.361 1260.41 283.233 1260.11 277.092C1259.94 273.52 1258.98 271.074 1256.42 268.508C1255.59 267.682 1253.09 266.201 1251.88 266.149C1248.18 266.224 1241.62 266.044 1238.17 266.404C1237.17 267.828 1239.29 270.634 1239.36 272.135C1239.61 278.187 1239.99 284.622 1238.63 290.559C1238.05 292.948 1238.03 293.707 1237.93 296.025Z" fill="#090909"/>
<path d="M971.214 333.835C968.701 328.12 966.518 320.089 964.157 314.29C961.427 307.581 954.667 281.413 950.43 276.991L950.05 277.069C949.93 277.622 949.795 278.174 949.646 278.722C947.741 285.686 944.007 292.247 941.433 298.937C938.969 305.951 936.77 312.467 933.543 319.205C930.697 325.145 928.734 330.166 922.532 333.673C919.304 332.565 917.328 319.591 916.521 316.125C913.834 304.515 911.293 292.867 908.901 281.191C908.064 277.124 907.974 271.552 905.778 268.016C902.844 263.294 896.859 264.488 895.227 262.733L895.302 262.277C897.45 260.814 906.025 261.513 909.054 261.719C913.056 261.99 921.99 260.958 925.443 262.016L925.629 262.551C924.766 264.751 921.087 263.646 919.902 264.791C920.247 265.51 920.369 265.385 921.217 265.865C920.876 266.574 921.132 266.329 920.452 266.655C919.309 266.264 918.164 265.839 917.469 266.963C917.038 270.973 918.454 279.288 919.336 283.423C921.812 295.024 923.461 306.999 926.243 318.516C929.446 314.686 930.88 310.131 932.831 305.633C934.021 302.893 935.563 300.317 936.697 297.55C938.402 293.391 948.385 265.479 950.155 263.868C951.061 263.041 953.634 261.612 954.862 261.813C955.627 261.938 956.26 262.759 956.614 263.396C959.811 269.145 961.561 276.302 963.655 282.521C965.784 288.847 968.21 295.063 970.313 301.407C971.634 305.391 973.83 314.073 976.223 317.192L976.923 317.085C978.498 315.299 981.405 302.786 982.512 299.657C985.865 290.174 988.004 279.585 987.706 269.484C987.633 267.017 986.905 266.149 985.356 264.407C980.755 263.667 978.328 263.904 974.079 262.115C977.671 261.536 1001.13 261.234 1004.46 261.917L1004.75 262.488C1003.7 264.517 1000.21 263.854 998.094 264.605L998.056 264.95L999.399 266.045L999.315 266.478C998.906 266.407 997.702 266.18 997.443 266.475C994.648 269.646 993.861 277.572 992.775 281.541C991.975 284.894 990.61 288.249 989.786 291.579C987.492 300.851 985.576 309.729 982.266 318.699C979.062 327.382 979.362 328.748 971.214 333.835Z" fill="#090909"/>
<path d="M1072.4 267.758C1068.26 263.906 1060.54 264.365 1059.36 262.355C1060.68 259.641 1077.03 261.448 1079.84 262.35C1080.75 263.562 1081.75 265.03 1082.8 266.115C1086.38 269.817 1089.32 273.796 1092.46 277.877L1106.6 296.03C1109.41 299.659 1111.94 303.393 1114.68 306.986C1116.12 308.869 1119.15 311.857 1120.9 313.799C1119.47 306.9 1120.02 302.681 1120.06 295.735L1120.05 276.891C1120.04 274.673 1120.19 269.439 1119.66 267.687C1118.63 264.264 1111.42 264.386 1107.73 262.569L1107.6 262.152C1109.92 259.954 1123.04 261.601 1126.65 261.393C1129.09 261.252 1137.7 260.527 1139.22 262.227C1138.72 266.918 1127.81 260.613 1128.09 269.862C1128.22 274.446 1128.41 281.689 1128.42 286.341C1128.5 301.133 1128.36 315.927 1128 330.716C1125.77 333.579 1125.24 333.045 1122.01 332.192C1117.77 327.989 1113.95 322.271 1110.35 317.588C1108.77 315.567 1106.77 313.656 1105.23 311.609C1096.99 300.653 1088.21 289.793 1079.93 278.92C1080.48 281.168 1080.51 281.598 1080.3 283.965C1079.06 297.902 1079.62 312.042 1079.58 326.026C1079.58 326.701 1080.1 328.234 1080.33 328.928C1083.56 330.135 1089.04 330.078 1090.51 331.134C1090.06 332.114 1090.26 332.109 1089.17 332.521C1083.19 334.797 1076.7 333.439 1070.96 333.866C1068.83 333.793 1063.13 332.805 1062.09 331.092C1063.13 329.739 1066.84 329.968 1068.65 329.441C1069.81 329.102 1070.42 328.863 1071.53 328.391C1071.83 325.882 1071.86 322.167 1071.84 319.619C1071.69 305.067 1072.51 290.578 1072.71 276.047C1072.74 273.486 1072.73 270.227 1072.4 267.758Z" fill="#090909"/>
<path d="M1251.19 178.725C1251.72 178.753 1253.15 178.831 1253.34 179.286C1254.5 182.071 1255.13 185.713 1256.09 188.521C1256.78 190.476 1257.94 192.23 1258.56 194.214C1261.81 204.621 1265.02 215.08 1268.79 225.31C1270.97 231.228 1273.68 242.869 1278.02 247.219C1279.87 247.86 1283.71 248.098 1284.48 250.077C1282.75 252.011 1274.15 251.026 1271.26 251.5C1269.17 251.842 1260.97 251.167 1259.28 250.163L1259.19 249.712C1260.12 248.723 1263.57 248.319 1263.75 247.378C1264.5 243.422 1260.48 232.66 1259.44 228.789C1251.61 228.38 1243.03 228.776 1235.09 228.68C1234.2 228.644 1232.86 228.568 1232.43 229.565C1230.94 233.066 1226.78 243.552 1227.75 246.901C1230.05 248.752 1234.18 247.133 1235.66 249.25C1235.66 250.204 1235.82 250.194 1235.37 250.872C1233.04 251.931 1224.25 251.24 1221.21 251.237C1216.53 251.232 1211.08 251.808 1206.61 250.374C1206.01 250.181 1205.88 249.464 1205.73 248.958C1205.98 248.056 1205.72 248.369 1206.41 247.905C1208.77 249.417 1212.09 247.892 1214.71 247.506C1216.44 247.031 1218.15 245.497 1218.99 244.013C1223.38 236.271 1226.03 227.463 1229.44 219.25C1230.18 217.47 1230.61 214.874 1231.34 213.38C1235.95 203.878 1238.6 193.823 1242.62 184.154C1243.88 181.151 1248.21 179.553 1251.19 178.725ZM1234.66 222.898C1240.05 221.985 1241.47 222.922 1246.43 222.809C1249.85 222.903 1254.17 223.251 1257.44 222.542C1255.68 218.496 1254.64 213.365 1253.19 209.108C1251.36 203.696 1248.4 197.521 1247.23 191.992C1246.99 191.791 1246.89 191.648 1246.63 191.544C1241.78 199.694 1239.82 205.976 1237.13 214.925C1236.4 217.373 1235.53 220.55 1234.66 222.898Z" fill="#090909"/>
<path d="M1104.94 413.33C1107.03 413.15 1113.92 412.313 1115.35 413.333C1116.12 415.053 1115.34 417.171 1116.23 418.344L1116.99 417.577C1118.1 419.225 1118.1 455.706 1117.77 460.146C1117.41 461.228 1116.46 463.403 1116.34 464.227C1115.54 465.009 1115.64 470.018 1115.72 471.348C1115.72 472.61 1115.9 472.727 1115.28 473.582C1113.55 474.216 1106.94 473.47 1104.86 473.207C1105.03 469.077 1104.83 463.823 1104.79 459.64C1104.74 454.509 1103.83 451.672 1104.94 446.405C1098.99 447.427 1086.54 447.203 1080.32 446.921C1080.1 447.435 1080.12 448.942 1080.21 449.471C1080.37 450.324 1081.29 451.748 1081.34 452.788C1081.51 456.175 1081.7 464.201 1080.83 467.1L1080.39 467.194C1079.67 468.002 1080.21 473.087 1078.97 473.499C1076.76 474.229 1070.53 473.582 1068.15 473.431C1068.5 463.119 1067.44 452.201 1068.1 441.795C1068.7 432.247 1068.14 422.576 1068.5 413.025C1070.81 413.069 1077.53 412.6 1079.33 413.455C1079.92 414.542 1079.84 416.089 1080.1 417.515C1080.49 417.525 1080.25 417.554 1080.83 417.364C1081.58 418.782 1081.47 422.495 1081.51 424.273L1080.84 422.578L1080.53 422.5C1079.56 423.958 1079.67 434.02 1080.03 435.782L1080.09 436.061L1080.31 436.411C1087.91 436.768 1097.36 436.184 1104.81 436.669C1104.94 428.891 1104.98 421.11 1104.94 413.33Z" fill="#090909"/>
<path d="M1212.79 412.913C1216.71 412.602 1222.08 413.638 1226.35 414.495C1241.66 417.457 1243.48 440.937 1232.13 448.929C1227.74 452.021 1217.57 452.814 1212.37 451.495C1212.25 453.654 1212.23 455.682 1212.22 457.844C1212.27 462.044 1212.76 469.311 1211.69 473.441C1211.39 474.615 1202.3 473.418 1200.72 473.275C1201.04 469.588 1200.26 460.433 1200.23 456.071C1200.01 441.811 1200.26 427.548 1200.97 413.306C1204.71 413.048 1208.96 413.064 1212.79 412.913ZM1212.09 442.126C1215.12 442.165 1219.74 442.476 1222.66 441.709C1223.2 441.571 1224.47 440.567 1224.96 440.163C1230.36 433.133 1228.89 424.604 1218.96 423.009C1217.01 422.698 1214.56 423.233 1212.5 422.873C1211.6 428.516 1212.88 435.47 1212.12 441.85L1212.09 442.126Z" fill="#090909"/>
<path d="M1037.24 247.216C1037.43 246.868 1037.61 246.515 1037.79 246.158C1038.71 244.256 1039.23 239.754 1038.65 237.759C1037.87 235.555 1036.89 234.074 1036.82 231.636C1036.49 220.809 1036.33 209.916 1036.56 199.086C1036.65 194.645 1040.16 192.465 1038.17 187.278C1035.59 180.525 1029.17 183.809 1025.49 182.197C1024.56 181.116 1024.52 179.512 1025.51 178.465C1027.46 177.74 1073.93 178.138 1079.09 178.593C1079.42 181.832 1081.75 191.348 1078.58 193.065C1076.58 192.38 1076.48 188.874 1075.57 187.155C1075.13 186.33 1074.51 185.594 1073.92 184.876C1066.88 183.273 1056.81 185.032 1049.5 184.608C1049.7 192.723 1049.6 202.266 1049.46 210.386C1051.47 210.349 1060.49 210.644 1061.5 210.456C1063.46 210.541 1065.26 210.682 1067.2 210.452C1070.1 210.191 1072.95 210.905 1075.25 210.535C1075.72 212.657 1074.13 215.019 1072.99 216.691C1068.47 216.859 1063.79 216.337 1059.28 216.107C1055.88 215.935 1052.63 215.98 1049.22 215.723C1049.47 220.251 1049.55 224.787 1049.46 229.321C1049.4 233.472 1048.15 245.798 1054.52 245.754C1060.14 245.749 1066 246.06 1071.59 245.651C1075.53 245.363 1077.02 239.303 1079.4 236.251L1079.73 235.84C1080 239.609 1079.66 248.199 1077.09 251.101C1075.94 251.506 1069.02 252.77 1067.8 252.833C1064.45 253.002 1061.06 251.719 1057.68 251.534C1054.9 251.383 1052.07 251.213 1049.28 251.263C1042.34 251.383 1030.24 252.705 1023.98 249.751C1028.39 248.244 1032.65 248.424 1037.24 247.216Z" fill="#090909"/>
<path d="M1038.41 197.367L1038.59 197.551C1039.29 199.534 1039.14 219.481 1038.49 221.324L1037.74 221.636C1035.8 219.608 1036.81 204.017 1036.94 200.551C1036.99 199.186 1037.45 198.305 1038.41 197.367Z" fill="#090909"/>
<path d="M1146.12 261.609C1151.35 261.495 1199.15 260.368 1200.49 261.604C1201.05 263.255 1202.23 271.963 1201.29 273.948C1200.94 274.672 1200.66 274.701 1200.03 274.988C1197.65 274.678 1199.28 269.377 1197.28 268.068C1192.4 264.863 1186.66 267.054 1181.26 266.902C1177.72 266.798 1174.25 266.428 1170.71 266.331C1171.05 270.185 1170.95 274.826 1170.95 278.737C1170.95 283.141 1171.02 288.025 1170.66 292.382C1174.42 292.411 1195.26 290.797 1196.71 292.194C1197.12 293.936 1195.2 298.077 1194.05 298.035C1187.46 297.792 1176.82 299.26 1170.46 298.303C1171.21 302.491 1170.75 307.469 1170.93 311.471C1171.11 315.468 1170.06 324.083 1173.8 326.534C1177.32 328.849 1187.92 328.174 1192.13 327.595C1194.35 327.29 1196.59 326.159 1197.77 324.289C1199.62 321.697 1198.04 320.341 1200.36 319.34C1202.67 319.564 1201.23 325.408 1200.87 326.962C1200.29 329.371 1199.52 331.731 1198.57 334.02C1195.93 333.757 1193.61 334.062 1190.99 334.062C1186.81 334.062 1182.5 334.148 1178.32 334.049C1175.45 333.66 1172.24 333.864 1169.21 333.504C1163.06 332.771 1156.35 332.588 1150.15 332.296C1148.46 331.848 1147.59 331.78 1146.44 330.476L1146.49 330.023C1148.56 329.006 1152.69 330.127 1154.92 330.057C1155.89 330.025 1158.46 329.131 1159.44 328.771C1159.54 328.161 1159.98 325.515 1159.91 325.071C1159.42 322.216 1158.68 320.266 1158.6 317.272C1158.44 309.02 1158.38 300.768 1158.42 292.512C1158.43 287.874 1158.44 283.204 1158.48 278.589C1158.52 274.649 1161.74 270.803 1158.75 267.098C1155.94 263.627 1151.51 263.539 1147.56 264.391L1146.12 261.609ZM1158.73 306.806C1158.71 308.731 1158.56 310.697 1159.28 312.493L1159.61 312.53C1160.73 310.67 1160.46 307.012 1160.34 304.83C1160.14 305.925 1160.13 307.234 1159.47 307.873C1159.15 307.469 1159.01 307.247 1158.73 306.806Z" fill="#090909"/>
<path d="M1158.73 306.806C1158.65 301.938 1158.2 286.688 1159.47 282.982L1159.87 282.855L1159.75 282.646L1159.51 283.021L1159.99 283.321C1160.63 287.23 1160.36 300.21 1160.35 304.83C1160.14 305.925 1160.13 307.234 1159.47 307.873C1159.15 307.469 1159.01 307.247 1158.73 306.806Z" fill="#090909"/>
<path d="M1160.34 304.83C1160.46 307.012 1160.73 310.671 1159.61 312.53L1159.28 312.493C1158.56 310.697 1158.71 308.731 1158.73 306.806C1159.01 307.247 1159.15 307.469 1159.47 307.873C1160.13 307.234 1160.14 305.925 1160.34 304.83Z" fill="#090909"/>
<path d="M991.657 100.373C989.37 97.7443 986.499 92.5879 985.157 89.4394C984.533 87.9733 983.308 87.2635 983.222 85.7343C985.07 85.0623 996.036 91.8343 999.023 93.1172C1000.8 92.33 1001.5 80.3017 1003.47 77.4536C1005.87 78.5685 1008.5 90.0649 1009.51 92.9263L1009.65 93.3297L1011.19 92.9182C1014.35 92.0833 1015.85 90.6555 1018.62 88.9422C1021.8 86.9697 1023.82 85.8761 1027.38 84.7406C1024.97 91.0318 1020.4 95.2276 1018.16 101.031C1019.13 102.052 1023.86 103.064 1025.67 103.653C1028.02 104.244 1034.46 105.337 1034.95 108.125C1033.63 109.47 1028.85 108.577 1025.52 110.207C1024.7 110.597 1019.53 111.476 1018.34 111.699C1019.37 115.746 1023.98 122.118 1025.97 126.199C1026.51 127.292 1027.11 127.697 1027.61 128.948L1027.35 129.326C1026.59 129.085 1024.73 127.767 1023.82 127.271C1018.37 124.307 1015.68 122.474 1009.86 120.172C1009.08 124.055 1008.09 126.873 1006.77 130.541C1006.21 132.13 1007.8 133.443 1005.71 135.342C1004.06 135.665 1003.26 133.75 1002.88 132.413C1001.77 128.482 1000.25 124.242 999.673 120.223C998.212 121.338 985.707 128.078 983.793 128.766L983.481 128.57C985.537 124.991 989.716 115.532 991.962 113.065C988.491 111.411 983.419 110.001 979.66 109.263C978.171 108.706 975.163 107.799 974.189 106.64L974.383 106.16C975.672 105.426 979.018 104.785 980.614 104.408C983.859 103.474 987.259 102.997 990.228 102.076L991.657 100.373ZM996.179 107.999C995.406 108.553 994.594 108.888 994.469 109.62C995.973 110.66 1001.77 111.06 1003.74 110.681C1005.46 110.348 1006.62 109.539 1008.36 109.391C1009.39 108.151 1009.22 107.295 1010.07 106.222C1011.03 105.022 1012.93 106.24 1013.35 104.484C1012.38 103.493 1004.6 103.182 1002.69 103.15C1002.46 103.147 1002.23 103.148 1002 103.152C1001.88 102.039 1002.01 100.283 1001.56 99.4522C1001.18 100.819 1001.2 101.782 1001.13 103.189C1000.58 104.075 1000.38 106.464 1000.16 107.667C998.834 107.801 997.508 107.912 996.179 107.999ZM981.725 106.544C982.422 107.667 983.677 107.268 984.935 107.166C983.919 106.22 983.064 106.458 981.725 106.544ZM997.137 115.271C996.377 116.224 995.818 116.576 995.761 117.617L996.109 118.173C996.802 117.571 997.188 117.347 997.523 116.491C997.457 115.555 997.652 115.921 997.137 115.271ZM1003.23 86.1919C1003.27 87.4945 1002.62 92.695 1003.17 93.391C1003.2 93.4335 1003.25 93.4595 1003.29 93.4937C1003.69 92.1407 1004.41 87.2213 1003.23 86.1919ZM1005.06 116.58C1004.99 118.407 1004.41 123.178 1005.2 124.447L1005.55 124.551C1005.92 122.826 1006.27 117.824 1005.06 116.58ZM993.245 96.0625C992.612 95.4427 991.599 94.2832 990.784 94.2243C991.073 95.45 991.997 95.6373 992.665 96.4286C993.483 97.4382 994.127 98.4853 995.267 99.0272L995.632 98.8705C995.255 97.4966 994.362 96.911 993.245 96.0625ZM1016.56 93.7836L1016.3 94.0266C1015.1 95.1502 1011.93 97.1047 1011.78 98.0668L1012.28 98.4598C1013.62 97.4478 1016.76 95.5087 1016.95 94.1369L1016.56 93.7836Z" fill="#090909"/>
<path d="M1025.67 103.653C1028.02 104.244 1034.46 105.337 1034.95 108.126C1033.63 109.47 1028.85 108.577 1025.52 110.207L1024.6 109.69L1024.58 109.143C1025.14 108.615 1025.3 108.516 1025.7 107.854C1025.68 106.511 1025.03 105.9 1024.45 104.539C1024.88 103.744 1024.58 104.108 1025.67 103.653Z" fill="#090909"/>
<path d="M979.66 109.263C978.171 108.706 975.163 107.799 974.189 106.64L974.383 106.16C975.672 105.426 979.018 104.785 980.614 104.408C981.398 106.086 980.811 107.016 980.192 108.894L979.66 109.263Z" fill="#090909"/>
<path d="M1005.06 116.58C1006.27 117.824 1005.92 122.826 1005.54 124.551L1005.2 124.447C1004.41 123.178 1004.99 118.407 1005.06 116.58Z" fill="#090909"/>
<path d="M1016.56 93.7837L1016.95 94.137C1016.76 95.5088 1013.62 97.4479 1012.28 98.4598L1011.78 98.0669C1011.93 97.1048 1015.1 95.1502 1016.3 94.0267L1016.56 93.7837Z" fill="#090909"/>
<path d="M1003.23 86.1919C1004.4 87.2213 1003.69 92.1407 1003.29 93.4937C1003.25 93.4596 1003.2 93.4335 1003.17 93.391C1002.62 92.6951 1003.27 87.4946 1003.23 86.1919Z" fill="#090909"/>
<path d="M992.664 96.4286L993.244 96.0625C994.361 96.911 995.254 97.4966 995.631 98.8704L995.266 99.0271C994.126 98.4853 993.482 97.4382 992.664 96.4286Z" fill="#090909"/>
<path d="M997.135 115.271C997.65 115.921 997.455 115.555 997.521 116.491C997.186 117.347 996.8 117.571 996.107 118.173L995.76 117.617C995.816 116.576 996.375 116.224 997.135 115.271Z" fill="#090909"/>
<path d="M1001.13 103.189C1001.2 101.782 1001.18 100.819 1001.56 99.4521C1002.01 100.283 1001.88 102.039 1002 103.152L1001.13 103.189Z" fill="#090909"/>
<path d="M992.664 96.4289C991.997 95.6376 991.073 95.4504 990.783 94.2246C991.598 94.2835 992.612 95.4431 993.245 96.0628L992.664 96.4289Z" fill="#090909"/>
<path d="M981.725 106.544C983.064 106.459 983.919 106.22 984.935 107.167C983.677 107.268 982.422 107.667 981.725 106.544Z" fill="#090909"/>
<path d="M1232.24 85.2924C1239.5 87.1831 1243.08 91.4556 1248.36 92.8589C1249.64 92.472 1252.23 77.7299 1253.15 76.7651C1256.41 79.9238 1257.7 89.9501 1259.53 93.073C1262.63 93.8427 1273.78 83.9864 1276.58 85.3527C1277.05 86.6671 1274.39 89.2323 1273.76 90.451C1272.55 92.8096 1268.35 98.7799 1268.08 101.136C1268.89 102.198 1273.15 102.895 1275.13 103.646C1277.8 104.238 1283.85 105.073 1284.72 108.051C1283.89 109.136 1277.99 109.083 1275.6 110.001C1274.98 110.434 1269.36 111.509 1268.16 111.762C1268.85 114.26 1274.28 124.446 1275.79 126.705C1275.19 127.638 1275.59 127.307 1274.52 127.707C1270.57 126.302 1264.8 121.899 1260.34 120.501C1258.95 121.028 1259.23 123.741 1258.64 124.971C1257.75 126.816 1255.44 135.442 1253.47 135.787C1252.44 129.97 1249.5 125.672 1249.04 120.288C1245.97 122.988 1240.51 124.724 1237.02 127.059C1236.07 127.691 1234.47 129.04 1233.4 128.611L1233.24 128.082C1234.31 127.049 1241.04 114.024 1240.79 112.915C1238.92 111.254 1231.61 109.774 1228.89 109.038C1227.71 108.586 1224.62 107.612 1223.94 106.67C1224.78 105.492 1227.44 105.184 1228.92 104.739C1230.88 104.236 1239.83 102.613 1240.64 101.303C1240.6 99.1882 1233.9 86.9328 1232.24 85.2924ZM1243.19 109.463C1252.47 112.702 1256.28 107.457 1254.97 121.476C1254.89 122.405 1255.26 124.544 1255.46 125.527C1257.04 117.657 1255.97 109.907 1261.83 103.742C1259.76 103.526 1254.44 103.306 1253.06 103.067C1252.37 102.866 1252.28 102.905 1251.74 102.458C1251.43 101.342 1251.58 99.8643 1251.62 98.667C1251.15 99.2922 1250.48 102.169 1250.27 103.059C1248.81 109.288 1248.13 106.891 1243.19 109.463ZM1253.35 85.5636L1253.01 85.4922C1252.48 86.5216 1253 88.4399 1252.87 89.8807C1252.65 92.5147 1251.97 94.5196 1251.84 97.1807C1252.49 95.6439 1254.13 90.9745 1254.07 89.3527C1253.87 87.7163 1253.77 87.1562 1253.35 85.5636ZM1242.22 95.5284C1241.77 94.9013 1241.62 94.5629 1240.9 94.2878L1240.64 94.5631C1240.99 95.4252 1241.23 95.5122 1241.97 96.059C1243.03 97.0668 1243.74 98.7259 1245.17 99.476L1245.61 99.2844C1245.57 97.3838 1243.56 96.8981 1242.22 95.5284ZM1267.19 93.3551C1265.45 94.2654 1263.04 96.1591 1261.6 97.5197L1261.44 98.0607L1261.88 98.7009C1263.06 97.6597 1266.87 94.747 1267.42 93.887C1267.33 93.4224 1267.44 93.5778 1267.19 93.3551ZM1268 119.264C1267.22 117.466 1264.87 113.412 1262.81 113.076C1263.76 115.452 1265.49 118.315 1268 119.264Z" fill="#090909"/>
<path d="M1275.13 103.646C1277.8 104.239 1283.85 105.073 1284.72 108.051C1283.89 109.136 1277.99 109.084 1275.6 110.001C1274.41 108.696 1276.1 108.92 1275.75 107.646C1275.47 106.648 1273.88 105.506 1273.76 104.351C1274.36 103.602 1273.97 103.909 1275.13 103.646Z" fill="#090909"/>
<path d="M1228.89 109.038C1227.71 108.586 1224.62 107.612 1223.94 106.67C1224.78 105.492 1227.44 105.184 1228.92 104.739L1229.97 104.968C1230.8 106.323 1229.42 107.503 1229.57 108.717C1229.25 108.904 1229.24 108.961 1228.89 109.038Z" fill="#090909"/>
<path d="M1262.81 113.076C1264.87 113.412 1267.22 117.466 1268 119.264C1265.49 118.315 1263.76 115.452 1262.81 113.076Z" fill="#090909"/>
<path d="M1267.19 93.355C1267.44 93.5777 1267.33 93.4223 1267.42 93.8869C1266.87 94.7468 1263.06 97.6596 1261.88 98.7007L1261.44 98.0606L1261.6 97.5196C1263.04 96.159 1265.45 94.2652 1267.19 93.355Z" fill="#090909"/>
<path d="M1251.84 97.1807C1251.97 94.5196 1252.65 92.5148 1252.87 89.8807C1253 88.4399 1252.48 86.5216 1253.01 85.4922L1253.35 85.5636C1253.04 86.7993 1252.92 88.879 1253.33 90.0852L1253.57 90.1908L1254.07 89.3527C1254.13 90.9746 1252.49 95.6439 1251.84 97.1807Z" fill="#090909"/>
<path d="M1242.22 95.5283C1243.56 96.898 1245.57 97.3838 1245.61 99.2843L1245.17 99.476C1243.74 98.7258 1243.04 97.0667 1241.97 96.0589L1242.22 95.5283Z" fill="#090909"/>
<path d="M1250.27 103.059C1250.48 102.169 1251.15 99.2923 1251.62 98.667C1251.58 99.8643 1251.43 101.342 1251.74 102.458C1252.28 102.905 1252.37 102.866 1253.06 103.067C1252.2 103.121 1251.14 103.074 1250.27 103.059Z" fill="#090909"/>
<path d="M1253.35 85.5635C1253.77 87.1561 1253.87 87.7162 1254.07 89.3526L1253.57 90.1906L1253.33 90.085C1252.92 88.8788 1253.04 86.7991 1253.35 85.5635Z" fill="#090909"/>
<path d="M1241.97 96.0588C1241.23 95.512 1240.99 95.425 1240.64 94.5629L1240.9 94.2876C1241.62 94.5627 1241.77 94.9011 1242.22 95.5282L1241.97 96.0588Z" fill="#090909"/>
<path d="M966.434 177.473C971.026 177.346 975.964 177.552 980.548 177.92C992.143 178.85 1005.71 176.185 1017.09 178.561C1017.63 183.621 1017.98 190.992 1017.45 196.03C1016.05 195.542 1015.35 195.434 1013.92 195.189C1013.43 182.147 1006.38 183.859 996.266 183.789C994.087 183.774 991.725 184.081 989.659 183.382C989.132 190.996 989.723 200.442 989.551 208.313C989.573 216.836 989.387 225.279 989.895 233.806C990.054 236.467 989.344 243.184 990.781 245.439C992.794 248.596 999.533 246.588 1001.56 249.894C1001.43 250.319 1001.06 251.151 1000.54 251.185C991.182 251.803 981.662 251.289 972.261 251.37C971.005 251.38 968.306 250.994 967.861 249.704C968.754 247.972 975.403 247.136 977.479 246.581C977.916 245.78 978.576 244.577 978.661 243.677C979.036 239.657 978.948 235.107 978.983 231.065C979.081 221.462 979.084 211.859 978.99 202.256C978.93 197.499 978.519 188.068 979.048 183.603C973.17 183.95 966.948 183.218 960.991 184.365C954.21 185.671 955.081 193.213 953.493 195.692C952.585 195.943 950.508 195.215 950.68 194.414C951.475 190.712 950.832 181.57 952.419 178.588C954.616 177.585 963.512 177.601 966.434 177.473Z" fill="#090909"/>
<path d="M1317.37 329.306C1319.46 323.593 1318.78 314.334 1318.38 308.042C1318.25 306.006 1315.75 301.659 1315.07 299.586C1310.81 291.412 1307.41 282.899 1303.2 274.717C1300.33 269.124 1299.88 267.213 1293.57 265.043C1291.94 264.485 1287.68 263.807 1286.87 262.332C1286.8 262.157 1286.76 261.455 1286.75 261.299C1287.14 260.853 1287.9 260.738 1288.47 260.783C1297.96 261.523 1313.08 258.84 1321.6 262.561C1319.06 263.489 1313.05 265.226 1311.53 266.686C1310.22 269.836 1323.12 296.392 1326.16 300.087C1327.2 297.613 1328.79 295.628 1329.87 293.316C1333.6 285.355 1338.05 277.434 1341.22 269.267C1342.99 264.699 1332.82 264.676 1333.78 261.041C1334.54 260.626 1339.43 261.049 1340.38 261.276C1344.79 262.324 1359.04 259.818 1362.01 262.251L1362.26 262.861C1361.18 264.603 1355.62 264.676 1353.5 266.188C1352.22 267.103 1350.45 267.737 1349.27 269.392C1346.79 272.884 1344.74 276.782 1342.6 280.578C1338.3 288.408 1332.67 296.325 1329.68 304.791C1328.69 307.583 1329.64 315.132 1329.47 318.43C1329.29 321.749 1328.64 325.94 1330.17 328.844C1336.64 331.058 1339.17 328.834 1344.28 331.303C1341.29 332.518 1340.18 332.873 1336.87 332.722C1334.14 332.396 1331.89 333.186 1329.77 332.998C1322.61 332.359 1313.26 333.306 1306.5 331.415C1305.58 331.029 1305.49 331.188 1305.15 330.505C1306.56 329.076 1311.9 330.226 1313.88 329.958C1315.07 329.793 1316.2 329.559 1317.37 329.306Z" fill="#090909"/>
<path d="M925.956 177.046C925.967 177.045 925.979 177.044 925.99 177.044C934.601 180.04 941.1 176.267 940.368 188.487C940.232 190.748 941.153 193.826 939.706 195.351C936.897 194.715 936.662 189.638 934.869 187.432C932.488 184.364 929.128 183.419 925.434 183.002C917.657 182.185 908.276 184.71 907.429 194.076C906.408 205.349 919.298 208.769 927.271 212.892C929.232 213.906 931.582 214.511 933.545 215.67C935.763 217.006 937.752 218.69 939.434 220.659C945.452 227.601 943.162 241.314 936.372 247.13C932.247 250.663 924.103 252.452 918.781 253.086C916.566 253.349 912.588 252.833 910.227 252.569C907.614 252.124 903.856 251.759 901.445 251.175C895.396 249.709 897.438 236.326 898.849 232.147C901.852 238.049 901.489 244.531 909.245 246.946C916.496 249.206 930.638 248.872 933.364 239.851C939.349 220.049 906.46 222.408 900.043 208.562C896.643 201.225 898.236 189.27 904.316 183.603C908.111 180.248 913.886 178.033 918.883 177.721C920.431 177.624 924.869 177.953 925.956 177.046Z" fill="#090909"/>
<path d="M1038.97 413.406C1045.95 412.783 1052 416.978 1057.28 420.667C1054.99 422.373 1054.29 424.349 1050.86 426.868C1043.11 422.075 1044.35 422.307 1035.81 424.453C1028.17 435.702 1039.71 435.684 1047.25 439.631C1050.44 441.084 1053.6 443.094 1055.9 445.777C1059.51 450.001 1059.69 459.847 1056.91 464.524C1052.36 472.198 1044.69 475.483 1035.94 474.367C1031.56 473.739 1027.73 472.425 1024.19 469.703C1018.3 465.179 1018.92 464.814 1022.8 459.687C1024.05 459.064 1025.37 458.574 1026.67 458.058C1030.62 461.951 1029.13 462.709 1035.7 464.613C1038.25 463.773 1038.85 463.93 1041.43 464.339C1046.49 462.389 1047.01 459.661 1047.24 454.799C1046.84 454.076 1046 452.457 1045.43 451.954C1040.27 447.347 1032.95 446.392 1027.35 442.21C1019.31 436.21 1020.05 427.41 1025.42 419.974C1028.6 415.567 1033.91 414.118 1038.97 413.406Z" fill="#090909"/>
<path d="M1103.85 247.013C1104.25 244.952 1104.46 242.857 1104.47 240.757C1104.58 230.88 1103.46 220.67 1103.85 210.644C1104.14 203.152 1104.64 195.449 1104.36 188.02C1104.2 184.066 1096.79 182.641 1093.73 182.706C1091.41 182.715 1090.01 180.667 1091.72 178.706C1094.82 177.584 1109.03 178.23 1113.28 178.222C1116.01 178.159 1124.4 177.715 1126.49 178.463C1127.36 179.436 1127.2 179.984 1127.15 181.399C1125.85 183.488 1122.52 182.566 1120.12 182.876C1119.07 183.349 1117.54 183.911 1116.44 184.349C1116.14 185.224 1115.39 187.609 1115.39 188.416C1115.41 193.107 1115.45 197.924 1115.46 202.604L1115.5 230.173C1115.5 232.808 1115.38 241.668 1115.82 243.524C1116.52 246.54 1134.32 246.132 1136.72 245.289C1139.41 244.349 1141.52 239.312 1142.14 237.2L1142.42 237.192C1144.02 239.041 1143.1 242.201 1142.7 244.409C1142.33 246.529 1142.02 249.712 1140.76 251.396C1139.84 251.868 1135.17 252.163 1133.98 252.27L1134.09 252.34C1131.62 253.091 1126.13 252.181 1123.59 251.639C1118.88 250.637 1094.42 252.669 1092.03 249.842C1092.35 249.446 1092.53 249.214 1093.1 249.146C1096.71 248.734 1100.32 247.748 1103.85 247.013Z" fill="#090909"/>
<path d="M1113.28 178.222C1116.01 178.159 1124.4 177.715 1126.49 178.463C1127.36 179.436 1127.2 179.984 1127.15 181.399C1125.85 183.488 1122.52 182.566 1120.12 182.876C1118.37 182.272 1118.33 181.538 1115.58 180.916C1113.28 180.395 1107.81 180.837 1106.23 179.835C1107.66 178.877 1111.53 178.516 1113.28 178.222Z" fill="#090909"/>
<path d="M1153.47 182.683C1153.49 181.204 1153.34 179.841 1154.02 178.577C1156.62 177.317 1169.33 178.271 1172.88 178.234C1178.24 178.179 1184.77 177.952 1190.02 178.489C1190.31 182.749 1189.65 182.76 1185.63 182.557C1182.99 182.873 1181.96 182.741 1179.95 184.449L1179.11 185.163L1178.9 185.264C1178.1 186.434 1177.8 187.805 1177.78 189.226C1177.52 204.074 1177.26 219.023 1177.91 233.86C1178.06 237.26 1177.63 240.561 1178.09 243.925C1184.33 246.331 1188.98 245.94 1195.6 245.832C1203.57 245.702 1202.14 240.646 1204.62 237.778L1205.05 238.172C1205.56 239.637 1205.65 241.647 1205.41 243.172C1205.24 244.289 1204.12 251.346 1202.81 251.482C1194.58 252.502 1186.08 251.193 1177.88 251.287C1171.64 251.357 1165.58 251.91 1159.27 251.167C1157.98 251.015 1156.99 250.862 1155.83 250.244L1155.76 249.824C1157.05 248.7 1163.95 247.592 1166.32 247.065C1167.05 242.596 1166.4 239.819 1166.57 235.479C1167.09 222.185 1167.22 208.9 1166.55 195.609C1166.2 188.641 1168.98 185.997 1160.69 183.206C1158.95 182.661 1155.42 182.725 1153.47 182.683Z" fill="#090909"/>
<path d="M1153.47 182.683C1153.49 181.204 1153.34 179.841 1154.02 178.577C1156.62 177.317 1169.33 178.271 1172.88 178.234C1178.24 178.179 1184.77 177.952 1190.02 178.489C1190.31 182.749 1189.65 182.76 1185.63 182.557C1184.79 182.426 1183.32 182.55 1182.23 182.479C1182.37 181.825 1182.45 182.093 1182.14 181.618L1179.62 181.27C1176.23 180.314 1166.74 180.565 1163.15 181.058C1162.41 182.136 1162.09 182.964 1160.69 183.206C1158.95 182.661 1155.42 182.725 1153.47 182.683Z" fill="#090909"/>
<path d="M1019.53 261.151C1022.89 260.762 1045.83 260.926 1048.56 261.547C1049.2 261.69 1049.9 261.831 1050.18 262.499C1050.43 263.077 1050.28 263.304 1050 263.795C1049.64 263.948 1044.12 264.042 1042.31 264.319C1034.75 271.127 1038.36 272.256 1038.62 280.782C1038.93 291.084 1038.94 301.954 1038.72 312.287C1038.6 317.945 1037.32 320.79 1038.23 327.019C1043.78 332.503 1049.11 328.297 1052.45 331.087L1052.35 331.52C1050.82 332.49 1049.38 332.591 1047.63 332.784C1044.55 332.774 1041.84 333.744 1039.14 333.872C1033.3 334.145 1019.36 334.609 1014.79 330.709L1014.82 330.315C1015.74 330.036 1017.9 330.028 1018.95 329.981C1022 329.848 1023.64 329.559 1026.51 328.568L1026.57 327.825C1027.43 316.965 1026.62 305.01 1026.71 294.033C1026.77 287.024 1026.93 279.898 1026.84 272.892C1026.82 271.473 1026.35 268.402 1025.53 267.161C1023.44 264.008 1015.1 263.938 1013.6 262.178C1014.34 261.758 1018.29 261.359 1019.53 261.151Z" fill="#090909"/>
<path d="M902.976 355.26C907.301 354.272 911.823 355.693 914.806 358.976C917.79 362.258 918.773 366.894 917.378 371.105C915.982 375.316 912.425 378.448 908.071 379.301C901.485 380.589 895.083 376.354 893.691 369.789C892.3 363.223 896.433 356.754 902.976 355.26ZM907.508 374.842C909.064 374.435 909.927 373.627 910.573 372.169C913.528 365.499 912.76 363.442 907.367 360.188C906.264 360.178 904.814 360.12 903.741 360.191C897.693 363.348 898.193 368.626 901.771 373.671C904.175 374.79 904.803 375.139 907.508 374.842Z" fill="#090909"/>
<path d="M1094.3 355.878C1095.96 355.732 1097.65 355.44 1099.18 356.063C1101.05 357.883 1103.08 366.201 1104 369.004C1104.92 368.699 1107.07 356.527 1109.99 355.602C1113.91 354.355 1114.48 360.545 1115.82 363.252C1116.18 364.939 1116.7 366.073 1117.82 367.4L1118.3 367.46C1118.65 367.001 1119.53 364.058 1120.07 362.916C1120.92 360.947 1120.6 357.873 1122.14 356.259C1122.97 355.391 1126.58 355.297 1127.4 356.136C1126.28 362.704 1123.2 369.413 1121.58 375.942C1121.49 377.16 1118.51 382.015 1116.96 380.135C1113.94 376.448 1112 367.606 1110.76 363.153C1109.47 367.745 1108.67 372.738 1106.61 377.076C1106.04 378.273 1104.73 379.989 1103.35 380.294C1103 380.375 1102.56 380.362 1102.24 380.161C1099.56 378.438 1095.16 359.539 1094.3 355.878Z" fill="#090909"/>
<path d="M1169.58 355.542C1170.9 355.633 1172.21 355.318 1173.22 356.053C1173.99 359.245 1173.46 374.808 1173.46 379.256L1169.55 379.447C1166.66 377.619 1158.37 367.88 1157.32 365.307C1156.96 368.999 1157.09 376.628 1156.25 379.52L1155.31 380.307C1154.18 380.651 1153.25 380.419 1152.05 380.276C1151.38 373.377 1151.49 362.462 1151.97 355.636C1157.43 355.714 1158.09 358.653 1161.37 362.525C1163.15 364.616 1164.78 366.843 1166.55 368.949C1166.44 367.33 1166.31 357.138 1166.84 356.303C1167.74 355.672 1168.47 355.691 1169.58 355.542Z" fill="#090909"/>
<path d="M1025.61 369.192C1025.42 367.458 1024.97 357.318 1025.66 356.29C1027.26 355.404 1028.37 355.591 1030.17 355.667C1030.46 356.204 1030.54 356.371 1030.51 356.966C1030.42 358.449 1031.32 359.474 1031.84 360.689L1032.33 360.603C1032.97 364.407 1032.21 374.902 1032.1 379.199L1028.9 379.632C1024.67 377.33 1017.86 368.529 1015.98 364.329C1015.99 364.757 1016 365.182 1016 365.609C1016.04 369.638 1015.82 374.089 1015.48 378.112C1015.26 380.667 1012.6 381.267 1011.05 379.517C1010.5 376.881 1010.22 357.821 1011.2 355.925C1012.65 355.273 1014.78 356.131 1015.77 357.192C1019.23 360.929 1022.29 365.304 1025.61 369.192Z" fill="#090909"/>
<path d="M1344.17 355.563L1344.41 355.547C1347.41 355.352 1350.62 355.341 1353.6 355.724C1361.59 356.749 1360.56 364.939 1356.01 369.452C1357.41 371.742 1362.38 377.786 1360.91 380.164C1358.66 381.308 1356.88 380.08 1355.6 378.292C1354.23 376.675 1350.91 371.392 1349.59 369.4C1349.5 372.42 1349.11 376.388 1348.46 379.314C1346 379.428 1345.02 379.439 1342.53 379.228C1342.84 372.274 1341.81 363.388 1342.66 356.405C1343.24 355.654 1343.06 355.891 1344.17 355.563ZM1350.89 366.037C1352.77 365.573 1355.35 364.477 1354.6 362.011C1353.97 361.531 1353.91 361.403 1353.13 361.27C1350.89 361.508 1347.91 363.255 1349.63 365.622C1350.2 365.841 1350.31 365.899 1350.89 366.037Z" fill="#090909"/>
<path d="M927.686 355.542C932.181 355.398 935.456 355.417 939.886 356.248C945.084 361.114 942.546 364.858 939.414 369.737C940.401 371.147 944.974 378.101 945.163 379.35C944.511 380.424 942.592 380.61 941.456 380.477C940.23 380.331 939.561 378.993 938.925 378.036C937.97 376.732 934.672 370.889 933.276 370.787C932.355 372.031 932.384 377.178 932.134 379.254C929.847 379.314 928.047 379.272 925.757 379.165C926.246 372.92 924.801 362.978 926.045 356.426C926.684 355.607 926.459 355.868 927.686 355.542ZM936.658 365.39C937.784 364.621 938.713 363.666 937.945 362.342C936.398 361.317 935.909 361.568 934.002 361.729C933.072 362.931 932.542 363.474 932.651 365.033C933.748 366.746 935.051 366.011 936.658 365.39Z" fill="#090909"/>
<path d="M961.601 355.276C964.417 355.203 966.747 355.565 969.475 356.191C970.412 357.119 971.226 357.769 972.24 358.595C972.233 359.302 970.51 360.509 969.646 361.375C961.754 359.294 956.029 359.719 957.185 369.505C957.412 371.426 958.135 372.31 959.279 373.729C961.123 374.386 964.765 375.888 966.42 374.586C967.257 373.927 966.984 372.349 966.921 371.366C965.986 371.074 964.872 370.855 964.432 370.003C963.375 367.956 963.62 366.154 964.099 364.073L964.316 363.961C965.279 364.728 965.466 364.929 966.656 365.187C974.312 365.468 973.319 369.538 972.973 376.023C966.351 381.314 958.452 380.993 953.132 373.763C951.113 371.02 950.793 368.177 950.551 364.902C951.326 363.494 953.297 360.491 954.338 359.25C956.932 356.155 957.991 355.693 961.601 355.276Z" fill="#090909"/>
<path d="M978.896 379.431C980.377 376.944 981.152 373.147 982.272 370.347C983.429 367.455 984.843 364.53 985.982 361.706C988.386 355.74 987.133 354.851 994.202 355.91C995.891 359.928 1003.08 376.738 1001.93 379.588C1001.75 380.015 1001.55 380.164 1001.12 380.242C1000.26 380.396 999.628 380.091 998.983 379.559C998.043 378.785 996.781 376.842 995.601 376.61C994.94 375.984 995.076 376.287 994.841 375.502C995.089 375.16 995.334 374.816 995.577 374.469L995.36 373.883C994.227 373.505 988.387 373.366 987.186 373.632C986.17 375.421 985.425 377.356 984.639 379.262C982.79 379.335 980.726 379.462 978.896 379.431ZM992.382 369.836L993.184 369.896C994.084 368.178 991.659 362.942 990.371 361.659C989.61 364.358 989.309 366.918 988.589 369.513L988.869 369.794C990.141 369.765 991.113 369.768 992.382 369.836Z" fill="#090909"/>
<path d="M1318.64 375.139C1317.86 376.419 1317.02 377.973 1315.98 379.035C1315.04 379.991 1312.58 380.015 1311.74 378.928C1312.4 376.654 1313.75 373.551 1314.61 371.249C1316.42 366.368 1318.19 361.471 1319.91 356.556C1321.25 355.346 1325.47 355.263 1325.99 356.097C1328.08 359.419 1334.43 375.744 1334.48 378.951C1333.94 380.005 1332.57 380.343 1331.51 379.965C1329.76 377.932 1328.75 376.873 1327.8 374.328C1326.4 373.689 1321.24 373.595 1319.33 373.449C1318.69 374.19 1318.88 374.052 1318.64 375.139ZM1323.01 369.614C1324.15 369.669 1324.58 369.747 1325.71 369.976C1325.26 368.511 1324.14 362.853 1323.73 362.423C1322.46 364.05 1319.57 367.64 1320.97 369.658C1321.78 369.875 1322.19 369.742 1323.01 369.614Z" fill="#090909"/>
<path d="M1181.95 355.602C1188.3 355.125 1191.41 355.743 1197.03 355.656C1197.05 357.31 1197.22 360.342 1196.51 361.779C1196.25 361.346 1195.93 360.66 1195.43 360.551C1193.12 360.04 1191.07 360.269 1188.92 361.192C1188.68 362.509 1188.58 363.205 1188.14 364.488C1189.74 364.368 1192.21 364 1193.62 364.436C1193.81 364.631 1195.46 367.546 1195.55 367.914C1194.93 370.162 1189.78 369.343 1187.88 369.027C1188.18 371.567 1188.11 372.201 1187.56 374.816C1190.54 374.884 1194.27 375.319 1197.06 375.228C1197.06 376.891 1197.32 379.212 1196.24 380.427C1195.2 380.784 1183.6 379.885 1182.31 379.598C1181.31 378.271 1181.72 358.608 1181.95 355.602Z" fill="#090909"/>
<path d="M1245.84 355.555C1249.57 355.213 1255.81 355.607 1259.73 355.777C1259.44 358.043 1259.9 359.344 1258.94 361.5C1257.56 362.608 1253.69 361.729 1251.31 361.622C1251.09 362.525 1250.77 363.508 1250.51 364.405C1252.95 364.303 1256.42 363.041 1256.87 366.459C1257.01 367.487 1257.05 367.682 1256.44 368.61C1254.85 369.771 1251.97 369.241 1249.96 369.043C1250.21 371.366 1250.06 372.709 1249.82 375.043C1253 374.628 1256.62 375.366 1260.12 375.218C1259.86 377.04 1259.89 378.38 1258.78 379.812C1257.5 380.667 1246.39 379.582 1244.23 379.345C1244.55 372.31 1243.87 363.07 1244.59 356.384C1245.1 355.612 1244.77 355.951 1245.84 355.555Z" fill="#090909"/>
<path d="M1226.5 355.268C1229.26 355.135 1231.66 355.568 1234.36 356.128C1235.52 357.302 1236.49 358.193 1235.84 359.875C1234.03 361.377 1229.08 360.18 1226.1 360.157C1222.42 362.54 1222.45 363.505 1222.26 367.747C1221.94 375.003 1228.39 376.526 1233.87 373.196C1234.51 373.35 1234.89 373.971 1235.45 374.56C1236 375.514 1236.09 375.692 1235.92 376.664C1235.1 377.6 1231.29 378.92 1229.96 379.272C1227.01 380.01 1224.64 379.402 1222.08 377.885C1211.86 371.822 1215.37 357.14 1226.5 355.268Z" fill="#090909"/>
<path d="M1065.56 355.26C1068.37 355.187 1074.8 355.558 1075.61 358.992C1074.7 361.706 1067.77 360.306 1065.41 360.097C1062.13 362.822 1060.45 365.518 1061.52 369.984C1062.24 372.98 1064.84 374.986 1067.92 374.84C1070.56 374.717 1071.64 373.677 1073.98 375.001C1074.26 375.212 1074.56 375.52 1074.81 375.77L1074.79 376.386C1073.8 377.757 1071.03 378.683 1069.46 379.095C1063.51 380.594 1056.64 376.636 1055.63 370.389C1054.37 362.624 1057.73 356.9 1065.56 355.26Z" fill="#090909"/>
<path d="M1268.05 379.1C1267.79 371.554 1267.16 363.846 1267.81 356.303C1267.93 354.843 1272.68 355.487 1273.67 355.815C1273.68 356.178 1273.68 357.049 1273.74 357.362C1273.79 363.101 1273.49 368.884 1273.53 374.779C1275.64 374.782 1277.28 374.847 1279.38 375.009C1280.52 375.191 1281.69 375.189 1282.86 375.225C1282.8 376.289 1282.84 378.547 1282.19 379.285C1279.77 380.456 1270.83 379.642 1268.05 379.1Z" fill="#090909"/>
<path d="M1291.39 355.737C1293.05 355.531 1294.84 355.69 1296.52 355.774C1295.39 360.217 1296.55 368.803 1295.8 374.709C1299.11 374.646 1302.57 375.34 1305.96 375.624C1305.78 376.704 1305.74 378.659 1305.21 379.301C1300.7 379.819 1295.03 379.911 1290.49 379.387C1289.96 375.139 1290.52 369.742 1290.34 365.34C1290.23 362.741 1290.13 359.661 1290.12 357.031C1290.12 356.42 1290.86 356.1 1291.39 355.737Z" fill="#090909"/>
<path d="M1142.63 354.762L1142.8 354.791C1144.31 356.217 1143.43 369.129 1143.05 371.65C1143.06 371.58 1142.18 371.679 1141.94 372.839C1141.48 375.051 1142.21 378.13 1140.71 379.799C1139.74 380.278 1139.11 380.106 1137.97 380.033C1137.14 379.744 1136.78 379.72 1136.3 378.983C1135.62 375.781 1135.35 360.791 1136.1 356.718C1136.51 354.475 1140.94 355.936 1142.26 355.026C1142.39 354.937 1142.51 354.848 1142.63 354.762Z" fill="#090909"/>
<path d="M1042.74 355.503C1044.08 355.552 1046.63 355.171 1047.39 356.222C1047.68 358.449 1047.86 377.942 1047.27 379.11L1046.44 379.251C1044.63 379.235 1042.83 379.209 1041.02 379.175C1041.14 374.052 1040.92 368.777 1040.96 363.638C1040.98 361.213 1040.75 358.757 1041.04 356.355C1041.74 355.609 1041.6 355.831 1042.74 355.503Z" fill="#090909"/>
<path d="M1150.15 332.297C1156.35 332.589 1163.06 332.771 1169.21 333.504C1172.24 333.864 1175.45 333.661 1178.32 334.049C1176.61 334.297 1172.95 334.143 1171.02 334.213C1166.57 334.375 1161.94 334.573 1157.49 334.464C1156.93 334.451 1155.88 333.786 1155.62 333.801C1153.04 333.947 1151.65 334.438 1148.97 334.161C1148.32 333.705 1148.61 333.968 1148.28 333.001C1148.78 332.498 1149.43 332.459 1150.15 332.297Z" fill="#090909"/>
<path d="M1306.5 331.416C1313.26 333.306 1322.61 332.359 1329.77 332.998C1331.89 333.186 1334.14 332.396 1336.87 332.722L1334.66 333.139L1335.07 333.627L1334.92 333.861C1331.09 334.357 1319.39 334.216 1315.65 333.436L1315.7 333.374C1313.92 332.758 1312.91 332.821 1311.05 332.68C1309.88 332.427 1308.52 332.315 1307.25 332.062L1306.5 331.416Z" fill="#090909"/>
<path d="M991.586 257.55C993.464 257.281 1002.15 256.773 1003.2 258.09C1001.01 259.899 991.219 258.468 987.908 258.35C983.957 257.967 979.156 258.963 976.32 257.792C976.298 257.808 990.197 257.591 991.586 257.55ZM1001.22 258.194L1001.57 258.014C999.978 257.412 996.343 257.589 994.641 257.811L994.605 258.116C996.525 258.812 999.249 258.663 1001.22 258.194Z" fill="#090909"/>
<path d="M994.642 257.81C996.344 257.589 999.979 257.411 1001.57 258.014L1001.22 258.194C999.249 258.663 996.526 258.812 994.605 258.115L994.642 257.81Z" fill="#090909"/>
<path d="M1237.92 321.437C1237.63 320.204 1237.52 304.515 1237.91 303.615C1237.86 305.581 1237.76 306.116 1238.58 307.92L1238.64 307.433C1239.44 310.423 1239.97 315.815 1238.94 318.647L1238.27 318.91C1237.92 319.724 1237.97 320.545 1237.92 321.437Z" fill="#090909"/>
<path d="M1080.09 436.062L1080.03 435.783C1079.67 434.02 1079.56 423.958 1080.53 422.5L1080.84 422.579L1081.51 424.274C1081.51 427.103 1081.66 433.032 1080.77 435.467L1080.09 436.062Z" fill="#090909"/>
<path d="M1273.74 357.362C1273.94 358.139 1274.06 358.637 1274.2 359.427L1274.48 359.328C1274.57 360.379 1274.61 362.358 1275.06 363.156C1275.4 362.41 1275.43 362.076 1275.57 361.286C1275.55 362.819 1275.59 364.829 1274.87 366.183C1274.64 364.936 1274.41 363.719 1274.25 362.465C1274.02 364.172 1273.77 365.818 1273.76 367.541L1273.77 370.626C1273.77 370.806 1273.77 373.092 1273.8 373.131C1274.31 373.822 1274.45 373.249 1274.08 374.193C1274.56 373.572 1274.62 373.364 1274.97 372.662C1275.18 372.722 1275.42 372.769 1275.61 372.866C1276.86 373.567 1278.22 374.719 1279.38 375.009C1277.28 374.847 1275.64 374.782 1273.53 374.779C1273.49 368.884 1273.79 363.101 1273.74 357.362Z" fill="#090909"/>
<path d="M1090.51 331.134C1090.59 332.119 1090.24 333.692 1089.59 334.435C1087.74 334.419 1071.48 334.328 1070.96 333.866C1076.7 333.439 1083.19 334.797 1089.17 332.521C1090.26 332.109 1090.06 332.114 1090.51 331.134Z" fill="#090909"/>
<path d="M1115.82 363.252L1116.36 363.411L1116.68 362.989C1117.83 363.02 1118.14 363.064 1119.25 363.325L1120.07 362.916C1119.53 364.058 1118.65 367.001 1118.3 367.46L1117.82 367.4C1116.7 366.073 1116.18 364.939 1115.82 363.252Z" fill="#090909"/>
<path d="M1242.53 333.105C1243.98 332.813 1246.98 332.711 1248.12 333.812L1247.98 334.205C1246.9 334.672 1246.6 334.529 1245.37 334.37C1243.29 334.325 1241.18 334.555 1239.09 334.349C1240.29 333.979 1241.74 333.971 1242.53 333.105Z" fill="#090909"/>
<path d="M1188.92 361.192C1191.07 360.269 1193.12 360.04 1195.43 360.551C1195.93 360.66 1196.25 361.346 1196.51 361.779C1195.11 362.944 1190.69 361.604 1188.92 361.192Z" fill="#090909"/>
<path d="M1068.41 208.341C1070.22 208.27 1073.03 208.375 1074.61 208.191C1076.33 209.578 1075.21 209.209 1075.25 210.535C1072.95 210.906 1070.1 210.191 1067.2 210.452L1067.18 210.306C1067.92 210.229 1073.45 209.268 1074.06 209.046L1073.91 208.803C1072.15 208.399 1070.27 208.509 1068.46 208.521L1068.41 208.341Z" fill="#090909"/>
<path d="M1061.7 210.288C1063.12 209.45 1061.52 209.103 1062.04 207.792C1063.25 207.578 1073.02 208.041 1074.61 208.191C1073.03 208.375 1070.22 208.27 1068.41 208.341C1066.14 208.204 1064.52 208.408 1062.26 208.783C1063.25 209.01 1064.63 209.213 1065.41 209.783C1064.46 210.383 1062.81 210.121 1061.7 210.288Z" fill="#090909"/>
<path d="M1318.64 375.139C1318.88 374.052 1318.69 374.19 1319.34 373.45C1321.24 373.596 1326.4 373.69 1327.8 374.328C1326.87 374.514 1319.62 375.105 1319.08 374.959L1318.64 375.139Z" fill="#090909"/>
<path d="M1068.46 208.52C1070.27 208.509 1072.15 208.398 1073.91 208.802L1074.06 209.045C1073.45 209.268 1067.92 210.229 1067.18 210.306C1067.4 209.752 1067.21 209.433 1066.96 208.956C1067.63 208.53 1067.6 208.639 1068.46 208.52Z" fill="#090909"/>
<path d="M987.186 373.632C988.387 373.366 994.226 373.504 995.359 373.882L995.576 374.469C995.333 374.816 995.088 375.16 994.84 375.501C995.076 376.286 994.939 375.984 995.6 376.61C993.76 375.856 992.871 375.23 991.496 373.82C990.023 373.835 988.637 373.906 987.186 373.632Z" fill="#090909"/>
<path d="M1030.17 355.667C1031.43 355.805 1031.13 355.591 1031.99 356.28C1032.57 357.477 1032.45 359.26 1032.33 360.603L1031.84 360.689C1031.32 359.474 1030.42 358.449 1030.51 356.965C1030.54 356.371 1030.46 356.204 1030.17 355.667Z" fill="#090909"/>
<path d="M1307.25 332.062C1308.52 332.315 1309.88 332.427 1311.05 332.68C1311.45 333.024 1311.36 333.084 1311.52 333.746C1310.45 334.852 1308.83 334.323 1307.65 333.746C1307.11 332.917 1307.28 333.191 1307.25 332.062Z" fill="#090909"/>
<path d="M1062.26 208.783C1064.52 208.408 1066.14 208.203 1068.41 208.341L1068.46 208.521C1067.6 208.639 1067.63 208.53 1066.96 208.956C1067.21 209.433 1067.4 209.753 1067.18 210.306L1067.2 210.452C1065.26 210.682 1063.46 210.542 1061.5 210.456L1061.7 210.288C1062.81 210.121 1064.46 210.382 1065.41 209.783C1064.63 209.213 1063.25 209.01 1062.26 208.783Z" fill="#090909"/>
<path d="M1115.72 471.348C1115.64 470.018 1115.54 465.009 1116.34 464.227C1116.53 465.226 1116.49 465.778 1117.06 466.506C1117.48 465.956 1117.44 465.841 1117.59 465.153C1117.6 466.308 1117.78 468.3 1117.12 469.181C1116.66 468.673 1116.55 468.295 1116.29 467.669C1115.93 468.571 1116.06 470.12 1115.72 471.348Z" fill="#090909"/>
<path d="M1220.92 332.693C1222.6 332.748 1225.33 332.761 1226.89 333.019C1225.75 333.157 1218.05 333.814 1217.51 333.551L1217.58 333.034C1218.46 332.604 1219.89 332.706 1220.92 332.693Z" fill="#090909"/>
<path d="M1274.48 359.328C1274.56 358.376 1274.51 357.649 1275.03 356.869L1275.56 356.95C1275.58 358.267 1275.65 360.003 1275.57 361.286C1275.43 362.076 1275.4 362.41 1275.06 363.156C1274.61 362.358 1274.57 360.379 1274.48 359.328Z" fill="#090909"/>
<path d="M1116.34 464.227C1116.46 463.403 1117.41 461.229 1117.78 460.146C1117.69 461.813 1117.63 463.484 1117.59 465.153C1117.44 465.841 1117.48 465.956 1117.06 466.506C1116.49 465.779 1116.54 465.226 1116.34 464.227Z" fill="#090909"/>
<path d="M994.018 243.593C995.451 243.36 996.883 243.563 998.03 244.492L998.061 245.159C996.288 245.278 995.054 245.104 994.018 243.593Z" fill="#090909"/>
<path d="M1273.67 355.816C1275.52 355.865 1273.75 355.312 1275.32 355.453C1275.57 356.204 1275.58 356.162 1275.56 356.95L1275.03 356.869C1274.51 357.649 1274.56 358.376 1274.48 359.328L1274.2 359.427C1274.06 358.637 1273.94 358.139 1273.74 357.362C1273.68 357.049 1273.68 356.178 1273.67 355.816Z" fill="#090909"/>
<path d="M1185.72 465.901C1185.99 466.013 1185.8 465.924 1186.21 466.253C1185.77 467.39 1184.85 467.815 1183.89 468.944L1183.74 469.124L1183.18 469.009L1182.99 468.589C1183.32 467.658 1184.89 466.568 1185.72 465.901Z" fill="#090909"/>
<path d="M1273.77 370.626L1274.12 371.526C1274.86 371.664 1274.49 371.64 1275.31 371.307C1275.69 371.896 1275.61 372.151 1275.61 372.866C1275.42 372.769 1275.18 372.722 1274.96 372.662C1274.62 373.364 1274.56 373.572 1274.08 374.193C1274.45 373.249 1274.31 373.823 1273.8 373.132C1273.77 373.093 1273.77 370.806 1273.77 370.626Z" fill="#090909"/>
<path d="M1073.37 257.539C1074.83 257.375 1076.63 256.976 1077.83 257.748L1077.61 258.149C1076.31 258.228 1074.16 258.507 1073.14 257.834L1073.37 257.539Z" fill="#090909"/>
<path d="M921.216 265.865C922.489 265.682 923.06 265.567 924.353 265.625C923.904 266.61 921.433 267.046 920.451 266.655C921.132 266.329 920.876 266.574 921.216 265.865Z" fill="#090909"/>
<path d="M1275.79 126.706C1276.65 127.794 1277.7 128.895 1278.48 129.975C1276.74 129.21 1276.1 128.762 1274.52 127.707C1275.59 127.307 1275.19 127.638 1275.79 126.706Z" fill="#090909"/>
<path d="M1345.84 211.986L1346.4 212.091L1346.47 212.511C1345.91 213.424 1345.1 213.57 1344.21 214.404L1343.86 214.738C1343.54 214.69 1343.73 214.756 1343.38 214.369C1343.67 213.55 1345.09 212.591 1345.84 211.986Z" fill="#090909"/>
<path d="M1273.76 367.541C1273.76 365.818 1274.02 364.172 1274.24 362.464C1274.41 363.719 1274.64 364.936 1274.87 366.183L1274.7 366.975C1274.41 367.158 1274.06 367.398 1273.76 367.541Z" fill="#090909"/>
<path d="M1165.5 254.345C1166.24 254.309 1165.98 254.241 1166.62 254.569C1165.98 255.187 1165.94 255.028 1164.93 255.276C1164.23 255.26 1164.25 255.305 1163.66 254.955C1164.14 254.468 1164.78 254.468 1165.5 254.345Z" fill="#090909"/>
<path d="M1213.8 257.777C1214.05 257.732 1214.31 257.691 1214.56 257.651C1215.76 257.471 1216.28 257.391 1217.21 258.071C1216.06 258.715 1214.94 258.222 1213.8 257.777Z" fill="#090909"/>
<path d="M998.588 252.614C999.352 252.544 999.883 252.504 1000.65 252.489L1000.94 252.815L1000.7 253.378C999.787 253.331 998.919 253.409 998.248 252.974L998.588 252.614Z" fill="#090909"/>
<path d="M0 0H722V510H0V0Z" fill="black"/>
<path d="M98.3909 145.475C146.691 139.797 190.432 174.382 196.037 222.678C201.641 270.975 166.981 314.653 118.664 320.181C70.4525 325.698 26.8799 291.138 21.2876 242.947C15.6954 194.756 50.1963 151.14 98.3909 145.475Z" fill="#FEFEFE"/>
<path d="M105.211 201.283C122.58 199.348 138.253 211.799 140.291 229.153C142.328 246.507 129.965 262.249 112.619 264.387C95.1292 266.542 79.2252 254.058 77.1709 236.56C75.1167 219.062 87.697 203.235 105.211 201.283Z" fill="black"/>
<path d="M464.706 149.093C482.763 149.584 501.606 148.48 519.572 149.43C520.337 158.803 521.824 167.669 523.238 176.934C524.296 181.889 524.088 188.018 525.187 192.857C527.542 203.232 528.293 213.416 529.739 223.86L536.878 273.173C538.355 283.365 540.287 293.606 541.753 303.778C542.24 307.161 542.448 312.94 542.666 316.488C526.784 316.002 510.642 316.198 494.725 316.162C494.753 311.221 493.209 301.416 492.504 295.967C491.069 284.929 490.399 275.526 489.764 264.427C489.066 255.183 488.22 246.12 488.22 236.848C486.581 241.009 483.972 246.478 482.791 250.635C479.84 261.017 475.895 271.012 472.631 281.234L466.299 301.02C464.914 305.377 462.971 312.296 460.789 316.074C452.913 316.525 443.811 316.264 435.914 316.145C435.805 314.178 431.803 302.5 430.915 299.577L419.775 262.877C417.303 254.914 413.799 244.562 412.022 236.674C409.879 247.612 409.812 259.155 408.43 270.199C407.175 280.23 404.478 289.651 404.284 299.842C404.185 305.182 403.283 311.121 402.095 316.335C386.936 315.803 369.58 316.206 354.287 316.243C355.324 306.478 357.005 296.776 358.084 286.987C358.458 283.606 359.646 279.463 360.023 275.977C360.605 270.628 361.063 265.433 361.779 260.089C365.191 234.682 368.925 209.32 372.972 184.008C374.244 176.092 374.625 167.517 376.092 159.52C376.642 156.518 376.804 153.086 377.713 150.164C378.771 149.184 378.651 149.461 380.255 149.267C389.58 149.128 398.904 149.078 408.226 149.116C415.167 149.112 422.789 148.959 429.656 149.507C431.327 159.245 432.558 163.25 434.863 172.557L443.187 206.535C444.643 212.621 445.143 218.171 446.437 224.106C447.495 224.557 448.598 225.21 449.652 225.01C450.862 216.544 453.107 209.151 454.581 200.893C457.694 183.468 461.96 166.59 464.706 149.093Z" fill="#FEFEFE"/>
<path d="M211.009 150.03L211.224 149.581C212.856 149.249 223.839 149.215 226.406 149.232C248.238 149.38 270.597 148.151 292.121 152.326C296.293 153.135 301.71 156.307 305.348 158.617C317.628 166.414 324.477 178.027 327.335 192.069C329.804 204.204 326.704 220.097 319.608 230.305C312.443 240.61 306.07 244.455 294.782 249.082C300.58 257.278 305.477 263.116 311.526 270.854L332.482 297.83C335.524 301.759 338.536 305.711 341.517 309.686C342.851 311.469 345.001 314.618 346.452 316.075C334.31 315.954 322.167 315.92 310.024 315.972C304.218 315.982 294.756 316.284 289.218 315.794C283.005 309.593 279.041 302.775 273.731 296.124C268.012 288.961 262.518 282.307 257.029 274.901C257.022 280.276 257.645 314.725 256.647 316.047C256.172 316.048 255.554 316.071 255.095 316.029L210.521 316.013L210.764 237.579C210.614 208.76 210.164 178.81 211.009 150.03Z" fill="#FEFEFE"/>
<path d="M211.009 150.031C212.581 157.834 210.078 169.579 211.703 177.796C212.034 179.473 211.155 181.362 211.966 183.381L211.955 183.361L212.412 183.027C212.441 180.893 212.383 177.018 212.721 175.043C213.587 182.77 213.36 191.486 213.325 199.301C213.273 211.325 213.735 223.818 212.335 235.742C211.421 243.519 212.727 250.143 212.838 257.76L213.329 315.66C219.599 315.65 251.093 314.875 255.095 316.03L210.521 316.013L210.764 237.579C210.614 208.76 210.164 178.81 211.009 150.031Z" fill="#DDDCDD"/>
<path d="M257.042 191.453C268.175 191.362 278.244 189.076 279.757 202.964C278.742 205.613 277.984 206.61 276.031 208.616C270.639 212.236 263.531 211.394 256.994 211.46C257.667 206.798 257.255 196.305 257.042 191.453Z" fill="black"/>
<path d="M610.115 145.698L610.429 145.654C613.334 145.273 618.396 145.548 621.555 145.45C646.028 144.69 664.378 156.894 683.334 171.407C679.262 176.92 675.747 180.567 671.266 185.643C665.724 191.924 659.185 201.161 652.585 206.32C642.816 200.506 633.421 190.064 621.763 188.59C619.499 188.303 615.516 188.129 613.714 189.81C613.044 190.435 612.643 191.195 612.72 192.125C613.221 198.064 648.51 217.039 655.215 221.648C661.244 225.79 667.025 230.759 672.363 235.747C680.651 243.488 687.959 256.069 688.192 267.647C688.417 278.749 682.572 290.825 675.003 298.73C660.278 314.102 641.092 319.857 620.36 320.349C590.189 320.214 569.767 305.885 548.498 285.761C553.053 279.536 559.61 274.731 565.237 269.506C570.842 264.305 577.11 260.171 582.176 254.427C591.97 262.026 602.5 271.708 613.824 276.518C625.003 281.266 639.696 271.655 627.347 260.315C605.292 240.069 564.341 230.89 559.473 196.729C555.263 167.177 584.15 148.314 610.115 145.698Z" fill="#FEFEFE"/>
<path d="M596.511 333.455C601.813 333.761 604.577 336.634 607.771 340.417C608.261 345.311 608.138 353.363 607.754 358.216C606.047 360.232 604.362 362.262 602.698 364.313C601.256 364.416 599.568 364.437 598.105 364.49C595.291 364.476 593.793 364.433 590.948 364.046C589.051 362.086 587.962 360.669 586.333 358.526C585.776 353.846 585.766 344.559 586.185 339.924C590 336.123 591.23 334.968 596.511 333.455Z" fill="#DDDCDD"/>
<path d="M595.353 339.056C605.006 338.151 602.626 351.96 602.411 358.033C601.124 358.635 599.869 359.1 598.54 359.601C595.872 359.668 594.158 359.485 591.564 358.967C590.943 355.259 590.411 346.724 591.475 343.194C592.244 340.655 593.235 340.153 595.353 339.056Z" fill="black"/>
<path d="M271.754 333.828C275.568 333.517 277.449 333.649 280.73 336.056C287.104 340.733 286.92 355.794 282.485 361.642C281.257 363.259 279.631 364.243 277.534 364.429C274.503 364.451 272.654 364.507 269.64 364.056C267.056 362.139 265.709 360.792 263.661 358.339C263.085 354.057 262.442 345.763 263.751 341.681C264.975 337.865 268.34 335.543 271.754 333.828Z" fill="#DDDCDD"/>
<path d="M274.37 338.769C282.088 339.224 282.203 351.823 279.752 356.845C278.817 358.759 277.7 359.062 275.876 359.668C272.731 359.879 269.704 360.362 269.225 356.662C268.598 351.823 267.619 345.202 270.067 340.731C270.918 339.177 272.821 339.013 274.37 338.769Z" fill="black"/>
<path d="M414.98 333.805C423.878 333.093 427.598 341.07 427.108 348.815C426.625 356.429 427.344 358.424 421.597 364.137C420.445 364.278 419.186 364.363 418.023 364.469C414.815 364.465 413.249 364.486 410.045 363.972C404.087 359.411 404.714 351.601 404.982 344.873C405.243 338.345 409.061 335.14 414.98 333.805Z" fill="#DDDCDD"/>
<path d="M412.454 339.179C413.328 339.115 415.415 338.945 416.219 339.036C417.763 339.217 419.17 340.012 420.121 341.24C422.473 344.296 421.761 353.817 421.232 357.521L418.493 359.361C415.122 360.193 414.1 359.756 410.621 358.907C409.937 354.057 409.644 346.255 410.522 341.418C410.779 339.982 411.403 339.801 412.454 339.179Z" fill="black"/>
<path d="M364.532 333.863C364.81 333.828 365.092 333.796 365.371 333.768C373.01 332.979 377.382 338.038 377.625 345.336C377.819 351.25 378.827 363.936 370.254 364.454C367.12 364.493 364.969 364.5 361.835 364.215C359.84 362.583 358.214 360.718 356.631 358.702C356.201 354.159 356.349 344.825 356.568 340.232C358.909 337.051 360.996 335.505 364.532 333.863Z" fill="#DDDCDD"/>
<path d="M363.172 339.087C367.9 339.094 370.036 339.113 372.828 343.328C373.033 346.97 373.315 351.536 372.885 355.1C372.631 357.215 372.268 357.849 370.6 359.072C368.358 359.735 364.579 360.133 362.527 358.84C360.535 355.794 360.955 342.181 363.172 339.087Z" fill="black"/>
<path d="M449.808 353.888C450.544 350.797 455.092 333.941 458.011 333.907C461.23 336.11 463.976 349.171 466.387 354.455C468.326 347.036 468.295 341.953 470.921 333.653L475.843 334.27C475.229 336.848 474.401 339.435 473.629 341.975C471.305 349.98 470.822 356.197 467.826 364.359L463.412 364.176C462.665 360.419 458.963 349.783 457.637 345.037C455.737 351.337 453.636 357.578 453.312 364.13C451.309 364.381 449.244 364.469 447.223 364.585C445.612 354.025 440.684 344.982 441.068 333.14C445.947 334.068 448.824 349.496 449.808 353.888Z" fill="#DDDCDD"/>
<path d="M240.025 333.964C247.937 333.633 253.087 333.092 258.234 339.846C258.761 346.737 257.241 347.585 252.996 352.834C254.813 356.62 257.465 360.423 259.8 363.958C257.891 364.07 255.736 364.423 253.819 364.691L251.718 361.001C250.578 358.636 246.796 349.287 242.824 352.644C242.312 354.568 242.291 362.012 242.22 364.391L236.348 364.507C236.565 354.498 236.392 344.194 236.517 334.106L240.025 333.964Z" fill="#DDDCDD"/>
<path d="M242.953 339.101C243.383 339.09 243.813 339.086 244.242 339.089C247.821 339.115 258.561 341.528 252.701 346.212C249.112 347.249 246.223 347.442 242.566 347.633C242.57 344.48 242.544 342.232 242.953 339.101Z" fill="black"/>
<path d="M506.973 333.938C515.638 333.603 521.067 332.335 526.676 339.844C527.187 346.173 526.08 347.79 521.466 351.802C523.08 355.802 526.5 361.148 527.216 364.521C525.633 364.504 524.004 364.366 522.421 364.257L520.658 361.776C518.547 359.249 515.434 349.535 511.26 352.605C509.807 353.669 510.361 362.322 510.414 364.412L505.101 364.416C504.738 357.508 504.805 341.972 505.386 334.448C505.411 334.116 506.465 334.038 506.973 333.938Z" fill="#DDDCDD"/>
<path d="M510.532 339.25C514.558 339.241 517.565 339.373 521.503 340.082C521.648 342.202 521.933 344.654 520.978 346.587C517.555 347.359 513.966 347.483 510.472 347.531C510.278 344.419 510.106 342.359 510.532 339.25Z" fill="black"/>
<path d="M213.71 333.972C219.287 333.642 224.735 333.062 229.339 336.976C233.065 340.145 233.916 345.196 230.493 348.977C226.86 352.989 222.135 353.204 217.08 353.504L216.551 353.546C215.574 355.076 215.963 362.241 215.992 364.479L210.197 364.366C210.369 354.3 210.032 344.339 210.391 334.174L213.71 333.972Z" fill="#DDDCDD"/>
<path d="M216.204 339.428C218.803 339.366 223.805 338.841 226.034 340.25C227.909 341.435 227.339 345.36 225.998 346.932C222.106 348.271 220.073 348.103 216.015 348.056C215.963 344.897 215.99 342.577 216.204 339.428Z" fill="black"/>
<path d="M302.073 333.97C307.763 333.51 316.095 332.794 320.481 337.034C324.358 340.783 324.326 346.518 320.39 350.215C317.205 353.208 313.506 353.204 309.395 353.134C305.66 355.072 309.437 360.401 307.375 364.134C306.488 364.634 306.198 364.536 305.131 364.511C304.074 364.532 303.715 364.5 302.67 364.328C301.237 362.439 301.945 337.863 302.073 333.97Z" fill="#DDDCDD"/>
<path d="M305.292 353.599C306.698 353.388 307.965 353.176 309.394 353.134C305.659 355.072 309.436 360.401 307.375 364.134C306.487 364.634 306.197 364.536 305.131 364.511C305.203 360.874 305.256 357.236 305.292 353.599Z" fill="#8E8F91"/>
<path d="M307.895 339.199C315.363 339.337 318.52 338.524 316.619 347.159C314.26 348.301 310.408 348.032 307.733 347.992C307.677 344.782 307.659 342.403 307.895 339.199Z" fill="black"/>
<path d="M343.317 333.991C345.017 333.848 348.364 333.421 349.897 333.962L350.05 334.718C350.285 344.577 350.342 354.441 350.221 364.303L345.942 364.493C344.756 364.581 344.533 364.673 343.465 364.257C343.087 362.438 343.256 353.733 343.239 351.32C340.186 351.302 336.917 351.421 333.847 351.478C333.865 355.297 333.987 360.729 333.637 364.394L327.811 364.454L328.274 334.142L333.509 334.092C333.513 336.186 333.374 345.404 333.784 346.745C336.226 346.362 340.713 346.486 343.316 346.487C343.273 342.322 343.273 338.157 343.317 333.991Z" fill="#DDDCDD"/>
<path d="M333.486 351.129C337.767 351.027 341.507 350.961 345.776 351.143C345.789 355.594 345.844 360.045 345.942 364.493C344.756 364.581 344.533 364.673 343.465 364.257C343.088 362.438 343.256 353.733 343.24 351.32C340.187 351.302 336.918 351.421 333.848 351.478C333.866 355.298 333.987 360.729 333.637 364.394C333.257 360.683 333.458 354.998 333.486 351.129Z" fill="#8E8F91"/>
<path d="M343.317 333.991C345.016 333.848 348.364 333.421 349.896 333.962L350.049 334.718L349.539 334.104C348.31 334.111 347.209 333.991 346.121 334.497C345.538 336.63 345.565 344.314 345.526 346.808C342.266 346.837 336.866 347.033 333.783 346.745C336.225 346.362 340.712 346.486 343.315 346.487C343.272 342.322 343.272 338.157 343.317 333.991Z" fill="#8E8F91"/>
<path d="M577.973 333.661C578.992 333.671 579.704 333.529 580.458 334.152C581.008 337.483 581.237 360.37 580.779 363.965C579.767 364.655 579.556 364.437 578.188 364.476C576.901 364.507 576.425 364.497 575.152 364.306C574.261 363.069 574.691 353.617 574.722 351.402C570.594 351.233 567.368 351.264 563.23 351.409L563.007 364.398L557.748 364.44C557.55 354.233 557.568 344.023 557.797 333.818C559.489 334.071 561.347 334.251 563.06 334.452C563.124 338.554 563.212 342.61 563.071 346.714C566.642 346.571 571.169 346.736 574.807 346.768C574.588 344.32 574.391 336.604 575.068 334.398C575.932 333.667 576.795 333.757 577.973 333.661Z" fill="#FEFEFE"/>
<path d="M577.975 333.661C578.993 333.671 579.706 333.529 580.46 334.152C581.01 337.483 581.239 360.37 580.781 363.965C579.769 364.655 579.558 364.437 578.19 364.476C578.814 357.176 578.408 340.804 577.975 333.661Z" fill="#85878B"/>
<path d="M487.085 333.143C494.323 336.305 496.911 355.304 500.577 361.797C501.011 362.569 502.255 363.506 502.981 364.066C500.633 364.126 498.257 364.345 495.913 364.528C495.775 362.984 495.73 360.849 495.018 359.541C493.717 358.589 493.918 358.875 492.098 358.72C488.337 358.741 485.827 358.829 482.164 359.657C481.515 361.162 481.071 362.882 480.609 364.475L475.871 364.232C476.848 359.777 478.843 355.213 480.419 350.863C482.404 345.38 484.286 338.158 487.085 333.143Z" fill="#DDDCDD"/>
<path d="M487.751 343.829C489.377 344.936 491.968 351.64 490.935 353.644L489.588 353.948L485.033 353.465C485.77 350.048 486.443 347.079 487.751 343.829Z" fill="black"/>
<path d="M532.351 334.344C539.659 333.775 544.743 333.772 552.012 333.928L551.896 339.282C547.253 339.312 542.614 339.297 537.974 339.237C537.808 341.669 537.865 344.356 537.861 346.812C542.004 346.765 546.142 346.817 550.278 346.967L550.281 351.292C546.357 351.232 541.975 351.396 538.016 351.458L537.674 359.654C542.265 359.795 546.862 359.862 551.455 359.851C554.547 359.971 554.441 363.422 552.922 364.327L552.485 364.12L552.051 362.801C551.871 363.383 551.769 363.908 551.642 364.5C545.272 364.331 538.637 364.588 532.157 364.472C532.013 354.431 532.076 344.385 532.351 334.344Z" fill="#DDDCDD"/>
<path d="M551.456 359.852C554.548 359.971 554.442 363.422 552.923 364.328L552.486 364.12L552.052 362.802C551.872 363.383 551.77 363.908 551.643 364.5C551.368 363.094 551.453 361.311 551.456 359.852Z" fill="#0E1312"/>
<path d="M630.732 333.711C632.248 334.002 634.306 334.093 635.889 334.207C635.861 347.095 639.168 354.674 629.97 364.44C625.447 364.511 619.792 365.103 616.232 361.783C612.23 358.054 613.024 348.838 613.017 343.415C613.024 340.265 613.101 337.115 613.253 333.969L618.548 334.187C618.714 342.547 618.224 349.613 618.883 358.198C620.875 358.988 622.75 359.65 624.904 359.795C626.505 359.9 628.207 359.721 629.434 358.589C631.102 357.046 630.594 337.268 630.732 333.711Z" fill="#E6E5E5"/>
<path d="M674.741 333.932C678.027 333.703 682.441 333.836 685.818 333.849L685.716 339.65C681.873 339.106 676.278 339.29 672.281 339.344C671.977 341.315 672.037 344.686 672.009 346.779C676.247 346.769 680.484 346.818 684.718 346.928C684.997 348.149 685.205 349.602 685.42 350.855C681.055 351.203 676.67 351.256 672.298 351.013C672.076 353.563 672.182 356.305 672.221 358.878L672.411 359.467C674.11 360.267 683.439 359.802 685.987 359.731L686.037 364.458C679.691 364.5 673.342 364.496 666.996 364.44L667.003 334.21L674.741 333.932Z" fill="#DDDCDD"/>
<path d="M648.982 333.832C651.164 333.667 657.707 333.826 658.804 336.158C659.266 337.133 659.325 338.25 658.969 339.268C656.043 341.547 649.698 337.345 646.44 339.742C645.094 340.734 645.485 344.243 645.524 345.918C655.388 346.904 654.647 346.279 661.592 351.957L661.931 358.741C660.108 361.102 659.35 362.184 656.967 363.989C654.46 364.408 653.114 364.43 650.583 364.479C647.364 364.447 639.876 364.927 640.391 359.883C641.445 358.875 642.911 358.949 644.286 359.076C648.721 359.492 652.144 359.819 656.6 358.942C656.766 354.571 656.787 353.158 652.06 351.841C648.312 350.797 641.632 350.307 640.652 345.559C639.224 338.628 642.929 335.624 648.982 333.832Z" fill="#DDDCDD"/>
<path d="M383.481 333.924C389.527 333.722 395.937 333.832 402.018 333.843L402.021 339.376C399.716 339.145 396.952 339.143 394.601 339.081C394.294 345.767 394.463 353.476 394.47 360.243L394.481 364.458L388.812 364.44C388.375 356.38 388.653 347.498 388.84 339.438L381.158 339.259C380.943 337.78 380.513 336.061 380.957 334.716C381.913 333.827 381.98 334.079 383.481 333.924Z" fill="#DDDCDD"/>
</svg>
