<svg width="1352" height="511" viewBox="0 0 1352 511" fill="none" xmlns="http://www.w3.org/2000/svg">
<path d="M0.666725 161.572C0.00773209 135.419 0.607025 109.816 0.335732 83.7455L0.0809304 49.1801C0.0461404 37.774 -1.1505 20.6886 6.97715 11.3671C13.6413 3.72355 24.2262 0.0904999 34.0948 0.212369C60.8929 0.17917 87.764 0.272921 114.563 0.291643L278.888 0.336189L369.87 0.295822C385.483 0.274455 402.176 -0.588518 417.622 0.736387C444.089 3.00646 446.258 22.5964 446.457 44.4417C446.935 97.005 446.142 149.66 446.737 202.202C445.44 218.424 446.135 244.371 446.116 261.128L446.216 367.441C446.289 383.828 446.473 400.19 446.355 416.599C446.294 425.068 444.716 433.728 438.511 440.146C431.504 447.392 423.844 449.267 413.982 449.255C385.269 449.218 356.379 449.204 327.683 449.197L151.085 449.176L67.862 449.139C53.5424 449.19 38.3601 449.71 24.1333 448.944C18.9062 448.379 12.6055 444.985 8.98621 441.141C-1.65753 429.836 0.66902 408.546 0.671107 394.011L0.705411 343.248L0.666725 161.572ZM100.623 426.805C105.554 419.362 107.936 412.352 111.238 404.251C131.828 353.734 145.314 299.854 146.519 245.134C146.78 233.269 147.07 221.442 147.105 209.488C148.889 204.023 146.284 201.91 149.118 198.279L151.646 198.249C163.926 203.956 171.61 205.514 184.52 207.597C175.124 217.317 168.758 233.277 165.061 246.085C172.581 235.744 181.708 225.288 193.91 217.901C208.779 208.902 239.881 199.037 255.871 211.463C256.416 211.886 258.443 215.232 258.907 216.01C257.438 230.527 247.42 249.97 251.42 262.84C258.14 284.467 289.01 272.291 303.395 270.079C310.38 268.964 317.501 269.01 324.471 270.214C339.515 272.728 373.549 294.1 385.586 304.007C393.945 310.887 405.68 321.842 414.924 326.828C407.59 293.978 370.862 266.833 344.927 248.128C339.011 243.862 311.244 227.718 310.355 221.012C309.411 213.887 323.304 200.314 328.407 194.251L330.491 191.669C348.9 168.754 358.247 151.487 363.549 122.077C364.551 116.516 365.945 107.51 365.356 102.094C362.517 111.918 360.052 125.98 354.613 134.412C323.857 182.083 244.331 159.202 205.403 186.359C201.315 189.393 199.25 191.157 195.616 194.721C184.72 191.516 183.32 190.387 174.082 183.874C168.517 180.421 157.91 167.521 155.196 161.244C153.378 157.04 151.949 152.356 149.661 147.826L148.831 147.729L147.033 147.746C146.934 144.995 146.978 142.003 146.963 139.23C129.943 138.931 121.144 139.515 104.499 133.934C107.264 132.079 108.406 131.696 111.668 131.504C132.27 125.203 138.341 98.8661 123.002 85.1445C117.66 80.4131 110.652 78.0084 103.532 78.4636C87.4419 79.6162 78.7868 92.82 80.4282 108.37C79.207 109.235 77.9553 110.151 76.714 110.976C66.2686 89.3504 62.9044 74.4665 70.0447 49.5817C74.8186 32.9438 85.1332 29.2933 93.4633 18.9438C73.8334 27.0772 58.292 42.7546 50.325 62.457C34.7823 99.9561 50.2666 139.028 70.8289 171.351C79.0895 183.578 85.646 199.966 90.7824 213.802C110.657 267.339 111.821 320.655 107.057 377.034C106.05 387.941 104.786 398.823 103.266 409.671C102.557 414.486 100.956 422.343 100.623 426.805ZM188.298 229.92C176.112 249.906 167.722 271.105 169.075 294.866C172.781 359.975 232.967 404.718 296.128 389.246C322.024 382.909 344.377 366.613 358.338 343.894C361.618 338.557 364.369 332.912 366.554 327.04C368.765 322.877 369.675 321.095 371.123 316.633C364.581 313.494 357.394 309.728 350.596 307.449C336.681 378.298 242.005 393.642 203.85 335.337C191.468 316.345 187.248 293.166 192.14 271.026C195.23 256.496 200.473 251.018 207.787 239.121C200.138 234.848 196.618 232.822 188.298 229.92ZM272.258 115.467C259.025 118.872 250.999 132.299 254.265 145.571C257.53 158.843 270.87 167.011 284.171 163.883C292.899 161.83 299.853 155.246 302.381 146.641C304.908 138.035 302.62 128.735 296.389 122.286C290.157 115.837 280.942 113.233 272.258 115.467Z" fill="black"/>
<path d="M203.926 206.047L203.945 207.273C200.16 208.041 190.43 210.192 187.082 209.363C191.56 207.861 199.057 206.851 203.926 206.047Z" fill="black" fill-opacity="0.890196"/>
<path d="M203.926 206.047C206.683 205.204 214.354 202.142 216.23 202.062C213.121 203.868 207.519 206.844 203.945 207.273L203.926 206.047Z" fill="black" fill-opacity="0.780392"/>
<path d="M80.429 108.37C86.7615 119.981 98.1017 130.005 111.668 131.504C108.406 131.697 107.265 132.079 104.5 133.934C93.3048 129.155 83.0188 121.628 76.7148 110.976C77.9562 110.151 79.2079 109.235 80.429 108.37Z" fill="black" fill-opacity="0.937255"/>
<path d="M147.033 147.746L148.831 147.729C147.829 153.473 148.028 188.994 148.625 195.958L151.647 198.249L149.119 198.279C146.285 201.911 148.89 204.024 147.105 209.489C146.674 189.363 146.226 167.765 147.033 147.746Z" fill="black" fill-opacity="0.980392"/>
<path d="M0.666725 161.572C0.00773209 135.419 0.607025 109.816 0.335732 83.7455L0.0809304 49.1801C0.0461404 37.774 -1.1505 20.6886 6.97715 11.3671C13.6413 3.72355 24.2262 0.0904999 34.0948 0.212369C60.8929 0.17917 87.764 0.272921 114.563 0.291643L278.888 0.336189L369.87 0.295822C385.483 0.274455 402.176 -0.588518 417.622 0.736387C444.089 3.00646 446.258 22.5964 446.457 44.4417C446.935 97.005 446.142 149.659 446.737 202.202C430.948 199.974 332.874 198.558 328.407 194.251L330.491 191.669C348.9 168.754 358.247 151.487 363.549 122.077C364.551 116.516 365.945 107.51 365.356 102.094C362.517 111.918 360.052 125.98 354.613 134.412C323.857 182.083 244.331 159.202 205.403 186.359C201.315 189.393 199.25 191.157 195.616 194.721C184.72 191.516 183.32 190.387 174.082 183.874C168.517 180.421 157.91 167.521 155.196 161.244C153.378 157.04 151.949 152.356 149.661 147.826L148.831 147.729L147.033 147.746C146.934 144.995 146.978 142.003 146.963 139.23C129.943 138.931 121.144 139.515 104.499 133.934C107.264 132.079 108.406 131.696 111.668 131.504C132.27 125.203 138.341 98.8661 123.002 85.1445C117.66 80.4131 110.652 78.0084 103.532 78.4636C87.4419 79.6162 78.7868 92.82 80.4282 108.37C79.207 109.235 77.9553 110.151 76.714 110.976C66.2686 89.3504 62.9044 74.4665 70.0447 49.5817C74.8186 32.9438 85.1332 29.2933 93.4633 18.9437C73.8334 27.0772 58.292 42.7546 50.325 62.457C34.7823 99.9561 50.2666 139.028 70.8289 171.351C65.3787 171.253 58.0999 169.844 52.5259 169.161C35.4864 167.071 17.6717 163.038 0.666725 161.572ZM284.171 163.883C292.899 161.83 299.853 155.246 302.381 146.641C304.908 138.035 302.62 128.735 296.389 122.286C290.157 115.837 280.942 113.233 272.258 115.467C259.025 118.872 250.999 132.299 254.265 145.571C257.53 158.843 270.87 167.011 284.171 163.883Z" fill="#4D4D4D"/>
<path d="M174.082 183.874C184.685 184.189 194.963 184.274 205.403 186.359C201.314 189.393 199.25 191.157 195.616 194.721C184.72 191.516 183.32 190.386 174.082 183.874Z" fill="black"/>
<path d="M99.6971 43.2981C107.633 42.8805 111.613 43.6447 106.919 52.5535C104.827 53.2147 104.515 53.2071 102.338 53.0873C98.0884 50.5469 98.1913 47.804 99.6971 43.2981Z" fill="#464546"/>
<path d="M990.802 2.56291C991.756 2.53918 992.709 2.52359 993.662 2.51614L1050.88 2.38919C1071.24 2.36406 1091.26 1.25693 1111.25 5.79214C1147.85 14.0954 1166.52 45.4948 1167.61 81.4647C1168 94.3637 1167.86 107.422 1167.87 120.418L1167.92 194.567C1168.66 206.709 1168.2 223.413 1167.87 235.857C1166.9 272.435 1174.08 314.391 1147.07 343.741C1121.41 372.142 1087.5 365.885 1053.37 366.324C1032.6 366.592 1011.85 367.066 991.06 367.121L991.053 203.257C989.738 190.602 990.148 176.162 990.232 163.38C990.573 109.784 990.74 56.1345 990.802 2.56291ZM1049.14 201.27C1048.28 238.978 1049.21 277.255 1048.73 315.082C1064.97 314.515 1090.6 319.286 1102.12 307.303C1113.16 295.836 1110.87 266.957 1110.86 251.742L1110.75 197.732L1110.82 124.29C1110.93 106.047 1114.43 75.8313 1101.62 61.8041C1093.61 53.0457 1073.93 53.8997 1062.73 54.0688C1058.13 54.1634 1053.54 54.3841 1048.96 54.7307C1048.44 86.4036 1049.1 118.765 1049.08 150.524C1049.07 163.22 1048 189.515 1049.14 201.27Z" fill="#4D4D4D"/>
<path d="M1167.92 194.567C1168.66 206.709 1168.2 223.413 1167.87 235.857C1166.9 272.435 1174.08 314.391 1147.07 343.741C1121.41 372.142 1087.5 365.885 1053.37 366.324C1032.6 366.592 1011.85 367.066 991.06 367.121L991.053 203.257C1008.13 201.974 1032.19 201.308 1049.14 201.27C1048.28 238.978 1049.21 277.255 1048.73 315.082C1064.97 314.515 1090.6 319.286 1102.12 307.303C1113.16 295.836 1110.87 266.957 1110.86 251.742L1110.75 197.732C1125.47 197.995 1140.78 195.975 1155.53 195.484C1159.46 195.353 1164.08 195.162 1167.92 194.567Z" fill="black"/>
<path d="M504.314 2.61009C522.962 2.38048 541.611 2.30351 560.261 2.37909C592.836 2.36016 632.283 -1.08768 657.558 23.2187C674.644 39.6478 680.621 65.4116 680.787 88.3267C680.989 116.309 680.878 144.397 680.989 172.384C681.031 182.919 680.384 198.353 680.871 208.481C680.934 208.84 681.038 209.383 681.031 209.743C680.892 222.831 680.871 236.007 680.864 249.083C680.843 282.97 683.981 319.801 657.904 346.009C649.031 354.762 637.977 360.978 625.89 364.014C609.95 367.989 584.468 366.05 567.057 366.348C546.494 366.701 525.333 367.065 504.795 367.083C504.126 312.517 503.976 257.947 504.346 203.379C503.928 137.221 505.616 68.4065 504.314 2.61009ZM561.47 207.053C561.012 243.051 561.698 279.527 560.98 315.251C607.069 312.629 625.38 325.379 623.866 263.747C623.463 247.324 623.101 223.928 623.806 207.494C624.622 178.952 623.22 148.067 623.872 119.681C625.338 55.8173 622.286 53.4655 561.637 53.9917C560.477 104.134 561.819 156.6 561.47 207.053Z" fill="#4D4D4D"/>
<path d="M504.346 203.379C522.541 205.969 542.598 205.232 561.47 207.052C561.012 243.051 561.698 279.527 560.98 315.251C607.069 312.629 625.38 325.379 623.866 263.747C623.463 247.324 623.101 223.928 623.806 207.494C641.791 207.282 663.079 207.267 680.871 208.481C680.934 208.84 681.038 209.383 681.031 209.743C680.892 222.831 680.871 236.007 680.864 249.082C680.843 282.97 683.981 319.801 657.904 346.009C649.031 354.762 637.977 360.978 625.89 364.014C609.95 367.989 584.468 366.049 567.057 366.348C546.494 366.701 525.333 367.065 504.795 367.083C504.126 312.517 503.976 257.947 504.346 203.379Z" fill="black"/>
<path d="M1193.8 2.62354C1232.35 1.86323 1271.2 2.84792 1309.78 2.44028C1323.33 2.29704 1337.2 2.38968 1350.73 2.84611C1351.89 17.3132 1351.15 39.7161 1351.08 54.5423C1331.72 54.1824 1312.01 54.7601 1292.62 54.5179C1278.98 54.3474 1265.55 53.5498 1251.9 54.2701L1252.36 155.97C1260.63 156.477 1272.3 156.206 1280.74 156.209L1330.6 156.19C1331.27 162.038 1331.03 174.078 1331.07 180.45C1316.51 181.004 1298.5 183.169 1283.74 184.509L1194.13 192.281C1192.77 171.695 1193.73 152.612 1193.89 132.151L1193.94 50.0378C1194.08 40.1135 1194.08 30.1872 1193.94 20.2636C1193.84 14.6239 1193.09 8.01677 1193.8 2.62354Z" fill="#4D4D4D"/>
<path d="M1194.13 192.28L1283.74 184.509C1298.5 183.169 1316.51 181.004 1331.07 180.45C1331.01 187.635 1331.29 201.642 1330.49 208.262C1305.23 208.249 1277.44 207.644 1252.46 208.274C1250.7 241.565 1252.15 281.086 1251.76 314.968L1313.84 314.98C1324.97 314.952 1340.53 314.49 1351.29 315.335C1351.31 326.308 1351.98 357.823 1350.7 367.063L1194.02 367.116L1194.09 251.184C1194.09 232.705 1193.48 210.505 1194.13 192.28Z" fill="black"/>
<path d="M808.489 2.54544C826.302 2.12311 845.791 2.5238 863.694 2.75661C868.411 34.7755 870.951 72.2745 873.943 104.559L884.401 207.168C873.025 206.817 850.369 206.553 839.209 207.558C838.589 196.962 836.418 182.305 834.456 171.967C832.898 179.909 831.944 198.887 831.276 207.839C818.397 207.486 801.621 207.206 788.742 207.739C790.05 203.523 790.823 190.681 791.233 185.592C792.263 172.281 793.362 158.977 794.531 145.678C799.033 98.133 805.267 50.2983 808.489 2.54544Z" fill="#4D4D4D"/>
<path d="M831.277 207.84C825.432 259.958 820.763 314.927 813.896 366.585C801.35 367.67 787.059 366.487 774.311 366.328C761.314 366.166 748.254 367.259 735.43 367.099C729.996 314.082 723.97 261.126 717.367 208.241C734.519 208.005 754.676 207.901 771.793 208.346C773.72 224.508 775.48 240.69 777.053 256.89C777.971 266.26 779.384 284.285 781.603 292.716C783.127 284.211 783.246 275.254 784.053 266.666C785.848 247.489 786.314 226.726 788.742 207.74C801.622 207.206 818.397 207.487 831.277 207.84Z" fill="black"/>
<path d="M901.636 206.461C918.335 206.124 933.358 205.463 950.224 205.595C948.791 216.18 948.15 226.599 946.954 237.157L936.294 329.298C935.035 339.74 934.026 357.295 932.119 366.953C907.335 366.985 881.096 367.461 856.472 367.047C852.652 327.18 846.814 287.256 843.203 247.323C841.999 234.019 840.775 220.828 839.209 207.558C850.37 206.553 873.025 206.817 884.401 207.168C885.445 222.05 886.997 237.249 888.242 252.161C889.279 264.629 890.079 282.755 892.688 294.749C895.555 266.287 899.681 234.619 901.636 206.461Z" fill="black"/>
<path d="M693.799 2.59583C712.3 2.37631 730.795 2.3816 749.289 2.61163C752.768 18.3502 754.215 39.3395 755.864 55.9078L762.558 119.055C765.341 147.304 770.629 180.777 771.791 208.346C754.674 207.901 734.517 208.005 717.366 208.241C709.559 139.898 702.649 70.7242 693.799 2.59583Z" fill="#4D4D4D"/>
<path d="M922.154 2.57137C936.954 1.89945 957.027 2.5033 972.14 2.72275C972.189 16.5474 967.861 46.3501 966.254 61.5786L950.223 205.595C933.356 205.463 918.334 206.124 901.635 206.461L911.912 108.087C915.627 74.2521 920.394 36.3444 922.154 2.57137Z" fill="#4D4D4D"/>
<path d="M504.469 392.415C513.025 391.886 523.96 392.206 532.727 392.205L582.606 392.18L738.227 392.162L1211.59 392.18L1317.55 392.112C1322.4 392.106 1349.11 391.556 1351.56 393.006L1351.78 394.962C1347.54 395.92 1310.61 395.503 1304.37 395.495L1189.53 395.506C1036.19 395.524 673.984 395.898 505.573 394.983C504.945 394.979 504.7 393.308 504.469 392.415Z" fill="#BCCC53"/>
<path d="M1222.1 472.892C1232.08 470.62 1242.06 476.663 1244.67 486.557C1247.29 496.451 1241.6 506.639 1231.8 509.595C1225.16 511.601 1217.95 509.821 1213 504.952C1208.05 500.084 1206.15 492.902 1208.05 486.224C1209.95 479.545 1215.33 474.433 1222.1 472.892Z" fill="#BCCC53"/>
<path d="M1276.28 472.936C1286.48 471.267 1296.13 478.117 1297.92 488.301C1299.72 498.485 1292.98 508.216 1282.82 510.13C1276.14 511.388 1269.3 508.956 1264.91 503.762C1260.52 498.569 1259.26 491.415 1261.62 485.035C1263.97 478.655 1269.57 474.033 1276.28 472.936Z" fill="#BCCC53"/>
<path d="M1328.84 472.952C1335.5 471.643 1342.36 474.019 1346.78 479.173C1351.21 484.327 1352.53 491.464 1350.23 497.859C1347.94 504.255 1342.38 508.922 1335.68 510.079C1328.88 511.255 1321.97 508.617 1317.68 503.202C1313.59 498.041 1312.48 491.121 1314.76 484.943C1317.04 478.765 1322.37 474.22 1328.84 472.952Z" fill="#BCCC53"/>
<path d="M1011.15 423.458C1028.65 422.85 1029.5 444.766 1016.88 449.21C998.379 450.283 997.419 429.181 1011.15 423.458ZM1016.31 447.772C1025.26 442.677 1025.92 425.725 1011.14 425.512C1000.89 432.122 1002.64 447.958 1016.31 447.772Z" fill="black"/>
<path d="M848.372 423.502C866.038 422.92 868.119 442.081 856.13 449.094C837.155 451.161 836.147 430.791 848.372 423.502ZM854.815 447.816C863.311 441.395 862.378 426.68 852.171 425.633C851.287 425.549 850.404 425.494 849.52 425.469C839.083 432.168 841.101 447.885 854.815 447.816Z" fill="black"/>
<path d="M732.667 423.408C750.605 422.466 752.31 444.525 739.674 449.156C725.556 450.461 723.935 441.425 726.036 429.786C728.646 426.567 729.279 425.86 732.667 423.408ZM740.091 447.287C748.838 438.667 746.764 425.198 733.294 425.475C725.076 432.121 724.958 448.616 740.091 447.287Z" fill="black"/>
<path d="M503.33 423.47C519.69 423.058 529.626 429.146 520.503 446.3C515.308 449.974 510.073 449.266 503.887 449.162C503.877 442.55 504.169 429.495 503.33 423.47ZM518.641 444.469C526.018 431.788 518.981 425.449 505.991 425.489C505.861 431.227 504.612 443.332 508.057 447.244C511.228 449.032 516.235 446.765 518.641 444.469Z" fill="black" fill-opacity="0.972549"/>
<path d="M583.045 423.419C585.123 423.333 587.623 423.256 589.349 423.408C598.878 424.25 599.049 425.995 596.275 434.269C595.816 435.639 598.541 439.315 598.931 440.881C599.332 442.497 598.936 444.875 598.725 446.607C595.052 450.631 588.21 449.444 583.15 449.246L583.045 423.419ZM585.44 436.554C585.327 439.687 584.805 443.977 586.113 446.664C589.076 448.94 592.429 447.866 595.859 446.598C598.811 436.73 593.782 436.448 585.44 436.554ZM585.308 435.137C589.026 435.203 591.535 435.495 595.011 433.996C595.814 431.503 596.186 430.773 595.505 428.284C592.418 424.829 589.654 425.505 585.31 425.36L585.308 435.137Z" fill="black" fill-opacity="0.988235"/>
<path d="M753.068 423.388C754.982 423.313 758.649 423.038 760.388 423.458C769.976 425.769 771.563 431.623 763.318 437.206C765.864 440.884 768.974 444.635 768.863 449.226L767.924 449.761C766.205 448.656 766.699 448.955 765.711 446.902C763.881 442.292 762.135 435.978 755.928 437.522C754.585 440.946 757.111 447.614 754.85 450.036L754.21 449.63C752.512 447.432 753.208 428.431 753.068 423.388ZM764.758 434.885C767.131 426.195 763.568 425.31 755.546 424.913C755.455 427.83 755.003 432.113 756.144 434.63C758.837 436.9 761.495 435.974 764.758 434.885Z" fill="black"/>
<path d="M1242.5 423.378C1260.24 423.063 1258.78 427.613 1253.64 437.318C1252.95 438.613 1258.46 446.219 1258.48 449.048C1257.95 449.491 1257.52 449.257 1256.58 449.182C1254.55 447.205 1255.12 447.58 1254.31 444.46C1251.47 438.994 1250.31 439.11 1244.58 436.444C1244.66 439.772 1245.47 447.579 1243.76 449.729L1242.84 449.196C1241.92 443.774 1242.39 429.357 1242.5 423.378ZM1253.2 435.147C1254.46 432.782 1254.89 432.196 1254.71 429.575C1252.51 425.338 1249.04 425.409 1244.55 425.074C1244.36 428.18 1243.76 432.117 1244.98 434.857C1247.46 436.944 1250.26 436.336 1253.2 435.147Z" fill="black"/>
<path d="M1284.41 423.407C1289.32 423.24 1294.63 422.995 1298.49 426.395C1300.98 432.72 1294.54 435.917 1295.26 437.694C1296.34 440.39 1300.44 445.604 1300.18 448.937L1299.07 449.264C1296.77 448.265 1296.83 446.925 1295.61 444.122C1294 440.674 1292.49 436.999 1288.2 437.337C1284.73 440.834 1287.63 446.065 1286.08 449.546L1284.75 449.624C1283.7 448.125 1284.37 426.956 1284.41 423.407ZM1295.59 434.974C1298.12 426.949 1294.05 424.93 1286.48 424.86C1286.39 427.985 1285.88 432.439 1287.2 435.094C1289.94 437.017 1292.54 436.223 1295.59 434.974Z" fill="black"/>
<path d="M718.848 422.142L721.186 422.928L721.471 424.043C720.191 428.169 715.64 447.662 714.033 449.207C708.94 447.735 708.703 431.333 705.906 427.142C702.935 430.738 702.629 447.384 697.668 449.207C694.898 446.558 693.103 436.184 692.268 432.053C691.593 429.534 690.71 426.596 690.334 424.053L691.252 423.348L692.637 423.748C694.377 428.417 697.132 441.278 698.523 446.933C701.745 436.768 700.994 432.065 706.08 420.878C709.754 429.459 711.083 438.316 714.381 447.167C716.016 439.381 717.213 430.36 718.848 422.142Z" fill="black"/>
<path d="M1263.66 423.192C1269 423.232 1275.37 423.037 1278.22 428.318C1282.28 435.88 1273.12 438.713 1267.83 439.159L1266.8 439.252C1266.07 441.719 1266.48 446.057 1266.59 448.773L1265.73 449.416L1264.38 449.16C1263.94 447.481 1263.74 426.716 1263.66 423.192ZM1275.82 435.214C1278.54 426.862 1273.44 425.744 1266.38 425.12C1266.32 428.26 1265.81 433.178 1267.23 435.738C1270.47 437.596 1272.43 436.359 1275.82 435.214Z" fill="black"/>
<path d="M567.429 422.324C570.464 424.343 576.753 444.98 578.42 449.692L577.597 450.162C573.089 445.44 574.532 444.975 572.201 442.173L570.094 442.021L561.65 441.805C560.974 444.558 560.433 448.468 558.303 449.883L557.705 449.09C557.855 442.339 564.004 428.388 567.429 422.324ZM569.397 440.305L571.6 440.104C572.458 437.551 568.797 428.18 567.304 426.012C566.518 428.137 565.556 431.062 564.64 433.046C561.618 439.594 562.427 440.614 569.397 440.305Z" fill="black"/>
<path d="M1074.13 422.513L1075.03 423.792C1075.33 428.751 1076.86 446.646 1074.47 449.786C1071.76 445.909 1074.45 431.989 1072.84 427.808C1068.77 430.432 1067.6 444.66 1063.8 448.851L1062.68 448.779C1060.81 446.258 1057.75 432 1055.79 426.97L1055.27 427.252C1052 430.703 1057.22 447.432 1052.64 450.023L1051.82 449.454C1051.18 445.603 1052.16 427.488 1054.47 423.971L1055.61 423.934C1058.73 427.35 1061.81 440.226 1064.3 445.911C1066.55 436.642 1067.14 429.381 1074.13 422.513Z" fill="black" fill-opacity="0.988235"/>
<path d="M869.365 423.388C873.13 423.291 879.1 422.898 881.57 425.779C889.683 435.258 879.134 438.256 871.912 438.376C871.23 442.968 872.128 443.504 870.666 448.858L870.145 449.092C869.72 440.321 869.365 432.162 869.365 423.388ZM881.027 434.989C883.128 426.225 879.225 425.463 871.376 425.11C871.279 428.197 870.778 432.475 872.065 435.12C874.758 437.309 877.924 436.233 881.027 434.989Z" fill="black"/>
<path d="M1176.62 422.458C1181.08 424.483 1189.47 439.936 1192.88 445.071C1192.67 440.1 1191.19 426.52 1193.66 423.13L1194.54 423.501C1194.67 432.294 1194.57 441.297 1194.55 450.107C1189.87 448.633 1181.52 430.985 1178.64 425.603C1178.56 429.683 1178.57 446.535 1178.04 449.402C1174.93 445.701 1176.53 428.543 1176.62 422.458Z" fill="black" fill-opacity="0.988235"/>
<path d="M1103.28 422.9C1108.1 424.543 1113.35 437.694 1118.39 442.371C1120.13 441.55 1117.73 427.4 1119.89 423.489L1120.84 423.901C1121.7 429.891 1120.85 439.09 1120.92 445.372C1120.96 448.097 1121.13 448.741 1119.6 450.154C1115.28 445.119 1107.62 431.509 1104.34 425.27C1104.07 431.593 1106.08 445.888 1104.18 449.977L1103.29 449.469C1101.8 444.537 1102.94 428.833 1103.28 422.9Z" fill="black"/>
<path d="M1222.07 423.456C1226.72 423.474 1231.13 423.066 1235.4 424.797L1234.72 425.368L1234.88 424.737L1232.72 425.594L1234.01 425.546C1231.59 426.107 1227.13 425.692 1224.49 425.562L1224.44 434.662C1226.94 434.639 1233.19 434.399 1234.95 435.783C1231.92 436.796 1225.85 436.345 1224.49 437.404L1224.45 447.255C1227.44 447.271 1230.44 447.337 1233.42 447.451L1233.05 447.497C1234.08 447.841 1235.14 448.42 1235.98 448.12L1235.97 448.014L1235.63 448.454C1231.22 449.519 1226.38 449.238 1221.83 449.165C1221.68 440.922 1221.98 431.766 1222.07 423.456Z" fill="black"/>
<path d="M1083.19 423.652C1086.38 423.944 1093.57 423.272 1096.08 425.292L1093.33 425.689L1094.52 425.713C1092.37 426.09 1087.78 425.692 1085.41 425.565L1085.39 434.818C1089.27 434.889 1091.51 435.122 1095.35 435.652C1091.48 436.959 1089.64 436.388 1085.76 437.087L1085.39 438.566L1085.33 447.382C1088.72 447.421 1091.57 447.493 1094.97 447.752L1094.33 448.765C1094.92 448.682 1096.15 448.374 1096.51 448.611C1092.37 449.586 1087.24 449.326 1082.91 449.278C1082.47 443.835 1083.16 430.019 1083.19 423.652Z" fill="black"/>
<path d="M1335.17 423.348C1339.71 423.306 1344.59 422.899 1348.78 424.599L1348.09 424.362L1347.69 425.138L1347.59 424.318L1346.98 425.266C1344.83 425.703 1340.19 425.44 1337.82 425.384C1337.64 428.277 1337.92 432.132 1338.05 435.098C1340.74 435.134 1345.83 435.123 1348.22 435.852C1344.61 436.91 1342.84 436.693 1339.13 436.57L1338.3 437.479L1338.2 447.364C1340.65 447.473 1346.42 447.265 1347.75 448.609L1349.06 448.305L1348.1 448.74L1348.24 448.186L1347.6 448.829C1344.06 449.368 1339.11 449.226 1335.41 449.227L1335.17 423.348Z" fill="black" fill-opacity="0.988235"/>
<path d="M924.946 423.361C929.294 423.45 934.242 423.201 938.201 424.835L938.152 425.011L936.948 424.625L936.426 425.431C933.942 425.936 929.712 425.614 927.047 425.516L927.137 434.719C930.352 434.644 935.278 434.204 937.964 435.836C933.643 437.095 929.935 435.662 927.437 437.315L927.332 447.458C930.735 447.476 933.615 447.528 937.025 447.771L937.011 448.664C937.554 448.581 938.236 448.366 938.632 448.562C934.2 449.571 929.329 449.285 924.758 449.198C924.883 440.587 924.946 431.974 924.946 423.361Z" fill="black"/>
<path d="M1156.51 423.464C1161.28 423.563 1165.19 423.254 1169.71 424.737L1169.25 425.321L1169.21 424.731L1168.5 425.5C1166.05 426.074 1161.75 425.715 1159.1 425.608L1158.81 434.665C1161.22 434.605 1167 434.416 1168.78 435.732C1164.74 437.052 1163.37 436.264 1159.36 436.858L1158.9 436.927L1158.94 447.234C1162.3 447.247 1165.04 447.275 1168.4 447.563L1169.12 448.467L1169.47 447.757C1169.66 447.956 1170.03 448.338 1170.29 448.422C1166.04 449.469 1161.04 449.221 1156.61 449.185C1156.66 440.611 1156.63 432.037 1156.51 423.464Z" fill="black"/>
<path d="M966.748 423.508C970.985 423.451 975.306 423.104 979.314 424.341L979.516 424.964C976.392 426.039 972.558 425.649 969.19 425.553L969.281 434.787C973.136 434.788 974.778 434.909 978.577 435.498C974.673 436.964 972.941 436.151 969.573 437.311L969.336 439.262C969.288 441.845 969.371 444.13 969.49 446.712C972.21 448.298 978.98 447.077 980.483 448.386C976.183 449.54 971.271 449.34 966.783 449.349C967.353 442.947 967.04 430.046 966.748 423.508Z" fill="black"/>
<path d="M800.389 423.476C804.446 423.195 805.768 422.863 808.892 424.904L808.934 425.67C807.8 425.7 806.665 425.74 805.531 425.787C802.177 425.927 800.591 425.719 798.406 428.09C798.859 434.55 821.326 445.19 803.757 449.745C800.73 449.7 796.59 449.891 794.51 447.764C795.31 447.097 802.56 447.795 805.274 447.555C806.874 446.595 807.486 446.378 808.196 444.589C808.057 438.307 784.713 432.293 800.389 423.476Z" fill="black"/>
<path d="M961.384 422.583L962.101 423.323C962.045 424.33 960.591 427.444 960.041 428.569C958.156 432.436 956.075 448.321 951.316 448.555C949.799 447.014 945.033 432.565 943.989 429.502C943.119 427.089 942.945 426.192 942.549 423.646L942.973 423.213C947.753 426.642 949.59 438.944 952.04 445.772C955.463 438.583 957.008 425.921 961.384 422.583Z" fill="black"/>
<path d="M543.93 423.46C547.043 423.301 550.053 422.899 552.382 424.938C550.232 427.018 545.433 422.768 541.634 427.961C541.34 433.291 550.37 436.173 553.345 443.136C553.225 448.568 549.498 449.205 544.88 449.97C544.251 449.919 543.624 449.844 543.001 449.746C541.763 449.542 538.078 448.617 537.391 447.634C539.59 447.041 547.167 447.65 549.963 446.612L550.875 444.476C549.003 435.585 529.711 434.866 543.93 423.46Z" fill="black" fill-opacity="0.972549"/>
<path d="M1321.7 422.728C1324.48 422.881 1324.94 423.128 1327.43 424.44L1327.53 425.025C1324.31 425.283 1319.15 425.063 1317.33 427.653C1317.29 433.415 1327.35 436.21 1329.39 443.191C1328.93 447.749 1325.75 448.866 1321.43 449.466C1318.57 449.327 1316.61 449.144 1314.22 447.633C1316.02 446.458 1323.55 448.842 1327.35 445.48C1327.15 440.389 1316.6 435.886 1314.87 430.331C1314.49 429.101 1314.64 427.763 1315.3 426.653C1316.68 424.279 1319.25 423.512 1321.7 422.728Z" fill="black"/>
<path d="M899.931 423.254C906.367 423.746 911.634 423.553 916.386 428.832C921.201 434.175 920.053 441.455 914.751 446.005C910.59 449.581 902.373 450.194 897.203 448.712C898.553 448.457 901.406 448.334 902.888 448.232L902.693 447.581C911.21 447.274 919.044 443.032 915.948 433.156C915.071 430.299 913.047 427.932 910.361 426.617C907.932 425.43 902.714 425.192 900.153 426.095L899.931 423.254Z" fill="black" fill-opacity="0.984314"/>
<path d="M661.709 422.404C666.914 424 669.272 432.574 671.701 437.437C674.922 431.54 674.7 430.013 679.528 424.172L680.127 424.598C679.007 427.755 677.963 429.481 676.335 432.35C675.917 433.424 673.753 437.021 673.071 438.216C673.051 440.457 673.183 448.511 672.202 449.812L670.761 449.322C669.203 446.203 670.56 440.416 669.926 438.54C668.138 433.181 663.671 428.173 661.709 422.404Z" fill="black" fill-opacity="0.980392"/>
<path d="M615.215 422.299C616.352 422.732 616.487 422.96 617.389 423.818C618.139 427.653 617.848 442.078 617.866 447.016C621.04 447.07 628.465 446.7 630.659 448.337C627.497 449.669 619.066 449.189 615.241 449.134L615.215 422.299Z" fill="black" fill-opacity="0.988235"/>
<path d="M641.215 423.689C644.331 423.708 656.477 423.442 658.151 425.279C656.029 426.46 653.845 426.264 651.416 426.282L651.377 444.045C651.562 446.431 651.7 447.047 650.976 449.314L649.933 449.445L649.324 448.906C648.43 446.901 649.594 429.615 649.771 426.232C646.474 426.199 642.615 426.938 641.215 423.689Z" fill="black"/>
<path d="M1198.83 423.642C1202.05 423.673 1214.77 423.627 1216.49 425.255L1214.71 425.793L1215.5 425.789C1214.1 426.22 1211.03 426.109 1209.44 426.116L1209.42 439.958C1209.46 442.386 1209.72 446.824 1209.24 449.04L1208 449.102C1206.65 447.318 1207.27 429.779 1207.27 426.179C1203.38 426.192 1201.13 426.984 1198.83 423.642Z" fill="black"/>
<path d="M1039.68 438.273C1037.64 438.808 1036.67 438.097 1035.51 438.36C1031.63 439.233 1035.95 445.531 1033.67 449.392L1032.01 449.603L1031.41 448.849C1031.22 445.8 1030.48 425.196 1031.58 423.492L1033.87 423.516L1034.17 425.101C1033.87 428.347 1033.12 432.45 1034.4 435.307C1035.62 436.617 1036.44 436.551 1038.19 436.759L1039.68 438.273Z" fill="black"/>
<path d="M986.425 423.099C987.552 423.233 987.671 423.375 988.589 423.977C989.257 428.712 988.888 441.606 988.847 447.082C990.503 447.077 992.159 447.086 993.815 447.109C995.986 447.147 999.033 446.984 1000.36 448.353L999.214 449.211L986.342 449.194L986.425 423.099Z" fill="black"/>
<path d="M1125.3 424.421C1128.12 423.672 1141.68 423.447 1143.69 425.38C1141.59 426.458 1138.81 426.163 1136.38 426.131L1136.32 442.394C1136.45 445.373 1136.64 446.402 1135.45 449.086C1133.78 446.51 1134.23 429.983 1134.26 426.09C1130.84 426.104 1128.1 426.338 1125.3 424.421Z" fill="black"/>
<path d="M788.908 422.504C789.645 423.199 789.318 422.829 789.597 424.069C787.085 427.562 784.914 430.822 782.576 434.438C784.594 438.345 790.39 445.565 790.794 448.941L789.012 450.177C787.802 448.973 782.103 438.627 779.014 434.811C781.275 431.729 786.466 424.929 788.908 422.504Z" fill="black" fill-opacity="0.972549"/>
<path d="M832.249 435.007C831.999 431.28 831.881 427.546 831.888 423.812L832.89 422.839C835.93 425.077 834.921 447.032 832.89 449.201C831.881 444.849 832.02 441.143 832.256 436.697L823.768 436.544L832.249 435.007Z" fill="black"/>
<path d="M897.202 448.712C897.161 444.384 896.785 427.037 898.135 423.694L899.93 423.254L900.153 426.095C900.34 430.746 898.99 444.643 901.085 447.283L902.692 447.581L902.887 448.232C901.405 448.334 898.552 448.457 897.202 448.712Z" fill="black"/>
<path d="M529.711 422.807C531.427 423.176 530.833 422.85 532.065 423.958C532.936 428.54 532.534 444.273 532.483 449.631L530.404 449.049C529.147 446.83 529.743 427.319 529.711 422.807Z" fill="black" fill-opacity="0.988235"/>
<path d="M774.485 422.164L776.148 423.011C777.33 427.652 777.08 444.701 777.01 449.942L775.125 449.328C773.705 445.774 774.394 426.818 774.485 422.164Z" fill="black"/>
<path d="M818.911 436.26C818.223 439.553 819.405 448.505 817.729 449.997C816.08 449.224 815.732 447.481 816.003 445.895C816.622 442.316 815.224 425.331 816.553 423.167L818.014 422.978C818.884 425.198 818.035 430.755 818.717 434.663L818.821 435.26L818.911 436.26Z" fill="black"/>
<path d="M605.288 422.442L606.699 422.84C608.243 425.248 607.586 446.689 607.197 450.622L605.921 449.588C604.54 446.866 605.079 426.605 605.288 422.442Z" fill="black"/>
<path d="M634.517 422.913L635.695 423.794C636.85 426.738 636.595 445.646 636.596 449.736L634.956 448.898C633.852 445.651 634.437 427.148 634.517 422.913Z" fill="black"/>
<path d="M1033.87 423.516C1049.22 422.725 1049.77 436.111 1039.68 438.273L1038.19 436.759C1041.44 436.002 1043.8 435.245 1044.41 431.579C1043.32 425.792 1038.95 425.47 1034.17 425.101L1033.87 423.516Z" fill="black" fill-opacity="0.976471"/>
<path d="M818.822 435.259C822.934 434.275 828.076 434.41 832.251 435.007L823.769 436.544C822.113 436.697 820.569 436.443 818.913 436.26L818.822 435.259Z" fill="black" fill-opacity="0.960784"/>
<path d="M1307.1 422.14L1308.28 423.021C1309.44 425.964 1309.18 444.872 1309.18 448.962L1307.54 448.125C1306.44 444.877 1307.02 426.374 1307.1 422.14Z" fill="black"/>
</svg>
