<svg width="789" height="675" viewBox="0 0 789 675" fill="none" xmlns="http://www.w3.org/2000/svg">
<path d="M375.78 0H412.021C418.652 1.49814 426.68 0.859538 433.449 1.80812C447.13 3.72533 460.933 5.85389 474.382 9.0611C556.727 29.2528 628.534 79.5298 675.678 150.001C680.902 157.884 689.82 172.133 693.896 180.675C696.227 178.89 698.72 177.277 700.993 175.481C720.19 160.317 737.603 142.827 755.437 126.095C757.244 124.401 758.908 122.883 761.011 121.55C764.101 119.562 767.807 118.758 771.444 119.284C782.701 120.836 783.969 130.089 786.276 138.679C790.456 154.25 788.565 165.01 785.005 179.965C786.322 184.176 787.64 189.013 789 193.107V217.532C784.323 230.591 784.635 230.731 785.876 244.457C787.702 264.635 782.439 288.383 766.994 302.382C763.743 305.399 759.848 308.223 757.332 311.877C754.447 316.964 755.922 321.193 752.829 327.246C749.026 334.69 745.351 341.242 740.312 347.989C737.819 351.332 733.947 355.494 731.744 358.799C730.792 370.619 729.243 386.857 727.055 398.516C712.604 476.125 671.59 546.28 611.055 596.943C567.926 633.009 516.464 657.724 461.353 668.843C452.199 670.708 442.861 672.091 433.599 673.355C429.007 673.979 419.842 673.944 415.866 675H373.071C368.101 673.763 361.594 673.94 356.338 673.316C293.06 665.788 228.048 639.524 179.311 597.726C167.613 587.851 156.508 577.295 146.053 566.114C102.831 518.995 73.8347 460.599 62.42 397.687C60.177 385.18 58.673 370.795 57.7118 358.178C51.7596 352.431 36.9405 331.533 35.2209 323.728C31.6782 307.649 33.8649 312.982 21.2562 301.296C7.13929 288.211 1.62133 262.689 3.41535 243.922C3.79034 240 4.53089 235 4.52057 230.989C3.66323 225.849 1.41698 219.757 0 214.51V195.953C0.684623 194.116 1.37309 190.394 1.99869 188.686C5.95876 177.871 2.03228 172.127 1.08927 161.253C0.315539 152.33 2.68329 130.91 8.99814 124.007C11.6574 121.045 15.4177 119.307 19.397 119.2C26.5947 118.975 29.7762 122.303 34.7039 126.9C38.0477 130.02 41.3697 133.23 44.701 136.365L72.6839 162.229C77.8644 166.938 82.9498 171.678 88.6932 175.698C90.9735 177.295 93.3243 178.841 95.375 180.728C97.8672 176.971 100.529 171.745 102.868 167.736C148.741 88.8631 224.5 31.8407 312.983 9.58504C326.843 6.03497 340.917 4.05193 355.029 1.87203C361.081 0.937121 370.194 1.67772 375.78 0Z" fill="white"/>
<path d="M388.297 196.657C451.306 193.57 501.25 235.132 505.561 298.556C506.089 306.307 505.954 313.537 505.927 321.281L505.892 353.475C505.908 358.151 505.534 379.937 506.324 382.648C507.672 383.734 509.772 382.251 510.061 380.889C510.889 376.959 510.615 371.37 510.612 367.464L510.573 338.374C510.565 333.404 510.442 328.39 510.669 323.432C510.862 319.276 512.191 317.838 516.387 317.886C527.185 318.008 536.293 324.332 537.082 335.645C537.579 342.78 537.34 349.943 537.306 357.095C537.256 366.934 537.26 376.773 537.317 386.611C537.248 416.254 533.9 417.691 504.328 417.29C496.75 417.186 493.402 416.447 488.04 410.968C481.274 422.588 474.521 432.008 464.439 441.07C444.047 459.393 417.758 469.757 390.166 468.154C383.365 467.715 375.803 466.698 369.252 464.926C346.829 458.673 327.027 445.342 312.798 426.918C308.363 421.178 304.717 415.064 301.111 408.787C293.711 419.868 284.991 416.489 273.172 417.136C268.44 417.394 262.842 416.766 258.607 414.532C250.024 410.005 252.107 400.049 249.755 392.463C248.528 391.415 245.023 389.065 244.476 387.763C240.478 378.249 241.126 361.858 243.207 351.871C244.178 347.21 247.052 346.006 250.409 344.103C251.162 331.274 252.026 320.992 267.611 318.766C270.339 318.376 273.898 317.656 276.485 318.868C278.411 321.555 277.83 335.199 277.828 339.307L277.805 368.391C277.802 372.195 276.615 381.002 280.41 382.632C282.596 381.56 282.426 376.2 282.434 373.955C282.459 367.054 282.389 360.13 282.398 353.228C282.438 341.928 282.416 330.628 282.333 319.328C282.293 310.527 282.076 299.752 283.117 291.088C285.627 270.191 294.935 248.036 308.939 232.205C324.391 214.737 347.522 202.82 370.308 198.489C376.028 197.402 382.498 197.011 388.297 196.657Z" fill="#222021"/>
<path d="M325.639 382.249L465.063 382.245C465.052 382.56 465.033 382.874 465.009 383.188C463.904 397.552 457.612 407.959 446.729 417.201C432.113 428.598 417.812 433.329 399.428 434.304C367.038 436.026 327.51 418.885 325.639 382.249Z" fill="white"/>
<path d="M391.638 217.455C412.58 216.696 431.804 222.847 449.537 233.798C465.737 243.593 478.119 258.61 484.653 276.377C486.738 282.22 488.078 288.621 489.504 294.688C487.281 291.764 484.788 286.857 482.635 283.578C478.308 276.997 473.261 270.785 467.583 265.297C450.936 249.214 431.038 238.921 407.995 235.882C402.56 235.165 396.858 235.242 391.433 235.299C380.327 235.583 369.355 237.777 358.994 241.784C331.795 252.093 310.334 274.076 298.448 300.401C299.663 281.449 307.147 263.439 319.72 249.207C338.014 228.356 364.612 219.189 391.638 217.455Z" fill="white"/>
<path d="M249.223 350.333C250.141 350.666 249.847 350.532 250.641 351.133C250.981 357.6 250.752 365.085 250.788 371.615C250.809 375.281 250.955 383.027 250.385 386.272C249.725 385.948 249.849 385.964 249.291 385.436C248.416 382.554 248.373 353.355 249.223 350.333Z" fill="#726F72"/>
<path d="M555.825 390.144C558.333 382.269 565.414 378.976 571.097 371.591C586.53 351.528 577.126 336.843 569.236 316.455C567.344 311.494 565.067 306.307 564.52 300.977C561.115 267.772 588.518 258.111 612.858 246.54C626.458 240.128 639.888 233.372 653.144 226.277C661.666 221.7 669.768 216.635 678.07 211.665C692.355 203.033 707.338 194.573 720.047 183.671C734.618 171.171 748.772 158.196 762.487 144.772C763.2 144.073 763.932 143.366 764.902 143.262C766.497 144.974 765.889 148.553 765.881 150.804C765.758 177.738 749.55 195.963 730.388 212.43C711.472 228.686 691.639 242.547 668.886 253.076C658.738 257.774 647.739 261.263 637.279 265.229C627.479 268.862 617.219 272.577 607.199 275.439C609.853 275.517 611.687 275.446 614.311 275.146C642.084 271.974 666.632 263.181 690.687 249.089C699.745 243.783 707.843 239.487 716.191 232.693C726.396 224.366 735.854 214.702 744.908 205.128C751.099 198.579 758.731 190.946 764.263 183.965C768.304 196.717 768.312 205.992 762.787 218.161C748.703 249.177 722.247 264.204 692.744 278.287C681.414 283.695 668.131 289.335 656.064 292.583C646.194 295.24 634.952 296.346 624.886 298.671C621.808 299.382 617.03 300.02 614.183 301.086C618.918 301.795 644.002 299.961 649.504 298.818C673.497 293.833 700.954 283.899 721.523 270.263C735.785 260.805 750.278 246.645 762.664 234.761C762.834 236.144 762.984 237.53 763.111 238.917C765.762 268.595 756.072 280.939 731.516 295.211C693.935 317.053 656.742 317.757 614.858 321.21C649.766 327.263 670.527 323.227 704.418 314.791C710.732 313.22 726.034 308.765 731.609 308.203C733.527 309.406 732.325 312.48 731.524 314.1C723.01 331.303 711.102 346.112 692.498 352.96C687.162 354.961 681.553 356.143 675.866 356.466C659.709 357.386 630.915 351.534 615.986 344.591L614.935 345.336C629.016 354.534 640.704 356.915 656.827 360.522C664.528 362.313 672.276 363.904 680.058 365.295C671.24 379.061 662.332 382.725 646.252 382.641C626.438 382.537 614.912 375.753 597.675 367.068C604.433 381.184 622.967 384.284 636.378 389.897C638.092 390.61 639.637 390.329 639.811 392.448C638.362 395.322 634.417 397.36 631.724 398.905C621.692 404.665 602.869 397.784 592.937 393.28C587.647 390.883 584.191 387.898 577.376 385.474C582.381 394.397 589.504 398.154 598.037 403.382C599.875 404.511 602.795 405.408 604.04 407.053L603.928 407.866C597.201 416.4 573.578 410.556 566.227 404.919C560.086 400.211 557.52 397.722 555.825 390.144Z" fill="#222021"/>
<path d="M609.699 340.995C611.46 341.934 614.515 343.446 615.987 344.591L614.935 345.336C612.843 344.162 611.379 342.672 609.699 340.995Z" fill="#A2A1A1"/>
<path d="M24.1244 142.293C29.2431 146.407 34.1134 151.907 39.0334 156.39C49.5265 166.115 60.1179 175.809 71.0553 185.035C84.1743 196.1 99.5733 204.21 114.034 213.231C133.79 225.555 154.156 235.783 175.113 245.824C186.216 251.143 198.16 255.846 208.037 263.128C221.645 272.865 227.57 287.343 224.339 304.029C220.73 321.024 207.635 337.388 210.611 355.341C211.869 362.931 217.176 371.155 222.605 376.519C229.691 383.52 238.505 388.568 229.752 399.101C223.345 406.814 212.679 410.833 202.889 411.942C195.747 412.559 189.987 412.393 184.856 407.053C194.144 401.752 207.515 395.329 211.798 385.42C205.82 387.859 200.346 391.85 194.854 394.07C181.145 399.602 160.566 407.261 149.883 392.602C149.69 392.34 149.708 391.87 149.699 391.561C151.171 390.317 155.049 389.331 157.041 388.483C168.782 383.491 186.426 380.011 191.503 367.097C175.482 375.832 162.14 382.482 143.291 382.634C128.875 382.75 116.848 379.074 109.52 365.161C117.408 363.892 124.311 362.336 132.02 360.642C148.729 356.972 159.518 354.627 174.257 345.602L173.275 344.615C159.839 351.335 130.576 356.996 115.705 356.575C110.008 356.437 104.362 355.451 98.9542 353.649C79.4134 347.125 67.7968 333.017 58.4783 315.305C57.5329 313.508 56.5223 311.119 56.9026 309.092C58.1924 308.223 60.3972 308.31 61.8354 308.701C100.333 319.161 134.236 329.015 174.329 321.214C132.711 317.693 96.2551 317.133 58.7695 295.658C31.8013 280.208 23.8518 268.508 26.5539 236.489C26.6055 235.879 26.6622 235.27 26.7238 234.661C48.8192 256.573 66.5582 272.6 95.3525 284.656C124.655 296.925 143.614 301.168 175.114 301.216C175.842 301.21 176.571 301.187 177.299 301.145C170.156 299.756 162.938 298.308 155.8 296.94C148.713 295.582 138.883 294.21 132.229 292.217C108.962 285.247 72.9049 268.486 54.1623 253.257C46.4557 247.041 39.7245 239.704 34.1928 231.491C23.7515 215.977 19.1138 202.709 25.0045 184.021C37.5894 197.826 50.361 211.726 63.8441 224.601C74.1608 234.454 85.9808 242.097 98.4337 248.906C119.579 261.114 141.907 270.298 166.21 273.861C169.765 274.399 174.383 275.258 177.981 275.402C179.298 275.445 180.616 275.445 181.933 275.402C172.018 272.387 162.323 268.839 152.571 265.337C142.401 261.413 131.497 258.094 121.597 253.543C97.9872 242.689 77.0537 228.138 57.5587 211.137C36.5611 192.826 20.3034 172.235 24.1244 142.293Z" fill="#222021"/>
<path d="M179.214 341.053C177.703 343.068 176.503 344.33 174.257 345.602L173.274 344.615L179.214 341.053Z" fill="#A2A1A1"/>
<path d="M77.3613 373.931C80.75 375.347 87.9701 377.874 90.3883 380.818C91.0286 381.597 91.6284 385.652 91.8211 386.892C95.8265 412.709 103.445 438.026 113.904 461.951C147.134 536.517 208.526 594.894 284.665 624.329C360.402 653.394 444.56 651.313 518.771 618.546C595.664 584.453 655.278 520.401 683.768 441.254C687.956 429.627 691.419 417.753 694.135 405.694C694.651 403.286 695.248 400.442 695.715 398.05C699.124 380.536 695.225 380.78 712.292 373.947C711.649 377.278 711.148 382.25 710.701 385.732C709.083 398.231 705.774 412.32 702.302 424.433C690.51 466.436 670.215 505.572 642.677 539.411C597.486 594.89 535.025 633.641 465.248 649.483C450.62 652.774 437.298 654.577 422.392 656.068C401.415 657.998 380.295 657.701 359.381 655.185C297.795 648.601 239.514 624.017 191.816 584.503C128.812 532.973 85.5044 455.097 77.3613 373.931Z" fill="#222021"/>
<path d="M668.246 407.643C667.283 412.047 666.347 415.518 665.064 419.848C658.075 443.308 647.951 465.719 634.968 486.474C595.607 550.106 532.602 595.518 459.789 612.74C385.99 630.15 308.288 617.217 244.108 576.828C195.766 546.334 157.791 501.912 135.183 449.414C129.611 436.515 124.209 421.309 121.105 407.562C124.117 408.475 128.087 409.053 131.248 409.608C133.36 412.644 137.878 416.689 139.084 419.136C140.572 422.156 142.585 428.482 143.885 431.892C146.589 439.124 149.632 446.224 153.004 453.171C167.79 483.966 188.264 511.686 213.349 534.876C266.602 583.825 337.339 609.238 409.567 605.366C416.964 605.019 423.383 604.137 430.749 603.166C512.164 592.12 584.007 544.323 625.656 473.494C632.73 461.458 638.901 448.91 644.118 435.957C646.26 430.709 647.855 424.749 650.012 419.775C650.682 418.223 656.669 411.407 658.237 409.681C661.589 409.084 664.925 408.402 668.246 407.643Z" fill="#222021"/>
<path d="M379.281 55.2585C384.031 54.9171 390.905 54.998 395.794 55.0065C432.933 54.9156 469.713 62.2574 503.974 76.6C556.476 98.7401 601.104 136.161 632.059 184.001C636.493 190.929 643.771 202.385 646.772 209.826C642.472 212.096 638.161 214.336 633.831 216.546C624.624 197.148 609.113 175.445 594.893 159.451C547.869 106.496 481.837 74.2575 411.162 69.7544C380.283 68.5327 352.058 70.7604 322.241 79.439C265.176 95.55 215.039 130.079 179.638 177.649C169.954 190.767 163.28 202.349 155.548 216.444C151.263 214.315 147.012 212.12 142.795 209.86C143.703 206.895 147.07 201.048 148.69 198.223C159.048 180.224 171.239 163.345 185.07 147.855C235.021 92.5268 304.85 59.2337 379.281 55.2585Z" fill="#222021"/>
<path d="M385.269 17.9152C408.25 16.5215 441.771 20.4813 464.05 25.3234C537.853 41.7841 603.458 83.8256 649.249 144.007C658.499 156.204 666.994 169.608 674.595 182.905C676.063 185.471 677.134 188.083 678.802 190.57C675.254 193.004 671.563 195.221 667.749 197.211C666.547 194.394 663.303 188.785 661.689 185.884C649.823 164.845 635.449 145.325 618.876 127.753C563.291 67.9561 486.029 32.9798 404.42 30.6715C374.475 28.8826 338.341 34.2063 309.607 42.2788C245.732 60.9126 189.575 99.6657 149.489 152.775C137.666 168.506 130.933 180.374 121.485 197.237C117.776 195.033 114.464 193.002 110.871 190.617C124.034 165.008 140.679 141.345 160.33 120.301C218.466 57.2752 299.564 20.3625 385.269 17.9152Z" fill="#222021"/>
<path d="M680.89 401.394C683.067 399.483 685.267 397.772 687.543 395.988L686.395 401.648C683.91 412.077 681.248 422.576 677.816 432.743C662.201 478.988 635.496 520.701 600.041 554.24C541.482 609.969 462.771 639.481 382.009 635.979C303.894 632.597 230.216 598.735 176.776 541.657C144.267 506.839 120.519 464.779 107.499 418.958C106.18 414.32 102.229 400.407 102.365 396.424C104.78 398.238 106.864 399.687 108.926 401.921C114.058 424.375 121.777 446.155 131.927 466.832C166.121 536.266 226.352 589.388 299.513 614.639C373.842 640.109 455.278 634.727 525.61 599.694C588.495 568.179 637.977 515.134 665.056 450.212C670.419 437.347 675.05 424.522 678.305 410.948C679.022 407.959 679.75 404.695 680.744 401.798L680.89 401.394Z" fill="#D41B23"/>
<path d="M381.472 39.1054C401.955 37.9183 427.566 39.6883 447.839 43.5006C517.643 56.2482 580.651 93.3736 625.626 148.257C634.54 159.146 642.704 170.627 650.062 182.62C651.8 185.498 653.341 188.408 654.947 191.478C656.4 194.254 659.99 198.031 659.566 201.189C659.335 202.899 657.282 203.698 655.76 204.54C651.684 197.597 648.201 190.367 643.883 183.473C591.519 99.9205 506.397 50.4953 407.903 44.8028C367.528 43.5357 329.897 48.9218 291.898 63.1353C238.4 83.3206 191.951 118.675 158.246 164.867C149.675 176.499 140.055 191.363 134.048 204.544C132.275 203.74 130.622 202.652 128.966 201.624C130.231 198.567 133.64 192.781 135.376 189.722C146.337 170.475 159.402 152.504 174.329 136.14C227.76 77.5812 302.282 42.6723 381.472 39.1054Z" fill="#D41B23"/>
<path d="M385.392 151.189C416.132 148.471 454.831 158.154 481.976 172.52C511.109 188.001 535.645 210.892 553.105 238.883C555.494 242.714 560.752 251.442 562.028 255.6C560.49 257.329 558.175 259.213 556.38 260.765C550.131 246.57 540.396 231.968 530.159 220.332C497.105 182.747 454.596 161.995 404.805 158.638C388.401 157.074 364.089 160.243 348.262 164.45C307.434 175.493 271.804 200.571 247.631 235.279C240.611 245.374 238.504 250.955 232.845 260.739C230.906 258.988 229.095 257.192 227.235 255.362C235.116 240.088 243.575 226.604 255.073 213.693C288.362 176.208 335.324 153.684 385.392 151.189Z" fill="#222021"/>
<path d="M238.639 426.479C239.261 426.818 252.865 447.176 255.15 449.919C268.882 466.394 284.28 479.67 302.403 491.078C340.803 515.246 390.39 522.293 434.374 512.311C474.136 503.249 509.622 480.907 534.987 448.972C541.051 441.382 545.408 434.447 550.54 426.283C552.119 427.627 554.924 429.265 556.773 430.413C555.798 431.757 554.627 433.73 553.71 435.179C537.942 460.842 516.217 482.325 490.382 497.809C447.357 523.788 396.523 530.153 348.007 518.151C311.615 508.778 278.905 488.628 254.166 460.337C245.786 450.663 239.462 441.285 232.895 430.39C235.017 428.953 236.595 428.224 238.639 426.479Z" fill="#222021"/>
<path d="M333.024 537.484C335.666 537.28 337.988 537.507 339.985 539.387C344.829 543.953 349.165 549.578 353.441 554.667L374.095 579.113C375.45 568.741 377.997 555.245 379.819 544.812C382.758 545.236 387.82 546.153 390.617 545.995C408.893 544.985 427.008 542.215 445.265 540.655L445.816 549.863C438.596 550.822 431.354 551.593 424.092 552.171C424.658 564.719 426.989 580.026 428.191 592.64L417.319 593.673C416.39 588.868 415.916 582.935 415.404 577.98C414.845 569.832 413.797 561.521 412.877 553.388C405.36 554.348 398.272 555.241 390.709 555.607C390.528 553.82 390.239 552.021 389.973 550.241C388.039 557.869 385.316 590.186 381.685 594.008C380.678 595.067 379.328 595.653 377.858 595.58C375.875 595.476 374.401 594.393 372.961 593.137C368.994 589.677 365.711 585.096 362.283 581.089L339.212 553.889C336.831 564.846 335.145 577.009 333.109 588.221C329.681 587.277 325.879 586.707 322.356 586.229C324.385 571.423 327.308 556.505 329.823 541.761C330.27 539.145 330.812 538.86 333.024 537.484Z" fill="#222021"/>
<path d="M448.863 90.9321C456.329 91.0924 460.059 100.945 463.68 106.619C470.067 116.627 475.65 127.419 482.134 137.365C482.6 135.516 483.158 133.652 483.809 131.86C486.976 123.101 489.419 113.861 492.782 105.197C496.272 106.112 499.736 107.136 503.165 108.269C500.302 117.077 497.336 126.052 494.2 134.761C492.485 139.531 489.688 151.607 485.609 153.764C483.185 153.762 481.255 153.588 479.599 151.625C475.977 147.366 473.542 142.166 470.526 137.486C464.269 127.774 458.618 116.965 452.103 107.477C448.578 118.23 444.98 128.959 441.316 139.665C437.999 138.279 434.609 137.078 431.161 136.067C434.189 127.27 437.144 118.449 440.033 109.606C441.559 105.008 443.073 100.149 444.814 95.6467C445.904 92.8358 446.224 92.049 448.863 90.9321Z" fill="#222021"/>
<path d="M194.247 422.337C207.111 422.372 211.501 436.157 217.684 444.737L218.007 445.18C215.344 446.837 212.236 448.567 209.504 450.166C205.923 443.597 203.124 437.09 197.11 432.64C194.586 434.096 192.034 435.506 189.457 436.866C197.03 449.723 204.498 462.645 211.859 475.629C209.003 477.239 206.559 478.664 203.786 480.452C197.815 470.867 192.568 461 186.755 451.356C184.995 448.263 183.226 444.98 181.192 442.075C180.746 442.221 180.305 442.387 179.871 442.568C177.821 443.443 175.119 444.922 174.255 447.041C174.208 452.512 190.913 478.653 194.728 485.715C191.989 487.291 189.019 488.843 186.228 490.361C182.27 483.411 178.27 476.488 174.23 469.587C169.339 461.154 158.015 443.331 168.945 436.146C173.527 433.137 189.365 423.724 194.247 422.337Z" fill="#222021"/>
<path d="M283.915 518.267C293.284 517.762 301.968 522.312 309.857 526.982C308.789 529.498 307.026 532.699 305.745 535.188C299.001 531.902 293.768 528.904 286.342 527.606C283.93 530.862 283.214 532.268 281.878 536.09C288.374 538.567 296.829 542.932 303.237 545.937C308.451 548.38 317.001 552.198 321.781 555.045C320.512 557.931 319.319 560.855 318.203 563.803C305.458 557.507 292.516 551.659 279.804 545.34L278.338 544.712C276.444 545.421 274.438 550.676 275.032 552.568C278.463 557.299 306.551 569.674 313.454 572.926C312.383 575.704 310.59 578.955 309.201 581.648C297.851 575.079 284.125 570.841 272.962 563.749C267.465 560.258 261.679 553.1 264.727 546.242C268.163 538.513 271.794 530.592 275.797 523.164C277.483 520.062 280.642 518.822 283.915 518.267Z" fill="#222021"/>
<path d="M472.526 530.133L473.177 530.411C474.456 532.796 475.473 535.897 476.409 538.482C472.175 540.216 463.314 543.587 459.97 546.068C459.073 547.401 459.211 549 459.362 550.514C459.442 551.32 460.144 552.595 460.883 552.83C467.228 554.837 479.437 547.74 485.462 546.08C490.871 544.385 498.137 542.982 503.469 545.633C508.813 548.218 512.711 559.734 509.745 564.781C507.387 568.784 499.894 572.814 495.637 574.421C490.829 576.235 485.879 578.42 481.044 580.142C474.972 582.303 468.523 585.474 462.332 587.081C460.525 584.264 459.805 581.791 458.664 578.666C467.232 574.69 476.679 571.847 485.547 568.067C489.642 566.322 501.566 563.829 499.131 556.509C497.34 552.83 492.177 554.232 489.184 555.064C476.76 558.516 455.983 573.242 449.079 554.04C443.751 539.218 461.604 533.832 472.526 530.133Z" fill="#222021"/>
<path d="M386.34 86.4385C390.459 86.0532 397.066 86.3199 401.373 86.3988C401.392 89.5484 401.284 92.5524 401.173 95.6939C398.006 95.5999 394.835 95.5421 391.669 95.5202C380.308 95.4266 380.29 95.4027 380.242 105.866L423.413 106.509C423.375 109.661 423.321 112.811 423.252 115.961C409.305 115.464 394.211 115.521 380.181 115.329C379.96 120.775 378.746 123.236 384.368 124.964C390.393 125.772 396.708 125.599 402.806 125.646L423.009 125.975L422.92 135.284C414.556 134.702 405.661 134.893 397.247 134.622C392.223 134.461 386.668 134.749 381.76 133.765C378.992 133.232 376.362 132.139 374.034 130.551C367.163 125.813 369.81 117.987 369.523 110.662C368.934 95.5741 369.244 88.3183 386.34 86.4385Z" fill="#222021"/>
<path d="M236.382 142.845C238.413 145.109 240.415 147.398 242.388 149.711C237.228 154.977 232.294 156.632 229.124 163.714C229.991 165.197 230.946 167.071 232.358 167.947C236.635 168.367 243.532 161.832 247.066 158.913C252.507 154.417 260.999 147.067 268.693 147.773C274.888 148.341 282.248 157.8 280.747 164.101C278.787 172.328 268.573 178.648 262.661 184.215C257.117 188.931 250.203 195.182 244.299 199.102C242.462 197.616 239.726 194.243 238.089 192.347C245.385 186.74 252.281 180.118 259.6 174.458C263.653 171.324 268.325 167.586 270.574 162.927C268.881 160.47 268.297 159.697 266.186 157.623C252.978 162.57 245.2 178.303 230.518 178.209C224.765 178.172 217.575 169.354 218.549 163.769C219.993 155.478 230.159 147.836 236.382 142.845Z" fill="#222021"/>
<path d="M225.78 463.319C229.101 465.792 231.551 468.828 235.123 471.375L229.212 516.876C234.216 515.308 241.743 513.89 247.023 512.726L273.091 506.936C276.137 509.675 279.151 512.453 282.13 515.265C281.291 516.186 280.582 516.14 279.226 516.525C264.259 519.973 248.405 522.655 233.652 526.411C218.911 530.168 216.096 526.319 218.748 511.96C219.331 508.808 219.828 504.948 220.302 501.75C222.274 488.963 224.1 476.148 225.78 463.319Z" fill="#222021"/>
<path d="M522.805 119.675C524.647 121.278 527.293 123.206 529.339 124.608C541.825 133.161 553.872 143.793 566.47 152.013L560.475 159.6C557.767 156.914 546.976 149.187 543.474 146.561C540.631 149.897 536.351 156.094 533.627 159.78C528.919 165.862 524.462 172.127 519.708 178.158C517.034 176.264 513.775 173.588 511.136 171.54C513.663 168.814 518.987 161.241 521.472 157.797C525.59 152.089 530.66 145.828 534.517 140.14C531.03 136.927 521.592 130.386 517.254 127.198C519.057 125.032 521.118 122.009 522.805 119.675Z" fill="#222021"/>
<path d="M308.243 100.661C310.46 102.085 316.569 133.711 320.754 136.548C326.638 137.475 350.662 129.237 357.957 126.972C358.457 129.487 359.931 133.497 360.782 136.04C358.31 136.621 355.6 137.442 353.133 138.13C347.676 139.962 341.019 141.917 335.52 143.515C329.002 145.178 319.932 148.087 313.688 144.481C308.436 141.447 306.949 132.76 305.29 127.183L298.399 103.868C301.532 102.944 305.504 102.126 308.243 100.661Z" fill="#222021"/>
<path d="M556.75 493.625C559.786 493.417 561.889 493.116 564.832 494.28C569.671 496.345 575.932 502.008 577.896 506.951C581.302 515.524 577.018 521.707 569.421 524.866C554.831 528.084 535.495 503.037 556.75 493.625Z" fill="#222021"/>
<path d="M559.019 500.105C567.178 500.067 578.882 513.69 567.413 518.39C562.232 518.903 557.466 514.379 555.081 510.061C552.577 505.53 554.708 502.228 559.019 500.105Z" fill="white"/>
<path d="M603.47 427.72C609.842 427.011 625.676 435.452 631.474 438.873C630.48 440.588 630.141 442.21 628.908 443.859C628.068 443.894 627.525 443.921 626.681 444.025C626.658 444.953 626.627 445.885 626.589 446.814C626.107 457.945 615.019 463.731 607.087 453.88C606.671 453.117 606.332 452.308 606.078 451.476C604.745 447.118 608.967 440.18 610.963 436.207C609.291 435.225 607.484 434.52 605.696 433.765C602.734 436.003 600.091 438.635 600.307 442.611C600.515 446.475 597.802 446.833 594.794 447.893C591.839 440.041 595.884 431.072 603.47 427.72Z" fill="#222021"/>
<path d="M616.16 438.558C619.041 439.648 620.116 440.7 622.139 442.834C621.064 446.987 620.209 449.064 617.165 452.104C615.913 452.451 614.815 452.597 613.613 452.027C609.275 449.962 614.827 441.104 616.16 438.558Z" fill="white"/>
<path d="M281.018 112.852C281.867 113.844 286.567 122.872 287.58 124.759C293.296 135.182 298.894 145.67 304.374 156.219C301.36 157.901 298.307 159.51 295.216 161.045C293.787 159.88 273.316 121.541 271.859 117.832C275.176 116.291 278.104 115.08 281.018 112.852Z" fill="#222021"/>
<path d="M587.643 451.749C588.718 452.154 590.463 453.182 591.527 453.768C594.1 458.418 599.001 474.573 600.819 480.359C603.504 476.865 608.204 469.965 610.069 466.116C612.138 467.719 613.448 468.732 615.686 470.05C611.359 476.337 607.129 482.69 602.996 489.105C602.129 489.71 602.618 489.514 601.424 489.533C596.115 487.082 590.756 468.112 588.337 461.986C585.413 465.711 582.465 470.643 579.884 474.719L574.521 471.348C578.551 466.501 583.691 457.32 587.643 451.749Z" fill="#222021"/>
<path d="M536.324 513.285C539.028 513.15 539.729 513.254 542.422 513.697C541.898 515.681 541.729 517.192 541.032 519.164C539.529 520.108 536.043 519.812 533.931 521.033C527.671 524.743 530.811 531.855 534.829 536.039C537.853 539.187 541.012 540.586 545.308 538.27C547.858 536.895 548.756 533.797 549.465 531.15C551.564 531.285 553.66 531.431 555.752 531.597C555.517 533.4 555.109 535.034 554.704 536.802C552.77 541.075 549.704 544.612 544.911 545.679C541.008 546.538 536.925 545.798 533.569 543.629C521.314 535.762 518.714 516.163 536.324 513.285Z" fill="#222021"/>
<path d="M442.325 470.851C451.49 469.491 451.621 481.042 448.273 486.597C447.468 487.934 443.874 489.313 442.341 489.911L442.017 490.396C442.179 491.999 441.982 493.521 441.794 495.216C442.056 497.551 438.658 502.817 435.911 501.581C429.804 498.822 431.854 484.964 433.661 480.599C435.811 475.413 437.976 472.847 442.325 470.851Z" fill="#D41B23"/>
<path d="M442.576 473.293C448.378 477.3 446.66 483.472 442.133 487.718C441.821 486.231 441.493 484.436 441.108 482.991C440.996 481.877 440.9 481.692 440.569 480.656C439.475 479.939 439.91 480.14 438.354 480.252L437.383 479.558C438.993 476.526 439.91 475.432 442.576 473.293Z" fill="white"/>
<path d="M437.383 479.558L438.353 480.252C435.684 485.314 441.135 493.224 436.836 497.566L436.331 497.435C434.224 493.336 435.46 483.773 437.383 479.558Z" fill="#FBF4FB"/>
<path d="M539.691 344.716C547.978 350.869 546.063 363.323 546.433 372.419C546.664 378.091 545.751 382.916 543.27 388.029C542.287 389.562 541.066 390.637 539.768 391.897C539.105 385.933 539.544 373.69 539.49 367.198C539.444 361.602 539.171 349.872 539.691 344.716Z" fill="#222021"/>
<path d="M376.071 479.377C377.599 479.347 377.782 479.37 379.147 480.052C381.515 483.018 377.707 485.438 375.342 486.655L372.041 487.352C370.549 491.074 369.107 493.448 366.763 496.722C365.95 497.235 365.814 497.204 365.247 497.909C361.899 498.348 361.39 499.204 357.561 498.811C348.905 495.1 353.8 488.015 362.683 492.685L364.099 493.293C366.16 492.407 367.727 488.158 368.121 486.05L367.702 485.526L368.525 483.927C371.625 483.457 371.213 480.271 376.071 479.377Z" fill="#D41B23"/>
<path d="M357.561 498.81C348.905 495.1 353.8 488.015 362.683 492.684L362.35 494.846L362.702 495.79L362.214 496.422L362.802 496.93L362.506 497.508C360.777 497.909 359.253 498.24 357.561 498.81Z" fill="#D30F13"/>
<path d="M362.214 496.422C359.733 497.127 357.702 497.605 355.698 495.759C355.231 494.468 355.22 495.093 355.702 493.833C358.068 492.091 360.149 493.552 362.35 494.846L362.702 495.79L362.214 496.422Z" fill="white"/>
<path d="M376.071 479.377C377.599 479.347 377.782 479.37 379.147 480.052C381.515 483.018 377.706 485.438 375.342 486.655C374.397 486.366 374.715 486.49 373.886 485.892L373.726 484.817C373.843 482.695 375.334 481.3 377.226 480.687L376.281 480.31L376.071 479.377Z" fill="#CF0C0B"/>
<path d="M377.226 480.687L378.133 481.361C378.192 483.392 375.437 484.262 373.726 484.817C373.843 482.694 375.334 481.3 377.226 480.687Z" fill="white"/>
<path d="M299.792 449.129C304.068 446.471 304.771 444.915 308.519 448.579C304.311 451.16 299.95 452.994 295.85 455.448L301.609 454.277C302.959 455.194 303.928 455.644 304.67 457.074C304.837 460.73 298.799 462.575 295.922 464.529C299.06 467.403 301.999 467.191 303.183 468.235C301.49 469.006 300.423 469.595 298.619 468.74C296.264 467.619 294.348 466.629 293.15 464.248C293.044 460.449 298.789 459.143 301.592 456.619C296.018 456.92 289.822 459.794 286.472 459L286.139 458.499C287.231 456.003 297.086 450.705 299.792 449.129Z" fill="#D41B23"/>
<path d="M463.117 484.994L462.412 484.108L461.773 484.135C461.349 484.871 459.4 488.339 458.868 488.724C452.346 493.447 450.574 479.327 454.861 476.218C457.601 474.23 460.74 472.458 463.703 470.354C464.215 473.571 463.973 481.169 465.437 483.164C463.988 483.376 463.826 483.557 463.117 484.994Z" fill="#D41B23"/>
<path d="M459.461 476.029L460.074 476.507C460.829 479.061 459.827 485.218 457.597 486.925C455.22 482.733 455.435 479 459.461 476.029Z" fill="white"/>
<path d="M406.127 492.492C406.659 490.65 406.508 491.255 405.896 489.132C406.678 487.229 409.286 485.507 410.704 487.664C410.654 488.851 410.457 489.005 409.798 489.972C410.7 491.282 411.598 492.45 412.11 493.979C412.761 495.925 410.831 499.072 412.853 499.982C414.953 499.057 415.6 497.685 417.203 497.539C417.688 498.733 417.654 498.144 417.373 499.358C415.061 501.854 405.557 503.226 402.417 501.646L401.593 502C401.196 501.465 400.768 500.506 400.452 499.881C403.369 497.3 404.305 495.921 406.127 492.492Z" fill="#D41B23"/>
<path d="M406.127 492.492C406.659 490.65 406.509 491.255 405.896 489.132C406.678 487.229 409.286 485.507 410.704 487.664C410.654 488.851 410.457 489.005 409.799 489.972C408.05 491.078 407.645 491.733 407.942 493.844L407.021 494.969C406.682 494.414 406.713 494.28 406.717 493.64L406.724 493.004L406.127 492.492Z" fill="#D30F13"/>
<path d="M407.941 493.844C409.752 495.832 408.465 500.082 405.753 500.155C404.89 499.25 405.214 499.789 404.994 498.367C405.406 497.608 406.878 495.347 407.021 494.969L407.941 493.844Z" fill="white"/>
<path d="M280.019 447.646C280.658 448.798 280.21 448.451 281.214 448.929C290.773 445.585 277.635 433.714 292.157 434.25C292.151 435.024 292.232 435.714 291.987 436.408C282.08 438.003 296.332 446.182 282.607 451.872C284.367 453.548 285.094 453.857 287.319 454.831L287.662 455.324C285.189 458.002 281.217 452.208 277.681 451.187C278.116 450.543 278.075 450.543 278.376 449.819L277.96 448.867L278.32 448.544C279.316 448.393 279.253 448.336 280.019 447.646Z" fill="#D30F13"/>
<path d="M303.183 468.235C306.463 465.55 315.978 456.542 319.778 457.178C320.633 458.148 320.4 457.597 320.52 458.869C319.109 462.097 314.233 463.238 311.29 466.305L311.418 466.836C312.233 466.574 313.294 466.135 314.117 465.823L314.42 467.954C313.599 468.096 312.937 468.196 312.134 468.451C309.412 469.275 303.242 472.535 301.405 471.945L301.141 471.213C301.374 469.861 302.201 469.26 303.183 468.235Z" fill="#D41B23"/>
<path d="M314.117 465.823L314.42 467.954C313.599 468.096 312.937 468.197 312.134 468.451L310.235 468.258L310.102 467.884L311.418 466.837C312.233 466.575 313.294 466.135 314.117 465.823Z" fill="#D41B23"/>
<path d="M476.81 453.702L479.895 451.113C480.704 452.99 482.037 456.754 483.101 458.183C484.484 457.1 484.191 456.939 485.466 457.062L485.786 457.694C485.177 459.424 484.8 459.35 483.301 460.657C484.226 462.471 485.119 464.683 486.229 466.374C487.053 467.634 487.624 467.468 488.957 467.692L490.228 468.797C488.086 470.52 487.034 471.013 484.253 470.304L483.96 470.412L483.509 470.207C482.897 468.381 482.076 465.692 481.078 464.012C480.639 463.269 479.699 463.38 478.717 463.253L478.362 462.745C480.25 459.562 478.208 456.95 476.81 453.702Z" fill="#D41B23"/>
<path d="M390.909 499.369C393.964 495.932 391.822 493.413 391.703 490.573L392.111 490.384C393.937 489.514 394.48 489.256 394.843 487.148C395.255 484.748 396.349 481.77 399.439 482.687C400.541 485.387 397.84 487.645 398.437 489.753C399.308 490.099 399.512 490.115 400.444 490.284L400.675 491.047C396.904 494.268 396.545 492.989 395.328 499.311C395.266 499.631 395.324 499.947 395.363 500.274C393.629 500.402 394.161 500.363 392.531 501.484C392.419 501.241 391.784 500.583 391.564 500.34L390.909 499.369Z" fill="#D41B23"/>
<path d="M376.651 497.555C377.714 492.55 377.944 491.675 382.002 488.716C383.335 490.785 382.946 490.878 385.516 490.754C385.531 492.457 385.562 492.627 385.098 494.237C385.686 494.638 386.31 495.023 386.845 495.486C385.909 496.349 384.936 497.281 383.962 498.086C383.111 498.857 382.506 499.076 382.478 500.352L383.104 502.817C378.802 501.731 378.015 501.889 376.651 497.555Z" fill="#D41B23"/>
<path d="M381.932 497.292C381.364 497.4 381.38 497.323 380.764 497.212C380.109 494.638 383.078 491.51 385.516 490.754C385.531 492.457 385.562 492.627 385.098 494.237C385.685 494.638 386.309 495.023 386.845 495.486C385.909 496.349 384.936 497.281 383.962 498.086L381.932 497.292Z" fill="white"/>
<path d="M381.932 497.293C382.963 496.457 384.141 495.2 385.098 494.237C385.685 494.638 386.309 495.023 386.845 495.486C385.909 496.349 384.936 497.281 383.962 498.086L381.932 497.293Z" fill="#CF0C0B"/>
<path d="M495.861 456.003C494.932 454.415 493.534 449.792 493.002 447.896C493.449 446.875 493.36 446.872 494.304 446.313C497.348 447.095 499.316 454.427 501.127 457.062L500.95 458.287C501.628 458.877 501.243 458.777 502.082 458.734C502.895 461.593 504.113 465.199 502.71 467.969C501.651 468.728 502.217 468.57 500.969 468.524C498.372 465.122 501.058 461.608 497.444 457.447L495.861 456.003Z" fill="#D41B23"/>
<path d="M277.681 451.187C273.331 449.441 267.099 443.454 271.485 439.07C276.224 437.421 278.601 444.202 280.019 447.646C279.253 448.336 279.316 448.393 278.32 448.544L277.96 448.867L278.376 449.819C278.074 450.543 278.116 450.543 277.681 451.187Z" fill="#CF0C0B"/>
<path d="M277.96 448.867C275.324 447.654 271.372 444.048 272.559 440.877L273.357 440.873C275.834 442.726 276.93 445.724 278.32 448.544L277.96 448.867Z" fill="white"/>
<path d="M470.699 477.531C471.042 473.775 467.502 467.249 468.819 465.029C469.748 464.968 470.923 465.557 471.716 466.062C472.999 466.867 474.71 466.54 476.324 466.42C476.909 468.759 477.699 473.259 479.371 474.688L479.564 475.224C480.35 475.22 481.14 475.228 481.925 475.243C473.072 481.407 476.678 470.855 472.479 469.275L472.013 469.795C472.583 473.143 472.803 475.332 472.637 478.707C471.94 478.41 471.343 477.955 470.699 477.531Z" fill="#D30F13"/>
<path d="M500.117 427.168C502.078 428.039 507.861 438.638 508.196 441.262C507.599 442.283 507.842 441.951 506.389 442.421C503.585 439.231 499.285 432.882 496.766 429.21C497.756 428.548 499.077 427.8 500.117 427.168Z" fill="#D41B23"/>
<path d="M491.087 463.361C490.721 461.127 487.739 457.178 487.034 453.633C487.254 452.462 488.04 451.487 489.261 451.476C491.719 454.138 491.765 459.747 495.479 460.352L497.451 460.745C497.224 462.128 497.267 462.298 496.438 463.365C495.109 464.17 493.961 464.024 492.374 464.078C492.043 463.939 491.422 463.554 491.087 463.361Z" fill="#D41B23"/>
<path d="M314.117 465.823C315.925 465.823 317.74 465.881 319.069 467.199C319.72 471.471 312.077 472.885 312.01 476.827C311.634 477.497 311.398 477.813 311.177 478.553C309.526 477.285 308.711 476.8 308.332 474.812C308.982 471.159 314.301 470.705 314.42 467.954L314.117 465.823Z" fill="#D41B23"/>
<path d="M525.875 550.915C526.908 551.77 528.738 555.222 529.631 556.652C527.898 557.808 525.968 558.782 524.13 559.769C522.801 558.513 521.252 555.596 520.324 553.955C522.169 553.049 524.072 551.932 525.875 550.915Z" fill="#222021"/>
<path d="M590.217 493.671C590.852 493.875 594.593 496.98 595.945 497.87C594.905 499.331 592.91 501.48 591.673 502.887C591.28 502.729 587.489 499.739 586.141 498.941C588.048 497.004 588.857 495.967 590.217 493.671Z" fill="#222021"/>
<path d="M292.157 434.25C296.215 435.903 300.393 438.376 299.084 443.589C298.204 444.652 298.752 444.36 297.392 444.502L296.793 444.121C296.276 440.222 295.959 438.11 291.987 436.408C292.231 435.714 292.151 435.024 292.157 434.25Z" fill="#CF0C0B"/>
<path d="M470.699 477.532C471.343 477.956 471.94 478.41 472.637 478.707C471.428 482.614 467.086 485.241 463.118 484.994C463.827 483.557 463.988 483.376 465.437 483.164C468.627 481.485 468.789 480.633 470.699 477.532Z" fill="#CF0C0B"/>
<path d="M365.247 497.909C365.813 497.204 365.95 497.235 366.763 496.722C370.04 499.307 372.201 501.041 375.835 498.232L376.328 498.317C376.355 499.646 376.39 499.184 375.719 500.463C372.771 502.732 367.403 500.452 365.247 497.909Z" fill="#CF0C0B"/>
<path d="M382.002 488.716C387.473 487.876 389.511 490.484 386.845 495.485C386.309 495.023 385.685 494.638 385.098 494.237C385.562 492.626 385.531 492.457 385.516 490.754C382.946 490.877 383.335 490.785 382.002 488.716Z" fill="#D30F13"/>
<path d="M395.363 500.274C397.655 501.049 398.314 500.933 400.452 499.881C400.768 500.505 401.196 501.465 401.592 502C399.535 503.572 394.592 503.295 392.531 501.484C394.161 500.363 393.629 500.401 395.363 500.274Z" fill="#CF0C0B"/>
<path d="M336.907 487.838C337.754 487.541 338.694 487.749 339.337 488.377C339.979 489.001 340.213 489.934 339.942 490.789C339.67 491.644 338.939 492.272 338.054 492.411C336.844 492.6 335.689 491.837 335.391 490.646C335.093 489.46 335.751 488.242 336.907 487.838Z" fill="#D30F13"/>
<path d="M509.567 443.03C511.028 443.67 511.717 444.063 512.226 445.569C511.979 447.033 511.363 447.43 510.288 448.574C506.663 447.588 507.395 445.122 509.567 443.03Z" fill="#CF0C0B"/>
<path d="M382.478 500.352C386.302 500.683 387.419 501.037 390.909 499.369L391.564 500.34C388.413 502.968 387.153 502.979 383.104 502.817L382.478 500.352Z" fill="#D30F13"/>
<path d="M321.859 481.546C323.815 481.411 324.926 481.142 325.961 483.076C325.687 484.598 325.879 484.047 324.768 485.307C323.026 485.337 322.14 485.43 320.972 484.116C321.015 482.533 320.973 483.057 321.859 481.546Z" fill="#D41B23"/>
<path d="M329.609 484.763C330.73 484.224 332.075 484.698 332.608 485.823C333.141 486.948 332.659 488.289 331.533 488.816C330.414 489.34 329.083 488.863 328.553 487.745C328.024 486.632 328.495 485.295 329.609 484.763Z" fill="#D30F13"/>
<path d="M501.127 457.062L501.412 456.65C502.772 454.662 503.774 451.202 504.421 450.701L505.407 450.967C506.278 453.286 503.196 456.65 502.082 458.734C501.242 458.777 501.628 458.877 500.95 458.287L501.127 457.062Z" fill="#CF0C0B"/>
<path d="M312.01 476.827C314.02 478.426 317.186 478.025 318.041 478.938C316.357 481.431 313.107 479.859 311.177 478.553C311.398 477.813 311.634 477.497 312.01 476.827Z" fill="#D30F13"/>
<path d="M479.372 474.688C481.406 472.97 482.504 470.693 483.509 470.208L483.96 470.412C483.891 472.72 483.39 473.436 481.926 475.243C481.14 475.228 480.35 475.22 479.564 475.224L479.372 474.688Z" fill="#CF0C0B"/>
<path d="M491.087 463.361C491.422 463.554 492.042 463.939 492.374 464.078C492.489 466.081 491.461 467.16 490.228 468.798L488.957 467.692C489.881 466.366 490.44 464.856 491.087 463.361Z" fill="#D30F13"/>
<path d="M367.702 485.526C366.019 484.158 365.718 483.257 366.136 481.203L366.642 480.941C367.917 481.839 367.831 482.344 368.525 483.927L367.702 485.526Z" fill="#CF0C0B"/>
<path d="M495.86 456.002L497.444 457.447L497.452 460.745L495.479 460.352C496.138 458.676 495.949 457.798 495.86 456.002Z" fill="#D30F13"/>
</svg>
