<svg width="851" height="692" viewBox="0 0 851 692" fill="none" xmlns="http://www.w3.org/2000/svg">
<path d="M308.457 0.0873576C314.405 -0.0320579 320.664 0.0889044 326.638 0.112777C325.993 12.6684 326.599 30.5292 326.6 43.6415L326.527 136.042C338.47 137.695 343.232 139.584 354.387 143.634C354.711 130.775 354.435 116.732 354.436 103.799L354.466 27.1332L372.539 27.1455L372.521 154.745C374.787 156.487 377.155 158.496 379.387 160.314L431.384 79.8972C440.621 65.5961 456.517 38.9672 467.534 27.8286C485.492 9.98813 509.778 -0.0169237 535.087 2.14895e-05C560.535 -0.0160178 584.955 10.055 602.993 28.0077C615.123 40.1693 623.539 54.9452 627.908 71.576C632.105 87.5598 631.147 100.845 631.125 117.238L631.109 155.478L631.077 273.164C625.058 273.235 619.038 273.215 613.013 273.103C612.528 233.22 612.976 192.395 613.018 152.436C601.773 165.277 600.324 167.072 586.308 177.31L586.281 300.081C580.427 300.231 574.135 300.089 568.244 300.058C567.482 262.882 568.244 223.613 568.153 186.177C556.796 189.262 553.828 190.921 541.485 191.584C540.83 232.322 541.459 274.83 541.453 315.714L541.432 327.126C535.471 327.246 529.19 327.132 523.208 327.117L523.197 191.198C514.088 189.791 503.87 187.253 495.539 183.304C494.974 195.903 495.374 211.202 495.379 223.962L495.352 300.089C489.466 300.226 483.19 300.095 477.277 300.07L477.203 172.523C475.423 170.741 472.627 168.58 470.608 166.93C467.902 169.755 457.274 187.12 454.504 191.35L412.75 255.826C404.54 268.545 392.447 288.918 382.216 299.127C364.217 317.089 339.841 327.191 314.416 327.227C288.933 327.113 264.535 316.899 246.568 298.824C234.681 286.873 226.535 272.617 222.061 256.33C217.682 240.386 218.62 227.176 218.645 210.818L218.67 173.484L218.712 65.5737C224.635 65.4837 230.761 65.5791 236.701 65.594C237.024 92.4095 236.554 119.456 236.752 146.281C236.776 149.515 236.527 172.027 237.068 173.988C238.541 173.366 240.501 170.16 241.66 168.793C248.018 161.298 255.127 155.146 263.456 149.961C264.061 109.349 263.298 67.8843 263.571 27.1466C269.475 27.0363 275.658 27.1444 281.585 27.1604L281.615 141.131C291.793 137.279 297.545 136.633 308.337 135.607C308.767 90.5636 307.805 45.0866 308.457 0.0873576ZM539.168 173.469C582.116 171.283 615.112 134.597 612.757 91.6443C610.403 48.692 573.597 15.8333 530.666 18.357C487.974 20.8667 455.345 57.4342 457.684 100.148C460.028 142.862 496.455 175.643 539.168 173.469ZM323.937 308.282C366.497 303.075 396.779 264.345 391.577 221.773C386.376 179.202 347.66 148.907 305.1 154.105C262.534 159.305 232.243 198.038 237.445 240.616C242.647 283.193 281.372 313.49 323.937 308.282ZM391.592 174.692C399.979 183.788 406.259 200.494 408.537 212.605C409.192 216.089 409.731 223.129 410.371 225.568C412.75 223.057 419.515 211.814 421.678 208.397L444.744 172.708C447.999 167.673 454.733 156.652 458.195 152.602C449.8 142.882 443.439 126.512 440.941 113.937C440.445 111.417 439.95 103.064 439.348 101.567C436.626 104.621 429.392 116.52 426.904 120.395L404.245 155.506C400.587 161.154 395.537 169.459 391.592 174.692Z" fill="black"/>
<path d="M527.294 36.0071C560.407 31.6194 590.794 54.9574 595.109 88.0922C599.424 121.227 576.021 151.57 542.887 155.812C509.858 160.04 479.637 136.724 475.338 103.693C471.039 70.661 494.282 40.3814 527.294 36.0071ZM540.239 137.726C563.401 134.95 579.9 113.872 577.034 90.7128C574.173 67.5533 553.035 51.132 529.894 54.0862C506.88 57.0244 490.569 78.0258 493.419 101.059C496.269 124.093 517.199 140.486 540.239 137.726Z" fill="black"/>
<path d="M532.786 72.8397C545.577 71.5172 557.004 80.8503 558.261 93.6498C559.523 106.449 550.137 117.832 537.336 119.031C524.62 120.221 513.337 110.91 512.085 98.1989C510.833 85.4868 520.086 74.1527 532.786 72.8397Z" fill="black"/>
<path d="M308.116 171.145C341.321 167.605 371.095 191.689 374.582 224.908C378.069 258.127 353.945 287.872 320.731 291.309C287.588 294.738 257.931 270.672 254.452 237.526C250.972 204.38 274.985 174.676 308.116 171.145ZM318.601 273.142C341.632 270.904 358.544 250.499 356.476 227.445C354.407 204.392 334.134 187.325 311.072 189.224C287.769 191.143 270.489 211.681 272.579 234.976C274.669 258.271 295.329 275.404 318.601 273.142Z" fill="black"/>
<path d="M308.899 208.653C321.314 205.527 333.911 213.06 337.036 225.478C340.161 237.896 332.63 250.497 320.216 253.622C307.801 256.749 295.204 249.216 292.079 236.798C288.954 224.38 296.485 211.779 308.899 208.653Z" fill="black"/>
<path d="M299.612 415.603C307.599 415.544 315.586 415.554 323.572 415.631C332.569 431.666 342.844 447.658 352.127 463.577C357.401 472.621 365.704 485.361 369.305 495.028L370.145 494.641C370.821 489.43 370.182 476.73 370.315 470.995C370.719 453.498 369.695 434.325 370.343 416.973C376.535 416.94 384.421 416.672 390.482 416.969C391.476 432.117 390.866 455.37 390.789 470.98C390.704 488.363 391.479 511.373 390.572 528.403C385.866 529.187 375.022 529.938 370.704 527.524C366.18 524.993 364.181 514.815 359.042 512.668C357.965 511.874 352.837 503.47 351.927 501.868C342.3 484.947 329.033 467.729 321.971 449.625C322.073 455.676 322.866 462.249 322.841 468.313C322.756 488.868 323.326 510.11 322.755 530.604C315.082 530.663 307.222 530.817 299.571 530.508L299.612 415.603Z" fill="black"/>
<path d="M41.3216 573.079C48.7162 573.041 56.8604 572.839 64.1778 573.318C65.7519 576.942 68.3803 585.159 69.7819 589.107L81.8671 623.381C88.7684 643.033 98.5608 668.318 104.184 687.89C96.5599 688.21 87.7152 687.997 80.0026 687.991C78.1024 680.243 75.0387 671.845 72.7939 664.002L64.1825 663.922C53.1788 663.895 42.1745 663.927 31.1713 664.034C29.2855 671.366 26.2186 680.425 24.0015 687.97C16.2611 688.151 7.79788 687.97 0 687.943L35.929 584.812C36.9337 581.945 39.0363 574.182 41.3216 573.079ZM52.2615 645.895L66.8147 645.906C65.826 642.564 51.4901 595.741 51.88 596.205C49.8541 601.427 48.9091 606.255 47.3642 611.605C45.1417 619.049 42.8787 626.483 40.5753 633.9C39.5653 637.177 37.9639 642.996 36.5837 645.884L52.2615 645.895Z" fill="black"/>
<path d="M608.501 445.504C632.559 445.452 652.125 464.88 652.248 488.945C652.37 513.009 633.006 532.639 608.949 532.837C584.79 533.034 565.064 513.563 564.941 489.395C564.818 465.229 584.337 445.557 608.501 445.504ZM613.471 515.22C618.884 513.558 623.582 510.526 625.91 505.245C633.944 486.996 628.696 459.151 603.925 462.7C599.978 464.204 597.73 465.006 594.821 468.043C584.018 479.317 584.865 507.446 600.649 514.165C604.836 515.95 609.082 515.721 613.471 515.22Z" fill="black"/>
<path d="M333.081 573.089C359.549 572.839 386.849 572.929 413.319 573.132C413.41 579.825 413.431 586.517 413.373 593.21C394.361 593.216 373.433 593.7 354.59 593.263L354.577 620.333C369.391 621.053 389.372 620.536 404.506 620.61L404.564 631.427L404.471 640.896C388.251 641.301 370.997 640.891 354.605 641.062L354.522 687.959C346.808 688.108 338.589 687.981 330.842 687.981C330.997 676.593 329.88 575.684 331.41 573.334L333.081 573.089Z" fill="black"/>
<path d="M220.711 445.664C221.204 445.596 221.7 445.55 222.197 445.526C238.044 444.625 251.908 452.904 258.592 467.198C263.127 476.898 263.661 485.122 264.076 495.509C246.281 496.201 222.419 495.725 204.368 495.596C207.163 510.893 219.21 520.98 235.317 512.966C237.932 511.66 239.978 508.197 241.275 505.623C246.822 505.548 252.475 505.596 258.032 505.586C259.653 505.548 259.966 505.516 261.53 505.852C263.999 509.14 260.744 513.131 258.876 515.993C254.077 523.341 244.517 530.385 235.834 531.893C223.323 533.966 209.996 532.655 199.528 525.019C174.21 506.561 177.936 460.089 208.063 448.43C212.439 446.737 216.101 446.297 220.711 445.664ZM204.75 479.935L224.328 479.968L241.038 480.008C239.732 469.048 234.307 462.468 222.646 462.684C211.233 464.176 207.352 468.832 204.75 479.935Z" fill="black"/>
<path d="M435.331 446.191C468.903 443.357 478.305 457.573 476.35 488.592C475.647 499.777 476.484 513.424 476.734 524.71C476.761 526.091 478.29 528.563 478.987 529.895C477.437 531.318 460.683 530.62 457.796 530.412L455.239 521.407C444.052 535.949 418.503 536.29 407.232 522.59C402.467 516.925 401.318 507.051 403.087 500.056C407.136 484.051 426.195 481.913 439.801 479.671C444.281 478.749 453.896 478.285 454.781 472.388C455.612 466.315 451.606 462.646 445.938 461.863C438.08 460.777 433.733 461.558 427.58 466.265C426.531 468.864 426.243 470.378 425.657 473.134L405.714 473.093C408.195 455.232 418.221 448.227 435.331 446.191ZM426.685 514.229C436.109 519.392 447.669 517.458 453.374 508.074C455.889 503.945 456.038 493.893 455.234 489.368L454.696 489.634C445.304 494.218 416.947 494.456 424.347 511.149C424.874 512.337 425.753 513.339 426.685 514.229Z" fill="black"/>
<path d="M779.492 603.436C790.833 603.463 804.524 605.477 811.103 615.974C816.148 624.021 815.503 633.772 815.45 642.906L815.274 669.762C815.226 676.647 814.47 682.327 818.684 687.89C811.348 688.034 804.013 688.05 796.677 687.933C795.841 685.327 795.207 681.363 794.669 678.576C792.953 681.224 790.807 683.984 788.068 685.578C772.987 694.364 753.479 691.423 743.795 676.78C731.888 643.524 763.058 640.087 786.374 636.074C803.448 633.138 790.663 614.743 775.635 619.838C770.382 621.617 771.038 620.024 766.185 625.038L764.618 630.841C758.141 630.932 751.663 630.9 745.19 630.735C746.597 623.419 747.268 618.926 752.664 613.156C759.131 606.239 770.281 603.74 779.492 603.436ZM765.609 656.851C762.029 662.606 760.841 667.375 766.328 672.709C772.332 675 779.044 675.512 785.043 672.869C789.118 671.1 792.293 667.742 793.838 663.57C794.972 660.538 795.894 650.232 794.6 647.515L793.694 647.398C783.029 651.879 775.305 651.272 765.609 656.851Z" fill="black"/>
<path d="M775.086 446.201C780.104 445.677 789.384 445.889 794.227 447.012C816.244 452.119 815.866 467.75 815.786 485.71L815.658 509.902C815.615 518.129 814.747 523.437 819.334 530.3C813.186 530.929 803.571 530.678 797.316 530.55C796.256 527.486 795.756 524.321 795.159 521.135C786.891 531.206 778.506 533.316 765.524 532.053C757.336 531.254 751.178 528.03 746.048 521.582C742.079 516.275 741.11 506.96 742.569 500.685C747.71 480.539 771.72 482.249 786.566 478.291C807.747 472.645 785.224 451.531 766.989 466.561C766.036 468.664 765.647 470.881 765.14 473.137L745.846 473.094C747.934 455.111 757.544 448.132 775.086 446.201ZM766.515 514.516C780.675 521.033 796.709 513.355 795.681 496.762C795.553 494.661 795.74 491.011 794.989 489.151L794.45 489.443C785 494.48 768.422 492.899 763.095 503.747C761.72 506.55 764.267 512.481 766.515 514.516Z" fill="black"/>
<path d="M450.354 603.399C481.986 601.305 493.344 625.374 494.431 652.955C475.914 653.744 453.811 652.934 434.74 653.163C434.996 654.511 435.273 655.859 435.571 657.197C439.62 674.931 461.376 680.83 471.764 663.549L488.171 663.517L493.339 663.65C485.151 692.398 448.884 698.707 428.502 681.954C400.756 659.142 411.232 606.98 450.354 603.399ZM435.108 637.907L459.122 637.897L471.588 637.913C469.34 623.669 462.537 620.003 448.862 620.946C440.009 623.003 436.935 629.786 435.108 637.907Z" fill="black"/>
<path d="M100.934 415.599C108.238 415.564 115.541 415.572 122.845 415.622L122.892 458.48C124.284 456.699 125.843 454.887 127.332 453.242C136.93 442.756 157.151 443.445 166.808 453.404C177.446 464.375 175.503 480.858 175.481 495.092L175.394 530.566C169.01 530.833 160.008 530.753 153.714 530.46L153.696 499.554C153.809 487.363 157.17 464.738 139.635 464.942C120.033 465.17 122.836 485.249 122.862 498.877C122.899 509.454 122.88 520.026 122.807 530.604C115.471 530.657 108.242 530.748 100.903 530.497L100.934 415.599Z" fill="black"/>
<path d="M700.41 446.107C710.004 445.274 718.661 446.143 725.773 453.36C736.39 464.129 734.461 479.556 734.445 493.459L734.387 530.593C727.083 530.727 719.78 530.721 712.476 530.577C712.215 513.062 713.009 495.036 712.183 477.557C711.539 463.932 696.303 461.255 686.815 469.499C680.167 474.908 681.542 490.757 681.563 498.701C681.643 509.332 681.637 519.963 681.542 530.599C674.329 530.657 666.828 530.833 659.647 530.476C659.642 503.023 659.434 475.27 659.753 447.836C666.876 447.702 673.993 447.714 681.11 447.875L681.19 458.909C688.35 451.032 689.362 448.329 700.41 446.107Z" fill="black"/>
<path d="M2.66167 415.596L94.5768 415.62C94.613 422.054 94.5997 428.488 94.5363 434.923C84.5442 435.165 70.3628 435.392 60.522 435.009L60.514 496.889L60.457 530.604C53.3037 530.817 43.7649 530.806 36.7096 530.465L36.7368 435.138C26.0329 434.717 13.4087 434.992 2.6084 435.068L2.66167 415.596Z" fill="black"/>
<path d="M248.557 603.399C257.052 602.956 266.482 604.107 273.926 608.472C283.194 613.902 285.574 621.085 288.182 630.703C281.382 631.012 274.517 630.873 267.706 630.815C267.318 628.705 266.989 627.122 266 625.076C261.583 615.942 238.508 616.784 237.938 628.097C238.287 633.612 246.601 635.307 250.467 636.106C260.851 638.259 274.458 639.538 282.644 646.598C291.865 654.554 291.686 671.963 283.315 680.521C275.666 688.343 265.618 690.405 255.098 690.826C234.552 690.581 218.834 683.084 216.408 661.273C222.938 661.14 229.804 661.257 236.362 661.257C238.984 676.183 254.332 676.812 266.042 672.57C276.957 658.966 259.534 657.037 249.903 655.172C235.682 652.422 219.803 649.47 218.71 631.928C217.544 613.219 231.705 604.619 248.557 603.399Z" fill="black"/>
<path d="M532.275 603.42C545.795 602.52 561.793 606.058 568.494 619.161C570.561 623.216 571.009 626.36 571.776 630.772C565.41 631.001 558.415 630.852 552.001 630.842C551.575 627.873 550.957 625.348 548.778 623.11C543.089 617.248 529.489 617.499 523.943 623.397C523.016 624.378 521.722 626.92 522.116 628.188C525.142 637.913 542.897 636.207 551.048 639.389C557.009 640.993 562.267 642.852 567.178 646.833C576.043 654.016 575.638 671.707 568.34 679.823C561.297 687.656 550.451 690.331 540.042 690.821C523.565 690.565 505.32 685.37 501.532 666.698C501.17 664.924 500.935 663.08 500.669 661.284C507.141 661.135 513.955 661.258 520.454 661.274C521.503 664.945 522.452 667.583 525.371 670.343C531.455 676.087 545.79 677.137 551.639 670.663C552.657 669.533 554.196 666.352 553.669 664.796C550.43 655.54 535.295 656.105 526.974 653.707C514.605 650.142 504.196 647.137 502.858 632.136C501.25 614.141 515.915 604.731 532.275 603.42Z" fill="black"/>
<path d="M719.151 605.957C726.359 605.658 733.78 605.839 741.008 605.919C738.92 612.495 736.709 619.033 734.376 625.529C732.256 632.456 728.745 641.595 726.311 648.591C721.82 661.769 717.207 674.904 712.471 687.997L691.093 688.002C689.522 681.528 686.672 674.132 684.439 667.737L670.749 628.401C668.415 621.698 664.899 612.554 663.189 605.893C670.546 605.792 677.908 605.792 685.265 605.893C690.353 623.611 696.814 643.593 702.328 661.327C705.119 647.808 710.814 633.858 714.575 620.483C715.918 615.698 717.532 610.657 719.151 605.957Z" fill="black"/>
<path d="M586.766 580.198C593.606 579.953 601.219 580.134 608.117 580.155L608.155 605.728L622.064 605.882V620.344C617.445 620.397 612.821 620.408 608.203 620.381C608.171 627.09 606.61 666.597 610.115 669.778C613.445 672.805 618.404 672.128 622.565 672.101L622.538 686.91L622.176 687.752C619.592 688.391 616.284 688.173 613.647 688.247C604.873 688.556 593.425 687.917 588.902 678.938C585.616 672.421 586.622 662.116 586.628 654.778L586.67 620.568L575.052 620.19C575.004 615.426 575.02 610.657 575.1 605.893L586.452 605.797C586.947 598.758 586.66 587.551 586.766 580.198Z" fill="black"/>
<path d="M177.629 580.171C184.604 579.99 191.986 580.139 198.992 580.171L199.022 605.706L212.928 605.893C212.999 610.656 212.923 615.564 212.905 620.339C208.287 620.408 203.669 620.429 199.051 620.397C199.028 627.5 197.604 666.085 200.815 669.613C203.755 672.842 209.512 672.117 213.463 672.08L213.445 686.915L213.164 687.688C210.812 688.444 207.777 688.109 205.251 688.242C194.134 688.833 180.656 687.203 178.12 674.073C176.948 668.009 177.512 660.266 177.522 653.963L177.566 620.552L165.913 620.195L165.944 605.882L177.379 605.781C177.875 599.317 177.573 587.05 177.629 580.171Z" fill="black"/>
<path d="M492.177 422.042C499.049 421.836 506.358 421.987 513.262 422.015L513.315 447.635C518.099 447.682 522.883 447.795 527.661 447.971L527.565 462.165C522.776 462.246 518.12 462.358 513.337 462.17C513.294 475.059 513.198 487.954 513.204 500.847C513.219 504.189 513.459 509.96 516.027 512.465C518.254 514.634 525.227 514.085 528.221 514.01L528.285 528.195L528.029 529.772C526.085 531.025 521.94 530.929 519.612 530.934C490.265 530.977 492.097 518.044 492.108 495.203L492.156 462.433L480.671 462.062C480.639 457.318 480.665 452.574 480.761 447.831L492.065 447.717C492.284 439.407 492.151 430.404 492.177 422.042Z" fill="black"/>
<path d="M828.629 573.079C835.555 573.042 842.48 573.063 849.405 573.143C849.421 585.527 850.21 685.993 848.819 687.986L827.473 687.997C827.117 661.284 827.452 633.735 827.452 606.953L827.447 585.702C827.431 582.361 827.095 576.766 827.676 573.681L828.629 573.079Z" fill="black"/>
<path d="M827.777 415.588C835.033 415.52 842.373 415.6 849.64 415.622C850.38 451.74 850.093 493.531 849.618 529.703L848.937 530.508C843.482 531.03 833.413 530.7 827.719 530.465L827.777 415.588Z" fill="black"/>
<path d="M152.67 604.981C155.47 604.667 156.87 605.013 159.64 605.472C159.726 611.85 159.711 618.228 159.597 624.612C157.19 624.655 154.352 624.612 151.991 624.921C131.638 627.58 134.411 650.632 134.491 665.345C134.54 672.885 134.534 680.425 134.474 687.959C128.972 688.007 118.237 688.391 113.157 687.805C112.442 686.403 112.652 684.123 112.655 682.46L112.728 605.866C119.785 605.781 126.843 605.797 133.899 605.908L133.939 618.591C141.022 610.15 140.406 606.607 152.67 604.981Z" fill="black"/>
<path d="M633.448 605.823L655.396 605.866C655.721 633.047 655.46 660.751 655.417 687.97C648.151 688.061 640.682 687.991 633.4 687.997L633.448 605.823Z" fill="black"/>
<path d="M535.722 447.857C542.397 447.591 550.963 447.689 557.558 447.93C557.691 475.247 557.84 503.316 557.483 530.593C550.249 530.657 542.876 530.812 535.658 530.487L535.722 447.857Z" fill="black"/>
<path d="M634.631 573.073C641.556 573.046 648.487 573.068 655.417 573.137C655.465 578.7 655.795 587.311 655.289 592.533L654.512 593.125C647.506 593.189 640.389 593.109 633.379 593.093C633.352 589.288 633.027 576.659 633.666 573.659L634.631 573.073Z" fill="black"/>
<path d="M535.706 415.577L557.547 415.617C557.595 422.086 557.584 428.555 557.51 435.023L535.668 434.989L535.706 415.577Z" fill="black"/>
<path d="M369.222 415.594C376.772 415.583 384.551 415.472 392.082 415.6C392.377 453.119 392.613 493.118 392.1 530.614C384.767 530.673 376.965 530.838 369.67 530.577C367.549 527.055 360.237 515.747 359.042 512.667C364.181 514.815 366.18 524.993 370.704 527.524C375.022 529.938 385.866 529.186 390.572 528.403C391.478 511.373 390.704 488.362 390.789 470.98C390.866 455.37 391.476 432.117 390.482 416.968C384.421 416.672 376.535 416.94 370.342 416.972C369.695 434.324 370.719 453.498 370.315 470.995C370.182 476.729 370.821 489.43 370.145 494.641L369.305 495.027C369.838 488.821 369.134 478.272 369.172 471.581C369.28 452.956 368.983 434.219 369.222 415.594Z" fill="black" fill-opacity="0.972549"/>
</svg>
