<svg width="1579" height="271" viewBox="0 0 1579 271" fill="none" xmlns="http://www.w3.org/2000/svg">
<path d="M963.254 73.5622C973.067 71.6439 988.939 75.1484 997.523 80.3876C1012.26 89.3881 1019.13 99.4737 1023.58 115.612C1023.39 102.835 1023.31 90.0557 1023.33 77.2768L1024.5 76.5386C1027.22 76.605 1027.39 76.1736 1029.31 77.4531C1030.78 96.5137 1029.49 130.177 1029.51 150.446L1029.63 194.522C1029.69 225.038 1030.52 258.157 993.604 267.973C966.952 275.059 926.091 270.644 917.77 239.194C916.754 235.357 914.999 229.479 917.057 225.91C919.139 225.707 921.312 225.279 921.738 227.721C923.689 238.916 925.182 244.927 933.281 253.171C942.094 261.131 955.376 264.776 966.976 264.976C1034.84 266.143 1021.81 216.238 1023.55 170.965C1011.31 210.876 959.368 224.011 930.445 198.459C891.274 163.87 902.923 78.3233 963.254 73.5622ZM973.92 205.1C1048.47 195.279 1033.46 69.7222 963.148 79.2607C925.739 83.6273 910.646 118.783 914.466 152.792C918.32 187.157 939.356 207.099 973.92 205.1Z" fill="#6F6F70"/>
<path d="M397.164 73.5834C404.156 72.5287 420.611 74.2347 427.187 76.4868C457.669 86.9291 454.857 115.403 454.797 141.151L454.676 183.715C454.678 187.256 454.288 198.016 455.811 200.907C458.703 206.396 465.812 203.532 469.81 204.713C470.803 207.795 470.499 215.183 470.487 218.764C468.794 218.938 467.101 219.1 465.406 219.253C443.951 221.168 439.824 215.132 438.189 194.759C419.48 222.211 395.494 230.212 361.939 219.111C351.471 215.648 344.685 206.732 340.622 196.596C338.378 189.235 337.719 179.439 339.369 171.86C346.294 140.917 384.999 140.309 410.166 136.903C420.345 135.525 434.486 135.634 436.593 122.781C437.887 115.657 436.966 107.033 432.747 100.891C421.456 84.4547 390.59 84.9107 375.296 94.8035C365.024 101.448 363.982 109.876 361.822 120.89L344.512 120.88C349.18 88.3308 364.105 75.3558 397.164 73.5834ZM365.402 200.955C384.521 215.725 413.74 208.614 428.35 190.774C437.048 180.153 438.909 156.435 436.681 143.123C418.274 156.513 363.334 144.975 356.811 176.523C354.854 185.988 358.8 194.249 365.402 200.955Z" fill="#6F6F70"/>
<path d="M1106.21 73.5681C1149.98 67.471 1162.36 95.1802 1159.96 131.782C1158.38 155.877 1160.6 183.585 1160.32 207.762C1160.22 215.307 1174.38 212.055 1177.6 213.798C1178.08 215.892 1178.11 216.302 1177.7 218.411C1164.87 221.867 1151.66 215.093 1153.85 200.895C1154.36 197.684 1154.02 190.25 1154.11 186.741C1146.07 204.652 1132.51 216.509 1113.09 220.167C1086.5 225.177 1056.55 220.569 1050.09 190.565C1047.42 122.304 1107.65 150.858 1147.21 133.62C1158.37 128.759 1154.21 101.591 1147.76 92.7952C1133.93 73.9486 1099.22 75.6013 1081.46 87.5962C1069.44 95.8708 1066.36 106.859 1064.11 120.244L1062.67 121.101L1060.64 120.253C1058.07 116.842 1058.93 114.025 1059.89 110.209C1065.79 86.726 1082.85 75.3757 1106.21 73.5681ZM1066.13 207.466C1093.45 223.832 1128.89 217.675 1146.44 189.963C1156.27 174.465 1154.17 153.491 1153.95 135.641C1127.56 158.992 1059.65 127.688 1055.8 179.702C1054.96 191.052 1057.71 199.651 1066.13 207.466Z" fill="#6F6F70"/>
<path d="M1312.47 73.558C1313.64 73.3562 1314.81 73.2414 1315.99 73.2127C1362.11 72.4237 1379.18 107.633 1379.77 148.76L1260.71 148.758C1262.16 167.009 1264.04 184.227 1276.12 199.053C1294.77 221.944 1333.45 221.338 1355.23 203.381C1360.06 198.493 1362.14 196.538 1365.41 190.639C1368.01 185.952 1370.63 172.695 1373.58 169.707C1376.09 169.493 1375.89 169.128 1377.84 170.175C1379.43 177.584 1369.84 195.671 1365.15 201.58C1347.72 224.792 1299.18 229.313 1277.94 209.58C1238 172.448 1249.78 78.9079 1312.47 73.558ZM1260.89 143.309L1323.37 143.305C1339.87 143.291 1357.53 143.596 1373.93 143.17C1372.66 106.995 1354.3 77.4735 1314.87 79.058C1314.07 79.0908 1313.28 79.1581 1312.48 79.2598C1278.06 83.4639 1263.92 111.698 1260.89 143.309Z" fill="#6F6F70"/>
<path d="M833.419 73.5779C834.239 73.4443 834.985 73.3623 835.821 73.3417C893.094 71.922 888.855 113.804 888.823 155.101L888.888 219.798C883.051 219.577 877.05 219.702 871.196 219.751L871.278 156.685C871.303 125.272 876.214 84.8003 830.607 88.3532C823.573 88.9011 818.227 91.3714 812.087 94.6381C787.82 108.382 790.919 144.663 790.977 168.221L791.026 219.812C785.377 219.562 779.269 219.7 773.572 219.723L773.522 77.4844L791.034 77.4147L791.026 102.612C799.117 84.0965 813.317 75.0001 833.419 73.5779Z" fill="#6F6F70"/>
<path d="M259.305 73.5771C259.445 73.5508 259.585 73.5246 259.725 73.4975C285.781 71.3495 311.703 84.0588 319.062 110.488C320.276 114.849 320.817 118.434 321.479 122.576L303.92 122.562C295.286 88.8173 266.164 77.6697 235.919 97.6579C223.424 105.916 217.021 124.686 214.867 139.096C209.23 176.819 236.636 221.362 279.036 205.776C282.906 204.367 286.197 201.811 289.501 199.178C298.978 191.349 303.182 180.236 305.035 168.454L322.759 168.4C320.098 182.533 316.947 194.012 307.353 205.254C286.776 229.615 243.793 228.775 220.842 208.566C182.42 174.731 189.392 92.3473 242.494 76.3574C248.677 74.4956 252.945 74.0093 259.305 73.5771Z" fill="#6F6F70"/>
<path d="M499.043 34.8345L516.685 34.8373C516.324 48.8398 516.584 63.402 516.646 77.4466L545.777 77.4457L545.783 92.5778C536.515 92.1176 525.862 92.4285 516.478 92.5064C516.732 108.091 514.18 191.913 519.015 200.738C525.001 211.663 535.831 203.396 543.908 205.924C544.267 206.037 544.618 206.151 544.963 206.298C546.133 208.233 545.787 212.079 545.773 214.504C545.875 216.673 545.7 217.859 545.423 219.999C544.376 220.642 543.319 220.775 542.118 220.768C524.882 220.626 502.644 224.022 499.921 200.708C498.363 187.38 498.922 174.424 498.93 161.049L499.02 92.5515C491.736 92.148 481.822 92.4236 474.342 92.4121L474.291 77.4408L498.966 77.4261L499.043 34.8345Z" fill="#6F6F70"/>
<path d="M0.779026 22.7134L17.961 22.724C17.1677 87.8684 17.8769 154.528 17.9324 219.808C12.2452 219.574 6.06197 219.743 0.334025 219.793L0.360508 84.4221C0.356572 71.8957 -0.679441 33.1122 0.779026 22.7134Z" fill="#6F6F70"/>
<path d="M1454.62 73.5589C1455.48 73.3596 1461.31 73.1915 1462.56 73.1382C1469.69 83.487 1473.82 95.2482 1478.58 106.922C1492.69 141.54 1507.9 175.877 1521.79 210.569C1525.79 201.82 1531.03 186.668 1534.59 177.262L1560.16 109.128C1562.14 103.834 1570.45 80.6107 1573.08 77.1726C1575.36 76.126 1575.84 76.1556 1578.29 76.7223C1578.57 78.4004 1517.28 237.276 1512.38 249.6C1509.72 256.293 1504.26 262.672 1496.98 265.294C1493.57 266.518 1479.01 268.353 1475.77 266.842C1475.45 264.716 1475.3 264.121 1476.14 262.099C1481.25 260.176 1487.91 262.441 1497.26 258.94C1508.63 249.555 1513.32 231.508 1518.7 217.243L1479.74 124.686C1475.39 114.288 1464.78 87.1556 1460.04 78.7522C1430.15 79.3862 1412.09 98.1696 1408.18 127.561C1406.81 137.818 1407.24 147.796 1407.25 158.109L1407.39 196.091C1407.41 201.197 1407.8 214.244 1406.49 218.552C1403.85 218.944 1404.29 219.253 1402.04 218.332C1400.57 213.586 1401.19 79.0147 1402.2 76.8109C1404.29 76.345 1404.8 76.491 1406.83 76.9831C1408.12 82.7341 1407.35 104.327 1407.25 111.637C1414.08 87.5624 1429.98 75.6708 1454.62 73.5589Z" fill="#6F6F70"/>
<path d="M570.409 77.4548L588.226 77.3892C589.07 111.957 587.79 147.136 588.346 181.794C588.534 193.516 589.082 208.484 588.112 219.805C582.379 219.604 576.235 219.71 570.468 219.708L570.409 77.4548Z" fill="#6F6F70"/>
<path d="M661.343 74.9705C662.582 74.6958 662.068 74.6711 663.307 75.1263C656.699 80.5509 651.735 85.1217 647.119 92.5351C622.882 131.47 626.311 197.292 667.023 223.546C661.609 221.936 657.345 220.74 652.156 218.369C651.488 218.225 650.513 217.659 649.875 217.355C600.938 194 600.713 105.108 648.369 80.2876C652.732 78.015 656.672 76.5223 661.343 74.9705Z" fill="#B92A2F"/>
<path d="M128.614 74.7432C129.351 74.8022 129.906 74.9375 130.625 75.1213C186.25 89.3445 194.607 175.223 154.375 209.581C151.06 212.412 147.448 214.633 143.667 216.818C138.416 219.425 132.072 221.312 126.449 223.154C132.669 219.233 138.12 214.209 142.537 208.328C170.352 171.95 166.384 103.55 128.614 74.7432Z" fill="#B92A2F"/>
<path d="M91.176 74.9829L91.7122 75.0059L92.0016 75.6284C50.9374 109.174 50.7341 192.027 95.1735 222.89C89.9471 221.429 87.0474 220.532 82.0874 218.384C81.4488 218.105 80.8159 217.811 80.1904 217.502C37.612 196.876 32.6217 131.45 59.1094 96.4376C67.6651 85.1275 78.1211 79.4733 91.176 74.9829Z" fill="#B92A2F"/>
<path d="M700.698 75.3042C701.777 75.5355 702.847 75.802 703.909 76.103C759.482 91.9789 765.883 187.888 713.662 216.732C708.889 219.086 703.001 221.038 697.932 222.864C739.511 197.108 741.598 120.207 711.332 85.0666C708.104 81.3176 704.569 78.3527 700.698 75.3042Z" fill="#B92A2F"/>
<path d="M1191.53 21.208C1193.58 21.2233 1194.64 21.3577 1196.66 21.674C1198.31 24.26 1197.62 60.1319 1197.62 65.4199L1197.65 218.718C1195.76 218.71 1194.53 218.593 1192.67 218.376C1190.8 215.695 1191.55 175.442 1191.55 168.612L1191.53 21.208Z" fill="#6F6F70"/>
<path d="M1227.75 21.1995C1229.83 21.1901 1230.64 21.2254 1232.69 21.5972C1233.95 23.2875 1233.45 198.124 1233.48 218.827C1231.85 218.768 1230.33 218.588 1228.71 218.413C1227.05 215.751 1227.7 179.229 1227.71 172.753L1227.75 21.1995Z" fill="#6F6F70"/>
<path d="M583.311 0L599.087 5.92511C595.333 15.864 585.334 35.7401 580.446 45.9353L579.151 48.577C576.251 49.2724 572.638 47.3035 569.571 46.0892L583.311 0Z" fill="#6F6F70"/>
</svg>
